%TF.GenerationSoftware,KiCad,Pcbnew,8.0.2*%
%TF.CreationDate,2024-05-30T20:48:47-07:00*%
%TF.ProjectId,DSP_TU,4453505f-5455-42e6-9b69-6361645f7063,B*%
%TF.SameCoordinates,Original*%
%TF.FileFunction,Drillmap*%
%TF.FilePolarity,Positive*%
%FSLAX45Y45*%
G04 Gerber Fmt 4.5, Leading zero omitted, Abs format (unit mm)*
G04 Created by KiCad (PCBNEW 8.0.2) date 2024-05-30 20:48:47*
%MOMM*%
%LPD*%
G01*
G04 APERTURE LIST*
%ADD10C,0.050000*%
%ADD11C,0.200000*%
%ADD12C,0.100000*%
%ADD13C,0.110000*%
%ADD14C,0.114300*%
%ADD15C,0.140000*%
%ADD16C,0.185420*%
%ADD17C,0.220000*%
%ADD18C,0.230000*%
%ADD19C,0.640000*%
G04 APERTURE END LIST*
D10*
X3403600Y-2921000D02*
X19913600Y-2921000D01*
X19913600Y-14351000D01*
X3403600Y-14351000D01*
X3403600Y-2921000D01*
D11*
D12*
X4907600Y-5644200D02*
X4947600Y-5684200D01*
X4947600Y-5644200D02*
X4907600Y-5684200D01*
X5085400Y-6888800D02*
X5125400Y-6928800D01*
X5125400Y-6888800D02*
X5085400Y-6928800D01*
X5161600Y-5110800D02*
X5201600Y-5150800D01*
X5201600Y-5110800D02*
X5161600Y-5150800D01*
X5593400Y-5720400D02*
X5633400Y-5760400D01*
X5633400Y-5720400D02*
X5593400Y-5760400D01*
X5618800Y-5314000D02*
X5658800Y-5354000D01*
X5658800Y-5314000D02*
X5618800Y-5354000D01*
X5745800Y-6660200D02*
X5785800Y-6700200D01*
X5785800Y-6660200D02*
X5745800Y-6700200D01*
X5999800Y-6584000D02*
X6039800Y-6624000D01*
X6039800Y-6584000D02*
X5999800Y-6624000D01*
X6253800Y-6584000D02*
X6293800Y-6624000D01*
X6293800Y-6584000D02*
X6253800Y-6624000D01*
X6507800Y-6584000D02*
X6547800Y-6624000D01*
X6547800Y-6584000D02*
X6507800Y-6624000D01*
X6634800Y-6990400D02*
X6674800Y-7030400D01*
X6674800Y-6990400D02*
X6634800Y-7030400D01*
X7015800Y-6591450D02*
X7055800Y-6631450D01*
X7055800Y-6591450D02*
X7015800Y-6631450D01*
X7498400Y-4907600D02*
X7538400Y-4947600D01*
X7538400Y-4907600D02*
X7498400Y-4947600D01*
X10073800Y-12661050D02*
X10113800Y-12701050D01*
X10113800Y-12661050D02*
X10073800Y-12701050D01*
X11801000Y-11689400D02*
X11841000Y-11729400D01*
X11841000Y-11689400D02*
X11801000Y-11729400D01*
X11801000Y-12146600D02*
X11841000Y-12186600D01*
X11841000Y-12146600D02*
X11801000Y-12186600D01*
X12275111Y-12193650D02*
X12315111Y-12233650D01*
X12315111Y-12193650D02*
X12275111Y-12233650D01*
X12334400Y-11892600D02*
X12374400Y-11932600D01*
X12374400Y-11892600D02*
X12334400Y-11932600D01*
X12466404Y-10149600D02*
X12506404Y-10189600D01*
X12506404Y-10149600D02*
X12466404Y-10189600D01*
X12791600Y-11537000D02*
X12831600Y-11577000D01*
X12831600Y-11537000D02*
X12791600Y-11577000D01*
X12791600Y-11664000D02*
X12831600Y-11704000D01*
X12831600Y-11664000D02*
X12791600Y-11704000D01*
X12807450Y-11918000D02*
X12847450Y-11958000D01*
X12847450Y-11918000D02*
X12807450Y-11958000D01*
X13199325Y-11906709D02*
X13239325Y-11946709D01*
X13239325Y-11906709D02*
X13199325Y-11946709D01*
X13218111Y-11618489D02*
X13258111Y-11658489D01*
X13258111Y-11618489D02*
X13218111Y-11658489D01*
X13555270Y-10104650D02*
X13595270Y-10144650D01*
X13595270Y-10104650D02*
X13555270Y-10144650D01*
X13680600Y-10952800D02*
X13720600Y-10992800D01*
X13720600Y-10952800D02*
X13680600Y-10992800D01*
X13680600Y-12578400D02*
X13720600Y-12618400D01*
X13720600Y-12578400D02*
X13680600Y-12618400D01*
X13733070Y-10104650D02*
X13773070Y-10144650D01*
X13773070Y-10104650D02*
X13733070Y-10144650D01*
X13785950Y-12984800D02*
X13825950Y-13024800D01*
X13825950Y-12984800D02*
X13785950Y-13024800D01*
X13960000Y-12705400D02*
X14000000Y-12745400D01*
X14000000Y-12705400D02*
X13960000Y-12745400D01*
X13960000Y-13162600D02*
X14000000Y-13202600D01*
X14000000Y-13162600D02*
X13960000Y-13202600D01*
X14061600Y-10521000D02*
X14101600Y-10561000D01*
X14101600Y-10521000D02*
X14061600Y-10561000D01*
X14061600Y-11003600D02*
X14101600Y-11043600D01*
X14101600Y-11003600D02*
X14061600Y-11043600D01*
X14087000Y-12912350D02*
X14127000Y-12952350D01*
X14127000Y-12912350D02*
X14087000Y-12952350D01*
X14214000Y-12912350D02*
X14254000Y-12952350D01*
X14254000Y-12912350D02*
X14214000Y-12952350D01*
X14239400Y-10521000D02*
X14279400Y-10561000D01*
X14279400Y-10521000D02*
X14239400Y-10561000D01*
X14239400Y-10952800D02*
X14279400Y-10992800D01*
X14279400Y-10952800D02*
X14239400Y-10992800D01*
X14341000Y-12908600D02*
X14381000Y-12948600D01*
X14381000Y-12908600D02*
X14341000Y-12948600D01*
X14366400Y-9835200D02*
X14406400Y-9875200D01*
X14406400Y-9835200D02*
X14366400Y-9875200D01*
X14366400Y-10089200D02*
X14406400Y-10129200D01*
X14406400Y-10089200D02*
X14366400Y-10129200D01*
X14417200Y-10521000D02*
X14457200Y-10561000D01*
X14457200Y-10521000D02*
X14417200Y-10561000D01*
X14494450Y-12912850D02*
X14534450Y-12952850D01*
X14534450Y-12912850D02*
X14494450Y-12952850D01*
X14594570Y-10521430D02*
X14634570Y-10561430D01*
X14634570Y-10521430D02*
X14594570Y-10561430D01*
X14725740Y-11754550D02*
X14765740Y-11794550D01*
X14765740Y-11754550D02*
X14725740Y-11794550D01*
X14747400Y-13061000D02*
X14787400Y-13101000D01*
X14787400Y-13061000D02*
X14747400Y-13101000D01*
X14747400Y-13524650D02*
X14787400Y-13564650D01*
X14787400Y-13524650D02*
X14747400Y-13564650D01*
X14747830Y-10444370D02*
X14787830Y-10484370D01*
X14787830Y-10444370D02*
X14747830Y-10484370D01*
X14870250Y-11964650D02*
X14910250Y-12004650D01*
X14910250Y-11964650D02*
X14870250Y-12004650D01*
X14874400Y-10444800D02*
X14914400Y-10484800D01*
X14914400Y-10444800D02*
X14874400Y-10484800D01*
X14874400Y-10648000D02*
X14914400Y-10688000D01*
X14914400Y-10648000D02*
X14874400Y-10688000D01*
X14950600Y-11130600D02*
X14990600Y-11170600D01*
X14990600Y-11130600D02*
X14950600Y-11170600D01*
X15147586Y-11726044D02*
X15187586Y-11766044D01*
X15187586Y-11726044D02*
X15147586Y-11766044D01*
X15190421Y-11816350D02*
X15230421Y-11856350D01*
X15230421Y-11816350D02*
X15190421Y-11856350D01*
X15280800Y-11968800D02*
X15320800Y-12008800D01*
X15320800Y-11968800D02*
X15280800Y-12008800D01*
X16525400Y-5060000D02*
X16565400Y-5100000D01*
X16565400Y-5060000D02*
X16525400Y-5100000D01*
X16779400Y-5110800D02*
X16819400Y-5150800D01*
X16819400Y-5110800D02*
X16779400Y-5150800D01*
X16881000Y-4780600D02*
X16921000Y-4820600D01*
X16921000Y-4780600D02*
X16881000Y-4820600D01*
X16931800Y-5110800D02*
X16971800Y-5150800D01*
X16971800Y-5110800D02*
X16931800Y-5150800D01*
X17058800Y-5110800D02*
X17098800Y-5150800D01*
X17098800Y-5110800D02*
X17058800Y-5150800D01*
X17211200Y-6558600D02*
X17251200Y-6598600D01*
X17251200Y-6558600D02*
X17211200Y-6598600D01*
X17211200Y-12908600D02*
X17251200Y-12948600D01*
X17251200Y-12908600D02*
X17211200Y-12948600D01*
X17465200Y-6025200D02*
X17505200Y-6065200D01*
X17505200Y-6025200D02*
X17465200Y-6065200D01*
X17541400Y-5771200D02*
X17581400Y-5811200D01*
X17581400Y-5771200D02*
X17541400Y-5811200D01*
X17541400Y-6330000D02*
X17581400Y-6370000D01*
X17581400Y-6330000D02*
X17541400Y-6370000D01*
X17719200Y-4780600D02*
X17759200Y-4820600D01*
X17759200Y-4780600D02*
X17719200Y-4820600D01*
X17820800Y-5136200D02*
X17860800Y-5176200D01*
X17860800Y-5136200D02*
X17820800Y-5176200D01*
X17973200Y-5441000D02*
X18013200Y-5481000D01*
X18013200Y-5441000D02*
X17973200Y-5481000D01*
X18049400Y-4983800D02*
X18089400Y-5023800D01*
X18089400Y-4983800D02*
X18049400Y-5023800D01*
X18100200Y-6228400D02*
X18140200Y-6268400D01*
X18140200Y-6228400D02*
X18100200Y-6268400D01*
X4703800Y-14046200D02*
G75*
G02*
X4633800Y-14046200I-35000J0D01*
G01*
X4633800Y-14046200D02*
G75*
G02*
X4703800Y-14046200I35000J0D01*
G01*
X4818800Y-14046200D02*
G75*
G02*
X4748800Y-14046200I-35000J0D01*
G01*
X4748800Y-14046200D02*
G75*
G02*
X4818800Y-14046200I35000J0D01*
G01*
X4933800Y-14046200D02*
G75*
G02*
X4863800Y-14046200I-35000J0D01*
G01*
X4863800Y-14046200D02*
G75*
G02*
X4933800Y-14046200I35000J0D01*
G01*
X5048800Y-14046200D02*
G75*
G02*
X4978800Y-14046200I-35000J0D01*
G01*
X4978800Y-14046200D02*
G75*
G02*
X5048800Y-14046200I35000J0D01*
G01*
X5719800Y-14046200D02*
G75*
G02*
X5649800Y-14046200I-35000J0D01*
G01*
X5649800Y-14046200D02*
G75*
G02*
X5719800Y-14046200I35000J0D01*
G01*
X5834800Y-14046200D02*
G75*
G02*
X5764800Y-14046200I-35000J0D01*
G01*
X5764800Y-14046200D02*
G75*
G02*
X5834800Y-14046200I35000J0D01*
G01*
X5949800Y-14046200D02*
G75*
G02*
X5879800Y-14046200I-35000J0D01*
G01*
X5879800Y-14046200D02*
G75*
G02*
X5949800Y-14046200I35000J0D01*
G01*
X6064800Y-14046200D02*
G75*
G02*
X5994800Y-14046200I-35000J0D01*
G01*
X5994800Y-14046200D02*
G75*
G02*
X6064800Y-14046200I35000J0D01*
G01*
X6735800Y-14046200D02*
G75*
G02*
X6665800Y-14046200I-35000J0D01*
G01*
X6665800Y-14046200D02*
G75*
G02*
X6735800Y-14046200I35000J0D01*
G01*
X6850800Y-14046200D02*
G75*
G02*
X6780800Y-14046200I-35000J0D01*
G01*
X6780800Y-14046200D02*
G75*
G02*
X6850800Y-14046200I35000J0D01*
G01*
X6965800Y-14046200D02*
G75*
G02*
X6895800Y-14046200I-35000J0D01*
G01*
X6895800Y-14046200D02*
G75*
G02*
X6965800Y-14046200I35000J0D01*
G01*
X7080800Y-14046200D02*
G75*
G02*
X7010800Y-14046200I-35000J0D01*
G01*
X7010800Y-14046200D02*
G75*
G02*
X7080800Y-14046200I35000J0D01*
G01*
X7751800Y-14046200D02*
G75*
G02*
X7681800Y-14046200I-35000J0D01*
G01*
X7681800Y-14046200D02*
G75*
G02*
X7751800Y-14046200I35000J0D01*
G01*
X7866800Y-14046200D02*
G75*
G02*
X7796800Y-14046200I-35000J0D01*
G01*
X7796800Y-14046200D02*
G75*
G02*
X7866800Y-14046200I35000J0D01*
G01*
X7981800Y-14046200D02*
G75*
G02*
X7911800Y-14046200I-35000J0D01*
G01*
X7911800Y-14046200D02*
G75*
G02*
X7981800Y-14046200I35000J0D01*
G01*
X8096800Y-14046200D02*
G75*
G02*
X8026800Y-14046200I-35000J0D01*
G01*
X8026800Y-14046200D02*
G75*
G02*
X8096800Y-14046200I35000J0D01*
G01*
X8767800Y-14046200D02*
G75*
G02*
X8697800Y-14046200I-35000J0D01*
G01*
X8697800Y-14046200D02*
G75*
G02*
X8767800Y-14046200I35000J0D01*
G01*
X8882800Y-14046200D02*
G75*
G02*
X8812800Y-14046200I-35000J0D01*
G01*
X8812800Y-14046200D02*
G75*
G02*
X8882800Y-14046200I35000J0D01*
G01*
X8997800Y-14046200D02*
G75*
G02*
X8927800Y-14046200I-35000J0D01*
G01*
X8927800Y-14046200D02*
G75*
G02*
X8997800Y-14046200I35000J0D01*
G01*
X9112800Y-14046200D02*
G75*
G02*
X9042800Y-14046200I-35000J0D01*
G01*
X9042800Y-14046200D02*
G75*
G02*
X9112800Y-14046200I35000J0D01*
G01*
X9783800Y-14046200D02*
G75*
G02*
X9713800Y-14046200I-35000J0D01*
G01*
X9713800Y-14046200D02*
G75*
G02*
X9783800Y-14046200I35000J0D01*
G01*
X9898800Y-14046200D02*
G75*
G02*
X9828800Y-14046200I-35000J0D01*
G01*
X9828800Y-14046200D02*
G75*
G02*
X9898800Y-14046200I35000J0D01*
G01*
X10013800Y-14046200D02*
G75*
G02*
X9943800Y-14046200I-35000J0D01*
G01*
X9943800Y-14046200D02*
G75*
G02*
X10013800Y-14046200I35000J0D01*
G01*
X10128800Y-14046200D02*
G75*
G02*
X10058800Y-14046200I-35000J0D01*
G01*
X10058800Y-14046200D02*
G75*
G02*
X10128800Y-14046200I35000J0D01*
G01*
X8431300Y-5345800D02*
X8431300Y-5425800D01*
X8391300Y-5385800D02*
X8471300Y-5385800D01*
X8431300Y-6107800D02*
X8431300Y-6187800D01*
X8391300Y-6147800D02*
X8471300Y-6147800D01*
X8685300Y-5345800D02*
X8685300Y-5425800D01*
X8645300Y-5385800D02*
X8725300Y-5385800D01*
X8685300Y-6107800D02*
X8685300Y-6187800D01*
X8645300Y-6147800D02*
X8725300Y-6147800D01*
X8939300Y-5345800D02*
X8939300Y-5425800D01*
X8899300Y-5385800D02*
X8979300Y-5385800D01*
X8939300Y-6107800D02*
X8939300Y-6187800D01*
X8899300Y-6147800D02*
X8979300Y-6147800D01*
X9602700Y-5343800D02*
X9602700Y-5423800D01*
X9562700Y-5383800D02*
X9642700Y-5383800D01*
X9602700Y-6105800D02*
X9602700Y-6185800D01*
X9562700Y-6145800D02*
X9642700Y-6145800D01*
X9856700Y-5343800D02*
X9856700Y-5423800D01*
X9816700Y-5383800D02*
X9896700Y-5383800D01*
X9856700Y-6105800D02*
X9856700Y-6185800D01*
X9816700Y-6145800D02*
X9896700Y-6145800D01*
X10110700Y-5343800D02*
X10110700Y-5423800D01*
X10070700Y-5383800D02*
X10150700Y-5383800D01*
X10110700Y-6105800D02*
X10110700Y-6185800D01*
X10070700Y-6145800D02*
X10150700Y-6145800D01*
X10744200Y-5370200D02*
X10744200Y-5450200D01*
X10704200Y-5410200D02*
X10784200Y-5410200D01*
X10744200Y-6132200D02*
X10744200Y-6212200D01*
X10704200Y-6172200D02*
X10784200Y-6172200D01*
X10998200Y-5370200D02*
X10998200Y-5450200D01*
X10958200Y-5410200D02*
X11038200Y-5410200D01*
X10998200Y-6132200D02*
X10998200Y-6212200D01*
X10958200Y-6172200D02*
X11038200Y-6172200D01*
X11252200Y-5370200D02*
X11252200Y-5450200D01*
X11212200Y-5410200D02*
X11292200Y-5410200D01*
X11252200Y-6132200D02*
X11252200Y-6212200D01*
X11212200Y-6172200D02*
X11292200Y-6172200D01*
X17035127Y-4253727D02*
X17035127Y-4188673D01*
X16970073Y-4188673D01*
X16970073Y-4253727D01*
X17035127Y-4253727D01*
X17035127Y-4453727D02*
X17035127Y-4388673D01*
X16970073Y-4388673D01*
X16970073Y-4453727D01*
X17035127Y-4453727D01*
X17285127Y-4253727D02*
X17285127Y-4188673D01*
X17220073Y-4188673D01*
X17220073Y-4253727D01*
X17285127Y-4253727D01*
X17285127Y-4453727D02*
X17285127Y-4388673D01*
X17220073Y-4388673D01*
X17220073Y-4453727D01*
X17285127Y-4453727D01*
X4681300Y-14316200D02*
X4731300Y-14266200D01*
X4681300Y-14216200D01*
X4631300Y-14266200D01*
X4681300Y-14316200D01*
X5001300Y-14316200D02*
X5051300Y-14266200D01*
X5001300Y-14216200D01*
X4951300Y-14266200D01*
X5001300Y-14316200D01*
X5003800Y-7670000D02*
X5053800Y-7620000D01*
X5003800Y-7570000D01*
X4953800Y-7620000D01*
X5003800Y-7670000D01*
X5257800Y-7670000D02*
X5307800Y-7620000D01*
X5257800Y-7570000D01*
X5207800Y-7620000D01*
X5257800Y-7670000D01*
X5511800Y-7670000D02*
X5561800Y-7620000D01*
X5511800Y-7570000D01*
X5461800Y-7620000D01*
X5511800Y-7670000D01*
X5697300Y-14316200D02*
X5747300Y-14266200D01*
X5697300Y-14216200D01*
X5647300Y-14266200D01*
X5697300Y-14316200D01*
X5765800Y-7670000D02*
X5815800Y-7620000D01*
X5765800Y-7570000D01*
X5715800Y-7620000D01*
X5765800Y-7670000D01*
X6017300Y-14316200D02*
X6067300Y-14266200D01*
X6017300Y-14216200D01*
X5967300Y-14266200D01*
X6017300Y-14316200D01*
X6019800Y-7670000D02*
X6069800Y-7620000D01*
X6019800Y-7570000D01*
X5969800Y-7620000D01*
X6019800Y-7670000D01*
X6273800Y-7670000D02*
X6323800Y-7620000D01*
X6273800Y-7570000D01*
X6223800Y-7620000D01*
X6273800Y-7670000D01*
X6527800Y-7670000D02*
X6577800Y-7620000D01*
X6527800Y-7570000D01*
X6477800Y-7620000D01*
X6527800Y-7670000D01*
X6713300Y-14316200D02*
X6763300Y-14266200D01*
X6713300Y-14216200D01*
X6663300Y-14266200D01*
X6713300Y-14316200D01*
X6781800Y-7670000D02*
X6831800Y-7620000D01*
X6781800Y-7570000D01*
X6731800Y-7620000D01*
X6781800Y-7670000D01*
X7033300Y-14316200D02*
X7083300Y-14266200D01*
X7033300Y-14216200D01*
X6983300Y-14266200D01*
X7033300Y-14316200D01*
X7729300Y-14316200D02*
X7779300Y-14266200D01*
X7729300Y-14216200D01*
X7679300Y-14266200D01*
X7729300Y-14316200D01*
X8049300Y-14316200D02*
X8099300Y-14266200D01*
X8049300Y-14216200D01*
X7999300Y-14266200D01*
X8049300Y-14316200D01*
X8745300Y-14316200D02*
X8795300Y-14266200D01*
X8745300Y-14216200D01*
X8695300Y-14266200D01*
X8745300Y-14316200D01*
X9065300Y-14316200D02*
X9115300Y-14266200D01*
X9065300Y-14216200D01*
X9015300Y-14266200D01*
X9065300Y-14316200D01*
X9761300Y-14316200D02*
X9811300Y-14266200D01*
X9761300Y-14216200D01*
X9711300Y-14266200D01*
X9761300Y-14316200D01*
X10017600Y-10159200D02*
X10067600Y-10109200D01*
X10017600Y-10059200D01*
X9967600Y-10109200D01*
X10017600Y-10159200D01*
X10081300Y-14316200D02*
X10131300Y-14266200D01*
X10081300Y-14216200D01*
X10031300Y-14266200D01*
X10081300Y-14316200D01*
X10271600Y-10159200D02*
X10321600Y-10109200D01*
X10271600Y-10059200D01*
X10221600Y-10109200D01*
X10271600Y-10159200D01*
X10525600Y-10159200D02*
X10575600Y-10109200D01*
X10525600Y-10059200D01*
X10475600Y-10109200D01*
X10525600Y-10159200D01*
X10779600Y-10159200D02*
X10829600Y-10109200D01*
X10779600Y-10059200D01*
X10729600Y-10109200D01*
X10779600Y-10159200D01*
X11033600Y-10159200D02*
X11083600Y-10109200D01*
X11033600Y-10059200D01*
X10983600Y-10109200D01*
X11033600Y-10159200D01*
X11287600Y-10159200D02*
X11337600Y-10109200D01*
X11287600Y-10059200D01*
X11237600Y-10109200D01*
X11287600Y-10159200D01*
X11541600Y-10159200D02*
X11591600Y-10109200D01*
X11541600Y-10059200D01*
X11491600Y-10109200D01*
X11541600Y-10159200D01*
X11719400Y-10845000D02*
X11769400Y-10795000D01*
X11719400Y-10745000D01*
X11669400Y-10795000D01*
X11719400Y-10845000D01*
X11795600Y-10159200D02*
X11845600Y-10109200D01*
X11795600Y-10059200D01*
X11745600Y-10109200D01*
X11795600Y-10159200D01*
X11973400Y-10845000D02*
X12023400Y-10795000D01*
X11973400Y-10745000D01*
X11923400Y-10795000D01*
X11973400Y-10845000D01*
X12024700Y-13023700D02*
X12074700Y-12973700D01*
X12024700Y-12923700D01*
X11974700Y-12973700D01*
X12024700Y-13023700D01*
X12227400Y-10845000D02*
X12277400Y-10795000D01*
X12227400Y-10745000D01*
X12177400Y-10795000D01*
X12227400Y-10845000D01*
X12278700Y-13023700D02*
X12328700Y-12973700D01*
X12278700Y-12923700D01*
X12228700Y-12973700D01*
X12278700Y-13023700D01*
X12481400Y-10845000D02*
X12531400Y-10795000D01*
X12481400Y-10745000D01*
X12431400Y-10795000D01*
X12481400Y-10845000D01*
X12532700Y-13023700D02*
X12582700Y-12973700D01*
X12532700Y-12923700D01*
X12482700Y-12973700D01*
X12532700Y-13023700D01*
X12735400Y-10845000D02*
X12785400Y-10795000D01*
X12735400Y-10745000D01*
X12685400Y-10795000D01*
X12735400Y-10845000D01*
X12786700Y-13023700D02*
X12836700Y-12973700D01*
X12786700Y-12923700D01*
X12736700Y-12973700D01*
X12786700Y-13023700D01*
X12989400Y-10845000D02*
X13039400Y-10795000D01*
X12989400Y-10745000D01*
X12939400Y-10795000D01*
X12989400Y-10845000D01*
X13040700Y-13023700D02*
X13090700Y-12973700D01*
X13040700Y-12923700D01*
X12990700Y-12973700D01*
X13040700Y-13023700D01*
X13243400Y-10845000D02*
X13293400Y-10795000D01*
X13243400Y-10745000D01*
X13193400Y-10795000D01*
X13243400Y-10845000D01*
X13294700Y-13023700D02*
X13344700Y-12973700D01*
X13294700Y-12923700D01*
X13244700Y-12973700D01*
X13294700Y-13023700D01*
X13497400Y-10845000D02*
X13547400Y-10795000D01*
X13497400Y-10745000D01*
X13447400Y-10795000D01*
X13497400Y-10845000D01*
X13548700Y-13023700D02*
X13598700Y-12973700D01*
X13548700Y-12923700D01*
X13498700Y-12973700D01*
X13548700Y-13023700D01*
X17002600Y-10718000D02*
X17052600Y-10668000D01*
X17002600Y-10618000D01*
X16952600Y-10668000D01*
X17002600Y-10718000D01*
X17002600Y-10972000D02*
X17052600Y-10922000D01*
X17002600Y-10872000D01*
X16952600Y-10922000D01*
X17002600Y-10972000D01*
X17002600Y-11226000D02*
X17052600Y-11176000D01*
X17002600Y-11126000D01*
X16952600Y-11176000D01*
X17002600Y-11226000D01*
X17002600Y-11480000D02*
X17052600Y-11430000D01*
X17002600Y-11380000D01*
X16952600Y-11430000D01*
X17002600Y-11480000D01*
X17002600Y-11734000D02*
X17052600Y-11684000D01*
X17002600Y-11634000D01*
X16952600Y-11684000D01*
X17002600Y-11734000D01*
X17002600Y-11988000D02*
X17052600Y-11938000D01*
X17002600Y-11888000D01*
X16952600Y-11938000D01*
X17002600Y-11988000D01*
X17002600Y-12242000D02*
X17052600Y-12192000D01*
X17002600Y-12142000D01*
X16952600Y-12192000D01*
X17002600Y-12242000D01*
X17002600Y-12496000D02*
X17052600Y-12446000D01*
X17002600Y-12396000D01*
X16952600Y-12446000D01*
X17002600Y-12496000D01*
D13*
X15859400Y-13792000D02*
X15969400Y-13902000D01*
X15969400Y-13792000D02*
X15859400Y-13902000D01*
X15969400Y-13847000D02*
G75*
G02*
X15859400Y-13847000I-55000J0D01*
G01*
X15859400Y-13847000D02*
G75*
G02*
X15969400Y-13847000I55000J0D01*
G01*
X15859400Y-14042000D02*
X15969400Y-14152000D01*
X15969400Y-14042000D02*
X15859400Y-14152000D01*
X15969400Y-14097000D02*
G75*
G02*
X15859400Y-14097000I-55000J0D01*
G01*
X15859400Y-14097000D02*
G75*
G02*
X15969400Y-14097000I55000J0D01*
G01*
X16109400Y-14042000D02*
X16219400Y-14152000D01*
X16219400Y-14042000D02*
X16109400Y-14152000D01*
X16219400Y-14097000D02*
G75*
G02*
X16109400Y-14097000I-55000J0D01*
G01*
X16109400Y-14097000D02*
G75*
G02*
X16219400Y-14097000I55000J0D01*
G01*
X16359400Y-13792000D02*
X16469400Y-13902000D01*
X16469400Y-13792000D02*
X16359400Y-13902000D01*
X16469400Y-13847000D02*
G75*
G02*
X16359400Y-13847000I-55000J0D01*
G01*
X16359400Y-13847000D02*
G75*
G02*
X16469400Y-13847000I55000J0D01*
G01*
X16359400Y-14042000D02*
X16469400Y-14152000D01*
X16469400Y-14042000D02*
X16359400Y-14152000D01*
X16469400Y-14097000D02*
G75*
G02*
X16359400Y-14097000I-55000J0D01*
G01*
X16359400Y-14097000D02*
G75*
G02*
X16469400Y-14097000I55000J0D01*
G01*
D14*
X9155430Y-4972050D02*
X9269730Y-5086350D01*
X9269730Y-4972050D02*
X9155430Y-5086350D01*
X9212580Y-4972050D02*
X9212580Y-5086350D01*
X9155430Y-5029200D02*
X9269730Y-5029200D01*
X10534650Y-4972050D02*
X10648950Y-5086350D01*
X10648950Y-4972050D02*
X10534650Y-5086350D01*
X10591800Y-4972050D02*
X10591800Y-5086350D01*
X10534650Y-5029200D02*
X10648950Y-5029200D01*
D15*
X9242900Y-3860600D02*
X9382900Y-4000600D01*
X9382900Y-3860600D02*
X9242900Y-4000600D01*
X9362398Y-3980098D02*
X9362398Y-3881102D01*
X9263402Y-3881102D01*
X9263402Y-3980098D01*
X9362398Y-3980098D01*
X9742900Y-3860600D02*
X9882900Y-4000600D01*
X9882900Y-3860600D02*
X9742900Y-4000600D01*
X9862398Y-3980098D02*
X9862398Y-3881102D01*
X9763402Y-3881102D01*
X9763402Y-3980098D01*
X9862398Y-3980098D01*
X10242900Y-3860600D02*
X10382900Y-4000600D01*
X10382900Y-3860600D02*
X10242900Y-4000600D01*
X10362398Y-3980098D02*
X10362398Y-3881102D01*
X10263402Y-3881102D01*
X10263402Y-3980098D01*
X10362398Y-3980098D01*
X10742900Y-3860600D02*
X10882900Y-4000600D01*
X10882900Y-3860600D02*
X10742900Y-4000600D01*
X10862398Y-3980098D02*
X10862398Y-3881102D01*
X10763402Y-3881102D01*
X10763402Y-3980098D01*
X10862398Y-3980098D01*
X11242900Y-3860600D02*
X11382900Y-4000600D01*
X11382900Y-3860600D02*
X11242900Y-4000600D01*
X11362398Y-3980098D02*
X11362398Y-3881102D01*
X11263402Y-3881102D01*
X11263402Y-3980098D01*
X11362398Y-3980098D01*
X11742900Y-3860600D02*
X11882900Y-4000600D01*
X11882900Y-3860600D02*
X11742900Y-4000600D01*
X11862398Y-3980098D02*
X11862398Y-3881102D01*
X11763402Y-3881102D01*
X11763402Y-3980098D01*
X11862398Y-3980098D01*
X12242900Y-3860600D02*
X12382900Y-4000600D01*
X12382900Y-3860600D02*
X12242900Y-4000600D01*
X12362398Y-3980098D02*
X12362398Y-3881102D01*
X12263402Y-3881102D01*
X12263402Y-3980098D01*
X12362398Y-3980098D01*
X12485150Y-5213200D02*
X12625150Y-5353200D01*
X12625150Y-5213200D02*
X12485150Y-5353200D01*
X12604648Y-5332698D02*
X12604648Y-5233702D01*
X12505652Y-5233702D01*
X12505652Y-5332698D01*
X12604648Y-5332698D01*
X12485150Y-6280000D02*
X12625150Y-6420000D01*
X12625150Y-6280000D02*
X12485150Y-6420000D01*
X12604648Y-6399498D02*
X12604648Y-6300502D01*
X12505652Y-6300502D01*
X12505652Y-6399498D01*
X12604648Y-6399498D01*
X12742900Y-3860600D02*
X12882900Y-4000600D01*
X12882900Y-3860600D02*
X12742900Y-4000600D01*
X12862398Y-3980098D02*
X12862398Y-3881102D01*
X12763402Y-3881102D01*
X12763402Y-3980098D01*
X12862398Y-3980098D01*
X12960150Y-5213200D02*
X13100150Y-5353200D01*
X13100150Y-5213200D02*
X12960150Y-5353200D01*
X13079648Y-5332698D02*
X13079648Y-5233702D01*
X12980652Y-5233702D01*
X12980652Y-5332698D01*
X13079648Y-5332698D01*
X12960150Y-6280000D02*
X13100150Y-6420000D01*
X13100150Y-6280000D02*
X12960150Y-6420000D01*
X13079648Y-6399498D02*
X13079648Y-6300502D01*
X12980652Y-6300502D01*
X12980652Y-6399498D01*
X13079648Y-6399498D01*
X13242900Y-3860600D02*
X13382900Y-4000600D01*
X13382900Y-3860600D02*
X13242900Y-4000600D01*
X13362398Y-3980098D02*
X13362398Y-3881102D01*
X13263402Y-3881102D01*
X13263402Y-3980098D01*
X13362398Y-3980098D01*
X13435150Y-5213200D02*
X13575150Y-5353200D01*
X13575150Y-5213200D02*
X13435150Y-5353200D01*
X13554648Y-5332698D02*
X13554648Y-5233702D01*
X13455652Y-5233702D01*
X13455652Y-5332698D01*
X13554648Y-5332698D01*
X13435150Y-6280000D02*
X13575150Y-6420000D01*
X13575150Y-6280000D02*
X13435150Y-6420000D01*
X13554648Y-6399498D02*
X13554648Y-6300502D01*
X13455652Y-6300502D01*
X13455652Y-6399498D01*
X13554648Y-6399498D01*
X13742900Y-3860600D02*
X13882900Y-4000600D01*
X13882900Y-3860600D02*
X13742900Y-4000600D01*
X13862398Y-3980098D02*
X13862398Y-3881102D01*
X13763402Y-3881102D01*
X13763402Y-3980098D01*
X13862398Y-3980098D01*
X14242900Y-3860600D02*
X14382900Y-4000600D01*
X14382900Y-3860600D02*
X14242900Y-4000600D01*
X14362398Y-3980098D02*
X14362398Y-3881102D01*
X14263402Y-3881102D01*
X14263402Y-3980098D01*
X14362398Y-3980098D01*
X14695050Y-5213200D02*
X14835050Y-5353200D01*
X14835050Y-5213200D02*
X14695050Y-5353200D01*
X14814548Y-5332698D02*
X14814548Y-5233702D01*
X14715552Y-5233702D01*
X14715552Y-5332698D01*
X14814548Y-5332698D01*
X14695050Y-6280000D02*
X14835050Y-6420000D01*
X14835050Y-6280000D02*
X14695050Y-6420000D01*
X14814548Y-6399498D02*
X14814548Y-6300502D01*
X14715552Y-6300502D01*
X14715552Y-6399498D01*
X14814548Y-6399498D01*
X14742900Y-3860600D02*
X14882900Y-4000600D01*
X14882900Y-3860600D02*
X14742900Y-4000600D01*
X14862398Y-3980098D02*
X14862398Y-3881102D01*
X14763402Y-3881102D01*
X14763402Y-3980098D01*
X14862398Y-3980098D01*
X15170050Y-5213200D02*
X15310050Y-5353200D01*
X15310050Y-5213200D02*
X15170050Y-5353200D01*
X15289548Y-5332698D02*
X15289548Y-5233702D01*
X15190552Y-5233702D01*
X15190552Y-5332698D01*
X15289548Y-5332698D01*
X15170050Y-6280000D02*
X15310050Y-6420000D01*
X15310050Y-6280000D02*
X15170050Y-6420000D01*
X15289548Y-6399498D02*
X15289548Y-6300502D01*
X15190552Y-6300502D01*
X15190552Y-6399498D01*
X15289548Y-6399498D01*
X15645050Y-5213200D02*
X15785050Y-5353200D01*
X15785050Y-5213200D02*
X15645050Y-5353200D01*
X15764548Y-5332698D02*
X15764548Y-5233702D01*
X15665552Y-5233702D01*
X15665552Y-5332698D01*
X15764548Y-5332698D01*
X15645050Y-6280000D02*
X15785050Y-6420000D01*
X15785050Y-6280000D02*
X15645050Y-6420000D01*
X15764548Y-6399498D02*
X15764548Y-6300502D01*
X15665552Y-6300502D01*
X15665552Y-6399498D01*
X15764548Y-6399498D01*
D16*
X17963990Y-14080490D02*
X18149410Y-14265910D01*
X18149410Y-14080490D02*
X17963990Y-14265910D01*
X18056700Y-14265910D02*
X18149410Y-14173200D01*
X18056700Y-14080490D01*
X17963990Y-14173200D01*
X18056700Y-14265910D01*
X17976690Y-12048490D02*
X18162110Y-12233910D01*
X18162110Y-12048490D02*
X17976690Y-12233910D01*
X18069400Y-12233910D02*
X18162110Y-12141200D01*
X18069400Y-12048490D01*
X17976690Y-12141200D01*
X18069400Y-12233910D01*
X17976690Y-12429490D02*
X18162110Y-12614910D01*
X18162110Y-12429490D02*
X17976690Y-12614910D01*
X18069400Y-12614910D02*
X18162110Y-12522200D01*
X18069400Y-12429490D01*
X17976690Y-12522200D01*
X18069400Y-12614910D01*
X17976690Y-12810490D02*
X18162110Y-12995910D01*
X18162110Y-12810490D02*
X17976690Y-12995910D01*
X18069400Y-12995910D02*
X18162110Y-12903200D01*
X18069400Y-12810490D01*
X17976690Y-12903200D01*
X18069400Y-12995910D01*
X18459290Y-12048490D02*
X18644710Y-12233910D01*
X18644710Y-12048490D02*
X18459290Y-12233910D01*
X18552000Y-12233910D02*
X18644710Y-12141200D01*
X18552000Y-12048490D01*
X18459290Y-12141200D01*
X18552000Y-12233910D01*
X18459290Y-12429490D02*
X18644710Y-12614910D01*
X18644710Y-12429490D02*
X18459290Y-12614910D01*
X18552000Y-12614910D02*
X18644710Y-12522200D01*
X18552000Y-12429490D01*
X18459290Y-12522200D01*
X18552000Y-12614910D01*
X18459290Y-12810490D02*
X18644710Y-12995910D01*
X18644710Y-12810490D02*
X18459290Y-12995910D01*
X18552000Y-12995910D02*
X18644710Y-12903200D01*
X18552000Y-12810490D01*
X18459290Y-12903200D01*
X18552000Y-12995910D01*
X18471990Y-14080490D02*
X18657410Y-14265910D01*
X18657410Y-14080490D02*
X18471990Y-14265910D01*
X18564700Y-14265910D02*
X18657410Y-14173200D01*
X18564700Y-14080490D01*
X18471990Y-14173200D01*
X18564700Y-14265910D01*
D11*
X6502400Y-5691200D02*
X6502400Y-5891200D01*
X6402400Y-5791200D02*
X6602400Y-5791200D01*
X6602400Y-5791200D02*
G75*
G02*
X6402400Y-5791200I-100000J0D01*
G01*
X6402400Y-5791200D02*
G75*
G02*
X6602400Y-5791200I100000J0D01*
G01*
D17*
X15587182Y-13824782D02*
X15587182Y-13669217D01*
X15431617Y-13669217D01*
X15431617Y-13824782D01*
X15587182Y-13824782D01*
X15619400Y-13747000D02*
G75*
G02*
X15399400Y-13747000I-110000J0D01*
G01*
X15399400Y-13747000D02*
G75*
G02*
X15619400Y-13747000I110000J0D01*
G01*
D12*
X15504400Y-13857000D02*
X15514400Y-13857000D01*
X15514400Y-13637000D02*
G75*
G02*
X15514400Y-13857000I0J-110000D01*
G01*
X15514400Y-13637000D02*
X15504400Y-13637000D01*
X15504400Y-13637000D02*
G75*
G03*
X15504400Y-13857000I0J-110000D01*
G01*
D17*
X16897183Y-13824782D02*
X16897183Y-13669217D01*
X16741617Y-13669217D01*
X16741617Y-13824782D01*
X16897183Y-13824782D01*
X16929400Y-13747000D02*
G75*
G02*
X16709400Y-13747000I-110000J0D01*
G01*
X16709400Y-13747000D02*
G75*
G02*
X16929400Y-13747000I110000J0D01*
G01*
D12*
X16814400Y-13857000D02*
X16824400Y-13857000D01*
X16824400Y-13637000D02*
G75*
G02*
X16824400Y-13857000I0J-110000D01*
G01*
X16824400Y-13637000D02*
X16814400Y-13637000D01*
X16814400Y-13637000D02*
G75*
G03*
X16814400Y-13857000I0J-110000D01*
G01*
D18*
X16525600Y-4065200D02*
X16640600Y-3950200D01*
X16525600Y-3835200D01*
X16410600Y-3950200D01*
X16525600Y-4065200D01*
X16640600Y-3950200D02*
G75*
G02*
X16410600Y-3950200I-115000J0D01*
G01*
X16410600Y-3950200D02*
G75*
G02*
X16640600Y-3950200I115000J0D01*
G01*
X17729600Y-4065200D02*
X17844600Y-3950200D01*
X17729600Y-3835200D01*
X17614600Y-3950200D01*
X17729600Y-4065200D01*
X17844600Y-3950200D02*
G75*
G02*
X17614600Y-3950200I-115000J0D01*
G01*
X17614600Y-3950200D02*
G75*
G02*
X17844600Y-3950200I115000J0D01*
G01*
D19*
X4064000Y-3261400D02*
X4064000Y-3901400D01*
X3744000Y-3581400D02*
X4384000Y-3581400D01*
X4290276Y-3807676D02*
X4290276Y-3355124D01*
X3837724Y-3355124D01*
X3837724Y-3807676D01*
X4290276Y-3807676D01*
X4114800Y-10881400D02*
X4114800Y-11521400D01*
X3794800Y-11201400D02*
X4434800Y-11201400D01*
X4341076Y-11427676D02*
X4341076Y-10975124D01*
X3888524Y-10975124D01*
X3888524Y-11427676D01*
X4341076Y-11427676D01*
X19202400Y-10881400D02*
X19202400Y-11521400D01*
X18882400Y-11201400D02*
X19522400Y-11201400D01*
X19428676Y-11427676D02*
X19428676Y-10975124D01*
X18976124Y-10975124D01*
X18976124Y-11427676D01*
X19428676Y-11427676D01*
X19253200Y-3261400D02*
X19253200Y-3901400D01*
X18933200Y-3581400D02*
X19573200Y-3581400D01*
X19479476Y-3807676D02*
X19479476Y-3355124D01*
X19026924Y-3355124D01*
X19026924Y-3807676D01*
X19479476Y-3807676D01*
D11*
X3661877Y-14664984D02*
X3661877Y-14464984D01*
X3661877Y-14464984D02*
X3709496Y-14464984D01*
X3709496Y-14464984D02*
X3738067Y-14474508D01*
X3738067Y-14474508D02*
X3757115Y-14493555D01*
X3757115Y-14493555D02*
X3766639Y-14512603D01*
X3766639Y-14512603D02*
X3776162Y-14550698D01*
X3776162Y-14550698D02*
X3776162Y-14579269D01*
X3776162Y-14579269D02*
X3766639Y-14617365D01*
X3766639Y-14617365D02*
X3757115Y-14636412D01*
X3757115Y-14636412D02*
X3738067Y-14655460D01*
X3738067Y-14655460D02*
X3709496Y-14664984D01*
X3709496Y-14664984D02*
X3661877Y-14664984D01*
X3861877Y-14664984D02*
X3861877Y-14531650D01*
X3861877Y-14569746D02*
X3871401Y-14550698D01*
X3871401Y-14550698D02*
X3880924Y-14541174D01*
X3880924Y-14541174D02*
X3899972Y-14531650D01*
X3899972Y-14531650D02*
X3919020Y-14531650D01*
X3985686Y-14664984D02*
X3985686Y-14531650D01*
X3985686Y-14464984D02*
X3976162Y-14474508D01*
X3976162Y-14474508D02*
X3985686Y-14484031D01*
X3985686Y-14484031D02*
X3995210Y-14474508D01*
X3995210Y-14474508D02*
X3985686Y-14464984D01*
X3985686Y-14464984D02*
X3985686Y-14484031D01*
X4109496Y-14664984D02*
X4090448Y-14655460D01*
X4090448Y-14655460D02*
X4080924Y-14636412D01*
X4080924Y-14636412D02*
X4080924Y-14464984D01*
X4214258Y-14664984D02*
X4195210Y-14655460D01*
X4195210Y-14655460D02*
X4185686Y-14636412D01*
X4185686Y-14636412D02*
X4185686Y-14464984D01*
X4442829Y-14664984D02*
X4442829Y-14464984D01*
X4442829Y-14464984D02*
X4509496Y-14607841D01*
X4509496Y-14607841D02*
X4576163Y-14464984D01*
X4576163Y-14464984D02*
X4576163Y-14664984D01*
X4757115Y-14664984D02*
X4757115Y-14560222D01*
X4757115Y-14560222D02*
X4747591Y-14541174D01*
X4747591Y-14541174D02*
X4728544Y-14531650D01*
X4728544Y-14531650D02*
X4690448Y-14531650D01*
X4690448Y-14531650D02*
X4671401Y-14541174D01*
X4757115Y-14655460D02*
X4738067Y-14664984D01*
X4738067Y-14664984D02*
X4690448Y-14664984D01*
X4690448Y-14664984D02*
X4671401Y-14655460D01*
X4671401Y-14655460D02*
X4661877Y-14636412D01*
X4661877Y-14636412D02*
X4661877Y-14617365D01*
X4661877Y-14617365D02*
X4671401Y-14598317D01*
X4671401Y-14598317D02*
X4690448Y-14588793D01*
X4690448Y-14588793D02*
X4738067Y-14588793D01*
X4738067Y-14588793D02*
X4757115Y-14579269D01*
X4852353Y-14531650D02*
X4852353Y-14731650D01*
X4852353Y-14541174D02*
X4871401Y-14531650D01*
X4871401Y-14531650D02*
X4909496Y-14531650D01*
X4909496Y-14531650D02*
X4928544Y-14541174D01*
X4928544Y-14541174D02*
X4938067Y-14550698D01*
X4938067Y-14550698D02*
X4947591Y-14569746D01*
X4947591Y-14569746D02*
X4947591Y-14626888D01*
X4947591Y-14626888D02*
X4938067Y-14645936D01*
X4938067Y-14645936D02*
X4928544Y-14655460D01*
X4928544Y-14655460D02*
X4909496Y-14664984D01*
X4909496Y-14664984D02*
X4871401Y-14664984D01*
X4871401Y-14664984D02*
X4852353Y-14655460D01*
X5033305Y-14645936D02*
X5042829Y-14655460D01*
X5042829Y-14655460D02*
X5033305Y-14664984D01*
X5033305Y-14664984D02*
X5023782Y-14655460D01*
X5023782Y-14655460D02*
X5033305Y-14645936D01*
X5033305Y-14645936D02*
X5033305Y-14664984D01*
X5033305Y-14541174D02*
X5042829Y-14550698D01*
X5042829Y-14550698D02*
X5033305Y-14560222D01*
X5033305Y-14560222D02*
X5023782Y-14550698D01*
X5023782Y-14550698D02*
X5033305Y-14541174D01*
X5033305Y-14541174D02*
X5033305Y-14560222D01*
D12*
X3361100Y-14973500D02*
X3401100Y-15013500D01*
X3401100Y-14973500D02*
X3361100Y-15013500D01*
D11*
X3699972Y-14884984D02*
X3719020Y-14884984D01*
X3719020Y-14884984D02*
X3738067Y-14894508D01*
X3738067Y-14894508D02*
X3747591Y-14904031D01*
X3747591Y-14904031D02*
X3757115Y-14923079D01*
X3757115Y-14923079D02*
X3766639Y-14961174D01*
X3766639Y-14961174D02*
X3766639Y-15008793D01*
X3766639Y-15008793D02*
X3757115Y-15046888D01*
X3757115Y-15046888D02*
X3747591Y-15065936D01*
X3747591Y-15065936D02*
X3738067Y-15075460D01*
X3738067Y-15075460D02*
X3719020Y-15084984D01*
X3719020Y-15084984D02*
X3699972Y-15084984D01*
X3699972Y-15084984D02*
X3680924Y-15075460D01*
X3680924Y-15075460D02*
X3671401Y-15065936D01*
X3671401Y-15065936D02*
X3661877Y-15046888D01*
X3661877Y-15046888D02*
X3652353Y-15008793D01*
X3652353Y-15008793D02*
X3652353Y-14961174D01*
X3652353Y-14961174D02*
X3661877Y-14923079D01*
X3661877Y-14923079D02*
X3671401Y-14904031D01*
X3671401Y-14904031D02*
X3680924Y-14894508D01*
X3680924Y-14894508D02*
X3699972Y-14884984D01*
X3852353Y-15065936D02*
X3861877Y-15075460D01*
X3861877Y-15075460D02*
X3852353Y-15084984D01*
X3852353Y-15084984D02*
X3842829Y-15075460D01*
X3842829Y-15075460D02*
X3852353Y-15065936D01*
X3852353Y-15065936D02*
X3852353Y-15084984D01*
X4033305Y-14951650D02*
X4033305Y-15084984D01*
X3985686Y-14875460D02*
X3938067Y-15018317D01*
X3938067Y-15018317D02*
X4061877Y-15018317D01*
X4176162Y-14884984D02*
X4195210Y-14884984D01*
X4195210Y-14884984D02*
X4214258Y-14894508D01*
X4214258Y-14894508D02*
X4223782Y-14904031D01*
X4223782Y-14904031D02*
X4233305Y-14923079D01*
X4233305Y-14923079D02*
X4242829Y-14961174D01*
X4242829Y-14961174D02*
X4242829Y-15008793D01*
X4242829Y-15008793D02*
X4233305Y-15046888D01*
X4233305Y-15046888D02*
X4223782Y-15065936D01*
X4223782Y-15065936D02*
X4214258Y-15075460D01*
X4214258Y-15075460D02*
X4195210Y-15084984D01*
X4195210Y-15084984D02*
X4176162Y-15084984D01*
X4176162Y-15084984D02*
X4157115Y-15075460D01*
X4157115Y-15075460D02*
X4147591Y-15065936D01*
X4147591Y-15065936D02*
X4138067Y-15046888D01*
X4138067Y-15046888D02*
X4128543Y-15008793D01*
X4128543Y-15008793D02*
X4128543Y-14961174D01*
X4128543Y-14961174D02*
X4138067Y-14923079D01*
X4138067Y-14923079D02*
X4147591Y-14904031D01*
X4147591Y-14904031D02*
X4157115Y-14894508D01*
X4157115Y-14894508D02*
X4176162Y-14884984D01*
X4366639Y-14884984D02*
X4385686Y-14884984D01*
X4385686Y-14884984D02*
X4404734Y-14894508D01*
X4404734Y-14894508D02*
X4414258Y-14904031D01*
X4414258Y-14904031D02*
X4423782Y-14923079D01*
X4423782Y-14923079D02*
X4433305Y-14961174D01*
X4433305Y-14961174D02*
X4433305Y-15008793D01*
X4433305Y-15008793D02*
X4423782Y-15046888D01*
X4423782Y-15046888D02*
X4414258Y-15065936D01*
X4414258Y-15065936D02*
X4404734Y-15075460D01*
X4404734Y-15075460D02*
X4385686Y-15084984D01*
X4385686Y-15084984D02*
X4366639Y-15084984D01*
X4366639Y-15084984D02*
X4347591Y-15075460D01*
X4347591Y-15075460D02*
X4338067Y-15065936D01*
X4338067Y-15065936D02*
X4328544Y-15046888D01*
X4328544Y-15046888D02*
X4319020Y-15008793D01*
X4319020Y-15008793D02*
X4319020Y-14961174D01*
X4319020Y-14961174D02*
X4328544Y-14923079D01*
X4328544Y-14923079D02*
X4338067Y-14904031D01*
X4338067Y-14904031D02*
X4347591Y-14894508D01*
X4347591Y-14894508D02*
X4366639Y-14884984D01*
X4519020Y-15084984D02*
X4519020Y-14951650D01*
X4519020Y-14970698D02*
X4528544Y-14961174D01*
X4528544Y-14961174D02*
X4547591Y-14951650D01*
X4547591Y-14951650D02*
X4576163Y-14951650D01*
X4576163Y-14951650D02*
X4595210Y-14961174D01*
X4595210Y-14961174D02*
X4604734Y-14980222D01*
X4604734Y-14980222D02*
X4604734Y-15084984D01*
X4604734Y-14980222D02*
X4614258Y-14961174D01*
X4614258Y-14961174D02*
X4633305Y-14951650D01*
X4633305Y-14951650D02*
X4661877Y-14951650D01*
X4661877Y-14951650D02*
X4680925Y-14961174D01*
X4680925Y-14961174D02*
X4690448Y-14980222D01*
X4690448Y-14980222D02*
X4690448Y-15084984D01*
X4785686Y-15084984D02*
X4785686Y-14951650D01*
X4785686Y-14970698D02*
X4795210Y-14961174D01*
X4795210Y-14961174D02*
X4814258Y-14951650D01*
X4814258Y-14951650D02*
X4842829Y-14951650D01*
X4842829Y-14951650D02*
X4861877Y-14961174D01*
X4861877Y-14961174D02*
X4871401Y-14980222D01*
X4871401Y-14980222D02*
X4871401Y-15084984D01*
X4871401Y-14980222D02*
X4880925Y-14961174D01*
X4880925Y-14961174D02*
X4899972Y-14951650D01*
X4899972Y-14951650D02*
X4928544Y-14951650D01*
X4928544Y-14951650D02*
X4947591Y-14961174D01*
X4947591Y-14961174D02*
X4957115Y-14980222D01*
X4957115Y-14980222D02*
X4957115Y-15084984D01*
X5347591Y-14875460D02*
X5176163Y-15132603D01*
X5604734Y-14884984D02*
X5623782Y-14884984D01*
X5623782Y-14884984D02*
X5642829Y-14894508D01*
X5642829Y-14894508D02*
X5652353Y-14904031D01*
X5652353Y-14904031D02*
X5661877Y-14923079D01*
X5661877Y-14923079D02*
X5671401Y-14961174D01*
X5671401Y-14961174D02*
X5671401Y-15008793D01*
X5671401Y-15008793D02*
X5661877Y-15046888D01*
X5661877Y-15046888D02*
X5652353Y-15065936D01*
X5652353Y-15065936D02*
X5642829Y-15075460D01*
X5642829Y-15075460D02*
X5623782Y-15084984D01*
X5623782Y-15084984D02*
X5604734Y-15084984D01*
X5604734Y-15084984D02*
X5585687Y-15075460D01*
X5585687Y-15075460D02*
X5576163Y-15065936D01*
X5576163Y-15065936D02*
X5566639Y-15046888D01*
X5566639Y-15046888D02*
X5557115Y-15008793D01*
X5557115Y-15008793D02*
X5557115Y-14961174D01*
X5557115Y-14961174D02*
X5566639Y-14923079D01*
X5566639Y-14923079D02*
X5576163Y-14904031D01*
X5576163Y-14904031D02*
X5585687Y-14894508D01*
X5585687Y-14894508D02*
X5604734Y-14884984D01*
X5757115Y-15065936D02*
X5766639Y-15075460D01*
X5766639Y-15075460D02*
X5757115Y-15084984D01*
X5757115Y-15084984D02*
X5747591Y-15075460D01*
X5747591Y-15075460D02*
X5757115Y-15065936D01*
X5757115Y-15065936D02*
X5757115Y-15084984D01*
X5890448Y-14884984D02*
X5909496Y-14884984D01*
X5909496Y-14884984D02*
X5928544Y-14894508D01*
X5928544Y-14894508D02*
X5938067Y-14904031D01*
X5938067Y-14904031D02*
X5947591Y-14923079D01*
X5947591Y-14923079D02*
X5957115Y-14961174D01*
X5957115Y-14961174D02*
X5957115Y-15008793D01*
X5957115Y-15008793D02*
X5947591Y-15046888D01*
X5947591Y-15046888D02*
X5938067Y-15065936D01*
X5938067Y-15065936D02*
X5928544Y-15075460D01*
X5928544Y-15075460D02*
X5909496Y-15084984D01*
X5909496Y-15084984D02*
X5890448Y-15084984D01*
X5890448Y-15084984D02*
X5871401Y-15075460D01*
X5871401Y-15075460D02*
X5861877Y-15065936D01*
X5861877Y-15065936D02*
X5852353Y-15046888D01*
X5852353Y-15046888D02*
X5842829Y-15008793D01*
X5842829Y-15008793D02*
X5842829Y-14961174D01*
X5842829Y-14961174D02*
X5852353Y-14923079D01*
X5852353Y-14923079D02*
X5861877Y-14904031D01*
X5861877Y-14904031D02*
X5871401Y-14894508D01*
X5871401Y-14894508D02*
X5890448Y-14884984D01*
X6147591Y-15084984D02*
X6033306Y-15084984D01*
X6090448Y-15084984D02*
X6090448Y-14884984D01*
X6090448Y-14884984D02*
X6071401Y-14913555D01*
X6071401Y-14913555D02*
X6052353Y-14932603D01*
X6052353Y-14932603D02*
X6033306Y-14942127D01*
X6328544Y-14884984D02*
X6233306Y-14884984D01*
X6233306Y-14884984D02*
X6223782Y-14980222D01*
X6223782Y-14980222D02*
X6233306Y-14970698D01*
X6233306Y-14970698D02*
X6252353Y-14961174D01*
X6252353Y-14961174D02*
X6299972Y-14961174D01*
X6299972Y-14961174D02*
X6319020Y-14970698D01*
X6319020Y-14970698D02*
X6328544Y-14980222D01*
X6328544Y-14980222D02*
X6338067Y-14999269D01*
X6338067Y-14999269D02*
X6338067Y-15046888D01*
X6338067Y-15046888D02*
X6328544Y-15065936D01*
X6328544Y-15065936D02*
X6319020Y-15075460D01*
X6319020Y-15075460D02*
X6299972Y-15084984D01*
X6299972Y-15084984D02*
X6252353Y-15084984D01*
X6252353Y-15084984D02*
X6233306Y-15075460D01*
X6233306Y-15075460D02*
X6223782Y-15065936D01*
X6404734Y-14884984D02*
X6538067Y-14884984D01*
X6538067Y-14884984D02*
X6452353Y-15084984D01*
X6604734Y-14884984D02*
X6604734Y-14923079D01*
X6680925Y-14884984D02*
X6680925Y-14923079D01*
X6976163Y-15161174D02*
X6966639Y-15151650D01*
X6966639Y-15151650D02*
X6947591Y-15123079D01*
X6947591Y-15123079D02*
X6938068Y-15104031D01*
X6938068Y-15104031D02*
X6928544Y-15075460D01*
X6928544Y-15075460D02*
X6919020Y-15027841D01*
X6919020Y-15027841D02*
X6919020Y-14989746D01*
X6919020Y-14989746D02*
X6928544Y-14942127D01*
X6928544Y-14942127D02*
X6938068Y-14913555D01*
X6938068Y-14913555D02*
X6947591Y-14894508D01*
X6947591Y-14894508D02*
X6966639Y-14865936D01*
X6966639Y-14865936D02*
X6976163Y-14856412D01*
X7138068Y-14884984D02*
X7099972Y-14884984D01*
X7099972Y-14884984D02*
X7080925Y-14894508D01*
X7080925Y-14894508D02*
X7071401Y-14904031D01*
X7071401Y-14904031D02*
X7052353Y-14932603D01*
X7052353Y-14932603D02*
X7042829Y-14970698D01*
X7042829Y-14970698D02*
X7042829Y-15046888D01*
X7042829Y-15046888D02*
X7052353Y-15065936D01*
X7052353Y-15065936D02*
X7061877Y-15075460D01*
X7061877Y-15075460D02*
X7080925Y-15084984D01*
X7080925Y-15084984D02*
X7119020Y-15084984D01*
X7119020Y-15084984D02*
X7138068Y-15075460D01*
X7138068Y-15075460D02*
X7147591Y-15065936D01*
X7147591Y-15065936D02*
X7157115Y-15046888D01*
X7157115Y-15046888D02*
X7157115Y-14999269D01*
X7157115Y-14999269D02*
X7147591Y-14980222D01*
X7147591Y-14980222D02*
X7138068Y-14970698D01*
X7138068Y-14970698D02*
X7119020Y-14961174D01*
X7119020Y-14961174D02*
X7080925Y-14961174D01*
X7080925Y-14961174D02*
X7061877Y-14970698D01*
X7061877Y-14970698D02*
X7052353Y-14980222D01*
X7052353Y-14980222D02*
X7042829Y-14999269D01*
X7271401Y-14970698D02*
X7252353Y-14961174D01*
X7252353Y-14961174D02*
X7242829Y-14951650D01*
X7242829Y-14951650D02*
X7233306Y-14932603D01*
X7233306Y-14932603D02*
X7233306Y-14923079D01*
X7233306Y-14923079D02*
X7242829Y-14904031D01*
X7242829Y-14904031D02*
X7252353Y-14894508D01*
X7252353Y-14894508D02*
X7271401Y-14884984D01*
X7271401Y-14884984D02*
X7309496Y-14884984D01*
X7309496Y-14884984D02*
X7328544Y-14894508D01*
X7328544Y-14894508D02*
X7338068Y-14904031D01*
X7338068Y-14904031D02*
X7347591Y-14923079D01*
X7347591Y-14923079D02*
X7347591Y-14932603D01*
X7347591Y-14932603D02*
X7338068Y-14951650D01*
X7338068Y-14951650D02*
X7328544Y-14961174D01*
X7328544Y-14961174D02*
X7309496Y-14970698D01*
X7309496Y-14970698D02*
X7271401Y-14970698D01*
X7271401Y-14970698D02*
X7252353Y-14980222D01*
X7252353Y-14980222D02*
X7242829Y-14989746D01*
X7242829Y-14989746D02*
X7233306Y-15008793D01*
X7233306Y-15008793D02*
X7233306Y-15046888D01*
X7233306Y-15046888D02*
X7242829Y-15065936D01*
X7242829Y-15065936D02*
X7252353Y-15075460D01*
X7252353Y-15075460D02*
X7271401Y-15084984D01*
X7271401Y-15084984D02*
X7309496Y-15084984D01*
X7309496Y-15084984D02*
X7328544Y-15075460D01*
X7328544Y-15075460D02*
X7338068Y-15065936D01*
X7338068Y-15065936D02*
X7347591Y-15046888D01*
X7347591Y-15046888D02*
X7347591Y-15008793D01*
X7347591Y-15008793D02*
X7338068Y-14989746D01*
X7338068Y-14989746D02*
X7328544Y-14980222D01*
X7328544Y-14980222D02*
X7309496Y-14970698D01*
X7585687Y-15084984D02*
X7585687Y-14884984D01*
X7671401Y-15084984D02*
X7671401Y-14980222D01*
X7671401Y-14980222D02*
X7661877Y-14961174D01*
X7661877Y-14961174D02*
X7642830Y-14951650D01*
X7642830Y-14951650D02*
X7614258Y-14951650D01*
X7614258Y-14951650D02*
X7595210Y-14961174D01*
X7595210Y-14961174D02*
X7585687Y-14970698D01*
X7795210Y-15084984D02*
X7776163Y-15075460D01*
X7776163Y-15075460D02*
X7766639Y-15065936D01*
X7766639Y-15065936D02*
X7757115Y-15046888D01*
X7757115Y-15046888D02*
X7757115Y-14989746D01*
X7757115Y-14989746D02*
X7766639Y-14970698D01*
X7766639Y-14970698D02*
X7776163Y-14961174D01*
X7776163Y-14961174D02*
X7795210Y-14951650D01*
X7795210Y-14951650D02*
X7823782Y-14951650D01*
X7823782Y-14951650D02*
X7842830Y-14961174D01*
X7842830Y-14961174D02*
X7852353Y-14970698D01*
X7852353Y-14970698D02*
X7861877Y-14989746D01*
X7861877Y-14989746D02*
X7861877Y-15046888D01*
X7861877Y-15046888D02*
X7852353Y-15065936D01*
X7852353Y-15065936D02*
X7842830Y-15075460D01*
X7842830Y-15075460D02*
X7823782Y-15084984D01*
X7823782Y-15084984D02*
X7795210Y-15084984D01*
X7976163Y-15084984D02*
X7957115Y-15075460D01*
X7957115Y-15075460D02*
X7947591Y-15056412D01*
X7947591Y-15056412D02*
X7947591Y-14884984D01*
X8128544Y-15075460D02*
X8109496Y-15084984D01*
X8109496Y-15084984D02*
X8071401Y-15084984D01*
X8071401Y-15084984D02*
X8052353Y-15075460D01*
X8052353Y-15075460D02*
X8042830Y-15056412D01*
X8042830Y-15056412D02*
X8042830Y-14980222D01*
X8042830Y-14980222D02*
X8052353Y-14961174D01*
X8052353Y-14961174D02*
X8071401Y-14951650D01*
X8071401Y-14951650D02*
X8109496Y-14951650D01*
X8109496Y-14951650D02*
X8128544Y-14961174D01*
X8128544Y-14961174D02*
X8138068Y-14980222D01*
X8138068Y-14980222D02*
X8138068Y-14999269D01*
X8138068Y-14999269D02*
X8042830Y-15018317D01*
X8214258Y-15075460D02*
X8233306Y-15084984D01*
X8233306Y-15084984D02*
X8271401Y-15084984D01*
X8271401Y-15084984D02*
X8290449Y-15075460D01*
X8290449Y-15075460D02*
X8299972Y-15056412D01*
X8299972Y-15056412D02*
X8299972Y-15046888D01*
X8299972Y-15046888D02*
X8290449Y-15027841D01*
X8290449Y-15027841D02*
X8271401Y-15018317D01*
X8271401Y-15018317D02*
X8242830Y-15018317D01*
X8242830Y-15018317D02*
X8223782Y-15008793D01*
X8223782Y-15008793D02*
X8214258Y-14989746D01*
X8214258Y-14989746D02*
X8214258Y-14980222D01*
X8214258Y-14980222D02*
X8223782Y-14961174D01*
X8223782Y-14961174D02*
X8242830Y-14951650D01*
X8242830Y-14951650D02*
X8271401Y-14951650D01*
X8271401Y-14951650D02*
X8290449Y-14961174D01*
X8366639Y-15161174D02*
X8376163Y-15151650D01*
X8376163Y-15151650D02*
X8395211Y-15123079D01*
X8395211Y-15123079D02*
X8404734Y-15104031D01*
X8404734Y-15104031D02*
X8414258Y-15075460D01*
X8414258Y-15075460D02*
X8423782Y-15027841D01*
X8423782Y-15027841D02*
X8423782Y-14989746D01*
X8423782Y-14989746D02*
X8414258Y-14942127D01*
X8414258Y-14942127D02*
X8404734Y-14913555D01*
X8404734Y-14913555D02*
X8395211Y-14894508D01*
X8395211Y-14894508D02*
X8376163Y-14865936D01*
X8376163Y-14865936D02*
X8366639Y-14856412D01*
D12*
X3401100Y-15257500D02*
G75*
G02*
X3331100Y-15257500I-35000J0D01*
G01*
X3331100Y-15257500D02*
G75*
G02*
X3401100Y-15257500I35000J0D01*
G01*
D11*
X3699972Y-15148984D02*
X3719020Y-15148984D01*
X3719020Y-15148984D02*
X3738067Y-15158508D01*
X3738067Y-15158508D02*
X3747591Y-15168031D01*
X3747591Y-15168031D02*
X3757115Y-15187079D01*
X3757115Y-15187079D02*
X3766639Y-15225174D01*
X3766639Y-15225174D02*
X3766639Y-15272793D01*
X3766639Y-15272793D02*
X3757115Y-15310888D01*
X3757115Y-15310888D02*
X3747591Y-15329936D01*
X3747591Y-15329936D02*
X3738067Y-15339460D01*
X3738067Y-15339460D02*
X3719020Y-15348984D01*
X3719020Y-15348984D02*
X3699972Y-15348984D01*
X3699972Y-15348984D02*
X3680924Y-15339460D01*
X3680924Y-15339460D02*
X3671401Y-15329936D01*
X3671401Y-15329936D02*
X3661877Y-15310888D01*
X3661877Y-15310888D02*
X3652353Y-15272793D01*
X3652353Y-15272793D02*
X3652353Y-15225174D01*
X3652353Y-15225174D02*
X3661877Y-15187079D01*
X3661877Y-15187079D02*
X3671401Y-15168031D01*
X3671401Y-15168031D02*
X3680924Y-15158508D01*
X3680924Y-15158508D02*
X3699972Y-15148984D01*
X3852353Y-15329936D02*
X3861877Y-15339460D01*
X3861877Y-15339460D02*
X3852353Y-15348984D01*
X3852353Y-15348984D02*
X3842829Y-15339460D01*
X3842829Y-15339460D02*
X3852353Y-15329936D01*
X3852353Y-15329936D02*
X3852353Y-15348984D01*
X3928543Y-15148984D02*
X4061877Y-15148984D01*
X4061877Y-15148984D02*
X3976162Y-15348984D01*
X4176162Y-15148984D02*
X4195210Y-15148984D01*
X4195210Y-15148984D02*
X4214258Y-15158508D01*
X4214258Y-15158508D02*
X4223782Y-15168031D01*
X4223782Y-15168031D02*
X4233305Y-15187079D01*
X4233305Y-15187079D02*
X4242829Y-15225174D01*
X4242829Y-15225174D02*
X4242829Y-15272793D01*
X4242829Y-15272793D02*
X4233305Y-15310888D01*
X4233305Y-15310888D02*
X4223782Y-15329936D01*
X4223782Y-15329936D02*
X4214258Y-15339460D01*
X4214258Y-15339460D02*
X4195210Y-15348984D01*
X4195210Y-15348984D02*
X4176162Y-15348984D01*
X4176162Y-15348984D02*
X4157115Y-15339460D01*
X4157115Y-15339460D02*
X4147591Y-15329936D01*
X4147591Y-15329936D02*
X4138067Y-15310888D01*
X4138067Y-15310888D02*
X4128543Y-15272793D01*
X4128543Y-15272793D02*
X4128543Y-15225174D01*
X4128543Y-15225174D02*
X4138067Y-15187079D01*
X4138067Y-15187079D02*
X4147591Y-15168031D01*
X4147591Y-15168031D02*
X4157115Y-15158508D01*
X4157115Y-15158508D02*
X4176162Y-15148984D01*
X4366639Y-15148984D02*
X4385686Y-15148984D01*
X4385686Y-15148984D02*
X4404734Y-15158508D01*
X4404734Y-15158508D02*
X4414258Y-15168031D01*
X4414258Y-15168031D02*
X4423782Y-15187079D01*
X4423782Y-15187079D02*
X4433305Y-15225174D01*
X4433305Y-15225174D02*
X4433305Y-15272793D01*
X4433305Y-15272793D02*
X4423782Y-15310888D01*
X4423782Y-15310888D02*
X4414258Y-15329936D01*
X4414258Y-15329936D02*
X4404734Y-15339460D01*
X4404734Y-15339460D02*
X4385686Y-15348984D01*
X4385686Y-15348984D02*
X4366639Y-15348984D01*
X4366639Y-15348984D02*
X4347591Y-15339460D01*
X4347591Y-15339460D02*
X4338067Y-15329936D01*
X4338067Y-15329936D02*
X4328544Y-15310888D01*
X4328544Y-15310888D02*
X4319020Y-15272793D01*
X4319020Y-15272793D02*
X4319020Y-15225174D01*
X4319020Y-15225174D02*
X4328544Y-15187079D01*
X4328544Y-15187079D02*
X4338067Y-15168031D01*
X4338067Y-15168031D02*
X4347591Y-15158508D01*
X4347591Y-15158508D02*
X4366639Y-15148984D01*
X4519020Y-15348984D02*
X4519020Y-15215650D01*
X4519020Y-15234698D02*
X4528544Y-15225174D01*
X4528544Y-15225174D02*
X4547591Y-15215650D01*
X4547591Y-15215650D02*
X4576163Y-15215650D01*
X4576163Y-15215650D02*
X4595210Y-15225174D01*
X4595210Y-15225174D02*
X4604734Y-15244222D01*
X4604734Y-15244222D02*
X4604734Y-15348984D01*
X4604734Y-15244222D02*
X4614258Y-15225174D01*
X4614258Y-15225174D02*
X4633305Y-15215650D01*
X4633305Y-15215650D02*
X4661877Y-15215650D01*
X4661877Y-15215650D02*
X4680925Y-15225174D01*
X4680925Y-15225174D02*
X4690448Y-15244222D01*
X4690448Y-15244222D02*
X4690448Y-15348984D01*
X4785686Y-15348984D02*
X4785686Y-15215650D01*
X4785686Y-15234698D02*
X4795210Y-15225174D01*
X4795210Y-15225174D02*
X4814258Y-15215650D01*
X4814258Y-15215650D02*
X4842829Y-15215650D01*
X4842829Y-15215650D02*
X4861877Y-15225174D01*
X4861877Y-15225174D02*
X4871401Y-15244222D01*
X4871401Y-15244222D02*
X4871401Y-15348984D01*
X4871401Y-15244222D02*
X4880925Y-15225174D01*
X4880925Y-15225174D02*
X4899972Y-15215650D01*
X4899972Y-15215650D02*
X4928544Y-15215650D01*
X4928544Y-15215650D02*
X4947591Y-15225174D01*
X4947591Y-15225174D02*
X4957115Y-15244222D01*
X4957115Y-15244222D02*
X4957115Y-15348984D01*
X5347591Y-15139460D02*
X5176163Y-15396603D01*
X5604734Y-15148984D02*
X5623782Y-15148984D01*
X5623782Y-15148984D02*
X5642829Y-15158508D01*
X5642829Y-15158508D02*
X5652353Y-15168031D01*
X5652353Y-15168031D02*
X5661877Y-15187079D01*
X5661877Y-15187079D02*
X5671401Y-15225174D01*
X5671401Y-15225174D02*
X5671401Y-15272793D01*
X5671401Y-15272793D02*
X5661877Y-15310888D01*
X5661877Y-15310888D02*
X5652353Y-15329936D01*
X5652353Y-15329936D02*
X5642829Y-15339460D01*
X5642829Y-15339460D02*
X5623782Y-15348984D01*
X5623782Y-15348984D02*
X5604734Y-15348984D01*
X5604734Y-15348984D02*
X5585687Y-15339460D01*
X5585687Y-15339460D02*
X5576163Y-15329936D01*
X5576163Y-15329936D02*
X5566639Y-15310888D01*
X5566639Y-15310888D02*
X5557115Y-15272793D01*
X5557115Y-15272793D02*
X5557115Y-15225174D01*
X5557115Y-15225174D02*
X5566639Y-15187079D01*
X5566639Y-15187079D02*
X5576163Y-15168031D01*
X5576163Y-15168031D02*
X5585687Y-15158508D01*
X5585687Y-15158508D02*
X5604734Y-15148984D01*
X5757115Y-15329936D02*
X5766639Y-15339460D01*
X5766639Y-15339460D02*
X5757115Y-15348984D01*
X5757115Y-15348984D02*
X5747591Y-15339460D01*
X5747591Y-15339460D02*
X5757115Y-15329936D01*
X5757115Y-15329936D02*
X5757115Y-15348984D01*
X5890448Y-15148984D02*
X5909496Y-15148984D01*
X5909496Y-15148984D02*
X5928544Y-15158508D01*
X5928544Y-15158508D02*
X5938067Y-15168031D01*
X5938067Y-15168031D02*
X5947591Y-15187079D01*
X5947591Y-15187079D02*
X5957115Y-15225174D01*
X5957115Y-15225174D02*
X5957115Y-15272793D01*
X5957115Y-15272793D02*
X5947591Y-15310888D01*
X5947591Y-15310888D02*
X5938067Y-15329936D01*
X5938067Y-15329936D02*
X5928544Y-15339460D01*
X5928544Y-15339460D02*
X5909496Y-15348984D01*
X5909496Y-15348984D02*
X5890448Y-15348984D01*
X5890448Y-15348984D02*
X5871401Y-15339460D01*
X5871401Y-15339460D02*
X5861877Y-15329936D01*
X5861877Y-15329936D02*
X5852353Y-15310888D01*
X5852353Y-15310888D02*
X5842829Y-15272793D01*
X5842829Y-15272793D02*
X5842829Y-15225174D01*
X5842829Y-15225174D02*
X5852353Y-15187079D01*
X5852353Y-15187079D02*
X5861877Y-15168031D01*
X5861877Y-15168031D02*
X5871401Y-15158508D01*
X5871401Y-15158508D02*
X5890448Y-15148984D01*
X6033306Y-15168031D02*
X6042829Y-15158508D01*
X6042829Y-15158508D02*
X6061877Y-15148984D01*
X6061877Y-15148984D02*
X6109496Y-15148984D01*
X6109496Y-15148984D02*
X6128544Y-15158508D01*
X6128544Y-15158508D02*
X6138067Y-15168031D01*
X6138067Y-15168031D02*
X6147591Y-15187079D01*
X6147591Y-15187079D02*
X6147591Y-15206127D01*
X6147591Y-15206127D02*
X6138067Y-15234698D01*
X6138067Y-15234698D02*
X6023782Y-15348984D01*
X6023782Y-15348984D02*
X6147591Y-15348984D01*
X6214258Y-15148984D02*
X6347591Y-15148984D01*
X6347591Y-15148984D02*
X6261877Y-15348984D01*
X6509496Y-15148984D02*
X6471401Y-15148984D01*
X6471401Y-15148984D02*
X6452353Y-15158508D01*
X6452353Y-15158508D02*
X6442829Y-15168031D01*
X6442829Y-15168031D02*
X6423782Y-15196603D01*
X6423782Y-15196603D02*
X6414258Y-15234698D01*
X6414258Y-15234698D02*
X6414258Y-15310888D01*
X6414258Y-15310888D02*
X6423782Y-15329936D01*
X6423782Y-15329936D02*
X6433306Y-15339460D01*
X6433306Y-15339460D02*
X6452353Y-15348984D01*
X6452353Y-15348984D02*
X6490448Y-15348984D01*
X6490448Y-15348984D02*
X6509496Y-15339460D01*
X6509496Y-15339460D02*
X6519020Y-15329936D01*
X6519020Y-15329936D02*
X6528544Y-15310888D01*
X6528544Y-15310888D02*
X6528544Y-15263269D01*
X6528544Y-15263269D02*
X6519020Y-15244222D01*
X6519020Y-15244222D02*
X6509496Y-15234698D01*
X6509496Y-15234698D02*
X6490448Y-15225174D01*
X6490448Y-15225174D02*
X6452353Y-15225174D01*
X6452353Y-15225174D02*
X6433306Y-15234698D01*
X6433306Y-15234698D02*
X6423782Y-15244222D01*
X6423782Y-15244222D02*
X6414258Y-15263269D01*
X6604734Y-15148984D02*
X6604734Y-15187079D01*
X6680925Y-15148984D02*
X6680925Y-15187079D01*
X6976163Y-15425174D02*
X6966639Y-15415650D01*
X6966639Y-15415650D02*
X6947591Y-15387079D01*
X6947591Y-15387079D02*
X6938068Y-15368031D01*
X6938068Y-15368031D02*
X6928544Y-15339460D01*
X6928544Y-15339460D02*
X6919020Y-15291841D01*
X6919020Y-15291841D02*
X6919020Y-15253746D01*
X6919020Y-15253746D02*
X6928544Y-15206127D01*
X6928544Y-15206127D02*
X6938068Y-15177555D01*
X6938068Y-15177555D02*
X6947591Y-15158508D01*
X6947591Y-15158508D02*
X6966639Y-15129936D01*
X6966639Y-15129936D02*
X6976163Y-15120412D01*
X7042829Y-15168031D02*
X7052353Y-15158508D01*
X7052353Y-15158508D02*
X7071401Y-15148984D01*
X7071401Y-15148984D02*
X7119020Y-15148984D01*
X7119020Y-15148984D02*
X7138068Y-15158508D01*
X7138068Y-15158508D02*
X7147591Y-15168031D01*
X7147591Y-15168031D02*
X7157115Y-15187079D01*
X7157115Y-15187079D02*
X7157115Y-15206127D01*
X7157115Y-15206127D02*
X7147591Y-15234698D01*
X7147591Y-15234698D02*
X7033306Y-15348984D01*
X7033306Y-15348984D02*
X7157115Y-15348984D01*
X7328544Y-15215650D02*
X7328544Y-15348984D01*
X7280925Y-15139460D02*
X7233306Y-15282317D01*
X7233306Y-15282317D02*
X7357115Y-15282317D01*
X7585687Y-15348984D02*
X7585687Y-15148984D01*
X7671401Y-15348984D02*
X7671401Y-15244222D01*
X7671401Y-15244222D02*
X7661877Y-15225174D01*
X7661877Y-15225174D02*
X7642830Y-15215650D01*
X7642830Y-15215650D02*
X7614258Y-15215650D01*
X7614258Y-15215650D02*
X7595210Y-15225174D01*
X7595210Y-15225174D02*
X7585687Y-15234698D01*
X7795210Y-15348984D02*
X7776163Y-15339460D01*
X7776163Y-15339460D02*
X7766639Y-15329936D01*
X7766639Y-15329936D02*
X7757115Y-15310888D01*
X7757115Y-15310888D02*
X7757115Y-15253746D01*
X7757115Y-15253746D02*
X7766639Y-15234698D01*
X7766639Y-15234698D02*
X7776163Y-15225174D01*
X7776163Y-15225174D02*
X7795210Y-15215650D01*
X7795210Y-15215650D02*
X7823782Y-15215650D01*
X7823782Y-15215650D02*
X7842830Y-15225174D01*
X7842830Y-15225174D02*
X7852353Y-15234698D01*
X7852353Y-15234698D02*
X7861877Y-15253746D01*
X7861877Y-15253746D02*
X7861877Y-15310888D01*
X7861877Y-15310888D02*
X7852353Y-15329936D01*
X7852353Y-15329936D02*
X7842830Y-15339460D01*
X7842830Y-15339460D02*
X7823782Y-15348984D01*
X7823782Y-15348984D02*
X7795210Y-15348984D01*
X7976163Y-15348984D02*
X7957115Y-15339460D01*
X7957115Y-15339460D02*
X7947591Y-15320412D01*
X7947591Y-15320412D02*
X7947591Y-15148984D01*
X8128544Y-15339460D02*
X8109496Y-15348984D01*
X8109496Y-15348984D02*
X8071401Y-15348984D01*
X8071401Y-15348984D02*
X8052353Y-15339460D01*
X8052353Y-15339460D02*
X8042830Y-15320412D01*
X8042830Y-15320412D02*
X8042830Y-15244222D01*
X8042830Y-15244222D02*
X8052353Y-15225174D01*
X8052353Y-15225174D02*
X8071401Y-15215650D01*
X8071401Y-15215650D02*
X8109496Y-15215650D01*
X8109496Y-15215650D02*
X8128544Y-15225174D01*
X8128544Y-15225174D02*
X8138068Y-15244222D01*
X8138068Y-15244222D02*
X8138068Y-15263269D01*
X8138068Y-15263269D02*
X8042830Y-15282317D01*
X8214258Y-15339460D02*
X8233306Y-15348984D01*
X8233306Y-15348984D02*
X8271401Y-15348984D01*
X8271401Y-15348984D02*
X8290449Y-15339460D01*
X8290449Y-15339460D02*
X8299972Y-15320412D01*
X8299972Y-15320412D02*
X8299972Y-15310888D01*
X8299972Y-15310888D02*
X8290449Y-15291841D01*
X8290449Y-15291841D02*
X8271401Y-15282317D01*
X8271401Y-15282317D02*
X8242830Y-15282317D01*
X8242830Y-15282317D02*
X8223782Y-15272793D01*
X8223782Y-15272793D02*
X8214258Y-15253746D01*
X8214258Y-15253746D02*
X8214258Y-15244222D01*
X8214258Y-15244222D02*
X8223782Y-15225174D01*
X8223782Y-15225174D02*
X8242830Y-15215650D01*
X8242830Y-15215650D02*
X8271401Y-15215650D01*
X8271401Y-15215650D02*
X8290449Y-15225174D01*
X8366639Y-15425174D02*
X8376163Y-15415650D01*
X8376163Y-15415650D02*
X8395211Y-15387079D01*
X8395211Y-15387079D02*
X8404734Y-15368031D01*
X8404734Y-15368031D02*
X8414258Y-15339460D01*
X8414258Y-15339460D02*
X8423782Y-15291841D01*
X8423782Y-15291841D02*
X8423782Y-15253746D01*
X8423782Y-15253746D02*
X8414258Y-15206127D01*
X8414258Y-15206127D02*
X8404734Y-15177555D01*
X8404734Y-15177555D02*
X8395211Y-15158508D01*
X8395211Y-15158508D02*
X8376163Y-15129936D01*
X8376163Y-15129936D02*
X8366639Y-15120412D01*
D12*
X3361100Y-15481500D02*
X3361100Y-15561500D01*
X3321100Y-15521500D02*
X3401100Y-15521500D01*
D11*
X3699972Y-15412984D02*
X3719020Y-15412984D01*
X3719020Y-15412984D02*
X3738067Y-15422508D01*
X3738067Y-15422508D02*
X3747591Y-15432031D01*
X3747591Y-15432031D02*
X3757115Y-15451079D01*
X3757115Y-15451079D02*
X3766639Y-15489174D01*
X3766639Y-15489174D02*
X3766639Y-15536793D01*
X3766639Y-15536793D02*
X3757115Y-15574888D01*
X3757115Y-15574888D02*
X3747591Y-15593936D01*
X3747591Y-15593936D02*
X3738067Y-15603460D01*
X3738067Y-15603460D02*
X3719020Y-15612984D01*
X3719020Y-15612984D02*
X3699972Y-15612984D01*
X3699972Y-15612984D02*
X3680924Y-15603460D01*
X3680924Y-15603460D02*
X3671401Y-15593936D01*
X3671401Y-15593936D02*
X3661877Y-15574888D01*
X3661877Y-15574888D02*
X3652353Y-15536793D01*
X3652353Y-15536793D02*
X3652353Y-15489174D01*
X3652353Y-15489174D02*
X3661877Y-15451079D01*
X3661877Y-15451079D02*
X3671401Y-15432031D01*
X3671401Y-15432031D02*
X3680924Y-15422508D01*
X3680924Y-15422508D02*
X3699972Y-15412984D01*
X3852353Y-15593936D02*
X3861877Y-15603460D01*
X3861877Y-15603460D02*
X3852353Y-15612984D01*
X3852353Y-15612984D02*
X3842829Y-15603460D01*
X3842829Y-15603460D02*
X3852353Y-15593936D01*
X3852353Y-15593936D02*
X3852353Y-15612984D01*
X3976162Y-15498698D02*
X3957115Y-15489174D01*
X3957115Y-15489174D02*
X3947591Y-15479650D01*
X3947591Y-15479650D02*
X3938067Y-15460603D01*
X3938067Y-15460603D02*
X3938067Y-15451079D01*
X3938067Y-15451079D02*
X3947591Y-15432031D01*
X3947591Y-15432031D02*
X3957115Y-15422508D01*
X3957115Y-15422508D02*
X3976162Y-15412984D01*
X3976162Y-15412984D02*
X4014258Y-15412984D01*
X4014258Y-15412984D02*
X4033305Y-15422508D01*
X4033305Y-15422508D02*
X4042829Y-15432031D01*
X4042829Y-15432031D02*
X4052353Y-15451079D01*
X4052353Y-15451079D02*
X4052353Y-15460603D01*
X4052353Y-15460603D02*
X4042829Y-15479650D01*
X4042829Y-15479650D02*
X4033305Y-15489174D01*
X4033305Y-15489174D02*
X4014258Y-15498698D01*
X4014258Y-15498698D02*
X3976162Y-15498698D01*
X3976162Y-15498698D02*
X3957115Y-15508222D01*
X3957115Y-15508222D02*
X3947591Y-15517746D01*
X3947591Y-15517746D02*
X3938067Y-15536793D01*
X3938067Y-15536793D02*
X3938067Y-15574888D01*
X3938067Y-15574888D02*
X3947591Y-15593936D01*
X3947591Y-15593936D02*
X3957115Y-15603460D01*
X3957115Y-15603460D02*
X3976162Y-15612984D01*
X3976162Y-15612984D02*
X4014258Y-15612984D01*
X4014258Y-15612984D02*
X4033305Y-15603460D01*
X4033305Y-15603460D02*
X4042829Y-15593936D01*
X4042829Y-15593936D02*
X4052353Y-15574888D01*
X4052353Y-15574888D02*
X4052353Y-15536793D01*
X4052353Y-15536793D02*
X4042829Y-15517746D01*
X4042829Y-15517746D02*
X4033305Y-15508222D01*
X4033305Y-15508222D02*
X4014258Y-15498698D01*
X4176162Y-15412984D02*
X4195210Y-15412984D01*
X4195210Y-15412984D02*
X4214258Y-15422508D01*
X4214258Y-15422508D02*
X4223782Y-15432031D01*
X4223782Y-15432031D02*
X4233305Y-15451079D01*
X4233305Y-15451079D02*
X4242829Y-15489174D01*
X4242829Y-15489174D02*
X4242829Y-15536793D01*
X4242829Y-15536793D02*
X4233305Y-15574888D01*
X4233305Y-15574888D02*
X4223782Y-15593936D01*
X4223782Y-15593936D02*
X4214258Y-15603460D01*
X4214258Y-15603460D02*
X4195210Y-15612984D01*
X4195210Y-15612984D02*
X4176162Y-15612984D01*
X4176162Y-15612984D02*
X4157115Y-15603460D01*
X4157115Y-15603460D02*
X4147591Y-15593936D01*
X4147591Y-15593936D02*
X4138067Y-15574888D01*
X4138067Y-15574888D02*
X4128543Y-15536793D01*
X4128543Y-15536793D02*
X4128543Y-15489174D01*
X4128543Y-15489174D02*
X4138067Y-15451079D01*
X4138067Y-15451079D02*
X4147591Y-15432031D01*
X4147591Y-15432031D02*
X4157115Y-15422508D01*
X4157115Y-15422508D02*
X4176162Y-15412984D01*
X4366639Y-15412984D02*
X4385686Y-15412984D01*
X4385686Y-15412984D02*
X4404734Y-15422508D01*
X4404734Y-15422508D02*
X4414258Y-15432031D01*
X4414258Y-15432031D02*
X4423782Y-15451079D01*
X4423782Y-15451079D02*
X4433305Y-15489174D01*
X4433305Y-15489174D02*
X4433305Y-15536793D01*
X4433305Y-15536793D02*
X4423782Y-15574888D01*
X4423782Y-15574888D02*
X4414258Y-15593936D01*
X4414258Y-15593936D02*
X4404734Y-15603460D01*
X4404734Y-15603460D02*
X4385686Y-15612984D01*
X4385686Y-15612984D02*
X4366639Y-15612984D01*
X4366639Y-15612984D02*
X4347591Y-15603460D01*
X4347591Y-15603460D02*
X4338067Y-15593936D01*
X4338067Y-15593936D02*
X4328544Y-15574888D01*
X4328544Y-15574888D02*
X4319020Y-15536793D01*
X4319020Y-15536793D02*
X4319020Y-15489174D01*
X4319020Y-15489174D02*
X4328544Y-15451079D01*
X4328544Y-15451079D02*
X4338067Y-15432031D01*
X4338067Y-15432031D02*
X4347591Y-15422508D01*
X4347591Y-15422508D02*
X4366639Y-15412984D01*
X4519020Y-15612984D02*
X4519020Y-15479650D01*
X4519020Y-15498698D02*
X4528544Y-15489174D01*
X4528544Y-15489174D02*
X4547591Y-15479650D01*
X4547591Y-15479650D02*
X4576163Y-15479650D01*
X4576163Y-15479650D02*
X4595210Y-15489174D01*
X4595210Y-15489174D02*
X4604734Y-15508222D01*
X4604734Y-15508222D02*
X4604734Y-15612984D01*
X4604734Y-15508222D02*
X4614258Y-15489174D01*
X4614258Y-15489174D02*
X4633305Y-15479650D01*
X4633305Y-15479650D02*
X4661877Y-15479650D01*
X4661877Y-15479650D02*
X4680925Y-15489174D01*
X4680925Y-15489174D02*
X4690448Y-15508222D01*
X4690448Y-15508222D02*
X4690448Y-15612984D01*
X4785686Y-15612984D02*
X4785686Y-15479650D01*
X4785686Y-15498698D02*
X4795210Y-15489174D01*
X4795210Y-15489174D02*
X4814258Y-15479650D01*
X4814258Y-15479650D02*
X4842829Y-15479650D01*
X4842829Y-15479650D02*
X4861877Y-15489174D01*
X4861877Y-15489174D02*
X4871401Y-15508222D01*
X4871401Y-15508222D02*
X4871401Y-15612984D01*
X4871401Y-15508222D02*
X4880925Y-15489174D01*
X4880925Y-15489174D02*
X4899972Y-15479650D01*
X4899972Y-15479650D02*
X4928544Y-15479650D01*
X4928544Y-15479650D02*
X4947591Y-15489174D01*
X4947591Y-15489174D02*
X4957115Y-15508222D01*
X4957115Y-15508222D02*
X4957115Y-15612984D01*
X5347591Y-15403460D02*
X5176163Y-15660603D01*
X5604734Y-15412984D02*
X5623782Y-15412984D01*
X5623782Y-15412984D02*
X5642829Y-15422508D01*
X5642829Y-15422508D02*
X5652353Y-15432031D01*
X5652353Y-15432031D02*
X5661877Y-15451079D01*
X5661877Y-15451079D02*
X5671401Y-15489174D01*
X5671401Y-15489174D02*
X5671401Y-15536793D01*
X5671401Y-15536793D02*
X5661877Y-15574888D01*
X5661877Y-15574888D02*
X5652353Y-15593936D01*
X5652353Y-15593936D02*
X5642829Y-15603460D01*
X5642829Y-15603460D02*
X5623782Y-15612984D01*
X5623782Y-15612984D02*
X5604734Y-15612984D01*
X5604734Y-15612984D02*
X5585687Y-15603460D01*
X5585687Y-15603460D02*
X5576163Y-15593936D01*
X5576163Y-15593936D02*
X5566639Y-15574888D01*
X5566639Y-15574888D02*
X5557115Y-15536793D01*
X5557115Y-15536793D02*
X5557115Y-15489174D01*
X5557115Y-15489174D02*
X5566639Y-15451079D01*
X5566639Y-15451079D02*
X5576163Y-15432031D01*
X5576163Y-15432031D02*
X5585687Y-15422508D01*
X5585687Y-15422508D02*
X5604734Y-15412984D01*
X5757115Y-15593936D02*
X5766639Y-15603460D01*
X5766639Y-15603460D02*
X5757115Y-15612984D01*
X5757115Y-15612984D02*
X5747591Y-15603460D01*
X5747591Y-15603460D02*
X5757115Y-15593936D01*
X5757115Y-15593936D02*
X5757115Y-15612984D01*
X5890448Y-15412984D02*
X5909496Y-15412984D01*
X5909496Y-15412984D02*
X5928544Y-15422508D01*
X5928544Y-15422508D02*
X5938067Y-15432031D01*
X5938067Y-15432031D02*
X5947591Y-15451079D01*
X5947591Y-15451079D02*
X5957115Y-15489174D01*
X5957115Y-15489174D02*
X5957115Y-15536793D01*
X5957115Y-15536793D02*
X5947591Y-15574888D01*
X5947591Y-15574888D02*
X5938067Y-15593936D01*
X5938067Y-15593936D02*
X5928544Y-15603460D01*
X5928544Y-15603460D02*
X5909496Y-15612984D01*
X5909496Y-15612984D02*
X5890448Y-15612984D01*
X5890448Y-15612984D02*
X5871401Y-15603460D01*
X5871401Y-15603460D02*
X5861877Y-15593936D01*
X5861877Y-15593936D02*
X5852353Y-15574888D01*
X5852353Y-15574888D02*
X5842829Y-15536793D01*
X5842829Y-15536793D02*
X5842829Y-15489174D01*
X5842829Y-15489174D02*
X5852353Y-15451079D01*
X5852353Y-15451079D02*
X5861877Y-15432031D01*
X5861877Y-15432031D02*
X5871401Y-15422508D01*
X5871401Y-15422508D02*
X5890448Y-15412984D01*
X6023782Y-15412984D02*
X6147591Y-15412984D01*
X6147591Y-15412984D02*
X6080925Y-15489174D01*
X6080925Y-15489174D02*
X6109496Y-15489174D01*
X6109496Y-15489174D02*
X6128544Y-15498698D01*
X6128544Y-15498698D02*
X6138067Y-15508222D01*
X6138067Y-15508222D02*
X6147591Y-15527269D01*
X6147591Y-15527269D02*
X6147591Y-15574888D01*
X6147591Y-15574888D02*
X6138067Y-15593936D01*
X6138067Y-15593936D02*
X6128544Y-15603460D01*
X6128544Y-15603460D02*
X6109496Y-15612984D01*
X6109496Y-15612984D02*
X6052353Y-15612984D01*
X6052353Y-15612984D02*
X6033306Y-15603460D01*
X6033306Y-15603460D02*
X6023782Y-15593936D01*
X6338067Y-15612984D02*
X6223782Y-15612984D01*
X6280925Y-15612984D02*
X6280925Y-15412984D01*
X6280925Y-15412984D02*
X6261877Y-15441555D01*
X6261877Y-15441555D02*
X6242829Y-15460603D01*
X6242829Y-15460603D02*
X6223782Y-15470127D01*
X6519020Y-15412984D02*
X6423782Y-15412984D01*
X6423782Y-15412984D02*
X6414258Y-15508222D01*
X6414258Y-15508222D02*
X6423782Y-15498698D01*
X6423782Y-15498698D02*
X6442829Y-15489174D01*
X6442829Y-15489174D02*
X6490448Y-15489174D01*
X6490448Y-15489174D02*
X6509496Y-15498698D01*
X6509496Y-15498698D02*
X6519020Y-15508222D01*
X6519020Y-15508222D02*
X6528544Y-15527269D01*
X6528544Y-15527269D02*
X6528544Y-15574888D01*
X6528544Y-15574888D02*
X6519020Y-15593936D01*
X6519020Y-15593936D02*
X6509496Y-15603460D01*
X6509496Y-15603460D02*
X6490448Y-15612984D01*
X6490448Y-15612984D02*
X6442829Y-15612984D01*
X6442829Y-15612984D02*
X6423782Y-15603460D01*
X6423782Y-15603460D02*
X6414258Y-15593936D01*
X6604734Y-15412984D02*
X6604734Y-15451079D01*
X6680925Y-15412984D02*
X6680925Y-15451079D01*
X6976163Y-15689174D02*
X6966639Y-15679650D01*
X6966639Y-15679650D02*
X6947591Y-15651079D01*
X6947591Y-15651079D02*
X6938068Y-15632031D01*
X6938068Y-15632031D02*
X6928544Y-15603460D01*
X6928544Y-15603460D02*
X6919020Y-15555841D01*
X6919020Y-15555841D02*
X6919020Y-15517746D01*
X6919020Y-15517746D02*
X6928544Y-15470127D01*
X6928544Y-15470127D02*
X6938068Y-15441555D01*
X6938068Y-15441555D02*
X6947591Y-15422508D01*
X6947591Y-15422508D02*
X6966639Y-15393936D01*
X6966639Y-15393936D02*
X6976163Y-15384412D01*
X7157115Y-15612984D02*
X7042829Y-15612984D01*
X7099972Y-15612984D02*
X7099972Y-15412984D01*
X7099972Y-15412984D02*
X7080925Y-15441555D01*
X7080925Y-15441555D02*
X7061877Y-15460603D01*
X7061877Y-15460603D02*
X7042829Y-15470127D01*
X7271401Y-15498698D02*
X7252353Y-15489174D01*
X7252353Y-15489174D02*
X7242829Y-15479650D01*
X7242829Y-15479650D02*
X7233306Y-15460603D01*
X7233306Y-15460603D02*
X7233306Y-15451079D01*
X7233306Y-15451079D02*
X7242829Y-15432031D01*
X7242829Y-15432031D02*
X7252353Y-15422508D01*
X7252353Y-15422508D02*
X7271401Y-15412984D01*
X7271401Y-15412984D02*
X7309496Y-15412984D01*
X7309496Y-15412984D02*
X7328544Y-15422508D01*
X7328544Y-15422508D02*
X7338068Y-15432031D01*
X7338068Y-15432031D02*
X7347591Y-15451079D01*
X7347591Y-15451079D02*
X7347591Y-15460603D01*
X7347591Y-15460603D02*
X7338068Y-15479650D01*
X7338068Y-15479650D02*
X7328544Y-15489174D01*
X7328544Y-15489174D02*
X7309496Y-15498698D01*
X7309496Y-15498698D02*
X7271401Y-15498698D01*
X7271401Y-15498698D02*
X7252353Y-15508222D01*
X7252353Y-15508222D02*
X7242829Y-15517746D01*
X7242829Y-15517746D02*
X7233306Y-15536793D01*
X7233306Y-15536793D02*
X7233306Y-15574888D01*
X7233306Y-15574888D02*
X7242829Y-15593936D01*
X7242829Y-15593936D02*
X7252353Y-15603460D01*
X7252353Y-15603460D02*
X7271401Y-15612984D01*
X7271401Y-15612984D02*
X7309496Y-15612984D01*
X7309496Y-15612984D02*
X7328544Y-15603460D01*
X7328544Y-15603460D02*
X7338068Y-15593936D01*
X7338068Y-15593936D02*
X7347591Y-15574888D01*
X7347591Y-15574888D02*
X7347591Y-15536793D01*
X7347591Y-15536793D02*
X7338068Y-15517746D01*
X7338068Y-15517746D02*
X7328544Y-15508222D01*
X7328544Y-15508222D02*
X7309496Y-15498698D01*
X7585687Y-15612984D02*
X7585687Y-15412984D01*
X7671401Y-15612984D02*
X7671401Y-15508222D01*
X7671401Y-15508222D02*
X7661877Y-15489174D01*
X7661877Y-15489174D02*
X7642830Y-15479650D01*
X7642830Y-15479650D02*
X7614258Y-15479650D01*
X7614258Y-15479650D02*
X7595210Y-15489174D01*
X7595210Y-15489174D02*
X7585687Y-15498698D01*
X7795210Y-15612984D02*
X7776163Y-15603460D01*
X7776163Y-15603460D02*
X7766639Y-15593936D01*
X7766639Y-15593936D02*
X7757115Y-15574888D01*
X7757115Y-15574888D02*
X7757115Y-15517746D01*
X7757115Y-15517746D02*
X7766639Y-15498698D01*
X7766639Y-15498698D02*
X7776163Y-15489174D01*
X7776163Y-15489174D02*
X7795210Y-15479650D01*
X7795210Y-15479650D02*
X7823782Y-15479650D01*
X7823782Y-15479650D02*
X7842830Y-15489174D01*
X7842830Y-15489174D02*
X7852353Y-15498698D01*
X7852353Y-15498698D02*
X7861877Y-15517746D01*
X7861877Y-15517746D02*
X7861877Y-15574888D01*
X7861877Y-15574888D02*
X7852353Y-15593936D01*
X7852353Y-15593936D02*
X7842830Y-15603460D01*
X7842830Y-15603460D02*
X7823782Y-15612984D01*
X7823782Y-15612984D02*
X7795210Y-15612984D01*
X7976163Y-15612984D02*
X7957115Y-15603460D01*
X7957115Y-15603460D02*
X7947591Y-15584412D01*
X7947591Y-15584412D02*
X7947591Y-15412984D01*
X8128544Y-15603460D02*
X8109496Y-15612984D01*
X8109496Y-15612984D02*
X8071401Y-15612984D01*
X8071401Y-15612984D02*
X8052353Y-15603460D01*
X8052353Y-15603460D02*
X8042830Y-15584412D01*
X8042830Y-15584412D02*
X8042830Y-15508222D01*
X8042830Y-15508222D02*
X8052353Y-15489174D01*
X8052353Y-15489174D02*
X8071401Y-15479650D01*
X8071401Y-15479650D02*
X8109496Y-15479650D01*
X8109496Y-15479650D02*
X8128544Y-15489174D01*
X8128544Y-15489174D02*
X8138068Y-15508222D01*
X8138068Y-15508222D02*
X8138068Y-15527269D01*
X8138068Y-15527269D02*
X8042830Y-15546317D01*
X8214258Y-15603460D02*
X8233306Y-15612984D01*
X8233306Y-15612984D02*
X8271401Y-15612984D01*
X8271401Y-15612984D02*
X8290449Y-15603460D01*
X8290449Y-15603460D02*
X8299972Y-15584412D01*
X8299972Y-15584412D02*
X8299972Y-15574888D01*
X8299972Y-15574888D02*
X8290449Y-15555841D01*
X8290449Y-15555841D02*
X8271401Y-15546317D01*
X8271401Y-15546317D02*
X8242830Y-15546317D01*
X8242830Y-15546317D02*
X8223782Y-15536793D01*
X8223782Y-15536793D02*
X8214258Y-15517746D01*
X8214258Y-15517746D02*
X8214258Y-15508222D01*
X8214258Y-15508222D02*
X8223782Y-15489174D01*
X8223782Y-15489174D02*
X8242830Y-15479650D01*
X8242830Y-15479650D02*
X8271401Y-15479650D01*
X8271401Y-15479650D02*
X8290449Y-15489174D01*
X8366639Y-15689174D02*
X8376163Y-15679650D01*
X8376163Y-15679650D02*
X8395211Y-15651079D01*
X8395211Y-15651079D02*
X8404734Y-15632031D01*
X8404734Y-15632031D02*
X8414258Y-15603460D01*
X8414258Y-15603460D02*
X8423782Y-15555841D01*
X8423782Y-15555841D02*
X8423782Y-15517746D01*
X8423782Y-15517746D02*
X8414258Y-15470127D01*
X8414258Y-15470127D02*
X8404734Y-15441555D01*
X8404734Y-15441555D02*
X8395211Y-15422508D01*
X8395211Y-15422508D02*
X8376163Y-15393936D01*
X8376163Y-15393936D02*
X8366639Y-15384412D01*
D12*
X3387627Y-15818027D02*
X3387627Y-15752973D01*
X3322573Y-15752973D01*
X3322573Y-15818027D01*
X3387627Y-15818027D01*
D11*
X3699972Y-15676984D02*
X3719020Y-15676984D01*
X3719020Y-15676984D02*
X3738067Y-15686508D01*
X3738067Y-15686508D02*
X3747591Y-15696031D01*
X3747591Y-15696031D02*
X3757115Y-15715079D01*
X3757115Y-15715079D02*
X3766639Y-15753174D01*
X3766639Y-15753174D02*
X3766639Y-15800793D01*
X3766639Y-15800793D02*
X3757115Y-15838888D01*
X3757115Y-15838888D02*
X3747591Y-15857936D01*
X3747591Y-15857936D02*
X3738067Y-15867460D01*
X3738067Y-15867460D02*
X3719020Y-15876984D01*
X3719020Y-15876984D02*
X3699972Y-15876984D01*
X3699972Y-15876984D02*
X3680924Y-15867460D01*
X3680924Y-15867460D02*
X3671401Y-15857936D01*
X3671401Y-15857936D02*
X3661877Y-15838888D01*
X3661877Y-15838888D02*
X3652353Y-15800793D01*
X3652353Y-15800793D02*
X3652353Y-15753174D01*
X3652353Y-15753174D02*
X3661877Y-15715079D01*
X3661877Y-15715079D02*
X3671401Y-15696031D01*
X3671401Y-15696031D02*
X3680924Y-15686508D01*
X3680924Y-15686508D02*
X3699972Y-15676984D01*
X3852353Y-15857936D02*
X3861877Y-15867460D01*
X3861877Y-15867460D02*
X3852353Y-15876984D01*
X3852353Y-15876984D02*
X3842829Y-15867460D01*
X3842829Y-15867460D02*
X3852353Y-15857936D01*
X3852353Y-15857936D02*
X3852353Y-15876984D01*
X3957115Y-15876984D02*
X3995210Y-15876984D01*
X3995210Y-15876984D02*
X4014258Y-15867460D01*
X4014258Y-15867460D02*
X4023782Y-15857936D01*
X4023782Y-15857936D02*
X4042829Y-15829365D01*
X4042829Y-15829365D02*
X4052353Y-15791269D01*
X4052353Y-15791269D02*
X4052353Y-15715079D01*
X4052353Y-15715079D02*
X4042829Y-15696031D01*
X4042829Y-15696031D02*
X4033305Y-15686508D01*
X4033305Y-15686508D02*
X4014258Y-15676984D01*
X4014258Y-15676984D02*
X3976162Y-15676984D01*
X3976162Y-15676984D02*
X3957115Y-15686508D01*
X3957115Y-15686508D02*
X3947591Y-15696031D01*
X3947591Y-15696031D02*
X3938067Y-15715079D01*
X3938067Y-15715079D02*
X3938067Y-15762698D01*
X3938067Y-15762698D02*
X3947591Y-15781746D01*
X3947591Y-15781746D02*
X3957115Y-15791269D01*
X3957115Y-15791269D02*
X3976162Y-15800793D01*
X3976162Y-15800793D02*
X4014258Y-15800793D01*
X4014258Y-15800793D02*
X4033305Y-15791269D01*
X4033305Y-15791269D02*
X4042829Y-15781746D01*
X4042829Y-15781746D02*
X4052353Y-15762698D01*
X4128543Y-15696031D02*
X4138067Y-15686508D01*
X4138067Y-15686508D02*
X4157115Y-15676984D01*
X4157115Y-15676984D02*
X4204734Y-15676984D01*
X4204734Y-15676984D02*
X4223782Y-15686508D01*
X4223782Y-15686508D02*
X4233305Y-15696031D01*
X4233305Y-15696031D02*
X4242829Y-15715079D01*
X4242829Y-15715079D02*
X4242829Y-15734127D01*
X4242829Y-15734127D02*
X4233305Y-15762698D01*
X4233305Y-15762698D02*
X4119020Y-15876984D01*
X4119020Y-15876984D02*
X4242829Y-15876984D01*
X4366639Y-15676984D02*
X4385686Y-15676984D01*
X4385686Y-15676984D02*
X4404734Y-15686508D01*
X4404734Y-15686508D02*
X4414258Y-15696031D01*
X4414258Y-15696031D02*
X4423782Y-15715079D01*
X4423782Y-15715079D02*
X4433305Y-15753174D01*
X4433305Y-15753174D02*
X4433305Y-15800793D01*
X4433305Y-15800793D02*
X4423782Y-15838888D01*
X4423782Y-15838888D02*
X4414258Y-15857936D01*
X4414258Y-15857936D02*
X4404734Y-15867460D01*
X4404734Y-15867460D02*
X4385686Y-15876984D01*
X4385686Y-15876984D02*
X4366639Y-15876984D01*
X4366639Y-15876984D02*
X4347591Y-15867460D01*
X4347591Y-15867460D02*
X4338067Y-15857936D01*
X4338067Y-15857936D02*
X4328544Y-15838888D01*
X4328544Y-15838888D02*
X4319020Y-15800793D01*
X4319020Y-15800793D02*
X4319020Y-15753174D01*
X4319020Y-15753174D02*
X4328544Y-15715079D01*
X4328544Y-15715079D02*
X4338067Y-15696031D01*
X4338067Y-15696031D02*
X4347591Y-15686508D01*
X4347591Y-15686508D02*
X4366639Y-15676984D01*
X4519020Y-15876984D02*
X4519020Y-15743650D01*
X4519020Y-15762698D02*
X4528544Y-15753174D01*
X4528544Y-15753174D02*
X4547591Y-15743650D01*
X4547591Y-15743650D02*
X4576163Y-15743650D01*
X4576163Y-15743650D02*
X4595210Y-15753174D01*
X4595210Y-15753174D02*
X4604734Y-15772222D01*
X4604734Y-15772222D02*
X4604734Y-15876984D01*
X4604734Y-15772222D02*
X4614258Y-15753174D01*
X4614258Y-15753174D02*
X4633305Y-15743650D01*
X4633305Y-15743650D02*
X4661877Y-15743650D01*
X4661877Y-15743650D02*
X4680925Y-15753174D01*
X4680925Y-15753174D02*
X4690448Y-15772222D01*
X4690448Y-15772222D02*
X4690448Y-15876984D01*
X4785686Y-15876984D02*
X4785686Y-15743650D01*
X4785686Y-15762698D02*
X4795210Y-15753174D01*
X4795210Y-15753174D02*
X4814258Y-15743650D01*
X4814258Y-15743650D02*
X4842829Y-15743650D01*
X4842829Y-15743650D02*
X4861877Y-15753174D01*
X4861877Y-15753174D02*
X4871401Y-15772222D01*
X4871401Y-15772222D02*
X4871401Y-15876984D01*
X4871401Y-15772222D02*
X4880925Y-15753174D01*
X4880925Y-15753174D02*
X4899972Y-15743650D01*
X4899972Y-15743650D02*
X4928544Y-15743650D01*
X4928544Y-15743650D02*
X4947591Y-15753174D01*
X4947591Y-15753174D02*
X4957115Y-15772222D01*
X4957115Y-15772222D02*
X4957115Y-15876984D01*
X5347591Y-15667460D02*
X5176163Y-15924603D01*
X5604734Y-15676984D02*
X5623782Y-15676984D01*
X5623782Y-15676984D02*
X5642829Y-15686508D01*
X5642829Y-15686508D02*
X5652353Y-15696031D01*
X5652353Y-15696031D02*
X5661877Y-15715079D01*
X5661877Y-15715079D02*
X5671401Y-15753174D01*
X5671401Y-15753174D02*
X5671401Y-15800793D01*
X5671401Y-15800793D02*
X5661877Y-15838888D01*
X5661877Y-15838888D02*
X5652353Y-15857936D01*
X5652353Y-15857936D02*
X5642829Y-15867460D01*
X5642829Y-15867460D02*
X5623782Y-15876984D01*
X5623782Y-15876984D02*
X5604734Y-15876984D01*
X5604734Y-15876984D02*
X5585687Y-15867460D01*
X5585687Y-15867460D02*
X5576163Y-15857936D01*
X5576163Y-15857936D02*
X5566639Y-15838888D01*
X5566639Y-15838888D02*
X5557115Y-15800793D01*
X5557115Y-15800793D02*
X5557115Y-15753174D01*
X5557115Y-15753174D02*
X5566639Y-15715079D01*
X5566639Y-15715079D02*
X5576163Y-15696031D01*
X5576163Y-15696031D02*
X5585687Y-15686508D01*
X5585687Y-15686508D02*
X5604734Y-15676984D01*
X5757115Y-15857936D02*
X5766639Y-15867460D01*
X5766639Y-15867460D02*
X5757115Y-15876984D01*
X5757115Y-15876984D02*
X5747591Y-15867460D01*
X5747591Y-15867460D02*
X5757115Y-15857936D01*
X5757115Y-15857936D02*
X5757115Y-15876984D01*
X5890448Y-15676984D02*
X5909496Y-15676984D01*
X5909496Y-15676984D02*
X5928544Y-15686508D01*
X5928544Y-15686508D02*
X5938067Y-15696031D01*
X5938067Y-15696031D02*
X5947591Y-15715079D01*
X5947591Y-15715079D02*
X5957115Y-15753174D01*
X5957115Y-15753174D02*
X5957115Y-15800793D01*
X5957115Y-15800793D02*
X5947591Y-15838888D01*
X5947591Y-15838888D02*
X5938067Y-15857936D01*
X5938067Y-15857936D02*
X5928544Y-15867460D01*
X5928544Y-15867460D02*
X5909496Y-15876984D01*
X5909496Y-15876984D02*
X5890448Y-15876984D01*
X5890448Y-15876984D02*
X5871401Y-15867460D01*
X5871401Y-15867460D02*
X5861877Y-15857936D01*
X5861877Y-15857936D02*
X5852353Y-15838888D01*
X5852353Y-15838888D02*
X5842829Y-15800793D01*
X5842829Y-15800793D02*
X5842829Y-15753174D01*
X5842829Y-15753174D02*
X5852353Y-15715079D01*
X5852353Y-15715079D02*
X5861877Y-15696031D01*
X5861877Y-15696031D02*
X5871401Y-15686508D01*
X5871401Y-15686508D02*
X5890448Y-15676984D01*
X6023782Y-15676984D02*
X6147591Y-15676984D01*
X6147591Y-15676984D02*
X6080925Y-15753174D01*
X6080925Y-15753174D02*
X6109496Y-15753174D01*
X6109496Y-15753174D02*
X6128544Y-15762698D01*
X6128544Y-15762698D02*
X6138067Y-15772222D01*
X6138067Y-15772222D02*
X6147591Y-15791269D01*
X6147591Y-15791269D02*
X6147591Y-15838888D01*
X6147591Y-15838888D02*
X6138067Y-15857936D01*
X6138067Y-15857936D02*
X6128544Y-15867460D01*
X6128544Y-15867460D02*
X6109496Y-15876984D01*
X6109496Y-15876984D02*
X6052353Y-15876984D01*
X6052353Y-15876984D02*
X6033306Y-15867460D01*
X6033306Y-15867460D02*
X6023782Y-15857936D01*
X6319020Y-15676984D02*
X6280925Y-15676984D01*
X6280925Y-15676984D02*
X6261877Y-15686508D01*
X6261877Y-15686508D02*
X6252353Y-15696031D01*
X6252353Y-15696031D02*
X6233306Y-15724603D01*
X6233306Y-15724603D02*
X6223782Y-15762698D01*
X6223782Y-15762698D02*
X6223782Y-15838888D01*
X6223782Y-15838888D02*
X6233306Y-15857936D01*
X6233306Y-15857936D02*
X6242829Y-15867460D01*
X6242829Y-15867460D02*
X6261877Y-15876984D01*
X6261877Y-15876984D02*
X6299972Y-15876984D01*
X6299972Y-15876984D02*
X6319020Y-15867460D01*
X6319020Y-15867460D02*
X6328544Y-15857936D01*
X6328544Y-15857936D02*
X6338067Y-15838888D01*
X6338067Y-15838888D02*
X6338067Y-15791269D01*
X6338067Y-15791269D02*
X6328544Y-15772222D01*
X6328544Y-15772222D02*
X6319020Y-15762698D01*
X6319020Y-15762698D02*
X6299972Y-15753174D01*
X6299972Y-15753174D02*
X6261877Y-15753174D01*
X6261877Y-15753174D02*
X6242829Y-15762698D01*
X6242829Y-15762698D02*
X6233306Y-15772222D01*
X6233306Y-15772222D02*
X6223782Y-15791269D01*
X6414258Y-15696031D02*
X6423782Y-15686508D01*
X6423782Y-15686508D02*
X6442829Y-15676984D01*
X6442829Y-15676984D02*
X6490448Y-15676984D01*
X6490448Y-15676984D02*
X6509496Y-15686508D01*
X6509496Y-15686508D02*
X6519020Y-15696031D01*
X6519020Y-15696031D02*
X6528544Y-15715079D01*
X6528544Y-15715079D02*
X6528544Y-15734127D01*
X6528544Y-15734127D02*
X6519020Y-15762698D01*
X6519020Y-15762698D02*
X6404734Y-15876984D01*
X6404734Y-15876984D02*
X6528544Y-15876984D01*
X6604734Y-15676984D02*
X6604734Y-15715079D01*
X6680925Y-15676984D02*
X6680925Y-15715079D01*
X6976163Y-15953174D02*
X6966639Y-15943650D01*
X6966639Y-15943650D02*
X6947591Y-15915079D01*
X6947591Y-15915079D02*
X6938068Y-15896031D01*
X6938068Y-15896031D02*
X6928544Y-15867460D01*
X6928544Y-15867460D02*
X6919020Y-15819841D01*
X6919020Y-15819841D02*
X6919020Y-15781746D01*
X6919020Y-15781746D02*
X6928544Y-15734127D01*
X6928544Y-15734127D02*
X6938068Y-15705555D01*
X6938068Y-15705555D02*
X6947591Y-15686508D01*
X6947591Y-15686508D02*
X6966639Y-15657936D01*
X6966639Y-15657936D02*
X6976163Y-15648412D01*
X7138068Y-15743650D02*
X7138068Y-15876984D01*
X7090448Y-15667460D02*
X7042829Y-15810317D01*
X7042829Y-15810317D02*
X7166639Y-15810317D01*
X7395210Y-15876984D02*
X7395210Y-15676984D01*
X7480925Y-15876984D02*
X7480925Y-15772222D01*
X7480925Y-15772222D02*
X7471401Y-15753174D01*
X7471401Y-15753174D02*
X7452353Y-15743650D01*
X7452353Y-15743650D02*
X7423782Y-15743650D01*
X7423782Y-15743650D02*
X7404734Y-15753174D01*
X7404734Y-15753174D02*
X7395210Y-15762698D01*
X7604734Y-15876984D02*
X7585687Y-15867460D01*
X7585687Y-15867460D02*
X7576163Y-15857936D01*
X7576163Y-15857936D02*
X7566639Y-15838888D01*
X7566639Y-15838888D02*
X7566639Y-15781746D01*
X7566639Y-15781746D02*
X7576163Y-15762698D01*
X7576163Y-15762698D02*
X7585687Y-15753174D01*
X7585687Y-15753174D02*
X7604734Y-15743650D01*
X7604734Y-15743650D02*
X7633306Y-15743650D01*
X7633306Y-15743650D02*
X7652353Y-15753174D01*
X7652353Y-15753174D02*
X7661877Y-15762698D01*
X7661877Y-15762698D02*
X7671401Y-15781746D01*
X7671401Y-15781746D02*
X7671401Y-15838888D01*
X7671401Y-15838888D02*
X7661877Y-15857936D01*
X7661877Y-15857936D02*
X7652353Y-15867460D01*
X7652353Y-15867460D02*
X7633306Y-15876984D01*
X7633306Y-15876984D02*
X7604734Y-15876984D01*
X7785687Y-15876984D02*
X7766639Y-15867460D01*
X7766639Y-15867460D02*
X7757115Y-15848412D01*
X7757115Y-15848412D02*
X7757115Y-15676984D01*
X7938068Y-15867460D02*
X7919020Y-15876984D01*
X7919020Y-15876984D02*
X7880925Y-15876984D01*
X7880925Y-15876984D02*
X7861877Y-15867460D01*
X7861877Y-15867460D02*
X7852353Y-15848412D01*
X7852353Y-15848412D02*
X7852353Y-15772222D01*
X7852353Y-15772222D02*
X7861877Y-15753174D01*
X7861877Y-15753174D02*
X7880925Y-15743650D01*
X7880925Y-15743650D02*
X7919020Y-15743650D01*
X7919020Y-15743650D02*
X7938068Y-15753174D01*
X7938068Y-15753174D02*
X7947591Y-15772222D01*
X7947591Y-15772222D02*
X7947591Y-15791269D01*
X7947591Y-15791269D02*
X7852353Y-15810317D01*
X8023782Y-15867460D02*
X8042830Y-15876984D01*
X8042830Y-15876984D02*
X8080925Y-15876984D01*
X8080925Y-15876984D02*
X8099972Y-15867460D01*
X8099972Y-15867460D02*
X8109496Y-15848412D01*
X8109496Y-15848412D02*
X8109496Y-15838888D01*
X8109496Y-15838888D02*
X8099972Y-15819841D01*
X8099972Y-15819841D02*
X8080925Y-15810317D01*
X8080925Y-15810317D02*
X8052353Y-15810317D01*
X8052353Y-15810317D02*
X8033306Y-15800793D01*
X8033306Y-15800793D02*
X8023782Y-15781746D01*
X8023782Y-15781746D02*
X8023782Y-15772222D01*
X8023782Y-15772222D02*
X8033306Y-15753174D01*
X8033306Y-15753174D02*
X8052353Y-15743650D01*
X8052353Y-15743650D02*
X8080925Y-15743650D01*
X8080925Y-15743650D02*
X8099972Y-15753174D01*
X8176163Y-15953174D02*
X8185687Y-15943650D01*
X8185687Y-15943650D02*
X8204734Y-15915079D01*
X8204734Y-15915079D02*
X8214258Y-15896031D01*
X8214258Y-15896031D02*
X8223782Y-15867460D01*
X8223782Y-15867460D02*
X8233306Y-15819841D01*
X8233306Y-15819841D02*
X8233306Y-15781746D01*
X8233306Y-15781746D02*
X8223782Y-15734127D01*
X8223782Y-15734127D02*
X8214258Y-15705555D01*
X8214258Y-15705555D02*
X8204734Y-15686508D01*
X8204734Y-15686508D02*
X8185687Y-15657936D01*
X8185687Y-15657936D02*
X8176163Y-15648412D01*
D12*
X3351100Y-16099500D02*
X3401100Y-16049500D01*
X3351100Y-15999500D01*
X3301100Y-16049500D01*
X3351100Y-16099500D01*
D11*
X3766639Y-16140984D02*
X3652353Y-16140984D01*
X3709496Y-16140984D02*
X3709496Y-15940984D01*
X3709496Y-15940984D02*
X3690448Y-15969555D01*
X3690448Y-15969555D02*
X3671401Y-15988603D01*
X3671401Y-15988603D02*
X3652353Y-15998127D01*
X3852353Y-16121936D02*
X3861877Y-16131460D01*
X3861877Y-16131460D02*
X3852353Y-16140984D01*
X3852353Y-16140984D02*
X3842829Y-16131460D01*
X3842829Y-16131460D02*
X3852353Y-16121936D01*
X3852353Y-16121936D02*
X3852353Y-16140984D01*
X3985686Y-15940984D02*
X4004734Y-15940984D01*
X4004734Y-15940984D02*
X4023782Y-15950508D01*
X4023782Y-15950508D02*
X4033305Y-15960031D01*
X4033305Y-15960031D02*
X4042829Y-15979079D01*
X4042829Y-15979079D02*
X4052353Y-16017174D01*
X4052353Y-16017174D02*
X4052353Y-16064793D01*
X4052353Y-16064793D02*
X4042829Y-16102888D01*
X4042829Y-16102888D02*
X4033305Y-16121936D01*
X4033305Y-16121936D02*
X4023782Y-16131460D01*
X4023782Y-16131460D02*
X4004734Y-16140984D01*
X4004734Y-16140984D02*
X3985686Y-16140984D01*
X3985686Y-16140984D02*
X3966639Y-16131460D01*
X3966639Y-16131460D02*
X3957115Y-16121936D01*
X3957115Y-16121936D02*
X3947591Y-16102888D01*
X3947591Y-16102888D02*
X3938067Y-16064793D01*
X3938067Y-16064793D02*
X3938067Y-16017174D01*
X3938067Y-16017174D02*
X3947591Y-15979079D01*
X3947591Y-15979079D02*
X3957115Y-15960031D01*
X3957115Y-15960031D02*
X3966639Y-15950508D01*
X3966639Y-15950508D02*
X3985686Y-15940984D01*
X4176162Y-15940984D02*
X4195210Y-15940984D01*
X4195210Y-15940984D02*
X4214258Y-15950508D01*
X4214258Y-15950508D02*
X4223782Y-15960031D01*
X4223782Y-15960031D02*
X4233305Y-15979079D01*
X4233305Y-15979079D02*
X4242829Y-16017174D01*
X4242829Y-16017174D02*
X4242829Y-16064793D01*
X4242829Y-16064793D02*
X4233305Y-16102888D01*
X4233305Y-16102888D02*
X4223782Y-16121936D01*
X4223782Y-16121936D02*
X4214258Y-16131460D01*
X4214258Y-16131460D02*
X4195210Y-16140984D01*
X4195210Y-16140984D02*
X4176162Y-16140984D01*
X4176162Y-16140984D02*
X4157115Y-16131460D01*
X4157115Y-16131460D02*
X4147591Y-16121936D01*
X4147591Y-16121936D02*
X4138067Y-16102888D01*
X4138067Y-16102888D02*
X4128543Y-16064793D01*
X4128543Y-16064793D02*
X4128543Y-16017174D01*
X4128543Y-16017174D02*
X4138067Y-15979079D01*
X4138067Y-15979079D02*
X4147591Y-15960031D01*
X4147591Y-15960031D02*
X4157115Y-15950508D01*
X4157115Y-15950508D02*
X4176162Y-15940984D01*
X4366639Y-15940984D02*
X4385686Y-15940984D01*
X4385686Y-15940984D02*
X4404734Y-15950508D01*
X4404734Y-15950508D02*
X4414258Y-15960031D01*
X4414258Y-15960031D02*
X4423782Y-15979079D01*
X4423782Y-15979079D02*
X4433305Y-16017174D01*
X4433305Y-16017174D02*
X4433305Y-16064793D01*
X4433305Y-16064793D02*
X4423782Y-16102888D01*
X4423782Y-16102888D02*
X4414258Y-16121936D01*
X4414258Y-16121936D02*
X4404734Y-16131460D01*
X4404734Y-16131460D02*
X4385686Y-16140984D01*
X4385686Y-16140984D02*
X4366639Y-16140984D01*
X4366639Y-16140984D02*
X4347591Y-16131460D01*
X4347591Y-16131460D02*
X4338067Y-16121936D01*
X4338067Y-16121936D02*
X4328544Y-16102888D01*
X4328544Y-16102888D02*
X4319020Y-16064793D01*
X4319020Y-16064793D02*
X4319020Y-16017174D01*
X4319020Y-16017174D02*
X4328544Y-15979079D01*
X4328544Y-15979079D02*
X4338067Y-15960031D01*
X4338067Y-15960031D02*
X4347591Y-15950508D01*
X4347591Y-15950508D02*
X4366639Y-15940984D01*
X4519020Y-16140984D02*
X4519020Y-16007650D01*
X4519020Y-16026698D02*
X4528544Y-16017174D01*
X4528544Y-16017174D02*
X4547591Y-16007650D01*
X4547591Y-16007650D02*
X4576163Y-16007650D01*
X4576163Y-16007650D02*
X4595210Y-16017174D01*
X4595210Y-16017174D02*
X4604734Y-16036222D01*
X4604734Y-16036222D02*
X4604734Y-16140984D01*
X4604734Y-16036222D02*
X4614258Y-16017174D01*
X4614258Y-16017174D02*
X4633305Y-16007650D01*
X4633305Y-16007650D02*
X4661877Y-16007650D01*
X4661877Y-16007650D02*
X4680925Y-16017174D01*
X4680925Y-16017174D02*
X4690448Y-16036222D01*
X4690448Y-16036222D02*
X4690448Y-16140984D01*
X4785686Y-16140984D02*
X4785686Y-16007650D01*
X4785686Y-16026698D02*
X4795210Y-16017174D01*
X4795210Y-16017174D02*
X4814258Y-16007650D01*
X4814258Y-16007650D02*
X4842829Y-16007650D01*
X4842829Y-16007650D02*
X4861877Y-16017174D01*
X4861877Y-16017174D02*
X4871401Y-16036222D01*
X4871401Y-16036222D02*
X4871401Y-16140984D01*
X4871401Y-16036222D02*
X4880925Y-16017174D01*
X4880925Y-16017174D02*
X4899972Y-16007650D01*
X4899972Y-16007650D02*
X4928544Y-16007650D01*
X4928544Y-16007650D02*
X4947591Y-16017174D01*
X4947591Y-16017174D02*
X4957115Y-16036222D01*
X4957115Y-16036222D02*
X4957115Y-16140984D01*
X5347591Y-15931460D02*
X5176163Y-16188603D01*
X5604734Y-15940984D02*
X5623782Y-15940984D01*
X5623782Y-15940984D02*
X5642829Y-15950508D01*
X5642829Y-15950508D02*
X5652353Y-15960031D01*
X5652353Y-15960031D02*
X5661877Y-15979079D01*
X5661877Y-15979079D02*
X5671401Y-16017174D01*
X5671401Y-16017174D02*
X5671401Y-16064793D01*
X5671401Y-16064793D02*
X5661877Y-16102888D01*
X5661877Y-16102888D02*
X5652353Y-16121936D01*
X5652353Y-16121936D02*
X5642829Y-16131460D01*
X5642829Y-16131460D02*
X5623782Y-16140984D01*
X5623782Y-16140984D02*
X5604734Y-16140984D01*
X5604734Y-16140984D02*
X5585687Y-16131460D01*
X5585687Y-16131460D02*
X5576163Y-16121936D01*
X5576163Y-16121936D02*
X5566639Y-16102888D01*
X5566639Y-16102888D02*
X5557115Y-16064793D01*
X5557115Y-16064793D02*
X5557115Y-16017174D01*
X5557115Y-16017174D02*
X5566639Y-15979079D01*
X5566639Y-15979079D02*
X5576163Y-15960031D01*
X5576163Y-15960031D02*
X5585687Y-15950508D01*
X5585687Y-15950508D02*
X5604734Y-15940984D01*
X5757115Y-16121936D02*
X5766639Y-16131460D01*
X5766639Y-16131460D02*
X5757115Y-16140984D01*
X5757115Y-16140984D02*
X5747591Y-16131460D01*
X5747591Y-16131460D02*
X5757115Y-16121936D01*
X5757115Y-16121936D02*
X5757115Y-16140984D01*
X5890448Y-15940984D02*
X5909496Y-15940984D01*
X5909496Y-15940984D02*
X5928544Y-15950508D01*
X5928544Y-15950508D02*
X5938067Y-15960031D01*
X5938067Y-15960031D02*
X5947591Y-15979079D01*
X5947591Y-15979079D02*
X5957115Y-16017174D01*
X5957115Y-16017174D02*
X5957115Y-16064793D01*
X5957115Y-16064793D02*
X5947591Y-16102888D01*
X5947591Y-16102888D02*
X5938067Y-16121936D01*
X5938067Y-16121936D02*
X5928544Y-16131460D01*
X5928544Y-16131460D02*
X5909496Y-16140984D01*
X5909496Y-16140984D02*
X5890448Y-16140984D01*
X5890448Y-16140984D02*
X5871401Y-16131460D01*
X5871401Y-16131460D02*
X5861877Y-16121936D01*
X5861877Y-16121936D02*
X5852353Y-16102888D01*
X5852353Y-16102888D02*
X5842829Y-16064793D01*
X5842829Y-16064793D02*
X5842829Y-16017174D01*
X5842829Y-16017174D02*
X5852353Y-15979079D01*
X5852353Y-15979079D02*
X5861877Y-15960031D01*
X5861877Y-15960031D02*
X5871401Y-15950508D01*
X5871401Y-15950508D02*
X5890448Y-15940984D01*
X6023782Y-15940984D02*
X6147591Y-15940984D01*
X6147591Y-15940984D02*
X6080925Y-16017174D01*
X6080925Y-16017174D02*
X6109496Y-16017174D01*
X6109496Y-16017174D02*
X6128544Y-16026698D01*
X6128544Y-16026698D02*
X6138067Y-16036222D01*
X6138067Y-16036222D02*
X6147591Y-16055269D01*
X6147591Y-16055269D02*
X6147591Y-16102888D01*
X6147591Y-16102888D02*
X6138067Y-16121936D01*
X6138067Y-16121936D02*
X6128544Y-16131460D01*
X6128544Y-16131460D02*
X6109496Y-16140984D01*
X6109496Y-16140984D02*
X6052353Y-16140984D01*
X6052353Y-16140984D02*
X6033306Y-16131460D01*
X6033306Y-16131460D02*
X6023782Y-16121936D01*
X6242829Y-16140984D02*
X6280925Y-16140984D01*
X6280925Y-16140984D02*
X6299972Y-16131460D01*
X6299972Y-16131460D02*
X6309496Y-16121936D01*
X6309496Y-16121936D02*
X6328544Y-16093365D01*
X6328544Y-16093365D02*
X6338067Y-16055269D01*
X6338067Y-16055269D02*
X6338067Y-15979079D01*
X6338067Y-15979079D02*
X6328544Y-15960031D01*
X6328544Y-15960031D02*
X6319020Y-15950508D01*
X6319020Y-15950508D02*
X6299972Y-15940984D01*
X6299972Y-15940984D02*
X6261877Y-15940984D01*
X6261877Y-15940984D02*
X6242829Y-15950508D01*
X6242829Y-15950508D02*
X6233306Y-15960031D01*
X6233306Y-15960031D02*
X6223782Y-15979079D01*
X6223782Y-15979079D02*
X6223782Y-16026698D01*
X6223782Y-16026698D02*
X6233306Y-16045746D01*
X6233306Y-16045746D02*
X6242829Y-16055269D01*
X6242829Y-16055269D02*
X6261877Y-16064793D01*
X6261877Y-16064793D02*
X6299972Y-16064793D01*
X6299972Y-16064793D02*
X6319020Y-16055269D01*
X6319020Y-16055269D02*
X6328544Y-16045746D01*
X6328544Y-16045746D02*
X6338067Y-16026698D01*
X6509496Y-16007650D02*
X6509496Y-16140984D01*
X6461877Y-15931460D02*
X6414258Y-16074317D01*
X6414258Y-16074317D02*
X6538067Y-16074317D01*
X6604734Y-15940984D02*
X6604734Y-15979079D01*
X6680925Y-15940984D02*
X6680925Y-15979079D01*
X6976163Y-16217174D02*
X6966639Y-16207650D01*
X6966639Y-16207650D02*
X6947591Y-16179079D01*
X6947591Y-16179079D02*
X6938068Y-16160031D01*
X6938068Y-16160031D02*
X6928544Y-16131460D01*
X6928544Y-16131460D02*
X6919020Y-16083841D01*
X6919020Y-16083841D02*
X6919020Y-16045746D01*
X6919020Y-16045746D02*
X6928544Y-15998127D01*
X6928544Y-15998127D02*
X6938068Y-15969555D01*
X6938068Y-15969555D02*
X6947591Y-15950508D01*
X6947591Y-15950508D02*
X6966639Y-15921936D01*
X6966639Y-15921936D02*
X6976163Y-15912412D01*
X7147591Y-15940984D02*
X7052353Y-15940984D01*
X7052353Y-15940984D02*
X7042829Y-16036222D01*
X7042829Y-16036222D02*
X7052353Y-16026698D01*
X7052353Y-16026698D02*
X7071401Y-16017174D01*
X7071401Y-16017174D02*
X7119020Y-16017174D01*
X7119020Y-16017174D02*
X7138068Y-16026698D01*
X7138068Y-16026698D02*
X7147591Y-16036222D01*
X7147591Y-16036222D02*
X7157115Y-16055269D01*
X7157115Y-16055269D02*
X7157115Y-16102888D01*
X7157115Y-16102888D02*
X7147591Y-16121936D01*
X7147591Y-16121936D02*
X7138068Y-16131460D01*
X7138068Y-16131460D02*
X7119020Y-16140984D01*
X7119020Y-16140984D02*
X7071401Y-16140984D01*
X7071401Y-16140984D02*
X7052353Y-16131460D01*
X7052353Y-16131460D02*
X7042829Y-16121936D01*
X7347591Y-16140984D02*
X7233306Y-16140984D01*
X7290448Y-16140984D02*
X7290448Y-15940984D01*
X7290448Y-15940984D02*
X7271401Y-15969555D01*
X7271401Y-15969555D02*
X7252353Y-15988603D01*
X7252353Y-15988603D02*
X7233306Y-15998127D01*
X7585687Y-16140984D02*
X7585687Y-15940984D01*
X7671401Y-16140984D02*
X7671401Y-16036222D01*
X7671401Y-16036222D02*
X7661877Y-16017174D01*
X7661877Y-16017174D02*
X7642830Y-16007650D01*
X7642830Y-16007650D02*
X7614258Y-16007650D01*
X7614258Y-16007650D02*
X7595210Y-16017174D01*
X7595210Y-16017174D02*
X7585687Y-16026698D01*
X7795210Y-16140984D02*
X7776163Y-16131460D01*
X7776163Y-16131460D02*
X7766639Y-16121936D01*
X7766639Y-16121936D02*
X7757115Y-16102888D01*
X7757115Y-16102888D02*
X7757115Y-16045746D01*
X7757115Y-16045746D02*
X7766639Y-16026698D01*
X7766639Y-16026698D02*
X7776163Y-16017174D01*
X7776163Y-16017174D02*
X7795210Y-16007650D01*
X7795210Y-16007650D02*
X7823782Y-16007650D01*
X7823782Y-16007650D02*
X7842830Y-16017174D01*
X7842830Y-16017174D02*
X7852353Y-16026698D01*
X7852353Y-16026698D02*
X7861877Y-16045746D01*
X7861877Y-16045746D02*
X7861877Y-16102888D01*
X7861877Y-16102888D02*
X7852353Y-16121936D01*
X7852353Y-16121936D02*
X7842830Y-16131460D01*
X7842830Y-16131460D02*
X7823782Y-16140984D01*
X7823782Y-16140984D02*
X7795210Y-16140984D01*
X7976163Y-16140984D02*
X7957115Y-16131460D01*
X7957115Y-16131460D02*
X7947591Y-16112412D01*
X7947591Y-16112412D02*
X7947591Y-15940984D01*
X8128544Y-16131460D02*
X8109496Y-16140984D01*
X8109496Y-16140984D02*
X8071401Y-16140984D01*
X8071401Y-16140984D02*
X8052353Y-16131460D01*
X8052353Y-16131460D02*
X8042830Y-16112412D01*
X8042830Y-16112412D02*
X8042830Y-16036222D01*
X8042830Y-16036222D02*
X8052353Y-16017174D01*
X8052353Y-16017174D02*
X8071401Y-16007650D01*
X8071401Y-16007650D02*
X8109496Y-16007650D01*
X8109496Y-16007650D02*
X8128544Y-16017174D01*
X8128544Y-16017174D02*
X8138068Y-16036222D01*
X8138068Y-16036222D02*
X8138068Y-16055269D01*
X8138068Y-16055269D02*
X8042830Y-16074317D01*
X8214258Y-16131460D02*
X8233306Y-16140984D01*
X8233306Y-16140984D02*
X8271401Y-16140984D01*
X8271401Y-16140984D02*
X8290449Y-16131460D01*
X8290449Y-16131460D02*
X8299972Y-16112412D01*
X8299972Y-16112412D02*
X8299972Y-16102888D01*
X8299972Y-16102888D02*
X8290449Y-16083841D01*
X8290449Y-16083841D02*
X8271401Y-16074317D01*
X8271401Y-16074317D02*
X8242830Y-16074317D01*
X8242830Y-16074317D02*
X8223782Y-16064793D01*
X8223782Y-16064793D02*
X8214258Y-16045746D01*
X8214258Y-16045746D02*
X8214258Y-16036222D01*
X8214258Y-16036222D02*
X8223782Y-16017174D01*
X8223782Y-16017174D02*
X8242830Y-16007650D01*
X8242830Y-16007650D02*
X8271401Y-16007650D01*
X8271401Y-16007650D02*
X8290449Y-16017174D01*
X8366639Y-16217174D02*
X8376163Y-16207650D01*
X8376163Y-16207650D02*
X8395211Y-16179079D01*
X8395211Y-16179079D02*
X8404734Y-16160031D01*
X8404734Y-16160031D02*
X8414258Y-16131460D01*
X8414258Y-16131460D02*
X8423782Y-16083841D01*
X8423782Y-16083841D02*
X8423782Y-16045746D01*
X8423782Y-16045746D02*
X8414258Y-15998127D01*
X8414258Y-15998127D02*
X8404734Y-15969555D01*
X8404734Y-15969555D02*
X8395211Y-15950508D01*
X8395211Y-15950508D02*
X8376163Y-15921936D01*
X8376163Y-15921936D02*
X8366639Y-15912412D01*
D13*
X3291100Y-16258500D02*
X3401100Y-16368500D01*
X3401100Y-16258500D02*
X3291100Y-16368500D01*
X3401100Y-16313500D02*
G75*
G02*
X3291100Y-16313500I-55000J0D01*
G01*
X3291100Y-16313500D02*
G75*
G02*
X3401100Y-16313500I55000J0D01*
G01*
D11*
X3766639Y-16404984D02*
X3652353Y-16404984D01*
X3709496Y-16404984D02*
X3709496Y-16204984D01*
X3709496Y-16204984D02*
X3690448Y-16233555D01*
X3690448Y-16233555D02*
X3671401Y-16252603D01*
X3671401Y-16252603D02*
X3652353Y-16262127D01*
X3852353Y-16385936D02*
X3861877Y-16395460D01*
X3861877Y-16395460D02*
X3852353Y-16404984D01*
X3852353Y-16404984D02*
X3842829Y-16395460D01*
X3842829Y-16395460D02*
X3852353Y-16385936D01*
X3852353Y-16385936D02*
X3852353Y-16404984D01*
X4052353Y-16404984D02*
X3938067Y-16404984D01*
X3995210Y-16404984D02*
X3995210Y-16204984D01*
X3995210Y-16204984D02*
X3976162Y-16233555D01*
X3976162Y-16233555D02*
X3957115Y-16252603D01*
X3957115Y-16252603D02*
X3938067Y-16262127D01*
X4176162Y-16204984D02*
X4195210Y-16204984D01*
X4195210Y-16204984D02*
X4214258Y-16214508D01*
X4214258Y-16214508D02*
X4223782Y-16224031D01*
X4223782Y-16224031D02*
X4233305Y-16243079D01*
X4233305Y-16243079D02*
X4242829Y-16281174D01*
X4242829Y-16281174D02*
X4242829Y-16328793D01*
X4242829Y-16328793D02*
X4233305Y-16366888D01*
X4233305Y-16366888D02*
X4223782Y-16385936D01*
X4223782Y-16385936D02*
X4214258Y-16395460D01*
X4214258Y-16395460D02*
X4195210Y-16404984D01*
X4195210Y-16404984D02*
X4176162Y-16404984D01*
X4176162Y-16404984D02*
X4157115Y-16395460D01*
X4157115Y-16395460D02*
X4147591Y-16385936D01*
X4147591Y-16385936D02*
X4138067Y-16366888D01*
X4138067Y-16366888D02*
X4128543Y-16328793D01*
X4128543Y-16328793D02*
X4128543Y-16281174D01*
X4128543Y-16281174D02*
X4138067Y-16243079D01*
X4138067Y-16243079D02*
X4147591Y-16224031D01*
X4147591Y-16224031D02*
X4157115Y-16214508D01*
X4157115Y-16214508D02*
X4176162Y-16204984D01*
X4366639Y-16204984D02*
X4385686Y-16204984D01*
X4385686Y-16204984D02*
X4404734Y-16214508D01*
X4404734Y-16214508D02*
X4414258Y-16224031D01*
X4414258Y-16224031D02*
X4423782Y-16243079D01*
X4423782Y-16243079D02*
X4433305Y-16281174D01*
X4433305Y-16281174D02*
X4433305Y-16328793D01*
X4433305Y-16328793D02*
X4423782Y-16366888D01*
X4423782Y-16366888D02*
X4414258Y-16385936D01*
X4414258Y-16385936D02*
X4404734Y-16395460D01*
X4404734Y-16395460D02*
X4385686Y-16404984D01*
X4385686Y-16404984D02*
X4366639Y-16404984D01*
X4366639Y-16404984D02*
X4347591Y-16395460D01*
X4347591Y-16395460D02*
X4338067Y-16385936D01*
X4338067Y-16385936D02*
X4328544Y-16366888D01*
X4328544Y-16366888D02*
X4319020Y-16328793D01*
X4319020Y-16328793D02*
X4319020Y-16281174D01*
X4319020Y-16281174D02*
X4328544Y-16243079D01*
X4328544Y-16243079D02*
X4338067Y-16224031D01*
X4338067Y-16224031D02*
X4347591Y-16214508D01*
X4347591Y-16214508D02*
X4366639Y-16204984D01*
X4519020Y-16404984D02*
X4519020Y-16271650D01*
X4519020Y-16290698D02*
X4528544Y-16281174D01*
X4528544Y-16281174D02*
X4547591Y-16271650D01*
X4547591Y-16271650D02*
X4576163Y-16271650D01*
X4576163Y-16271650D02*
X4595210Y-16281174D01*
X4595210Y-16281174D02*
X4604734Y-16300222D01*
X4604734Y-16300222D02*
X4604734Y-16404984D01*
X4604734Y-16300222D02*
X4614258Y-16281174D01*
X4614258Y-16281174D02*
X4633305Y-16271650D01*
X4633305Y-16271650D02*
X4661877Y-16271650D01*
X4661877Y-16271650D02*
X4680925Y-16281174D01*
X4680925Y-16281174D02*
X4690448Y-16300222D01*
X4690448Y-16300222D02*
X4690448Y-16404984D01*
X4785686Y-16404984D02*
X4785686Y-16271650D01*
X4785686Y-16290698D02*
X4795210Y-16281174D01*
X4795210Y-16281174D02*
X4814258Y-16271650D01*
X4814258Y-16271650D02*
X4842829Y-16271650D01*
X4842829Y-16271650D02*
X4861877Y-16281174D01*
X4861877Y-16281174D02*
X4871401Y-16300222D01*
X4871401Y-16300222D02*
X4871401Y-16404984D01*
X4871401Y-16300222D02*
X4880925Y-16281174D01*
X4880925Y-16281174D02*
X4899972Y-16271650D01*
X4899972Y-16271650D02*
X4928544Y-16271650D01*
X4928544Y-16271650D02*
X4947591Y-16281174D01*
X4947591Y-16281174D02*
X4957115Y-16300222D01*
X4957115Y-16300222D02*
X4957115Y-16404984D01*
X5347591Y-16195460D02*
X5176163Y-16452603D01*
X5604734Y-16204984D02*
X5623782Y-16204984D01*
X5623782Y-16204984D02*
X5642829Y-16214508D01*
X5642829Y-16214508D02*
X5652353Y-16224031D01*
X5652353Y-16224031D02*
X5661877Y-16243079D01*
X5661877Y-16243079D02*
X5671401Y-16281174D01*
X5671401Y-16281174D02*
X5671401Y-16328793D01*
X5671401Y-16328793D02*
X5661877Y-16366888D01*
X5661877Y-16366888D02*
X5652353Y-16385936D01*
X5652353Y-16385936D02*
X5642829Y-16395460D01*
X5642829Y-16395460D02*
X5623782Y-16404984D01*
X5623782Y-16404984D02*
X5604734Y-16404984D01*
X5604734Y-16404984D02*
X5585687Y-16395460D01*
X5585687Y-16395460D02*
X5576163Y-16385936D01*
X5576163Y-16385936D02*
X5566639Y-16366888D01*
X5566639Y-16366888D02*
X5557115Y-16328793D01*
X5557115Y-16328793D02*
X5557115Y-16281174D01*
X5557115Y-16281174D02*
X5566639Y-16243079D01*
X5566639Y-16243079D02*
X5576163Y-16224031D01*
X5576163Y-16224031D02*
X5585687Y-16214508D01*
X5585687Y-16214508D02*
X5604734Y-16204984D01*
X5757115Y-16385936D02*
X5766639Y-16395460D01*
X5766639Y-16395460D02*
X5757115Y-16404984D01*
X5757115Y-16404984D02*
X5747591Y-16395460D01*
X5747591Y-16395460D02*
X5757115Y-16385936D01*
X5757115Y-16385936D02*
X5757115Y-16404984D01*
X5890448Y-16204984D02*
X5909496Y-16204984D01*
X5909496Y-16204984D02*
X5928544Y-16214508D01*
X5928544Y-16214508D02*
X5938067Y-16224031D01*
X5938067Y-16224031D02*
X5947591Y-16243079D01*
X5947591Y-16243079D02*
X5957115Y-16281174D01*
X5957115Y-16281174D02*
X5957115Y-16328793D01*
X5957115Y-16328793D02*
X5947591Y-16366888D01*
X5947591Y-16366888D02*
X5938067Y-16385936D01*
X5938067Y-16385936D02*
X5928544Y-16395460D01*
X5928544Y-16395460D02*
X5909496Y-16404984D01*
X5909496Y-16404984D02*
X5890448Y-16404984D01*
X5890448Y-16404984D02*
X5871401Y-16395460D01*
X5871401Y-16395460D02*
X5861877Y-16385936D01*
X5861877Y-16385936D02*
X5852353Y-16366888D01*
X5852353Y-16366888D02*
X5842829Y-16328793D01*
X5842829Y-16328793D02*
X5842829Y-16281174D01*
X5842829Y-16281174D02*
X5852353Y-16243079D01*
X5852353Y-16243079D02*
X5861877Y-16224031D01*
X5861877Y-16224031D02*
X5871401Y-16214508D01*
X5871401Y-16214508D02*
X5890448Y-16204984D01*
X6128544Y-16271650D02*
X6128544Y-16404984D01*
X6080925Y-16195460D02*
X6033306Y-16338317D01*
X6033306Y-16338317D02*
X6157115Y-16338317D01*
X6214258Y-16204984D02*
X6338067Y-16204984D01*
X6338067Y-16204984D02*
X6271401Y-16281174D01*
X6271401Y-16281174D02*
X6299972Y-16281174D01*
X6299972Y-16281174D02*
X6319020Y-16290698D01*
X6319020Y-16290698D02*
X6328544Y-16300222D01*
X6328544Y-16300222D02*
X6338067Y-16319269D01*
X6338067Y-16319269D02*
X6338067Y-16366888D01*
X6338067Y-16366888D02*
X6328544Y-16385936D01*
X6328544Y-16385936D02*
X6319020Y-16395460D01*
X6319020Y-16395460D02*
X6299972Y-16404984D01*
X6299972Y-16404984D02*
X6242829Y-16404984D01*
X6242829Y-16404984D02*
X6223782Y-16395460D01*
X6223782Y-16395460D02*
X6214258Y-16385936D01*
X6404734Y-16204984D02*
X6528544Y-16204984D01*
X6528544Y-16204984D02*
X6461877Y-16281174D01*
X6461877Y-16281174D02*
X6490448Y-16281174D01*
X6490448Y-16281174D02*
X6509496Y-16290698D01*
X6509496Y-16290698D02*
X6519020Y-16300222D01*
X6519020Y-16300222D02*
X6528544Y-16319269D01*
X6528544Y-16319269D02*
X6528544Y-16366888D01*
X6528544Y-16366888D02*
X6519020Y-16385936D01*
X6519020Y-16385936D02*
X6509496Y-16395460D01*
X6509496Y-16395460D02*
X6490448Y-16404984D01*
X6490448Y-16404984D02*
X6433306Y-16404984D01*
X6433306Y-16404984D02*
X6414258Y-16395460D01*
X6414258Y-16395460D02*
X6404734Y-16385936D01*
X6604734Y-16204984D02*
X6604734Y-16243079D01*
X6680925Y-16204984D02*
X6680925Y-16243079D01*
X6976163Y-16481174D02*
X6966639Y-16471650D01*
X6966639Y-16471650D02*
X6947591Y-16443079D01*
X6947591Y-16443079D02*
X6938068Y-16424031D01*
X6938068Y-16424031D02*
X6928544Y-16395460D01*
X6928544Y-16395460D02*
X6919020Y-16347841D01*
X6919020Y-16347841D02*
X6919020Y-16309746D01*
X6919020Y-16309746D02*
X6928544Y-16262127D01*
X6928544Y-16262127D02*
X6938068Y-16233555D01*
X6938068Y-16233555D02*
X6947591Y-16214508D01*
X6947591Y-16214508D02*
X6966639Y-16185936D01*
X6966639Y-16185936D02*
X6976163Y-16176412D01*
X7147591Y-16204984D02*
X7052353Y-16204984D01*
X7052353Y-16204984D02*
X7042829Y-16300222D01*
X7042829Y-16300222D02*
X7052353Y-16290698D01*
X7052353Y-16290698D02*
X7071401Y-16281174D01*
X7071401Y-16281174D02*
X7119020Y-16281174D01*
X7119020Y-16281174D02*
X7138068Y-16290698D01*
X7138068Y-16290698D02*
X7147591Y-16300222D01*
X7147591Y-16300222D02*
X7157115Y-16319269D01*
X7157115Y-16319269D02*
X7157115Y-16366888D01*
X7157115Y-16366888D02*
X7147591Y-16385936D01*
X7147591Y-16385936D02*
X7138068Y-16395460D01*
X7138068Y-16395460D02*
X7119020Y-16404984D01*
X7119020Y-16404984D02*
X7071401Y-16404984D01*
X7071401Y-16404984D02*
X7052353Y-16395460D01*
X7052353Y-16395460D02*
X7042829Y-16385936D01*
X7395210Y-16404984D02*
X7395210Y-16204984D01*
X7480925Y-16404984D02*
X7480925Y-16300222D01*
X7480925Y-16300222D02*
X7471401Y-16281174D01*
X7471401Y-16281174D02*
X7452353Y-16271650D01*
X7452353Y-16271650D02*
X7423782Y-16271650D01*
X7423782Y-16271650D02*
X7404734Y-16281174D01*
X7404734Y-16281174D02*
X7395210Y-16290698D01*
X7604734Y-16404984D02*
X7585687Y-16395460D01*
X7585687Y-16395460D02*
X7576163Y-16385936D01*
X7576163Y-16385936D02*
X7566639Y-16366888D01*
X7566639Y-16366888D02*
X7566639Y-16309746D01*
X7566639Y-16309746D02*
X7576163Y-16290698D01*
X7576163Y-16290698D02*
X7585687Y-16281174D01*
X7585687Y-16281174D02*
X7604734Y-16271650D01*
X7604734Y-16271650D02*
X7633306Y-16271650D01*
X7633306Y-16271650D02*
X7652353Y-16281174D01*
X7652353Y-16281174D02*
X7661877Y-16290698D01*
X7661877Y-16290698D02*
X7671401Y-16309746D01*
X7671401Y-16309746D02*
X7671401Y-16366888D01*
X7671401Y-16366888D02*
X7661877Y-16385936D01*
X7661877Y-16385936D02*
X7652353Y-16395460D01*
X7652353Y-16395460D02*
X7633306Y-16404984D01*
X7633306Y-16404984D02*
X7604734Y-16404984D01*
X7785687Y-16404984D02*
X7766639Y-16395460D01*
X7766639Y-16395460D02*
X7757115Y-16376412D01*
X7757115Y-16376412D02*
X7757115Y-16204984D01*
X7938068Y-16395460D02*
X7919020Y-16404984D01*
X7919020Y-16404984D02*
X7880925Y-16404984D01*
X7880925Y-16404984D02*
X7861877Y-16395460D01*
X7861877Y-16395460D02*
X7852353Y-16376412D01*
X7852353Y-16376412D02*
X7852353Y-16300222D01*
X7852353Y-16300222D02*
X7861877Y-16281174D01*
X7861877Y-16281174D02*
X7880925Y-16271650D01*
X7880925Y-16271650D02*
X7919020Y-16271650D01*
X7919020Y-16271650D02*
X7938068Y-16281174D01*
X7938068Y-16281174D02*
X7947591Y-16300222D01*
X7947591Y-16300222D02*
X7947591Y-16319269D01*
X7947591Y-16319269D02*
X7852353Y-16338317D01*
X8023782Y-16395460D02*
X8042830Y-16404984D01*
X8042830Y-16404984D02*
X8080925Y-16404984D01*
X8080925Y-16404984D02*
X8099972Y-16395460D01*
X8099972Y-16395460D02*
X8109496Y-16376412D01*
X8109496Y-16376412D02*
X8109496Y-16366888D01*
X8109496Y-16366888D02*
X8099972Y-16347841D01*
X8099972Y-16347841D02*
X8080925Y-16338317D01*
X8080925Y-16338317D02*
X8052353Y-16338317D01*
X8052353Y-16338317D02*
X8033306Y-16328793D01*
X8033306Y-16328793D02*
X8023782Y-16309746D01*
X8023782Y-16309746D02*
X8023782Y-16300222D01*
X8023782Y-16300222D02*
X8033306Y-16281174D01*
X8033306Y-16281174D02*
X8052353Y-16271650D01*
X8052353Y-16271650D02*
X8080925Y-16271650D01*
X8080925Y-16271650D02*
X8099972Y-16281174D01*
X8176163Y-16481174D02*
X8185687Y-16471650D01*
X8185687Y-16471650D02*
X8204734Y-16443079D01*
X8204734Y-16443079D02*
X8214258Y-16424031D01*
X8214258Y-16424031D02*
X8223782Y-16395460D01*
X8223782Y-16395460D02*
X8233306Y-16347841D01*
X8233306Y-16347841D02*
X8233306Y-16309746D01*
X8233306Y-16309746D02*
X8223782Y-16262127D01*
X8223782Y-16262127D02*
X8214258Y-16233555D01*
X8214258Y-16233555D02*
X8204734Y-16214508D01*
X8204734Y-16214508D02*
X8185687Y-16185936D01*
X8185687Y-16185936D02*
X8176163Y-16176412D01*
D14*
X3286800Y-16520350D02*
X3401100Y-16634650D01*
X3401100Y-16520350D02*
X3286800Y-16634650D01*
X3343950Y-16520350D02*
X3343950Y-16634650D01*
X3286800Y-16577500D02*
X3401100Y-16577500D01*
D11*
X3766639Y-16668984D02*
X3652353Y-16668984D01*
X3709496Y-16668984D02*
X3709496Y-16468984D01*
X3709496Y-16468984D02*
X3690448Y-16497555D01*
X3690448Y-16497555D02*
X3671401Y-16516603D01*
X3671401Y-16516603D02*
X3652353Y-16526127D01*
X3852353Y-16649936D02*
X3861877Y-16659460D01*
X3861877Y-16659460D02*
X3852353Y-16668984D01*
X3852353Y-16668984D02*
X3842829Y-16659460D01*
X3842829Y-16659460D02*
X3852353Y-16649936D01*
X3852353Y-16649936D02*
X3852353Y-16668984D01*
X4052353Y-16668984D02*
X3938067Y-16668984D01*
X3995210Y-16668984D02*
X3995210Y-16468984D01*
X3995210Y-16468984D02*
X3976162Y-16497555D01*
X3976162Y-16497555D02*
X3957115Y-16516603D01*
X3957115Y-16516603D02*
X3938067Y-16526127D01*
X4223782Y-16535650D02*
X4223782Y-16668984D01*
X4176162Y-16459460D02*
X4128543Y-16602317D01*
X4128543Y-16602317D02*
X4252353Y-16602317D01*
X4309496Y-16468984D02*
X4433305Y-16468984D01*
X4433305Y-16468984D02*
X4366639Y-16545174D01*
X4366639Y-16545174D02*
X4395210Y-16545174D01*
X4395210Y-16545174D02*
X4414258Y-16554698D01*
X4414258Y-16554698D02*
X4423782Y-16564222D01*
X4423782Y-16564222D02*
X4433305Y-16583269D01*
X4433305Y-16583269D02*
X4433305Y-16630888D01*
X4433305Y-16630888D02*
X4423782Y-16649936D01*
X4423782Y-16649936D02*
X4414258Y-16659460D01*
X4414258Y-16659460D02*
X4395210Y-16668984D01*
X4395210Y-16668984D02*
X4338067Y-16668984D01*
X4338067Y-16668984D02*
X4319020Y-16659460D01*
X4319020Y-16659460D02*
X4309496Y-16649936D01*
X4519020Y-16668984D02*
X4519020Y-16535650D01*
X4519020Y-16554698D02*
X4528544Y-16545174D01*
X4528544Y-16545174D02*
X4547591Y-16535650D01*
X4547591Y-16535650D02*
X4576163Y-16535650D01*
X4576163Y-16535650D02*
X4595210Y-16545174D01*
X4595210Y-16545174D02*
X4604734Y-16564222D01*
X4604734Y-16564222D02*
X4604734Y-16668984D01*
X4604734Y-16564222D02*
X4614258Y-16545174D01*
X4614258Y-16545174D02*
X4633305Y-16535650D01*
X4633305Y-16535650D02*
X4661877Y-16535650D01*
X4661877Y-16535650D02*
X4680925Y-16545174D01*
X4680925Y-16545174D02*
X4690448Y-16564222D01*
X4690448Y-16564222D02*
X4690448Y-16668984D01*
X4785686Y-16668984D02*
X4785686Y-16535650D01*
X4785686Y-16554698D02*
X4795210Y-16545174D01*
X4795210Y-16545174D02*
X4814258Y-16535650D01*
X4814258Y-16535650D02*
X4842829Y-16535650D01*
X4842829Y-16535650D02*
X4861877Y-16545174D01*
X4861877Y-16545174D02*
X4871401Y-16564222D01*
X4871401Y-16564222D02*
X4871401Y-16668984D01*
X4871401Y-16564222D02*
X4880925Y-16545174D01*
X4880925Y-16545174D02*
X4899972Y-16535650D01*
X4899972Y-16535650D02*
X4928544Y-16535650D01*
X4928544Y-16535650D02*
X4947591Y-16545174D01*
X4947591Y-16545174D02*
X4957115Y-16564222D01*
X4957115Y-16564222D02*
X4957115Y-16668984D01*
X5347591Y-16459460D02*
X5176163Y-16716603D01*
X5604734Y-16468984D02*
X5623782Y-16468984D01*
X5623782Y-16468984D02*
X5642829Y-16478508D01*
X5642829Y-16478508D02*
X5652353Y-16488031D01*
X5652353Y-16488031D02*
X5661877Y-16507079D01*
X5661877Y-16507079D02*
X5671401Y-16545174D01*
X5671401Y-16545174D02*
X5671401Y-16592793D01*
X5671401Y-16592793D02*
X5661877Y-16630888D01*
X5661877Y-16630888D02*
X5652353Y-16649936D01*
X5652353Y-16649936D02*
X5642829Y-16659460D01*
X5642829Y-16659460D02*
X5623782Y-16668984D01*
X5623782Y-16668984D02*
X5604734Y-16668984D01*
X5604734Y-16668984D02*
X5585687Y-16659460D01*
X5585687Y-16659460D02*
X5576163Y-16649936D01*
X5576163Y-16649936D02*
X5566639Y-16630888D01*
X5566639Y-16630888D02*
X5557115Y-16592793D01*
X5557115Y-16592793D02*
X5557115Y-16545174D01*
X5557115Y-16545174D02*
X5566639Y-16507079D01*
X5566639Y-16507079D02*
X5576163Y-16488031D01*
X5576163Y-16488031D02*
X5585687Y-16478508D01*
X5585687Y-16478508D02*
X5604734Y-16468984D01*
X5757115Y-16649936D02*
X5766639Y-16659460D01*
X5766639Y-16659460D02*
X5757115Y-16668984D01*
X5757115Y-16668984D02*
X5747591Y-16659460D01*
X5747591Y-16659460D02*
X5757115Y-16649936D01*
X5757115Y-16649936D02*
X5757115Y-16668984D01*
X5890448Y-16468984D02*
X5909496Y-16468984D01*
X5909496Y-16468984D02*
X5928544Y-16478508D01*
X5928544Y-16478508D02*
X5938067Y-16488031D01*
X5938067Y-16488031D02*
X5947591Y-16507079D01*
X5947591Y-16507079D02*
X5957115Y-16545174D01*
X5957115Y-16545174D02*
X5957115Y-16592793D01*
X5957115Y-16592793D02*
X5947591Y-16630888D01*
X5947591Y-16630888D02*
X5938067Y-16649936D01*
X5938067Y-16649936D02*
X5928544Y-16659460D01*
X5928544Y-16659460D02*
X5909496Y-16668984D01*
X5909496Y-16668984D02*
X5890448Y-16668984D01*
X5890448Y-16668984D02*
X5871401Y-16659460D01*
X5871401Y-16659460D02*
X5861877Y-16649936D01*
X5861877Y-16649936D02*
X5852353Y-16630888D01*
X5852353Y-16630888D02*
X5842829Y-16592793D01*
X5842829Y-16592793D02*
X5842829Y-16545174D01*
X5842829Y-16545174D02*
X5852353Y-16507079D01*
X5852353Y-16507079D02*
X5861877Y-16488031D01*
X5861877Y-16488031D02*
X5871401Y-16478508D01*
X5871401Y-16478508D02*
X5890448Y-16468984D01*
X6128544Y-16535650D02*
X6128544Y-16668984D01*
X6080925Y-16459460D02*
X6033306Y-16602317D01*
X6033306Y-16602317D02*
X6157115Y-16602317D01*
X6328544Y-16468984D02*
X6233306Y-16468984D01*
X6233306Y-16468984D02*
X6223782Y-16564222D01*
X6223782Y-16564222D02*
X6233306Y-16554698D01*
X6233306Y-16554698D02*
X6252353Y-16545174D01*
X6252353Y-16545174D02*
X6299972Y-16545174D01*
X6299972Y-16545174D02*
X6319020Y-16554698D01*
X6319020Y-16554698D02*
X6328544Y-16564222D01*
X6328544Y-16564222D02*
X6338067Y-16583269D01*
X6338067Y-16583269D02*
X6338067Y-16630888D01*
X6338067Y-16630888D02*
X6328544Y-16649936D01*
X6328544Y-16649936D02*
X6319020Y-16659460D01*
X6319020Y-16659460D02*
X6299972Y-16668984D01*
X6299972Y-16668984D02*
X6252353Y-16668984D01*
X6252353Y-16668984D02*
X6233306Y-16659460D01*
X6233306Y-16659460D02*
X6223782Y-16649936D01*
X6461877Y-16468984D02*
X6480925Y-16468984D01*
X6480925Y-16468984D02*
X6499972Y-16478508D01*
X6499972Y-16478508D02*
X6509496Y-16488031D01*
X6509496Y-16488031D02*
X6519020Y-16507079D01*
X6519020Y-16507079D02*
X6528544Y-16545174D01*
X6528544Y-16545174D02*
X6528544Y-16592793D01*
X6528544Y-16592793D02*
X6519020Y-16630888D01*
X6519020Y-16630888D02*
X6509496Y-16649936D01*
X6509496Y-16649936D02*
X6499972Y-16659460D01*
X6499972Y-16659460D02*
X6480925Y-16668984D01*
X6480925Y-16668984D02*
X6461877Y-16668984D01*
X6461877Y-16668984D02*
X6442829Y-16659460D01*
X6442829Y-16659460D02*
X6433306Y-16649936D01*
X6433306Y-16649936D02*
X6423782Y-16630888D01*
X6423782Y-16630888D02*
X6414258Y-16592793D01*
X6414258Y-16592793D02*
X6414258Y-16545174D01*
X6414258Y-16545174D02*
X6423782Y-16507079D01*
X6423782Y-16507079D02*
X6433306Y-16488031D01*
X6433306Y-16488031D02*
X6442829Y-16478508D01*
X6442829Y-16478508D02*
X6461877Y-16468984D01*
X6604734Y-16468984D02*
X6604734Y-16507079D01*
X6680925Y-16468984D02*
X6680925Y-16507079D01*
X6976163Y-16745174D02*
X6966639Y-16735650D01*
X6966639Y-16735650D02*
X6947591Y-16707079D01*
X6947591Y-16707079D02*
X6938068Y-16688031D01*
X6938068Y-16688031D02*
X6928544Y-16659460D01*
X6928544Y-16659460D02*
X6919020Y-16611841D01*
X6919020Y-16611841D02*
X6919020Y-16573746D01*
X6919020Y-16573746D02*
X6928544Y-16526127D01*
X6928544Y-16526127D02*
X6938068Y-16497555D01*
X6938068Y-16497555D02*
X6947591Y-16478508D01*
X6947591Y-16478508D02*
X6966639Y-16449936D01*
X6966639Y-16449936D02*
X6976163Y-16440412D01*
X7042829Y-16488031D02*
X7052353Y-16478508D01*
X7052353Y-16478508D02*
X7071401Y-16468984D01*
X7071401Y-16468984D02*
X7119020Y-16468984D01*
X7119020Y-16468984D02*
X7138068Y-16478508D01*
X7138068Y-16478508D02*
X7147591Y-16488031D01*
X7147591Y-16488031D02*
X7157115Y-16507079D01*
X7157115Y-16507079D02*
X7157115Y-16526127D01*
X7157115Y-16526127D02*
X7147591Y-16554698D01*
X7147591Y-16554698D02*
X7033306Y-16668984D01*
X7033306Y-16668984D02*
X7157115Y-16668984D01*
X7395210Y-16668984D02*
X7395210Y-16468984D01*
X7480925Y-16668984D02*
X7480925Y-16564222D01*
X7480925Y-16564222D02*
X7471401Y-16545174D01*
X7471401Y-16545174D02*
X7452353Y-16535650D01*
X7452353Y-16535650D02*
X7423782Y-16535650D01*
X7423782Y-16535650D02*
X7404734Y-16545174D01*
X7404734Y-16545174D02*
X7395210Y-16554698D01*
X7604734Y-16668984D02*
X7585687Y-16659460D01*
X7585687Y-16659460D02*
X7576163Y-16649936D01*
X7576163Y-16649936D02*
X7566639Y-16630888D01*
X7566639Y-16630888D02*
X7566639Y-16573746D01*
X7566639Y-16573746D02*
X7576163Y-16554698D01*
X7576163Y-16554698D02*
X7585687Y-16545174D01*
X7585687Y-16545174D02*
X7604734Y-16535650D01*
X7604734Y-16535650D02*
X7633306Y-16535650D01*
X7633306Y-16535650D02*
X7652353Y-16545174D01*
X7652353Y-16545174D02*
X7661877Y-16554698D01*
X7661877Y-16554698D02*
X7671401Y-16573746D01*
X7671401Y-16573746D02*
X7671401Y-16630888D01*
X7671401Y-16630888D02*
X7661877Y-16649936D01*
X7661877Y-16649936D02*
X7652353Y-16659460D01*
X7652353Y-16659460D02*
X7633306Y-16668984D01*
X7633306Y-16668984D02*
X7604734Y-16668984D01*
X7785687Y-16668984D02*
X7766639Y-16659460D01*
X7766639Y-16659460D02*
X7757115Y-16640412D01*
X7757115Y-16640412D02*
X7757115Y-16468984D01*
X7938068Y-16659460D02*
X7919020Y-16668984D01*
X7919020Y-16668984D02*
X7880925Y-16668984D01*
X7880925Y-16668984D02*
X7861877Y-16659460D01*
X7861877Y-16659460D02*
X7852353Y-16640412D01*
X7852353Y-16640412D02*
X7852353Y-16564222D01*
X7852353Y-16564222D02*
X7861877Y-16545174D01*
X7861877Y-16545174D02*
X7880925Y-16535650D01*
X7880925Y-16535650D02*
X7919020Y-16535650D01*
X7919020Y-16535650D02*
X7938068Y-16545174D01*
X7938068Y-16545174D02*
X7947591Y-16564222D01*
X7947591Y-16564222D02*
X7947591Y-16583269D01*
X7947591Y-16583269D02*
X7852353Y-16602317D01*
X8023782Y-16659460D02*
X8042830Y-16668984D01*
X8042830Y-16668984D02*
X8080925Y-16668984D01*
X8080925Y-16668984D02*
X8099972Y-16659460D01*
X8099972Y-16659460D02*
X8109496Y-16640412D01*
X8109496Y-16640412D02*
X8109496Y-16630888D01*
X8109496Y-16630888D02*
X8099972Y-16611841D01*
X8099972Y-16611841D02*
X8080925Y-16602317D01*
X8080925Y-16602317D02*
X8052353Y-16602317D01*
X8052353Y-16602317D02*
X8033306Y-16592793D01*
X8033306Y-16592793D02*
X8023782Y-16573746D01*
X8023782Y-16573746D02*
X8023782Y-16564222D01*
X8023782Y-16564222D02*
X8033306Y-16545174D01*
X8033306Y-16545174D02*
X8052353Y-16535650D01*
X8052353Y-16535650D02*
X8080925Y-16535650D01*
X8080925Y-16535650D02*
X8099972Y-16545174D01*
X8176163Y-16745174D02*
X8185687Y-16735650D01*
X8185687Y-16735650D02*
X8204734Y-16707079D01*
X8204734Y-16707079D02*
X8214258Y-16688031D01*
X8214258Y-16688031D02*
X8223782Y-16659460D01*
X8223782Y-16659460D02*
X8233306Y-16611841D01*
X8233306Y-16611841D02*
X8233306Y-16573746D01*
X8233306Y-16573746D02*
X8223782Y-16526127D01*
X8223782Y-16526127D02*
X8214258Y-16497555D01*
X8214258Y-16497555D02*
X8204734Y-16478508D01*
X8204734Y-16478508D02*
X8185687Y-16449936D01*
X8185687Y-16449936D02*
X8176163Y-16440412D01*
D15*
X3261100Y-16771500D02*
X3401100Y-16911500D01*
X3401100Y-16771500D02*
X3261100Y-16911500D01*
X3380598Y-16890998D02*
X3380598Y-16792002D01*
X3281602Y-16792002D01*
X3281602Y-16890998D01*
X3380598Y-16890998D01*
D11*
X3766639Y-16932984D02*
X3652353Y-16932984D01*
X3709496Y-16932984D02*
X3709496Y-16732984D01*
X3709496Y-16732984D02*
X3690448Y-16761555D01*
X3690448Y-16761555D02*
X3671401Y-16780603D01*
X3671401Y-16780603D02*
X3652353Y-16790127D01*
X3852353Y-16913936D02*
X3861877Y-16923460D01*
X3861877Y-16923460D02*
X3852353Y-16932984D01*
X3852353Y-16932984D02*
X3842829Y-16923460D01*
X3842829Y-16923460D02*
X3852353Y-16913936D01*
X3852353Y-16913936D02*
X3852353Y-16932984D01*
X4033305Y-16799650D02*
X4033305Y-16932984D01*
X3985686Y-16723460D02*
X3938067Y-16866317D01*
X3938067Y-16866317D02*
X4061877Y-16866317D01*
X4176162Y-16732984D02*
X4195210Y-16732984D01*
X4195210Y-16732984D02*
X4214258Y-16742508D01*
X4214258Y-16742508D02*
X4223782Y-16752031D01*
X4223782Y-16752031D02*
X4233305Y-16771079D01*
X4233305Y-16771079D02*
X4242829Y-16809174D01*
X4242829Y-16809174D02*
X4242829Y-16856793D01*
X4242829Y-16856793D02*
X4233305Y-16894889D01*
X4233305Y-16894889D02*
X4223782Y-16913936D01*
X4223782Y-16913936D02*
X4214258Y-16923460D01*
X4214258Y-16923460D02*
X4195210Y-16932984D01*
X4195210Y-16932984D02*
X4176162Y-16932984D01*
X4176162Y-16932984D02*
X4157115Y-16923460D01*
X4157115Y-16923460D02*
X4147591Y-16913936D01*
X4147591Y-16913936D02*
X4138067Y-16894889D01*
X4138067Y-16894889D02*
X4128543Y-16856793D01*
X4128543Y-16856793D02*
X4128543Y-16809174D01*
X4128543Y-16809174D02*
X4138067Y-16771079D01*
X4138067Y-16771079D02*
X4147591Y-16752031D01*
X4147591Y-16752031D02*
X4157115Y-16742508D01*
X4157115Y-16742508D02*
X4176162Y-16732984D01*
X4366639Y-16732984D02*
X4385686Y-16732984D01*
X4385686Y-16732984D02*
X4404734Y-16742508D01*
X4404734Y-16742508D02*
X4414258Y-16752031D01*
X4414258Y-16752031D02*
X4423782Y-16771079D01*
X4423782Y-16771079D02*
X4433305Y-16809174D01*
X4433305Y-16809174D02*
X4433305Y-16856793D01*
X4433305Y-16856793D02*
X4423782Y-16894889D01*
X4423782Y-16894889D02*
X4414258Y-16913936D01*
X4414258Y-16913936D02*
X4404734Y-16923460D01*
X4404734Y-16923460D02*
X4385686Y-16932984D01*
X4385686Y-16932984D02*
X4366639Y-16932984D01*
X4366639Y-16932984D02*
X4347591Y-16923460D01*
X4347591Y-16923460D02*
X4338067Y-16913936D01*
X4338067Y-16913936D02*
X4328544Y-16894889D01*
X4328544Y-16894889D02*
X4319020Y-16856793D01*
X4319020Y-16856793D02*
X4319020Y-16809174D01*
X4319020Y-16809174D02*
X4328544Y-16771079D01*
X4328544Y-16771079D02*
X4338067Y-16752031D01*
X4338067Y-16752031D02*
X4347591Y-16742508D01*
X4347591Y-16742508D02*
X4366639Y-16732984D01*
X4519020Y-16932984D02*
X4519020Y-16799650D01*
X4519020Y-16818698D02*
X4528544Y-16809174D01*
X4528544Y-16809174D02*
X4547591Y-16799650D01*
X4547591Y-16799650D02*
X4576163Y-16799650D01*
X4576163Y-16799650D02*
X4595210Y-16809174D01*
X4595210Y-16809174D02*
X4604734Y-16828222D01*
X4604734Y-16828222D02*
X4604734Y-16932984D01*
X4604734Y-16828222D02*
X4614258Y-16809174D01*
X4614258Y-16809174D02*
X4633305Y-16799650D01*
X4633305Y-16799650D02*
X4661877Y-16799650D01*
X4661877Y-16799650D02*
X4680925Y-16809174D01*
X4680925Y-16809174D02*
X4690448Y-16828222D01*
X4690448Y-16828222D02*
X4690448Y-16932984D01*
X4785686Y-16932984D02*
X4785686Y-16799650D01*
X4785686Y-16818698D02*
X4795210Y-16809174D01*
X4795210Y-16809174D02*
X4814258Y-16799650D01*
X4814258Y-16799650D02*
X4842829Y-16799650D01*
X4842829Y-16799650D02*
X4861877Y-16809174D01*
X4861877Y-16809174D02*
X4871401Y-16828222D01*
X4871401Y-16828222D02*
X4871401Y-16932984D01*
X4871401Y-16828222D02*
X4880925Y-16809174D01*
X4880925Y-16809174D02*
X4899972Y-16799650D01*
X4899972Y-16799650D02*
X4928544Y-16799650D01*
X4928544Y-16799650D02*
X4947591Y-16809174D01*
X4947591Y-16809174D02*
X4957115Y-16828222D01*
X4957115Y-16828222D02*
X4957115Y-16932984D01*
X5347591Y-16723460D02*
X5176163Y-16980603D01*
X5604734Y-16732984D02*
X5623782Y-16732984D01*
X5623782Y-16732984D02*
X5642829Y-16742508D01*
X5642829Y-16742508D02*
X5652353Y-16752031D01*
X5652353Y-16752031D02*
X5661877Y-16771079D01*
X5661877Y-16771079D02*
X5671401Y-16809174D01*
X5671401Y-16809174D02*
X5671401Y-16856793D01*
X5671401Y-16856793D02*
X5661877Y-16894889D01*
X5661877Y-16894889D02*
X5652353Y-16913936D01*
X5652353Y-16913936D02*
X5642829Y-16923460D01*
X5642829Y-16923460D02*
X5623782Y-16932984D01*
X5623782Y-16932984D02*
X5604734Y-16932984D01*
X5604734Y-16932984D02*
X5585687Y-16923460D01*
X5585687Y-16923460D02*
X5576163Y-16913936D01*
X5576163Y-16913936D02*
X5566639Y-16894889D01*
X5566639Y-16894889D02*
X5557115Y-16856793D01*
X5557115Y-16856793D02*
X5557115Y-16809174D01*
X5557115Y-16809174D02*
X5566639Y-16771079D01*
X5566639Y-16771079D02*
X5576163Y-16752031D01*
X5576163Y-16752031D02*
X5585687Y-16742508D01*
X5585687Y-16742508D02*
X5604734Y-16732984D01*
X5757115Y-16913936D02*
X5766639Y-16923460D01*
X5766639Y-16923460D02*
X5757115Y-16932984D01*
X5757115Y-16932984D02*
X5747591Y-16923460D01*
X5747591Y-16923460D02*
X5757115Y-16913936D01*
X5757115Y-16913936D02*
X5757115Y-16932984D01*
X5890448Y-16732984D02*
X5909496Y-16732984D01*
X5909496Y-16732984D02*
X5928544Y-16742508D01*
X5928544Y-16742508D02*
X5938067Y-16752031D01*
X5938067Y-16752031D02*
X5947591Y-16771079D01*
X5947591Y-16771079D02*
X5957115Y-16809174D01*
X5957115Y-16809174D02*
X5957115Y-16856793D01*
X5957115Y-16856793D02*
X5947591Y-16894889D01*
X5947591Y-16894889D02*
X5938067Y-16913936D01*
X5938067Y-16913936D02*
X5928544Y-16923460D01*
X5928544Y-16923460D02*
X5909496Y-16932984D01*
X5909496Y-16932984D02*
X5890448Y-16932984D01*
X5890448Y-16932984D02*
X5871401Y-16923460D01*
X5871401Y-16923460D02*
X5861877Y-16913936D01*
X5861877Y-16913936D02*
X5852353Y-16894889D01*
X5852353Y-16894889D02*
X5842829Y-16856793D01*
X5842829Y-16856793D02*
X5842829Y-16809174D01*
X5842829Y-16809174D02*
X5852353Y-16771079D01*
X5852353Y-16771079D02*
X5861877Y-16752031D01*
X5861877Y-16752031D02*
X5871401Y-16742508D01*
X5871401Y-16742508D02*
X5890448Y-16732984D01*
X6138067Y-16732984D02*
X6042829Y-16732984D01*
X6042829Y-16732984D02*
X6033306Y-16828222D01*
X6033306Y-16828222D02*
X6042829Y-16818698D01*
X6042829Y-16818698D02*
X6061877Y-16809174D01*
X6061877Y-16809174D02*
X6109496Y-16809174D01*
X6109496Y-16809174D02*
X6128544Y-16818698D01*
X6128544Y-16818698D02*
X6138067Y-16828222D01*
X6138067Y-16828222D02*
X6147591Y-16847270D01*
X6147591Y-16847270D02*
X6147591Y-16894889D01*
X6147591Y-16894889D02*
X6138067Y-16913936D01*
X6138067Y-16913936D02*
X6128544Y-16923460D01*
X6128544Y-16923460D02*
X6109496Y-16932984D01*
X6109496Y-16932984D02*
X6061877Y-16932984D01*
X6061877Y-16932984D02*
X6042829Y-16923460D01*
X6042829Y-16923460D02*
X6033306Y-16913936D01*
X6328544Y-16732984D02*
X6233306Y-16732984D01*
X6233306Y-16732984D02*
X6223782Y-16828222D01*
X6223782Y-16828222D02*
X6233306Y-16818698D01*
X6233306Y-16818698D02*
X6252353Y-16809174D01*
X6252353Y-16809174D02*
X6299972Y-16809174D01*
X6299972Y-16809174D02*
X6319020Y-16818698D01*
X6319020Y-16818698D02*
X6328544Y-16828222D01*
X6328544Y-16828222D02*
X6338067Y-16847270D01*
X6338067Y-16847270D02*
X6338067Y-16894889D01*
X6338067Y-16894889D02*
X6328544Y-16913936D01*
X6328544Y-16913936D02*
X6319020Y-16923460D01*
X6319020Y-16923460D02*
X6299972Y-16932984D01*
X6299972Y-16932984D02*
X6252353Y-16932984D01*
X6252353Y-16932984D02*
X6233306Y-16923460D01*
X6233306Y-16923460D02*
X6223782Y-16913936D01*
X6528544Y-16932984D02*
X6414258Y-16932984D01*
X6471401Y-16932984D02*
X6471401Y-16732984D01*
X6471401Y-16732984D02*
X6452353Y-16761555D01*
X6452353Y-16761555D02*
X6433306Y-16780603D01*
X6433306Y-16780603D02*
X6414258Y-16790127D01*
X6604734Y-16732984D02*
X6604734Y-16771079D01*
X6680925Y-16732984D02*
X6680925Y-16771079D01*
X6976163Y-17009174D02*
X6966639Y-16999650D01*
X6966639Y-16999650D02*
X6947591Y-16971079D01*
X6947591Y-16971079D02*
X6938068Y-16952031D01*
X6938068Y-16952031D02*
X6928544Y-16923460D01*
X6928544Y-16923460D02*
X6919020Y-16875841D01*
X6919020Y-16875841D02*
X6919020Y-16837746D01*
X6919020Y-16837746D02*
X6928544Y-16790127D01*
X6928544Y-16790127D02*
X6938068Y-16761555D01*
X6938068Y-16761555D02*
X6947591Y-16742508D01*
X6947591Y-16742508D02*
X6966639Y-16713936D01*
X6966639Y-16713936D02*
X6976163Y-16704412D01*
X7042829Y-16752031D02*
X7052353Y-16742508D01*
X7052353Y-16742508D02*
X7071401Y-16732984D01*
X7071401Y-16732984D02*
X7119020Y-16732984D01*
X7119020Y-16732984D02*
X7138068Y-16742508D01*
X7138068Y-16742508D02*
X7147591Y-16752031D01*
X7147591Y-16752031D02*
X7157115Y-16771079D01*
X7157115Y-16771079D02*
X7157115Y-16790127D01*
X7157115Y-16790127D02*
X7147591Y-16818698D01*
X7147591Y-16818698D02*
X7033306Y-16932984D01*
X7033306Y-16932984D02*
X7157115Y-16932984D01*
X7328544Y-16799650D02*
X7328544Y-16932984D01*
X7280925Y-16723460D02*
X7233306Y-16866317D01*
X7233306Y-16866317D02*
X7357115Y-16866317D01*
X7585687Y-16932984D02*
X7585687Y-16732984D01*
X7671401Y-16932984D02*
X7671401Y-16828222D01*
X7671401Y-16828222D02*
X7661877Y-16809174D01*
X7661877Y-16809174D02*
X7642830Y-16799650D01*
X7642830Y-16799650D02*
X7614258Y-16799650D01*
X7614258Y-16799650D02*
X7595210Y-16809174D01*
X7595210Y-16809174D02*
X7585687Y-16818698D01*
X7795210Y-16932984D02*
X7776163Y-16923460D01*
X7776163Y-16923460D02*
X7766639Y-16913936D01*
X7766639Y-16913936D02*
X7757115Y-16894889D01*
X7757115Y-16894889D02*
X7757115Y-16837746D01*
X7757115Y-16837746D02*
X7766639Y-16818698D01*
X7766639Y-16818698D02*
X7776163Y-16809174D01*
X7776163Y-16809174D02*
X7795210Y-16799650D01*
X7795210Y-16799650D02*
X7823782Y-16799650D01*
X7823782Y-16799650D02*
X7842830Y-16809174D01*
X7842830Y-16809174D02*
X7852353Y-16818698D01*
X7852353Y-16818698D02*
X7861877Y-16837746D01*
X7861877Y-16837746D02*
X7861877Y-16894889D01*
X7861877Y-16894889D02*
X7852353Y-16913936D01*
X7852353Y-16913936D02*
X7842830Y-16923460D01*
X7842830Y-16923460D02*
X7823782Y-16932984D01*
X7823782Y-16932984D02*
X7795210Y-16932984D01*
X7976163Y-16932984D02*
X7957115Y-16923460D01*
X7957115Y-16923460D02*
X7947591Y-16904412D01*
X7947591Y-16904412D02*
X7947591Y-16732984D01*
X8128544Y-16923460D02*
X8109496Y-16932984D01*
X8109496Y-16932984D02*
X8071401Y-16932984D01*
X8071401Y-16932984D02*
X8052353Y-16923460D01*
X8052353Y-16923460D02*
X8042830Y-16904412D01*
X8042830Y-16904412D02*
X8042830Y-16828222D01*
X8042830Y-16828222D02*
X8052353Y-16809174D01*
X8052353Y-16809174D02*
X8071401Y-16799650D01*
X8071401Y-16799650D02*
X8109496Y-16799650D01*
X8109496Y-16799650D02*
X8128544Y-16809174D01*
X8128544Y-16809174D02*
X8138068Y-16828222D01*
X8138068Y-16828222D02*
X8138068Y-16847270D01*
X8138068Y-16847270D02*
X8042830Y-16866317D01*
X8214258Y-16923460D02*
X8233306Y-16932984D01*
X8233306Y-16932984D02*
X8271401Y-16932984D01*
X8271401Y-16932984D02*
X8290449Y-16923460D01*
X8290449Y-16923460D02*
X8299972Y-16904412D01*
X8299972Y-16904412D02*
X8299972Y-16894889D01*
X8299972Y-16894889D02*
X8290449Y-16875841D01*
X8290449Y-16875841D02*
X8271401Y-16866317D01*
X8271401Y-16866317D02*
X8242830Y-16866317D01*
X8242830Y-16866317D02*
X8223782Y-16856793D01*
X8223782Y-16856793D02*
X8214258Y-16837746D01*
X8214258Y-16837746D02*
X8214258Y-16828222D01*
X8214258Y-16828222D02*
X8223782Y-16809174D01*
X8223782Y-16809174D02*
X8242830Y-16799650D01*
X8242830Y-16799650D02*
X8271401Y-16799650D01*
X8271401Y-16799650D02*
X8290449Y-16809174D01*
X8366639Y-17009174D02*
X8376163Y-16999650D01*
X8376163Y-16999650D02*
X8395211Y-16971079D01*
X8395211Y-16971079D02*
X8404734Y-16952031D01*
X8404734Y-16952031D02*
X8414258Y-16923460D01*
X8414258Y-16923460D02*
X8423782Y-16875841D01*
X8423782Y-16875841D02*
X8423782Y-16837746D01*
X8423782Y-16837746D02*
X8414258Y-16790127D01*
X8414258Y-16790127D02*
X8404734Y-16761555D01*
X8404734Y-16761555D02*
X8395211Y-16742508D01*
X8395211Y-16742508D02*
X8376163Y-16713936D01*
X8376163Y-16713936D02*
X8366639Y-16704412D01*
D16*
X3215680Y-17012790D02*
X3401100Y-17198210D01*
X3401100Y-17012790D02*
X3215680Y-17198210D01*
X3308390Y-17198210D02*
X3401100Y-17105500D01*
X3308390Y-17012790D01*
X3215680Y-17105500D01*
X3308390Y-17198210D01*
D11*
X3766639Y-17196984D02*
X3652353Y-17196984D01*
X3709496Y-17196984D02*
X3709496Y-16996984D01*
X3709496Y-16996984D02*
X3690448Y-17025555D01*
X3690448Y-17025555D02*
X3671401Y-17044603D01*
X3671401Y-17044603D02*
X3652353Y-17054127D01*
X3852353Y-17177936D02*
X3861877Y-17187460D01*
X3861877Y-17187460D02*
X3852353Y-17196984D01*
X3852353Y-17196984D02*
X3842829Y-17187460D01*
X3842829Y-17187460D02*
X3852353Y-17177936D01*
X3852353Y-17177936D02*
X3852353Y-17196984D01*
X3976162Y-17082698D02*
X3957115Y-17073174D01*
X3957115Y-17073174D02*
X3947591Y-17063650D01*
X3947591Y-17063650D02*
X3938067Y-17044603D01*
X3938067Y-17044603D02*
X3938067Y-17035079D01*
X3938067Y-17035079D02*
X3947591Y-17016031D01*
X3947591Y-17016031D02*
X3957115Y-17006508D01*
X3957115Y-17006508D02*
X3976162Y-16996984D01*
X3976162Y-16996984D02*
X4014258Y-16996984D01*
X4014258Y-16996984D02*
X4033305Y-17006508D01*
X4033305Y-17006508D02*
X4042829Y-17016031D01*
X4042829Y-17016031D02*
X4052353Y-17035079D01*
X4052353Y-17035079D02*
X4052353Y-17044603D01*
X4052353Y-17044603D02*
X4042829Y-17063650D01*
X4042829Y-17063650D02*
X4033305Y-17073174D01*
X4033305Y-17073174D02*
X4014258Y-17082698D01*
X4014258Y-17082698D02*
X3976162Y-17082698D01*
X3976162Y-17082698D02*
X3957115Y-17092222D01*
X3957115Y-17092222D02*
X3947591Y-17101746D01*
X3947591Y-17101746D02*
X3938067Y-17120793D01*
X3938067Y-17120793D02*
X3938067Y-17158889D01*
X3938067Y-17158889D02*
X3947591Y-17177936D01*
X3947591Y-17177936D02*
X3957115Y-17187460D01*
X3957115Y-17187460D02*
X3976162Y-17196984D01*
X3976162Y-17196984D02*
X4014258Y-17196984D01*
X4014258Y-17196984D02*
X4033305Y-17187460D01*
X4033305Y-17187460D02*
X4042829Y-17177936D01*
X4042829Y-17177936D02*
X4052353Y-17158889D01*
X4052353Y-17158889D02*
X4052353Y-17120793D01*
X4052353Y-17120793D02*
X4042829Y-17101746D01*
X4042829Y-17101746D02*
X4033305Y-17092222D01*
X4033305Y-17092222D02*
X4014258Y-17082698D01*
X4233305Y-16996984D02*
X4138067Y-16996984D01*
X4138067Y-16996984D02*
X4128543Y-17092222D01*
X4128543Y-17092222D02*
X4138067Y-17082698D01*
X4138067Y-17082698D02*
X4157115Y-17073174D01*
X4157115Y-17073174D02*
X4204734Y-17073174D01*
X4204734Y-17073174D02*
X4223782Y-17082698D01*
X4223782Y-17082698D02*
X4233305Y-17092222D01*
X4233305Y-17092222D02*
X4242829Y-17111270D01*
X4242829Y-17111270D02*
X4242829Y-17158889D01*
X4242829Y-17158889D02*
X4233305Y-17177936D01*
X4233305Y-17177936D02*
X4223782Y-17187460D01*
X4223782Y-17187460D02*
X4204734Y-17196984D01*
X4204734Y-17196984D02*
X4157115Y-17196984D01*
X4157115Y-17196984D02*
X4138067Y-17187460D01*
X4138067Y-17187460D02*
X4128543Y-17177936D01*
X4414258Y-17063650D02*
X4414258Y-17196984D01*
X4366639Y-16987460D02*
X4319020Y-17130317D01*
X4319020Y-17130317D02*
X4442829Y-17130317D01*
X4519020Y-17196984D02*
X4519020Y-17063650D01*
X4519020Y-17082698D02*
X4528544Y-17073174D01*
X4528544Y-17073174D02*
X4547591Y-17063650D01*
X4547591Y-17063650D02*
X4576163Y-17063650D01*
X4576163Y-17063650D02*
X4595210Y-17073174D01*
X4595210Y-17073174D02*
X4604734Y-17092222D01*
X4604734Y-17092222D02*
X4604734Y-17196984D01*
X4604734Y-17092222D02*
X4614258Y-17073174D01*
X4614258Y-17073174D02*
X4633305Y-17063650D01*
X4633305Y-17063650D02*
X4661877Y-17063650D01*
X4661877Y-17063650D02*
X4680925Y-17073174D01*
X4680925Y-17073174D02*
X4690448Y-17092222D01*
X4690448Y-17092222D02*
X4690448Y-17196984D01*
X4785686Y-17196984D02*
X4785686Y-17063650D01*
X4785686Y-17082698D02*
X4795210Y-17073174D01*
X4795210Y-17073174D02*
X4814258Y-17063650D01*
X4814258Y-17063650D02*
X4842829Y-17063650D01*
X4842829Y-17063650D02*
X4861877Y-17073174D01*
X4861877Y-17073174D02*
X4871401Y-17092222D01*
X4871401Y-17092222D02*
X4871401Y-17196984D01*
X4871401Y-17092222D02*
X4880925Y-17073174D01*
X4880925Y-17073174D02*
X4899972Y-17063650D01*
X4899972Y-17063650D02*
X4928544Y-17063650D01*
X4928544Y-17063650D02*
X4947591Y-17073174D01*
X4947591Y-17073174D02*
X4957115Y-17092222D01*
X4957115Y-17092222D02*
X4957115Y-17196984D01*
X5347591Y-16987460D02*
X5176163Y-17244603D01*
X5604734Y-16996984D02*
X5623782Y-16996984D01*
X5623782Y-16996984D02*
X5642829Y-17006508D01*
X5642829Y-17006508D02*
X5652353Y-17016031D01*
X5652353Y-17016031D02*
X5661877Y-17035079D01*
X5661877Y-17035079D02*
X5671401Y-17073174D01*
X5671401Y-17073174D02*
X5671401Y-17120793D01*
X5671401Y-17120793D02*
X5661877Y-17158889D01*
X5661877Y-17158889D02*
X5652353Y-17177936D01*
X5652353Y-17177936D02*
X5642829Y-17187460D01*
X5642829Y-17187460D02*
X5623782Y-17196984D01*
X5623782Y-17196984D02*
X5604734Y-17196984D01*
X5604734Y-17196984D02*
X5585687Y-17187460D01*
X5585687Y-17187460D02*
X5576163Y-17177936D01*
X5576163Y-17177936D02*
X5566639Y-17158889D01*
X5566639Y-17158889D02*
X5557115Y-17120793D01*
X5557115Y-17120793D02*
X5557115Y-17073174D01*
X5557115Y-17073174D02*
X5566639Y-17035079D01*
X5566639Y-17035079D02*
X5576163Y-17016031D01*
X5576163Y-17016031D02*
X5585687Y-17006508D01*
X5585687Y-17006508D02*
X5604734Y-16996984D01*
X5757115Y-17177936D02*
X5766639Y-17187460D01*
X5766639Y-17187460D02*
X5757115Y-17196984D01*
X5757115Y-17196984D02*
X5747591Y-17187460D01*
X5747591Y-17187460D02*
X5757115Y-17177936D01*
X5757115Y-17177936D02*
X5757115Y-17196984D01*
X5890448Y-16996984D02*
X5909496Y-16996984D01*
X5909496Y-16996984D02*
X5928544Y-17006508D01*
X5928544Y-17006508D02*
X5938067Y-17016031D01*
X5938067Y-17016031D02*
X5947591Y-17035079D01*
X5947591Y-17035079D02*
X5957115Y-17073174D01*
X5957115Y-17073174D02*
X5957115Y-17120793D01*
X5957115Y-17120793D02*
X5947591Y-17158889D01*
X5947591Y-17158889D02*
X5938067Y-17177936D01*
X5938067Y-17177936D02*
X5928544Y-17187460D01*
X5928544Y-17187460D02*
X5909496Y-17196984D01*
X5909496Y-17196984D02*
X5890448Y-17196984D01*
X5890448Y-17196984D02*
X5871401Y-17187460D01*
X5871401Y-17187460D02*
X5861877Y-17177936D01*
X5861877Y-17177936D02*
X5852353Y-17158889D01*
X5852353Y-17158889D02*
X5842829Y-17120793D01*
X5842829Y-17120793D02*
X5842829Y-17073174D01*
X5842829Y-17073174D02*
X5852353Y-17035079D01*
X5852353Y-17035079D02*
X5861877Y-17016031D01*
X5861877Y-17016031D02*
X5871401Y-17006508D01*
X5871401Y-17006508D02*
X5890448Y-16996984D01*
X6023782Y-16996984D02*
X6157115Y-16996984D01*
X6157115Y-16996984D02*
X6071401Y-17196984D01*
X6214258Y-16996984D02*
X6338067Y-16996984D01*
X6338067Y-16996984D02*
X6271401Y-17073174D01*
X6271401Y-17073174D02*
X6299972Y-17073174D01*
X6299972Y-17073174D02*
X6319020Y-17082698D01*
X6319020Y-17082698D02*
X6328544Y-17092222D01*
X6328544Y-17092222D02*
X6338067Y-17111270D01*
X6338067Y-17111270D02*
X6338067Y-17158889D01*
X6338067Y-17158889D02*
X6328544Y-17177936D01*
X6328544Y-17177936D02*
X6319020Y-17187460D01*
X6319020Y-17187460D02*
X6299972Y-17196984D01*
X6299972Y-17196984D02*
X6242829Y-17196984D01*
X6242829Y-17196984D02*
X6223782Y-17187460D01*
X6223782Y-17187460D02*
X6214258Y-17177936D01*
X6461877Y-16996984D02*
X6480925Y-16996984D01*
X6480925Y-16996984D02*
X6499972Y-17006508D01*
X6499972Y-17006508D02*
X6509496Y-17016031D01*
X6509496Y-17016031D02*
X6519020Y-17035079D01*
X6519020Y-17035079D02*
X6528544Y-17073174D01*
X6528544Y-17073174D02*
X6528544Y-17120793D01*
X6528544Y-17120793D02*
X6519020Y-17158889D01*
X6519020Y-17158889D02*
X6509496Y-17177936D01*
X6509496Y-17177936D02*
X6499972Y-17187460D01*
X6499972Y-17187460D02*
X6480925Y-17196984D01*
X6480925Y-17196984D02*
X6461877Y-17196984D01*
X6461877Y-17196984D02*
X6442829Y-17187460D01*
X6442829Y-17187460D02*
X6433306Y-17177936D01*
X6433306Y-17177936D02*
X6423782Y-17158889D01*
X6423782Y-17158889D02*
X6414258Y-17120793D01*
X6414258Y-17120793D02*
X6414258Y-17073174D01*
X6414258Y-17073174D02*
X6423782Y-17035079D01*
X6423782Y-17035079D02*
X6433306Y-17016031D01*
X6433306Y-17016031D02*
X6442829Y-17006508D01*
X6442829Y-17006508D02*
X6461877Y-16996984D01*
X6604734Y-16996984D02*
X6604734Y-17035079D01*
X6680925Y-16996984D02*
X6680925Y-17035079D01*
X6976163Y-17273174D02*
X6966639Y-17263650D01*
X6966639Y-17263650D02*
X6947591Y-17235079D01*
X6947591Y-17235079D02*
X6938068Y-17216031D01*
X6938068Y-17216031D02*
X6928544Y-17187460D01*
X6928544Y-17187460D02*
X6919020Y-17139841D01*
X6919020Y-17139841D02*
X6919020Y-17101746D01*
X6919020Y-17101746D02*
X6928544Y-17054127D01*
X6928544Y-17054127D02*
X6938068Y-17025555D01*
X6938068Y-17025555D02*
X6947591Y-17006508D01*
X6947591Y-17006508D02*
X6966639Y-16977936D01*
X6966639Y-16977936D02*
X6976163Y-16968412D01*
X7080925Y-17082698D02*
X7061877Y-17073174D01*
X7061877Y-17073174D02*
X7052353Y-17063650D01*
X7052353Y-17063650D02*
X7042829Y-17044603D01*
X7042829Y-17044603D02*
X7042829Y-17035079D01*
X7042829Y-17035079D02*
X7052353Y-17016031D01*
X7052353Y-17016031D02*
X7061877Y-17006508D01*
X7061877Y-17006508D02*
X7080925Y-16996984D01*
X7080925Y-16996984D02*
X7119020Y-16996984D01*
X7119020Y-16996984D02*
X7138068Y-17006508D01*
X7138068Y-17006508D02*
X7147591Y-17016031D01*
X7147591Y-17016031D02*
X7157115Y-17035079D01*
X7157115Y-17035079D02*
X7157115Y-17044603D01*
X7157115Y-17044603D02*
X7147591Y-17063650D01*
X7147591Y-17063650D02*
X7138068Y-17073174D01*
X7138068Y-17073174D02*
X7119020Y-17082698D01*
X7119020Y-17082698D02*
X7080925Y-17082698D01*
X7080925Y-17082698D02*
X7061877Y-17092222D01*
X7061877Y-17092222D02*
X7052353Y-17101746D01*
X7052353Y-17101746D02*
X7042829Y-17120793D01*
X7042829Y-17120793D02*
X7042829Y-17158889D01*
X7042829Y-17158889D02*
X7052353Y-17177936D01*
X7052353Y-17177936D02*
X7061877Y-17187460D01*
X7061877Y-17187460D02*
X7080925Y-17196984D01*
X7080925Y-17196984D02*
X7119020Y-17196984D01*
X7119020Y-17196984D02*
X7138068Y-17187460D01*
X7138068Y-17187460D02*
X7147591Y-17177936D01*
X7147591Y-17177936D02*
X7157115Y-17158889D01*
X7157115Y-17158889D02*
X7157115Y-17120793D01*
X7157115Y-17120793D02*
X7147591Y-17101746D01*
X7147591Y-17101746D02*
X7138068Y-17092222D01*
X7138068Y-17092222D02*
X7119020Y-17082698D01*
X7395210Y-17196984D02*
X7395210Y-16996984D01*
X7480925Y-17196984D02*
X7480925Y-17092222D01*
X7480925Y-17092222D02*
X7471401Y-17073174D01*
X7471401Y-17073174D02*
X7452353Y-17063650D01*
X7452353Y-17063650D02*
X7423782Y-17063650D01*
X7423782Y-17063650D02*
X7404734Y-17073174D01*
X7404734Y-17073174D02*
X7395210Y-17082698D01*
X7604734Y-17196984D02*
X7585687Y-17187460D01*
X7585687Y-17187460D02*
X7576163Y-17177936D01*
X7576163Y-17177936D02*
X7566639Y-17158889D01*
X7566639Y-17158889D02*
X7566639Y-17101746D01*
X7566639Y-17101746D02*
X7576163Y-17082698D01*
X7576163Y-17082698D02*
X7585687Y-17073174D01*
X7585687Y-17073174D02*
X7604734Y-17063650D01*
X7604734Y-17063650D02*
X7633306Y-17063650D01*
X7633306Y-17063650D02*
X7652353Y-17073174D01*
X7652353Y-17073174D02*
X7661877Y-17082698D01*
X7661877Y-17082698D02*
X7671401Y-17101746D01*
X7671401Y-17101746D02*
X7671401Y-17158889D01*
X7671401Y-17158889D02*
X7661877Y-17177936D01*
X7661877Y-17177936D02*
X7652353Y-17187460D01*
X7652353Y-17187460D02*
X7633306Y-17196984D01*
X7633306Y-17196984D02*
X7604734Y-17196984D01*
X7785687Y-17196984D02*
X7766639Y-17187460D01*
X7766639Y-17187460D02*
X7757115Y-17168412D01*
X7757115Y-17168412D02*
X7757115Y-16996984D01*
X7938068Y-17187460D02*
X7919020Y-17196984D01*
X7919020Y-17196984D02*
X7880925Y-17196984D01*
X7880925Y-17196984D02*
X7861877Y-17187460D01*
X7861877Y-17187460D02*
X7852353Y-17168412D01*
X7852353Y-17168412D02*
X7852353Y-17092222D01*
X7852353Y-17092222D02*
X7861877Y-17073174D01*
X7861877Y-17073174D02*
X7880925Y-17063650D01*
X7880925Y-17063650D02*
X7919020Y-17063650D01*
X7919020Y-17063650D02*
X7938068Y-17073174D01*
X7938068Y-17073174D02*
X7947591Y-17092222D01*
X7947591Y-17092222D02*
X7947591Y-17111270D01*
X7947591Y-17111270D02*
X7852353Y-17130317D01*
X8023782Y-17187460D02*
X8042830Y-17196984D01*
X8042830Y-17196984D02*
X8080925Y-17196984D01*
X8080925Y-17196984D02*
X8099972Y-17187460D01*
X8099972Y-17187460D02*
X8109496Y-17168412D01*
X8109496Y-17168412D02*
X8109496Y-17158889D01*
X8109496Y-17158889D02*
X8099972Y-17139841D01*
X8099972Y-17139841D02*
X8080925Y-17130317D01*
X8080925Y-17130317D02*
X8052353Y-17130317D01*
X8052353Y-17130317D02*
X8033306Y-17120793D01*
X8033306Y-17120793D02*
X8023782Y-17101746D01*
X8023782Y-17101746D02*
X8023782Y-17092222D01*
X8023782Y-17092222D02*
X8033306Y-17073174D01*
X8033306Y-17073174D02*
X8052353Y-17063650D01*
X8052353Y-17063650D02*
X8080925Y-17063650D01*
X8080925Y-17063650D02*
X8099972Y-17073174D01*
X8176163Y-17273174D02*
X8185687Y-17263650D01*
X8185687Y-17263650D02*
X8204734Y-17235079D01*
X8204734Y-17235079D02*
X8214258Y-17216031D01*
X8214258Y-17216031D02*
X8223782Y-17187460D01*
X8223782Y-17187460D02*
X8233306Y-17139841D01*
X8233306Y-17139841D02*
X8233306Y-17101746D01*
X8233306Y-17101746D02*
X8223782Y-17054127D01*
X8223782Y-17054127D02*
X8214258Y-17025555D01*
X8214258Y-17025555D02*
X8204734Y-17006508D01*
X8204734Y-17006508D02*
X8185687Y-16977936D01*
X8185687Y-16977936D02*
X8176163Y-16968412D01*
X3301100Y-17310920D02*
X3301100Y-17510920D01*
X3201100Y-17410920D02*
X3401100Y-17410920D01*
X3401100Y-17410920D02*
G75*
G02*
X3201100Y-17410920I-100000J0D01*
G01*
X3201100Y-17410920D02*
G75*
G02*
X3401100Y-17410920I100000J0D01*
G01*
X3652353Y-17321451D02*
X3661877Y-17311928D01*
X3661877Y-17311928D02*
X3680924Y-17302404D01*
X3680924Y-17302404D02*
X3728543Y-17302404D01*
X3728543Y-17302404D02*
X3747591Y-17311928D01*
X3747591Y-17311928D02*
X3757115Y-17321451D01*
X3757115Y-17321451D02*
X3766639Y-17340499D01*
X3766639Y-17340499D02*
X3766639Y-17359547D01*
X3766639Y-17359547D02*
X3757115Y-17388118D01*
X3757115Y-17388118D02*
X3642829Y-17502404D01*
X3642829Y-17502404D02*
X3766639Y-17502404D01*
X3852353Y-17483356D02*
X3861877Y-17492880D01*
X3861877Y-17492880D02*
X3852353Y-17502404D01*
X3852353Y-17502404D02*
X3842829Y-17492880D01*
X3842829Y-17492880D02*
X3852353Y-17483356D01*
X3852353Y-17483356D02*
X3852353Y-17502404D01*
X3985686Y-17302404D02*
X4004734Y-17302404D01*
X4004734Y-17302404D02*
X4023782Y-17311928D01*
X4023782Y-17311928D02*
X4033305Y-17321451D01*
X4033305Y-17321451D02*
X4042829Y-17340499D01*
X4042829Y-17340499D02*
X4052353Y-17378594D01*
X4052353Y-17378594D02*
X4052353Y-17426213D01*
X4052353Y-17426213D02*
X4042829Y-17464309D01*
X4042829Y-17464309D02*
X4033305Y-17483356D01*
X4033305Y-17483356D02*
X4023782Y-17492880D01*
X4023782Y-17492880D02*
X4004734Y-17502404D01*
X4004734Y-17502404D02*
X3985686Y-17502404D01*
X3985686Y-17502404D02*
X3966639Y-17492880D01*
X3966639Y-17492880D02*
X3957115Y-17483356D01*
X3957115Y-17483356D02*
X3947591Y-17464309D01*
X3947591Y-17464309D02*
X3938067Y-17426213D01*
X3938067Y-17426213D02*
X3938067Y-17378594D01*
X3938067Y-17378594D02*
X3947591Y-17340499D01*
X3947591Y-17340499D02*
X3957115Y-17321451D01*
X3957115Y-17321451D02*
X3966639Y-17311928D01*
X3966639Y-17311928D02*
X3985686Y-17302404D01*
X4176162Y-17302404D02*
X4195210Y-17302404D01*
X4195210Y-17302404D02*
X4214258Y-17311928D01*
X4214258Y-17311928D02*
X4223782Y-17321451D01*
X4223782Y-17321451D02*
X4233305Y-17340499D01*
X4233305Y-17340499D02*
X4242829Y-17378594D01*
X4242829Y-17378594D02*
X4242829Y-17426213D01*
X4242829Y-17426213D02*
X4233305Y-17464309D01*
X4233305Y-17464309D02*
X4223782Y-17483356D01*
X4223782Y-17483356D02*
X4214258Y-17492880D01*
X4214258Y-17492880D02*
X4195210Y-17502404D01*
X4195210Y-17502404D02*
X4176162Y-17502404D01*
X4176162Y-17502404D02*
X4157115Y-17492880D01*
X4157115Y-17492880D02*
X4147591Y-17483356D01*
X4147591Y-17483356D02*
X4138067Y-17464309D01*
X4138067Y-17464309D02*
X4128543Y-17426213D01*
X4128543Y-17426213D02*
X4128543Y-17378594D01*
X4128543Y-17378594D02*
X4138067Y-17340499D01*
X4138067Y-17340499D02*
X4147591Y-17321451D01*
X4147591Y-17321451D02*
X4157115Y-17311928D01*
X4157115Y-17311928D02*
X4176162Y-17302404D01*
X4366639Y-17302404D02*
X4385686Y-17302404D01*
X4385686Y-17302404D02*
X4404734Y-17311928D01*
X4404734Y-17311928D02*
X4414258Y-17321451D01*
X4414258Y-17321451D02*
X4423782Y-17340499D01*
X4423782Y-17340499D02*
X4433305Y-17378594D01*
X4433305Y-17378594D02*
X4433305Y-17426213D01*
X4433305Y-17426213D02*
X4423782Y-17464309D01*
X4423782Y-17464309D02*
X4414258Y-17483356D01*
X4414258Y-17483356D02*
X4404734Y-17492880D01*
X4404734Y-17492880D02*
X4385686Y-17502404D01*
X4385686Y-17502404D02*
X4366639Y-17502404D01*
X4366639Y-17502404D02*
X4347591Y-17492880D01*
X4347591Y-17492880D02*
X4338067Y-17483356D01*
X4338067Y-17483356D02*
X4328544Y-17464309D01*
X4328544Y-17464309D02*
X4319020Y-17426213D01*
X4319020Y-17426213D02*
X4319020Y-17378594D01*
X4319020Y-17378594D02*
X4328544Y-17340499D01*
X4328544Y-17340499D02*
X4338067Y-17321451D01*
X4338067Y-17321451D02*
X4347591Y-17311928D01*
X4347591Y-17311928D02*
X4366639Y-17302404D01*
X4519020Y-17502404D02*
X4519020Y-17369070D01*
X4519020Y-17388118D02*
X4528544Y-17378594D01*
X4528544Y-17378594D02*
X4547591Y-17369070D01*
X4547591Y-17369070D02*
X4576163Y-17369070D01*
X4576163Y-17369070D02*
X4595210Y-17378594D01*
X4595210Y-17378594D02*
X4604734Y-17397642D01*
X4604734Y-17397642D02*
X4604734Y-17502404D01*
X4604734Y-17397642D02*
X4614258Y-17378594D01*
X4614258Y-17378594D02*
X4633305Y-17369070D01*
X4633305Y-17369070D02*
X4661877Y-17369070D01*
X4661877Y-17369070D02*
X4680925Y-17378594D01*
X4680925Y-17378594D02*
X4690448Y-17397642D01*
X4690448Y-17397642D02*
X4690448Y-17502404D01*
X4785686Y-17502404D02*
X4785686Y-17369070D01*
X4785686Y-17388118D02*
X4795210Y-17378594D01*
X4795210Y-17378594D02*
X4814258Y-17369070D01*
X4814258Y-17369070D02*
X4842829Y-17369070D01*
X4842829Y-17369070D02*
X4861877Y-17378594D01*
X4861877Y-17378594D02*
X4871401Y-17397642D01*
X4871401Y-17397642D02*
X4871401Y-17502404D01*
X4871401Y-17397642D02*
X4880925Y-17378594D01*
X4880925Y-17378594D02*
X4899972Y-17369070D01*
X4899972Y-17369070D02*
X4928544Y-17369070D01*
X4928544Y-17369070D02*
X4947591Y-17378594D01*
X4947591Y-17378594D02*
X4957115Y-17397642D01*
X4957115Y-17397642D02*
X4957115Y-17502404D01*
X5347591Y-17292880D02*
X5176163Y-17550023D01*
X5604734Y-17302404D02*
X5623782Y-17302404D01*
X5623782Y-17302404D02*
X5642829Y-17311928D01*
X5642829Y-17311928D02*
X5652353Y-17321451D01*
X5652353Y-17321451D02*
X5661877Y-17340499D01*
X5661877Y-17340499D02*
X5671401Y-17378594D01*
X5671401Y-17378594D02*
X5671401Y-17426213D01*
X5671401Y-17426213D02*
X5661877Y-17464309D01*
X5661877Y-17464309D02*
X5652353Y-17483356D01*
X5652353Y-17483356D02*
X5642829Y-17492880D01*
X5642829Y-17492880D02*
X5623782Y-17502404D01*
X5623782Y-17502404D02*
X5604734Y-17502404D01*
X5604734Y-17502404D02*
X5585687Y-17492880D01*
X5585687Y-17492880D02*
X5576163Y-17483356D01*
X5576163Y-17483356D02*
X5566639Y-17464309D01*
X5566639Y-17464309D02*
X5557115Y-17426213D01*
X5557115Y-17426213D02*
X5557115Y-17378594D01*
X5557115Y-17378594D02*
X5566639Y-17340499D01*
X5566639Y-17340499D02*
X5576163Y-17321451D01*
X5576163Y-17321451D02*
X5585687Y-17311928D01*
X5585687Y-17311928D02*
X5604734Y-17302404D01*
X5757115Y-17483356D02*
X5766639Y-17492880D01*
X5766639Y-17492880D02*
X5757115Y-17502404D01*
X5757115Y-17502404D02*
X5747591Y-17492880D01*
X5747591Y-17492880D02*
X5757115Y-17483356D01*
X5757115Y-17483356D02*
X5757115Y-17502404D01*
X5890448Y-17302404D02*
X5909496Y-17302404D01*
X5909496Y-17302404D02*
X5928544Y-17311928D01*
X5928544Y-17311928D02*
X5938067Y-17321451D01*
X5938067Y-17321451D02*
X5947591Y-17340499D01*
X5947591Y-17340499D02*
X5957115Y-17378594D01*
X5957115Y-17378594D02*
X5957115Y-17426213D01*
X5957115Y-17426213D02*
X5947591Y-17464309D01*
X5947591Y-17464309D02*
X5938067Y-17483356D01*
X5938067Y-17483356D02*
X5928544Y-17492880D01*
X5928544Y-17492880D02*
X5909496Y-17502404D01*
X5909496Y-17502404D02*
X5890448Y-17502404D01*
X5890448Y-17502404D02*
X5871401Y-17492880D01*
X5871401Y-17492880D02*
X5861877Y-17483356D01*
X5861877Y-17483356D02*
X5852353Y-17464309D01*
X5852353Y-17464309D02*
X5842829Y-17426213D01*
X5842829Y-17426213D02*
X5842829Y-17378594D01*
X5842829Y-17378594D02*
X5852353Y-17340499D01*
X5852353Y-17340499D02*
X5861877Y-17321451D01*
X5861877Y-17321451D02*
X5871401Y-17311928D01*
X5871401Y-17311928D02*
X5890448Y-17302404D01*
X6023782Y-17302404D02*
X6157115Y-17302404D01*
X6157115Y-17302404D02*
X6071401Y-17502404D01*
X6261877Y-17388118D02*
X6242829Y-17378594D01*
X6242829Y-17378594D02*
X6233306Y-17369070D01*
X6233306Y-17369070D02*
X6223782Y-17350023D01*
X6223782Y-17350023D02*
X6223782Y-17340499D01*
X6223782Y-17340499D02*
X6233306Y-17321451D01*
X6233306Y-17321451D02*
X6242829Y-17311928D01*
X6242829Y-17311928D02*
X6261877Y-17302404D01*
X6261877Y-17302404D02*
X6299972Y-17302404D01*
X6299972Y-17302404D02*
X6319020Y-17311928D01*
X6319020Y-17311928D02*
X6328544Y-17321451D01*
X6328544Y-17321451D02*
X6338067Y-17340499D01*
X6338067Y-17340499D02*
X6338067Y-17350023D01*
X6338067Y-17350023D02*
X6328544Y-17369070D01*
X6328544Y-17369070D02*
X6319020Y-17378594D01*
X6319020Y-17378594D02*
X6299972Y-17388118D01*
X6299972Y-17388118D02*
X6261877Y-17388118D01*
X6261877Y-17388118D02*
X6242829Y-17397642D01*
X6242829Y-17397642D02*
X6233306Y-17407166D01*
X6233306Y-17407166D02*
X6223782Y-17426213D01*
X6223782Y-17426213D02*
X6223782Y-17464309D01*
X6223782Y-17464309D02*
X6233306Y-17483356D01*
X6233306Y-17483356D02*
X6242829Y-17492880D01*
X6242829Y-17492880D02*
X6261877Y-17502404D01*
X6261877Y-17502404D02*
X6299972Y-17502404D01*
X6299972Y-17502404D02*
X6319020Y-17492880D01*
X6319020Y-17492880D02*
X6328544Y-17483356D01*
X6328544Y-17483356D02*
X6338067Y-17464309D01*
X6338067Y-17464309D02*
X6338067Y-17426213D01*
X6338067Y-17426213D02*
X6328544Y-17407166D01*
X6328544Y-17407166D02*
X6319020Y-17397642D01*
X6319020Y-17397642D02*
X6299972Y-17388118D01*
X6404734Y-17302404D02*
X6538067Y-17302404D01*
X6538067Y-17302404D02*
X6452353Y-17502404D01*
X6604734Y-17302404D02*
X6604734Y-17340499D01*
X6680925Y-17302404D02*
X6680925Y-17340499D01*
X6976163Y-17578594D02*
X6966639Y-17569070D01*
X6966639Y-17569070D02*
X6947591Y-17540499D01*
X6947591Y-17540499D02*
X6938068Y-17521451D01*
X6938068Y-17521451D02*
X6928544Y-17492880D01*
X6928544Y-17492880D02*
X6919020Y-17445261D01*
X6919020Y-17445261D02*
X6919020Y-17407166D01*
X6919020Y-17407166D02*
X6928544Y-17359547D01*
X6928544Y-17359547D02*
X6938068Y-17330975D01*
X6938068Y-17330975D02*
X6947591Y-17311928D01*
X6947591Y-17311928D02*
X6966639Y-17283356D01*
X6966639Y-17283356D02*
X6976163Y-17273832D01*
X7157115Y-17502404D02*
X7042829Y-17502404D01*
X7099972Y-17502404D02*
X7099972Y-17302404D01*
X7099972Y-17302404D02*
X7080925Y-17330975D01*
X7080925Y-17330975D02*
X7061877Y-17350023D01*
X7061877Y-17350023D02*
X7042829Y-17359547D01*
X7395210Y-17502404D02*
X7395210Y-17302404D01*
X7480925Y-17502404D02*
X7480925Y-17397642D01*
X7480925Y-17397642D02*
X7471401Y-17378594D01*
X7471401Y-17378594D02*
X7452353Y-17369070D01*
X7452353Y-17369070D02*
X7423782Y-17369070D01*
X7423782Y-17369070D02*
X7404734Y-17378594D01*
X7404734Y-17378594D02*
X7395210Y-17388118D01*
X7604734Y-17502404D02*
X7585687Y-17492880D01*
X7585687Y-17492880D02*
X7576163Y-17483356D01*
X7576163Y-17483356D02*
X7566639Y-17464309D01*
X7566639Y-17464309D02*
X7566639Y-17407166D01*
X7566639Y-17407166D02*
X7576163Y-17388118D01*
X7576163Y-17388118D02*
X7585687Y-17378594D01*
X7585687Y-17378594D02*
X7604734Y-17369070D01*
X7604734Y-17369070D02*
X7633306Y-17369070D01*
X7633306Y-17369070D02*
X7652353Y-17378594D01*
X7652353Y-17378594D02*
X7661877Y-17388118D01*
X7661877Y-17388118D02*
X7671401Y-17407166D01*
X7671401Y-17407166D02*
X7671401Y-17464309D01*
X7671401Y-17464309D02*
X7661877Y-17483356D01*
X7661877Y-17483356D02*
X7652353Y-17492880D01*
X7652353Y-17492880D02*
X7633306Y-17502404D01*
X7633306Y-17502404D02*
X7604734Y-17502404D01*
X7785687Y-17502404D02*
X7766639Y-17492880D01*
X7766639Y-17492880D02*
X7757115Y-17473832D01*
X7757115Y-17473832D02*
X7757115Y-17302404D01*
X7938068Y-17492880D02*
X7919020Y-17502404D01*
X7919020Y-17502404D02*
X7880925Y-17502404D01*
X7880925Y-17502404D02*
X7861877Y-17492880D01*
X7861877Y-17492880D02*
X7852353Y-17473832D01*
X7852353Y-17473832D02*
X7852353Y-17397642D01*
X7852353Y-17397642D02*
X7861877Y-17378594D01*
X7861877Y-17378594D02*
X7880925Y-17369070D01*
X7880925Y-17369070D02*
X7919020Y-17369070D01*
X7919020Y-17369070D02*
X7938068Y-17378594D01*
X7938068Y-17378594D02*
X7947591Y-17397642D01*
X7947591Y-17397642D02*
X7947591Y-17416690D01*
X7947591Y-17416690D02*
X7852353Y-17435737D01*
X8014258Y-17578594D02*
X8023782Y-17569070D01*
X8023782Y-17569070D02*
X8042830Y-17540499D01*
X8042830Y-17540499D02*
X8052353Y-17521451D01*
X8052353Y-17521451D02*
X8061877Y-17492880D01*
X8061877Y-17492880D02*
X8071401Y-17445261D01*
X8071401Y-17445261D02*
X8071401Y-17407166D01*
X8071401Y-17407166D02*
X8061877Y-17359547D01*
X8061877Y-17359547D02*
X8052353Y-17330975D01*
X8052353Y-17330975D02*
X8042830Y-17311928D01*
X8042830Y-17311928D02*
X8023782Y-17283356D01*
X8023782Y-17283356D02*
X8014258Y-17273832D01*
X3371811Y-17801631D02*
X3371811Y-17660209D01*
X3230389Y-17660209D01*
X3230389Y-17801631D01*
X3371811Y-17801631D01*
X3401100Y-17730920D02*
G75*
G02*
X3201100Y-17730920I-100000J0D01*
G01*
X3201100Y-17730920D02*
G75*
G02*
X3401100Y-17730920I100000J0D01*
G01*
X3652353Y-17641451D02*
X3661877Y-17631928D01*
X3661877Y-17631928D02*
X3680924Y-17622404D01*
X3680924Y-17622404D02*
X3728543Y-17622404D01*
X3728543Y-17622404D02*
X3747591Y-17631928D01*
X3747591Y-17631928D02*
X3757115Y-17641451D01*
X3757115Y-17641451D02*
X3766639Y-17660499D01*
X3766639Y-17660499D02*
X3766639Y-17679547D01*
X3766639Y-17679547D02*
X3757115Y-17708118D01*
X3757115Y-17708118D02*
X3642829Y-17822404D01*
X3642829Y-17822404D02*
X3766639Y-17822404D01*
X3852353Y-17803356D02*
X3861877Y-17812880D01*
X3861877Y-17812880D02*
X3852353Y-17822404D01*
X3852353Y-17822404D02*
X3842829Y-17812880D01*
X3842829Y-17812880D02*
X3852353Y-17803356D01*
X3852353Y-17803356D02*
X3852353Y-17822404D01*
X3938067Y-17641451D02*
X3947591Y-17631928D01*
X3947591Y-17631928D02*
X3966639Y-17622404D01*
X3966639Y-17622404D02*
X4014258Y-17622404D01*
X4014258Y-17622404D02*
X4033305Y-17631928D01*
X4033305Y-17631928D02*
X4042829Y-17641451D01*
X4042829Y-17641451D02*
X4052353Y-17660499D01*
X4052353Y-17660499D02*
X4052353Y-17679547D01*
X4052353Y-17679547D02*
X4042829Y-17708118D01*
X4042829Y-17708118D02*
X3928543Y-17822404D01*
X3928543Y-17822404D02*
X4052353Y-17822404D01*
X4176162Y-17622404D02*
X4195210Y-17622404D01*
X4195210Y-17622404D02*
X4214258Y-17631928D01*
X4214258Y-17631928D02*
X4223782Y-17641451D01*
X4223782Y-17641451D02*
X4233305Y-17660499D01*
X4233305Y-17660499D02*
X4242829Y-17698594D01*
X4242829Y-17698594D02*
X4242829Y-17746213D01*
X4242829Y-17746213D02*
X4233305Y-17784309D01*
X4233305Y-17784309D02*
X4223782Y-17803356D01*
X4223782Y-17803356D02*
X4214258Y-17812880D01*
X4214258Y-17812880D02*
X4195210Y-17822404D01*
X4195210Y-17822404D02*
X4176162Y-17822404D01*
X4176162Y-17822404D02*
X4157115Y-17812880D01*
X4157115Y-17812880D02*
X4147591Y-17803356D01*
X4147591Y-17803356D02*
X4138067Y-17784309D01*
X4138067Y-17784309D02*
X4128543Y-17746213D01*
X4128543Y-17746213D02*
X4128543Y-17698594D01*
X4128543Y-17698594D02*
X4138067Y-17660499D01*
X4138067Y-17660499D02*
X4147591Y-17641451D01*
X4147591Y-17641451D02*
X4157115Y-17631928D01*
X4157115Y-17631928D02*
X4176162Y-17622404D01*
X4366639Y-17622404D02*
X4385686Y-17622404D01*
X4385686Y-17622404D02*
X4404734Y-17631928D01*
X4404734Y-17631928D02*
X4414258Y-17641451D01*
X4414258Y-17641451D02*
X4423782Y-17660499D01*
X4423782Y-17660499D02*
X4433305Y-17698594D01*
X4433305Y-17698594D02*
X4433305Y-17746213D01*
X4433305Y-17746213D02*
X4423782Y-17784309D01*
X4423782Y-17784309D02*
X4414258Y-17803356D01*
X4414258Y-17803356D02*
X4404734Y-17812880D01*
X4404734Y-17812880D02*
X4385686Y-17822404D01*
X4385686Y-17822404D02*
X4366639Y-17822404D01*
X4366639Y-17822404D02*
X4347591Y-17812880D01*
X4347591Y-17812880D02*
X4338067Y-17803356D01*
X4338067Y-17803356D02*
X4328544Y-17784309D01*
X4328544Y-17784309D02*
X4319020Y-17746213D01*
X4319020Y-17746213D02*
X4319020Y-17698594D01*
X4319020Y-17698594D02*
X4328544Y-17660499D01*
X4328544Y-17660499D02*
X4338067Y-17641451D01*
X4338067Y-17641451D02*
X4347591Y-17631928D01*
X4347591Y-17631928D02*
X4366639Y-17622404D01*
X4519020Y-17822404D02*
X4519020Y-17689070D01*
X4519020Y-17708118D02*
X4528544Y-17698594D01*
X4528544Y-17698594D02*
X4547591Y-17689070D01*
X4547591Y-17689070D02*
X4576163Y-17689070D01*
X4576163Y-17689070D02*
X4595210Y-17698594D01*
X4595210Y-17698594D02*
X4604734Y-17717642D01*
X4604734Y-17717642D02*
X4604734Y-17822404D01*
X4604734Y-17717642D02*
X4614258Y-17698594D01*
X4614258Y-17698594D02*
X4633305Y-17689070D01*
X4633305Y-17689070D02*
X4661877Y-17689070D01*
X4661877Y-17689070D02*
X4680925Y-17698594D01*
X4680925Y-17698594D02*
X4690448Y-17717642D01*
X4690448Y-17717642D02*
X4690448Y-17822404D01*
X4785686Y-17822404D02*
X4785686Y-17689070D01*
X4785686Y-17708118D02*
X4795210Y-17698594D01*
X4795210Y-17698594D02*
X4814258Y-17689070D01*
X4814258Y-17689070D02*
X4842829Y-17689070D01*
X4842829Y-17689070D02*
X4861877Y-17698594D01*
X4861877Y-17698594D02*
X4871401Y-17717642D01*
X4871401Y-17717642D02*
X4871401Y-17822404D01*
X4871401Y-17717642D02*
X4880925Y-17698594D01*
X4880925Y-17698594D02*
X4899972Y-17689070D01*
X4899972Y-17689070D02*
X4928544Y-17689070D01*
X4928544Y-17689070D02*
X4947591Y-17698594D01*
X4947591Y-17698594D02*
X4957115Y-17717642D01*
X4957115Y-17717642D02*
X4957115Y-17822404D01*
X5347591Y-17612880D02*
X5176163Y-17870023D01*
X5604734Y-17622404D02*
X5623782Y-17622404D01*
X5623782Y-17622404D02*
X5642829Y-17631928D01*
X5642829Y-17631928D02*
X5652353Y-17641451D01*
X5652353Y-17641451D02*
X5661877Y-17660499D01*
X5661877Y-17660499D02*
X5671401Y-17698594D01*
X5671401Y-17698594D02*
X5671401Y-17746213D01*
X5671401Y-17746213D02*
X5661877Y-17784309D01*
X5661877Y-17784309D02*
X5652353Y-17803356D01*
X5652353Y-17803356D02*
X5642829Y-17812880D01*
X5642829Y-17812880D02*
X5623782Y-17822404D01*
X5623782Y-17822404D02*
X5604734Y-17822404D01*
X5604734Y-17822404D02*
X5585687Y-17812880D01*
X5585687Y-17812880D02*
X5576163Y-17803356D01*
X5576163Y-17803356D02*
X5566639Y-17784309D01*
X5566639Y-17784309D02*
X5557115Y-17746213D01*
X5557115Y-17746213D02*
X5557115Y-17698594D01*
X5557115Y-17698594D02*
X5566639Y-17660499D01*
X5566639Y-17660499D02*
X5576163Y-17641451D01*
X5576163Y-17641451D02*
X5585687Y-17631928D01*
X5585687Y-17631928D02*
X5604734Y-17622404D01*
X5757115Y-17803356D02*
X5766639Y-17812880D01*
X5766639Y-17812880D02*
X5757115Y-17822404D01*
X5757115Y-17822404D02*
X5747591Y-17812880D01*
X5747591Y-17812880D02*
X5757115Y-17803356D01*
X5757115Y-17803356D02*
X5757115Y-17822404D01*
X5890448Y-17622404D02*
X5909496Y-17622404D01*
X5909496Y-17622404D02*
X5928544Y-17631928D01*
X5928544Y-17631928D02*
X5938067Y-17641451D01*
X5938067Y-17641451D02*
X5947591Y-17660499D01*
X5947591Y-17660499D02*
X5957115Y-17698594D01*
X5957115Y-17698594D02*
X5957115Y-17746213D01*
X5957115Y-17746213D02*
X5947591Y-17784309D01*
X5947591Y-17784309D02*
X5938067Y-17803356D01*
X5938067Y-17803356D02*
X5928544Y-17812880D01*
X5928544Y-17812880D02*
X5909496Y-17822404D01*
X5909496Y-17822404D02*
X5890448Y-17822404D01*
X5890448Y-17822404D02*
X5871401Y-17812880D01*
X5871401Y-17812880D02*
X5861877Y-17803356D01*
X5861877Y-17803356D02*
X5852353Y-17784309D01*
X5852353Y-17784309D02*
X5842829Y-17746213D01*
X5842829Y-17746213D02*
X5842829Y-17698594D01*
X5842829Y-17698594D02*
X5852353Y-17660499D01*
X5852353Y-17660499D02*
X5861877Y-17641451D01*
X5861877Y-17641451D02*
X5871401Y-17631928D01*
X5871401Y-17631928D02*
X5890448Y-17622404D01*
X6071401Y-17708118D02*
X6052353Y-17698594D01*
X6052353Y-17698594D02*
X6042829Y-17689070D01*
X6042829Y-17689070D02*
X6033306Y-17670023D01*
X6033306Y-17670023D02*
X6033306Y-17660499D01*
X6033306Y-17660499D02*
X6042829Y-17641451D01*
X6042829Y-17641451D02*
X6052353Y-17631928D01*
X6052353Y-17631928D02*
X6071401Y-17622404D01*
X6071401Y-17622404D02*
X6109496Y-17622404D01*
X6109496Y-17622404D02*
X6128544Y-17631928D01*
X6128544Y-17631928D02*
X6138067Y-17641451D01*
X6138067Y-17641451D02*
X6147591Y-17660499D01*
X6147591Y-17660499D02*
X6147591Y-17670023D01*
X6147591Y-17670023D02*
X6138067Y-17689070D01*
X6138067Y-17689070D02*
X6128544Y-17698594D01*
X6128544Y-17698594D02*
X6109496Y-17708118D01*
X6109496Y-17708118D02*
X6071401Y-17708118D01*
X6071401Y-17708118D02*
X6052353Y-17717642D01*
X6052353Y-17717642D02*
X6042829Y-17727166D01*
X6042829Y-17727166D02*
X6033306Y-17746213D01*
X6033306Y-17746213D02*
X6033306Y-17784309D01*
X6033306Y-17784309D02*
X6042829Y-17803356D01*
X6042829Y-17803356D02*
X6052353Y-17812880D01*
X6052353Y-17812880D02*
X6071401Y-17822404D01*
X6071401Y-17822404D02*
X6109496Y-17822404D01*
X6109496Y-17822404D02*
X6128544Y-17812880D01*
X6128544Y-17812880D02*
X6138067Y-17803356D01*
X6138067Y-17803356D02*
X6147591Y-17784309D01*
X6147591Y-17784309D02*
X6147591Y-17746213D01*
X6147591Y-17746213D02*
X6138067Y-17727166D01*
X6138067Y-17727166D02*
X6128544Y-17717642D01*
X6128544Y-17717642D02*
X6109496Y-17708118D01*
X6319020Y-17622404D02*
X6280925Y-17622404D01*
X6280925Y-17622404D02*
X6261877Y-17631928D01*
X6261877Y-17631928D02*
X6252353Y-17641451D01*
X6252353Y-17641451D02*
X6233306Y-17670023D01*
X6233306Y-17670023D02*
X6223782Y-17708118D01*
X6223782Y-17708118D02*
X6223782Y-17784309D01*
X6223782Y-17784309D02*
X6233306Y-17803356D01*
X6233306Y-17803356D02*
X6242829Y-17812880D01*
X6242829Y-17812880D02*
X6261877Y-17822404D01*
X6261877Y-17822404D02*
X6299972Y-17822404D01*
X6299972Y-17822404D02*
X6319020Y-17812880D01*
X6319020Y-17812880D02*
X6328544Y-17803356D01*
X6328544Y-17803356D02*
X6338067Y-17784309D01*
X6338067Y-17784309D02*
X6338067Y-17736690D01*
X6338067Y-17736690D02*
X6328544Y-17717642D01*
X6328544Y-17717642D02*
X6319020Y-17708118D01*
X6319020Y-17708118D02*
X6299972Y-17698594D01*
X6299972Y-17698594D02*
X6261877Y-17698594D01*
X6261877Y-17698594D02*
X6242829Y-17708118D01*
X6242829Y-17708118D02*
X6233306Y-17717642D01*
X6233306Y-17717642D02*
X6223782Y-17736690D01*
X6509496Y-17622404D02*
X6471401Y-17622404D01*
X6471401Y-17622404D02*
X6452353Y-17631928D01*
X6452353Y-17631928D02*
X6442829Y-17641451D01*
X6442829Y-17641451D02*
X6423782Y-17670023D01*
X6423782Y-17670023D02*
X6414258Y-17708118D01*
X6414258Y-17708118D02*
X6414258Y-17784309D01*
X6414258Y-17784309D02*
X6423782Y-17803356D01*
X6423782Y-17803356D02*
X6433306Y-17812880D01*
X6433306Y-17812880D02*
X6452353Y-17822404D01*
X6452353Y-17822404D02*
X6490448Y-17822404D01*
X6490448Y-17822404D02*
X6509496Y-17812880D01*
X6509496Y-17812880D02*
X6519020Y-17803356D01*
X6519020Y-17803356D02*
X6528544Y-17784309D01*
X6528544Y-17784309D02*
X6528544Y-17736690D01*
X6528544Y-17736690D02*
X6519020Y-17717642D01*
X6519020Y-17717642D02*
X6509496Y-17708118D01*
X6509496Y-17708118D02*
X6490448Y-17698594D01*
X6490448Y-17698594D02*
X6452353Y-17698594D01*
X6452353Y-17698594D02*
X6433306Y-17708118D01*
X6433306Y-17708118D02*
X6423782Y-17717642D01*
X6423782Y-17717642D02*
X6414258Y-17736690D01*
X6604734Y-17622404D02*
X6604734Y-17660499D01*
X6680925Y-17622404D02*
X6680925Y-17660499D01*
X6976163Y-17898594D02*
X6966639Y-17889070D01*
X6966639Y-17889070D02*
X6947591Y-17860499D01*
X6947591Y-17860499D02*
X6938068Y-17841451D01*
X6938068Y-17841451D02*
X6928544Y-17812880D01*
X6928544Y-17812880D02*
X6919020Y-17765261D01*
X6919020Y-17765261D02*
X6919020Y-17727166D01*
X6919020Y-17727166D02*
X6928544Y-17679547D01*
X6928544Y-17679547D02*
X6938068Y-17650975D01*
X6938068Y-17650975D02*
X6947591Y-17631928D01*
X6947591Y-17631928D02*
X6966639Y-17603356D01*
X6966639Y-17603356D02*
X6976163Y-17593832D01*
X7090448Y-17622404D02*
X7109496Y-17622404D01*
X7109496Y-17622404D02*
X7128544Y-17631928D01*
X7128544Y-17631928D02*
X7138068Y-17641451D01*
X7138068Y-17641451D02*
X7147591Y-17660499D01*
X7147591Y-17660499D02*
X7157115Y-17698594D01*
X7157115Y-17698594D02*
X7157115Y-17746213D01*
X7157115Y-17746213D02*
X7147591Y-17784309D01*
X7147591Y-17784309D02*
X7138068Y-17803356D01*
X7138068Y-17803356D02*
X7128544Y-17812880D01*
X7128544Y-17812880D02*
X7109496Y-17822404D01*
X7109496Y-17822404D02*
X7090448Y-17822404D01*
X7090448Y-17822404D02*
X7071401Y-17812880D01*
X7071401Y-17812880D02*
X7061877Y-17803356D01*
X7061877Y-17803356D02*
X7052353Y-17784309D01*
X7052353Y-17784309D02*
X7042829Y-17746213D01*
X7042829Y-17746213D02*
X7042829Y-17698594D01*
X7042829Y-17698594D02*
X7052353Y-17660499D01*
X7052353Y-17660499D02*
X7061877Y-17641451D01*
X7061877Y-17641451D02*
X7071401Y-17631928D01*
X7071401Y-17631928D02*
X7090448Y-17622404D01*
X7395210Y-17822404D02*
X7395210Y-17622404D01*
X7480925Y-17822404D02*
X7480925Y-17717642D01*
X7480925Y-17717642D02*
X7471401Y-17698594D01*
X7471401Y-17698594D02*
X7452353Y-17689070D01*
X7452353Y-17689070D02*
X7423782Y-17689070D01*
X7423782Y-17689070D02*
X7404734Y-17698594D01*
X7404734Y-17698594D02*
X7395210Y-17708118D01*
X7604734Y-17822404D02*
X7585687Y-17812880D01*
X7585687Y-17812880D02*
X7576163Y-17803356D01*
X7576163Y-17803356D02*
X7566639Y-17784309D01*
X7566639Y-17784309D02*
X7566639Y-17727166D01*
X7566639Y-17727166D02*
X7576163Y-17708118D01*
X7576163Y-17708118D02*
X7585687Y-17698594D01*
X7585687Y-17698594D02*
X7604734Y-17689070D01*
X7604734Y-17689070D02*
X7633306Y-17689070D01*
X7633306Y-17689070D02*
X7652353Y-17698594D01*
X7652353Y-17698594D02*
X7661877Y-17708118D01*
X7661877Y-17708118D02*
X7671401Y-17727166D01*
X7671401Y-17727166D02*
X7671401Y-17784309D01*
X7671401Y-17784309D02*
X7661877Y-17803356D01*
X7661877Y-17803356D02*
X7652353Y-17812880D01*
X7652353Y-17812880D02*
X7633306Y-17822404D01*
X7633306Y-17822404D02*
X7604734Y-17822404D01*
X7785687Y-17822404D02*
X7766639Y-17812880D01*
X7766639Y-17812880D02*
X7757115Y-17793832D01*
X7757115Y-17793832D02*
X7757115Y-17622404D01*
X7938068Y-17812880D02*
X7919020Y-17822404D01*
X7919020Y-17822404D02*
X7880925Y-17822404D01*
X7880925Y-17822404D02*
X7861877Y-17812880D01*
X7861877Y-17812880D02*
X7852353Y-17793832D01*
X7852353Y-17793832D02*
X7852353Y-17717642D01*
X7852353Y-17717642D02*
X7861877Y-17698594D01*
X7861877Y-17698594D02*
X7880925Y-17689070D01*
X7880925Y-17689070D02*
X7919020Y-17689070D01*
X7919020Y-17689070D02*
X7938068Y-17698594D01*
X7938068Y-17698594D02*
X7947591Y-17717642D01*
X7947591Y-17717642D02*
X7947591Y-17736690D01*
X7947591Y-17736690D02*
X7852353Y-17755737D01*
X8023782Y-17812880D02*
X8042830Y-17822404D01*
X8042830Y-17822404D02*
X8080925Y-17822404D01*
X8080925Y-17822404D02*
X8099972Y-17812880D01*
X8099972Y-17812880D02*
X8109496Y-17793832D01*
X8109496Y-17793832D02*
X8109496Y-17784309D01*
X8109496Y-17784309D02*
X8099972Y-17765261D01*
X8099972Y-17765261D02*
X8080925Y-17755737D01*
X8080925Y-17755737D02*
X8052353Y-17755737D01*
X8052353Y-17755737D02*
X8033306Y-17746213D01*
X8033306Y-17746213D02*
X8023782Y-17727166D01*
X8023782Y-17727166D02*
X8023782Y-17717642D01*
X8023782Y-17717642D02*
X8033306Y-17698594D01*
X8033306Y-17698594D02*
X8052353Y-17689070D01*
X8052353Y-17689070D02*
X8080925Y-17689070D01*
X8080925Y-17689070D02*
X8099972Y-17698594D01*
X8347592Y-17746213D02*
X8499973Y-17746213D01*
X8423782Y-17822404D02*
X8423782Y-17670023D01*
X8738068Y-17641451D02*
X8747592Y-17631928D01*
X8747592Y-17631928D02*
X8766639Y-17622404D01*
X8766639Y-17622404D02*
X8814258Y-17622404D01*
X8814258Y-17622404D02*
X8833306Y-17631928D01*
X8833306Y-17631928D02*
X8842830Y-17641451D01*
X8842830Y-17641451D02*
X8852354Y-17660499D01*
X8852354Y-17660499D02*
X8852354Y-17679547D01*
X8852354Y-17679547D02*
X8842830Y-17708118D01*
X8842830Y-17708118D02*
X8728544Y-17822404D01*
X8728544Y-17822404D02*
X8852354Y-17822404D01*
X9080925Y-17812880D02*
X9099973Y-17822404D01*
X9099973Y-17822404D02*
X9138068Y-17822404D01*
X9138068Y-17822404D02*
X9157116Y-17812880D01*
X9157116Y-17812880D02*
X9166639Y-17793832D01*
X9166639Y-17793832D02*
X9166639Y-17784309D01*
X9166639Y-17784309D02*
X9157116Y-17765261D01*
X9157116Y-17765261D02*
X9138068Y-17755737D01*
X9138068Y-17755737D02*
X9109496Y-17755737D01*
X9109496Y-17755737D02*
X9090449Y-17746213D01*
X9090449Y-17746213D02*
X9080925Y-17727166D01*
X9080925Y-17727166D02*
X9080925Y-17717642D01*
X9080925Y-17717642D02*
X9090449Y-17698594D01*
X9090449Y-17698594D02*
X9109496Y-17689070D01*
X9109496Y-17689070D02*
X9138068Y-17689070D01*
X9138068Y-17689070D02*
X9157116Y-17698594D01*
X9280925Y-17822404D02*
X9261877Y-17812880D01*
X9261877Y-17812880D02*
X9252354Y-17793832D01*
X9252354Y-17793832D02*
X9252354Y-17622404D01*
X9385687Y-17822404D02*
X9366639Y-17812880D01*
X9366639Y-17812880D02*
X9357116Y-17803356D01*
X9357116Y-17803356D02*
X9347592Y-17784309D01*
X9347592Y-17784309D02*
X9347592Y-17727166D01*
X9347592Y-17727166D02*
X9357116Y-17708118D01*
X9357116Y-17708118D02*
X9366639Y-17698594D01*
X9366639Y-17698594D02*
X9385687Y-17689070D01*
X9385687Y-17689070D02*
X9414258Y-17689070D01*
X9414258Y-17689070D02*
X9433306Y-17698594D01*
X9433306Y-17698594D02*
X9442830Y-17708118D01*
X9442830Y-17708118D02*
X9452354Y-17727166D01*
X9452354Y-17727166D02*
X9452354Y-17784309D01*
X9452354Y-17784309D02*
X9442830Y-17803356D01*
X9442830Y-17803356D02*
X9433306Y-17812880D01*
X9433306Y-17812880D02*
X9414258Y-17822404D01*
X9414258Y-17822404D02*
X9385687Y-17822404D01*
X9509497Y-17689070D02*
X9585687Y-17689070D01*
X9538068Y-17622404D02*
X9538068Y-17793832D01*
X9538068Y-17793832D02*
X9547592Y-17812880D01*
X9547592Y-17812880D02*
X9566639Y-17822404D01*
X9566639Y-17822404D02*
X9585687Y-17822404D01*
X9642830Y-17812880D02*
X9661877Y-17822404D01*
X9661877Y-17822404D02*
X9699973Y-17822404D01*
X9699973Y-17822404D02*
X9719020Y-17812880D01*
X9719020Y-17812880D02*
X9728544Y-17793832D01*
X9728544Y-17793832D02*
X9728544Y-17784309D01*
X9728544Y-17784309D02*
X9719020Y-17765261D01*
X9719020Y-17765261D02*
X9699973Y-17755737D01*
X9699973Y-17755737D02*
X9671401Y-17755737D01*
X9671401Y-17755737D02*
X9652354Y-17746213D01*
X9652354Y-17746213D02*
X9642830Y-17727166D01*
X9642830Y-17727166D02*
X9642830Y-17717642D01*
X9642830Y-17717642D02*
X9652354Y-17698594D01*
X9652354Y-17698594D02*
X9671401Y-17689070D01*
X9671401Y-17689070D02*
X9699973Y-17689070D01*
X9699973Y-17689070D02*
X9719020Y-17698594D01*
X9795211Y-17898594D02*
X9804735Y-17889070D01*
X9804735Y-17889070D02*
X9823782Y-17860499D01*
X9823782Y-17860499D02*
X9833306Y-17841451D01*
X9833306Y-17841451D02*
X9842830Y-17812880D01*
X9842830Y-17812880D02*
X9852354Y-17765261D01*
X9852354Y-17765261D02*
X9852354Y-17727166D01*
X9852354Y-17727166D02*
X9842830Y-17679547D01*
X9842830Y-17679547D02*
X9833306Y-17650975D01*
X9833306Y-17650975D02*
X9823782Y-17631928D01*
X9823782Y-17631928D02*
X9804735Y-17603356D01*
X9804735Y-17603356D02*
X9795211Y-17593832D01*
X3301100Y-18150920D02*
X3401100Y-18050920D01*
X3301100Y-17950920D01*
X3201100Y-18050920D01*
X3301100Y-18150920D01*
X3401100Y-18050920D02*
G75*
G02*
X3201100Y-18050920I-100000J0D01*
G01*
X3201100Y-18050920D02*
G75*
G02*
X3401100Y-18050920I100000J0D01*
G01*
X3652353Y-17961451D02*
X3661877Y-17951928D01*
X3661877Y-17951928D02*
X3680924Y-17942404D01*
X3680924Y-17942404D02*
X3728543Y-17942404D01*
X3728543Y-17942404D02*
X3747591Y-17951928D01*
X3747591Y-17951928D02*
X3757115Y-17961451D01*
X3757115Y-17961451D02*
X3766639Y-17980499D01*
X3766639Y-17980499D02*
X3766639Y-17999547D01*
X3766639Y-17999547D02*
X3757115Y-18028118D01*
X3757115Y-18028118D02*
X3642829Y-18142404D01*
X3642829Y-18142404D02*
X3766639Y-18142404D01*
X3852353Y-18123356D02*
X3861877Y-18132880D01*
X3861877Y-18132880D02*
X3852353Y-18142404D01*
X3852353Y-18142404D02*
X3842829Y-18132880D01*
X3842829Y-18132880D02*
X3852353Y-18123356D01*
X3852353Y-18123356D02*
X3852353Y-18142404D01*
X3928543Y-17942404D02*
X4052353Y-17942404D01*
X4052353Y-17942404D02*
X3985686Y-18018594D01*
X3985686Y-18018594D02*
X4014258Y-18018594D01*
X4014258Y-18018594D02*
X4033305Y-18028118D01*
X4033305Y-18028118D02*
X4042829Y-18037642D01*
X4042829Y-18037642D02*
X4052353Y-18056690D01*
X4052353Y-18056690D02*
X4052353Y-18104309D01*
X4052353Y-18104309D02*
X4042829Y-18123356D01*
X4042829Y-18123356D02*
X4033305Y-18132880D01*
X4033305Y-18132880D02*
X4014258Y-18142404D01*
X4014258Y-18142404D02*
X3957115Y-18142404D01*
X3957115Y-18142404D02*
X3938067Y-18132880D01*
X3938067Y-18132880D02*
X3928543Y-18123356D01*
X4176162Y-17942404D02*
X4195210Y-17942404D01*
X4195210Y-17942404D02*
X4214258Y-17951928D01*
X4214258Y-17951928D02*
X4223782Y-17961451D01*
X4223782Y-17961451D02*
X4233305Y-17980499D01*
X4233305Y-17980499D02*
X4242829Y-18018594D01*
X4242829Y-18018594D02*
X4242829Y-18066213D01*
X4242829Y-18066213D02*
X4233305Y-18104309D01*
X4233305Y-18104309D02*
X4223782Y-18123356D01*
X4223782Y-18123356D02*
X4214258Y-18132880D01*
X4214258Y-18132880D02*
X4195210Y-18142404D01*
X4195210Y-18142404D02*
X4176162Y-18142404D01*
X4176162Y-18142404D02*
X4157115Y-18132880D01*
X4157115Y-18132880D02*
X4147591Y-18123356D01*
X4147591Y-18123356D02*
X4138067Y-18104309D01*
X4138067Y-18104309D02*
X4128543Y-18066213D01*
X4128543Y-18066213D02*
X4128543Y-18018594D01*
X4128543Y-18018594D02*
X4138067Y-17980499D01*
X4138067Y-17980499D02*
X4147591Y-17961451D01*
X4147591Y-17961451D02*
X4157115Y-17951928D01*
X4157115Y-17951928D02*
X4176162Y-17942404D01*
X4366639Y-17942404D02*
X4385686Y-17942404D01*
X4385686Y-17942404D02*
X4404734Y-17951928D01*
X4404734Y-17951928D02*
X4414258Y-17961451D01*
X4414258Y-17961451D02*
X4423782Y-17980499D01*
X4423782Y-17980499D02*
X4433305Y-18018594D01*
X4433305Y-18018594D02*
X4433305Y-18066213D01*
X4433305Y-18066213D02*
X4423782Y-18104309D01*
X4423782Y-18104309D02*
X4414258Y-18123356D01*
X4414258Y-18123356D02*
X4404734Y-18132880D01*
X4404734Y-18132880D02*
X4385686Y-18142404D01*
X4385686Y-18142404D02*
X4366639Y-18142404D01*
X4366639Y-18142404D02*
X4347591Y-18132880D01*
X4347591Y-18132880D02*
X4338067Y-18123356D01*
X4338067Y-18123356D02*
X4328544Y-18104309D01*
X4328544Y-18104309D02*
X4319020Y-18066213D01*
X4319020Y-18066213D02*
X4319020Y-18018594D01*
X4319020Y-18018594D02*
X4328544Y-17980499D01*
X4328544Y-17980499D02*
X4338067Y-17961451D01*
X4338067Y-17961451D02*
X4347591Y-17951928D01*
X4347591Y-17951928D02*
X4366639Y-17942404D01*
X4519020Y-18142404D02*
X4519020Y-18009070D01*
X4519020Y-18028118D02*
X4528544Y-18018594D01*
X4528544Y-18018594D02*
X4547591Y-18009070D01*
X4547591Y-18009070D02*
X4576163Y-18009070D01*
X4576163Y-18009070D02*
X4595210Y-18018594D01*
X4595210Y-18018594D02*
X4604734Y-18037642D01*
X4604734Y-18037642D02*
X4604734Y-18142404D01*
X4604734Y-18037642D02*
X4614258Y-18018594D01*
X4614258Y-18018594D02*
X4633305Y-18009070D01*
X4633305Y-18009070D02*
X4661877Y-18009070D01*
X4661877Y-18009070D02*
X4680925Y-18018594D01*
X4680925Y-18018594D02*
X4690448Y-18037642D01*
X4690448Y-18037642D02*
X4690448Y-18142404D01*
X4785686Y-18142404D02*
X4785686Y-18009070D01*
X4785686Y-18028118D02*
X4795210Y-18018594D01*
X4795210Y-18018594D02*
X4814258Y-18009070D01*
X4814258Y-18009070D02*
X4842829Y-18009070D01*
X4842829Y-18009070D02*
X4861877Y-18018594D01*
X4861877Y-18018594D02*
X4871401Y-18037642D01*
X4871401Y-18037642D02*
X4871401Y-18142404D01*
X4871401Y-18037642D02*
X4880925Y-18018594D01*
X4880925Y-18018594D02*
X4899972Y-18009070D01*
X4899972Y-18009070D02*
X4928544Y-18009070D01*
X4928544Y-18009070D02*
X4947591Y-18018594D01*
X4947591Y-18018594D02*
X4957115Y-18037642D01*
X4957115Y-18037642D02*
X4957115Y-18142404D01*
X5347591Y-17932880D02*
X5176163Y-18190023D01*
X5604734Y-17942404D02*
X5623782Y-17942404D01*
X5623782Y-17942404D02*
X5642829Y-17951928D01*
X5642829Y-17951928D02*
X5652353Y-17961451D01*
X5652353Y-17961451D02*
X5661877Y-17980499D01*
X5661877Y-17980499D02*
X5671401Y-18018594D01*
X5671401Y-18018594D02*
X5671401Y-18066213D01*
X5671401Y-18066213D02*
X5661877Y-18104309D01*
X5661877Y-18104309D02*
X5652353Y-18123356D01*
X5652353Y-18123356D02*
X5642829Y-18132880D01*
X5642829Y-18132880D02*
X5623782Y-18142404D01*
X5623782Y-18142404D02*
X5604734Y-18142404D01*
X5604734Y-18142404D02*
X5585687Y-18132880D01*
X5585687Y-18132880D02*
X5576163Y-18123356D01*
X5576163Y-18123356D02*
X5566639Y-18104309D01*
X5566639Y-18104309D02*
X5557115Y-18066213D01*
X5557115Y-18066213D02*
X5557115Y-18018594D01*
X5557115Y-18018594D02*
X5566639Y-17980499D01*
X5566639Y-17980499D02*
X5576163Y-17961451D01*
X5576163Y-17961451D02*
X5585687Y-17951928D01*
X5585687Y-17951928D02*
X5604734Y-17942404D01*
X5757115Y-18123356D02*
X5766639Y-18132880D01*
X5766639Y-18132880D02*
X5757115Y-18142404D01*
X5757115Y-18142404D02*
X5747591Y-18132880D01*
X5747591Y-18132880D02*
X5757115Y-18123356D01*
X5757115Y-18123356D02*
X5757115Y-18142404D01*
X5890448Y-17942404D02*
X5909496Y-17942404D01*
X5909496Y-17942404D02*
X5928544Y-17951928D01*
X5928544Y-17951928D02*
X5938067Y-17961451D01*
X5938067Y-17961451D02*
X5947591Y-17980499D01*
X5947591Y-17980499D02*
X5957115Y-18018594D01*
X5957115Y-18018594D02*
X5957115Y-18066213D01*
X5957115Y-18066213D02*
X5947591Y-18104309D01*
X5947591Y-18104309D02*
X5938067Y-18123356D01*
X5938067Y-18123356D02*
X5928544Y-18132880D01*
X5928544Y-18132880D02*
X5909496Y-18142404D01*
X5909496Y-18142404D02*
X5890448Y-18142404D01*
X5890448Y-18142404D02*
X5871401Y-18132880D01*
X5871401Y-18132880D02*
X5861877Y-18123356D01*
X5861877Y-18123356D02*
X5852353Y-18104309D01*
X5852353Y-18104309D02*
X5842829Y-18066213D01*
X5842829Y-18066213D02*
X5842829Y-18018594D01*
X5842829Y-18018594D02*
X5852353Y-17980499D01*
X5852353Y-17980499D02*
X5861877Y-17961451D01*
X5861877Y-17961451D02*
X5871401Y-17951928D01*
X5871401Y-17951928D02*
X5890448Y-17942404D01*
X6052353Y-18142404D02*
X6090448Y-18142404D01*
X6090448Y-18142404D02*
X6109496Y-18132880D01*
X6109496Y-18132880D02*
X6119020Y-18123356D01*
X6119020Y-18123356D02*
X6138067Y-18094785D01*
X6138067Y-18094785D02*
X6147591Y-18056690D01*
X6147591Y-18056690D02*
X6147591Y-17980499D01*
X6147591Y-17980499D02*
X6138067Y-17961451D01*
X6138067Y-17961451D02*
X6128544Y-17951928D01*
X6128544Y-17951928D02*
X6109496Y-17942404D01*
X6109496Y-17942404D02*
X6071401Y-17942404D01*
X6071401Y-17942404D02*
X6052353Y-17951928D01*
X6052353Y-17951928D02*
X6042829Y-17961451D01*
X6042829Y-17961451D02*
X6033306Y-17980499D01*
X6033306Y-17980499D02*
X6033306Y-18028118D01*
X6033306Y-18028118D02*
X6042829Y-18047166D01*
X6042829Y-18047166D02*
X6052353Y-18056690D01*
X6052353Y-18056690D02*
X6071401Y-18066213D01*
X6071401Y-18066213D02*
X6109496Y-18066213D01*
X6109496Y-18066213D02*
X6128544Y-18056690D01*
X6128544Y-18056690D02*
X6138067Y-18047166D01*
X6138067Y-18047166D02*
X6147591Y-18028118D01*
X6271401Y-17942404D02*
X6290448Y-17942404D01*
X6290448Y-17942404D02*
X6309496Y-17951928D01*
X6309496Y-17951928D02*
X6319020Y-17961451D01*
X6319020Y-17961451D02*
X6328544Y-17980499D01*
X6328544Y-17980499D02*
X6338067Y-18018594D01*
X6338067Y-18018594D02*
X6338067Y-18066213D01*
X6338067Y-18066213D02*
X6328544Y-18104309D01*
X6328544Y-18104309D02*
X6319020Y-18123356D01*
X6319020Y-18123356D02*
X6309496Y-18132880D01*
X6309496Y-18132880D02*
X6290448Y-18142404D01*
X6290448Y-18142404D02*
X6271401Y-18142404D01*
X6271401Y-18142404D02*
X6252353Y-18132880D01*
X6252353Y-18132880D02*
X6242829Y-18123356D01*
X6242829Y-18123356D02*
X6233306Y-18104309D01*
X6233306Y-18104309D02*
X6223782Y-18066213D01*
X6223782Y-18066213D02*
X6223782Y-18018594D01*
X6223782Y-18018594D02*
X6233306Y-17980499D01*
X6233306Y-17980499D02*
X6242829Y-17961451D01*
X6242829Y-17961451D02*
X6252353Y-17951928D01*
X6252353Y-17951928D02*
X6271401Y-17942404D01*
X6509496Y-17942404D02*
X6471401Y-17942404D01*
X6471401Y-17942404D02*
X6452353Y-17951928D01*
X6452353Y-17951928D02*
X6442829Y-17961451D01*
X6442829Y-17961451D02*
X6423782Y-17990023D01*
X6423782Y-17990023D02*
X6414258Y-18028118D01*
X6414258Y-18028118D02*
X6414258Y-18104309D01*
X6414258Y-18104309D02*
X6423782Y-18123356D01*
X6423782Y-18123356D02*
X6433306Y-18132880D01*
X6433306Y-18132880D02*
X6452353Y-18142404D01*
X6452353Y-18142404D02*
X6490448Y-18142404D01*
X6490448Y-18142404D02*
X6509496Y-18132880D01*
X6509496Y-18132880D02*
X6519020Y-18123356D01*
X6519020Y-18123356D02*
X6528544Y-18104309D01*
X6528544Y-18104309D02*
X6528544Y-18056690D01*
X6528544Y-18056690D02*
X6519020Y-18037642D01*
X6519020Y-18037642D02*
X6509496Y-18028118D01*
X6509496Y-18028118D02*
X6490448Y-18018594D01*
X6490448Y-18018594D02*
X6452353Y-18018594D01*
X6452353Y-18018594D02*
X6433306Y-18028118D01*
X6433306Y-18028118D02*
X6423782Y-18037642D01*
X6423782Y-18037642D02*
X6414258Y-18056690D01*
X6604734Y-17942404D02*
X6604734Y-17980499D01*
X6680925Y-17942404D02*
X6680925Y-17980499D01*
X6976163Y-18218594D02*
X6966639Y-18209070D01*
X6966639Y-18209070D02*
X6947591Y-18180499D01*
X6947591Y-18180499D02*
X6938068Y-18161451D01*
X6938068Y-18161451D02*
X6928544Y-18132880D01*
X6928544Y-18132880D02*
X6919020Y-18085261D01*
X6919020Y-18085261D02*
X6919020Y-18047166D01*
X6919020Y-18047166D02*
X6928544Y-17999547D01*
X6928544Y-17999547D02*
X6938068Y-17970975D01*
X6938068Y-17970975D02*
X6947591Y-17951928D01*
X6947591Y-17951928D02*
X6966639Y-17923356D01*
X6966639Y-17923356D02*
X6976163Y-17913832D01*
X7042829Y-17961451D02*
X7052353Y-17951928D01*
X7052353Y-17951928D02*
X7071401Y-17942404D01*
X7071401Y-17942404D02*
X7119020Y-17942404D01*
X7119020Y-17942404D02*
X7138068Y-17951928D01*
X7138068Y-17951928D02*
X7147591Y-17961451D01*
X7147591Y-17961451D02*
X7157115Y-17980499D01*
X7157115Y-17980499D02*
X7157115Y-17999547D01*
X7157115Y-17999547D02*
X7147591Y-18028118D01*
X7147591Y-18028118D02*
X7033306Y-18142404D01*
X7033306Y-18142404D02*
X7157115Y-18142404D01*
X7395210Y-18142404D02*
X7395210Y-17942404D01*
X7480925Y-18142404D02*
X7480925Y-18037642D01*
X7480925Y-18037642D02*
X7471401Y-18018594D01*
X7471401Y-18018594D02*
X7452353Y-18009070D01*
X7452353Y-18009070D02*
X7423782Y-18009070D01*
X7423782Y-18009070D02*
X7404734Y-18018594D01*
X7404734Y-18018594D02*
X7395210Y-18028118D01*
X7604734Y-18142404D02*
X7585687Y-18132880D01*
X7585687Y-18132880D02*
X7576163Y-18123356D01*
X7576163Y-18123356D02*
X7566639Y-18104309D01*
X7566639Y-18104309D02*
X7566639Y-18047166D01*
X7566639Y-18047166D02*
X7576163Y-18028118D01*
X7576163Y-18028118D02*
X7585687Y-18018594D01*
X7585687Y-18018594D02*
X7604734Y-18009070D01*
X7604734Y-18009070D02*
X7633306Y-18009070D01*
X7633306Y-18009070D02*
X7652353Y-18018594D01*
X7652353Y-18018594D02*
X7661877Y-18028118D01*
X7661877Y-18028118D02*
X7671401Y-18047166D01*
X7671401Y-18047166D02*
X7671401Y-18104309D01*
X7671401Y-18104309D02*
X7661877Y-18123356D01*
X7661877Y-18123356D02*
X7652353Y-18132880D01*
X7652353Y-18132880D02*
X7633306Y-18142404D01*
X7633306Y-18142404D02*
X7604734Y-18142404D01*
X7785687Y-18142404D02*
X7766639Y-18132880D01*
X7766639Y-18132880D02*
X7757115Y-18113832D01*
X7757115Y-18113832D02*
X7757115Y-17942404D01*
X7938068Y-18132880D02*
X7919020Y-18142404D01*
X7919020Y-18142404D02*
X7880925Y-18142404D01*
X7880925Y-18142404D02*
X7861877Y-18132880D01*
X7861877Y-18132880D02*
X7852353Y-18113832D01*
X7852353Y-18113832D02*
X7852353Y-18037642D01*
X7852353Y-18037642D02*
X7861877Y-18018594D01*
X7861877Y-18018594D02*
X7880925Y-18009070D01*
X7880925Y-18009070D02*
X7919020Y-18009070D01*
X7919020Y-18009070D02*
X7938068Y-18018594D01*
X7938068Y-18018594D02*
X7947591Y-18037642D01*
X7947591Y-18037642D02*
X7947591Y-18056690D01*
X7947591Y-18056690D02*
X7852353Y-18075737D01*
X8023782Y-18132880D02*
X8042830Y-18142404D01*
X8042830Y-18142404D02*
X8080925Y-18142404D01*
X8080925Y-18142404D02*
X8099972Y-18132880D01*
X8099972Y-18132880D02*
X8109496Y-18113832D01*
X8109496Y-18113832D02*
X8109496Y-18104309D01*
X8109496Y-18104309D02*
X8099972Y-18085261D01*
X8099972Y-18085261D02*
X8080925Y-18075737D01*
X8080925Y-18075737D02*
X8052353Y-18075737D01*
X8052353Y-18075737D02*
X8033306Y-18066213D01*
X8033306Y-18066213D02*
X8023782Y-18047166D01*
X8023782Y-18047166D02*
X8023782Y-18037642D01*
X8023782Y-18037642D02*
X8033306Y-18018594D01*
X8033306Y-18018594D02*
X8052353Y-18009070D01*
X8052353Y-18009070D02*
X8080925Y-18009070D01*
X8080925Y-18009070D02*
X8099972Y-18018594D01*
X8176163Y-18218594D02*
X8185687Y-18209070D01*
X8185687Y-18209070D02*
X8204734Y-18180499D01*
X8204734Y-18180499D02*
X8214258Y-18161451D01*
X8214258Y-18161451D02*
X8223782Y-18132880D01*
X8223782Y-18132880D02*
X8233306Y-18085261D01*
X8233306Y-18085261D02*
X8233306Y-18047166D01*
X8233306Y-18047166D02*
X8223782Y-17999547D01*
X8223782Y-17999547D02*
X8214258Y-17970975D01*
X8214258Y-17970975D02*
X8204734Y-17951928D01*
X8204734Y-17951928D02*
X8185687Y-17923356D01*
X8185687Y-17923356D02*
X8176163Y-17913832D01*
X3301100Y-18270920D02*
X3301100Y-18470920D01*
X3201100Y-18370920D02*
X3401100Y-18370920D01*
X3371811Y-18441631D02*
X3371811Y-18300209D01*
X3230389Y-18300209D01*
X3230389Y-18441631D01*
X3371811Y-18441631D01*
X3747591Y-18262404D02*
X3709496Y-18262404D01*
X3709496Y-18262404D02*
X3690448Y-18271928D01*
X3690448Y-18271928D02*
X3680924Y-18281451D01*
X3680924Y-18281451D02*
X3661877Y-18310023D01*
X3661877Y-18310023D02*
X3652353Y-18348118D01*
X3652353Y-18348118D02*
X3652353Y-18424309D01*
X3652353Y-18424309D02*
X3661877Y-18443356D01*
X3661877Y-18443356D02*
X3671401Y-18452880D01*
X3671401Y-18452880D02*
X3690448Y-18462404D01*
X3690448Y-18462404D02*
X3728543Y-18462404D01*
X3728543Y-18462404D02*
X3747591Y-18452880D01*
X3747591Y-18452880D02*
X3757115Y-18443356D01*
X3757115Y-18443356D02*
X3766639Y-18424309D01*
X3766639Y-18424309D02*
X3766639Y-18376690D01*
X3766639Y-18376690D02*
X3757115Y-18357642D01*
X3757115Y-18357642D02*
X3747591Y-18348118D01*
X3747591Y-18348118D02*
X3728543Y-18338594D01*
X3728543Y-18338594D02*
X3690448Y-18338594D01*
X3690448Y-18338594D02*
X3671401Y-18348118D01*
X3671401Y-18348118D02*
X3661877Y-18357642D01*
X3661877Y-18357642D02*
X3652353Y-18376690D01*
X3852353Y-18443356D02*
X3861877Y-18452880D01*
X3861877Y-18452880D02*
X3852353Y-18462404D01*
X3852353Y-18462404D02*
X3842829Y-18452880D01*
X3842829Y-18452880D02*
X3852353Y-18443356D01*
X3852353Y-18443356D02*
X3852353Y-18462404D01*
X4033305Y-18329070D02*
X4033305Y-18462404D01*
X3985686Y-18252880D02*
X3938067Y-18395737D01*
X3938067Y-18395737D02*
X4061877Y-18395737D01*
X4176162Y-18262404D02*
X4195210Y-18262404D01*
X4195210Y-18262404D02*
X4214258Y-18271928D01*
X4214258Y-18271928D02*
X4223782Y-18281451D01*
X4223782Y-18281451D02*
X4233305Y-18300499D01*
X4233305Y-18300499D02*
X4242829Y-18338594D01*
X4242829Y-18338594D02*
X4242829Y-18386213D01*
X4242829Y-18386213D02*
X4233305Y-18424309D01*
X4233305Y-18424309D02*
X4223782Y-18443356D01*
X4223782Y-18443356D02*
X4214258Y-18452880D01*
X4214258Y-18452880D02*
X4195210Y-18462404D01*
X4195210Y-18462404D02*
X4176162Y-18462404D01*
X4176162Y-18462404D02*
X4157115Y-18452880D01*
X4157115Y-18452880D02*
X4147591Y-18443356D01*
X4147591Y-18443356D02*
X4138067Y-18424309D01*
X4138067Y-18424309D02*
X4128543Y-18386213D01*
X4128543Y-18386213D02*
X4128543Y-18338594D01*
X4128543Y-18338594D02*
X4138067Y-18300499D01*
X4138067Y-18300499D02*
X4147591Y-18281451D01*
X4147591Y-18281451D02*
X4157115Y-18271928D01*
X4157115Y-18271928D02*
X4176162Y-18262404D01*
X4366639Y-18262404D02*
X4385686Y-18262404D01*
X4385686Y-18262404D02*
X4404734Y-18271928D01*
X4404734Y-18271928D02*
X4414258Y-18281451D01*
X4414258Y-18281451D02*
X4423782Y-18300499D01*
X4423782Y-18300499D02*
X4433305Y-18338594D01*
X4433305Y-18338594D02*
X4433305Y-18386213D01*
X4433305Y-18386213D02*
X4423782Y-18424309D01*
X4423782Y-18424309D02*
X4414258Y-18443356D01*
X4414258Y-18443356D02*
X4404734Y-18452880D01*
X4404734Y-18452880D02*
X4385686Y-18462404D01*
X4385686Y-18462404D02*
X4366639Y-18462404D01*
X4366639Y-18462404D02*
X4347591Y-18452880D01*
X4347591Y-18452880D02*
X4338067Y-18443356D01*
X4338067Y-18443356D02*
X4328544Y-18424309D01*
X4328544Y-18424309D02*
X4319020Y-18386213D01*
X4319020Y-18386213D02*
X4319020Y-18338594D01*
X4319020Y-18338594D02*
X4328544Y-18300499D01*
X4328544Y-18300499D02*
X4338067Y-18281451D01*
X4338067Y-18281451D02*
X4347591Y-18271928D01*
X4347591Y-18271928D02*
X4366639Y-18262404D01*
X4519020Y-18462404D02*
X4519020Y-18329070D01*
X4519020Y-18348118D02*
X4528544Y-18338594D01*
X4528544Y-18338594D02*
X4547591Y-18329070D01*
X4547591Y-18329070D02*
X4576163Y-18329070D01*
X4576163Y-18329070D02*
X4595210Y-18338594D01*
X4595210Y-18338594D02*
X4604734Y-18357642D01*
X4604734Y-18357642D02*
X4604734Y-18462404D01*
X4604734Y-18357642D02*
X4614258Y-18338594D01*
X4614258Y-18338594D02*
X4633305Y-18329070D01*
X4633305Y-18329070D02*
X4661877Y-18329070D01*
X4661877Y-18329070D02*
X4680925Y-18338594D01*
X4680925Y-18338594D02*
X4690448Y-18357642D01*
X4690448Y-18357642D02*
X4690448Y-18462404D01*
X4785686Y-18462404D02*
X4785686Y-18329070D01*
X4785686Y-18348118D02*
X4795210Y-18338594D01*
X4795210Y-18338594D02*
X4814258Y-18329070D01*
X4814258Y-18329070D02*
X4842829Y-18329070D01*
X4842829Y-18329070D02*
X4861877Y-18338594D01*
X4861877Y-18338594D02*
X4871401Y-18357642D01*
X4871401Y-18357642D02*
X4871401Y-18462404D01*
X4871401Y-18357642D02*
X4880925Y-18338594D01*
X4880925Y-18338594D02*
X4899972Y-18329070D01*
X4899972Y-18329070D02*
X4928544Y-18329070D01*
X4928544Y-18329070D02*
X4947591Y-18338594D01*
X4947591Y-18338594D02*
X4957115Y-18357642D01*
X4957115Y-18357642D02*
X4957115Y-18462404D01*
X5347591Y-18252880D02*
X5176163Y-18510023D01*
X5604734Y-18262404D02*
X5623782Y-18262404D01*
X5623782Y-18262404D02*
X5642829Y-18271928D01*
X5642829Y-18271928D02*
X5652353Y-18281451D01*
X5652353Y-18281451D02*
X5661877Y-18300499D01*
X5661877Y-18300499D02*
X5671401Y-18338594D01*
X5671401Y-18338594D02*
X5671401Y-18386213D01*
X5671401Y-18386213D02*
X5661877Y-18424309D01*
X5661877Y-18424309D02*
X5652353Y-18443356D01*
X5652353Y-18443356D02*
X5642829Y-18452880D01*
X5642829Y-18452880D02*
X5623782Y-18462404D01*
X5623782Y-18462404D02*
X5604734Y-18462404D01*
X5604734Y-18462404D02*
X5585687Y-18452880D01*
X5585687Y-18452880D02*
X5576163Y-18443356D01*
X5576163Y-18443356D02*
X5566639Y-18424309D01*
X5566639Y-18424309D02*
X5557115Y-18386213D01*
X5557115Y-18386213D02*
X5557115Y-18338594D01*
X5557115Y-18338594D02*
X5566639Y-18300499D01*
X5566639Y-18300499D02*
X5576163Y-18281451D01*
X5576163Y-18281451D02*
X5585687Y-18271928D01*
X5585687Y-18271928D02*
X5604734Y-18262404D01*
X5757115Y-18443356D02*
X5766639Y-18452880D01*
X5766639Y-18452880D02*
X5757115Y-18462404D01*
X5757115Y-18462404D02*
X5747591Y-18452880D01*
X5747591Y-18452880D02*
X5757115Y-18443356D01*
X5757115Y-18443356D02*
X5757115Y-18462404D01*
X5842829Y-18281451D02*
X5852353Y-18271928D01*
X5852353Y-18271928D02*
X5871401Y-18262404D01*
X5871401Y-18262404D02*
X5919020Y-18262404D01*
X5919020Y-18262404D02*
X5938067Y-18271928D01*
X5938067Y-18271928D02*
X5947591Y-18281451D01*
X5947591Y-18281451D02*
X5957115Y-18300499D01*
X5957115Y-18300499D02*
X5957115Y-18319547D01*
X5957115Y-18319547D02*
X5947591Y-18348118D01*
X5947591Y-18348118D02*
X5833306Y-18462404D01*
X5833306Y-18462404D02*
X5957115Y-18462404D01*
X6138067Y-18262404D02*
X6042829Y-18262404D01*
X6042829Y-18262404D02*
X6033306Y-18357642D01*
X6033306Y-18357642D02*
X6042829Y-18348118D01*
X6042829Y-18348118D02*
X6061877Y-18338594D01*
X6061877Y-18338594D02*
X6109496Y-18338594D01*
X6109496Y-18338594D02*
X6128544Y-18348118D01*
X6128544Y-18348118D02*
X6138067Y-18357642D01*
X6138067Y-18357642D02*
X6147591Y-18376690D01*
X6147591Y-18376690D02*
X6147591Y-18424309D01*
X6147591Y-18424309D02*
X6138067Y-18443356D01*
X6138067Y-18443356D02*
X6128544Y-18452880D01*
X6128544Y-18452880D02*
X6109496Y-18462404D01*
X6109496Y-18462404D02*
X6061877Y-18462404D01*
X6061877Y-18462404D02*
X6042829Y-18452880D01*
X6042829Y-18452880D02*
X6033306Y-18443356D01*
X6223782Y-18281451D02*
X6233306Y-18271928D01*
X6233306Y-18271928D02*
X6252353Y-18262404D01*
X6252353Y-18262404D02*
X6299972Y-18262404D01*
X6299972Y-18262404D02*
X6319020Y-18271928D01*
X6319020Y-18271928D02*
X6328544Y-18281451D01*
X6328544Y-18281451D02*
X6338067Y-18300499D01*
X6338067Y-18300499D02*
X6338067Y-18319547D01*
X6338067Y-18319547D02*
X6328544Y-18348118D01*
X6328544Y-18348118D02*
X6214258Y-18462404D01*
X6214258Y-18462404D02*
X6338067Y-18462404D01*
X6461877Y-18262404D02*
X6480925Y-18262404D01*
X6480925Y-18262404D02*
X6499972Y-18271928D01*
X6499972Y-18271928D02*
X6509496Y-18281451D01*
X6509496Y-18281451D02*
X6519020Y-18300499D01*
X6519020Y-18300499D02*
X6528544Y-18338594D01*
X6528544Y-18338594D02*
X6528544Y-18386213D01*
X6528544Y-18386213D02*
X6519020Y-18424309D01*
X6519020Y-18424309D02*
X6509496Y-18443356D01*
X6509496Y-18443356D02*
X6499972Y-18452880D01*
X6499972Y-18452880D02*
X6480925Y-18462404D01*
X6480925Y-18462404D02*
X6461877Y-18462404D01*
X6461877Y-18462404D02*
X6442829Y-18452880D01*
X6442829Y-18452880D02*
X6433306Y-18443356D01*
X6433306Y-18443356D02*
X6423782Y-18424309D01*
X6423782Y-18424309D02*
X6414258Y-18386213D01*
X6414258Y-18386213D02*
X6414258Y-18338594D01*
X6414258Y-18338594D02*
X6423782Y-18300499D01*
X6423782Y-18300499D02*
X6433306Y-18281451D01*
X6433306Y-18281451D02*
X6442829Y-18271928D01*
X6442829Y-18271928D02*
X6461877Y-18262404D01*
X6604734Y-18262404D02*
X6604734Y-18300499D01*
X6680925Y-18262404D02*
X6680925Y-18300499D01*
X6976163Y-18538594D02*
X6966639Y-18529070D01*
X6966639Y-18529070D02*
X6947591Y-18500499D01*
X6947591Y-18500499D02*
X6938068Y-18481451D01*
X6938068Y-18481451D02*
X6928544Y-18452880D01*
X6928544Y-18452880D02*
X6919020Y-18405261D01*
X6919020Y-18405261D02*
X6919020Y-18367166D01*
X6919020Y-18367166D02*
X6928544Y-18319547D01*
X6928544Y-18319547D02*
X6938068Y-18290975D01*
X6938068Y-18290975D02*
X6947591Y-18271928D01*
X6947591Y-18271928D02*
X6966639Y-18243356D01*
X6966639Y-18243356D02*
X6976163Y-18233832D01*
X7138068Y-18329070D02*
X7138068Y-18462404D01*
X7090448Y-18252880D02*
X7042829Y-18395737D01*
X7042829Y-18395737D02*
X7166639Y-18395737D01*
X7395210Y-18462404D02*
X7395210Y-18262404D01*
X7480925Y-18462404D02*
X7480925Y-18357642D01*
X7480925Y-18357642D02*
X7471401Y-18338594D01*
X7471401Y-18338594D02*
X7452353Y-18329070D01*
X7452353Y-18329070D02*
X7423782Y-18329070D01*
X7423782Y-18329070D02*
X7404734Y-18338594D01*
X7404734Y-18338594D02*
X7395210Y-18348118D01*
X7604734Y-18462404D02*
X7585687Y-18452880D01*
X7585687Y-18452880D02*
X7576163Y-18443356D01*
X7576163Y-18443356D02*
X7566639Y-18424309D01*
X7566639Y-18424309D02*
X7566639Y-18367166D01*
X7566639Y-18367166D02*
X7576163Y-18348118D01*
X7576163Y-18348118D02*
X7585687Y-18338594D01*
X7585687Y-18338594D02*
X7604734Y-18329070D01*
X7604734Y-18329070D02*
X7633306Y-18329070D01*
X7633306Y-18329070D02*
X7652353Y-18338594D01*
X7652353Y-18338594D02*
X7661877Y-18348118D01*
X7661877Y-18348118D02*
X7671401Y-18367166D01*
X7671401Y-18367166D02*
X7671401Y-18424309D01*
X7671401Y-18424309D02*
X7661877Y-18443356D01*
X7661877Y-18443356D02*
X7652353Y-18452880D01*
X7652353Y-18452880D02*
X7633306Y-18462404D01*
X7633306Y-18462404D02*
X7604734Y-18462404D01*
X7785687Y-18462404D02*
X7766639Y-18452880D01*
X7766639Y-18452880D02*
X7757115Y-18433832D01*
X7757115Y-18433832D02*
X7757115Y-18262404D01*
X7938068Y-18452880D02*
X7919020Y-18462404D01*
X7919020Y-18462404D02*
X7880925Y-18462404D01*
X7880925Y-18462404D02*
X7861877Y-18452880D01*
X7861877Y-18452880D02*
X7852353Y-18433832D01*
X7852353Y-18433832D02*
X7852353Y-18357642D01*
X7852353Y-18357642D02*
X7861877Y-18338594D01*
X7861877Y-18338594D02*
X7880925Y-18329070D01*
X7880925Y-18329070D02*
X7919020Y-18329070D01*
X7919020Y-18329070D02*
X7938068Y-18338594D01*
X7938068Y-18338594D02*
X7947591Y-18357642D01*
X7947591Y-18357642D02*
X7947591Y-18376690D01*
X7947591Y-18376690D02*
X7852353Y-18395737D01*
X8023782Y-18452880D02*
X8042830Y-18462404D01*
X8042830Y-18462404D02*
X8080925Y-18462404D01*
X8080925Y-18462404D02*
X8099972Y-18452880D01*
X8099972Y-18452880D02*
X8109496Y-18433832D01*
X8109496Y-18433832D02*
X8109496Y-18424309D01*
X8109496Y-18424309D02*
X8099972Y-18405261D01*
X8099972Y-18405261D02*
X8080925Y-18395737D01*
X8080925Y-18395737D02*
X8052353Y-18395737D01*
X8052353Y-18395737D02*
X8033306Y-18386213D01*
X8033306Y-18386213D02*
X8023782Y-18367166D01*
X8023782Y-18367166D02*
X8023782Y-18357642D01*
X8023782Y-18357642D02*
X8033306Y-18338594D01*
X8033306Y-18338594D02*
X8052353Y-18329070D01*
X8052353Y-18329070D02*
X8080925Y-18329070D01*
X8080925Y-18329070D02*
X8099972Y-18338594D01*
X8176163Y-18538594D02*
X8185687Y-18529070D01*
X8185687Y-18529070D02*
X8204734Y-18500499D01*
X8204734Y-18500499D02*
X8214258Y-18481451D01*
X8214258Y-18481451D02*
X8223782Y-18452880D01*
X8223782Y-18452880D02*
X8233306Y-18405261D01*
X8233306Y-18405261D02*
X8233306Y-18367166D01*
X8233306Y-18367166D02*
X8223782Y-18319547D01*
X8223782Y-18319547D02*
X8214258Y-18290975D01*
X8214258Y-18290975D02*
X8204734Y-18271928D01*
X8204734Y-18271928D02*
X8185687Y-18243356D01*
X8185687Y-18243356D02*
X8176163Y-18233832D01*
M02*
