%TF.GenerationSoftware,KiCad,Pcbnew,8.0.2*%
%TF.CreationDate,2024-05-30T20:48:47-07:00*%
%TF.ProjectId,DSP_TU,4453505f-5455-42e6-9b69-6361645f7063,B*%
%TF.SameCoordinates,Original*%
%TF.FileFunction,Drillmap*%
%TF.FilePolarity,Positive*%
%FSLAX45Y45*%
G04 Gerber Fmt 4.5, Leading zero omitted, Abs format (unit mm)*
G04 Created by KiCad (PCBNEW 8.0.2) date 2024-05-30 20:48:47*
%MOMM*%
%LPD*%
G01*
G04 APERTURE LIST*
%ADD10C,0.050000*%
%ADD11C,0.200000*%
G04 APERTURE END LIST*
D10*
X3403600Y-2921000D02*
X19913600Y-2921000D01*
X19913600Y-14351000D01*
X3403600Y-14351000D01*
X3403600Y-2921000D01*
D11*
X3661877Y-14664984D02*
X3661877Y-14464984D01*
X3661877Y-14464984D02*
X3709496Y-14464984D01*
X3709496Y-14464984D02*
X3738067Y-14474508D01*
X3738067Y-14474508D02*
X3757115Y-14493555D01*
X3757115Y-14493555D02*
X3766639Y-14512603D01*
X3766639Y-14512603D02*
X3776162Y-14550698D01*
X3776162Y-14550698D02*
X3776162Y-14579269D01*
X3776162Y-14579269D02*
X3766639Y-14617365D01*
X3766639Y-14617365D02*
X3757115Y-14636412D01*
X3757115Y-14636412D02*
X3738067Y-14655460D01*
X3738067Y-14655460D02*
X3709496Y-14664984D01*
X3709496Y-14664984D02*
X3661877Y-14664984D01*
X3861877Y-14664984D02*
X3861877Y-14531650D01*
X3861877Y-14569746D02*
X3871401Y-14550698D01*
X3871401Y-14550698D02*
X3880924Y-14541174D01*
X3880924Y-14541174D02*
X3899972Y-14531650D01*
X3899972Y-14531650D02*
X3919020Y-14531650D01*
X3985686Y-14664984D02*
X3985686Y-14531650D01*
X3985686Y-14464984D02*
X3976162Y-14474508D01*
X3976162Y-14474508D02*
X3985686Y-14484031D01*
X3985686Y-14484031D02*
X3995210Y-14474508D01*
X3995210Y-14474508D02*
X3985686Y-14464984D01*
X3985686Y-14464984D02*
X3985686Y-14484031D01*
X4109496Y-14664984D02*
X4090448Y-14655460D01*
X4090448Y-14655460D02*
X4080924Y-14636412D01*
X4080924Y-14636412D02*
X4080924Y-14464984D01*
X4214258Y-14664984D02*
X4195210Y-14655460D01*
X4195210Y-14655460D02*
X4185686Y-14636412D01*
X4185686Y-14636412D02*
X4185686Y-14464984D01*
X4442829Y-14664984D02*
X4442829Y-14464984D01*
X4442829Y-14464984D02*
X4509496Y-14607841D01*
X4509496Y-14607841D02*
X4576163Y-14464984D01*
X4576163Y-14464984D02*
X4576163Y-14664984D01*
X4757115Y-14664984D02*
X4757115Y-14560222D01*
X4757115Y-14560222D02*
X4747591Y-14541174D01*
X4747591Y-14541174D02*
X4728544Y-14531650D01*
X4728544Y-14531650D02*
X4690448Y-14531650D01*
X4690448Y-14531650D02*
X4671401Y-14541174D01*
X4757115Y-14655460D02*
X4738067Y-14664984D01*
X4738067Y-14664984D02*
X4690448Y-14664984D01*
X4690448Y-14664984D02*
X4671401Y-14655460D01*
X4671401Y-14655460D02*
X4661877Y-14636412D01*
X4661877Y-14636412D02*
X4661877Y-14617365D01*
X4661877Y-14617365D02*
X4671401Y-14598317D01*
X4671401Y-14598317D02*
X4690448Y-14588793D01*
X4690448Y-14588793D02*
X4738067Y-14588793D01*
X4738067Y-14588793D02*
X4757115Y-14579269D01*
X4852353Y-14531650D02*
X4852353Y-14731650D01*
X4852353Y-14541174D02*
X4871401Y-14531650D01*
X4871401Y-14531650D02*
X4909496Y-14531650D01*
X4909496Y-14531650D02*
X4928544Y-14541174D01*
X4928544Y-14541174D02*
X4938067Y-14550698D01*
X4938067Y-14550698D02*
X4947591Y-14569746D01*
X4947591Y-14569746D02*
X4947591Y-14626888D01*
X4947591Y-14626888D02*
X4938067Y-14645936D01*
X4938067Y-14645936D02*
X4928544Y-14655460D01*
X4928544Y-14655460D02*
X4909496Y-14664984D01*
X4909496Y-14664984D02*
X4871401Y-14664984D01*
X4871401Y-14664984D02*
X4852353Y-14655460D01*
X5033305Y-14645936D02*
X5042829Y-14655460D01*
X5042829Y-14655460D02*
X5033305Y-14664984D01*
X5033305Y-14664984D02*
X5023782Y-14655460D01*
X5023782Y-14655460D02*
X5033305Y-14645936D01*
X5033305Y-14645936D02*
X5033305Y-14664984D01*
X5033305Y-14541174D02*
X5042829Y-14550698D01*
X5042829Y-14550698D02*
X5033305Y-14560222D01*
X5033305Y-14560222D02*
X5023782Y-14550698D01*
X5023782Y-14550698D02*
X5033305Y-14541174D01*
X5033305Y-14541174D02*
X5033305Y-14560222D01*
M02*
