%TF.GenerationSoftware,KiCad,Pcbnew,8.0.2*%
%TF.CreationDate,2024-05-30T20:46:21-07:00*%
%TF.ProjectId,DSP_TU,4453505f-5455-42e6-9b69-6361645f7063,B*%
%TF.SameCoordinates,Original*%
%TF.FileFunction,Copper,L1,Top*%
%TF.FilePolarity,Positive*%
%FSLAX46Y46*%
G04 Gerber Fmt 4.6, Leading zero omitted, Abs format (unit mm)*
G04 Created by KiCad (PCBNEW 8.0.2) date 2024-05-30 20:46:21*
%MOMM*%
%LPD*%
G01*
G04 APERTURE LIST*
G04 Aperture macros list*
%AMRoundRect*
0 Rectangle with rounded corners*
0 $1 Rounding radius*
0 $2 $3 $4 $5 $6 $7 $8 $9 X,Y pos of 4 corners*
0 Add a 4 corners polygon primitive as box body*
4,1,4,$2,$3,$4,$5,$6,$7,$8,$9,$2,$3,0*
0 Add four circle primitives for the rounded corners*
1,1,$1+$1,$2,$3*
1,1,$1+$1,$4,$5*
1,1,$1+$1,$6,$7*
1,1,$1+$1,$8,$9*
0 Add four rect primitives between the rounded corners*
20,1,$1+$1,$2,$3,$4,$5,0*
20,1,$1+$1,$4,$5,$6,$7,0*
20,1,$1+$1,$6,$7,$8,$9,0*
20,1,$1+$1,$8,$9,$2,$3,0*%
G04 Aperture macros list end*
%TA.AperFunction,ComponentPad*%
%ADD10C,6.800000*%
%TD*%
%TA.AperFunction,ConnectorPad*%
%ADD11C,12.800000*%
%TD*%
%TA.AperFunction,SMDPad,CuDef*%
%ADD12RoundRect,0.237500X-0.237500X0.250000X-0.237500X-0.250000X0.237500X-0.250000X0.237500X0.250000X0*%
%TD*%
%TA.AperFunction,ComponentPad*%
%ADD13R,1.700000X1.700000*%
%TD*%
%TA.AperFunction,ComponentPad*%
%ADD14O,1.700000X1.700000*%
%TD*%
%TA.AperFunction,SMDPad,CuDef*%
%ADD15RoundRect,0.237500X0.300000X0.237500X-0.300000X0.237500X-0.300000X-0.237500X0.300000X-0.237500X0*%
%TD*%
%TA.AperFunction,SMDPad,CuDef*%
%ADD16R,1.450000X1.200000*%
%TD*%
%TA.AperFunction,ComponentPad*%
%ADD17R,1.428000X1.428000*%
%TD*%
%TA.AperFunction,ComponentPad*%
%ADD18C,1.428000*%
%TD*%
%TA.AperFunction,ComponentPad*%
%ADD19C,3.316000*%
%TD*%
%TA.AperFunction,SMDPad,CuDef*%
%ADD20RoundRect,0.237500X-0.250000X-0.237500X0.250000X-0.237500X0.250000X0.237500X-0.250000X0.237500X0*%
%TD*%
%TA.AperFunction,ComponentPad*%
%ADD21R,0.950000X0.950000*%
%TD*%
%TA.AperFunction,ComponentPad*%
%ADD22C,0.950000*%
%TD*%
%TA.AperFunction,ComponentPad*%
%ADD23C,1.500000*%
%TD*%
%TA.AperFunction,SMDPad,CuDef*%
%ADD24R,0.600000X0.600000*%
%TD*%
%TA.AperFunction,SMDPad,CuDef*%
%ADD25R,0.600000X0.400000*%
%TD*%
%TA.AperFunction,SMDPad,CuDef*%
%ADD26RoundRect,0.237500X0.237500X-0.250000X0.237500X0.250000X-0.237500X0.250000X-0.237500X-0.250000X0*%
%TD*%
%TA.AperFunction,ComponentPad*%
%ADD27R,2.100000X2.100000*%
%TD*%
%TA.AperFunction,ComponentPad*%
%ADD28C,2.100000*%
%TD*%
%TA.AperFunction,ComponentPad*%
%ADD29R,1.600000X1.600000*%
%TD*%
%TA.AperFunction,ComponentPad*%
%ADD30O,1.600000X1.600000*%
%TD*%
%TA.AperFunction,SMDPad,CuDef*%
%ADD31RoundRect,0.237500X0.237500X-0.300000X0.237500X0.300000X-0.237500X0.300000X-0.237500X-0.300000X0*%
%TD*%
%TA.AperFunction,SMDPad,CuDef*%
%ADD32RoundRect,0.237500X0.250000X0.237500X-0.250000X0.237500X-0.250000X-0.237500X0.250000X-0.237500X0*%
%TD*%
%TA.AperFunction,SMDPad,CuDef*%
%ADD33R,1.900000X0.800000*%
%TD*%
%TA.AperFunction,SMDPad,CuDef*%
%ADD34R,0.800000X1.900000*%
%TD*%
%TA.AperFunction,SMDPad,CuDef*%
%ADD35RoundRect,0.237500X-0.300000X-0.237500X0.300000X-0.237500X0.300000X0.237500X-0.300000X0.237500X0*%
%TD*%
%TA.AperFunction,SMDPad,CuDef*%
%ADD36R,1.200000X0.600000*%
%TD*%
%TA.AperFunction,SMDPad,CuDef*%
%ADD37RoundRect,0.237500X-0.237500X0.300000X-0.237500X-0.300000X0.237500X-0.300000X0.237500X0.300000X0*%
%TD*%
%TA.AperFunction,SMDPad,CuDef*%
%ADD38RoundRect,0.150000X-0.825000X-0.150000X0.825000X-0.150000X0.825000X0.150000X-0.825000X0.150000X0*%
%TD*%
%TA.AperFunction,SMDPad,CuDef*%
%ADD39R,0.300000X1.475000*%
%TD*%
%TA.AperFunction,SMDPad,CuDef*%
%ADD40R,1.475000X0.300000*%
%TD*%
%TA.AperFunction,ComponentPad*%
%ADD41R,1.651000X1.651000*%
%TD*%
%TA.AperFunction,ComponentPad*%
%ADD42C,1.651000*%
%TD*%
%TA.AperFunction,ComponentPad*%
%ADD43C,2.362200*%
%TD*%
%TA.AperFunction,SMDPad,CuDef*%
%ADD44RoundRect,0.125000X0.125000X-0.825000X0.125000X0.825000X-0.125000X0.825000X-0.125000X-0.825000X0*%
%TD*%
%TA.AperFunction,SMDPad,CuDef*%
%ADD45RoundRect,0.150000X-0.512500X-0.150000X0.512500X-0.150000X0.512500X0.150000X-0.512500X0.150000X0*%
%TD*%
%TA.AperFunction,ComponentPad*%
%ADD46R,1.650000X1.650000*%
%TD*%
%TA.AperFunction,ComponentPad*%
%ADD47C,1.650000*%
%TD*%
%TA.AperFunction,ComponentPad*%
%ADD48O,3.316000X6.632000*%
%TD*%
%TA.AperFunction,ViaPad*%
%ADD49C,4.000000*%
%TD*%
%TA.AperFunction,ViaPad*%
%ADD50C,0.800000*%
%TD*%
%TA.AperFunction,Conductor*%
%ADD51C,0.250000*%
%TD*%
%TA.AperFunction,Conductor*%
%ADD52C,0.500000*%
%TD*%
%TA.AperFunction,Conductor*%
%ADD53C,0.600000*%
%TD*%
G04 APERTURE END LIST*
D10*
%TO.P,MH1,1*%
%TO.N,N/C*%
X41148000Y-112014000D03*
D11*
X41148000Y-112014000D03*
%TD*%
D10*
%TO.P,MH4,1*%
%TO.N,N/C*%
X192024000Y-112014000D03*
D11*
X192024000Y-112014000D03*
%TD*%
D10*
%TO.P,MH3,1*%
%TO.N,N/C*%
X192532000Y-35814000D03*
D11*
X192532000Y-35814000D03*
%TD*%
D10*
%TO.P,MH2,1*%
%TO.N,GND*%
X40640000Y-35814000D03*
D11*
X40640000Y-35814000D03*
%TD*%
D12*
%TO.P,R23,1*%
%TO.N,AUTOSTART_LED*%
X70458000Y-128119500D03*
%TO.P,R23,2*%
%TO.N,Net-(S3-A__AMBER)*%
X70458000Y-129944500D03*
%TD*%
D13*
%TO.P,J1,1,Pin_1*%
%TO.N,Net-(J1-Pin_1)*%
X135487000Y-129737000D03*
D14*
%TO.P,J1,2,Pin_2*%
%TO.N,Net-(J1-Pin_2)*%
X132947000Y-129737000D03*
%TO.P,J1,3,Pin_3*%
%TO.N,Net-(J1-Pin_3)*%
X130407000Y-129737000D03*
%TO.P,J1,4,Pin_4*%
%TO.N,Net-(J1-Pin_4)*%
X127867000Y-129737000D03*
%TO.P,J1,5,Pin_5*%
%TO.N,Net-(J1-Pin_5)*%
X125327000Y-129737000D03*
%TO.P,J1,6,Pin_6*%
%TO.N,GND*%
X122787000Y-129737000D03*
%TO.P,J1,7,Pin_7*%
%TO.N,+3V3*%
X120247000Y-129737000D03*
%TD*%
D15*
%TO.P,C7,1*%
%TO.N,GND*%
X122120500Y-127000000D03*
%TO.P,C7,2*%
%TO.N,+3V3*%
X120395500Y-127000000D03*
%TD*%
D16*
%TO.P,FB1,1,1*%
%TO.N,Net-(J3-VBUS)*%
X165454000Y-47244000D03*
%TO.P,FB1,2,2*%
%TO.N,+5V*%
X165454000Y-48944000D03*
%TD*%
D13*
%TO.P,J7,1,Pin_1*%
%TO.N,U1RTSn*%
X170026000Y-106680000D03*
D14*
%TO.P,J7,2,Pin_2*%
%TO.N,U1TX*%
X170026000Y-109220000D03*
%TO.P,J7,3,Pin_3*%
%TO.N,U1CTSn*%
X170026000Y-111760000D03*
%TO.P,J7,4,Pin_4*%
%TO.N,U1RX*%
X170026000Y-114300000D03*
%TO.P,J7,5,Pin_5*%
%TO.N,unconnected-(J7-Pin_5-Pad5)*%
X170026000Y-116840000D03*
%TO.P,J7,6,Pin_6*%
%TO.N,unconnected-(J7-Pin_6-Pad6)*%
X170026000Y-119380000D03*
%TO.P,J7,7,Pin_7*%
%TO.N,unconnected-(J7-Pin_7-Pad7)*%
X170026000Y-121920000D03*
%TO.P,J7,8,Pin_8*%
%TO.N,GND*%
X170026000Y-124460000D03*
%TD*%
D13*
%TO.P,J6,1,Pin_1*%
%TO.N,LOOP_KEY*%
X100176000Y-101092000D03*
D14*
%TO.P,J6,2,Pin_2*%
%TO.N,LOOP_SENSE*%
X102716000Y-101092000D03*
%TO.P,J6,3,Pin_3*%
%TO.N,unconnected-(J6-Pin_3-Pad3)*%
X105256000Y-101092000D03*
%TO.P,J6,4,Pin_4*%
%TO.N,unconnected-(J6-Pin_4-Pad4)*%
X107796000Y-101092000D03*
%TO.P,J6,5,Pin_5*%
%TO.N,unconnected-(J6-Pin_5-Pad5)*%
X110336000Y-101092000D03*
%TO.P,J6,6,Pin_6*%
%TO.N,PTT*%
X112876000Y-101092000D03*
%TO.P,J6,7,Pin_7*%
%TO.N,AFSK_OUT*%
X115416000Y-101092000D03*
%TO.P,J6,8,Pin_8*%
%TO.N,GND*%
X117956000Y-101092000D03*
%TD*%
D17*
%TO.P,J3,1,VBUS*%
%TO.N,Net-(J3-VBUS)*%
X170026000Y-44212000D03*
D18*
%TO.P,J3,2,D-*%
%TO.N,Net-(J3-D-)*%
X172526000Y-44212000D03*
%TO.P,J3,3,D+*%
%TO.N,Net-(J3-D+)*%
X172526000Y-42212000D03*
%TO.P,J3,4,GND*%
%TO.N,GND*%
X170026000Y-42212000D03*
D19*
%TO.P,J3,5,Shield*%
X177296000Y-39502000D03*
%TO.P,J3,6,SH*%
X165256000Y-39502000D03*
%TD*%
D20*
%TO.P,R10,1*%
%TO.N,USB_3V3*%
X176733500Y-52832000D03*
%TO.P,R10,2*%
%TO.N,PWRENn*%
X178558500Y-52832000D03*
%TD*%
D21*
%TO.P,S6,L1,A__AMBER*%
%TO.N,Net-(S6-A__AMBER)*%
X100938000Y-140462000D03*
D22*
%TO.P,S6,L2,K_AMBER*%
%TO.N,GND*%
X97488000Y-140462000D03*
D23*
%TO.P,S6,MH1,MH1*%
X100813000Y-142662000D03*
%TO.P,S6,MH2,MH2*%
X97613000Y-142662000D03*
D22*
%TO.P,S6,S1,COM*%
%TO.N,TX_TOGGLEn*%
X99788000Y-140462000D03*
%TO.P,S6,S2,NO*%
%TO.N,GND*%
X98638000Y-140462000D03*
%TD*%
D24*
%TO.P,U5,1,1A*%
%TO.N,PWRENn*%
X177254000Y-57162000D03*
D25*
%TO.P,U5,2,GND*%
%TO.N,GND*%
X177254000Y-57912000D03*
D24*
%TO.P,U5,3,2A*%
%TO.N,AUTOSTARTn*%
X177254000Y-58662000D03*
%TO.P,U5,4,2Y*%
%TO.N,AUTOSTART*%
X179054000Y-58662000D03*
D25*
%TO.P,U5,5,VCC*%
%TO.N,+5V_SW*%
X179054000Y-57912000D03*
D24*
%TO.P,U5,6,1Y*%
%TO.N,Net-(U5-1Y)*%
X179054000Y-57162000D03*
%TD*%
D26*
%TO.P,R14,1*%
%TO.N,Net-(U1-AN14{slash}C1IND{slash}RPG6{slash}SCK2{slash}PMA5{slash}RG6)*%
X144372000Y-108608500D03*
%TO.P,R14,2*%
%TO.N,WIFI_SPI_CLK*%
X144372000Y-106783500D03*
%TD*%
D21*
%TO.P,S5,L1,A__AMBER*%
%TO.N,Net-(S5-A__AMBER)*%
X90778000Y-140462000D03*
D22*
%TO.P,S5,L2,K_AMBER*%
%TO.N,GND*%
X87328000Y-140462000D03*
D23*
%TO.P,S5,MH1,MH1*%
X90653000Y-142662000D03*
%TO.P,S5,MH2,MH2*%
X87453000Y-142662000D03*
D22*
%TO.P,S5,S1,COM*%
%TO.N,KOS_TOGGLEn*%
X89628000Y-140462000D03*
%TO.P,S5,S2,NO*%
%TO.N,GND*%
X88478000Y-140462000D03*
%TD*%
D26*
%TO.P,R17,1*%
%TO.N,GND*%
X64008000Y-68984500D03*
%TO.P,R17,2*%
%TO.N,WIFI_EN*%
X64008000Y-67159500D03*
%TD*%
D27*
%TO.P,J5,1,1*%
%TO.N,AFSK_INa*%
X148129000Y-39306000D03*
D28*
%TO.P,J5,2,2*%
%TO.N,AFSK_INb*%
X143129000Y-39306000D03*
%TO.P,J5,3,3*%
%TO.N,GND*%
X138129000Y-39306000D03*
%TO.P,J5,4,4*%
%TO.N,AFSK_OUTa*%
X133129000Y-39306000D03*
%TO.P,J5,5,5*%
%TO.N,AFSK_OUTb*%
X128129000Y-39306000D03*
%TO.P,J5,6,6*%
%TO.N,PTTa*%
X123129000Y-39306000D03*
%TO.P,J5,7,7*%
%TO.N,PTTb*%
X118129000Y-39306000D03*
%TO.P,J5,8,8*%
%TO.N,AUTOSTART*%
X113129000Y-39306000D03*
%TO.P,J5,9,9*%
%TO.N,GND*%
X108129000Y-39306000D03*
%TO.P,J5,10,10*%
X103129000Y-39306000D03*
%TO.P,J5,11,11*%
%TO.N,LOOPa*%
X98129000Y-39306000D03*
%TO.P,J5,12,12*%
%TO.N,LOOPb*%
X93129000Y-39306000D03*
%TD*%
D26*
%TO.P,R19,1*%
%TO.N,U1RX*%
X165962000Y-103782500D03*
%TO.P,R19,2*%
%TO.N,Net-(U3-TXD)*%
X165962000Y-101957500D03*
%TD*%
D29*
%TO.P,K1,1,1*%
%TO.N,Net-(K1-Pad1)*%
X96027000Y-61458000D03*
D30*
%TO.P,K1,2,2*%
%TO.N,GND*%
X98567000Y-61458000D03*
%TO.P,K1,3,3*%
%TO.N,unconnected-(K1-Pad3)*%
X101107000Y-61458000D03*
%TO.P,K1,4,4*%
%TO.N,LOOPa*%
X101107000Y-53838000D03*
%TO.P,K1,5,5*%
%TO.N,unconnected-(K1-Pad5)*%
X98567000Y-53838000D03*
%TO.P,K1,6,6*%
%TO.N,Net-(CR1-CATHODE{slash}ANODE-Pad2)*%
X96027000Y-53838000D03*
%TD*%
D31*
%TO.P,C1,1*%
%TO.N,GND*%
X140816000Y-108558500D03*
%TO.P,C1,2*%
%TO.N,+3V3*%
X140816000Y-106833500D03*
%TD*%
D12*
%TO.P,R24,1*%
%TO.N,MOTOR_LED*%
X80618000Y-128119500D03*
%TO.P,R24,2*%
%TO.N,Net-(S4-A__AMBER)*%
X80618000Y-129944500D03*
%TD*%
D29*
%TO.P,K2,1,1*%
%TO.N,Net-(K2-Pad1)*%
X107442000Y-61722000D03*
D30*
%TO.P,K2,2,2*%
%TO.N,GND*%
X109982000Y-61722000D03*
%TO.P,K2,3,3*%
%TO.N,unconnected-(K2-Pad3)*%
X112522000Y-61722000D03*
%TO.P,K2,4,4*%
%TO.N,PTTa*%
X112522000Y-54102000D03*
%TO.P,K2,5,5*%
%TO.N,unconnected-(K2-Pad5)*%
X109982000Y-54102000D03*
%TO.P,K2,6,6*%
%TO.N,PTTb*%
X107442000Y-54102000D03*
%TD*%
D32*
%TO.P,R9,1*%
%TO.N,PTT*%
X109216500Y-95758000D03*
%TO.P,R9,2*%
%TO.N,Net-(K2-Pad1)*%
X107391500Y-95758000D03*
%TD*%
D15*
%TO.P,C11,1*%
%TO.N,Net-(U2-IN+)*%
X127962500Y-101854000D03*
%TO.P,C11,2*%
%TO.N,GND*%
X126237500Y-101854000D03*
%TD*%
D32*
%TO.P,R6,1*%
%TO.N,Net-(U3-USBDM)*%
X172462500Y-49784000D03*
%TO.P,R6,2*%
%TO.N,Net-(J3-D-)*%
X170637500Y-49784000D03*
%TD*%
D33*
%TO.P,U7,1,GPIO_6*%
%TO.N,unconnected-(U7-GPIO_6-Pad1)*%
X72897000Y-61563000D03*
%TO.P,U7,2,I2C_SCL*%
%TO.N,unconnected-(U7-I2C_SCL-Pad2)*%
X72897000Y-60543000D03*
%TO.P,U7,3,I2C_SDA*%
%TO.N,unconnected-(U7-I2C_SDA-Pad3)*%
X72897000Y-59527000D03*
%TO.P,U7,4,RESET_N*%
%TO.N,WIFI_RESETn*%
X72897000Y-58511000D03*
%TO.P,U7,5,NC_1*%
%TO.N,unconnected-(U7-NC_1-Pad5)*%
X72897000Y-54447000D03*
%TO.P,U7,6,NC_2*%
%TO.N,unconnected-(U7-NC_2-Pad6)*%
X72897000Y-52415000D03*
%TO.P,U7,7,NC_3*%
%TO.N,unconnected-(U7-NC_3-Pad7)*%
X72897000Y-51399000D03*
%TO.P,U7,8,NC_4*%
%TO.N,unconnected-(U7-NC_4-Pad8)*%
X72897000Y-50383000D03*
%TO.P,U7,9,GND_1*%
%TO.N,GND*%
X72897000Y-49367000D03*
%TO.P,U7,10,SPI_CFG*%
%TO.N,Net-(U7-SPI_CFG)*%
X58167000Y-51399000D03*
%TO.P,U7,11,WAKE*%
%TO.N,unconnected-(U7-WAKE-Pad11)*%
X58167000Y-52415000D03*
%TO.P,U7,12,GND_2*%
%TO.N,GND*%
X58167000Y-53431000D03*
%TO.P,U7,13,IRQN*%
%TO.N,WIFI_IRQn*%
X58167000Y-54447000D03*
%TO.P,U7,14,UART_TXD*%
%TO.N,unconnected-(U7-UART_TXD-Pad14)*%
X58167000Y-55463000D03*
%TO.P,U7,15,SPI_MOSI*%
%TO.N,WIFI_MOSI*%
X58167000Y-56479000D03*
%TO.P,U7,16,SPI_SSN*%
%TO.N,WIFI_CSn*%
X58167000Y-57495000D03*
%TO.P,U7,17,SPI_MISO*%
%TO.N,WIFI_MISO_TP*%
X58167000Y-58511000D03*
%TO.P,U7,18,SPI_SCK*%
%TO.N,WIFI_SPI_CLK*%
X58167000Y-59527000D03*
%TO.P,U7,19,UART_RXD*%
%TO.N,unconnected-(U7-UART_RXD-Pad19)*%
X58167000Y-60543000D03*
D34*
%TO.P,U7,20,VBAT*%
%TO.N,+3V3*%
X60067000Y-64233000D03*
%TO.P,U7,21,GPIO_1*%
%TO.N,unconnected-(U7-GPIO_1-Pad21)*%
X63115000Y-64233000D03*
%TO.P,U7,22,CHIP_EN*%
%TO.N,WIFI_EN*%
X64131000Y-64233000D03*
%TO.P,U7,23,VDDIO*%
%TO.N,+3V3*%
X65147000Y-64233000D03*
%TO.P,U7,24,1P3V_TP*%
%TO.N,Net-(U7-1P3V_TP)*%
X66163000Y-64233000D03*
%TO.P,U7,25,GPIO_3*%
%TO.N,unconnected-(U7-GPIO_3-Pad25)*%
X67179000Y-64233000D03*
%TO.P,U7,26,GPIO_4*%
%TO.N,unconnected-(U7-GPIO_4-Pad26)*%
X68195000Y-64233000D03*
%TO.P,U7,27,GPIO_5*%
%TO.N,unconnected-(U7-GPIO_5-Pad27)*%
X69211000Y-64233000D03*
%TO.P,U7,28,GND_3*%
%TO.N,GND*%
X70227000Y-64233000D03*
%TD*%
D32*
%TO.P,R20,1*%
%TO.N,IDLEn*%
X108454500Y-106172000D03*
%TO.P,R20,2*%
%TO.N,+3V3*%
X106629500Y-106172000D03*
%TD*%
D35*
%TO.P,C2,1*%
%TO.N,+3V3*%
X129285500Y-119380000D03*
%TO.P,C2,2*%
%TO.N,GND*%
X131010500Y-119380000D03*
%TD*%
D36*
%TO.P,U2,1,OUT*%
%TO.N,AFSK_OUT*%
X130676000Y-99888000D03*
%TO.P,U2,2,GND*%
%TO.N,GND*%
X130676000Y-100838000D03*
%TO.P,U2,3,IN+*%
%TO.N,Net-(U2-IN+)*%
X130676000Y-101788000D03*
%TO.P,U2,4,IN-*%
%TO.N,AFSK_OUT*%
X133176000Y-101788000D03*
%TO.P,U2,5,~{SHDN}*%
%TO.N,AFSK_OUT_EN*%
X133176000Y-100838000D03*
%TO.P,U2,6,VDD*%
%TO.N,+3V3*%
X133176000Y-99888000D03*
%TD*%
D37*
%TO.P,C22,1*%
%TO.N,+3V3*%
X60198000Y-67209500D03*
%TO.P,C22,2*%
%TO.N,GND*%
X60198000Y-68934500D03*
%TD*%
D13*
%TO.P,J4,1,Pin_1*%
%TO.N,WIFI_MOSI*%
X50038000Y-76200000D03*
D14*
%TO.P,J4,2,Pin_2*%
%TO.N,WIFI_MISO_TP*%
X52578000Y-76200000D03*
%TO.P,J4,3,Pin_3*%
%TO.N,WIFI_SPI_CLK*%
X55118000Y-76200000D03*
%TO.P,J4,4,Pin_4*%
%TO.N,WIFI_CSn*%
X57658000Y-76200000D03*
%TO.P,J4,5,Pin_5*%
%TO.N,WIFI_IRQn*%
X60198000Y-76200000D03*
%TO.P,J4,6,Pin_6*%
%TO.N,WIFI_RESETn*%
X62738000Y-76200000D03*
%TO.P,J4,7,Pin_7*%
%TO.N,WIFI_EN*%
X65278000Y-76200000D03*
%TO.P,J4,8,Pin_8*%
%TO.N,GND*%
X67818000Y-76200000D03*
%TD*%
D12*
%TO.P,R27,1*%
%TO.N,MARK_HI_LED*%
X50138000Y-128119500D03*
%TO.P,R27,2*%
%TO.N,Net-(S1-A__AMBER)*%
X50138000Y-129944500D03*
%TD*%
D32*
%TO.P,R4,1*%
%TO.N,PWM_OUT*%
X135632500Y-103632000D03*
%TO.P,R4,2*%
%TO.N,Net-(C9-Pad2)*%
X133807500Y-103632000D03*
%TD*%
D27*
%TO.P,T2,1,1*%
%TO.N,Net-(C10-Pad1)*%
X125551500Y-63500000D03*
D28*
%TO.P,T2,2,2*%
%TO.N,unconnected-(T2-Pad2)*%
X130301500Y-63500000D03*
%TO.P,T2,3,3*%
%TO.N,GND*%
X135051500Y-63500000D03*
%TO.P,T2,4,4*%
%TO.N,AFSK_OUTa*%
X135051500Y-52832000D03*
%TO.P,T2,5,5*%
%TO.N,unconnected-(T2-Pad5)*%
X130301500Y-52832000D03*
%TO.P,T2,6,6*%
%TO.N,AFSK_OUTb*%
X125551500Y-52832000D03*
%TD*%
D35*
%TO.P,C12,1*%
%TO.N,+3V3*%
X135635500Y-99822000D03*
%TO.P,C12,2*%
%TO.N,GND*%
X137360500Y-99822000D03*
%TD*%
D21*
%TO.P,S1,L1,A__AMBER*%
%TO.N,Net-(S1-A__AMBER)*%
X50138000Y-140462000D03*
D22*
%TO.P,S1,L2,K_AMBER*%
%TO.N,GND*%
X46688000Y-140462000D03*
D23*
%TO.P,S1,MH1,MH1*%
X50013000Y-142662000D03*
%TO.P,S1,MH2,MH2*%
X46813000Y-142662000D03*
D22*
%TO.P,S1,S1,COM*%
%TO.N,MARK_HI_TOGGLEn*%
X48988000Y-140462000D03*
%TO.P,S1,S2,NO*%
%TO.N,GND*%
X47838000Y-140462000D03*
%TD*%
D37*
%TO.P,C23,1*%
%TO.N,+3V3*%
X118210000Y-118517500D03*
%TO.P,C23,2*%
%TO.N,GND*%
X118210000Y-120242500D03*
%TD*%
D15*
%TO.P,C13,1*%
%TO.N,GND*%
X178508500Y-54610000D03*
%TO.P,C13,2*%
%TO.N,USB_3V3*%
X176783500Y-54610000D03*
%TD*%
D35*
%TO.P,C4,1*%
%TO.N,GND*%
X150013000Y-119888000D03*
%TO.P,C4,2*%
%TO.N,+3V3*%
X151738000Y-119888000D03*
%TD*%
D26*
%TO.P,R15,1*%
%TO.N,Net-(U1-AN12{slash}C2IND{slash}RPG8{slash}SCL4{slash}PMA3{slash}RG8)*%
X142594000Y-108608500D03*
%TO.P,R15,2*%
%TO.N,WIFI_MOSI*%
X142594000Y-106783500D03*
%TD*%
D35*
%TO.P,C10,1*%
%TO.N,Net-(C10-Pad1)*%
X126237500Y-98298000D03*
%TO.P,C10,2*%
%TO.N,AFSK_OUT*%
X127962500Y-98298000D03*
%TD*%
D38*
%TO.P,U8,1,~{CS}*%
%TO.N,Net-(U1-TDO{slash}AN6{slash}PMA12{slash}RB11)*%
X120815000Y-115951000D03*
%TO.P,U8,2,DO(IO1)*%
%TO.N,Net-(U1-AN49{slash}RPB9{slash}PMA7{slash}RB9)*%
X120815000Y-117221000D03*
%TO.P,U8,3,~{WP}*%
%TO.N,+3V3*%
X120815000Y-118491000D03*
%TO.P,U8,4,GND*%
%TO.N,GND*%
X120815000Y-119761000D03*
%TO.P,U8,5,DI(IO0)*%
%TO.N,Net-(U1-TMS{slash}CVREFOUT{slash}AN5{slash}RPB10{slash}PMA13{slash}RB10)*%
X125765000Y-119761000D03*
%TO.P,U8,6,SCK*%
%TO.N,Net-(U1-AN9{slash}RPB14{slash}SCK3{slash}PMA1{slash}RB14)*%
X125765000Y-118491000D03*
%TO.P,U8,7,~{HOLD}*%
%TO.N,+3V3*%
X125765000Y-117221000D03*
%TO.P,U8,8,VCC*%
X125765000Y-115951000D03*
%TD*%
D12*
%TO.P,R18,1*%
%TO.N,Net-(U3-RTS#)*%
X168248000Y-101957500D03*
%TO.P,R18,2*%
%TO.N,U1CTSn*%
X168248000Y-103782500D03*
%TD*%
D15*
%TO.P,C17,1*%
%TO.N,+5V_SW*%
X174190500Y-62738000D03*
%TO.P,C17,2*%
%TO.N,GND*%
X172465500Y-62738000D03*
%TD*%
D21*
%TO.P,S4,L1,A__AMBER*%
%TO.N,Net-(S4-A__AMBER)*%
X80618000Y-140462000D03*
D22*
%TO.P,S4,L2,K_AMBER*%
%TO.N,GND*%
X77168000Y-140462000D03*
D23*
%TO.P,S4,MH1,MH1*%
X80493000Y-142662000D03*
%TO.P,S4,MH2,MH2*%
X77293000Y-142662000D03*
D22*
%TO.P,S4,S1,COM*%
%TO.N,MOTOR_TOGGLEn*%
X79468000Y-140462000D03*
%TO.P,S4,S2,NO*%
%TO.N,GND*%
X78318000Y-140462000D03*
%TD*%
D39*
%TO.P,U1,1,AN17/ETXEN/RPE5/PMD5/RE5*%
%TO.N,LOOP_KEY*%
X143804000Y-113134000D03*
%TO.P,U1,2,AN16/ETXD0/PMD6/RE6*%
%TO.N,LOOP_SENSE*%
X143304000Y-113134000D03*
%TO.P,U1,3,AN15/ETXD1/PMD7/RE7*%
%TO.N,Net-(U1-AN15{slash}ETXD1{slash}PMD7{slash}RE7)*%
X142804000Y-113134000D03*
%TO.P,U1,4,AN14/C1IND/RPG6/SCK2/PMA5/RG6*%
%TO.N,Net-(U1-AN14{slash}C1IND{slash}RPG6{slash}SCK2{slash}PMA5{slash}RG6)*%
X142304000Y-113134000D03*
%TO.P,U1,5,AN13/C1INC/RPG7/SDA4/PMA4/RG7*%
%TO.N,WIFI_MISO*%
X141804000Y-113134000D03*
%TO.P,U1,6,AN12/C2IND/RPG8/SCL4/PMA3/RG8*%
%TO.N,Net-(U1-AN12{slash}C2IND{slash}RPG8{slash}SCL4{slash}PMA3{slash}RG8)*%
X141304000Y-113134000D03*
%TO.P,U1,7,VSS_1*%
%TO.N,GND*%
X140804000Y-113134000D03*
%TO.P,U1,8,VDD_1*%
%TO.N,+3V3*%
X140304000Y-113134000D03*
%TO.P,U1,9,~{MCLR}*%
%TO.N,MCLRn*%
X139804000Y-113134000D03*
%TO.P,U1,10,AN11/C2INC/RPG9/PMA2/RG9*%
%TO.N,PWM_OUT*%
X139304000Y-113134000D03*
%TO.P,U1,11,AN45/C1INA/RPB5/RB5*%
%TO.N,AFSK_OUT_EN*%
X138804000Y-113134000D03*
%TO.P,U1,12,AN4/C1INB/RB4*%
%TO.N,PTT*%
X138304000Y-113134000D03*
%TO.P,U1,13,AN3/C2INA/RPB3/RB3*%
%TO.N,IDLEn*%
X137804000Y-113134000D03*
%TO.P,U1,14,AN2/C2INB/RPB2/RB2*%
%TO.N,Net-(T1-SEC_3)*%
X137304000Y-113134000D03*
%TO.P,U1,15,PGEC1/VREF-/CVREF-/AN1/RPB1/RB1*%
%TO.N,PGEC*%
X136804000Y-113134000D03*
%TO.P,U1,16,PGED1/VREF+/CVREF+/AN0/RPB0/PMA6/RB0*%
%TO.N,PGED*%
X136304000Y-113134000D03*
D40*
%TO.P,U1,17,PGEC2/AN46/RPB6/RB6*%
%TO.N,MARK_HI_TOGGLEn*%
X134316000Y-115122000D03*
%TO.P,U1,18,PGED2/AN47/RPB7/RB7*%
%TO.N,MARK_HI_LED*%
X134316000Y-115622000D03*
%TO.P,U1,19,AVDD*%
%TO.N,+3V3*%
X134316000Y-116122000D03*
%TO.P,U1,20,AVSS*%
%TO.N,GND*%
X134316000Y-116622000D03*
%TO.P,U1,21,AN48/RPB8/PMA10/RB8*%
%TO.N,TX_LED*%
X134316000Y-117122000D03*
%TO.P,U1,22,AN49/RPB9/PMA7/RB9*%
%TO.N,Net-(U1-AN49{slash}RPB9{slash}PMA7{slash}RB9)*%
X134316000Y-117622000D03*
%TO.P,U1,23,TMS/CVREFOUT/AN5/RPB10/PMA13/RB10*%
%TO.N,Net-(U1-TMS{slash}CVREFOUT{slash}AN5{slash}RPB10{slash}PMA13{slash}RB10)*%
X134316000Y-118122000D03*
%TO.P,U1,24,TDO/AN6/PMA12/RB11*%
%TO.N,Net-(U1-TDO{slash}AN6{slash}PMA12{slash}RB11)*%
X134316000Y-118622000D03*
%TO.P,U1,25,VSS_2*%
%TO.N,GND*%
X134316000Y-119122000D03*
%TO.P,U1,26,VDD_2*%
%TO.N,+3V3*%
X134316000Y-119622000D03*
%TO.P,U1,27,TCK/AN7/PMA11/RB12*%
%TO.N,SHIFT_TOGGLEn*%
X134316000Y-120122000D03*
%TO.P,U1,28,TDI/AN8/RB13*%
%TO.N,850_SHIFT_LED*%
X134316000Y-120622000D03*
%TO.P,U1,29,AN9/RPB14/SCK3/PMA1/RB14*%
%TO.N,Net-(U1-AN9{slash}RPB14{slash}SCK3{slash}PMA1{slash}RB14)*%
X134316000Y-121122000D03*
%TO.P,U1,30,AN10/EMDC/AEMDC/RPB15/OCFB/PMA0/RB15*%
%TO.N,AUTOSTART_TOGGLEn*%
X134316000Y-121622000D03*
%TO.P,U1,31,OSC1/CLKI/RC12*%
%TO.N,MOTOR_TOGGLEn*%
X134316000Y-122122000D03*
%TO.P,U1,32,OSC2/CLKO/RC15*%
%TO.N,AUTOSTART_LED*%
X134316000Y-122622000D03*
D39*
%TO.P,U1,33,VBUS*%
%TO.N,unconnected-(U1-VBUS-Pad33)*%
X136304000Y-124610000D03*
%TO.P,U1,34,VUSB3V3*%
%TO.N,GND*%
X136804000Y-124610000D03*
%TO.P,U1,35,VSS_3*%
X137304000Y-124610000D03*
%TO.P,U1,36,D-*%
%TO.N,unconnected-(U1-D--Pad36)*%
X137804000Y-124610000D03*
%TO.P,U1,37,D+*%
%TO.N,unconnected-(U1-D+-Pad37)*%
X138304000Y-124610000D03*
%TO.P,U1,38,RPF3/USBID/RF3*%
%TO.N,U1RTSn*%
X138804000Y-124610000D03*
%TO.P,U1,39,VDD_3*%
%TO.N,+3V3*%
X139304000Y-124610000D03*
%TO.P,U1,40,VSS_4*%
%TO.N,GND*%
X139804000Y-124610000D03*
%TO.P,U1,41,RPF4/SDA5/PMA9/RF4*%
%TO.N,U1RX*%
X140304000Y-124610000D03*
%TO.P,U1,42,RPF5/SCL5/PMA8/RF5*%
%TO.N,U1TX*%
X140804000Y-124610000D03*
%TO.P,U1,43,AERXD0/ETXD2/RPD9/SDA1/PMCS2/PMA15/RD9*%
%TO.N,U1CTSn*%
X141304000Y-124610000D03*
%TO.P,U1,44,ECOL/RPD10/SCL1/SCK4/RD10*%
%TO.N,AUTOSTARTn*%
X141804000Y-124610000D03*
%TO.P,U1,45,AERXCLK/AEREFCLK/ECRS/RPD11/PMCS1/PMA14/RD11*%
%TO.N,TX_TOGGLEn*%
X142304000Y-124610000D03*
%TO.P,U1,46,AERXD1/ETXD3/RPD0/RTCC/INT0/RD0*%
%TO.N,Net-(J1-Pin_1)*%
X142804000Y-124610000D03*
%TO.P,U1,47,SOSCI/RPC13/RC13*%
%TO.N,Net-(J1-Pin_2)*%
X143304000Y-124610000D03*
%TO.P,U1,48,SOSCO/RPC14/T1CK/RC14*%
%TO.N,Net-(J1-Pin_3)*%
X143804000Y-124610000D03*
D40*
%TO.P,U1,49,EMDIO/AEMDIO/RPD1/SCK1/RD1*%
%TO.N,Net-(J1-Pin_4)*%
X145792000Y-122622000D03*
%TO.P,U1,50,ETXERR/AETXEN/RPD2/SDA3/RD2*%
%TO.N,Net-(J1-Pin_5)*%
X145792000Y-122122000D03*
%TO.P,U1,51,AERXERR/ETXCLK/RPD3/SCL3/RD3*%
%TO.N,MOTOR_LED*%
X145792000Y-121622000D03*
%TO.P,U1,52,~{SQICS0}/RPD4/PMWR/RD4*%
%TO.N,KOS_TOGGLEn*%
X145792000Y-121122000D03*
%TO.P,U1,53,~{SQICS1}/RPD5/PMRD/RD5*%
%TO.N,KOS_LED*%
X145792000Y-120622000D03*
%TO.P,U1,54,VDD_4*%
%TO.N,+3V3*%
X145792000Y-120122000D03*
%TO.P,U1,55,VSS_5*%
%TO.N,GND*%
X145792000Y-119622000D03*
%TO.P,U1,56,ERXD3/AETXD1/RPF0/RF0*%
%TO.N,ENCODER_SWn*%
X145792000Y-119122000D03*
%TO.P,U1,57,TRCLK/SQICLK/ERXD2/AETXD0/RPF1/RF1*%
%TO.N,WIFI_IRQn*%
X145792000Y-118622000D03*
%TO.P,U1,58,TRD0/SQID0/ERXD1/PMD0/RE0*%
%TO.N,unconnected-(U1-TRD0{slash}SQID0{slash}ERXD1{slash}PMD0{slash}RE0-Pad58)*%
X145792000Y-118122000D03*
%TO.P,U1,59,VSS_6*%
%TO.N,GND*%
X145792000Y-117622000D03*
%TO.P,U1,60,VDD_5*%
%TO.N,+3V3*%
X145792000Y-117122000D03*
%TO.P,U1,61,TRD1/SQID1/ERXD0/PMD1/RE1*%
%TO.N,QAn*%
X145792000Y-116622000D03*
%TO.P,U1,62,TRD2/SQID2/ERXDV/ECRSDV/AECRSDV/PMD2/RE2*%
%TO.N,QBn*%
X145792000Y-116122000D03*
%TO.P,U1,63,TRD3/SQID3/ERXCLK/EREFCLK/RPE3/PMD3/RE3*%
%TO.N,WIFI_RESETn*%
X145792000Y-115622000D03*
%TO.P,U1,64,AN18/ERXERR/PMD4/RE4*%
%TO.N,WIFI_EN*%
X145792000Y-115122000D03*
%TD*%
D15*
%TO.P,C19,1*%
%TO.N,+3V3*%
X179016500Y-66294000D03*
%TO.P,C19,2*%
%TO.N,GND*%
X177291500Y-66294000D03*
%TD*%
D35*
%TO.P,C5,1*%
%TO.N,GND*%
X148589500Y-117602000D03*
%TO.P,C5,2*%
%TO.N,+3V3*%
X150314500Y-117602000D03*
%TD*%
D21*
%TO.P,S3,L1,A__AMBER*%
%TO.N,Net-(S3-A__AMBER)*%
X70458000Y-140462000D03*
D22*
%TO.P,S3,L2,K_AMBER*%
%TO.N,GND*%
X67008000Y-140462000D03*
D23*
%TO.P,S3,MH1,MH1*%
X70333000Y-142662000D03*
%TO.P,S3,MH2,MH2*%
X67133000Y-142662000D03*
D22*
%TO.P,S3,S1,COM*%
%TO.N,AUTOSTART_TOGGLEn*%
X69308000Y-140462000D03*
%TO.P,S3,S2,NO*%
%TO.N,GND*%
X68158000Y-140462000D03*
%TD*%
D20*
%TO.P,R7,1*%
%TO.N,Net-(U3-USBDP)*%
X174447500Y-49784000D03*
%TO.P,R7,2*%
%TO.N,Net-(J3-D+)*%
X176272500Y-49784000D03*
%TD*%
D41*
%TO.P,CR1,1,CATHODE/ANODE*%
%TO.N,LOOPa*%
X105918000Y-50292000D03*
D42*
%TO.P,CR1,2,CATHODE/ANODE*%
%TO.N,Net-(CR1-CATHODE{slash}ANODE-Pad2)*%
X92125800Y-50292000D03*
%TD*%
D32*
%TO.P,R8,1*%
%TO.N,LOOP_KEY*%
X98040500Y-95504000D03*
%TO.P,R8,2*%
%TO.N,Net-(K1-Pad1)*%
X96215500Y-95504000D03*
%TD*%
D27*
%TO.P,T1,1,PRI_1*%
%TO.N,AFSK_INa*%
X157150500Y-52832000D03*
D28*
%TO.P,T1,2,PRI_2*%
%TO.N,unconnected-(T1-PRI_2-Pad2)*%
X152400500Y-52832000D03*
%TO.P,T1,3,PRI_3*%
%TO.N,AFSK_INb*%
X147650500Y-52832000D03*
%TO.P,T1,4,SEC_1*%
%TO.N,Net-(T1-SEC_1)*%
X147650500Y-63500000D03*
%TO.P,T1,5,SEC_2*%
%TO.N,unconnected-(T1-SEC_2-Pad5)*%
X152400500Y-63500000D03*
%TO.P,T1,6,SEC_3*%
%TO.N,Net-(T1-SEC_3)*%
X157150500Y-63500000D03*
%TD*%
D26*
%TO.P,R13,1*%
%TO.N,Net-(U1-AN15{slash}ETXD1{slash}PMD7{slash}RE7)*%
X146150000Y-108608500D03*
%TO.P,R13,2*%
%TO.N,WIFI_CSn*%
X146150000Y-106783500D03*
%TD*%
D32*
%TO.P,R16,1*%
%TO.N,WIFI_MISO_TP*%
X54760500Y-58674000D03*
%TO.P,R16,2*%
%TO.N,WIFI_MISO*%
X52935500Y-58674000D03*
%TD*%
D35*
%TO.P,C14,1*%
%TO.N,Net-(J3-D+)*%
X174497500Y-48006000D03*
%TO.P,C14,2*%
%TO.N,GND*%
X176222500Y-48006000D03*
%TD*%
D43*
%TO.P,S8,1,1*%
%TO.N,unconnected-(S8-Pad1)*%
X180694000Y-121412000D03*
%TO.P,S8,2,2*%
%TO.N,+5V*%
X180694000Y-125222000D03*
%TO.P,S8,3,3*%
%TO.N,+5V_SW*%
X180694000Y-129032000D03*
%TO.P,S8,4,4*%
%TO.N,unconnected-(S8-Pad4)*%
X185520000Y-121412000D03*
%TO.P,S8,5,5*%
%TO.N,+5V*%
X185520000Y-125222000D03*
%TO.P,S8,6,6*%
%TO.N,+5V_SW*%
X185520000Y-129032000D03*
%TO.P,S8,7*%
%TO.N,N/C*%
X180567000Y-141732000D03*
%TO.P,S8,8*%
X185647000Y-141732000D03*
%TD*%
D31*
%TO.P,C16,1*%
%TO.N,Net-(J3-VBUS)*%
X161898000Y-47191000D03*
%TO.P,C16,2*%
%TO.N,GND*%
X161898000Y-45466000D03*
%TD*%
D20*
%TO.P,R12,1*%
%TO.N,+3V3*%
X53189500Y-51308000D03*
%TO.P,R12,2*%
%TO.N,Net-(U7-SPI_CFG)*%
X55014500Y-51308000D03*
%TD*%
D32*
%TO.P,R11,1*%
%TO.N,Net-(CR1-CATHODE{slash}ANODE-Pad2)*%
X88947000Y-50292000D03*
%TO.P,R11,2*%
%TO.N,LOOPb*%
X87122000Y-50292000D03*
%TD*%
D44*
%TO.P,U3,1,DTR#*%
%TO.N,unconnected-(U3-DTR#-Pad1)*%
X167355000Y-60142000D03*
%TO.P,U3,2,RTS#*%
%TO.N,Net-(U3-RTS#)*%
X168005000Y-60142000D03*
%TO.P,U3,3,VCCIO*%
%TO.N,USB_3V3*%
X168655000Y-60142000D03*
%TO.P,U3,4,RXD*%
%TO.N,U1TX*%
X169305000Y-60142000D03*
%TO.P,U3,5,RI#*%
%TO.N,unconnected-(U3-RI#-Pad5)*%
X169955000Y-60142000D03*
%TO.P,U3,6,GND_1*%
%TO.N,GND*%
X170605000Y-60142000D03*
%TO.P,U3,7,DSR#*%
%TO.N,unconnected-(U3-DSR#-Pad7)*%
X171255000Y-60142000D03*
%TO.P,U3,8,DCD#*%
%TO.N,unconnected-(U3-DCD#-Pad8)*%
X171905000Y-60142000D03*
%TO.P,U3,9,CTS#*%
%TO.N,U1RTSn*%
X172555000Y-60142000D03*
%TO.P,U3,10,CBUS2*%
%TO.N,unconnected-(U3-CBUS2-Pad10)*%
X173205000Y-60142000D03*
%TO.P,U3,11,USBDP*%
%TO.N,Net-(U3-USBDP)*%
X173205000Y-53142000D03*
%TO.P,U3,12,USBDM*%
%TO.N,Net-(U3-USBDM)*%
X172555000Y-53142000D03*
%TO.P,U3,13,3V3OUT*%
%TO.N,USB_3V3*%
X171905000Y-53142000D03*
%TO.P,U3,14,RESET#*%
X171255000Y-53142000D03*
%TO.P,U3,15,VCC*%
%TO.N,+5V_SW*%
X170605000Y-53142000D03*
%TO.P,U3,16,GND_2*%
%TO.N,GND*%
X169955000Y-53142000D03*
%TO.P,U3,17,CBUS1*%
%TO.N,unconnected-(U3-CBUS1-Pad17)*%
X169305000Y-53142000D03*
%TO.P,U3,18,CBUS0*%
%TO.N,unconnected-(U3-CBUS0-Pad18)*%
X168655000Y-53142000D03*
%TO.P,U3,19,CBUS3*%
%TO.N,PWRENn*%
X168005000Y-53142000D03*
%TO.P,U3,20,TXD*%
%TO.N,Net-(U3-TXD)*%
X167355000Y-53142000D03*
%TD*%
D45*
%TO.P,U6,1,VIN*%
%TO.N,+5V_SW*%
X177016500Y-62550000D03*
%TO.P,U6,2,GND*%
%TO.N,GND*%
X177016500Y-63500000D03*
%TO.P,U6,3,EN*%
%TO.N,Net-(U5-1Y)*%
X177016500Y-64450000D03*
%TO.P,U6,4,NC*%
%TO.N,unconnected-(U6-NC-Pad4)*%
X179291500Y-64450000D03*
%TO.P,U6,5,VOUT*%
%TO.N,+3V3*%
X179291500Y-62550000D03*
%TD*%
D20*
%TO.P,R2,1*%
%TO.N,+3V3*%
X145745500Y-102362000D03*
%TO.P,R2,2*%
%TO.N,Net-(T1-SEC_1)*%
X147570500Y-102362000D03*
%TD*%
%TO.P,R5,1*%
%TO.N,Net-(C9-Pad2)*%
X126187500Y-103632000D03*
%TO.P,R5,2*%
%TO.N,Net-(U2-IN+)*%
X128012500Y-103632000D03*
%TD*%
D46*
%TO.P,S7,1,1*%
%TO.N,ENCODER_SWn*%
X159144000Y-138470000D03*
D47*
%TO.P,S7,2,2*%
%TO.N,GND*%
X164144000Y-138470000D03*
%TO.P,S7,A,CHANNEL_A*%
%TO.N,QAn*%
X159144000Y-140970000D03*
%TO.P,S7,B,CHANNEL_B*%
%TO.N,QBn*%
X164144000Y-140970000D03*
%TO.P,S7,C,COMMON*%
%TO.N,GND*%
X161644000Y-140970000D03*
D48*
%TO.P,S7,S1,SHIELD*%
X155094000Y-137470000D03*
%TO.P,S7,S2,SHIELD*%
X168194000Y-137470000D03*
%TD*%
D32*
%TO.P,R1,1*%
%TO.N,+3V3*%
X119122500Y-105156000D03*
%TO.P,R1,2*%
%TO.N,MCLRn*%
X117297500Y-105156000D03*
%TD*%
D35*
%TO.P,C6,1*%
%TO.N,+3V3*%
X129539500Y-116332000D03*
%TO.P,C6,2*%
%TO.N,GND*%
X131264500Y-116332000D03*
%TD*%
D32*
%TO.P,R3,1*%
%TO.N,Net-(T1-SEC_1)*%
X147570500Y-100584000D03*
%TO.P,R3,2*%
%TO.N,GND*%
X145745500Y-100584000D03*
%TD*%
D12*
%TO.P,R25,1*%
%TO.N,KOS_LED*%
X90778000Y-128119500D03*
%TO.P,R25,2*%
%TO.N,Net-(S5-A__AMBER)*%
X90778000Y-129944500D03*
%TD*%
D37*
%TO.P,C21,1*%
%TO.N,Net-(U7-1P3V_TP)*%
X68326000Y-67209500D03*
%TO.P,C21,2*%
%TO.N,GND*%
X68326000Y-68934500D03*
%TD*%
%TO.P,C20,1*%
%TO.N,Net-(U7-1P3V_TP)*%
X66548000Y-67209500D03*
%TO.P,C20,2*%
%TO.N,GND*%
X66548000Y-68934500D03*
%TD*%
D29*
%TO.P,U4,1*%
%TO.N,Net-(CR1-CATHODE{slash}ANODE-Pad2)*%
X89393000Y-53858000D03*
D30*
%TO.P,U4,2*%
%TO.N,LOOPb*%
X86853000Y-53858000D03*
%TO.P,U4,3,NC*%
%TO.N,unconnected-(U4-NC-Pad3)*%
X84313000Y-53858000D03*
%TO.P,U4,4*%
%TO.N,GND*%
X84313000Y-61478000D03*
%TO.P,U4,5*%
%TO.N,LOOP_SENSE*%
X86853000Y-61478000D03*
%TO.P,U4,6*%
%TO.N,unconnected-(U4-Pad6)*%
X89393000Y-61478000D03*
%TD*%
D13*
%TO.P,J2,1,Pin_1*%
%TO.N,MCLRn*%
X117194000Y-107950000D03*
D14*
%TO.P,J2,2,Pin_2*%
%TO.N,+3V3*%
X119734000Y-107950000D03*
%TO.P,J2,3,Pin_3*%
%TO.N,GND*%
X122274000Y-107950000D03*
%TO.P,J2,4,Pin_4*%
%TO.N,PGED*%
X124814000Y-107950000D03*
%TO.P,J2,5,Pin_5*%
%TO.N,PGEC*%
X127354000Y-107950000D03*
%TO.P,J2,6,Pin_6*%
%TO.N,unconnected-(J2-Pin_6-Pad6)*%
X129894000Y-107950000D03*
%TO.P,J2,7,Pin_7*%
%TO.N,unconnected-(J2-Pin_7-Pad7)*%
X132434000Y-107950000D03*
%TO.P,J2,8,Pin_8*%
%TO.N,IDLEn*%
X134974000Y-107950000D03*
%TD*%
D15*
%TO.P,C9,1*%
%TO.N,AFSK_OUT*%
X127962500Y-100076000D03*
%TO.P,C9,2*%
%TO.N,Net-(C9-Pad2)*%
X126237500Y-100076000D03*
%TD*%
D21*
%TO.P,S2,L1,A__AMBER*%
%TO.N,Net-(S2-A__AMBER)*%
X60298000Y-140462000D03*
D22*
%TO.P,S2,L2,K_AMBER*%
%TO.N,GND*%
X56848000Y-140462000D03*
D23*
%TO.P,S2,MH1,MH1*%
X60173000Y-142662000D03*
%TO.P,S2,MH2,MH2*%
X56973000Y-142662000D03*
D22*
%TO.P,S2,S1,COM*%
%TO.N,SHIFT_TOGGLEn*%
X59148000Y-140462000D03*
%TO.P,S2,S2,NO*%
%TO.N,GND*%
X57998000Y-140462000D03*
%TD*%
D12*
%TO.P,R22,1*%
%TO.N,850_SHIFT_LED*%
X60298000Y-128119500D03*
%TO.P,R22,2*%
%TO.N,Net-(S2-A__AMBER)*%
X60298000Y-129944500D03*
%TD*%
D15*
%TO.P,C15,1*%
%TO.N,Net-(J3-D-)*%
X172412500Y-48006000D03*
%TO.P,C15,2*%
%TO.N,GND*%
X170687500Y-48006000D03*
%TD*%
%TO.P,C18,1*%
%TO.N,+5V_SW*%
X174190500Y-64516000D03*
%TO.P,C18,2*%
%TO.N,GND*%
X172465500Y-64516000D03*
%TD*%
%TO.P,C8,1*%
%TO.N,Net-(T1-SEC_1)*%
X147520500Y-98806000D03*
%TO.P,C8,2*%
%TO.N,GND*%
X145795500Y-98806000D03*
%TD*%
D12*
%TO.P,R26,1*%
%TO.N,TX_LED*%
X100938000Y-128119500D03*
%TO.P,R26,2*%
%TO.N,Net-(S6-A__AMBER)*%
X100938000Y-129944500D03*
%TD*%
D37*
%TO.P,C3,1*%
%TO.N,GND*%
X139800000Y-128577000D03*
%TO.P,C3,2*%
%TO.N,+3V3*%
X139800000Y-130302000D03*
%TD*%
D32*
%TO.P,R21,1*%
%TO.N,GND*%
X112264500Y-106172000D03*
%TO.P,R21,2*%
%TO.N,IDLEn*%
X110439500Y-106172000D03*
%TD*%
D49*
%TO.N,GND*%
X65024000Y-57912000D03*
D50*
X140816000Y-110236000D03*
X177392000Y-48006000D03*
X147457398Y-117745502D03*
X132193255Y-119267095D03*
X175614000Y-57912000D03*
X143864000Y-98552000D03*
X169518000Y-51308000D03*
X56388000Y-53340000D03*
X124864043Y-101695999D03*
X175614000Y-63500000D03*
X66548000Y-70104000D03*
X139800000Y-127254000D03*
X179932000Y-54610000D03*
X137530697Y-101246498D03*
X132381106Y-116384894D03*
X75184000Y-49276000D03*
X148902500Y-119846500D03*
X70358000Y-66114500D03*
X169010000Y-48006000D03*
X137006000Y-125984000D03*
X172312000Y-65786000D03*
X118210000Y-121666000D03*
%TO.N,+3V3*%
X51816000Y-51308000D03*
X60198000Y-66040000D03*
X65278000Y-66040000D03*
X181202000Y-62484000D03*
X135752697Y-101246498D03*
X151675859Y-117460440D03*
X153008000Y-119888000D03*
X143864000Y-101092000D03*
X140816000Y-105410000D03*
X128274500Y-119380000D03*
X139800000Y-131826000D03*
X118210000Y-117094000D03*
X128116000Y-115570000D03*
%TO.N,+5V_SW*%
X170788000Y-51308000D03*
X174852000Y-60452000D03*
%TO.N,PWRENn*%
X167994000Y-51308000D03*
X178408000Y-51562000D03*
%TO.N,LOOP_SENSE*%
X147678299Y-104643701D03*
%TO.N,WIFI_CSn*%
X146145701Y-105414299D03*
X57658000Y-66802000D03*
X56134000Y-57404000D03*
%TO.N,WIFI_SPI_CLK*%
X144372000Y-105410000D03*
%TO.N,WIFI_MOSI*%
X142594000Y-105410000D03*
%TO.N,WIFI_MISO*%
X142594000Y-109728000D03*
X51054000Y-69088000D03*
%TO.N,U1CTSn*%
X143610000Y-129286000D03*
%TO.N,U1TX*%
X142340000Y-129323500D03*
%TO.N,U1RTSn*%
X138059500Y-130048000D03*
%TO.N,U1RX*%
X141070000Y-129323500D03*
%TO.N,Net-(T1-SEC_3)*%
X137006000Y-109728000D03*
%TO.N,AUTOSTART*%
X180694000Y-50038000D03*
%TO.N,LOOP_KEY*%
X148944000Y-104648000D03*
%TO.N,WIFI_EN*%
X148944000Y-106680000D03*
X62738000Y-66040000D03*
%TO.N,Net-(U1-AN9{slash}RPB14{slash}SCK3{slash}PMA1{slash}RB14)*%
X123544000Y-119126000D03*
X122951113Y-122136500D03*
%TO.N,AUTOSTARTn*%
X172312000Y-129286000D03*
X145144497Y-129328500D03*
%TO.N,WIFI_IRQn*%
X49276000Y-56642000D03*
X152104213Y-118363500D03*
%TO.N,WIFI_RESETn*%
X149706000Y-111506000D03*
%TO.N,TX_LED*%
X128116000Y-116840000D03*
X100938000Y-126810500D03*
%TO.N,TX_TOGGLEn*%
X147674000Y-135446500D03*
X147674000Y-130810000D03*
%TO.N,+5V*%
X165454000Y-50800000D03*
%TD*%
D51*
%TO.N,GND*%
X161898000Y-45466000D02*
X161898000Y-42860000D01*
X161898000Y-42860000D02*
X165256000Y-39502000D01*
%TO.N,Net-(S3-A__AMBER)*%
X70458000Y-140462000D02*
X70458000Y-129944500D01*
%TO.N,Net-(S6-A__AMBER)*%
X100938000Y-140462000D02*
X100938000Y-129944500D01*
%TO.N,Net-(S5-A__AMBER)*%
X90778000Y-140462000D02*
X90778000Y-129944500D01*
%TO.N,Net-(S4-A__AMBER)*%
X80618000Y-140462000D02*
X80618000Y-129944500D01*
%TO.N,Net-(S2-A__AMBER)*%
X60298000Y-140462000D02*
X60298000Y-129944500D01*
%TO.N,Net-(S1-A__AMBER)*%
X50138000Y-140462000D02*
X50138000Y-129944500D01*
%TO.N,GND*%
X139800000Y-127254000D02*
X139804000Y-127250000D01*
X75093000Y-49367000D02*
X75184000Y-49276000D01*
X132318445Y-119267095D02*
X132193255Y-119267095D01*
X145792000Y-119622000D02*
X148678000Y-119622000D01*
X139804000Y-127250000D02*
X139804000Y-124610000D01*
X137304000Y-125686000D02*
X137006000Y-125984000D01*
D52*
X68276000Y-68984500D02*
X68326000Y-68934500D01*
D51*
X147600900Y-117602000D02*
X147457398Y-117745502D01*
X120815000Y-119761000D02*
X118691500Y-119761000D01*
X131264500Y-116332000D02*
X132328212Y-116332000D01*
X145795500Y-98806000D02*
X144118000Y-98806000D01*
X112264500Y-106172000D02*
X114430500Y-104006000D01*
X122787000Y-127666500D02*
X122120500Y-127000000D01*
X132193255Y-119267095D02*
X131123405Y-119267095D01*
X177254000Y-57912000D02*
X175614000Y-57912000D01*
X140804000Y-113134000D02*
X140804000Y-110248000D01*
X169955000Y-51745000D02*
X169518000Y-51308000D01*
X114430500Y-104006000D02*
X119346000Y-104006000D01*
X118210000Y-120242500D02*
X118210000Y-121666000D01*
X132338350Y-119122000D02*
X132193255Y-119267095D01*
X169955000Y-53142000D02*
X169955000Y-51745000D01*
X149990829Y-119888000D02*
X148944000Y-119888000D01*
X145745500Y-100584000D02*
X145745500Y-98856000D01*
D52*
X172465500Y-65632500D02*
X172312000Y-65786000D01*
X66548000Y-68934500D02*
X66548000Y-70104000D01*
D51*
X140804000Y-110248000D02*
X140816000Y-110236000D01*
D52*
X60198000Y-68934500D02*
X63958000Y-68934500D01*
D51*
X58167000Y-53431000D02*
X56479000Y-53431000D01*
X175614000Y-65786000D02*
X175614000Y-63500000D01*
X148678000Y-119622000D02*
X148902500Y-119846500D01*
X132618212Y-116622000D02*
X132381106Y-116384894D01*
X130460000Y-101054000D02*
X130676000Y-100838000D01*
X70358000Y-66294000D02*
X70358000Y-66114500D01*
X171042000Y-57912000D02*
X175614000Y-57912000D01*
X122787000Y-129737000D02*
X122787000Y-127666500D01*
D52*
X63958000Y-68934500D02*
X64008000Y-68984500D01*
D51*
X147333896Y-117622000D02*
X147457398Y-117745502D01*
X132328212Y-116332000D02*
X132381106Y-116384894D01*
X176122000Y-66294000D02*
X175614000Y-65786000D01*
X56479000Y-53431000D02*
X56388000Y-53340000D01*
X148589500Y-117602000D02*
X147600900Y-117602000D01*
X136804000Y-125782000D02*
X137006000Y-125984000D01*
D52*
X64008000Y-68984500D02*
X68276000Y-68984500D01*
D51*
X122274000Y-106934000D02*
X122274000Y-107950000D01*
X134316000Y-119122000D02*
X132338350Y-119122000D01*
X70227000Y-64233000D02*
X70227000Y-66163000D01*
X137360500Y-101076301D02*
X137530697Y-101246498D01*
X178508500Y-54610000D02*
X179932000Y-54610000D01*
X170605000Y-60142000D02*
X170605000Y-58349000D01*
X137304000Y-124610000D02*
X137304000Y-125686000D01*
X118691500Y-119761000D02*
X118210000Y-120242500D01*
X140816000Y-110236000D02*
X140816000Y-108558500D01*
X136804000Y-124610000D02*
X136804000Y-125782000D01*
X170687500Y-48006000D02*
X169010000Y-48006000D01*
X126237500Y-101854000D02*
X127037500Y-101054000D01*
X177291500Y-66294000D02*
X176122000Y-66294000D01*
X177016500Y-63500000D02*
X175614000Y-63500000D01*
X126237500Y-101854000D02*
X125022044Y-101854000D01*
X131123405Y-119267095D02*
X131010500Y-119380000D01*
X145792000Y-117622000D02*
X147333896Y-117622000D01*
X134316000Y-116622000D02*
X132618212Y-116622000D01*
X170605000Y-58349000D02*
X171042000Y-57912000D01*
X176222500Y-48006000D02*
X177392000Y-48006000D01*
X127037500Y-101054000D02*
X130460000Y-101054000D01*
X125022044Y-101854000D02*
X124864043Y-101695999D01*
X144118000Y-98806000D02*
X143864000Y-98552000D01*
X119346000Y-104006000D02*
X122274000Y-106934000D01*
D52*
X172465500Y-62738000D02*
X172465500Y-65632500D01*
D51*
X139800000Y-128577000D02*
X139800000Y-127254000D01*
X137360500Y-99822000D02*
X137360500Y-101076301D01*
X148944000Y-119888000D02*
X148902500Y-119846500D01*
X145745500Y-98856000D02*
X145795500Y-98806000D01*
X70227000Y-66163000D02*
X70358000Y-66294000D01*
X72897000Y-49367000D02*
X75093000Y-49367000D01*
%TO.N,+3V3*%
X119122500Y-105156000D02*
X119734000Y-105767500D01*
X140816000Y-106833500D02*
X140016000Y-107633500D01*
X60067000Y-65909000D02*
X60198000Y-66040000D01*
X133176000Y-99888000D02*
X135569500Y-99888000D01*
X118372500Y-104406000D02*
X119122500Y-105156000D01*
X119734000Y-105767500D02*
X119734000Y-107950000D01*
X65147000Y-65909000D02*
X65278000Y-66040000D01*
X139304000Y-126724695D02*
X139000000Y-127028695D01*
X139000000Y-127028695D02*
X139000000Y-129756000D01*
X144880000Y-102362000D02*
X144626000Y-102108000D01*
X60067000Y-64233000D02*
X60067000Y-65909000D01*
X116420000Y-104406000D02*
X118372500Y-104406000D01*
X129285500Y-119533500D02*
X129285500Y-119380000D01*
X150938000Y-120688000D02*
X151738000Y-119888000D01*
X179016500Y-66294000D02*
X180440000Y-66294000D01*
X181136000Y-62550000D02*
X181202000Y-62484000D01*
X150314500Y-117602000D02*
X151534299Y-117602000D01*
X120247000Y-129737000D02*
X120247000Y-127148500D01*
X144626000Y-102108000D02*
X143864000Y-101346000D01*
X106629500Y-106172000D02*
X106629500Y-107291500D01*
X120815000Y-118491000D02*
X118236500Y-118491000D01*
X148680695Y-120650000D02*
X149198000Y-120650000D01*
X146885380Y-117122000D02*
X146986378Y-117021002D01*
X128274500Y-119380000D02*
X129285500Y-119380000D01*
D52*
X60198000Y-67209500D02*
X60198000Y-66040000D01*
D51*
X129602000Y-115532000D02*
X132552810Y-115532000D01*
X140304000Y-111248000D02*
X140304000Y-113134000D01*
X128116000Y-115570000D02*
X128154000Y-115532000D01*
X134316000Y-119622000D02*
X132863655Y-119622000D01*
X135569500Y-99888000D02*
X135635500Y-99822000D01*
X139546000Y-130302000D02*
X139800000Y-130302000D01*
X145792000Y-117122000D02*
X146885380Y-117122000D01*
X128154000Y-115532000D02*
X129602000Y-115532000D01*
X135635500Y-101129301D02*
X135752697Y-101246498D01*
X53189500Y-51308000D02*
X51816000Y-51308000D01*
X143864000Y-101346000D02*
X143864000Y-101092000D01*
X125765000Y-116651000D02*
X125765000Y-117221000D01*
X151738000Y-119888000D02*
X153008000Y-119888000D01*
X147837503Y-117021002D02*
X148056505Y-116802000D01*
X132863655Y-119622000D02*
X132305655Y-120180000D01*
X133142810Y-116122000D02*
X134316000Y-116122000D01*
X65147000Y-64233000D02*
X65147000Y-65909000D01*
X125765000Y-115951000D02*
X125765000Y-116651000D01*
X140816000Y-105410000D02*
X140816000Y-106833500D01*
X132552810Y-115532000D02*
X133142810Y-116122000D01*
X118236500Y-118491000D02*
X118210000Y-118517500D01*
X139800000Y-131826000D02*
X139800000Y-130302000D01*
X180440000Y-66294000D02*
X181202000Y-65532000D01*
X149198000Y-120650000D02*
X149236000Y-120688000D01*
D52*
X179291500Y-62550000D02*
X181136000Y-62550000D01*
D51*
X129932000Y-120180000D02*
X129285500Y-119533500D01*
X181202000Y-65532000D02*
X181202000Y-62484000D01*
X149236000Y-120688000D02*
X150938000Y-120688000D01*
X106780000Y-107442000D02*
X113384000Y-107442000D01*
X128116000Y-115570000D02*
X126146000Y-115570000D01*
X145792000Y-120122000D02*
X148152695Y-120122000D01*
X120247000Y-127148500D02*
X120395500Y-127000000D01*
X148056505Y-116802000D02*
X149514500Y-116802000D01*
X140016000Y-110960000D02*
X140304000Y-111248000D01*
X113384000Y-107442000D02*
X116420000Y-104406000D01*
X135635500Y-99822000D02*
X135635500Y-101129301D01*
X129539500Y-115594500D02*
X129602000Y-115532000D01*
X132305655Y-120180000D02*
X129932000Y-120180000D01*
X118210000Y-118517500D02*
X118210000Y-117094000D01*
X129539500Y-116332000D02*
X129539500Y-115594500D01*
X126146000Y-115570000D02*
X125765000Y-115951000D01*
X149514500Y-116802000D02*
X150314500Y-117602000D01*
X106629500Y-107291500D02*
X106780000Y-107442000D01*
X139000000Y-129756000D02*
X139546000Y-130302000D01*
X148152695Y-120122000D02*
X148680695Y-120650000D01*
X151534299Y-117602000D02*
X151675859Y-117460440D01*
X146986378Y-117021002D02*
X147837503Y-117021002D01*
X140016000Y-107633500D02*
X140016000Y-110960000D01*
X139304000Y-124610000D02*
X139304000Y-126724695D01*
X145745500Y-102362000D02*
X144880000Y-102362000D01*
%TO.N,Net-(C10-Pad1)*%
X126238000Y-65786000D02*
X125551500Y-65099500D01*
X126237500Y-98298000D02*
X126237500Y-65786500D01*
X126237500Y-65786500D02*
X126238000Y-65786000D01*
X125551500Y-65099500D02*
X125551500Y-63500000D01*
%TO.N,Net-(T1-SEC_1)*%
X147520500Y-98806000D02*
X147750500Y-98576000D01*
X147570500Y-100584000D02*
X147570500Y-98856000D01*
X147520500Y-98806000D02*
X147650500Y-98676000D01*
X147650500Y-98676000D02*
X147650500Y-63500000D01*
X147570500Y-102362000D02*
X147570500Y-100584000D01*
X147570500Y-98856000D02*
X147520500Y-98806000D01*
%TO.N,USB_3V3*%
X168655000Y-54965000D02*
X169010000Y-54610000D01*
X169010000Y-54610000D02*
X171804000Y-54610000D01*
X168655000Y-60142000D02*
X168655000Y-54965000D01*
X171905000Y-53142000D02*
X171905000Y-54509000D01*
X171804000Y-54610000D02*
X176783500Y-54610000D01*
X176783500Y-54610000D02*
X176783500Y-52882000D01*
X171905000Y-54509000D02*
X171804000Y-54610000D01*
X171255000Y-53142000D02*
X171905000Y-53142000D01*
X176783500Y-52882000D02*
X176733500Y-52832000D01*
%TO.N,AFSK_OUT*%
X130676000Y-99888000D02*
X131484000Y-99888000D01*
X130676000Y-99888000D02*
X128150500Y-99888000D01*
X127962500Y-99314000D02*
X127962500Y-100076000D01*
X132114000Y-101788000D02*
X133176000Y-101788000D01*
X117194000Y-99314000D02*
X127962500Y-99314000D01*
X131926000Y-101600000D02*
X132114000Y-101788000D01*
X127962500Y-98298000D02*
X127962500Y-99314000D01*
X131484000Y-99888000D02*
X131926000Y-100330000D01*
X115416000Y-101092000D02*
X117194000Y-99314000D01*
X128150500Y-99888000D02*
X127962500Y-100076000D01*
X131926000Y-100330000D02*
X131926000Y-101600000D01*
%TO.N,Net-(U2-IN+)*%
X128028500Y-101788000D02*
X130676000Y-101788000D01*
X128012500Y-103632000D02*
X128012500Y-101904000D01*
X128012500Y-101904000D02*
X127962500Y-101854000D01*
X127962500Y-101854000D02*
X128028500Y-101788000D01*
%TO.N,Net-(J3-D+)*%
X176272500Y-49781000D02*
X174497500Y-48006000D01*
X174497500Y-44167500D02*
X174497500Y-48006000D01*
X176272500Y-49784000D02*
X176272500Y-49781000D01*
X172526000Y-42196000D02*
X174497500Y-44167500D01*
D52*
%TO.N,+5V_SW*%
X189838000Y-126492000D02*
X189838000Y-120142000D01*
X174190500Y-62738000D02*
X174190500Y-64516000D01*
D51*
X174852000Y-60452000D02*
X174852000Y-62484000D01*
X170605000Y-51491000D02*
X170788000Y-51308000D01*
D52*
X174598000Y-64923500D02*
X174190500Y-64516000D01*
D51*
X174378500Y-62550000D02*
X174190500Y-62738000D01*
X174852000Y-62484000D02*
X174918000Y-62550000D01*
X179932000Y-57912000D02*
X179990000Y-57970000D01*
D52*
X177016500Y-62550000D02*
X174918000Y-62550000D01*
D53*
X174918000Y-62550000D02*
X174378500Y-62550000D01*
D51*
X176950500Y-62484000D02*
X177016500Y-62550000D01*
X170605000Y-53142000D02*
X170605000Y-51491000D01*
D52*
X174598000Y-104902000D02*
X174598000Y-64923500D01*
X189838000Y-120142000D02*
X174598000Y-104902000D01*
D51*
X179990000Y-57970000D02*
X179990000Y-59182000D01*
D52*
X180694000Y-129032000D02*
X187298000Y-129032000D01*
X187298000Y-129032000D02*
X189838000Y-126492000D01*
D51*
X179054000Y-57912000D02*
X179932000Y-57912000D01*
X179990000Y-59182000D02*
X176622000Y-62550000D01*
%TO.N,MCLRn*%
X117297500Y-105156000D02*
X117194000Y-105259500D01*
X117194000Y-105259500D02*
X117194000Y-107950000D01*
X139804000Y-114296000D02*
X139804000Y-113134000D01*
X117194000Y-107950000D02*
X117194000Y-109728000D01*
X135482000Y-111506000D02*
X135482000Y-114046000D01*
X117194000Y-109728000D02*
X118718000Y-111252000D01*
X118718000Y-111252000D02*
X135228000Y-111252000D01*
X135990000Y-114554000D02*
X139546000Y-114554000D01*
X139546000Y-114554000D02*
X139804000Y-114296000D01*
X135482000Y-114046000D02*
X135990000Y-114554000D01*
X135228000Y-111252000D02*
X135482000Y-111506000D01*
%TO.N,PWM_OUT*%
X139304000Y-113134000D02*
X139304000Y-107962000D01*
X139304000Y-107962000D02*
X135632500Y-104290500D01*
X135632500Y-104290500D02*
X135632500Y-103632000D01*
%TO.N,Net-(C9-Pad2)*%
X125459444Y-100076000D02*
X124089000Y-101446444D01*
X131672000Y-104648000D02*
X126592000Y-104648000D01*
X132688000Y-103632000D02*
X131672000Y-104648000D01*
X124089000Y-101446444D02*
X124089000Y-102399000D01*
X125322000Y-103632000D02*
X126187500Y-103632000D01*
X126237500Y-100076000D02*
X125459444Y-100076000D01*
X124089000Y-102399000D02*
X125322000Y-103632000D01*
X126187500Y-104243500D02*
X126187500Y-103632000D01*
X126592000Y-104648000D02*
X126187500Y-104243500D01*
X133807500Y-103632000D02*
X132688000Y-103632000D01*
%TO.N,Net-(J3-D-)*%
X172526000Y-44196000D02*
X172526000Y-47892500D01*
X170637500Y-49784000D02*
X170637500Y-49781000D01*
X170637500Y-49781000D02*
X172412500Y-48006000D01*
X172526000Y-47892500D02*
X172412500Y-48006000D01*
D52*
%TO.N,Net-(J3-VBUS)*%
X165454000Y-44196000D02*
X170026000Y-44196000D01*
D51*
X161951000Y-47244000D02*
X165454000Y-47244000D01*
X161898000Y-47191000D02*
X161951000Y-47244000D01*
D52*
X165454000Y-47244000D02*
X165454000Y-44196000D01*
D51*
%TO.N,PWRENn*%
X177254000Y-56526000D02*
X177254000Y-57162000D01*
X178558500Y-52832000D02*
X177646000Y-53744500D01*
X168005000Y-51319000D02*
X167994000Y-51308000D01*
X178408000Y-52681500D02*
X178558500Y-52832000D01*
X168005000Y-53142000D02*
X168005000Y-51319000D01*
X177646000Y-53744500D02*
X177646000Y-56134000D01*
X178408000Y-51562000D02*
X178408000Y-52681500D01*
X177646000Y-56134000D02*
X177254000Y-56526000D01*
%TO.N,Net-(U7-1P3V_TP)*%
X66548000Y-67209500D02*
X68326000Y-67209500D01*
X66163000Y-64233000D02*
X66163000Y-66824500D01*
X66163000Y-66824500D02*
X66548000Y-67209500D01*
%TO.N,LOOPb*%
X87122000Y-50292000D02*
X86853000Y-50561000D01*
X86853000Y-50561000D02*
X86853000Y-53858000D01*
X87122000Y-50292000D02*
X87122000Y-45313000D01*
X87122000Y-45313000D02*
X93129000Y-39306000D01*
%TO.N,Net-(CR1-CATHODE{slash}ANODE-Pad2)*%
X92125800Y-50292000D02*
X95671800Y-53838000D01*
X92125800Y-50292000D02*
X88947000Y-50292000D01*
X88947000Y-50292000D02*
X89393000Y-50738000D01*
X89393000Y-50738000D02*
X89393000Y-53858000D01*
X95671800Y-53838000D02*
X96027000Y-53838000D01*
%TO.N,LOOP_SENSE*%
X146658000Y-110236000D02*
X147678299Y-109215701D01*
X143304000Y-113134000D02*
X143304000Y-111318889D01*
X144386889Y-110236000D02*
X146658000Y-110236000D01*
X143304000Y-111318889D02*
X144386889Y-110236000D01*
X147678299Y-109215701D02*
X147678299Y-104643701D01*
%TO.N,Net-(J1-Pin_3)*%
X140680792Y-133488000D02*
X134158000Y-133488000D01*
X148554792Y-132472000D02*
X141696792Y-132472000D01*
X147860396Y-129090000D02*
X148622396Y-129090000D01*
X134158000Y-133488000D02*
X130407000Y-129737000D01*
X143804000Y-124610000D02*
X143804000Y-126034500D01*
X144118000Y-126348500D02*
X145118896Y-126348500D01*
X149336000Y-129803604D02*
X149336000Y-131690792D01*
X141696792Y-132472000D02*
X140680792Y-133488000D01*
X145118896Y-126348500D02*
X147860396Y-129090000D01*
X148622396Y-129090000D02*
X149336000Y-129803604D01*
X143804000Y-126034500D02*
X144118000Y-126348500D01*
X149336000Y-131690792D02*
X148554792Y-132472000D01*
%TO.N,Net-(J1-Pin_4)*%
X149786000Y-131877188D02*
X148741188Y-132922000D01*
X140867188Y-133938000D02*
X132068000Y-133938000D01*
X148741188Y-132922000D02*
X141883188Y-132922000D01*
X149786000Y-125048000D02*
X149786000Y-131877188D01*
X145792000Y-122622000D02*
X147360000Y-122622000D01*
X132068000Y-133938000D02*
X127867000Y-129737000D01*
X147360000Y-122622000D02*
X149786000Y-125048000D01*
X141883188Y-132922000D02*
X140867188Y-133938000D01*
%TO.N,Net-(J1-Pin_5)*%
X148927584Y-133372000D02*
X142069584Y-133372000D01*
X142069584Y-133372000D02*
X141053584Y-134388000D01*
X147546396Y-122172000D02*
X150236000Y-124861604D01*
X145792000Y-122122000D02*
X147370000Y-122122000D01*
X141053584Y-134388000D02*
X129978000Y-134388000D01*
X147370000Y-122122000D02*
X147420000Y-122172000D01*
X150236000Y-124861604D02*
X150236000Y-132063584D01*
X129978000Y-134388000D02*
X125327000Y-129737000D01*
X147420000Y-122172000D02*
X147546396Y-122172000D01*
X150236000Y-132063584D02*
X148927584Y-133372000D01*
%TO.N,WIFI_CSn*%
X58076000Y-57404000D02*
X58167000Y-57495000D01*
X146150000Y-106783500D02*
X146150000Y-105418598D01*
X146150000Y-105418598D02*
X146145701Y-105414299D01*
X56134000Y-57404000D02*
X58076000Y-57404000D01*
X57658000Y-76200000D02*
X57658000Y-66802000D01*
%TO.N,Net-(J1-Pin_1)*%
X147525698Y-130048000D02*
X148182000Y-130048000D01*
X148436000Y-131318000D02*
X148182000Y-131572000D01*
X140308000Y-132588000D02*
X138338000Y-132588000D01*
X148182000Y-131572000D02*
X141324000Y-131572000D01*
X142804000Y-125647500D02*
X142850000Y-125693500D01*
X143096500Y-127248500D02*
X144726198Y-127248500D01*
X144726198Y-127248500D02*
X147525698Y-130048000D01*
X138338000Y-132588000D02*
X135487000Y-129737000D01*
X141324000Y-131572000D02*
X140308000Y-132588000D01*
X142850000Y-125693500D02*
X142850000Y-127002000D01*
X148436000Y-130302000D02*
X148436000Y-131318000D01*
X142804000Y-124610000D02*
X142804000Y-125647500D01*
X148182000Y-130048000D02*
X148436000Y-130302000D01*
X142850000Y-127002000D02*
X143096500Y-127248500D01*
%TO.N,WIFI_SPI_CLK*%
X55118000Y-76200000D02*
X55118000Y-67564000D01*
X55118000Y-60706000D02*
X56297000Y-59527000D01*
X55118000Y-67564000D02*
X55118000Y-60706000D01*
X56297000Y-59527000D02*
X58167000Y-59527000D01*
X144372000Y-106783500D02*
X144372000Y-105410000D01*
%TO.N,Net-(J1-Pin_2)*%
X148368396Y-132022000D02*
X141510396Y-132022000D01*
X141510396Y-132022000D02*
X140544396Y-132988000D01*
X143304000Y-126492500D02*
X143610000Y-126798500D01*
X147674000Y-129540000D02*
X148436000Y-129540000D01*
X148886000Y-129990000D02*
X148886000Y-131504396D01*
X148886000Y-131504396D02*
X148368396Y-132022000D01*
X143610000Y-126798500D02*
X144932500Y-126798500D01*
X140544396Y-132988000D02*
X134258000Y-132988000D01*
X134258000Y-132988000D02*
X132947000Y-131677000D01*
X148436000Y-129540000D02*
X148886000Y-129990000D01*
X143304000Y-124610000D02*
X143304000Y-126492500D01*
X132947000Y-131677000D02*
X132947000Y-129737000D01*
X144932500Y-126798500D02*
X147674000Y-129540000D01*
%TO.N,WIFI_MOSI*%
X50038000Y-57658000D02*
X51217000Y-56479000D01*
X142594000Y-106783500D02*
X142594000Y-105410000D01*
X50038000Y-76200000D02*
X50038000Y-68326000D01*
X50038000Y-68326000D02*
X50038000Y-57658000D01*
X51217000Y-56479000D02*
X58167000Y-56479000D01*
%TO.N,WIFI_MISO*%
X51054000Y-69088000D02*
X51054000Y-59690000D01*
X141991000Y-110722701D02*
X141991000Y-109982000D01*
X51054000Y-59690000D02*
X52070000Y-58674000D01*
X52070000Y-58674000D02*
X52935500Y-58674000D01*
X142245000Y-109728000D02*
X142594000Y-109728000D01*
X141804000Y-110909701D02*
X141804000Y-113134000D01*
X141991000Y-109982000D02*
X142245000Y-109728000D01*
X141804000Y-110909701D02*
X141991000Y-110722701D01*
%TO.N,U1CTSn*%
X141500000Y-128016000D02*
X142082500Y-128598500D01*
X142922500Y-128598500D02*
X143610000Y-129286000D01*
X168005000Y-104025500D02*
X168248000Y-103782500D01*
X141500000Y-126655903D02*
X141500000Y-128016000D01*
X142082500Y-128598500D02*
X142922500Y-128598500D01*
X141304000Y-124610000D02*
X141304000Y-126459903D01*
X141304000Y-126459903D02*
X141500000Y-126655903D01*
X168005000Y-109739000D02*
X170026000Y-111760000D01*
X168005000Y-109739000D02*
X168005000Y-104025500D01*
%TO.N,U1TX*%
X140804000Y-124610000D02*
X140804000Y-126596299D01*
X169264000Y-108458000D02*
X168756000Y-108458000D01*
X170026000Y-109220000D02*
X169264000Y-108458000D01*
X142123500Y-129323500D02*
X142340000Y-129323500D01*
X140804000Y-126596299D02*
X141050000Y-126842299D01*
X169305000Y-104607000D02*
X169305000Y-60142000D01*
X168756000Y-108458000D02*
X168756000Y-105156000D01*
X141050000Y-128270000D02*
X141070000Y-128270000D01*
X141070000Y-128270000D02*
X142123500Y-129323500D01*
X141050000Y-126842299D02*
X141050000Y-128270000D01*
X168756000Y-105156000D02*
X169305000Y-104607000D01*
%TO.N,Net-(U3-USBDM)*%
X172555000Y-49876500D02*
X172462500Y-49784000D01*
X172555000Y-53142000D02*
X172555000Y-49876500D01*
%TO.N,U1RTSn*%
X138059500Y-126454500D02*
X138804000Y-125710000D01*
X170026000Y-106680000D02*
X170026000Y-63349530D01*
X172555000Y-61078396D02*
X172216396Y-61417000D01*
X172216396Y-61417000D02*
X171958530Y-61417000D01*
X138059500Y-130048000D02*
X138059500Y-126454500D01*
X138804000Y-125710000D02*
X138804000Y-124610000D01*
X172555000Y-60142000D02*
X172555000Y-61078396D01*
X171958530Y-61417000D02*
X170026000Y-63349530D01*
%TO.N,Net-(U3-USBDP)*%
X173205000Y-51026500D02*
X174447500Y-49784000D01*
X173205000Y-53142000D02*
X173205000Y-51026500D01*
%TO.N,Net-(U7-SPI_CFG)*%
X55014500Y-51308000D02*
X55105500Y-51399000D01*
X55105500Y-51399000D02*
X58167000Y-51399000D01*
%TO.N,Net-(U1-AN15{slash}ETXD1{slash}PMD7{slash}RE7)*%
X145388000Y-109728000D02*
X146150000Y-108966000D01*
X142804000Y-113134000D02*
X142804000Y-111182493D01*
X144258493Y-109728000D02*
X145388000Y-109728000D01*
X146150000Y-108966000D02*
X146150000Y-108608500D01*
X142804000Y-111182493D02*
X144258493Y-109728000D01*
%TO.N,U1RX*%
X165962000Y-110236000D02*
X170026000Y-114300000D01*
X165962000Y-110236000D02*
X165962000Y-103782500D01*
X140600000Y-128853500D02*
X141070000Y-129323500D01*
X140304000Y-124610000D02*
X140304000Y-126732695D01*
X140304000Y-126732695D02*
X140600000Y-127028695D01*
X140600000Y-127028695D02*
X140600000Y-128853500D01*
%TO.N,Net-(U1-AN14{slash}C1IND{slash}RPG6{slash}SCK2{slash}PMA5{slash}RG6)*%
X144372000Y-108978097D02*
X144372000Y-108608500D01*
X142304000Y-111046097D02*
X144372000Y-108978097D01*
X142304000Y-111046097D02*
X142304000Y-113134000D01*
%TO.N,Net-(U1-AN12{slash}C2IND{slash}RPG8{slash}SCL4{slash}PMA3{slash}RG8)*%
X141304000Y-110773305D02*
X141541000Y-110536305D01*
X141541000Y-110536305D02*
X141541000Y-109661500D01*
X141541000Y-109661500D02*
X142594000Y-108608500D01*
X141304000Y-110773305D02*
X141304000Y-113134000D01*
%TO.N,Net-(K1-Pad1)*%
X96027000Y-95315500D02*
X96027000Y-61458000D01*
X96215500Y-95504000D02*
X96027000Y-95315500D01*
%TO.N,LOOPa*%
X105918000Y-47095000D02*
X98129000Y-39306000D01*
X105918000Y-50292000D02*
X105918000Y-47095000D01*
X101107000Y-53838000D02*
X102372000Y-53838000D01*
X102372000Y-53838000D02*
X105918000Y-50292000D01*
%TO.N,Net-(K2-Pad1)*%
X107442000Y-95707500D02*
X107442000Y-61722000D01*
X107391500Y-95758000D02*
X107442000Y-95707500D01*
%TO.N,PTTb*%
X113792000Y-47752000D02*
X107442000Y-54102000D01*
X118129000Y-46971000D02*
X117348000Y-47752000D01*
X118129000Y-39306000D02*
X118129000Y-46971000D01*
X117348000Y-47752000D02*
X113792000Y-47752000D01*
%TO.N,PTTa*%
X123129000Y-43495000D02*
X123129000Y-39306000D01*
X112522000Y-54102000D02*
X123129000Y-43495000D01*
%TO.N,PTT*%
X123769157Y-102644843D02*
X114428843Y-102644843D01*
X114428843Y-102644843D02*
X112876000Y-101092000D01*
X135099604Y-105156000D02*
X126280314Y-105156000D01*
X138304000Y-113134000D02*
X138304000Y-108360396D01*
X126280314Y-105156000D02*
X123769157Y-102644843D01*
X138304000Y-108360396D02*
X135099604Y-105156000D01*
X112876000Y-99417500D02*
X112876000Y-101092000D01*
X109216500Y-95758000D02*
X112876000Y-99417500D01*
%TO.N,AFSK_INa*%
X153162000Y-48006000D02*
X157150500Y-51994500D01*
X157150500Y-52832000D02*
X157150500Y-51777500D01*
X148129000Y-39306000D02*
X148129000Y-46529000D01*
X149606000Y-48006000D02*
X153162000Y-48006000D01*
X157150500Y-51994500D02*
X157150500Y-52832000D01*
X148129000Y-46529000D02*
X149606000Y-48006000D01*
%TO.N,WIFI_MISO_TP*%
X54760500Y-58674000D02*
X54923500Y-58511000D01*
X54760500Y-60301500D02*
X52578000Y-62484000D01*
X54923500Y-58511000D02*
X58167000Y-58511000D01*
X52578000Y-62484000D02*
X52578000Y-76200000D01*
X54760500Y-58674000D02*
X54760500Y-60301500D01*
%TO.N,AFSK_INb*%
X143129000Y-48310500D02*
X147650500Y-52832000D01*
X143129000Y-39306000D02*
X143129000Y-48310500D01*
%TO.N,AFSK_OUTb*%
X128129000Y-47893000D02*
X125551500Y-50470500D01*
X125551500Y-50470500D02*
X125551500Y-52832000D01*
X128129000Y-39306000D02*
X128129000Y-47893000D01*
%TO.N,AFSK_OUTa*%
X135051500Y-49707500D02*
X135051500Y-52832000D01*
X133129000Y-39306000D02*
X133129000Y-47785000D01*
X133129000Y-47785000D02*
X135051500Y-49707500D01*
%TO.N,PGED*%
X136304000Y-113134000D02*
X136304000Y-111691604D01*
X135356396Y-110744000D02*
X127608000Y-110744000D01*
X127608000Y-110744000D02*
X124814000Y-107950000D01*
X136304000Y-111691604D02*
X135356396Y-110744000D01*
%TO.N,PGEC*%
X136804000Y-113134000D02*
X136804000Y-111050000D01*
X136804000Y-110921604D02*
X136118396Y-110236000D01*
X129640000Y-110236000D02*
X127354000Y-107950000D01*
X136118396Y-110236000D02*
X129640000Y-110236000D01*
%TO.N,Net-(T1-SEC_3)*%
X137304000Y-113134000D02*
X137304000Y-110026000D01*
X137304000Y-110026000D02*
X137006000Y-109728000D01*
%TO.N,IDLEn*%
X136498000Y-107950000D02*
X134974000Y-107950000D01*
X137804000Y-109256000D02*
X136498000Y-107950000D01*
X113005500Y-103606000D02*
X119511686Y-103606000D01*
X121921843Y-106016157D02*
X133040157Y-106016157D01*
X119511686Y-103606000D02*
X121921843Y-106016157D01*
X137804000Y-113134000D02*
X137804000Y-109256000D01*
X110439500Y-106172000D02*
X113005500Y-103606000D01*
X108454500Y-106172000D02*
X110439500Y-106172000D01*
X133040157Y-106016157D02*
X134974000Y-107950000D01*
%TO.N,AUTOSTART*%
X180694000Y-54802595D02*
X180694000Y-50038000D01*
X178754000Y-58662000D02*
X178479000Y-58387000D01*
X178479000Y-58387000D02*
X178479000Y-56587000D01*
X178479000Y-56587000D02*
X179694000Y-55372000D01*
X180124595Y-55372000D02*
X180694000Y-54802595D01*
X179054000Y-58662000D02*
X178754000Y-58662000D01*
X179694000Y-55372000D02*
X180124595Y-55372000D01*
%TO.N,LOOP_KEY*%
X148182000Y-109348396D02*
X148182000Y-105664000D01*
X99668000Y-95504000D02*
X98040500Y-95504000D01*
X148182000Y-105410000D02*
X148944000Y-104648000D01*
X143804000Y-111455285D02*
X144570643Y-110688642D01*
X146841754Y-110688642D02*
X147992198Y-109538198D01*
X143804000Y-113134000D02*
X143804000Y-111455285D01*
X147992198Y-109538198D02*
X148182000Y-109348396D01*
X100176000Y-96012000D02*
X99668000Y-95504000D01*
X144570643Y-110688642D02*
X146841754Y-110688642D01*
X148182000Y-105664000D02*
X148182000Y-105410000D01*
X100176000Y-101092000D02*
X100176000Y-96012000D01*
%TO.N,AFSK_OUT_EN*%
X138804000Y-113134000D02*
X138804000Y-108224000D01*
X134720000Y-101346000D02*
X134212000Y-100838000D01*
X134720000Y-104140000D02*
X134720000Y-101346000D01*
X138804000Y-108224000D02*
X134720000Y-104140000D01*
X134212000Y-100838000D02*
X133176000Y-100838000D01*
%TO.N,WIFI_EN*%
X147674000Y-110744000D02*
X147674000Y-114554000D01*
X148944000Y-109474000D02*
X147674000Y-110744000D01*
X64131000Y-67036500D02*
X64008000Y-67159500D01*
X64131000Y-64233000D02*
X64131000Y-65909000D01*
X148944000Y-106680000D02*
X148944000Y-109474000D01*
X64131000Y-65909000D02*
X62869000Y-65909000D01*
X62869000Y-65909000D02*
X62738000Y-66040000D01*
X64131000Y-65909000D02*
X64131000Y-67036500D01*
X147674000Y-114554000D02*
X147106000Y-115122000D01*
X147106000Y-115122000D02*
X145792000Y-115122000D01*
%TO.N,Net-(U1-AN49{slash}RPB9{slash}PMA7{slash}RB9)*%
X127100000Y-117602000D02*
X126846000Y-117856000D01*
X134316000Y-117622000D02*
X133059520Y-117622000D01*
X127120000Y-117622000D02*
X127100000Y-117602000D01*
X133036017Y-117598497D02*
X131691065Y-117598497D01*
X131667562Y-117622000D02*
X127120000Y-117622000D01*
X122909000Y-117221000D02*
X120815000Y-117221000D01*
X123544000Y-117856000D02*
X122909000Y-117221000D01*
X126846000Y-117856000D02*
X123544000Y-117856000D01*
X131691065Y-117598497D02*
X131667562Y-117622000D01*
X133059520Y-117622000D02*
X133036017Y-117598497D01*
%TO.N,Net-(U1-TMS{slash}CVREFOUT{slash}AN5{slash}RPB10{slash}PMA13{slash}RB10)*%
X134316000Y-118122000D02*
X132923830Y-118122000D01*
X131877254Y-118047998D02*
X131803252Y-118122000D01*
X127100000Y-118238396D02*
X127100000Y-119116695D01*
X127216396Y-118122000D02*
X127100000Y-118238396D01*
X126455695Y-119761000D02*
X125765000Y-119761000D01*
X132923830Y-118122000D02*
X132849828Y-118047998D01*
X127100000Y-119116695D02*
X126455695Y-119761000D01*
X132849828Y-118047998D02*
X131877254Y-118047998D01*
X131803252Y-118122000D02*
X127216396Y-118122000D01*
%TO.N,Net-(U1-TDO{slash}AN6{slash}PMA12{slash}RB11)*%
X127550000Y-118676000D02*
X127550000Y-119622751D01*
X119480000Y-116332000D02*
X119861000Y-115951000D01*
X119861000Y-115951000D02*
X120815000Y-115951000D01*
X119734000Y-117856000D02*
X119480000Y-117602000D01*
X122528000Y-120142000D02*
X122528000Y-118557249D01*
X127550000Y-119622751D02*
X126718252Y-120454499D01*
X127654000Y-118572000D02*
X127550000Y-118676000D01*
X122528000Y-118557249D02*
X121826751Y-117856000D01*
X134316000Y-118622000D02*
X132788140Y-118622000D01*
X119480000Y-117602000D02*
X119480000Y-116332000D01*
X132063443Y-118497499D02*
X131988942Y-118572000D01*
X132663639Y-118497499D02*
X132063443Y-118497499D01*
X121826751Y-117856000D02*
X119734000Y-117856000D01*
X126718252Y-120454499D02*
X122840499Y-120454499D01*
X131988942Y-118572000D02*
X127654000Y-118572000D01*
X132788140Y-118622000D02*
X132663639Y-118497499D01*
X122840499Y-120454499D02*
X122528000Y-120142000D01*
%TO.N,Net-(U1-AN9{slash}RPB14{slash}SCK3{slash}PMA1{slash}RB14)*%
X125765000Y-118491000D02*
X124179000Y-118491000D01*
X127461897Y-121862000D02*
X123225613Y-121862000D01*
X132863224Y-121529501D02*
X127794396Y-121529501D01*
X124179000Y-118491000D02*
X123544000Y-119126000D01*
X133270725Y-121122000D02*
X132863224Y-121529501D01*
X123225613Y-121862000D02*
X122951113Y-122136500D01*
X127794396Y-121529501D02*
X127461897Y-121862000D01*
X134316000Y-121122000D02*
X133270725Y-121122000D01*
%TO.N,AUTOSTARTn*%
X173582000Y-128016000D02*
X173582000Y-102108000D01*
X141950000Y-126469507D02*
X141950000Y-127762000D01*
X173582000Y-102108000D02*
X171637000Y-100163000D01*
X174090000Y-60188695D02*
X174090000Y-60960000D01*
X174090000Y-60960000D02*
X173183000Y-61867000D01*
X175616695Y-58662000D02*
X174090000Y-60188695D01*
X171637000Y-62304216D02*
X172074216Y-61867000D01*
X171637000Y-100163000D02*
X171637000Y-62304216D01*
X172312000Y-129286000D02*
X173582000Y-128016000D01*
X143964497Y-128148500D02*
X145144497Y-129328500D01*
X141804000Y-124610000D02*
X141804000Y-126323507D01*
X172074216Y-61867000D02*
X173183000Y-61867000D01*
X142336500Y-128148500D02*
X143964497Y-128148500D01*
X141804000Y-126323507D02*
X141950000Y-126469507D01*
X141950000Y-127762000D02*
X142336500Y-128148500D01*
X177254000Y-58662000D02*
X175616695Y-58662000D01*
%TO.N,ENCODER_SWn*%
X148022505Y-119122000D02*
X148056505Y-119088000D01*
X159144000Y-124754000D02*
X159144000Y-138470000D01*
X148056505Y-119088000D02*
X153478000Y-119088000D01*
X145792000Y-119122000D02*
X148022505Y-119122000D01*
X153478000Y-119088000D02*
X159144000Y-124754000D01*
%TO.N,WIFI_IRQn*%
X59944000Y-76200000D02*
X58674000Y-77470000D01*
X49022000Y-77470000D02*
X48768000Y-77216000D01*
X145792000Y-118622000D02*
X151845713Y-118622000D01*
X50800000Y-55118000D02*
X49276000Y-56642000D01*
X151845713Y-118622000D02*
X152104213Y-118363500D01*
X58167000Y-54447000D02*
X51471000Y-54447000D01*
X48768000Y-70104000D02*
X49276000Y-69596000D01*
X51471000Y-54447000D02*
X50800000Y-55118000D01*
X60198000Y-76200000D02*
X59944000Y-76200000D01*
X49276000Y-56642000D02*
X49276000Y-69596000D01*
X48768000Y-77216000D02*
X48768000Y-70104000D01*
X58674000Y-77470000D02*
X49022000Y-77470000D01*
%TO.N,WIFI_RESETn*%
X75946000Y-59182000D02*
X75946000Y-69812500D01*
X147329435Y-115622000D02*
X145792000Y-115622000D01*
X149706000Y-115316000D02*
X149647501Y-115374499D01*
X64516000Y-77470000D02*
X69088000Y-77470000D01*
X72897000Y-58511000D02*
X75275000Y-58511000D01*
X75946000Y-70612000D02*
X75946000Y-69812500D01*
X149706000Y-111506000D02*
X149706000Y-115316000D01*
X149647501Y-115374499D02*
X147576936Y-115374499D01*
X63246000Y-76200000D02*
X64516000Y-77470000D01*
X75692000Y-58928000D02*
X75946000Y-59182000D01*
X69088000Y-77470000D02*
X75946000Y-70612000D01*
X75275000Y-58511000D02*
X75692000Y-58928000D01*
X147576936Y-115374499D02*
X147329435Y-115622000D01*
X62738000Y-76200000D02*
X63246000Y-76200000D01*
%TO.N,Net-(U5-1Y)*%
X179932000Y-57150000D02*
X179920000Y-57162000D01*
X178116000Y-64450000D02*
X177016500Y-64450000D01*
X179920000Y-57162000D02*
X179054000Y-57162000D01*
X178304000Y-64262000D02*
X178116000Y-64450000D01*
X180440000Y-57658000D02*
X179932000Y-57150000D01*
X180440000Y-59436000D02*
X178304000Y-61572000D01*
X178304000Y-61572000D02*
X178304000Y-64262000D01*
X180440000Y-59436000D02*
X180440000Y-57658000D01*
%TO.N,KOS_LED*%
X145792000Y-120622000D02*
X147905584Y-120622000D01*
X142628772Y-134722000D02*
X141612772Y-135738000D01*
X141612772Y-135738000D02*
X119699228Y-135738000D01*
X90778000Y-126652000D02*
X90778000Y-128119500D01*
X151622000Y-132586772D02*
X149486772Y-134722000D01*
X149486772Y-134722000D02*
X142628772Y-134722000D01*
X116084000Y-125636000D02*
X91794000Y-125636000D01*
X119699228Y-135738000D02*
X116272000Y-132310772D01*
X116272000Y-132310772D02*
X116272000Y-125824000D01*
X116272000Y-125824000D02*
X116084000Y-125636000D01*
X151622000Y-124338416D02*
X151622000Y-132586772D01*
X147905584Y-120622000D02*
X151622000Y-124338416D01*
X91794000Y-125636000D02*
X90778000Y-126652000D01*
%TO.N,TX_LED*%
X128408000Y-117132000D02*
X128370000Y-117094000D01*
X134316000Y-117122000D02*
X134306000Y-117132000D01*
X128370000Y-117094000D02*
X128116000Y-116840000D01*
X134306000Y-117132000D02*
X128408000Y-117132000D01*
X100938000Y-126810500D02*
X100938000Y-128119500D01*
%TO.N,AUTOSTART_LED*%
X70458000Y-124344000D02*
X70458000Y-128119500D01*
X123871314Y-122878000D02*
X122913314Y-123836000D01*
X134314000Y-122624000D02*
X128370000Y-122624000D01*
X134316000Y-122622000D02*
X134314000Y-122624000D01*
X128370000Y-122624000D02*
X128116000Y-122878000D01*
X128116000Y-122878000D02*
X123871314Y-122878000D01*
X70966000Y-123836000D02*
X70458000Y-124344000D01*
X122913314Y-123836000D02*
X70966000Y-123836000D01*
%TO.N,MOTOR_LED*%
X117172000Y-125244000D02*
X117194000Y-125222000D01*
X116708000Y-124736000D02*
X82396000Y-124736000D01*
X82396000Y-124736000D02*
X80618000Y-126514000D01*
X80618000Y-126514000D02*
X80618000Y-128119500D01*
X149113980Y-133822000D02*
X142255980Y-133822000D01*
X150722000Y-124711208D02*
X150722000Y-132213980D01*
X141239980Y-134838000D02*
X120072020Y-134838000D01*
X145792000Y-121622000D02*
X147376000Y-121622000D01*
X147676792Y-121666000D02*
X150722000Y-124711208D01*
X117194000Y-125222000D02*
X116708000Y-124736000D01*
X142255980Y-133822000D02*
X141239980Y-134838000D01*
X147376000Y-121622000D02*
X147420000Y-121666000D01*
X147420000Y-121666000D02*
X147676792Y-121666000D01*
X117172000Y-131937980D02*
X117172000Y-125244000D01*
X150722000Y-132213980D02*
X149113980Y-133822000D01*
X120072020Y-134838000D02*
X117172000Y-131937980D01*
%TO.N,MARK_HI_LED*%
X132464500Y-114808000D02*
X52424000Y-114808000D01*
X52424000Y-114808000D02*
X50138000Y-117094000D01*
X50138000Y-117094000D02*
X50138000Y-128119500D01*
X134316000Y-115622000D02*
X133278500Y-115622000D01*
X133278500Y-115622000D02*
X132464500Y-114808000D01*
%TO.N,850_SHIFT_LED*%
X60298000Y-125730000D02*
X63092000Y-122936000D01*
X127275501Y-121412000D02*
X127608000Y-121079501D01*
X60298000Y-128119500D02*
X60298000Y-125730000D01*
X127608000Y-121079501D02*
X132677534Y-121079501D01*
X133135035Y-120622000D02*
X134316000Y-120622000D01*
X132677534Y-121079501D02*
X133135035Y-120622000D01*
X118972000Y-122936000D02*
X120496000Y-121412000D01*
X120496000Y-121412000D02*
X127275501Y-121412000D01*
X63092000Y-122936000D02*
X118972000Y-122936000D01*
%TO.N,SHIFT_TOGGLEn*%
X120242000Y-120904000D02*
X118718000Y-122428000D01*
X127354000Y-120629501D02*
X127079501Y-120904000D01*
X132491844Y-120629501D02*
X127354000Y-120629501D01*
X132999345Y-120122000D02*
X132491844Y-120629501D01*
X118718000Y-122428000D02*
X62584000Y-122428000D01*
X127079501Y-120904000D02*
X120242000Y-120904000D01*
X59148000Y-125864000D02*
X59148000Y-140462000D01*
X62584000Y-122428000D02*
X59148000Y-125864000D01*
X134316000Y-120122000D02*
X132999345Y-120122000D01*
%TO.N,KOS_TOGGLEn*%
X145792000Y-121122000D02*
X145808000Y-121138000D01*
X116396000Y-125186000D02*
X91032000Y-125186000D01*
X116722000Y-132124376D02*
X116722000Y-125512000D01*
X151172000Y-132400376D02*
X149300376Y-134272000D01*
X91032000Y-125186000D02*
X89628000Y-126590000D01*
X149300376Y-134272000D02*
X142442376Y-134272000D01*
X119885624Y-135288000D02*
X116722000Y-132124376D01*
X145808000Y-121138000D02*
X147785188Y-121138000D01*
X116722000Y-125512000D02*
X116396000Y-125186000D01*
X142442376Y-134272000D02*
X141426376Y-135288000D01*
X147785188Y-121138000D02*
X151172000Y-124524812D01*
X141426376Y-135288000D02*
X119885624Y-135288000D01*
X151172000Y-124524812D02*
X151172000Y-132400376D01*
X89628000Y-126590000D02*
X89628000Y-140462000D01*
%TO.N,TX_TOGGLEn*%
X144539802Y-127698500D02*
X147651302Y-130810000D01*
X147674000Y-135446500D02*
X142540668Y-135446500D01*
X142400000Y-126283111D02*
X142400000Y-127508000D01*
X142400000Y-127508000D02*
X142590500Y-127698500D01*
X142590500Y-127698500D02*
X144539802Y-127698500D01*
X114908000Y-126086000D02*
X100430000Y-126086000D01*
X115822000Y-127000000D02*
X114908000Y-126086000D01*
X142304000Y-124610000D02*
X142304000Y-126187111D01*
X115822000Y-132497168D02*
X115822000Y-127000000D01*
X141799168Y-136188000D02*
X119512832Y-136188000D01*
X142540668Y-135446500D02*
X141799168Y-136188000D01*
X99788000Y-126728000D02*
X99788000Y-140462000D01*
X119512832Y-136188000D02*
X115822000Y-132497168D01*
X147651302Y-130810000D02*
X147674000Y-130810000D01*
X142304000Y-126187111D02*
X142400000Y-126283111D01*
X100430000Y-126086000D02*
X99788000Y-126728000D01*
%TO.N,AUTOSTART_TOGGLEn*%
X133406415Y-121622000D02*
X132854415Y-122174000D01*
X70204000Y-123386000D02*
X69308000Y-124282000D01*
X123684918Y-122428000D02*
X122726918Y-123386000D01*
X122726918Y-123386000D02*
X70204000Y-123386000D01*
X127862000Y-122174000D02*
X127608000Y-122428000D01*
X132854415Y-122174000D02*
X127862000Y-122174000D01*
X127608000Y-122428000D02*
X123684918Y-122428000D01*
X69308000Y-124282000D02*
X69308000Y-140462000D01*
X134316000Y-121622000D02*
X133406415Y-121622000D01*
%TO.N,MOTOR_TOGGLEn*%
X124057710Y-123328000D02*
X123099710Y-124286000D01*
X134316000Y-122122000D02*
X135430000Y-122122000D01*
X123099710Y-124286000D02*
X81888000Y-124286000D01*
X135482000Y-122174000D02*
X135482000Y-122993500D01*
X79468000Y-126706000D02*
X79468000Y-140462000D01*
X135430000Y-122122000D02*
X135482000Y-122174000D01*
X81888000Y-124286000D02*
X79468000Y-126706000D01*
X135482000Y-122993500D02*
X135147500Y-123328000D01*
X135147500Y-123328000D02*
X124057710Y-123328000D01*
%TO.N,MARK_HI_TOGGLEn*%
X133414896Y-115122000D02*
X132592896Y-114300000D01*
X134316000Y-115122000D02*
X133414896Y-115122000D01*
X48988000Y-117607604D02*
X48988000Y-140462000D01*
X132592896Y-114300000D02*
X52295604Y-114300000D01*
X52295604Y-114300000D02*
X48988000Y-117607604D01*
%TO.N,QAn*%
X147651314Y-116571501D02*
X147870815Y-116352000D01*
X147870815Y-116352000D02*
X151592724Y-116352000D01*
X160374000Y-139740000D02*
X159144000Y-140970000D01*
X160374000Y-125133276D02*
X160374000Y-139740000D01*
X145792000Y-116622000D02*
X146749690Y-116622000D01*
X146800189Y-116571501D02*
X147651314Y-116571501D01*
X146749690Y-116622000D02*
X146800189Y-116571501D01*
X151592724Y-116352000D02*
X160374000Y-125133276D01*
%TO.N,QBn*%
X147465125Y-116122000D02*
X147763125Y-115824000D01*
X147763125Y-115824000D02*
X151738000Y-115824000D01*
X162406000Y-126492000D02*
X162406000Y-139232000D01*
X162406000Y-139232000D02*
X164144000Y-140970000D01*
X145792000Y-116122000D02*
X147465125Y-116122000D01*
X151738000Y-115824000D02*
X162406000Y-126492000D01*
D52*
%TO.N,+5V*%
X165454000Y-48944000D02*
X165454000Y-50800000D01*
D51*
%TO.N,Net-(U3-RTS#)*%
X168005000Y-101714500D02*
X168005000Y-60142000D01*
X168248000Y-101957500D02*
X168005000Y-101714500D01*
%TO.N,Net-(U3-TXD)*%
X165962000Y-101957500D02*
X165962000Y-54535000D01*
X165962000Y-54535000D02*
X167355000Y-53142000D01*
%TD*%
%TA.AperFunction,Conductor*%
%TO.N,GND*%
G36*
X66744121Y-56154002D02*
G01*
X66790614Y-56207658D01*
X66802000Y-56260000D01*
X66802000Y-59818000D01*
X66781998Y-59886121D01*
X66728342Y-59932614D01*
X66676000Y-59944000D01*
X63372000Y-59944000D01*
X63303879Y-59923998D01*
X63257386Y-59870342D01*
X63246000Y-59818000D01*
X63246000Y-56260000D01*
X63266002Y-56191879D01*
X63319658Y-56145386D01*
X63372000Y-56134000D01*
X66676000Y-56134000D01*
X66744121Y-56154002D01*
G37*
%TD.AperFunction*%
%TD*%
M02*
