M48
; DRILL file {KiCad 8.0.2} date 2024-05-30T20:48:43-0700
; FORMAT={-:-/ absolute / metric / decimal}
; #@! TF.CreationDate,2024-05-30T20:48:43-07:00
; #@! TF.GenerationSoftware,Kicad,Pcbnew,8.0.2
; #@! TF.FileFunction,Plated,1,4,PTH
FMAT,2
METRIC
; #@! TA.AperFunction,Plated,PTH,ViaDrill
T1C0.400
; #@! TA.AperFunction,Plated,PTH,ComponentDrill
T2C0.700
; #@! TA.AperFunction,Plated,PTH,ComponentDrill
T3C0.800
; #@! TA.AperFunction,Plated,PTH,ComponentDrill
T4C0.920
; #@! TA.AperFunction,Plated,PTH,ComponentDrill
T5C1.000
; #@! TA.AperFunction,Plated,PTH,ComponentDrill
T6C1.100
; #@! TA.AperFunction,Plated,PTH,ComponentDrill
T7C1.143
; #@! TA.AperFunction,Plated,PTH,ComponentDrill
T8C1.400
; #@! TA.AperFunction,Plated,PTH,ComponentDrill
T9C1.854
; #@! TA.AperFunction,Plated,PTH,ViaDrill
T10C2.000
; #@! TA.AperFunction,Plated,PTH,ComponentDrill
T11C2.200
; #@! TA.AperFunction,Plated,PTH,ComponentDrill
T12C2.300
; #@! TA.AperFunction,Plated,PTH,ComponentDrill
T13C6.400
%
G90
G05
T1
X49.276Y-56.642
X51.054Y-69.088
X51.816Y-51.308
X56.134Y-57.404
X56.388Y-53.34
X57.658Y-66.802
X60.198Y-66.04
X62.738Y-66.04
X65.278Y-66.04
X66.548Y-70.104
X70.358Y-66.114
X75.184Y-49.276
X100.938Y-126.81
X118.21Y-117.094
X118.21Y-121.666
X122.951Y-122.136
X123.544Y-119.126
X124.864Y-101.696
X128.116Y-115.57
X128.116Y-116.84
X128.274Y-119.38
X132.193Y-119.267
X132.381Y-116.385
X135.753Y-101.246
X137.006Y-109.728
X137.006Y-125.984
X137.531Y-101.246
X138.059Y-130.048
X139.8Y-127.254
X139.8Y-131.826
X140.816Y-105.41
X140.816Y-110.236
X141.07Y-129.323
X142.34Y-129.323
X142.594Y-105.41
X142.594Y-109.728
X143.61Y-129.286
X143.864Y-98.552
X143.864Y-101.092
X144.372Y-105.41
X145.144Y-129.328
X146.146Y-105.414
X147.457Y-117.746
X147.674Y-130.81
X147.674Y-135.446
X147.678Y-104.644
X148.903Y-119.846
X148.944Y-104.648
X148.944Y-106.68
X149.706Y-111.506
X151.676Y-117.46
X152.104Y-118.363
X153.008Y-119.888
X165.454Y-50.8
X167.994Y-51.308
X169.01Y-48.006
X169.518Y-51.308
X170.788Y-51.308
X172.312Y-65.786
X172.312Y-129.286
X174.852Y-60.452
X175.614Y-57.912
X175.614Y-63.5
X177.392Y-48.006
X178.408Y-51.562
X179.932Y-54.61
X180.694Y-50.038
X181.202Y-62.484
T2
X46.688Y-140.462
X47.838Y-140.462
X48.988Y-140.462
X50.138Y-140.462
X56.848Y-140.462
X57.998Y-140.462
X59.148Y-140.462
X60.298Y-140.462
X67.008Y-140.462
X68.158Y-140.462
X69.308Y-140.462
X70.458Y-140.462
X77.168Y-140.462
X78.318Y-140.462
X79.468Y-140.462
X80.618Y-140.462
X87.328Y-140.462
X88.478Y-140.462
X89.628Y-140.462
X90.778Y-140.462
X97.488Y-140.462
X98.638Y-140.462
X99.788Y-140.462
X100.938Y-140.462
T3
X84.313Y-53.858
X84.313Y-61.478
X86.853Y-53.858
X86.853Y-61.478
X89.393Y-53.858
X89.393Y-61.478
X96.027Y-53.838
X96.027Y-61.458
X98.567Y-53.838
X98.567Y-61.458
X101.107Y-53.838
X101.107Y-61.458
X107.442Y-54.102
X107.442Y-61.722
X109.982Y-54.102
X109.982Y-61.722
X112.522Y-54.102
X112.522Y-61.722
T4
X170.026Y-42.212
X170.026Y-44.212
X172.526Y-42.212
X172.526Y-44.212
T5
X46.813Y-142.662
X50.013Y-142.662
X50.038Y-76.2
X52.578Y-76.2
X55.118Y-76.2
X56.973Y-142.662
X57.658Y-76.2
X60.173Y-142.662
X60.198Y-76.2
X62.738Y-76.2
X65.278Y-76.2
X67.133Y-142.662
X67.818Y-76.2
X70.333Y-142.662
X77.293Y-142.662
X80.493Y-142.662
X87.453Y-142.662
X90.653Y-142.662
X97.613Y-142.662
X100.176Y-101.092
X100.813Y-142.662
X102.716Y-101.092
X105.256Y-101.092
X107.796Y-101.092
X110.336Y-101.092
X112.876Y-101.092
X115.416Y-101.092
X117.194Y-107.95
X117.956Y-101.092
X119.734Y-107.95
X120.247Y-129.737
X122.274Y-107.95
X122.787Y-129.737
X124.814Y-107.95
X125.327Y-129.737
X127.354Y-107.95
X127.867Y-129.737
X129.894Y-107.95
X130.407Y-129.737
X132.434Y-107.95
X132.947Y-129.737
X134.974Y-107.95
X135.487Y-129.737
X170.026Y-106.68
X170.026Y-109.22
X170.026Y-111.76
X170.026Y-114.3
X170.026Y-116.84
X170.026Y-119.38
X170.026Y-121.92
X170.026Y-124.46
T6
X159.144Y-138.47
X159.144Y-140.97
X161.644Y-140.97
X164.144Y-138.47
X164.144Y-140.97
T7
X92.126Y-50.292
X105.918Y-50.292
T8
X93.129Y-39.306
X98.129Y-39.306
X103.129Y-39.306
X108.129Y-39.306
X113.129Y-39.306
X118.129Y-39.306
X123.129Y-39.306
X125.551Y-52.832
X125.551Y-63.5
X128.129Y-39.306
X130.302Y-52.832
X130.302Y-63.5
X133.129Y-39.306
X135.052Y-52.832
X135.052Y-63.5
X138.129Y-39.306
X143.129Y-39.306
X147.65Y-52.832
X147.65Y-63.5
X148.129Y-39.306
X152.4Y-52.832
X152.4Y-63.5
X157.15Y-52.832
X157.15Y-63.5
T9
X180.567Y-141.732
X180.694Y-121.412
X180.694Y-125.222
X180.694Y-129.032
X185.52Y-121.412
X185.52Y-125.222
X185.52Y-129.032
X185.647Y-141.732
T10
X65.024Y-57.912
T12
X165.256Y-39.502
X177.296Y-39.502
T13
X40.64Y-35.814
X41.148Y-112.014
X192.024Y-112.014
X192.532Y-35.814
T11
G00X155.044Y-137.47
M15
G01X155.144Y-137.47
M16
G05
G00X168.144Y-137.47
M15
G01X168.244Y-137.47
M16
G05
M30
