%TF.GenerationSoftware,KiCad,Pcbnew,8.0.2*%
%TF.CreationDate,2024-12-21T13:17:58-07:00*%
%TF.ProjectId,DSP_TU,4453505f-5455-42e6-9b69-6361645f7063,C*%
%TF.SameCoordinates,Original*%
%TF.FileFunction,Copper,L4,Bot*%
%TF.FilePolarity,Positive*%
%FSLAX46Y46*%
G04 Gerber Fmt 4.6, Leading zero omitted, Abs format (unit mm)*
G04 Created by KiCad (PCBNEW 8.0.2) date 2024-12-21 13:17:58*
%MOMM*%
%LPD*%
G01*
G04 APERTURE LIST*
%TA.AperFunction,ComponentPad*%
%ADD10R,1.700000X1.700000*%
%TD*%
%TA.AperFunction,ComponentPad*%
%ADD11O,1.700000X1.700000*%
%TD*%
%TA.AperFunction,ComponentPad*%
%ADD12R,1.428000X1.428000*%
%TD*%
%TA.AperFunction,ComponentPad*%
%ADD13C,1.428000*%
%TD*%
%TA.AperFunction,ComponentPad*%
%ADD14C,3.316000*%
%TD*%
%TA.AperFunction,ComponentPad*%
%ADD15R,0.950000X0.950000*%
%TD*%
%TA.AperFunction,ComponentPad*%
%ADD16C,0.950000*%
%TD*%
%TA.AperFunction,ComponentPad*%
%ADD17C,1.500000*%
%TD*%
%TA.AperFunction,ComponentPad*%
%ADD18R,2.100000X2.100000*%
%TD*%
%TA.AperFunction,ComponentPad*%
%ADD19C,2.100000*%
%TD*%
%TA.AperFunction,ComponentPad*%
%ADD20R,1.600000X1.600000*%
%TD*%
%TA.AperFunction,ComponentPad*%
%ADD21O,1.600000X1.600000*%
%TD*%
%TA.AperFunction,ComponentPad*%
%ADD22R,1.651000X1.651000*%
%TD*%
%TA.AperFunction,ComponentPad*%
%ADD23C,1.651000*%
%TD*%
%TA.AperFunction,ComponentPad*%
%ADD24C,2.362200*%
%TD*%
%TA.AperFunction,ComponentPad*%
%ADD25R,1.650000X1.650000*%
%TD*%
%TA.AperFunction,ComponentPad*%
%ADD26C,1.650000*%
%TD*%
%TA.AperFunction,ComponentPad*%
%ADD27O,3.316000X6.632000*%
%TD*%
%TA.AperFunction,ViaPad*%
%ADD28C,4.000000*%
%TD*%
%TA.AperFunction,ViaPad*%
%ADD29C,0.800000*%
%TD*%
%TA.AperFunction,Conductor*%
%ADD30C,0.250000*%
%TD*%
G04 APERTURE END LIST*
D10*
%TO.P,J1,1,Pin_1*%
%TO.N,Net-(J1-Pin_1)*%
X135487000Y-131737000D03*
D11*
%TO.P,J1,2,Pin_2*%
%TO.N,Net-(J1-Pin_2)*%
X132947000Y-131737000D03*
%TO.P,J1,3,Pin_3*%
%TO.N,Net-(J1-Pin_3)*%
X130407000Y-131737000D03*
%TO.P,J1,4,Pin_4*%
%TO.N,Net-(J1-Pin_4)*%
X127867000Y-131737000D03*
%TO.P,J1,5,Pin_5*%
%TO.N,Net-(J1-Pin_5)*%
X125327000Y-131737000D03*
%TO.P,J1,6,Pin_6*%
%TO.N,GND*%
X122787000Y-131737000D03*
%TO.P,J1,7,Pin_7*%
%TO.N,+3V3*%
X120247000Y-131737000D03*
%TD*%
D10*
%TO.P,J7,1,Pin_1*%
%TO.N,U1RTSn*%
X170026000Y-106680000D03*
D11*
%TO.P,J7,2,Pin_2*%
%TO.N,U1TX*%
X170026000Y-109220000D03*
%TO.P,J7,3,Pin_3*%
%TO.N,U1CTSn*%
X170026000Y-111760000D03*
%TO.P,J7,4,Pin_4*%
%TO.N,U1RX*%
X170026000Y-114300000D03*
%TO.P,J7,5,Pin_5*%
%TO.N,unconnected-(J7-Pin_5-Pad5)*%
X170026000Y-116840000D03*
%TO.P,J7,6,Pin_6*%
%TO.N,unconnected-(J7-Pin_6-Pad6)*%
X170026000Y-119380000D03*
%TO.P,J7,7,Pin_7*%
%TO.N,unconnected-(J7-Pin_7-Pad7)*%
X170026000Y-121920000D03*
%TO.P,J7,8,Pin_8*%
%TO.N,GND*%
X170026000Y-124460000D03*
%TD*%
D10*
%TO.P,J6,1,Pin_1*%
%TO.N,LOOP_KEY*%
X100176000Y-101092000D03*
D11*
%TO.P,J6,2,Pin_2*%
%TO.N,LOOP_SENSE*%
X102716000Y-101092000D03*
%TO.P,J6,3,Pin_3*%
%TO.N,unconnected-(J6-Pin_3-Pad3)*%
X105256000Y-101092000D03*
%TO.P,J6,4,Pin_4*%
%TO.N,unconnected-(J6-Pin_4-Pad4)*%
X107796000Y-101092000D03*
%TO.P,J6,5,Pin_5*%
%TO.N,unconnected-(J6-Pin_5-Pad5)*%
X110336000Y-101092000D03*
%TO.P,J6,6,Pin_6*%
%TO.N,PTT*%
X112876000Y-101092000D03*
%TO.P,J6,7,Pin_7*%
%TO.N,AFSK_OUT*%
X115416000Y-101092000D03*
%TO.P,J6,8,Pin_8*%
%TO.N,GND*%
X117956000Y-101092000D03*
%TD*%
D12*
%TO.P,J3,1,VBUS*%
%TO.N,Net-(J3-VBUS)*%
X170026000Y-28745000D03*
D13*
%TO.P,J3,2,D-*%
%TO.N,Net-(J3-D-)*%
X172526000Y-28745000D03*
%TO.P,J3,3,D+*%
%TO.N,Net-(J3-D+)*%
X172526000Y-26745000D03*
%TO.P,J3,4,GND*%
%TO.N,GND*%
X170026000Y-26745000D03*
D14*
%TO.P,J3,5,Shield*%
X177296000Y-24035000D03*
%TO.P,J3,6,SH*%
X165256000Y-24035000D03*
%TD*%
D15*
%TO.P,S6,L1,A__AMBER*%
%TO.N,Net-(S6-A__AMBER)*%
X100938000Y-142462000D03*
D16*
%TO.P,S6,L2,K_AMBER*%
%TO.N,GND*%
X97488000Y-142462000D03*
D17*
%TO.P,S6,MH1,MH1*%
X100813000Y-144662000D03*
%TO.P,S6,MH2,MH2*%
X97613000Y-144662000D03*
D16*
%TO.P,S6,S1,COM*%
%TO.N,TX_TOGGLEn*%
X99788000Y-142462000D03*
%TO.P,S6,S2,NO*%
%TO.N,GND*%
X98638000Y-142462000D03*
%TD*%
D15*
%TO.P,S5,L1,A__AMBER*%
%TO.N,Net-(S5-A__AMBER)*%
X90778000Y-142462000D03*
D16*
%TO.P,S5,L2,K_AMBER*%
%TO.N,GND*%
X87328000Y-142462000D03*
D17*
%TO.P,S5,MH1,MH1*%
X90653000Y-144662000D03*
%TO.P,S5,MH2,MH2*%
X87453000Y-144662000D03*
D16*
%TO.P,S5,S1,COM*%
%TO.N,KOS_TOGGLEn*%
X89628000Y-142462000D03*
%TO.P,S5,S2,NO*%
%TO.N,GND*%
X88478000Y-142462000D03*
%TD*%
D18*
%TO.P,J5,1,1*%
%TO.N,AFSK_INa*%
X148129000Y-23400000D03*
D19*
%TO.P,J5,2,2*%
%TO.N,AFSK_INb*%
X143129000Y-23400000D03*
%TO.P,J5,3,3*%
%TO.N,GND*%
X138129000Y-23400000D03*
%TO.P,J5,4,4*%
%TO.N,AFSK_OUTa*%
X133129000Y-23400000D03*
%TO.P,J5,5,5*%
%TO.N,AFSK_OUTb*%
X128129000Y-23400000D03*
%TO.P,J5,6,6*%
%TO.N,PTTa*%
X123129000Y-23400000D03*
%TO.P,J5,7,7*%
%TO.N,PTTb*%
X118129000Y-23400000D03*
%TO.P,J5,8,8*%
%TO.N,AUTOSTART*%
X113129000Y-23400000D03*
%TO.P,J5,9,9*%
%TO.N,GND*%
X108129000Y-23400000D03*
%TO.P,J5,10,10*%
X103129000Y-23400000D03*
%TO.P,J5,11,11*%
%TO.N,LOOPa*%
X98129000Y-23400000D03*
%TO.P,J5,12,12*%
%TO.N,LOOPb*%
X93129000Y-23400000D03*
%TD*%
D20*
%TO.P,K1,1,1*%
%TO.N,Net-(K1-Pad1)*%
X99060000Y-45085000D03*
D21*
%TO.P,K1,2,2*%
%TO.N,GND*%
X101600000Y-45085000D03*
%TO.P,K1,3,3*%
%TO.N,unconnected-(K1-Pad3)*%
X104140000Y-45085000D03*
%TO.P,K1,4,4*%
%TO.N,LOOPa*%
X104140000Y-37465000D03*
%TO.P,K1,5,5*%
%TO.N,unconnected-(K1-Pad5)*%
X101600000Y-37465000D03*
%TO.P,K1,6,6*%
%TO.N,Net-(CR1-CATHODE{slash}ANODE-Pad2)*%
X99060000Y-37465000D03*
%TD*%
D20*
%TO.P,K2,1,1*%
%TO.N,Net-(K2-Pad1)*%
X110475000Y-45349000D03*
D21*
%TO.P,K2,2,2*%
%TO.N,GND*%
X113015000Y-45349000D03*
%TO.P,K2,3,3*%
%TO.N,unconnected-(K2-Pad3)*%
X115555000Y-45349000D03*
%TO.P,K2,4,4*%
%TO.N,PTTa*%
X115555000Y-37729000D03*
%TO.P,K2,5,5*%
%TO.N,unconnected-(K2-Pad5)*%
X113015000Y-37729000D03*
%TO.P,K2,6,6*%
%TO.N,PTTb*%
X110475000Y-37729000D03*
%TD*%
D10*
%TO.P,J4,1,Pin_1*%
%TO.N,WIFI_MOSI*%
X50038000Y-76200000D03*
D11*
%TO.P,J4,2,Pin_2*%
%TO.N,WIFI_MISO_TP*%
X52578000Y-76200000D03*
%TO.P,J4,3,Pin_3*%
%TO.N,WIFI_SPI_CLK*%
X55118000Y-76200000D03*
%TO.P,J4,4,Pin_4*%
%TO.N,WIFI_CSn*%
X57658000Y-76200000D03*
%TO.P,J4,5,Pin_5*%
%TO.N,WIFI_IRQn*%
X60198000Y-76200000D03*
%TO.P,J4,6,Pin_6*%
%TO.N,WIFI_RESETn*%
X62738000Y-76200000D03*
%TO.P,J4,7,Pin_7*%
%TO.N,WIFI_EN*%
X65278000Y-76200000D03*
%TO.P,J4,8,Pin_8*%
%TO.N,GND*%
X67818000Y-76200000D03*
%TD*%
D18*
%TO.P,T2,1,1*%
%TO.N,Net-(C10-Pad1)*%
X124154500Y-47244000D03*
D19*
%TO.P,T2,2,2*%
%TO.N,unconnected-(T2-Pad2)*%
X128904500Y-47244000D03*
%TO.P,T2,3,3*%
%TO.N,GND*%
X133654500Y-47244000D03*
%TO.P,T2,4,4*%
%TO.N,AFSK_OUTa*%
X133654500Y-36576000D03*
%TO.P,T2,5,5*%
%TO.N,unconnected-(T2-Pad5)*%
X128904500Y-36576000D03*
%TO.P,T2,6,6*%
%TO.N,AFSK_OUTb*%
X124154500Y-36576000D03*
%TD*%
D15*
%TO.P,S1,L1,A__AMBER*%
%TO.N,Net-(S1-A__AMBER)*%
X50138000Y-142462000D03*
D16*
%TO.P,S1,L2,K_AMBER*%
%TO.N,GND*%
X46688000Y-142462000D03*
D17*
%TO.P,S1,MH1,MH1*%
X50013000Y-144662000D03*
%TO.P,S1,MH2,MH2*%
X46813000Y-144662000D03*
D16*
%TO.P,S1,S1,COM*%
%TO.N,MARK_HI_TOGGLEn*%
X48988000Y-142462000D03*
%TO.P,S1,S2,NO*%
%TO.N,GND*%
X47838000Y-142462000D03*
%TD*%
D15*
%TO.P,S4,L1,A__AMBER*%
%TO.N,Net-(S4-A__AMBER)*%
X80618000Y-142462000D03*
D16*
%TO.P,S4,L2,K_AMBER*%
%TO.N,GND*%
X77168000Y-142462000D03*
D17*
%TO.P,S4,MH1,MH1*%
X80493000Y-144662000D03*
%TO.P,S4,MH2,MH2*%
X77293000Y-144662000D03*
D16*
%TO.P,S4,S1,COM*%
%TO.N,MOTOR_TOGGLEn*%
X79468000Y-142462000D03*
%TO.P,S4,S2,NO*%
%TO.N,GND*%
X78318000Y-142462000D03*
%TD*%
D15*
%TO.P,S3,L1,A__AMBER*%
%TO.N,Net-(S3-A__AMBER)*%
X70458000Y-142462000D03*
D16*
%TO.P,S3,L2,K_AMBER*%
%TO.N,GND*%
X67008000Y-142462000D03*
D17*
%TO.P,S3,MH1,MH1*%
X70333000Y-144662000D03*
%TO.P,S3,MH2,MH2*%
X67133000Y-144662000D03*
D16*
%TO.P,S3,S1,COM*%
%TO.N,AUTOSTART_TOGGLEn*%
X69308000Y-142462000D03*
%TO.P,S3,S2,NO*%
%TO.N,GND*%
X68158000Y-142462000D03*
%TD*%
D22*
%TO.P,CR1,1,CATHODE/ANODE*%
%TO.N,LOOPa*%
X108951000Y-33919000D03*
D23*
%TO.P,CR1,2,CATHODE/ANODE*%
%TO.N,Net-(CR1-CATHODE{slash}ANODE-Pad2)*%
X95158800Y-33919000D03*
%TD*%
D18*
%TO.P,T1,1,PRI_1*%
%TO.N,AFSK_INa*%
X155753500Y-36576000D03*
D19*
%TO.P,T1,2,PRI_2*%
%TO.N,unconnected-(T1-PRI_2-Pad2)*%
X151003500Y-36576000D03*
%TO.P,T1,3,PRI_3*%
%TO.N,AFSK_INb*%
X146253500Y-36576000D03*
%TO.P,T1,4,SEC_1*%
%TO.N,Net-(T1-SEC_1)*%
X146253500Y-47244000D03*
%TO.P,T1,5,SEC_2*%
%TO.N,unconnected-(T1-SEC_2-Pad5)*%
X151003500Y-47244000D03*
%TO.P,T1,6,SEC_3*%
%TO.N,Net-(T1-SEC_3)*%
X155753500Y-47244000D03*
%TD*%
D24*
%TO.P,S8,1,1*%
%TO.N,unconnected-(S8-Pad1)*%
X180694000Y-123412000D03*
%TO.P,S8,2,2*%
%TO.N,+5V*%
X180694000Y-127222000D03*
%TO.P,S8,3,3*%
%TO.N,+5V_SW*%
X180694000Y-131032000D03*
%TO.P,S8,4,4*%
%TO.N,unconnected-(S8-Pad4)*%
X185520000Y-123412000D03*
%TO.P,S8,5,5*%
%TO.N,+5V*%
X185520000Y-127222000D03*
%TO.P,S8,6,6*%
%TO.N,+5V_SW*%
X185520000Y-131032000D03*
%TO.P,S8,7*%
%TO.N,N/C*%
X180567000Y-143732000D03*
%TO.P,S8,8*%
X185647000Y-143732000D03*
%TD*%
D25*
%TO.P,S7,1,1*%
%TO.N,ENCODER_SWn*%
X159144000Y-140470000D03*
D26*
%TO.P,S7,2,2*%
%TO.N,GND*%
X164144000Y-140470000D03*
%TO.P,S7,A,CHANNEL_A*%
%TO.N,QAn*%
X159144000Y-142970000D03*
%TO.P,S7,B,CHANNEL_B*%
%TO.N,QBn*%
X164144000Y-142970000D03*
%TO.P,S7,C,COMMON*%
%TO.N,GND*%
X161644000Y-142970000D03*
D27*
%TO.P,S7,S1,SHIELD*%
X155094000Y-139470000D03*
%TO.P,S7,S2,SHIELD*%
X168194000Y-139470000D03*
%TD*%
D20*
%TO.P,U4,1*%
%TO.N,Net-(CR1-CATHODE{slash}ANODE-Pad2)*%
X92426000Y-37485000D03*
D21*
%TO.P,U4,2*%
%TO.N,LOOPb*%
X89886000Y-37485000D03*
%TO.P,U4,3,NC*%
%TO.N,unconnected-(U4-NC-Pad3)*%
X87346000Y-37485000D03*
%TO.P,U4,4*%
%TO.N,GND*%
X87346000Y-45105000D03*
%TO.P,U4,5*%
%TO.N,LOOP_SENSE*%
X89886000Y-45105000D03*
%TO.P,U4,6*%
%TO.N,unconnected-(U4-Pad6)*%
X92426000Y-45105000D03*
%TD*%
D10*
%TO.P,J2,1,Pin_1*%
%TO.N,MCLRn*%
X117194000Y-107950000D03*
D11*
%TO.P,J2,2,Pin_2*%
%TO.N,+3V3*%
X119734000Y-107950000D03*
%TO.P,J2,3,Pin_3*%
%TO.N,GND*%
X122274000Y-107950000D03*
%TO.P,J2,4,Pin_4*%
%TO.N,PGED*%
X124814000Y-107950000D03*
%TO.P,J2,5,Pin_5*%
%TO.N,PGEC*%
X127354000Y-107950000D03*
%TO.P,J2,6,Pin_6*%
%TO.N,unconnected-(J2-Pin_6-Pad6)*%
X129894000Y-107950000D03*
%TO.P,J2,7,Pin_7*%
%TO.N,unconnected-(J2-Pin_7-Pad7)*%
X132434000Y-107950000D03*
%TO.P,J2,8,Pin_8*%
%TO.N,IDLEn*%
X134974000Y-107950000D03*
%TD*%
D15*
%TO.P,S2,L1,A__AMBER*%
%TO.N,Net-(S2-A__AMBER)*%
X60298000Y-142462000D03*
D16*
%TO.P,S2,L2,K_AMBER*%
%TO.N,GND*%
X56848000Y-142462000D03*
D17*
%TO.P,S2,MH1,MH1*%
X60173000Y-144662000D03*
%TO.P,S2,MH2,MH2*%
X56973000Y-144662000D03*
D16*
%TO.P,S2,S1,COM*%
%TO.N,SHIFT_TOGGLEn*%
X59148000Y-142462000D03*
%TO.P,S2,S2,NO*%
%TO.N,GND*%
X57998000Y-142462000D03*
%TD*%
D28*
%TO.N,GND*%
X65024000Y-57912000D03*
D29*
X140816000Y-110236000D03*
X177392000Y-34765000D03*
X147457398Y-117745502D03*
X132193255Y-119267095D03*
X175614000Y-44671000D03*
X143864000Y-98552000D03*
X169518000Y-38067000D03*
X56388000Y-53340000D03*
X124864043Y-101695999D03*
X175614000Y-50259000D03*
X66548000Y-70104000D03*
X139800000Y-127254000D03*
X179932000Y-41369000D03*
X137530697Y-101246498D03*
X132381106Y-116384894D03*
X75184000Y-49276000D03*
X148902500Y-119846500D03*
X70358000Y-66114500D03*
X169010000Y-34765000D03*
X137006000Y-125984000D03*
X172312000Y-52545000D03*
X118210000Y-121666000D03*
%TO.N,+3V3*%
X51816000Y-51308000D03*
X60198000Y-66040000D03*
X65278000Y-66040000D03*
X181202000Y-49243000D03*
X135752697Y-101246498D03*
X151675859Y-117460440D03*
X153008000Y-119888000D03*
X143864000Y-101092000D03*
X140816000Y-105410000D03*
X128274500Y-119380000D03*
X139800000Y-131826000D03*
X118210000Y-117094000D03*
X128116000Y-115570000D03*
%TO.N,+5V_SW*%
X170788000Y-38067000D03*
X174852000Y-47211000D03*
%TO.N,PWRENn*%
X167994000Y-38067000D03*
X178408000Y-38321000D03*
%TO.N,LOOP_SENSE*%
X147678299Y-104643701D03*
%TO.N,WIFI_CSn*%
X146145701Y-105414299D03*
X57658000Y-66802000D03*
X56134000Y-57404000D03*
%TO.N,WIFI_SPI_CLK*%
X144372000Y-105410000D03*
%TO.N,WIFI_MOSI*%
X142594000Y-105410000D03*
%TO.N,WIFI_MISO*%
X142594000Y-109728000D03*
X51054000Y-69088000D03*
%TO.N,U1CTSn*%
X143610000Y-129286000D03*
%TO.N,U1TX*%
X142340000Y-129323500D03*
%TO.N,U1RTSn*%
X138059500Y-130048000D03*
%TO.N,U1RX*%
X141070000Y-129323500D03*
%TO.N,Net-(T1-SEC_3)*%
X137006000Y-109728000D03*
%TO.N,AUTOSTART*%
X180694000Y-36797000D03*
%TO.N,LOOP_KEY*%
X148944000Y-104648000D03*
%TO.N,WIFI_EN*%
X148944000Y-106680000D03*
X62738000Y-66040000D03*
%TO.N,Net-(U1-AN9{slash}RPB14{slash}SCK3{slash}PMA1{slash}RB14)*%
X123544000Y-119126000D03*
X122951113Y-122136500D03*
%TO.N,AUTOSTARTn*%
X172312000Y-129286000D03*
X145144497Y-129328500D03*
%TO.N,WIFI_IRQn*%
X49276000Y-56642000D03*
X152104213Y-118363500D03*
%TO.N,WIFI_RESETn*%
X149706000Y-111506000D03*
%TO.N,TX_LED*%
X128116000Y-116840000D03*
X100938000Y-126810500D03*
%TO.N,TX_TOGGLEn*%
X147674000Y-135446500D03*
X147674000Y-130810000D03*
%TD*%
D30*
%TO.N,AFSK_INa*%
X148129000Y-28951500D02*
X155753500Y-36576000D01*
X148129000Y-23400000D02*
X148129000Y-28951500D01*
%TO.N,AFSK_INb*%
X146253500Y-26524500D02*
X143129000Y-23400000D01*
X146253500Y-36576000D02*
X146253500Y-26524500D01*
%TO.N,AFSK_OUTa*%
X133654500Y-23925500D02*
X133129000Y-23400000D01*
X133654500Y-36576000D02*
X133654500Y-23925500D01*
%TO.N,AFSK_OUTb*%
X124154500Y-27374500D02*
X128129000Y-23400000D01*
X124154500Y-36576000D02*
X124154500Y-27374500D01*
%TO.N,AUTOSTART*%
X113129000Y-31595000D02*
X113129000Y-23400000D01*
X158115000Y-41503600D02*
X123037600Y-41503600D01*
X123037600Y-41503600D02*
X113129000Y-31595000D01*
X162821600Y-36797000D02*
X158115000Y-41503600D01*
X180694000Y-36797000D02*
X162821600Y-36797000D01*
%TO.N,+5V_SW*%
X174852000Y-42131000D02*
X174852000Y-47211000D01*
X170788000Y-38067000D02*
X174852000Y-42131000D01*
%TO.N,PWRENn*%
X168756000Y-37305000D02*
X171042000Y-37305000D01*
X177392000Y-37305000D02*
X178408000Y-38321000D01*
X171042000Y-37305000D02*
X177392000Y-37305000D01*
X167994000Y-38067000D02*
X168756000Y-37305000D01*
%TO.N,LOOP_SENSE*%
X101387501Y-102420499D02*
X102716000Y-101092000D01*
X97923499Y-102420499D02*
X101387501Y-102420499D01*
X145515690Y-102870000D02*
X145904598Y-102870000D01*
X102716000Y-101092000D02*
X103994998Y-102370998D01*
X89886000Y-45105000D02*
X89886000Y-94383000D01*
X145016688Y-102370998D02*
X145515690Y-102870000D01*
X89886000Y-94383000D02*
X97923499Y-102420499D01*
X103994998Y-102370998D02*
X145016688Y-102370998D01*
X145904598Y-102870000D02*
X147678299Y-104643701D01*
%TO.N,WIFI_CSn*%
X143423811Y-103573501D02*
X143169811Y-103319501D01*
X144304903Y-103573501D02*
X143423811Y-103573501D01*
X56134000Y-65278000D02*
X57658000Y-66802000D01*
X84777501Y-103319501D02*
X57658000Y-76200000D01*
X146145701Y-105414299D02*
X144304903Y-103573501D01*
X56134000Y-57404000D02*
X56134000Y-65278000D01*
X143169811Y-103319501D02*
X84777501Y-103319501D01*
%TO.N,WIFI_SPI_CLK*%
X82804000Y-103886000D02*
X55118000Y-76200000D01*
X142848000Y-103886000D02*
X82804000Y-103886000D01*
X144372000Y-105410000D02*
X142848000Y-103886000D01*
%TO.N,WIFI_MOSI*%
X142594000Y-105410000D02*
X141578000Y-104394000D01*
X78232000Y-104394000D02*
X50038000Y-76200000D01*
X141578000Y-104394000D02*
X78232000Y-104394000D01*
%TO.N,WIFI_MISO*%
X48768000Y-71374000D02*
X51054000Y-69088000D01*
X142594000Y-109728000D02*
X142340000Y-109474000D01*
X140308000Y-109474000D02*
X138784000Y-110998000D01*
X82296000Y-110998000D02*
X48768000Y-77470000D01*
X138784000Y-110998000D02*
X82296000Y-110998000D01*
X48768000Y-77470000D02*
X48768000Y-71374000D01*
X142340000Y-109474000D02*
X140308000Y-109474000D01*
%TO.N,U1CTSn*%
X168901000Y-110635000D02*
X170026000Y-111760000D01*
X144372000Y-128524000D02*
X173074000Y-128524000D01*
X173582000Y-128016000D02*
X173582000Y-110490000D01*
X173582000Y-110490000D02*
X171042000Y-107950000D01*
X171042000Y-107950000D02*
X169264000Y-107950000D01*
X169264000Y-107950000D02*
X168901000Y-108313000D01*
X173074000Y-128524000D02*
X173582000Y-128016000D01*
X168901000Y-108313000D02*
X168901000Y-110635000D01*
X143610000Y-129286000D02*
X144372000Y-128524000D01*
%TO.N,U1TX*%
X143589500Y-128074000D02*
X172704314Y-128074000D01*
X142340000Y-129323500D02*
X143589500Y-128074000D01*
X172704314Y-128074000D02*
X173182000Y-127596314D01*
X173182000Y-112376000D02*
X170026000Y-109220000D01*
X173182000Y-127596314D02*
X173182000Y-112376000D01*
%TO.N,U1RTSn*%
X173982000Y-128570595D02*
X173982000Y-109536000D01*
X173982000Y-109536000D02*
X171126000Y-106680000D01*
X171126000Y-106680000D02*
X170026000Y-106680000D01*
X172504595Y-130048000D02*
X173982000Y-128570595D01*
X138059500Y-130048000D02*
X172504595Y-130048000D01*
%TO.N,U1RX*%
X141070000Y-129323500D02*
X142885500Y-127508000D01*
X167994000Y-116332000D02*
X170026000Y-114300000D01*
X167232000Y-127508000D02*
X167994000Y-126746000D01*
X142885500Y-127508000D02*
X167232000Y-127508000D01*
X167994000Y-126746000D02*
X167994000Y-116332000D01*
%TO.N,Net-(T1-SEC_3)*%
X155753500Y-100825095D02*
X155753500Y-47244000D01*
X139038000Y-107696000D02*
X148882595Y-107696000D01*
X137006000Y-109728000D02*
X139038000Y-107696000D01*
X148882595Y-107696000D02*
X155753500Y-100825095D01*
%TO.N,LOOP_KEY*%
X148944000Y-104648000D02*
X146716000Y-102420000D01*
X145252378Y-101970998D02*
X126650998Y-101970998D01*
X145701380Y-102420000D02*
X145252378Y-101970998D01*
X100176000Y-100076000D02*
X100176000Y-101092000D01*
X100938000Y-99314000D02*
X100176000Y-100076000D01*
X125576000Y-100838000D02*
X124052000Y-99314000D01*
X126650998Y-101970998D02*
X125576000Y-100896000D01*
X125576000Y-100896000D02*
X125576000Y-100838000D01*
X146716000Y-102420000D02*
X145701380Y-102420000D01*
X124052000Y-99314000D02*
X100938000Y-99314000D01*
%TO.N,WIFI_EN*%
X65278000Y-76200000D02*
X65278000Y-68580000D01*
X91948000Y-102870000D02*
X65278000Y-76200000D01*
X148944000Y-106680000D02*
X148436000Y-106680000D01*
X65278000Y-68580000D02*
X62738000Y-66040000D01*
X144626000Y-102870000D02*
X91948000Y-102870000D01*
X148436000Y-106680000D02*
X144626000Y-102870000D01*
%TO.N,Net-(U1-AN9{slash}RPB14{slash}SCK3{slash}PMA1{slash}RB14)*%
X123544000Y-121412000D02*
X122951113Y-122004887D01*
X122951113Y-122004887D02*
X122951113Y-122136500D01*
X123544000Y-119126000D02*
X123544000Y-121412000D01*
%TO.N,AUTOSTARTn*%
X172312000Y-129286000D02*
X166211695Y-129286000D01*
X165959847Y-129537848D02*
X145353845Y-129537848D01*
X145353845Y-129537848D02*
X145144497Y-129328500D01*
X166211695Y-129286000D02*
X165959847Y-129537848D01*
%TO.N,WIFI_IRQn*%
X101385208Y-111956000D02*
X148886000Y-111956000D01*
X82122630Y-111956000D02*
X47968000Y-77801370D01*
X47968000Y-77801370D02*
X47968000Y-57950000D01*
X47968000Y-57950000D02*
X49276000Y-56642000D01*
X152500000Y-117967713D02*
X152104213Y-118363500D01*
X152500000Y-115570000D02*
X152500000Y-117967713D01*
X148886000Y-111956000D02*
X152500000Y-115570000D01*
X101385208Y-111956000D02*
X82122630Y-111956000D01*
%TO.N,WIFI_RESETn*%
X48368000Y-77635685D02*
X48368000Y-70819405D01*
X149706000Y-111506000D02*
X82238315Y-111506000D01*
X48368000Y-70819405D02*
X50774405Y-68413000D01*
X82238315Y-111506000D02*
X48368000Y-77635685D01*
X50774405Y-68413000D02*
X54951000Y-68413000D01*
X54951000Y-68413000D02*
X62738000Y-76200000D01*
%TO.N,TX_LED*%
X127645000Y-116369000D02*
X111379500Y-116369000D01*
X111379500Y-116369000D02*
X100938000Y-126810500D01*
X128116000Y-116840000D02*
X127645000Y-116369000D01*
%TO.N,TX_TOGGLEn*%
X147674000Y-130810000D02*
X147674000Y-135446500D01*
%TD*%
M02*
