%TF.GenerationSoftware,KiCad,Pcbnew,(6.0.9)*%
%TF.CreationDate,2023-05-29T16:16:24-07:00*%
%TF.ProjectId,DSP_TU,4453505f-5455-42e6-9b69-6361645f7063,rev?*%
%TF.SameCoordinates,Original*%
%TF.FileFunction,Copper,L1,Top*%
%TF.FilePolarity,Positive*%
%FSLAX46Y46*%
G04 Gerber Fmt 4.6, Leading zero omitted, Abs format (unit mm)*
G04 Created by KiCad (PCBNEW (6.0.9)) date 2023-05-29 16:16:24*
%MOMM*%
%LPD*%
G01*
G04 APERTURE LIST*
G04 Aperture macros list*
%AMRoundRect*
0 Rectangle with rounded corners*
0 $1 Rounding radius*
0 $2 $3 $4 $5 $6 $7 $8 $9 X,Y pos of 4 corners*
0 Add a 4 corners polygon primitive as box body*
4,1,4,$2,$3,$4,$5,$6,$7,$8,$9,$2,$3,0*
0 Add four circle primitives for the rounded corners*
1,1,$1+$1,$2,$3*
1,1,$1+$1,$4,$5*
1,1,$1+$1,$6,$7*
1,1,$1+$1,$8,$9*
0 Add four rect primitives between the rounded corners*
20,1,$1+$1,$2,$3,$4,$5,0*
20,1,$1+$1,$4,$5,$6,$7,0*
20,1,$1+$1,$6,$7,$8,$9,0*
20,1,$1+$1,$8,$9,$2,$3,0*%
G04 Aperture macros list end*
%TA.AperFunction,SMDPad,CuDef*%
%ADD10RoundRect,0.237500X-0.237500X0.250000X-0.237500X-0.250000X0.237500X-0.250000X0.237500X0.250000X0*%
%TD*%
%TA.AperFunction,ComponentPad*%
%ADD11R,1.700000X1.700000*%
%TD*%
%TA.AperFunction,ComponentPad*%
%ADD12O,1.700000X1.700000*%
%TD*%
%TA.AperFunction,SMDPad,CuDef*%
%ADD13RoundRect,0.237500X-0.300000X-0.237500X0.300000X-0.237500X0.300000X0.237500X-0.300000X0.237500X0*%
%TD*%
%TA.AperFunction,SMDPad,CuDef*%
%ADD14R,1.450000X1.200000*%
%TD*%
%TA.AperFunction,ComponentPad*%
%ADD15R,1.428000X1.428000*%
%TD*%
%TA.AperFunction,ComponentPad*%
%ADD16C,1.428000*%
%TD*%
%TA.AperFunction,ComponentPad*%
%ADD17C,3.316000*%
%TD*%
%TA.AperFunction,SMDPad,CuDef*%
%ADD18RoundRect,0.237500X-0.250000X-0.237500X0.250000X-0.237500X0.250000X0.237500X-0.250000X0.237500X0*%
%TD*%
%TA.AperFunction,ComponentPad*%
%ADD19R,0.950000X0.950000*%
%TD*%
%TA.AperFunction,ComponentPad*%
%ADD20C,0.950000*%
%TD*%
%TA.AperFunction,ComponentPad*%
%ADD21C,1.500000*%
%TD*%
%TA.AperFunction,SMDPad,CuDef*%
%ADD22R,0.600000X0.600000*%
%TD*%
%TA.AperFunction,SMDPad,CuDef*%
%ADD23R,0.600000X0.400000*%
%TD*%
%TA.AperFunction,SMDPad,CuDef*%
%ADD24RoundRect,0.237500X0.237500X-0.250000X0.237500X0.250000X-0.237500X0.250000X-0.237500X-0.250000X0*%
%TD*%
%TA.AperFunction,ComponentPad*%
%ADD25R,2.100000X2.100000*%
%TD*%
%TA.AperFunction,ComponentPad*%
%ADD26C,2.100000*%
%TD*%
%TA.AperFunction,ComponentPad*%
%ADD27R,1.600000X1.600000*%
%TD*%
%TA.AperFunction,ComponentPad*%
%ADD28O,1.600000X1.600000*%
%TD*%
%TA.AperFunction,SMDPad,CuDef*%
%ADD29RoundRect,0.237500X0.237500X-0.300000X0.237500X0.300000X-0.237500X0.300000X-0.237500X-0.300000X0*%
%TD*%
%TA.AperFunction,SMDPad,CuDef*%
%ADD30RoundRect,0.237500X0.250000X0.237500X-0.250000X0.237500X-0.250000X-0.237500X0.250000X-0.237500X0*%
%TD*%
%TA.AperFunction,SMDPad,CuDef*%
%ADD31RoundRect,0.237500X0.300000X0.237500X-0.300000X0.237500X-0.300000X-0.237500X0.300000X-0.237500X0*%
%TD*%
%TA.AperFunction,SMDPad,CuDef*%
%ADD32R,1.900000X0.800000*%
%TD*%
%TA.AperFunction,SMDPad,CuDef*%
%ADD33R,0.800000X1.900000*%
%TD*%
%TA.AperFunction,SMDPad,CuDef*%
%ADD34R,1.200000X0.600000*%
%TD*%
%TA.AperFunction,SMDPad,CuDef*%
%ADD35RoundRect,0.237500X-0.237500X0.300000X-0.237500X-0.300000X0.237500X-0.300000X0.237500X0.300000X0*%
%TD*%
%TA.AperFunction,SMDPad,CuDef*%
%ADD36RoundRect,0.150000X-0.825000X-0.150000X0.825000X-0.150000X0.825000X0.150000X-0.825000X0.150000X0*%
%TD*%
%TA.AperFunction,SMDPad,CuDef*%
%ADD37R,0.300000X1.475000*%
%TD*%
%TA.AperFunction,SMDPad,CuDef*%
%ADD38R,1.475000X0.300000*%
%TD*%
%TA.AperFunction,ComponentPad*%
%ADD39R,1.651000X1.651000*%
%TD*%
%TA.AperFunction,ComponentPad*%
%ADD40C,1.651000*%
%TD*%
%TA.AperFunction,ComponentPad*%
%ADD41C,2.362200*%
%TD*%
%TA.AperFunction,SMDPad,CuDef*%
%ADD42RoundRect,0.125000X0.125000X-0.825000X0.125000X0.825000X-0.125000X0.825000X-0.125000X-0.825000X0*%
%TD*%
%TA.AperFunction,SMDPad,CuDef*%
%ADD43RoundRect,0.150000X-0.512500X-0.150000X0.512500X-0.150000X0.512500X0.150000X-0.512500X0.150000X0*%
%TD*%
%TA.AperFunction,ComponentPad*%
%ADD44R,1.650000X1.650000*%
%TD*%
%TA.AperFunction,ComponentPad*%
%ADD45C,1.650000*%
%TD*%
%TA.AperFunction,ComponentPad*%
%ADD46O,3.316000X6.632000*%
%TD*%
%TA.AperFunction,ViaPad*%
%ADD47C,0.800000*%
%TD*%
%TA.AperFunction,Conductor*%
%ADD48C,0.250000*%
%TD*%
%TA.AperFunction,Conductor*%
%ADD49C,0.500000*%
%TD*%
%TA.AperFunction,Conductor*%
%ADD50C,0.600000*%
%TD*%
G04 APERTURE END LIST*
D10*
%TO.P,R23,1*%
%TO.N,AUTOSTART_LED*%
X70612000Y-102465500D03*
%TO.P,R23,2*%
%TO.N,Net-(R23-Pad2)*%
X70612000Y-104290500D03*
%TD*%
D11*
%TO.P,J1,1,Pin_1*%
%TO.N,+3V3*%
X135641000Y-104083000D03*
D12*
%TO.P,J1,2,Pin_2*%
%TO.N,GND*%
X133101000Y-104083000D03*
%TO.P,J1,3,Pin_3*%
%TO.N,Net-(J1-Pad3)*%
X130561000Y-104083000D03*
%TO.P,J1,4,Pin_4*%
%TO.N,Net-(J1-Pad4)*%
X128021000Y-104083000D03*
%TO.P,J1,5,Pin_5*%
%TO.N,Net-(J1-Pad5)*%
X125481000Y-104083000D03*
%TO.P,J1,6,Pin_6*%
%TO.N,Net-(J1-Pad6)*%
X122941000Y-104083000D03*
%TO.P,J1,7,Pin_7*%
%TO.N,Net-(J1-Pad7)*%
X120401000Y-104083000D03*
%TD*%
D13*
%TO.P,C7,1*%
%TO.N,GND*%
X133249500Y-101346000D03*
%TO.P,C7,2*%
%TO.N,+3V3*%
X134974500Y-101346000D03*
%TD*%
D14*
%TO.P,FB1,1,1*%
%TO.N,Net-(C16-Pad1)*%
X165608000Y-55118000D03*
%TO.P,FB1,2,2*%
%TO.N,+5V*%
X165608000Y-56818000D03*
%TD*%
D15*
%TO.P,J3,1,VBUS*%
%TO.N,Net-(C16-Pad1)*%
X170180000Y-52070000D03*
D16*
%TO.P,J3,2,D-*%
%TO.N,Net-(C15-Pad1)*%
X172680000Y-52070000D03*
%TO.P,J3,3,D+*%
%TO.N,Net-(C14-Pad1)*%
X172680000Y-50070000D03*
%TO.P,J3,4,GND*%
%TO.N,GND*%
X170180000Y-50070000D03*
D17*
%TO.P,J3,5,Shield*%
X177450000Y-47360000D03*
%TO.P,J3,6,SH*%
X165410000Y-47360000D03*
%TD*%
D18*
%TO.P,R10,1*%
%TO.N,USB_3V3*%
X176887500Y-60706000D03*
%TO.P,R10,2*%
%TO.N,PWRENn*%
X178712500Y-60706000D03*
%TD*%
D19*
%TO.P,S6,L1,A__AMBER*%
%TO.N,Net-(R26-Pad2)*%
X101092000Y-114808000D03*
D20*
%TO.P,S6,L2,K_AMBER*%
%TO.N,GND*%
X97642000Y-114808000D03*
D21*
%TO.P,S6,MH1,MH1*%
X100967000Y-117008000D03*
%TO.P,S6,MH2,MH2*%
X97767000Y-117008000D03*
D20*
%TO.P,S6,S1,COM*%
%TO.N,TX_TOGGLEn*%
X99942000Y-114808000D03*
%TO.P,S6,S2,NO*%
%TO.N,GND*%
X98792000Y-114808000D03*
%TD*%
D22*
%TO.P,U5,1,1A*%
%TO.N,PWRENn*%
X177408000Y-65036000D03*
D23*
%TO.P,U5,2,GND*%
%TO.N,GND*%
X177408000Y-65786000D03*
D22*
%TO.P,U5,3,2A*%
%TO.N,AUTOSTARTn*%
X177408000Y-66536000D03*
%TO.P,U5,4,2Y*%
%TO.N,AUTOSTART*%
X179208000Y-66536000D03*
D23*
%TO.P,U5,5,VCC*%
%TO.N,+5V_SW*%
X179208000Y-65786000D03*
D22*
%TO.P,U5,6,1Y*%
%TO.N,Net-(U5-Pad6)*%
X179208000Y-65036000D03*
%TD*%
D24*
%TO.P,R14,1*%
%TO.N,Net-(R14-Pad1)*%
X144526000Y-82954500D03*
%TO.P,R14,2*%
%TO.N,WIFI_SPI_CLK*%
X144526000Y-81129500D03*
%TD*%
D19*
%TO.P,S5,L1,A__AMBER*%
%TO.N,Net-(R25-Pad2)*%
X90932000Y-114808000D03*
D20*
%TO.P,S5,L2,K_AMBER*%
%TO.N,GND*%
X87482000Y-114808000D03*
D21*
%TO.P,S5,MH1,MH1*%
X90807000Y-117008000D03*
%TO.P,S5,MH2,MH2*%
X87607000Y-117008000D03*
D20*
%TO.P,S5,S1,COM*%
%TO.N,KOS_TOGGLEn*%
X89782000Y-114808000D03*
%TO.P,S5,S2,NO*%
%TO.N,GND*%
X88632000Y-114808000D03*
%TD*%
D24*
%TO.P,R17,1*%
%TO.N,GND*%
X59944000Y-76096500D03*
%TO.P,R17,2*%
%TO.N,WIFI_EN*%
X59944000Y-74271500D03*
%TD*%
D25*
%TO.P,J5,1,1*%
%TO.N,AFSK_INa*%
X148283000Y-48196000D03*
D26*
%TO.P,J5,2,2*%
%TO.N,AFSK_INb*%
X143283000Y-48196000D03*
%TO.P,J5,3,3*%
%TO.N,GND*%
X138283000Y-48196000D03*
%TO.P,J5,4,4*%
%TO.N,AFSK_OUTa*%
X133283000Y-48196000D03*
%TO.P,J5,5,5*%
%TO.N,AFSK_OUTb*%
X128283000Y-48196000D03*
%TO.P,J5,6,6*%
%TO.N,PTTa*%
X123283000Y-48196000D03*
%TO.P,J5,7,7*%
%TO.N,PTTb*%
X118283000Y-48196000D03*
%TO.P,J5,8,8*%
%TO.N,AUTOSTART*%
X113283000Y-48196000D03*
%TO.P,J5,9,9*%
%TO.N,GND*%
X108283000Y-48196000D03*
%TO.P,J5,10,10*%
X103283000Y-48196000D03*
%TO.P,J5,11,11*%
%TO.N,LOOPa*%
X98283000Y-48196000D03*
%TO.P,J5,12,12*%
%TO.N,LOOPb*%
X93283000Y-48196000D03*
%TD*%
D27*
%TO.P,K1,1,1*%
%TO.N,Net-(K1-Pad1)*%
X96281000Y-65776000D03*
D28*
%TO.P,K1,2,2*%
%TO.N,GND*%
X98821000Y-65776000D03*
%TO.P,K1,3,3*%
%TO.N,unconnected-(K1-Pad3)*%
X101361000Y-65776000D03*
%TO.P,K1,4,4*%
%TO.N,LOOPa*%
X101361000Y-58156000D03*
%TO.P,K1,5,5*%
%TO.N,unconnected-(K1-Pad5)*%
X98821000Y-58156000D03*
%TO.P,K1,6,6*%
%TO.N,Net-(CR1-Pad2)*%
X96281000Y-58156000D03*
%TD*%
D29*
%TO.P,C1,1*%
%TO.N,GND*%
X140970000Y-82904500D03*
%TO.P,C1,2*%
%TO.N,+3V3*%
X140970000Y-81179500D03*
%TD*%
D10*
%TO.P,R24,1*%
%TO.N,MOTOR_LED*%
X80772000Y-102465500D03*
%TO.P,R24,2*%
%TO.N,Net-(R24-Pad2)*%
X80772000Y-104290500D03*
%TD*%
D27*
%TO.P,K2,1,1*%
%TO.N,Net-(K2-Pad1)*%
X107696000Y-66040000D03*
D28*
%TO.P,K2,2,2*%
%TO.N,GND*%
X110236000Y-66040000D03*
%TO.P,K2,3,3*%
%TO.N,unconnected-(K2-Pad3)*%
X112776000Y-66040000D03*
%TO.P,K2,4,4*%
%TO.N,PTTa*%
X112776000Y-58420000D03*
%TO.P,K2,5,5*%
%TO.N,unconnected-(K2-Pad5)*%
X110236000Y-58420000D03*
%TO.P,K2,6,6*%
%TO.N,PTTb*%
X107696000Y-58420000D03*
%TD*%
D30*
%TO.P,R9,1*%
%TO.N,PTT*%
X109370500Y-70104000D03*
%TO.P,R9,2*%
%TO.N,Net-(K2-Pad1)*%
X107545500Y-70104000D03*
%TD*%
D31*
%TO.P,C11,1*%
%TO.N,Net-(C11-Pad1)*%
X128116500Y-76200000D03*
%TO.P,C11,2*%
%TO.N,GND*%
X126391500Y-76200000D03*
%TD*%
D30*
%TO.P,R6,1*%
%TO.N,Net-(R6-Pad1)*%
X172616500Y-57658000D03*
%TO.P,R6,2*%
%TO.N,Net-(C15-Pad1)*%
X170791500Y-57658000D03*
%TD*%
D32*
%TO.P,U7,1,GPIO_6*%
%TO.N,unconnected-(U7-Pad1)*%
X68833000Y-68675000D03*
%TO.P,U7,2,I2C_SCL*%
%TO.N,unconnected-(U7-Pad2)*%
X68833000Y-67655000D03*
%TO.P,U7,3,I2C_SDA*%
%TO.N,unconnected-(U7-Pad3)*%
X68833000Y-66639000D03*
%TO.P,U7,4,RESET_N*%
%TO.N,WIFI_RESETn*%
X68833000Y-65623000D03*
%TO.P,U7,5,NC_1*%
%TO.N,unconnected-(U7-Pad5)*%
X68833000Y-61559000D03*
%TO.P,U7,6,NC_2*%
%TO.N,unconnected-(U7-Pad6)*%
X68833000Y-59527000D03*
%TO.P,U7,7,NC_3*%
%TO.N,unconnected-(U7-Pad7)*%
X68833000Y-58511000D03*
%TO.P,U7,8,NC_4*%
%TO.N,unconnected-(U7-Pad8)*%
X68833000Y-57495000D03*
%TO.P,U7,9,GND_1*%
%TO.N,GND*%
X68833000Y-56479000D03*
%TO.P,U7,10,SPI_CFG*%
%TO.N,Net-(R12-Pad2)*%
X54103000Y-58511000D03*
%TO.P,U7,11,WAKE*%
%TO.N,unconnected-(U7-Pad11)*%
X54103000Y-59527000D03*
%TO.P,U7,12,GND_2*%
%TO.N,GND*%
X54103000Y-60543000D03*
%TO.P,U7,13,IRQN*%
%TO.N,WIFI_IRQn*%
X54103000Y-61559000D03*
%TO.P,U7,14,UART_TXD*%
%TO.N,unconnected-(U7-Pad14)*%
X54103000Y-62575000D03*
%TO.P,U7,15,SPI_MOSI*%
%TO.N,WIFI_MOSI*%
X54103000Y-63591000D03*
%TO.P,U7,16,SPI_SSN*%
%TO.N,WIFI_CSn*%
X54103000Y-64607000D03*
%TO.P,U7,17,SPI_MISO*%
%TO.N,Net-(R16-Pad1)*%
X54103000Y-65623000D03*
%TO.P,U7,18,SPI_SCK*%
%TO.N,WIFI_SPI_CLK*%
X54103000Y-66639000D03*
%TO.P,U7,19,UART_RXD*%
%TO.N,unconnected-(U7-Pad19)*%
X54103000Y-67655000D03*
D33*
%TO.P,U7,20,VBAT*%
%TO.N,+3V3*%
X56003000Y-71345000D03*
%TO.P,U7,21,GPIO_1*%
%TO.N,unconnected-(U7-Pad21)*%
X59051000Y-71345000D03*
%TO.P,U7,22,CHIP_EN*%
%TO.N,WIFI_EN*%
X60067000Y-71345000D03*
%TO.P,U7,23,VDDIO*%
%TO.N,+3V3*%
X61083000Y-71345000D03*
%TO.P,U7,24,1P3V_TP*%
%TO.N,Net-(C20-Pad1)*%
X62099000Y-71345000D03*
%TO.P,U7,25,GPIO_3*%
%TO.N,unconnected-(U7-Pad25)*%
X63115000Y-71345000D03*
%TO.P,U7,26,GPIO_4*%
%TO.N,unconnected-(U7-Pad26)*%
X64131000Y-71345000D03*
%TO.P,U7,27,GPIO_5*%
%TO.N,unconnected-(U7-Pad27)*%
X65147000Y-71345000D03*
%TO.P,U7,28,GND_3*%
%TO.N,GND*%
X66163000Y-71345000D03*
%TD*%
D13*
%TO.P,C2,1*%
%TO.N,+3V3*%
X129439500Y-93726000D03*
%TO.P,C2,2*%
%TO.N,GND*%
X131164500Y-93726000D03*
%TD*%
D34*
%TO.P,U2,1,OUT*%
%TO.N,Net-(C10-Pad2)*%
X130830000Y-74234000D03*
%TO.P,U2,2,GND*%
%TO.N,GND*%
X130830000Y-75184000D03*
%TO.P,U2,3,IN+*%
%TO.N,Net-(C11-Pad1)*%
X130830000Y-76134000D03*
%TO.P,U2,4,IN-*%
%TO.N,Net-(C10-Pad2)*%
X133330000Y-76134000D03*
%TO.P,U2,5,~{SHDN}*%
%TO.N,AFSK_OUT_ENn*%
X133330000Y-75184000D03*
%TO.P,U2,6,VDD*%
%TO.N,+3V3*%
X133330000Y-74234000D03*
%TD*%
D35*
%TO.P,C22,1*%
%TO.N,+3V3*%
X56134000Y-74321500D03*
%TO.P,C22,2*%
%TO.N,GND*%
X56134000Y-76046500D03*
%TD*%
D10*
%TO.P,R27,1*%
%TO.N,MARK_HI_LED*%
X50292000Y-102465500D03*
%TO.P,R27,2*%
%TO.N,Net-(R27-Pad2)*%
X50292000Y-104290500D03*
%TD*%
D30*
%TO.P,R4,1*%
%TO.N,PWM_OUT*%
X135786500Y-77978000D03*
%TO.P,R4,2*%
%TO.N,Net-(C9-Pad2)*%
X133961500Y-77978000D03*
%TD*%
D25*
%TO.P,T2,1,1*%
%TO.N,Net-(C10-Pad1)*%
X125805500Y-67818000D03*
D26*
%TO.P,T2,2,2*%
%TO.N,unconnected-(T2-Pad2)*%
X130555500Y-67818000D03*
%TO.P,T2,3,3*%
%TO.N,GND*%
X135305500Y-67818000D03*
%TO.P,T2,4,4*%
%TO.N,AFSK_OUTa*%
X135305500Y-57150000D03*
%TO.P,T2,5,5*%
%TO.N,unconnected-(T2-Pad5)*%
X130555500Y-57150000D03*
%TO.P,T2,6,6*%
%TO.N,AFSK_OUTb*%
X125805500Y-57150000D03*
%TD*%
D13*
%TO.P,C12,1*%
%TO.N,+3V3*%
X135789500Y-74168000D03*
%TO.P,C12,2*%
%TO.N,GND*%
X137514500Y-74168000D03*
%TD*%
D19*
%TO.P,S1,L1,A__AMBER*%
%TO.N,Net-(R27-Pad2)*%
X50292000Y-114808000D03*
D20*
%TO.P,S1,L2,K_AMBER*%
%TO.N,GND*%
X46842000Y-114808000D03*
D21*
%TO.P,S1,MH1,MH1*%
X50167000Y-117008000D03*
%TO.P,S1,MH2,MH2*%
X46967000Y-117008000D03*
D20*
%TO.P,S1,S1,COM*%
%TO.N,MARK_HI_TOGGLEn*%
X49142000Y-114808000D03*
%TO.P,S1,S2,NO*%
%TO.N,GND*%
X47992000Y-114808000D03*
%TD*%
D35*
%TO.P,C23,1*%
%TO.N,+3V3*%
X118364000Y-92863500D03*
%TO.P,C23,2*%
%TO.N,GND*%
X118364000Y-94588500D03*
%TD*%
D31*
%TO.P,C13,1*%
%TO.N,GND*%
X178662500Y-62484000D03*
%TO.P,C13,2*%
%TO.N,USB_3V3*%
X176937500Y-62484000D03*
%TD*%
D13*
%TO.P,C4,1*%
%TO.N,GND*%
X150167000Y-94234000D03*
%TO.P,C4,2*%
%TO.N,+3V3*%
X151892000Y-94234000D03*
%TD*%
D24*
%TO.P,R15,1*%
%TO.N,Net-(R15-Pad1)*%
X142748000Y-82954500D03*
%TO.P,R15,2*%
%TO.N,WIFI_MOSI*%
X142748000Y-81129500D03*
%TD*%
D13*
%TO.P,C10,1*%
%TO.N,Net-(C10-Pad1)*%
X126391500Y-72644000D03*
%TO.P,C10,2*%
%TO.N,Net-(C10-Pad2)*%
X128116500Y-72644000D03*
%TD*%
D36*
%TO.P,U8,1,~{CS}*%
%TO.N,Net-(U1-Pad24)*%
X120969000Y-90297000D03*
%TO.P,U8,2,DO(IO1)*%
%TO.N,Net-(U1-Pad22)*%
X120969000Y-91567000D03*
%TO.P,U8,3,~{WP}*%
%TO.N,+3V3*%
X120969000Y-92837000D03*
%TO.P,U8,4,GND*%
%TO.N,GND*%
X120969000Y-94107000D03*
%TO.P,U8,5,DI(IO0)*%
%TO.N,Net-(U1-Pad23)*%
X125919000Y-94107000D03*
%TO.P,U8,6,SCK*%
%TO.N,Net-(U1-Pad29)*%
X125919000Y-92837000D03*
%TO.P,U8,7,~{HOLD}*%
%TO.N,+3V3*%
X125919000Y-91567000D03*
%TO.P,U8,8,VCC*%
X125919000Y-90297000D03*
%TD*%
D31*
%TO.P,C17,1*%
%TO.N,+5V_SW*%
X174344500Y-70612000D03*
%TO.P,C17,2*%
%TO.N,GND*%
X172619500Y-70612000D03*
%TD*%
D19*
%TO.P,S4,L1,A__AMBER*%
%TO.N,Net-(R24-Pad2)*%
X80772000Y-114808000D03*
D20*
%TO.P,S4,L2,K_AMBER*%
%TO.N,GND*%
X77322000Y-114808000D03*
D21*
%TO.P,S4,MH1,MH1*%
X80647000Y-117008000D03*
%TO.P,S4,MH2,MH2*%
X77447000Y-117008000D03*
D20*
%TO.P,S4,S1,COM*%
%TO.N,MOTOR_TOGGLEn*%
X79622000Y-114808000D03*
%TO.P,S4,S2,NO*%
%TO.N,GND*%
X78472000Y-114808000D03*
%TD*%
D37*
%TO.P,U1,1,AN17/ETXEN/RPE5/PMD5/RE5*%
%TO.N,LOOP_KEY*%
X143958000Y-87480000D03*
%TO.P,U1,2,AN16/ETXD0/PMD6/RE6*%
%TO.N,LOOP_SENSE*%
X143458000Y-87480000D03*
%TO.P,U1,3,AN15/ETXD1/PMD7/RE7*%
%TO.N,Net-(R13-Pad1)*%
X142958000Y-87480000D03*
%TO.P,U1,4,AN14/C1IND/RPG6/SCK2/PMA5/RG6*%
%TO.N,Net-(R14-Pad1)*%
X142458000Y-87480000D03*
%TO.P,U1,5,AN13/C1INC/RPG7/SDA4/PMA4/RG7*%
%TO.N,WIFI_MISO*%
X141958000Y-87480000D03*
%TO.P,U1,6,AN12/C2IND/RPG8/SCL4/PMA3/RG8*%
%TO.N,Net-(R15-Pad1)*%
X141458000Y-87480000D03*
%TO.P,U1,7,VSS_1*%
%TO.N,GND*%
X140958000Y-87480000D03*
%TO.P,U1,8,VDD_1*%
%TO.N,+3V3*%
X140458000Y-87480000D03*
%TO.P,U1,9,~{MCLR}*%
%TO.N,MCLRn*%
X139958000Y-87480000D03*
%TO.P,U1,10,AN11/C2INC/RPG9/PMA2/RG9*%
%TO.N,PWM_OUT*%
X139458000Y-87480000D03*
%TO.P,U1,11,AN45/C1INA/RPB5/RB5*%
%TO.N,AFSK_OUT_ENn*%
X138958000Y-87480000D03*
%TO.P,U1,12,AN4/C1INB/RB4*%
%TO.N,PTT*%
X138458000Y-87480000D03*
%TO.P,U1,13,AN3/C2INA/RPB3/RB3*%
%TO.N,IDLEn*%
X137958000Y-87480000D03*
%TO.P,U1,14,AN2/C2INB/RPB2/RB2*%
%TO.N,Net-(T1-Pad6)*%
X137458000Y-87480000D03*
%TO.P,U1,15,PGEC1/VREF-/CVREF-/AN1/RPB1/RB1*%
%TO.N,PGEC*%
X136958000Y-87480000D03*
%TO.P,U1,16,PGED1/VREF+/CVREF+/AN0/RPB0/PMA6/RB0*%
%TO.N,PGED*%
X136458000Y-87480000D03*
D38*
%TO.P,U1,17,PGEC2/AN46/RPB6/RB6*%
%TO.N,MARK_HI_TOGGLEn*%
X134470000Y-89468000D03*
%TO.P,U1,18,PGED2/AN47/RPB7/RB7*%
%TO.N,MARK_HI_LED*%
X134470000Y-89968000D03*
%TO.P,U1,19,AVDD*%
%TO.N,+3V3*%
X134470000Y-90468000D03*
%TO.P,U1,20,AVSS*%
%TO.N,GND*%
X134470000Y-90968000D03*
%TO.P,U1,21,AN48/RPB8/PMA10/RB8*%
%TO.N,TX_LED*%
X134470000Y-91468000D03*
%TO.P,U1,22,AN49/RPB9/PMA7/RB9*%
%TO.N,Net-(U1-Pad22)*%
X134470000Y-91968000D03*
%TO.P,U1,23,TMS/CVREFOUT/AN5/RPB10/PMA13/RB10*%
%TO.N,Net-(U1-Pad23)*%
X134470000Y-92468000D03*
%TO.P,U1,24,TDO/AN6/PMA12/RB11*%
%TO.N,Net-(U1-Pad24)*%
X134470000Y-92968000D03*
%TO.P,U1,25,VSS_2*%
%TO.N,GND*%
X134470000Y-93468000D03*
%TO.P,U1,26,VDD_2*%
%TO.N,+3V3*%
X134470000Y-93968000D03*
%TO.P,U1,27,TCK/AN7/PMA11/RB12*%
%TO.N,SHIFT_TOGGLEn*%
X134470000Y-94468000D03*
%TO.P,U1,28,TDI/AN8/RB13*%
%TO.N,850_SHIFT_LED*%
X134470000Y-94968000D03*
%TO.P,U1,29,AN9/RPB14/SCK3/PMA1/RB14*%
%TO.N,Net-(U1-Pad29)*%
X134470000Y-95468000D03*
%TO.P,U1,30,AN10/EMDC/AEMDC/RPB15/OCFB/PMA0/RB15*%
%TO.N,AUTOSTART_TOGGLEn*%
X134470000Y-95968000D03*
%TO.P,U1,31,OSC1/CLKI/RC12*%
%TO.N,MOTOR_TOGGLEn*%
X134470000Y-96468000D03*
%TO.P,U1,32,OSC2/CLKO/RC15*%
%TO.N,AUTOSTART_LED*%
X134470000Y-96968000D03*
D37*
%TO.P,U1,33,VBUS*%
%TO.N,unconnected-(U1-Pad33)*%
X136458000Y-98956000D03*
%TO.P,U1,34,VUSB3V3*%
%TO.N,GND*%
X136958000Y-98956000D03*
%TO.P,U1,35,VSS_3*%
X137458000Y-98956000D03*
%TO.P,U1,36,D-*%
%TO.N,unconnected-(U1-Pad36)*%
X137958000Y-98956000D03*
%TO.P,U1,37,D+*%
%TO.N,unconnected-(U1-Pad37)*%
X138458000Y-98956000D03*
%TO.P,U1,38,RPF3/USBID/RF3*%
%TO.N,U1RTSn*%
X138958000Y-98956000D03*
%TO.P,U1,39,VDD_3*%
%TO.N,+3V3*%
X139458000Y-98956000D03*
%TO.P,U1,40,VSS_4*%
%TO.N,GND*%
X139958000Y-98956000D03*
%TO.P,U1,41,RPF4/SDA5/PMA9/RF4*%
%TO.N,U1RX*%
X140458000Y-98956000D03*
%TO.P,U1,42,RPF5/SCL5/PMA8/RF5*%
%TO.N,U1TX*%
X140958000Y-98956000D03*
%TO.P,U1,43,AERXD0/ETXD2/RPD9/SDA1/PMCS2/PMA15/RD9*%
%TO.N,U1CTSn*%
X141458000Y-98956000D03*
%TO.P,U1,44,ECOL/RPD10/SCL1/SCK4/RD10*%
%TO.N,AUTOSTARTn*%
X141958000Y-98956000D03*
%TO.P,U1,45,AERXCLK/AEREFCLK/ECRS/RPD11/PMCS1/PMA14/RD11*%
%TO.N,TX_TOGGLEn*%
X142458000Y-98956000D03*
%TO.P,U1,46,AERXD1/ETXD3/RPD0/RTCC/INT0/RD0*%
%TO.N,Net-(J1-Pad7)*%
X142958000Y-98956000D03*
%TO.P,U1,47,SOSCI/RPC13/RC13*%
%TO.N,Net-(J1-Pad6)*%
X143458000Y-98956000D03*
%TO.P,U1,48,SOSCO/RPC14/T1CK/RC14*%
%TO.N,Net-(J1-Pad5)*%
X143958000Y-98956000D03*
D38*
%TO.P,U1,49,EMDIO/AEMDIO/RPD1/SCK1/RD1*%
%TO.N,Net-(J1-Pad4)*%
X145946000Y-96968000D03*
%TO.P,U1,50,ETXERR/AETXEN/RPD2/SDA3/RD2*%
%TO.N,Net-(J1-Pad3)*%
X145946000Y-96468000D03*
%TO.P,U1,51,AERXERR/ETXCLK/RPD3/SCL3/RD3*%
%TO.N,MOTOR_LED*%
X145946000Y-95968000D03*
%TO.P,U1,52,~{SQICS0}/RPD4/PMWR/RD4*%
%TO.N,KOS_TOGGLEn*%
X145946000Y-95468000D03*
%TO.P,U1,53,~{SQICS1}/RPD5/PMRD/RD5*%
%TO.N,KOS_LED*%
X145946000Y-94968000D03*
%TO.P,U1,54,VDD_4*%
%TO.N,+3V3*%
X145946000Y-94468000D03*
%TO.P,U1,55,VSS_5*%
%TO.N,GND*%
X145946000Y-93968000D03*
%TO.P,U1,56,ERXD3/AETXD1/RPF0/RF0*%
%TO.N,ENCODER_SWn*%
X145946000Y-93468000D03*
%TO.P,U1,57,TRCLK/SQICLK/ERXD2/AETXD0/RPF1/RF1*%
%TO.N,WIFI_IRQn*%
X145946000Y-92968000D03*
%TO.P,U1,58,TRD0/SQID0/ERXD1/PMD0/RE0*%
%TO.N,unconnected-(U1-Pad58)*%
X145946000Y-92468000D03*
%TO.P,U1,59,VSS_6*%
%TO.N,GND*%
X145946000Y-91968000D03*
%TO.P,U1,60,VDD_5*%
%TO.N,+3V3*%
X145946000Y-91468000D03*
%TO.P,U1,61,TRD1/SQID1/ERXD0/PMD1/RE1*%
%TO.N,QAn*%
X145946000Y-90968000D03*
%TO.P,U1,62,TRD2/SQID2/ERXDV/ECRSDV/AECRSDV/PMD2/RE2*%
%TO.N,QBn*%
X145946000Y-90468000D03*
%TO.P,U1,63,TRD3/SQID3/ERXCLK/EREFCLK/RPE3/PMD3/RE3*%
%TO.N,WIFI_RESETn*%
X145946000Y-89968000D03*
%TO.P,U1,64,AN18/ERXERR/PMD4/RE4*%
%TO.N,WIFI_EN*%
X145946000Y-89468000D03*
%TD*%
D31*
%TO.P,C19,1*%
%TO.N,+3V3*%
X179170500Y-74168000D03*
%TO.P,C19,2*%
%TO.N,GND*%
X177445500Y-74168000D03*
%TD*%
D13*
%TO.P,C5,1*%
%TO.N,GND*%
X148743500Y-91948000D03*
%TO.P,C5,2*%
%TO.N,+3V3*%
X150468500Y-91948000D03*
%TD*%
D19*
%TO.P,S3,L1,A__AMBER*%
%TO.N,Net-(R23-Pad2)*%
X70612000Y-114808000D03*
D20*
%TO.P,S3,L2,K_AMBER*%
%TO.N,GND*%
X67162000Y-114808000D03*
D21*
%TO.P,S3,MH1,MH1*%
X70487000Y-117008000D03*
%TO.P,S3,MH2,MH2*%
X67287000Y-117008000D03*
D20*
%TO.P,S3,S1,COM*%
%TO.N,AUTOSTART_TOGGLEn*%
X69462000Y-114808000D03*
%TO.P,S3,S2,NO*%
%TO.N,GND*%
X68312000Y-114808000D03*
%TD*%
D18*
%TO.P,R7,1*%
%TO.N,Net-(R7-Pad1)*%
X174601500Y-57658000D03*
%TO.P,R7,2*%
%TO.N,Net-(C14-Pad1)*%
X176426500Y-57658000D03*
%TD*%
D39*
%TO.P,CR1,1,CATHODE/ANODE*%
%TO.N,LOOPa*%
X106172000Y-54610000D03*
D40*
%TO.P,CR1,2,CATHODE/ANODE*%
%TO.N,Net-(CR1-Pad2)*%
X92379800Y-54610000D03*
%TD*%
D30*
%TO.P,R8,1*%
%TO.N,LOOP_KEY*%
X98194500Y-69850000D03*
%TO.P,R8,2*%
%TO.N,Net-(K1-Pad1)*%
X96369500Y-69850000D03*
%TD*%
D25*
%TO.P,T1,1,PRI_1*%
%TO.N,AFSK_INa*%
X157404500Y-57150000D03*
D26*
%TO.P,T1,2,PRI_2*%
%TO.N,unconnected-(T1-Pad2)*%
X152654500Y-57150000D03*
%TO.P,T1,3,PRI_3*%
%TO.N,AFSK_INb*%
X147904500Y-57150000D03*
%TO.P,T1,4,SEC_1*%
%TO.N,Net-(C8-Pad1)*%
X147904500Y-67818000D03*
%TO.P,T1,5,SEC_2*%
%TO.N,unconnected-(T1-Pad5)*%
X152654500Y-67818000D03*
%TO.P,T1,6,SEC_3*%
%TO.N,Net-(T1-Pad6)*%
X157404500Y-67818000D03*
%TD*%
D24*
%TO.P,R13,1*%
%TO.N,Net-(R13-Pad1)*%
X146304000Y-82954500D03*
%TO.P,R13,2*%
%TO.N,WIFI_CSn*%
X146304000Y-81129500D03*
%TD*%
D30*
%TO.P,R16,1*%
%TO.N,Net-(R16-Pad1)*%
X50696500Y-65786000D03*
%TO.P,R16,2*%
%TO.N,WIFI_MISO*%
X48871500Y-65786000D03*
%TD*%
D13*
%TO.P,C14,1*%
%TO.N,Net-(C14-Pad1)*%
X174651500Y-55880000D03*
%TO.P,C14,2*%
%TO.N,GND*%
X176376500Y-55880000D03*
%TD*%
D41*
%TO.P,S8,1,1*%
%TO.N,unconnected-(S8-Pad1)*%
X180848000Y-95758000D03*
%TO.P,S8,2,2*%
%TO.N,+5V*%
X180848000Y-99568000D03*
%TO.P,S8,3,3*%
%TO.N,+5V_SW*%
X180848000Y-103378000D03*
%TO.P,S8,4,4*%
%TO.N,unconnected-(S8-Pad4)*%
X185674000Y-95758000D03*
%TO.P,S8,5,5*%
%TO.N,+5V*%
X185674000Y-99568000D03*
%TO.P,S8,6,6*%
%TO.N,+5V_SW*%
X185674000Y-103378000D03*
%TO.P,S8,7*%
%TO.N,N/C*%
X180721000Y-116078000D03*
%TO.P,S8,8*%
X185801000Y-116078000D03*
%TD*%
D29*
%TO.P,C16,1*%
%TO.N,Net-(C16-Pad1)*%
X162052000Y-52170500D03*
%TO.P,C16,2*%
%TO.N,GND*%
X162052000Y-50445500D03*
%TD*%
D18*
%TO.P,R12,1*%
%TO.N,+3V3*%
X49125500Y-58420000D03*
%TO.P,R12,2*%
%TO.N,Net-(R12-Pad2)*%
X50950500Y-58420000D03*
%TD*%
D30*
%TO.P,R11,1*%
%TO.N,Net-(CR1-Pad2)*%
X89201000Y-54610000D03*
%TO.P,R11,2*%
%TO.N,LOOPb*%
X87376000Y-54610000D03*
%TD*%
D42*
%TO.P,U3,1,DTR#*%
%TO.N,unconnected-(U3-Pad1)*%
X167509000Y-68016000D03*
%TO.P,U3,2,RTS#*%
%TO.N,U1CTSn*%
X168159000Y-68016000D03*
%TO.P,U3,3,VCCIO*%
%TO.N,USB_3V3*%
X168809000Y-68016000D03*
%TO.P,U3,4,RXD*%
%TO.N,U1TX*%
X169459000Y-68016000D03*
%TO.P,U3,5,RI#*%
%TO.N,unconnected-(U3-Pad5)*%
X170109000Y-68016000D03*
%TO.P,U3,6,GND_1*%
%TO.N,GND*%
X170759000Y-68016000D03*
%TO.P,U3,7,DSR#*%
%TO.N,unconnected-(U3-Pad7)*%
X171409000Y-68016000D03*
%TO.P,U3,8,DCD#*%
%TO.N,unconnected-(U3-Pad8)*%
X172059000Y-68016000D03*
%TO.P,U3,9,CTS#*%
%TO.N,U1RTSn*%
X172709000Y-68016000D03*
%TO.P,U3,10,CBUS2*%
%TO.N,unconnected-(U3-Pad10)*%
X173359000Y-68016000D03*
%TO.P,U3,11,USBDP*%
%TO.N,Net-(R7-Pad1)*%
X173359000Y-61016000D03*
%TO.P,U3,12,USBDM*%
%TO.N,Net-(R6-Pad1)*%
X172709000Y-61016000D03*
%TO.P,U3,13,3V3OUT*%
%TO.N,USB_3V3*%
X172059000Y-61016000D03*
%TO.P,U3,14,RESET#*%
X171409000Y-61016000D03*
%TO.P,U3,15,VCC*%
%TO.N,+5V_SW*%
X170759000Y-61016000D03*
%TO.P,U3,16,GND_2*%
%TO.N,GND*%
X170109000Y-61016000D03*
%TO.P,U3,17,CBUS1*%
%TO.N,unconnected-(U3-Pad17)*%
X169459000Y-61016000D03*
%TO.P,U3,18,CBUS0*%
%TO.N,unconnected-(U3-Pad18)*%
X168809000Y-61016000D03*
%TO.P,U3,19,CBUS3*%
%TO.N,PWRENn*%
X168159000Y-61016000D03*
%TO.P,U3,20,TXD*%
%TO.N,U1RX*%
X167509000Y-61016000D03*
%TD*%
D43*
%TO.P,U6,1,VIN*%
%TO.N,+5V_SW*%
X177170500Y-70424000D03*
%TO.P,U6,2,GND*%
%TO.N,GND*%
X177170500Y-71374000D03*
%TO.P,U6,3,EN*%
%TO.N,Net-(U5-Pad6)*%
X177170500Y-72324000D03*
%TO.P,U6,4,NC*%
%TO.N,unconnected-(U6-Pad4)*%
X179445500Y-72324000D03*
%TO.P,U6,5,VOUT*%
%TO.N,+3V3*%
X179445500Y-70424000D03*
%TD*%
D18*
%TO.P,R2,1*%
%TO.N,+3V3*%
X145899500Y-76708000D03*
%TO.P,R2,2*%
%TO.N,Net-(C8-Pad1)*%
X147724500Y-76708000D03*
%TD*%
%TO.P,R5,1*%
%TO.N,Net-(C9-Pad2)*%
X126341500Y-77978000D03*
%TO.P,R5,2*%
%TO.N,Net-(C11-Pad1)*%
X128166500Y-77978000D03*
%TD*%
D44*
%TO.P,S7,1,1*%
%TO.N,ENCODER_SWn*%
X159298000Y-112816000D03*
D45*
%TO.P,S7,2,2*%
%TO.N,GND*%
X164298000Y-112816000D03*
%TO.P,S7,A,CHANNEL_A*%
%TO.N,QAn*%
X159298000Y-115316000D03*
%TO.P,S7,B,CHANNEL_B*%
%TO.N,QBn*%
X164298000Y-115316000D03*
%TO.P,S7,C,COMMON*%
%TO.N,GND*%
X161798000Y-115316000D03*
D46*
%TO.P,S7,S1,SHIELD*%
X155248000Y-111816000D03*
%TO.P,S7,S2,SHIELD*%
X168348000Y-111816000D03*
%TD*%
D30*
%TO.P,R1,1*%
%TO.N,+3V3*%
X119276500Y-79502000D03*
%TO.P,R1,2*%
%TO.N,MCLRn*%
X117451500Y-79502000D03*
%TD*%
D13*
%TO.P,C6,1*%
%TO.N,+3V3*%
X129693500Y-90678000D03*
%TO.P,C6,2*%
%TO.N,GND*%
X131418500Y-90678000D03*
%TD*%
D30*
%TO.P,R3,1*%
%TO.N,Net-(C8-Pad1)*%
X147724500Y-74930000D03*
%TO.P,R3,2*%
%TO.N,GND*%
X145899500Y-74930000D03*
%TD*%
D10*
%TO.P,R25,1*%
%TO.N,KOS_LED*%
X90932000Y-102465500D03*
%TO.P,R25,2*%
%TO.N,Net-(R25-Pad2)*%
X90932000Y-104290500D03*
%TD*%
D35*
%TO.P,C21,1*%
%TO.N,Net-(C20-Pad1)*%
X64262000Y-74321500D03*
%TO.P,C21,2*%
%TO.N,GND*%
X64262000Y-76046500D03*
%TD*%
%TO.P,C20,1*%
%TO.N,Net-(C20-Pad1)*%
X62484000Y-74321500D03*
%TO.P,C20,2*%
%TO.N,GND*%
X62484000Y-76046500D03*
%TD*%
D27*
%TO.P,U4,1*%
%TO.N,Net-(CR1-Pad2)*%
X89647000Y-58176000D03*
D28*
%TO.P,U4,2*%
%TO.N,LOOPb*%
X87107000Y-58176000D03*
%TO.P,U4,3,NC*%
%TO.N,unconnected-(U4-Pad3)*%
X84567000Y-58176000D03*
%TO.P,U4,4*%
%TO.N,GND*%
X84567000Y-65796000D03*
%TO.P,U4,5*%
%TO.N,LOOP_SENSE*%
X87107000Y-65796000D03*
%TO.P,U4,6*%
%TO.N,unconnected-(U4-Pad6)*%
X89647000Y-65796000D03*
%TD*%
D11*
%TO.P,J2,1,Pin_1*%
%TO.N,MCLRn*%
X117348000Y-82296000D03*
D12*
%TO.P,J2,2,Pin_2*%
%TO.N,+3V3*%
X119888000Y-82296000D03*
%TO.P,J2,3,Pin_3*%
%TO.N,GND*%
X122428000Y-82296000D03*
%TO.P,J2,4,Pin_4*%
%TO.N,PGED*%
X124968000Y-82296000D03*
%TO.P,J2,5,Pin_5*%
%TO.N,PGEC*%
X127508000Y-82296000D03*
%TO.P,J2,6,Pin_6*%
%TO.N,unconnected-(J2-Pad6)*%
X130048000Y-82296000D03*
%TO.P,J2,7,Pin_7*%
%TO.N,unconnected-(J2-Pad7)*%
X132588000Y-82296000D03*
%TO.P,J2,8,Pin_8*%
%TO.N,IDLEn*%
X135128000Y-82296000D03*
%TD*%
D31*
%TO.P,C9,1*%
%TO.N,Net-(C10-Pad2)*%
X128116500Y-74422000D03*
%TO.P,C9,2*%
%TO.N,Net-(C9-Pad2)*%
X126391500Y-74422000D03*
%TD*%
D19*
%TO.P,S2,L1,A__AMBER*%
%TO.N,Net-(R22-Pad2)*%
X60452000Y-114808000D03*
D20*
%TO.P,S2,L2,K_AMBER*%
%TO.N,GND*%
X57002000Y-114808000D03*
D21*
%TO.P,S2,MH1,MH1*%
X60327000Y-117008000D03*
%TO.P,S2,MH2,MH2*%
X57127000Y-117008000D03*
D20*
%TO.P,S2,S1,COM*%
%TO.N,SHIFT_TOGGLEn*%
X59302000Y-114808000D03*
%TO.P,S2,S2,NO*%
%TO.N,GND*%
X58152000Y-114808000D03*
%TD*%
D10*
%TO.P,R22,1*%
%TO.N,850_SHIFT_LED*%
X60452000Y-102465500D03*
%TO.P,R22,2*%
%TO.N,Net-(R22-Pad2)*%
X60452000Y-104290500D03*
%TD*%
D31*
%TO.P,C15,1*%
%TO.N,Net-(C15-Pad1)*%
X172566500Y-55880000D03*
%TO.P,C15,2*%
%TO.N,GND*%
X170841500Y-55880000D03*
%TD*%
%TO.P,C18,1*%
%TO.N,+5V_SW*%
X174344500Y-72390000D03*
%TO.P,C18,2*%
%TO.N,GND*%
X172619500Y-72390000D03*
%TD*%
%TO.P,C8,1*%
%TO.N,Net-(C8-Pad1)*%
X147674500Y-73152000D03*
%TO.P,C8,2*%
%TO.N,GND*%
X145949500Y-73152000D03*
%TD*%
D10*
%TO.P,R26,1*%
%TO.N,TX_LED*%
X101092000Y-102465500D03*
%TO.P,R26,2*%
%TO.N,Net-(R26-Pad2)*%
X101092000Y-104290500D03*
%TD*%
D35*
%TO.P,C3,1*%
%TO.N,GND*%
X139954000Y-102923000D03*
%TO.P,C3,2*%
%TO.N,+3V3*%
X139954000Y-104648000D03*
%TD*%
D47*
%TO.N,GND*%
X60960000Y-66294000D03*
X60960000Y-65024000D03*
X140970000Y-84582000D03*
X60960000Y-63754000D03*
X59690000Y-66294000D03*
X62230000Y-65024000D03*
X177546000Y-55880000D03*
X147611398Y-92091502D03*
X132347255Y-93613095D03*
X175768000Y-65786000D03*
X144018000Y-72898000D03*
X169672000Y-59182000D03*
X52324000Y-60452000D03*
X125018043Y-76041999D03*
X175768000Y-71374000D03*
X59690000Y-63754000D03*
X62484000Y-77216000D03*
X139954000Y-101600000D03*
X180086000Y-62484000D03*
X137684697Y-75592498D03*
X132535106Y-90730894D03*
X71120000Y-56388000D03*
X149056500Y-94192500D03*
X66294000Y-73226500D03*
X169164000Y-55880000D03*
X137160000Y-100330000D03*
X172466000Y-73660000D03*
X62230000Y-63754000D03*
X59690000Y-65024000D03*
X62230000Y-66294000D03*
X118364000Y-96012000D03*
%TO.N,+3V3*%
X47752000Y-58420000D03*
X56134000Y-73152000D03*
X61214000Y-73152000D03*
X181356000Y-70358000D03*
X135906697Y-75592498D03*
X151829859Y-91806440D03*
X153162000Y-94234000D03*
X144018000Y-75438000D03*
X140970000Y-79756000D03*
X128428500Y-93726000D03*
X139954000Y-106172000D03*
X118364000Y-91440000D03*
X128270000Y-89916000D03*
%TO.N,+5V_SW*%
X170942000Y-59182000D03*
X175006000Y-68326000D03*
%TO.N,PWRENn*%
X168148000Y-59182000D03*
X178562000Y-59436000D03*
%TO.N,LOOP_SENSE*%
X147832299Y-78989701D03*
%TO.N,WIFI_CSn*%
X146299701Y-79760299D03*
X52070000Y-64516000D03*
%TO.N,WIFI_SPI_CLK*%
X51054000Y-74676000D03*
X144526000Y-79756000D03*
%TO.N,WIFI_MOSI*%
X142748000Y-79756000D03*
X45974000Y-75438000D03*
%TO.N,WIFI_MISO*%
X142748000Y-84074000D03*
X46990000Y-76200000D03*
%TO.N,Net-(U1-Pad29)*%
X123698000Y-93472000D03*
X123105113Y-96482500D03*
%TO.N,U1CTSn*%
X143764000Y-103632000D03*
X165354000Y-103144500D03*
%TO.N,U1TX*%
X166465500Y-102352988D03*
X142494000Y-103669500D03*
%TO.N,U1RTSn*%
X138213500Y-104394000D03*
X166624000Y-104399000D03*
%TO.N,U1RX*%
X141224000Y-103669500D03*
X164705987Y-101695500D03*
%TO.N,Net-(T1-Pad6)*%
X137160000Y-84074000D03*
%TO.N,AUTOSTART*%
X180848000Y-57912000D03*
%TO.N,LOOP_KEY*%
X98298000Y-73660000D03*
X149098000Y-78994000D03*
%TO.N,WIFI_EN*%
X149098000Y-81026000D03*
X58674000Y-73152000D03*
%TO.N,AUTOSTARTn*%
X167386000Y-103632000D03*
X145298497Y-103674500D03*
%TO.N,WIFI_IRQn*%
X152258213Y-92709500D03*
X45212000Y-76708000D03*
%TO.N,WIFI_RESETn*%
X149860000Y-85852000D03*
X71882000Y-76924500D03*
%TO.N,TX_LED*%
X128270000Y-91186000D03*
X101092000Y-101156500D03*
%TO.N,TX_TOGGLEn*%
X147828000Y-109792500D03*
X147828000Y-105156000D03*
%TO.N,+5V*%
X165608000Y-58674000D03*
%TD*%
D48*
%TO.N,GND*%
X139954000Y-101600000D02*
X139958000Y-101596000D01*
X71029000Y-56479000D02*
X71120000Y-56388000D01*
X132472445Y-93613095D02*
X132347255Y-93613095D01*
X145946000Y-93968000D02*
X148832000Y-93968000D01*
X139958000Y-101596000D02*
X139958000Y-98956000D01*
X137458000Y-100032000D02*
X137160000Y-100330000D01*
D49*
X64212000Y-76096500D02*
X64262000Y-76046500D01*
D48*
X147754900Y-91948000D02*
X147611398Y-92091502D01*
X120969000Y-94107000D02*
X118845500Y-94107000D01*
X131418500Y-90678000D02*
X132482212Y-90678000D01*
X145949500Y-73152000D02*
X144272000Y-73152000D01*
X132347255Y-93613095D02*
X131277405Y-93613095D01*
X177408000Y-65786000D02*
X175768000Y-65786000D01*
X140958000Y-87480000D02*
X140958000Y-84594000D01*
X170109000Y-59619000D02*
X169672000Y-59182000D01*
X118364000Y-94588500D02*
X118364000Y-96012000D01*
X132492350Y-93468000D02*
X132347255Y-93613095D01*
X170109000Y-61016000D02*
X170109000Y-59619000D01*
X150144829Y-94234000D02*
X149098000Y-94234000D01*
X133249500Y-101346000D02*
X133101000Y-101494500D01*
X145899500Y-74930000D02*
X145899500Y-73202000D01*
D49*
X172619500Y-73506500D02*
X172466000Y-73660000D01*
X62484000Y-76046500D02*
X62484000Y-77216000D01*
D48*
X140958000Y-84594000D02*
X140970000Y-84582000D01*
D49*
X56134000Y-76046500D02*
X59894000Y-76046500D01*
D48*
X54103000Y-60543000D02*
X52415000Y-60543000D01*
X175768000Y-73660000D02*
X175768000Y-71374000D01*
X148832000Y-93968000D02*
X149056500Y-94192500D01*
X132772212Y-90968000D02*
X132535106Y-90730894D01*
X130614000Y-75400000D02*
X130830000Y-75184000D01*
X66294000Y-73406000D02*
X66294000Y-73226500D01*
X171196000Y-65786000D02*
X175768000Y-65786000D01*
D49*
X59894000Y-76046500D02*
X59944000Y-76096500D01*
D48*
X147487896Y-91968000D02*
X147611398Y-92091502D01*
X162324500Y-50445500D02*
X165410000Y-47360000D01*
X132482212Y-90678000D02*
X132535106Y-90730894D01*
X176276000Y-74168000D02*
X175768000Y-73660000D01*
X52415000Y-60543000D02*
X52324000Y-60452000D01*
X148743500Y-91948000D02*
X147754900Y-91948000D01*
X136958000Y-100128000D02*
X137160000Y-100330000D01*
X162052000Y-50445500D02*
X162324500Y-50445500D01*
D49*
X59944000Y-76096500D02*
X64212000Y-76096500D01*
D48*
X134470000Y-93468000D02*
X132492350Y-93468000D01*
X66163000Y-71345000D02*
X66163000Y-73275000D01*
X137514500Y-75422301D02*
X137684697Y-75592498D01*
X178662500Y-62484000D02*
X180086000Y-62484000D01*
X170759000Y-68016000D02*
X170759000Y-66223000D01*
X133101000Y-101494500D02*
X133101000Y-104083000D01*
X137458000Y-98956000D02*
X137458000Y-100032000D01*
X118845500Y-94107000D02*
X118364000Y-94588500D01*
X140970000Y-84582000D02*
X140970000Y-82904500D01*
X136958000Y-98956000D02*
X136958000Y-100128000D01*
X170841500Y-55880000D02*
X169164000Y-55880000D01*
X126391500Y-76200000D02*
X127191500Y-75400000D01*
X177445500Y-74168000D02*
X176276000Y-74168000D01*
X177170500Y-71374000D02*
X175768000Y-71374000D01*
X126391500Y-76200000D02*
X125176044Y-76200000D01*
X131277405Y-93613095D02*
X131164500Y-93726000D01*
X145946000Y-91968000D02*
X147487896Y-91968000D01*
X134470000Y-90968000D02*
X132772212Y-90968000D01*
X170759000Y-66223000D02*
X171196000Y-65786000D01*
X176376500Y-55880000D02*
X177546000Y-55880000D01*
X127191500Y-75400000D02*
X130614000Y-75400000D01*
X125176044Y-76200000D02*
X125018043Y-76041999D01*
X144272000Y-73152000D02*
X144018000Y-72898000D01*
D49*
X172619500Y-70612000D02*
X172619500Y-73506500D01*
D48*
X139954000Y-102923000D02*
X139954000Y-101600000D01*
X137514500Y-74168000D02*
X137514500Y-75422301D01*
X149098000Y-94234000D02*
X149056500Y-94192500D01*
X145899500Y-73202000D02*
X145949500Y-73152000D01*
X66163000Y-73275000D02*
X66294000Y-73406000D01*
X68833000Y-56479000D02*
X71029000Y-56479000D01*
%TO.N,+3V3*%
X119276500Y-79502000D02*
X119888000Y-80113500D01*
X140970000Y-81179500D02*
X140170000Y-81979500D01*
X56003000Y-73021000D02*
X56134000Y-73152000D01*
X133330000Y-74234000D02*
X135723500Y-74234000D01*
X119888000Y-80113500D02*
X119888000Y-82296000D01*
X61083000Y-73021000D02*
X61214000Y-73152000D01*
X139458000Y-101070695D02*
X139154000Y-101374695D01*
X139154000Y-101374695D02*
X139154000Y-104102000D01*
X145034000Y-76708000D02*
X144780000Y-76454000D01*
X56003000Y-71345000D02*
X56003000Y-73021000D01*
X129439500Y-93879500D02*
X129439500Y-93726000D01*
X151092000Y-95034000D02*
X151892000Y-94234000D01*
X179170500Y-74168000D02*
X180594000Y-74168000D01*
X181290000Y-70424000D02*
X181356000Y-70358000D01*
X150468500Y-91948000D02*
X151688299Y-91948000D01*
X144780000Y-76454000D02*
X144018000Y-75692000D01*
X120969000Y-92837000D02*
X118390500Y-92837000D01*
X148834695Y-94996000D02*
X149352000Y-94996000D01*
X147039380Y-91468000D02*
X147140378Y-91367002D01*
X128428500Y-93726000D02*
X129439500Y-93726000D01*
D49*
X56134000Y-74321500D02*
X56134000Y-73152000D01*
D48*
X129756000Y-89878000D02*
X132706810Y-89878000D01*
X140458000Y-85594000D02*
X140458000Y-87480000D01*
X128270000Y-89916000D02*
X128308000Y-89878000D01*
X134470000Y-93968000D02*
X133017655Y-93968000D01*
X135723500Y-74234000D02*
X135789500Y-74168000D01*
X139700000Y-104648000D02*
X139954000Y-104648000D01*
X145946000Y-91468000D02*
X147039380Y-91468000D01*
X128308000Y-89878000D02*
X129756000Y-89878000D01*
X135789500Y-75475301D02*
X135906697Y-75592498D01*
X49125500Y-58420000D02*
X47752000Y-58420000D01*
X144018000Y-75692000D02*
X144018000Y-75438000D01*
X125919000Y-90997000D02*
X125919000Y-91567000D01*
X151892000Y-94234000D02*
X153162000Y-94234000D01*
X147991503Y-91367002D02*
X148210505Y-91148000D01*
X133017655Y-93968000D02*
X132459655Y-94526000D01*
X133296810Y-90468000D02*
X134470000Y-90468000D01*
X61083000Y-71345000D02*
X61083000Y-73021000D01*
X125919000Y-90297000D02*
X125919000Y-90997000D01*
X140970000Y-79756000D02*
X140970000Y-81179500D01*
X132706810Y-89878000D02*
X133296810Y-90468000D01*
X118390500Y-92837000D02*
X118364000Y-92863500D01*
X139954000Y-106172000D02*
X139954000Y-104648000D01*
X180594000Y-74168000D02*
X181356000Y-73406000D01*
X149352000Y-94996000D02*
X149390000Y-95034000D01*
D49*
X179445500Y-70424000D02*
X181290000Y-70424000D01*
D48*
X134974500Y-101346000D02*
X135641000Y-102012500D01*
X130086000Y-94526000D02*
X129439500Y-93879500D01*
X181356000Y-73406000D02*
X181356000Y-70358000D01*
X149390000Y-95034000D02*
X151092000Y-95034000D01*
X128270000Y-89916000D02*
X126300000Y-89916000D01*
X145946000Y-94468000D02*
X148306695Y-94468000D01*
X148210505Y-91148000D02*
X149668500Y-91148000D01*
X140170000Y-85306000D02*
X140458000Y-85594000D01*
X135789500Y-74168000D02*
X135789500Y-75475301D01*
X129693500Y-89940500D02*
X129756000Y-89878000D01*
X132459655Y-94526000D02*
X130086000Y-94526000D01*
X118364000Y-92863500D02*
X118364000Y-91440000D01*
X129693500Y-90678000D02*
X129693500Y-89940500D01*
X126300000Y-89916000D02*
X125919000Y-90297000D01*
X149668500Y-91148000D02*
X150468500Y-91948000D01*
X139154000Y-104102000D02*
X139700000Y-104648000D01*
X148306695Y-94468000D02*
X148834695Y-94996000D01*
X151688299Y-91948000D02*
X151829859Y-91806440D01*
X147140378Y-91367002D02*
X147991503Y-91367002D01*
X140170000Y-81979500D02*
X140170000Y-85306000D01*
X139458000Y-98956000D02*
X139458000Y-101070695D01*
X145899500Y-76708000D02*
X145034000Y-76708000D01*
X135641000Y-102012500D02*
X135641000Y-104083000D01*
%TO.N,Net-(C10-Pad1)*%
X125805500Y-72058000D02*
X125805500Y-67818000D01*
X126391500Y-72644000D02*
X125805500Y-72058000D01*
%TO.N,Net-(C10-Pad2)*%
X130830000Y-74234000D02*
X131638000Y-74234000D01*
X130830000Y-74234000D02*
X128304500Y-74234000D01*
X132268000Y-76134000D02*
X133330000Y-76134000D01*
X132080000Y-75946000D02*
X132268000Y-76134000D01*
X131638000Y-74234000D02*
X132080000Y-74676000D01*
X128116500Y-72644000D02*
X128116500Y-74422000D01*
X128304500Y-74234000D02*
X128116500Y-74422000D01*
X132080000Y-74676000D02*
X132080000Y-75946000D01*
%TO.N,USB_3V3*%
X168809000Y-62839000D02*
X169164000Y-62484000D01*
X169164000Y-62484000D02*
X171958000Y-62484000D01*
X168809000Y-68016000D02*
X168809000Y-62839000D01*
X172059000Y-61016000D02*
X172059000Y-62383000D01*
X171958000Y-62484000D02*
X176937500Y-62484000D01*
X176937500Y-62484000D02*
X176937500Y-60756000D01*
X172059000Y-62383000D02*
X171958000Y-62484000D01*
X171409000Y-61016000D02*
X172059000Y-61016000D01*
X176937500Y-60756000D02*
X176887500Y-60706000D01*
%TO.N,Net-(C14-Pad1)*%
X176426500Y-57655000D02*
X174651500Y-55880000D01*
X174651500Y-52041500D02*
X174651500Y-55880000D01*
X176426500Y-57658000D02*
X176426500Y-57655000D01*
X172680000Y-50070000D02*
X174651500Y-52041500D01*
%TO.N,Net-(C15-Pad1)*%
X172680000Y-52070000D02*
X172680000Y-55766500D01*
X170791500Y-57658000D02*
X170791500Y-57655000D01*
X170791500Y-57655000D02*
X172566500Y-55880000D01*
X172680000Y-55766500D02*
X172566500Y-55880000D01*
D49*
%TO.N,Net-(C16-Pad1)*%
X162052000Y-52170500D02*
X162152500Y-52070000D01*
X162152500Y-52070000D02*
X165608000Y-52070000D01*
X165608000Y-52070000D02*
X170180000Y-52070000D01*
X165608000Y-55118000D02*
X165608000Y-52070000D01*
%TO.N,+5V_SW*%
X174344500Y-70612000D02*
X174344500Y-72390000D01*
D48*
X175006000Y-68326000D02*
X175006000Y-70358000D01*
X170759000Y-59365000D02*
X170942000Y-59182000D01*
X174532500Y-70424000D02*
X174344500Y-70612000D01*
D49*
X174344500Y-72390000D02*
X174752000Y-72797500D01*
D48*
X175006000Y-70358000D02*
X175072000Y-70424000D01*
X180086000Y-65786000D02*
X180144000Y-65844000D01*
D49*
X189992000Y-100838000D02*
X187452000Y-103378000D01*
X177170500Y-70424000D02*
X175072000Y-70424000D01*
D50*
X175072000Y-70424000D02*
X174532500Y-70424000D01*
D48*
X177104500Y-70358000D02*
X177170500Y-70424000D01*
D49*
X187452000Y-103378000D02*
X180848000Y-103378000D01*
D48*
X170759000Y-61016000D02*
X170759000Y-59365000D01*
X180144000Y-65844000D02*
X180144000Y-67056000D01*
D49*
X174752000Y-79248000D02*
X189992000Y-94488000D01*
X189992000Y-94488000D02*
X189992000Y-100838000D01*
D48*
X179208000Y-65786000D02*
X180086000Y-65786000D01*
X180144000Y-67056000D02*
X176776000Y-70424000D01*
D49*
X174752000Y-72797500D02*
X174752000Y-79248000D01*
D48*
%TO.N,MCLRn*%
X117451500Y-79502000D02*
X117348000Y-79605500D01*
X117348000Y-79605500D02*
X117348000Y-82296000D01*
X139958000Y-88642000D02*
X139958000Y-87480000D01*
X117348000Y-82296000D02*
X117348000Y-84074000D01*
X135636000Y-85852000D02*
X135636000Y-88392000D01*
X117348000Y-84074000D02*
X118872000Y-85598000D01*
X118872000Y-85598000D02*
X135382000Y-85598000D01*
X136144000Y-88900000D02*
X139700000Y-88900000D01*
X139700000Y-88900000D02*
X139958000Y-88642000D01*
X135636000Y-88392000D02*
X136144000Y-88900000D01*
X135382000Y-85598000D02*
X135636000Y-85852000D01*
%TO.N,PWM_OUT*%
X139458000Y-87480000D02*
X139458000Y-82308000D01*
X139458000Y-82308000D02*
X135786500Y-78636500D01*
X135786500Y-78636500D02*
X135786500Y-77978000D01*
%TO.N,Net-(C9-Pad2)*%
X125613444Y-74422000D02*
X124243000Y-75792444D01*
X131826000Y-78994000D02*
X126746000Y-78994000D01*
X132842000Y-77978000D02*
X131826000Y-78994000D01*
X124243000Y-75792444D02*
X124243000Y-76745000D01*
X125476000Y-77978000D02*
X126341500Y-77978000D01*
X126391500Y-74422000D02*
X125613444Y-74422000D01*
X124243000Y-76745000D02*
X125476000Y-77978000D01*
X126341500Y-78589500D02*
X126341500Y-77978000D01*
X126746000Y-78994000D02*
X126341500Y-78589500D01*
X133961500Y-77978000D02*
X132842000Y-77978000D01*
%TO.N,Net-(R6-Pad1)*%
X172709000Y-57750500D02*
X172616500Y-57658000D01*
X172709000Y-61016000D02*
X172709000Y-57750500D01*
%TO.N,Net-(R7-Pad1)*%
X173359000Y-58900500D02*
X174601500Y-57658000D01*
X173359000Y-61016000D02*
X173359000Y-58900500D01*
%TO.N,PWRENn*%
X177408000Y-64400000D02*
X177408000Y-65036000D01*
X178712500Y-60706000D02*
X177800000Y-61618500D01*
X168159000Y-59193000D02*
X168148000Y-59182000D01*
X178562000Y-60555500D02*
X178712500Y-60706000D01*
X168159000Y-61016000D02*
X168159000Y-59193000D01*
X177800000Y-61618500D02*
X177800000Y-64008000D01*
X178562000Y-59436000D02*
X178562000Y-60555500D01*
X177800000Y-64008000D02*
X177408000Y-64400000D01*
%TO.N,Net-(CR1-Pad2)*%
X92379800Y-54610000D02*
X95925800Y-58156000D01*
X92379800Y-54610000D02*
X89201000Y-54610000D01*
X89201000Y-54610000D02*
X89647000Y-55056000D01*
X89647000Y-55056000D02*
X89647000Y-58176000D01*
X95925800Y-58156000D02*
X96281000Y-58156000D01*
%TO.N,LOOPb*%
X87376000Y-54610000D02*
X87107000Y-54879000D01*
X93283000Y-48196000D02*
X87376000Y-54103000D01*
X87107000Y-54879000D02*
X87107000Y-58176000D01*
X87376000Y-54103000D02*
X87376000Y-54610000D01*
%TO.N,LOOP_SENSE*%
X146812000Y-84582000D02*
X147832299Y-83561701D01*
X143458000Y-87480000D02*
X143458000Y-85664889D01*
X144540889Y-84582000D02*
X146812000Y-84582000D01*
X143458000Y-85664889D02*
X144540889Y-84582000D01*
X147832299Y-83561701D02*
X147832299Y-78989701D01*
%TO.N,Net-(C20-Pad1)*%
X62484000Y-74321500D02*
X64262000Y-74321500D01*
X62099000Y-71345000D02*
X62099000Y-73936500D01*
X62099000Y-73936500D02*
X62484000Y-74321500D01*
%TO.N,Net-(R13-Pad1)*%
X145542000Y-84074000D02*
X146304000Y-83312000D01*
X142958000Y-87480000D02*
X142958000Y-85528493D01*
X144412493Y-84074000D02*
X145542000Y-84074000D01*
X146304000Y-83312000D02*
X146304000Y-82954500D01*
X142958000Y-85528493D02*
X144412493Y-84074000D01*
%TO.N,WIFI_CSn*%
X54012000Y-64516000D02*
X54103000Y-64607000D01*
X146304000Y-81129500D02*
X146304000Y-79764598D01*
X146304000Y-79764598D02*
X146299701Y-79760299D01*
X52070000Y-64516000D02*
X54012000Y-64516000D01*
%TO.N,Net-(R14-Pad1)*%
X144526000Y-83324097D02*
X144526000Y-82954500D01*
X142458000Y-85392097D02*
X144526000Y-83324097D01*
X142458000Y-85392097D02*
X142458000Y-87480000D01*
%TO.N,WIFI_SPI_CLK*%
X51054000Y-67818000D02*
X52233000Y-66639000D01*
X51054000Y-74676000D02*
X51054000Y-67818000D01*
X52233000Y-66639000D02*
X54103000Y-66639000D01*
X144526000Y-81129500D02*
X144526000Y-79756000D01*
%TO.N,Net-(R15-Pad1)*%
X141458000Y-85119305D02*
X141695000Y-84882305D01*
X141695000Y-84882305D02*
X141695000Y-84007500D01*
X141695000Y-84007500D02*
X142748000Y-82954500D01*
X141458000Y-85119305D02*
X141458000Y-87480000D01*
%TO.N,WIFI_MOSI*%
X45974000Y-64770000D02*
X47153000Y-63591000D01*
X142748000Y-81129500D02*
X142748000Y-79756000D01*
X45974000Y-75438000D02*
X45974000Y-64770000D01*
X47153000Y-63591000D02*
X54103000Y-63591000D01*
%TO.N,Net-(R16-Pad1)*%
X50696500Y-65786000D02*
X50859500Y-65623000D01*
X50859500Y-65623000D02*
X54103000Y-65623000D01*
%TO.N,WIFI_MISO*%
X46990000Y-76200000D02*
X46990000Y-66802000D01*
X142145000Y-85068701D02*
X142145000Y-84328000D01*
X46990000Y-66802000D02*
X48006000Y-65786000D01*
X48006000Y-65786000D02*
X48871500Y-65786000D01*
X142399000Y-84074000D02*
X142748000Y-84074000D01*
X141958000Y-85255701D02*
X141958000Y-87480000D01*
X142145000Y-84328000D02*
X142399000Y-84074000D01*
X141958000Y-85255701D02*
X142145000Y-85068701D01*
%TO.N,Net-(U1-Pad22)*%
X127254000Y-91948000D02*
X127000000Y-92202000D01*
X134470000Y-91968000D02*
X133213520Y-91968000D01*
X127274000Y-91968000D02*
X127254000Y-91948000D01*
X133190017Y-91944497D02*
X131845065Y-91944497D01*
X131821562Y-91968000D02*
X127274000Y-91968000D01*
X123063000Y-91567000D02*
X120969000Y-91567000D01*
X123698000Y-92202000D02*
X123063000Y-91567000D01*
X127000000Y-92202000D02*
X123698000Y-92202000D01*
X131845065Y-91944497D02*
X131821562Y-91968000D01*
X133213520Y-91968000D02*
X133190017Y-91944497D01*
%TO.N,Net-(U1-Pad23)*%
X134470000Y-92468000D02*
X133077830Y-92468000D01*
X132031254Y-92393998D02*
X131957252Y-92468000D01*
X127254000Y-92584396D02*
X127254000Y-93462695D01*
X127370396Y-92468000D02*
X127254000Y-92584396D01*
X126609695Y-94107000D02*
X125919000Y-94107000D01*
X133077830Y-92468000D02*
X133003828Y-92393998D01*
X127254000Y-93462695D02*
X126609695Y-94107000D01*
X133003828Y-92393998D02*
X132031254Y-92393998D01*
X131957252Y-92468000D02*
X127370396Y-92468000D01*
%TO.N,Net-(U1-Pad24)*%
X127704000Y-93022000D02*
X127704000Y-93968751D01*
X119634000Y-90678000D02*
X120015000Y-90297000D01*
X120015000Y-90297000D02*
X120969000Y-90297000D01*
X119888000Y-92202000D02*
X119634000Y-91948000D01*
X122682000Y-94488000D02*
X122682000Y-92903249D01*
X127704000Y-93968751D02*
X126872252Y-94800499D01*
X127808000Y-92918000D02*
X127704000Y-93022000D01*
X122682000Y-92903249D02*
X121980751Y-92202000D01*
X134470000Y-92968000D02*
X132942140Y-92968000D01*
X119634000Y-91948000D02*
X119634000Y-90678000D01*
X132217443Y-92843499D02*
X132142942Y-92918000D01*
X132817639Y-92843499D02*
X132217443Y-92843499D01*
X121980751Y-92202000D02*
X119888000Y-92202000D01*
X126872252Y-94800499D02*
X122994499Y-94800499D01*
X132142942Y-92918000D02*
X127808000Y-92918000D01*
X132942140Y-92968000D02*
X132817639Y-92843499D01*
X122994499Y-94800499D02*
X122682000Y-94488000D01*
%TO.N,Net-(U1-Pad29)*%
X125919000Y-92837000D02*
X124333000Y-92837000D01*
X127615897Y-96208000D02*
X123379613Y-96208000D01*
X133017224Y-95875501D02*
X127948396Y-95875501D01*
X124333000Y-92837000D02*
X123698000Y-93472000D01*
X133424725Y-95468000D02*
X133017224Y-95875501D01*
X123379613Y-96208000D02*
X123105113Y-96482500D01*
X127948396Y-95875501D02*
X127615897Y-96208000D01*
X134470000Y-95468000D02*
X133424725Y-95468000D01*
%TO.N,Net-(U5-Pad6)*%
X180086000Y-65024000D02*
X180074000Y-65036000D01*
X178270000Y-72324000D02*
X177170500Y-72324000D01*
X180074000Y-65036000D02*
X179208000Y-65036000D01*
X178458000Y-72136000D02*
X178270000Y-72324000D01*
X180594000Y-65532000D02*
X180086000Y-65024000D01*
X180594000Y-67310000D02*
X178458000Y-69446000D01*
X178458000Y-69446000D02*
X178458000Y-72136000D01*
X180594000Y-67310000D02*
X180594000Y-65532000D01*
%TO.N,U1CTSn*%
X166015500Y-71217708D02*
X167637208Y-69596000D01*
X141654000Y-102362000D02*
X142236500Y-102944500D01*
X143076500Y-102944500D02*
X143764000Y-103632000D01*
X165354000Y-103144500D02*
X165354000Y-102108000D01*
X141654000Y-101001903D02*
X141654000Y-102362000D01*
X167637208Y-69596000D02*
X167894000Y-69596000D01*
X168159000Y-69331000D02*
X168159000Y-68016000D01*
X142236500Y-102944500D02*
X143076500Y-102944500D01*
X165354000Y-102108000D02*
X166015500Y-101446500D01*
X141458000Y-98956000D02*
X141458000Y-100805903D01*
X141458000Y-100805903D02*
X141654000Y-101001903D01*
X167894000Y-69596000D02*
X168159000Y-69331000D01*
X166015500Y-101446500D02*
X166015500Y-71217708D01*
%TO.N,U1TX*%
X140958000Y-98956000D02*
X140958000Y-100942299D01*
X168714000Y-70046000D02*
X169459000Y-69301000D01*
X166465500Y-102352988D02*
X166465500Y-71404104D01*
X169459000Y-69301000D02*
X169459000Y-68016000D01*
X142277500Y-103669500D02*
X142494000Y-103669500D01*
X140958000Y-100942299D02*
X141204000Y-101188299D01*
X141204000Y-102616000D02*
X141224000Y-102616000D01*
X141224000Y-102616000D02*
X142277500Y-103669500D01*
X141204000Y-101188299D02*
X141204000Y-102616000D01*
X166465500Y-71404104D02*
X167823604Y-70046000D01*
X167823604Y-70046000D02*
X168714000Y-70046000D01*
%TO.N,U1RTSn*%
X172370396Y-69291000D02*
X170105396Y-69291000D01*
X138213500Y-100800500D02*
X138958000Y-100056000D01*
X172709000Y-68952396D02*
X172370396Y-69291000D01*
X168900396Y-70496000D02*
X168010000Y-70496000D01*
X166624000Y-104399000D02*
X166624000Y-103368695D01*
X138213500Y-104394000D02*
X138213500Y-100800500D01*
X138958000Y-100056000D02*
X138958000Y-98956000D01*
X172709000Y-68016000D02*
X172709000Y-68952396D01*
X167122695Y-102870000D02*
X167132000Y-102870000D01*
X167190000Y-71316000D02*
X168010000Y-70496000D01*
X167132000Y-102870000D02*
X167190000Y-102812000D01*
X167190000Y-102812000D02*
X167190000Y-71316000D01*
X170105396Y-69291000D02*
X168900396Y-70496000D01*
X166624000Y-103368695D02*
X167122695Y-102870000D01*
%TO.N,U1RX*%
X140754000Y-103199500D02*
X141224000Y-103669500D01*
X165806000Y-61016000D02*
X167509000Y-61016000D01*
X140458000Y-98956000D02*
X140458000Y-101078695D01*
X140458000Y-101078695D02*
X140754000Y-101374695D01*
X165354000Y-61468000D02*
X165806000Y-61016000D01*
X140754000Y-101374695D02*
X140754000Y-103199500D01*
X164705987Y-101695500D02*
X165354000Y-101047487D01*
X165354000Y-101047487D02*
X165354000Y-61468000D01*
%TO.N,Net-(C8-Pad1)*%
X147674500Y-73152000D02*
X147904500Y-72922000D01*
X147904500Y-72922000D02*
X147904500Y-67818000D01*
X147724500Y-74930000D02*
X147724500Y-73202000D01*
X147724500Y-76708000D02*
X147724500Y-74930000D01*
X147724500Y-73202000D02*
X147674500Y-73152000D01*
%TO.N,Net-(C11-Pad1)*%
X128182500Y-76134000D02*
X130830000Y-76134000D01*
X128166500Y-77978000D02*
X128166500Y-76250000D01*
X128166500Y-76250000D02*
X128116500Y-76200000D01*
X128116500Y-76200000D02*
X128182500Y-76134000D01*
%TO.N,Net-(K1-Pad1)*%
X96281000Y-69761500D02*
X96281000Y-65776000D01*
X96369500Y-69850000D02*
X96281000Y-69761500D01*
%TO.N,LOOPa*%
X104697000Y-54610000D02*
X106172000Y-54610000D01*
X98283000Y-48196000D02*
X104697000Y-54610000D01*
X101361000Y-58156000D02*
X102626000Y-58156000D01*
X102626000Y-58156000D02*
X106172000Y-54610000D01*
%TO.N,Net-(K2-Pad1)*%
X107696000Y-69953500D02*
X107696000Y-66040000D01*
X107545500Y-70104000D02*
X107696000Y-69953500D01*
%TO.N,PTTb*%
X107696000Y-58420000D02*
X117920000Y-48196000D01*
X117920000Y-48196000D02*
X118283000Y-48196000D01*
%TO.N,PTTa*%
X112776000Y-58420000D02*
X123000000Y-48196000D01*
X123000000Y-48196000D02*
X123283000Y-48196000D01*
%TO.N,PTT*%
X126238000Y-79502000D02*
X116840000Y-70104000D01*
X138458000Y-82706396D02*
X135253604Y-79502000D01*
X135253604Y-79502000D02*
X126238000Y-79502000D01*
X138458000Y-87480000D02*
X138458000Y-82706396D01*
X116840000Y-70104000D02*
X109370500Y-70104000D01*
%TO.N,AFSK_INa*%
X148450500Y-48196000D02*
X157404500Y-57150000D01*
X148283000Y-48196000D02*
X148450500Y-48196000D01*
%TO.N,AFSK_INb*%
X143283000Y-48196000D02*
X143283000Y-52528500D01*
X143283000Y-52528500D02*
X147904500Y-57150000D01*
%TO.N,Net-(T1-Pad6)*%
X137458000Y-87480000D02*
X137458000Y-84372000D01*
X137458000Y-84372000D02*
X137160000Y-84074000D01*
%TO.N,AFSK_OUTb*%
X128283000Y-48196000D02*
X125805500Y-50673500D01*
X125805500Y-50673500D02*
X125805500Y-57150000D01*
%TO.N,AFSK_OUTa*%
X133283000Y-48196000D02*
X133283000Y-55127500D01*
X133283000Y-55127500D02*
X135305500Y-57150000D01*
%TO.N,Net-(J1-Pad3)*%
X149081584Y-107718000D02*
X142223584Y-107718000D01*
X119074812Y-101266000D02*
X127744000Y-101266000D01*
X120412416Y-108734000D02*
X117776000Y-106097584D01*
X127744000Y-101266000D02*
X130561000Y-104083000D01*
X142223584Y-107718000D02*
X141207584Y-108734000D01*
X147700396Y-96518000D02*
X150390000Y-99207604D01*
X145946000Y-96468000D02*
X147524000Y-96468000D01*
X147524000Y-96468000D02*
X147574000Y-96518000D01*
X150390000Y-99207604D02*
X150390000Y-106409584D01*
X117776000Y-106097584D02*
X117776000Y-102564812D01*
X141207584Y-108734000D02*
X120412416Y-108734000D01*
X117776000Y-102564812D02*
X119074812Y-101266000D01*
X147574000Y-96518000D02*
X147700396Y-96518000D01*
X150390000Y-106409584D02*
X149081584Y-107718000D01*
%TO.N,Net-(J1-Pad4)*%
X149940000Y-106223188D02*
X148895188Y-107268000D01*
X118226000Y-105911188D02*
X118226000Y-102751208D01*
X148895188Y-107268000D02*
X142037188Y-107268000D01*
X120598812Y-108284000D02*
X118226000Y-105911188D01*
X149940000Y-99394000D02*
X149940000Y-106223188D01*
X145946000Y-96968000D02*
X147514000Y-96968000D01*
X119261208Y-101716000D02*
X125654000Y-101716000D01*
X125654000Y-101716000D02*
X128021000Y-104083000D01*
X147514000Y-96968000D02*
X149940000Y-99394000D01*
X141021188Y-108284000D02*
X120598812Y-108284000D01*
X118226000Y-102751208D02*
X119261208Y-101716000D01*
X142037188Y-107268000D02*
X141021188Y-108284000D01*
%TO.N,Net-(J1-Pad5)*%
X120785208Y-107834000D02*
X118676000Y-105724792D01*
X123564000Y-102166000D02*
X125481000Y-104083000D01*
X148708792Y-106818000D02*
X141850792Y-106818000D01*
X148014396Y-103436000D02*
X148776396Y-103436000D01*
X119447604Y-102166000D02*
X123564000Y-102166000D01*
X118676000Y-102937604D02*
X119447604Y-102166000D01*
X143958000Y-98956000D02*
X143958000Y-100380500D01*
X144272000Y-100694500D02*
X145272896Y-100694500D01*
X149490000Y-104149604D02*
X149490000Y-106036792D01*
X141850792Y-106818000D02*
X140834792Y-107834000D01*
X140834792Y-107834000D02*
X120785208Y-107834000D01*
X145272896Y-100694500D02*
X148014396Y-103436000D01*
X148776396Y-103436000D02*
X149490000Y-104149604D01*
X143958000Y-100380500D02*
X144272000Y-100694500D01*
X118676000Y-105724792D02*
X118676000Y-102937604D01*
X149490000Y-106036792D02*
X148708792Y-106818000D01*
%TO.N,Net-(J1-Pad6)*%
X119126000Y-103124000D02*
X119634000Y-102616000D01*
X148590000Y-103886000D02*
X149040000Y-104336000D01*
X119126000Y-105538396D02*
X119126000Y-103124000D01*
X122941000Y-103383000D02*
X122941000Y-104083000D01*
X143764000Y-101144500D02*
X145086500Y-101144500D01*
X145086500Y-101144500D02*
X147828000Y-103886000D01*
X149040000Y-105850396D02*
X148522396Y-106368000D01*
X141664396Y-106368000D02*
X140648396Y-107384000D01*
X120971604Y-107384000D02*
X119126000Y-105538396D01*
X140648396Y-107384000D02*
X120971604Y-107384000D01*
X147828000Y-103886000D02*
X148590000Y-103886000D01*
X143458000Y-98956000D02*
X143458000Y-100838500D01*
X143458000Y-100838500D02*
X143764000Y-101144500D01*
X149040000Y-104336000D02*
X149040000Y-105850396D01*
X148522396Y-106368000D02*
X141664396Y-106368000D01*
X122174000Y-102616000D02*
X122941000Y-103383000D01*
X119634000Y-102616000D02*
X122174000Y-102616000D01*
%TO.N,Net-(J1-Pad7)*%
X147679698Y-104394000D02*
X148336000Y-104394000D01*
X121158000Y-106934000D02*
X120401000Y-106177000D01*
X148590000Y-105664000D02*
X148336000Y-105918000D01*
X148336000Y-105918000D02*
X141478000Y-105918000D01*
X142958000Y-99993500D02*
X143004000Y-100039500D01*
X140462000Y-106934000D02*
X121158000Y-106934000D01*
X143250500Y-101594500D02*
X144880198Y-101594500D01*
X144880198Y-101594500D02*
X147679698Y-104394000D01*
X141478000Y-105918000D02*
X140462000Y-106934000D01*
X143004000Y-100039500D02*
X143004000Y-101348000D01*
X120401000Y-106177000D02*
X120401000Y-104083000D01*
X148590000Y-104648000D02*
X148590000Y-105664000D01*
X142958000Y-98956000D02*
X142958000Y-99993500D01*
X148336000Y-104394000D02*
X148590000Y-104648000D01*
X143004000Y-101348000D02*
X143250500Y-101594500D01*
%TO.N,PGED*%
X136458000Y-87480000D02*
X136458000Y-86037604D01*
X135510396Y-85090000D02*
X127762000Y-85090000D01*
X127762000Y-85090000D02*
X124968000Y-82296000D01*
X136458000Y-86037604D02*
X135510396Y-85090000D01*
%TO.N,PGEC*%
X136958000Y-87480000D02*
X136958000Y-85396000D01*
X136958000Y-85267604D02*
X136272396Y-84582000D01*
X129794000Y-84582000D02*
X127508000Y-82296000D01*
X136272396Y-84582000D02*
X129794000Y-84582000D01*
%TO.N,IDLEn*%
X136652000Y-82296000D02*
X135128000Y-82296000D01*
X137958000Y-83602000D02*
X136652000Y-82296000D01*
X137958000Y-87480000D02*
X137958000Y-83602000D01*
%TO.N,AUTOSTART*%
X178986000Y-64008000D02*
X180086000Y-64008000D01*
X178828000Y-66536000D02*
X178816000Y-66548000D01*
X178308000Y-66040000D02*
X178308000Y-64770000D01*
X178308000Y-64686000D02*
X178986000Y-64008000D01*
X180086000Y-64008000D02*
X180848000Y-63246000D01*
X179208000Y-66536000D02*
X178828000Y-66536000D01*
X180848000Y-63246000D02*
X180848000Y-57912000D01*
X178816000Y-66548000D02*
X178308000Y-66040000D01*
X178308000Y-64770000D02*
X178308000Y-64686000D01*
%TO.N,LOOP_KEY*%
X148336000Y-83694396D02*
X148336000Y-80010000D01*
X148336000Y-79756000D02*
X149098000Y-78994000D01*
X143958000Y-85801285D02*
X144724643Y-85034642D01*
X98194500Y-73556500D02*
X98194500Y-69850000D01*
X146995754Y-85034642D02*
X148146198Y-83884198D01*
X143958000Y-87480000D02*
X143958000Y-85801285D01*
X148146198Y-83884198D02*
X148336000Y-83694396D01*
X144724643Y-85034642D02*
X146995754Y-85034642D01*
X98298000Y-73660000D02*
X98194500Y-73556500D01*
X148336000Y-80010000D02*
X148336000Y-79756000D01*
%TO.N,Net-(R12-Pad2)*%
X50950500Y-58420000D02*
X51041500Y-58511000D01*
X51041500Y-58511000D02*
X54103000Y-58511000D01*
%TO.N,WIFI_EN*%
X147828000Y-85090000D02*
X147828000Y-88900000D01*
X149098000Y-83820000D02*
X147828000Y-85090000D01*
X60067000Y-74148500D02*
X59944000Y-74271500D01*
X60067000Y-71345000D02*
X60067000Y-73021000D01*
X149098000Y-81026000D02*
X149098000Y-83820000D01*
X60067000Y-73021000D02*
X58805000Y-73021000D01*
X58805000Y-73021000D02*
X58674000Y-73152000D01*
X60067000Y-73021000D02*
X60067000Y-74148500D01*
X147828000Y-88900000D02*
X147260000Y-89468000D01*
X147260000Y-89468000D02*
X145946000Y-89468000D01*
%TO.N,AFSK_OUT_ENn*%
X138958000Y-87480000D02*
X138958000Y-82570000D01*
X134874000Y-75692000D02*
X134366000Y-75184000D01*
X134874000Y-78486000D02*
X134874000Y-75692000D01*
X138958000Y-82570000D02*
X134874000Y-78486000D01*
X134366000Y-75184000D02*
X133330000Y-75184000D01*
%TO.N,AUTOSTARTn*%
X142104000Y-100815507D02*
X142104000Y-102108000D01*
X174244000Y-68062695D02*
X174244000Y-68834000D01*
X174244000Y-68834000D02*
X173337000Y-69741000D01*
X175770695Y-66536000D02*
X174244000Y-68062695D01*
X173337000Y-69741000D02*
X170434000Y-69741000D01*
X167640000Y-103378000D02*
X167386000Y-103632000D01*
X144118497Y-102494500D02*
X145298497Y-103674500D01*
X167640000Y-71534000D02*
X167640000Y-103378000D01*
X141958000Y-98956000D02*
X141958000Y-100669507D01*
X170434000Y-69741000D02*
X169229000Y-70946000D01*
X142490500Y-102494500D02*
X144118497Y-102494500D01*
X141958000Y-100669507D02*
X142104000Y-100815507D01*
X142104000Y-102108000D02*
X142490500Y-102494500D01*
X168228000Y-70946000D02*
X167640000Y-71534000D01*
X177408000Y-66536000D02*
X175770695Y-66536000D01*
X169229000Y-70946000D02*
X168228000Y-70946000D01*
%TO.N,ENCODER_SWn*%
X148176505Y-93468000D02*
X148210505Y-93434000D01*
X159298000Y-99100000D02*
X159298000Y-112816000D01*
X148210505Y-93434000D02*
X153632000Y-93434000D01*
X145946000Y-93468000D02*
X148176505Y-93468000D01*
X153632000Y-93434000D02*
X159298000Y-99100000D01*
%TO.N,WIFI_IRQn*%
X145946000Y-92968000D02*
X151999713Y-92968000D01*
X46736000Y-62230000D02*
X45212000Y-63754000D01*
X151999713Y-92968000D02*
X152258213Y-92709500D01*
X54103000Y-61559000D02*
X47407000Y-61559000D01*
X47407000Y-61559000D02*
X46736000Y-62230000D01*
X45212000Y-63754000D02*
X45212000Y-76708000D01*
%TO.N,WIFI_RESETn*%
X71882000Y-66294000D02*
X71882000Y-76924500D01*
X147483435Y-89968000D02*
X145946000Y-89968000D01*
X149860000Y-89662000D02*
X149801501Y-89720499D01*
X68833000Y-65623000D02*
X71211000Y-65623000D01*
X149860000Y-85852000D02*
X149860000Y-89662000D01*
X149801501Y-89720499D02*
X147730936Y-89720499D01*
X71628000Y-66040000D02*
X71882000Y-66294000D01*
X71211000Y-65623000D02*
X71628000Y-66040000D01*
X147730936Y-89720499D02*
X147483435Y-89968000D01*
%TO.N,KOS_LED*%
X145946000Y-94968000D02*
X148059584Y-94968000D01*
X142782772Y-109068000D02*
X141766772Y-110084000D01*
X141766772Y-110084000D02*
X119853228Y-110084000D01*
X90932000Y-100998000D02*
X90932000Y-102465500D01*
X151776000Y-106932772D02*
X149640772Y-109068000D01*
X149640772Y-109068000D02*
X142782772Y-109068000D01*
X116238000Y-99982000D02*
X91948000Y-99982000D01*
X119853228Y-110084000D02*
X116426000Y-106656772D01*
X116426000Y-106656772D02*
X116426000Y-100170000D01*
X116426000Y-100170000D02*
X116238000Y-99982000D01*
X151776000Y-98684416D02*
X151776000Y-106932772D01*
X148059584Y-94968000D02*
X151776000Y-98684416D01*
X91948000Y-99982000D02*
X90932000Y-100998000D01*
%TO.N,Net-(R22-Pad2)*%
X60452000Y-114808000D02*
X60452000Y-104290500D01*
%TO.N,TX_LED*%
X128562000Y-91478000D02*
X128524000Y-91440000D01*
X134470000Y-91468000D02*
X134460000Y-91478000D01*
X128524000Y-91440000D02*
X128270000Y-91186000D01*
X134460000Y-91478000D02*
X128562000Y-91478000D01*
X101092000Y-101156500D02*
X101092000Y-102465500D01*
%TO.N,Net-(R23-Pad2)*%
X70612000Y-114808000D02*
X70612000Y-104290500D01*
%TO.N,AUTOSTART_LED*%
X70612000Y-98690000D02*
X70612000Y-102465500D01*
X124025314Y-97224000D02*
X123067314Y-98182000D01*
X134468000Y-96970000D02*
X128524000Y-96970000D01*
X134470000Y-96968000D02*
X134468000Y-96970000D01*
X128524000Y-96970000D02*
X128270000Y-97224000D01*
X128270000Y-97224000D02*
X124025314Y-97224000D01*
X71120000Y-98182000D02*
X70612000Y-98690000D01*
X123067314Y-98182000D02*
X71120000Y-98182000D01*
%TO.N,Net-(R24-Pad2)*%
X80772000Y-114808000D02*
X80772000Y-104290500D01*
%TO.N,MOTOR_LED*%
X117326000Y-99590000D02*
X117348000Y-99568000D01*
X116862000Y-99082000D02*
X82550000Y-99082000D01*
X82550000Y-99082000D02*
X80772000Y-100860000D01*
X80772000Y-100860000D02*
X80772000Y-102465500D01*
X149267980Y-108168000D02*
X142409980Y-108168000D01*
X150876000Y-99057208D02*
X150876000Y-106559980D01*
X141393980Y-109184000D02*
X120226020Y-109184000D01*
X145946000Y-95968000D02*
X147530000Y-95968000D01*
X147830792Y-96012000D02*
X150876000Y-99057208D01*
X117348000Y-99568000D02*
X116862000Y-99082000D01*
X142409980Y-108168000D02*
X141393980Y-109184000D01*
X147530000Y-95968000D02*
X147574000Y-96012000D01*
X147574000Y-96012000D02*
X147830792Y-96012000D01*
X117326000Y-106283980D02*
X117326000Y-99590000D01*
X150876000Y-106559980D02*
X149267980Y-108168000D01*
X120226020Y-109184000D02*
X117326000Y-106283980D01*
%TO.N,Net-(R25-Pad2)*%
X90932000Y-114808000D02*
X90932000Y-104290500D01*
%TO.N,MARK_HI_LED*%
X132618500Y-89154000D02*
X52578000Y-89154000D01*
X52578000Y-89154000D02*
X50292000Y-91440000D01*
X50292000Y-91440000D02*
X50292000Y-102465500D01*
X134470000Y-89968000D02*
X133432500Y-89968000D01*
X133432500Y-89968000D02*
X132618500Y-89154000D01*
%TO.N,Net-(R26-Pad2)*%
X101092000Y-114808000D02*
X101092000Y-104290500D01*
%TO.N,850_SHIFT_LED*%
X60452000Y-100076000D02*
X63246000Y-97282000D01*
X127429501Y-95758000D02*
X127762000Y-95425501D01*
X60452000Y-102465500D02*
X60452000Y-100076000D01*
X127762000Y-95425501D02*
X132831534Y-95425501D01*
X133289035Y-94968000D02*
X134470000Y-94968000D01*
X132831534Y-95425501D02*
X133289035Y-94968000D01*
X119126000Y-97282000D02*
X120650000Y-95758000D01*
X120650000Y-95758000D02*
X127429501Y-95758000D01*
X63246000Y-97282000D02*
X119126000Y-97282000D01*
%TO.N,Net-(R27-Pad2)*%
X50292000Y-114808000D02*
X50292000Y-104290500D01*
%TO.N,SHIFT_TOGGLEn*%
X120396000Y-95250000D02*
X118872000Y-96774000D01*
X127508000Y-94975501D02*
X127233501Y-95250000D01*
X132645844Y-94975501D02*
X127508000Y-94975501D01*
X133153345Y-94468000D02*
X132645844Y-94975501D01*
X118872000Y-96774000D02*
X62738000Y-96774000D01*
X127233501Y-95250000D02*
X120396000Y-95250000D01*
X59302000Y-100210000D02*
X59302000Y-114808000D01*
X62738000Y-96774000D02*
X59302000Y-100210000D01*
X134470000Y-94468000D02*
X133153345Y-94468000D01*
%TO.N,KOS_TOGGLEn*%
X145946000Y-95468000D02*
X145962000Y-95484000D01*
X116550000Y-99532000D02*
X91186000Y-99532000D01*
X116876000Y-106470376D02*
X116876000Y-99858000D01*
X151326000Y-106746376D02*
X149454376Y-108618000D01*
X91186000Y-99532000D02*
X89782000Y-100936000D01*
X149454376Y-108618000D02*
X142596376Y-108618000D01*
X120039624Y-109634000D02*
X116876000Y-106470376D01*
X145962000Y-95484000D02*
X147939188Y-95484000D01*
X116876000Y-99858000D02*
X116550000Y-99532000D01*
X142596376Y-108618000D02*
X141580376Y-109634000D01*
X147939188Y-95484000D02*
X151326000Y-98870812D01*
X141580376Y-109634000D02*
X120039624Y-109634000D01*
X151326000Y-98870812D02*
X151326000Y-106746376D01*
X89782000Y-100936000D02*
X89782000Y-114808000D01*
%TO.N,TX_TOGGLEn*%
X144693802Y-102044500D02*
X147805302Y-105156000D01*
X147828000Y-109792500D02*
X142694668Y-109792500D01*
X142554000Y-100629111D02*
X142554000Y-101854000D01*
X142554000Y-101854000D02*
X142744500Y-102044500D01*
X142744500Y-102044500D02*
X144693802Y-102044500D01*
X115062000Y-100432000D02*
X100584000Y-100432000D01*
X115976000Y-101346000D02*
X115062000Y-100432000D01*
X142458000Y-98956000D02*
X142458000Y-100533111D01*
X115976000Y-106843168D02*
X115976000Y-101346000D01*
X141953168Y-110534000D02*
X119666832Y-110534000D01*
X142694668Y-109792500D02*
X141953168Y-110534000D01*
X99942000Y-101074000D02*
X99942000Y-114808000D01*
X119666832Y-110534000D02*
X115976000Y-106843168D01*
X147805302Y-105156000D02*
X147828000Y-105156000D01*
X142458000Y-100533111D02*
X142554000Y-100629111D01*
X100584000Y-100432000D02*
X99942000Y-101074000D01*
%TO.N,AUTOSTART_TOGGLEn*%
X133560415Y-95968000D02*
X133008415Y-96520000D01*
X70358000Y-97732000D02*
X69462000Y-98628000D01*
X123838918Y-96774000D02*
X122880918Y-97732000D01*
X122880918Y-97732000D02*
X70358000Y-97732000D01*
X128016000Y-96520000D02*
X127762000Y-96774000D01*
X133008415Y-96520000D02*
X128016000Y-96520000D01*
X127762000Y-96774000D02*
X123838918Y-96774000D01*
X69462000Y-98628000D02*
X69462000Y-114808000D01*
X134470000Y-95968000D02*
X133560415Y-95968000D01*
%TO.N,MOTOR_TOGGLEn*%
X124211710Y-97674000D02*
X123253710Y-98632000D01*
X134470000Y-96468000D02*
X135584000Y-96468000D01*
X123253710Y-98632000D02*
X82042000Y-98632000D01*
X135636000Y-96520000D02*
X135636000Y-97339500D01*
X79622000Y-101052000D02*
X79622000Y-114808000D01*
X135584000Y-96468000D02*
X135636000Y-96520000D01*
X82042000Y-98632000D02*
X79622000Y-101052000D01*
X135636000Y-97339500D02*
X135301500Y-97674000D01*
X135301500Y-97674000D02*
X124211710Y-97674000D01*
%TO.N,MARK_HI_TOGGLEn*%
X133568896Y-89468000D02*
X132746896Y-88646000D01*
X134470000Y-89468000D02*
X133568896Y-89468000D01*
X49142000Y-91953604D02*
X49142000Y-114808000D01*
X132746896Y-88646000D02*
X52449604Y-88646000D01*
X52449604Y-88646000D02*
X49142000Y-91953604D01*
%TO.N,QAn*%
X147805314Y-90917501D02*
X148024815Y-90698000D01*
X148024815Y-90698000D02*
X151746724Y-90698000D01*
X160528000Y-114086000D02*
X159298000Y-115316000D01*
X160528000Y-99479276D02*
X160528000Y-114086000D01*
X145946000Y-90968000D02*
X146903690Y-90968000D01*
X146954189Y-90917501D02*
X147805314Y-90917501D01*
X146903690Y-90968000D02*
X146954189Y-90917501D01*
X151746724Y-90698000D02*
X160528000Y-99479276D01*
%TO.N,QBn*%
X147619125Y-90468000D02*
X147917125Y-90170000D01*
X147917125Y-90170000D02*
X151892000Y-90170000D01*
X162560000Y-100838000D02*
X162560000Y-113578000D01*
X162560000Y-113578000D02*
X164298000Y-115316000D01*
X145946000Y-90468000D02*
X147619125Y-90468000D01*
X151892000Y-90170000D02*
X162560000Y-100838000D01*
D49*
%TO.N,+5V*%
X165608000Y-56818000D02*
X165608000Y-58674000D01*
%TD*%
%TA.AperFunction,Conductor*%
%TO.N,GND*%
G36*
X62680121Y-63266002D02*
G01*
X62726614Y-63319658D01*
X62738000Y-63372000D01*
X62738000Y-66930000D01*
X62717998Y-66998121D01*
X62664342Y-67044614D01*
X62612000Y-67056000D01*
X59308000Y-67056000D01*
X59239879Y-67035998D01*
X59193386Y-66982342D01*
X59182000Y-66930000D01*
X59182000Y-63372000D01*
X59202002Y-63303879D01*
X59255658Y-63257386D01*
X59308000Y-63246000D01*
X62612000Y-63246000D01*
X62680121Y-63266002D01*
G37*
%TD.AperFunction*%
%TD*%
M02*
