%TF.GenerationSoftware,KiCad,Pcbnew,(6.0.9)*%
%TF.CreationDate,2023-05-29T16:16:24-07:00*%
%TF.ProjectId,DSP_TU,4453505f-5455-42e6-9b69-6361645f7063,rev?*%
%TF.SameCoordinates,Original*%
%TF.FileFunction,Legend,Top*%
%TF.FilePolarity,Positive*%
%FSLAX46Y46*%
G04 Gerber Fmt 4.6, Leading zero omitted, Abs format (unit mm)*
G04 Created by KiCad (PCBNEW (6.0.9)) date 2023-05-29 16:16:24*
%MOMM*%
%LPD*%
G01*
G04 APERTURE LIST*
%ADD10C,0.120000*%
%ADD11C,0.300000*%
%ADD12C,0.150000*%
%ADD13C,0.254000*%
%ADD14C,0.200000*%
%ADD15C,0.127000*%
%ADD16C,0.100000*%
%ADD17C,0.250000*%
%ADD18C,0.152400*%
%ADD19C,0.508000*%
G04 APERTURE END LIST*
D10*
X109728000Y-117856000D02*
X109728000Y-108204000D01*
X109982000Y-108204000D02*
X146558000Y-108183000D01*
X146558000Y-108204000D02*
X146558000Y-117856000D01*
D11*
X63722857Y-106930000D02*
X64437142Y-106930000D01*
X63580000Y-107358571D02*
X64080000Y-105858571D01*
X64580000Y-107358571D01*
X65722857Y-106358571D02*
X65722857Y-107358571D01*
X65080000Y-106358571D02*
X65080000Y-107144285D01*
X65151428Y-107287142D01*
X65294285Y-107358571D01*
X65508571Y-107358571D01*
X65651428Y-107287142D01*
X65722857Y-107215714D01*
X66222857Y-106358571D02*
X66794285Y-106358571D01*
X66437142Y-105858571D02*
X66437142Y-107144285D01*
X66508571Y-107287142D01*
X66651428Y-107358571D01*
X66794285Y-107358571D01*
X67508571Y-107358571D02*
X67365714Y-107287142D01*
X67294285Y-107215714D01*
X67222857Y-107072857D01*
X67222857Y-106644285D01*
X67294285Y-106501428D01*
X67365714Y-106430000D01*
X67508571Y-106358571D01*
X67722857Y-106358571D01*
X67865714Y-106430000D01*
X67937142Y-106501428D01*
X68008571Y-106644285D01*
X68008571Y-107072857D01*
X67937142Y-107215714D01*
X67865714Y-107287142D01*
X67722857Y-107358571D01*
X67508571Y-107358571D01*
X68580000Y-107287142D02*
X68794285Y-107358571D01*
X69151428Y-107358571D01*
X69294285Y-107287142D01*
X69365714Y-107215714D01*
X69437142Y-107072857D01*
X69437142Y-106930000D01*
X69365714Y-106787142D01*
X69294285Y-106715714D01*
X69151428Y-106644285D01*
X68865714Y-106572857D01*
X68722857Y-106501428D01*
X68651428Y-106430000D01*
X68580000Y-106287142D01*
X68580000Y-106144285D01*
X68651428Y-106001428D01*
X68722857Y-105930000D01*
X68865714Y-105858571D01*
X69222857Y-105858571D01*
X69437142Y-105930000D01*
X69865714Y-106358571D02*
X70437142Y-106358571D01*
X70080000Y-105858571D02*
X70080000Y-107144285D01*
X70151428Y-107287142D01*
X70294285Y-107358571D01*
X70437142Y-107358571D01*
X71580000Y-107358571D02*
X71580000Y-106572857D01*
X71508571Y-106430000D01*
X71365714Y-106358571D01*
X71080000Y-106358571D01*
X70937142Y-106430000D01*
X71580000Y-107287142D02*
X71437142Y-107358571D01*
X71080000Y-107358571D01*
X70937142Y-107287142D01*
X70865714Y-107144285D01*
X70865714Y-107001428D01*
X70937142Y-106858571D01*
X71080000Y-106787142D01*
X71437142Y-106787142D01*
X71580000Y-106715714D01*
X72294285Y-107358571D02*
X72294285Y-106358571D01*
X72294285Y-106644285D02*
X72365714Y-106501428D01*
X72437142Y-106430000D01*
X72580000Y-106358571D01*
X72722857Y-106358571D01*
X73008571Y-106358571D02*
X73580000Y-106358571D01*
X73222857Y-105858571D02*
X73222857Y-107144285D01*
X73294285Y-107287142D01*
X73437142Y-107358571D01*
X73580000Y-107358571D01*
X97663142Y-105858571D02*
X98520285Y-105858571D01*
X98091714Y-107358571D02*
X98091714Y-105858571D01*
X98877428Y-105858571D02*
X99877428Y-107358571D01*
X99877428Y-105858571D02*
X98877428Y-107358571D01*
X56352571Y-107287142D02*
X56566857Y-107358571D01*
X56924000Y-107358571D01*
X57066857Y-107287142D01*
X57138285Y-107215714D01*
X57209714Y-107072857D01*
X57209714Y-106930000D01*
X57138285Y-106787142D01*
X57066857Y-106715714D01*
X56924000Y-106644285D01*
X56638285Y-106572857D01*
X56495428Y-106501428D01*
X56424000Y-106430000D01*
X56352571Y-106287142D01*
X56352571Y-106144285D01*
X56424000Y-106001428D01*
X56495428Y-105930000D01*
X56638285Y-105858571D01*
X56995428Y-105858571D01*
X57209714Y-105930000D01*
X57852571Y-107358571D02*
X57852571Y-105858571D01*
X58495428Y-107358571D02*
X58495428Y-106572857D01*
X58424000Y-106430000D01*
X58281142Y-106358571D01*
X58066857Y-106358571D01*
X57924000Y-106430000D01*
X57852571Y-106501428D01*
X59209714Y-107358571D02*
X59209714Y-106358571D01*
X59209714Y-105858571D02*
X59138285Y-105930000D01*
X59209714Y-106001428D01*
X59281142Y-105930000D01*
X59209714Y-105858571D01*
X59209714Y-106001428D01*
X59709714Y-106358571D02*
X60281142Y-106358571D01*
X59924000Y-107358571D02*
X59924000Y-106072857D01*
X59995428Y-105930000D01*
X60138285Y-105858571D01*
X60281142Y-105858571D01*
X60566857Y-106358571D02*
X61138285Y-106358571D01*
X60781142Y-105858571D02*
X60781142Y-107144285D01*
X60852571Y-107287142D01*
X60995428Y-107358571D01*
X61138285Y-107358571D01*
D12*
X72406190Y-82916380D02*
X72406190Y-81916380D01*
X72644285Y-81916380D01*
X72787142Y-81964000D01*
X72882380Y-82059238D01*
X72930000Y-82154476D01*
X72977619Y-82344952D01*
X72977619Y-82487809D01*
X72930000Y-82678285D01*
X72882380Y-82773523D01*
X72787142Y-82868761D01*
X72644285Y-82916380D01*
X72406190Y-82916380D01*
X73358571Y-82868761D02*
X73501428Y-82916380D01*
X73739523Y-82916380D01*
X73834761Y-82868761D01*
X73882380Y-82821142D01*
X73930000Y-82725904D01*
X73930000Y-82630666D01*
X73882380Y-82535428D01*
X73834761Y-82487809D01*
X73739523Y-82440190D01*
X73549047Y-82392571D01*
X73453809Y-82344952D01*
X73406190Y-82297333D01*
X73358571Y-82202095D01*
X73358571Y-82106857D01*
X73406190Y-82011619D01*
X73453809Y-81964000D01*
X73549047Y-81916380D01*
X73787142Y-81916380D01*
X73930000Y-81964000D01*
X74358571Y-82916380D02*
X74358571Y-81916380D01*
X74739523Y-81916380D01*
X74834761Y-81964000D01*
X74882380Y-82011619D01*
X74930000Y-82106857D01*
X74930000Y-82249714D01*
X74882380Y-82344952D01*
X74834761Y-82392571D01*
X74739523Y-82440190D01*
X74358571Y-82440190D01*
X75977619Y-81916380D02*
X76549047Y-81916380D01*
X76263333Y-82916380D02*
X76263333Y-81916380D01*
X76882380Y-81916380D02*
X76882380Y-82725904D01*
X76930000Y-82821142D01*
X76977619Y-82868761D01*
X77072857Y-82916380D01*
X77263333Y-82916380D01*
X77358571Y-82868761D01*
X77406190Y-82821142D01*
X77453809Y-82725904D01*
X77453809Y-81916380D01*
X73620476Y-84526380D02*
X73287142Y-84050190D01*
X73049047Y-84526380D02*
X73049047Y-83526380D01*
X73430000Y-83526380D01*
X73525238Y-83574000D01*
X73572857Y-83621619D01*
X73620476Y-83716857D01*
X73620476Y-83859714D01*
X73572857Y-83954952D01*
X73525238Y-84002571D01*
X73430000Y-84050190D01*
X73049047Y-84050190D01*
X74430000Y-84478761D02*
X74334761Y-84526380D01*
X74144285Y-84526380D01*
X74049047Y-84478761D01*
X74001428Y-84383523D01*
X74001428Y-84002571D01*
X74049047Y-83907333D01*
X74144285Y-83859714D01*
X74334761Y-83859714D01*
X74430000Y-83907333D01*
X74477619Y-84002571D01*
X74477619Y-84097809D01*
X74001428Y-84193047D01*
X74810952Y-83859714D02*
X75049047Y-84526380D01*
X75287142Y-83859714D01*
X76382380Y-84240666D02*
X76858571Y-84240666D01*
X76287142Y-84526380D02*
X76620476Y-83526380D01*
X76953809Y-84526380D01*
X71620476Y-85469714D02*
X71810952Y-86136380D01*
X72001428Y-85660190D01*
X72191904Y-86136380D01*
X72382380Y-85469714D01*
X73191904Y-85136380D02*
X73001428Y-85136380D01*
X72906190Y-85184000D01*
X72858571Y-85231619D01*
X72763333Y-85374476D01*
X72715714Y-85564952D01*
X72715714Y-85945904D01*
X72763333Y-86041142D01*
X72810952Y-86088761D01*
X72906190Y-86136380D01*
X73096666Y-86136380D01*
X73191904Y-86088761D01*
X73239523Y-86041142D01*
X73287142Y-85945904D01*
X73287142Y-85707809D01*
X73239523Y-85612571D01*
X73191904Y-85564952D01*
X73096666Y-85517333D01*
X72906190Y-85517333D01*
X72810952Y-85564952D01*
X72763333Y-85612571D01*
X72715714Y-85707809D01*
X73715714Y-86136380D02*
X73715714Y-85469714D01*
X73715714Y-85136380D02*
X73668095Y-85184000D01*
X73715714Y-85231619D01*
X73763333Y-85184000D01*
X73715714Y-85136380D01*
X73715714Y-85231619D01*
X74096666Y-85469714D02*
X74287142Y-86136380D01*
X74477619Y-85660190D01*
X74668095Y-86136380D01*
X74858571Y-85469714D01*
X75239523Y-86136380D02*
X75239523Y-85469714D01*
X75239523Y-85136380D02*
X75191904Y-85184000D01*
X75239523Y-85231619D01*
X75287142Y-85184000D01*
X75239523Y-85136380D01*
X75239523Y-85231619D01*
X75715714Y-86041142D02*
X75763333Y-86088761D01*
X75715714Y-86136380D01*
X75668095Y-86088761D01*
X75715714Y-86041142D01*
X75715714Y-86136380D01*
X76334761Y-86136380D02*
X76239523Y-86088761D01*
X76191904Y-86041142D01*
X76144285Y-85945904D01*
X76144285Y-85660190D01*
X76191904Y-85564952D01*
X76239523Y-85517333D01*
X76334761Y-85469714D01*
X76477619Y-85469714D01*
X76572857Y-85517333D01*
X76620476Y-85564952D01*
X76668095Y-85660190D01*
X76668095Y-85945904D01*
X76620476Y-86041142D01*
X76572857Y-86088761D01*
X76477619Y-86136380D01*
X76334761Y-86136380D01*
X77096666Y-86136380D02*
X77096666Y-85469714D01*
X77096666Y-85660190D02*
X77144285Y-85564952D01*
X77191904Y-85517333D01*
X77287142Y-85469714D01*
X77382380Y-85469714D01*
X78144285Y-85469714D02*
X78144285Y-86279238D01*
X78096666Y-86374476D01*
X78049047Y-86422095D01*
X77953809Y-86469714D01*
X77810952Y-86469714D01*
X77715714Y-86422095D01*
X78144285Y-86088761D02*
X78049047Y-86136380D01*
X77858571Y-86136380D01*
X77763333Y-86088761D01*
X77715714Y-86041142D01*
X77668095Y-85945904D01*
X77668095Y-85660190D01*
X77715714Y-85564952D01*
X77763333Y-85517333D01*
X77858571Y-85469714D01*
X78049047Y-85469714D01*
X78144285Y-85517333D01*
D11*
X87007142Y-107358571D02*
X87007142Y-105858571D01*
X87864285Y-107358571D02*
X87221428Y-106501428D01*
X87864285Y-105858571D02*
X87007142Y-106715714D01*
X88792857Y-105858571D02*
X89078571Y-105858571D01*
X89221428Y-105930000D01*
X89364285Y-106072857D01*
X89435714Y-106358571D01*
X89435714Y-106858571D01*
X89364285Y-107144285D01*
X89221428Y-107287142D01*
X89078571Y-107358571D01*
X88792857Y-107358571D01*
X88650000Y-107287142D01*
X88507142Y-107144285D01*
X88435714Y-106858571D01*
X88435714Y-106358571D01*
X88507142Y-106072857D01*
X88650000Y-105930000D01*
X88792857Y-105858571D01*
X90007142Y-107287142D02*
X90221428Y-107358571D01*
X90578571Y-107358571D01*
X90721428Y-107287142D01*
X90792857Y-107215714D01*
X90864285Y-107072857D01*
X90864285Y-106930000D01*
X90792857Y-106787142D01*
X90721428Y-106715714D01*
X90578571Y-106644285D01*
X90292857Y-106572857D01*
X90150000Y-106501428D01*
X90078571Y-106430000D01*
X90007142Y-106287142D01*
X90007142Y-106144285D01*
X90078571Y-106001428D01*
X90150000Y-105930000D01*
X90292857Y-105858571D01*
X90650000Y-105858571D01*
X90864285Y-105930000D01*
X45121142Y-107358571D02*
X45121142Y-105858571D01*
X45621142Y-106930000D01*
X46121142Y-105858571D01*
X46121142Y-107358571D01*
X47478285Y-107358571D02*
X47478285Y-106572857D01*
X47406857Y-106430000D01*
X47264000Y-106358571D01*
X46978285Y-106358571D01*
X46835428Y-106430000D01*
X47478285Y-107287142D02*
X47335428Y-107358571D01*
X46978285Y-107358571D01*
X46835428Y-107287142D01*
X46764000Y-107144285D01*
X46764000Y-107001428D01*
X46835428Y-106858571D01*
X46978285Y-106787142D01*
X47335428Y-106787142D01*
X47478285Y-106715714D01*
X48192571Y-107358571D02*
X48192571Y-106358571D01*
X48192571Y-106644285D02*
X48264000Y-106501428D01*
X48335428Y-106430000D01*
X48478285Y-106358571D01*
X48621142Y-106358571D01*
X49121142Y-107358571D02*
X49121142Y-105858571D01*
X49264000Y-106787142D02*
X49692571Y-107358571D01*
X49692571Y-106358571D02*
X49121142Y-106930000D01*
X50335428Y-107358571D02*
X50335428Y-105858571D01*
X50335428Y-106572857D02*
X51192571Y-106572857D01*
X51192571Y-107358571D02*
X51192571Y-105858571D01*
X51906857Y-107358571D02*
X51906857Y-106358571D01*
X51906857Y-105858571D02*
X51835428Y-105930000D01*
X51906857Y-106001428D01*
X51978285Y-105930000D01*
X51906857Y-105858571D01*
X51906857Y-106001428D01*
X76244000Y-107358571D02*
X76244000Y-105858571D01*
X76744000Y-106930000D01*
X77244000Y-105858571D01*
X77244000Y-107358571D01*
X78172571Y-107358571D02*
X78029714Y-107287142D01*
X77958285Y-107215714D01*
X77886857Y-107072857D01*
X77886857Y-106644285D01*
X77958285Y-106501428D01*
X78029714Y-106430000D01*
X78172571Y-106358571D01*
X78386857Y-106358571D01*
X78529714Y-106430000D01*
X78601142Y-106501428D01*
X78672571Y-106644285D01*
X78672571Y-107072857D01*
X78601142Y-107215714D01*
X78529714Y-107287142D01*
X78386857Y-107358571D01*
X78172571Y-107358571D01*
X79101142Y-106358571D02*
X79672571Y-106358571D01*
X79315428Y-105858571D02*
X79315428Y-107144285D01*
X79386857Y-107287142D01*
X79529714Y-107358571D01*
X79672571Y-107358571D01*
X80386857Y-107358571D02*
X80244000Y-107287142D01*
X80172571Y-107215714D01*
X80101142Y-107072857D01*
X80101142Y-106644285D01*
X80172571Y-106501428D01*
X80244000Y-106430000D01*
X80386857Y-106358571D01*
X80601142Y-106358571D01*
X80744000Y-106430000D01*
X80815428Y-106501428D01*
X80886857Y-106644285D01*
X80886857Y-107072857D01*
X80815428Y-107215714D01*
X80744000Y-107287142D01*
X80601142Y-107358571D01*
X80386857Y-107358571D01*
X81529714Y-107358571D02*
X81529714Y-106358571D01*
X81529714Y-106644285D02*
X81601142Y-106501428D01*
X81672571Y-106430000D01*
X81815428Y-106358571D01*
X81958285Y-106358571D01*
D12*
%TO.C,R23*%
X72494380Y-104020857D02*
X72018190Y-104354190D01*
X72494380Y-104592285D02*
X71494380Y-104592285D01*
X71494380Y-104211333D01*
X71542000Y-104116095D01*
X71589619Y-104068476D01*
X71684857Y-104020857D01*
X71827714Y-104020857D01*
X71922952Y-104068476D01*
X71970571Y-104116095D01*
X72018190Y-104211333D01*
X72018190Y-104592285D01*
X71589619Y-103639904D02*
X71542000Y-103592285D01*
X71494380Y-103497047D01*
X71494380Y-103258952D01*
X71542000Y-103163714D01*
X71589619Y-103116095D01*
X71684857Y-103068476D01*
X71780095Y-103068476D01*
X71922952Y-103116095D01*
X72494380Y-103687523D01*
X72494380Y-103068476D01*
X71494380Y-102735142D02*
X71494380Y-102116095D01*
X71875333Y-102449428D01*
X71875333Y-102306571D01*
X71922952Y-102211333D01*
X71970571Y-102163714D01*
X72065809Y-102116095D01*
X72303904Y-102116095D01*
X72399142Y-102163714D01*
X72446761Y-102211333D01*
X72494380Y-102306571D01*
X72494380Y-102592285D01*
X72446761Y-102687523D01*
X72399142Y-102735142D01*
%TO.C,J1*%
X137842666Y-106640380D02*
X137842666Y-107354666D01*
X137795047Y-107497523D01*
X137699809Y-107592761D01*
X137556952Y-107640380D01*
X137461714Y-107640380D01*
X138842666Y-107640380D02*
X138271238Y-107640380D01*
X138556952Y-107640380D02*
X138556952Y-106640380D01*
X138461714Y-106783238D01*
X138366476Y-106878476D01*
X138271238Y-106926095D01*
%TO.C,C7*%
X133945333Y-100273142D02*
X133897714Y-100320761D01*
X133754857Y-100368380D01*
X133659619Y-100368380D01*
X133516761Y-100320761D01*
X133421523Y-100225523D01*
X133373904Y-100130285D01*
X133326285Y-99939809D01*
X133326285Y-99796952D01*
X133373904Y-99606476D01*
X133421523Y-99511238D01*
X133516761Y-99416000D01*
X133659619Y-99368380D01*
X133754857Y-99368380D01*
X133897714Y-99416000D01*
X133945333Y-99463619D01*
X134278666Y-99368380D02*
X134945333Y-99368380D01*
X134516761Y-100368380D01*
D13*
%TO.C,FB1*%
X163993285Y-60494333D02*
X163993285Y-60917666D01*
X164658523Y-60917666D02*
X163388523Y-60917666D01*
X163388523Y-60312904D01*
X163993285Y-59405761D02*
X164053761Y-59224333D01*
X164114238Y-59163857D01*
X164235190Y-59103380D01*
X164416619Y-59103380D01*
X164537571Y-59163857D01*
X164598047Y-59224333D01*
X164658523Y-59345285D01*
X164658523Y-59829095D01*
X163388523Y-59829095D01*
X163388523Y-59405761D01*
X163449000Y-59284809D01*
X163509476Y-59224333D01*
X163630428Y-59163857D01*
X163751380Y-59163857D01*
X163872333Y-59224333D01*
X163932809Y-59284809D01*
X163993285Y-59405761D01*
X163993285Y-59829095D01*
X164658523Y-57893857D02*
X164658523Y-58619571D01*
X164658523Y-58256714D02*
X163388523Y-58256714D01*
X163569952Y-58377666D01*
X163690904Y-58498619D01*
X163751380Y-58619571D01*
D12*
%TO.C,J3*%
X178482113Y-52537471D02*
X178482113Y-53252943D01*
X178434414Y-53396037D01*
X178339018Y-53491434D01*
X178195924Y-53539132D01*
X178100527Y-53539132D01*
X178863698Y-52537471D02*
X179483774Y-52537471D01*
X179149887Y-52919056D01*
X179292981Y-52919056D01*
X179388377Y-52966754D01*
X179436075Y-53014452D01*
X179483774Y-53109849D01*
X179483774Y-53348339D01*
X179436075Y-53443736D01*
X179388377Y-53491434D01*
X179292981Y-53539132D01*
X179006792Y-53539132D01*
X178911396Y-53491434D01*
X178863698Y-53443736D01*
%TO.C,R10*%
X180459142Y-61158380D02*
X180125809Y-60682190D01*
X179887714Y-61158380D02*
X179887714Y-60158380D01*
X180268666Y-60158380D01*
X180363904Y-60206000D01*
X180411523Y-60253619D01*
X180459142Y-60348857D01*
X180459142Y-60491714D01*
X180411523Y-60586952D01*
X180363904Y-60634571D01*
X180268666Y-60682190D01*
X179887714Y-60682190D01*
X181411523Y-61158380D02*
X180840095Y-61158380D01*
X181125809Y-61158380D02*
X181125809Y-60158380D01*
X181030571Y-60301238D01*
X180935333Y-60396476D01*
X180840095Y-60444095D01*
X182030571Y-60158380D02*
X182125809Y-60158380D01*
X182221047Y-60206000D01*
X182268666Y-60253619D01*
X182316285Y-60348857D01*
X182363904Y-60539333D01*
X182363904Y-60777428D01*
X182316285Y-60967904D01*
X182268666Y-61063142D01*
X182221047Y-61110761D01*
X182125809Y-61158380D01*
X182030571Y-61158380D01*
X181935333Y-61110761D01*
X181887714Y-61063142D01*
X181840095Y-60967904D01*
X181792476Y-60777428D01*
X181792476Y-60539333D01*
X181840095Y-60348857D01*
X181887714Y-60253619D01*
X181935333Y-60206000D01*
X182030571Y-60158380D01*
D13*
%TO.C,S6*%
X98399380Y-110750047D02*
X98580809Y-110810523D01*
X98883190Y-110810523D01*
X99004142Y-110750047D01*
X99064619Y-110689571D01*
X99125095Y-110568619D01*
X99125095Y-110447666D01*
X99064619Y-110326714D01*
X99004142Y-110266238D01*
X98883190Y-110205761D01*
X98641285Y-110145285D01*
X98520333Y-110084809D01*
X98459857Y-110024333D01*
X98399380Y-109903380D01*
X98399380Y-109782428D01*
X98459857Y-109661476D01*
X98520333Y-109601000D01*
X98641285Y-109540523D01*
X98943666Y-109540523D01*
X99125095Y-109601000D01*
X100213666Y-109540523D02*
X99971761Y-109540523D01*
X99850809Y-109601000D01*
X99790333Y-109661476D01*
X99669380Y-109842904D01*
X99608904Y-110084809D01*
X99608904Y-110568619D01*
X99669380Y-110689571D01*
X99729857Y-110750047D01*
X99850809Y-110810523D01*
X100092714Y-110810523D01*
X100213666Y-110750047D01*
X100274142Y-110689571D01*
X100334619Y-110568619D01*
X100334619Y-110266238D01*
X100274142Y-110145285D01*
X100213666Y-110084809D01*
X100092714Y-110024333D01*
X99850809Y-110024333D01*
X99729857Y-110084809D01*
X99669380Y-110145285D01*
X99608904Y-110266238D01*
%TO.C,U5*%
X180780380Y-64074523D02*
X180780380Y-65102619D01*
X180840857Y-65223571D01*
X180901333Y-65284047D01*
X181022285Y-65344523D01*
X181264190Y-65344523D01*
X181385142Y-65284047D01*
X181445619Y-65223571D01*
X181506095Y-65102619D01*
X181506095Y-64074523D01*
X182715619Y-64074523D02*
X182110857Y-64074523D01*
X182050380Y-64679285D01*
X182110857Y-64618809D01*
X182231809Y-64558333D01*
X182534190Y-64558333D01*
X182655142Y-64618809D01*
X182715619Y-64679285D01*
X182776095Y-64800238D01*
X182776095Y-65102619D01*
X182715619Y-65223571D01*
X182655142Y-65284047D01*
X182534190Y-65344523D01*
X182231809Y-65344523D01*
X182110857Y-65284047D01*
X182050380Y-65223571D01*
D12*
%TO.C,R14*%
X144978380Y-79382857D02*
X144502190Y-79716190D01*
X144978380Y-79954285D02*
X143978380Y-79954285D01*
X143978380Y-79573333D01*
X144026000Y-79478095D01*
X144073619Y-79430476D01*
X144168857Y-79382857D01*
X144311714Y-79382857D01*
X144406952Y-79430476D01*
X144454571Y-79478095D01*
X144502190Y-79573333D01*
X144502190Y-79954285D01*
X144978380Y-78430476D02*
X144978380Y-79001904D01*
X144978380Y-78716190D02*
X143978380Y-78716190D01*
X144121238Y-78811428D01*
X144216476Y-78906666D01*
X144264095Y-79001904D01*
X144311714Y-77573333D02*
X144978380Y-77573333D01*
X143930761Y-77811428D02*
X144645047Y-78049523D01*
X144645047Y-77430476D01*
D13*
%TO.C,S5*%
X88239380Y-110750047D02*
X88420809Y-110810523D01*
X88723190Y-110810523D01*
X88844142Y-110750047D01*
X88904619Y-110689571D01*
X88965095Y-110568619D01*
X88965095Y-110447666D01*
X88904619Y-110326714D01*
X88844142Y-110266238D01*
X88723190Y-110205761D01*
X88481285Y-110145285D01*
X88360333Y-110084809D01*
X88299857Y-110024333D01*
X88239380Y-109903380D01*
X88239380Y-109782428D01*
X88299857Y-109661476D01*
X88360333Y-109601000D01*
X88481285Y-109540523D01*
X88783666Y-109540523D01*
X88965095Y-109601000D01*
X90114142Y-109540523D02*
X89509380Y-109540523D01*
X89448904Y-110145285D01*
X89509380Y-110084809D01*
X89630333Y-110024333D01*
X89932714Y-110024333D01*
X90053666Y-110084809D01*
X90114142Y-110145285D01*
X90174619Y-110266238D01*
X90174619Y-110568619D01*
X90114142Y-110689571D01*
X90053666Y-110750047D01*
X89932714Y-110810523D01*
X89630333Y-110810523D01*
X89509380Y-110750047D01*
X89448904Y-110689571D01*
D12*
%TO.C,R17*%
X60396380Y-79382857D02*
X59920190Y-79716190D01*
X60396380Y-79954285D02*
X59396380Y-79954285D01*
X59396380Y-79573333D01*
X59444000Y-79478095D01*
X59491619Y-79430476D01*
X59586857Y-79382857D01*
X59729714Y-79382857D01*
X59824952Y-79430476D01*
X59872571Y-79478095D01*
X59920190Y-79573333D01*
X59920190Y-79954285D01*
X60396380Y-78430476D02*
X60396380Y-79001904D01*
X60396380Y-78716190D02*
X59396380Y-78716190D01*
X59539238Y-78811428D01*
X59634476Y-78906666D01*
X59682095Y-79001904D01*
X59396380Y-78097142D02*
X59396380Y-77430476D01*
X60396380Y-77859047D01*
D13*
%TO.C,J5*%
X152992666Y-49088523D02*
X152992666Y-49995666D01*
X152932190Y-50177095D01*
X152811238Y-50298047D01*
X152629809Y-50358523D01*
X152508857Y-50358523D01*
X154202190Y-49088523D02*
X153597428Y-49088523D01*
X153536952Y-49693285D01*
X153597428Y-49632809D01*
X153718380Y-49572333D01*
X154020761Y-49572333D01*
X154141714Y-49632809D01*
X154202190Y-49693285D01*
X154262666Y-49814238D01*
X154262666Y-50116619D01*
X154202190Y-50237571D01*
X154141714Y-50298047D01*
X154020761Y-50358523D01*
X153718380Y-50358523D01*
X153597428Y-50298047D01*
X153536952Y-50237571D01*
D12*
%TO.C,K1*%
X94403380Y-62704095D02*
X93403380Y-62704095D01*
X94403380Y-62132666D02*
X93831952Y-62561238D01*
X93403380Y-62132666D02*
X93974809Y-62704095D01*
X94403380Y-61180285D02*
X94403380Y-61751714D01*
X94403380Y-61466000D02*
X93403380Y-61466000D01*
X93546238Y-61561238D01*
X93641476Y-61656476D01*
X93689095Y-61751714D01*
%TO.C,C1*%
X141327142Y-78398666D02*
X141374761Y-78446285D01*
X141422380Y-78589142D01*
X141422380Y-78684380D01*
X141374761Y-78827238D01*
X141279523Y-78922476D01*
X141184285Y-78970095D01*
X140993809Y-79017714D01*
X140850952Y-79017714D01*
X140660476Y-78970095D01*
X140565238Y-78922476D01*
X140470000Y-78827238D01*
X140422380Y-78684380D01*
X140422380Y-78589142D01*
X140470000Y-78446285D01*
X140517619Y-78398666D01*
X141422380Y-77446285D02*
X141422380Y-78017714D01*
X141422380Y-77732000D02*
X140422380Y-77732000D01*
X140565238Y-77827238D01*
X140660476Y-77922476D01*
X140708095Y-78017714D01*
%TO.C,R24*%
X82654380Y-104020857D02*
X82178190Y-104354190D01*
X82654380Y-104592285D02*
X81654380Y-104592285D01*
X81654380Y-104211333D01*
X81702000Y-104116095D01*
X81749619Y-104068476D01*
X81844857Y-104020857D01*
X81987714Y-104020857D01*
X82082952Y-104068476D01*
X82130571Y-104116095D01*
X82178190Y-104211333D01*
X82178190Y-104592285D01*
X81749619Y-103639904D02*
X81702000Y-103592285D01*
X81654380Y-103497047D01*
X81654380Y-103258952D01*
X81702000Y-103163714D01*
X81749619Y-103116095D01*
X81844857Y-103068476D01*
X81940095Y-103068476D01*
X82082952Y-103116095D01*
X82654380Y-103687523D01*
X82654380Y-103068476D01*
X81987714Y-102211333D02*
X82654380Y-102211333D01*
X81606761Y-102449428D02*
X82321047Y-102687523D01*
X82321047Y-102068476D01*
%TO.C,K2*%
X105818380Y-62968095D02*
X104818380Y-62968095D01*
X105818380Y-62396666D02*
X105246952Y-62825238D01*
X104818380Y-62396666D02*
X105389809Y-62968095D01*
X104913619Y-62015714D02*
X104866000Y-61968095D01*
X104818380Y-61872857D01*
X104818380Y-61634761D01*
X104866000Y-61539523D01*
X104913619Y-61491904D01*
X105008857Y-61444285D01*
X105104095Y-61444285D01*
X105246952Y-61491904D01*
X105818380Y-62063333D01*
X105818380Y-61444285D01*
%TO.C,R9*%
X108291333Y-71986380D02*
X107958000Y-71510190D01*
X107719904Y-71986380D02*
X107719904Y-70986380D01*
X108100857Y-70986380D01*
X108196095Y-71034000D01*
X108243714Y-71081619D01*
X108291333Y-71176857D01*
X108291333Y-71319714D01*
X108243714Y-71414952D01*
X108196095Y-71462571D01*
X108100857Y-71510190D01*
X107719904Y-71510190D01*
X108767523Y-71986380D02*
X108958000Y-71986380D01*
X109053238Y-71938761D01*
X109100857Y-71891142D01*
X109196095Y-71748285D01*
X109243714Y-71557809D01*
X109243714Y-71176857D01*
X109196095Y-71081619D01*
X109148476Y-71034000D01*
X109053238Y-70986380D01*
X108862761Y-70986380D01*
X108767523Y-71034000D01*
X108719904Y-71081619D01*
X108672285Y-71176857D01*
X108672285Y-71414952D01*
X108719904Y-71510190D01*
X108767523Y-71557809D01*
X108862761Y-71605428D01*
X109053238Y-71605428D01*
X109148476Y-71557809D01*
X109196095Y-71510190D01*
X109243714Y-71414952D01*
%TO.C,C11*%
X122801142Y-76557142D02*
X122753523Y-76604761D01*
X122610666Y-76652380D01*
X122515428Y-76652380D01*
X122372571Y-76604761D01*
X122277333Y-76509523D01*
X122229714Y-76414285D01*
X122182095Y-76223809D01*
X122182095Y-76080952D01*
X122229714Y-75890476D01*
X122277333Y-75795238D01*
X122372571Y-75700000D01*
X122515428Y-75652380D01*
X122610666Y-75652380D01*
X122753523Y-75700000D01*
X122801142Y-75747619D01*
X123753523Y-76652380D02*
X123182095Y-76652380D01*
X123467809Y-76652380D02*
X123467809Y-75652380D01*
X123372571Y-75795238D01*
X123277333Y-75890476D01*
X123182095Y-75938095D01*
X124705904Y-76652380D02*
X124134476Y-76652380D01*
X124420190Y-76652380D02*
X124420190Y-75652380D01*
X124324952Y-75795238D01*
X124229714Y-75890476D01*
X124134476Y-75938095D01*
%TO.C,R6*%
X168743333Y-58364380D02*
X168410000Y-57888190D01*
X168171904Y-58364380D02*
X168171904Y-57364380D01*
X168552857Y-57364380D01*
X168648095Y-57412000D01*
X168695714Y-57459619D01*
X168743333Y-57554857D01*
X168743333Y-57697714D01*
X168695714Y-57792952D01*
X168648095Y-57840571D01*
X168552857Y-57888190D01*
X168171904Y-57888190D01*
X169600476Y-57364380D02*
X169410000Y-57364380D01*
X169314761Y-57412000D01*
X169267142Y-57459619D01*
X169171904Y-57602476D01*
X169124285Y-57792952D01*
X169124285Y-58173904D01*
X169171904Y-58269142D01*
X169219523Y-58316761D01*
X169314761Y-58364380D01*
X169505238Y-58364380D01*
X169600476Y-58316761D01*
X169648095Y-58269142D01*
X169695714Y-58173904D01*
X169695714Y-57935809D01*
X169648095Y-57840571D01*
X169600476Y-57792952D01*
X169505238Y-57745333D01*
X169314761Y-57745333D01*
X169219523Y-57792952D01*
X169171904Y-57840571D01*
X169124285Y-57935809D01*
D13*
%TO.C,U7*%
X72184380Y-57724523D02*
X72184380Y-58752619D01*
X72244857Y-58873571D01*
X72305333Y-58934047D01*
X72426285Y-58994523D01*
X72668190Y-58994523D01*
X72789142Y-58934047D01*
X72849619Y-58873571D01*
X72910095Y-58752619D01*
X72910095Y-57724523D01*
X73393904Y-57724523D02*
X74240571Y-57724523D01*
X73696285Y-58994523D01*
D12*
%TO.C,C2*%
X129881333Y-95607142D02*
X129833714Y-95654761D01*
X129690857Y-95702380D01*
X129595619Y-95702380D01*
X129452761Y-95654761D01*
X129357523Y-95559523D01*
X129309904Y-95464285D01*
X129262285Y-95273809D01*
X129262285Y-95130952D01*
X129309904Y-94940476D01*
X129357523Y-94845238D01*
X129452761Y-94750000D01*
X129595619Y-94702380D01*
X129690857Y-94702380D01*
X129833714Y-94750000D01*
X129881333Y-94797619D01*
X130262285Y-94797619D02*
X130309904Y-94750000D01*
X130405142Y-94702380D01*
X130643238Y-94702380D01*
X130738476Y-94750000D01*
X130786095Y-94797619D01*
X130833714Y-94892857D01*
X130833714Y-94988095D01*
X130786095Y-95130952D01*
X130214666Y-95702380D01*
X130833714Y-95702380D01*
D13*
%TO.C,U2*%
X131112380Y-71948523D02*
X131112380Y-72976619D01*
X131172857Y-73097571D01*
X131233333Y-73158047D01*
X131354285Y-73218523D01*
X131596190Y-73218523D01*
X131717142Y-73158047D01*
X131777619Y-73097571D01*
X131838095Y-72976619D01*
X131838095Y-71948523D01*
X132382380Y-72069476D02*
X132442857Y-72009000D01*
X132563809Y-71948523D01*
X132866190Y-71948523D01*
X132987142Y-72009000D01*
X133047619Y-72069476D01*
X133108095Y-72190428D01*
X133108095Y-72311380D01*
X133047619Y-72492809D01*
X132321904Y-73218523D01*
X133108095Y-73218523D01*
D12*
%TO.C,C22*%
X57921142Y-75826857D02*
X57968761Y-75874476D01*
X58016380Y-76017333D01*
X58016380Y-76112571D01*
X57968761Y-76255428D01*
X57873523Y-76350666D01*
X57778285Y-76398285D01*
X57587809Y-76445904D01*
X57444952Y-76445904D01*
X57254476Y-76398285D01*
X57159238Y-76350666D01*
X57064000Y-76255428D01*
X57016380Y-76112571D01*
X57016380Y-76017333D01*
X57064000Y-75874476D01*
X57111619Y-75826857D01*
X57111619Y-75445904D02*
X57064000Y-75398285D01*
X57016380Y-75303047D01*
X57016380Y-75064952D01*
X57064000Y-74969714D01*
X57111619Y-74922095D01*
X57206857Y-74874476D01*
X57302095Y-74874476D01*
X57444952Y-74922095D01*
X58016380Y-75493523D01*
X58016380Y-74874476D01*
X57111619Y-74493523D02*
X57064000Y-74445904D01*
X57016380Y-74350666D01*
X57016380Y-74112571D01*
X57064000Y-74017333D01*
X57111619Y-73969714D01*
X57206857Y-73922095D01*
X57302095Y-73922095D01*
X57444952Y-73969714D01*
X58016380Y-74541142D01*
X58016380Y-73922095D01*
%TO.C,R27*%
X50744380Y-100718857D02*
X50268190Y-101052190D01*
X50744380Y-101290285D02*
X49744380Y-101290285D01*
X49744380Y-100909333D01*
X49792000Y-100814095D01*
X49839619Y-100766476D01*
X49934857Y-100718857D01*
X50077714Y-100718857D01*
X50172952Y-100766476D01*
X50220571Y-100814095D01*
X50268190Y-100909333D01*
X50268190Y-101290285D01*
X49839619Y-100337904D02*
X49792000Y-100290285D01*
X49744380Y-100195047D01*
X49744380Y-99956952D01*
X49792000Y-99861714D01*
X49839619Y-99814095D01*
X49934857Y-99766476D01*
X50030095Y-99766476D01*
X50172952Y-99814095D01*
X50744380Y-100385523D01*
X50744380Y-99766476D01*
X49744380Y-99433142D02*
X49744380Y-98766476D01*
X50744380Y-99195047D01*
%TO.C,R4*%
X131913333Y-78684380D02*
X131580000Y-78208190D01*
X131341904Y-78684380D02*
X131341904Y-77684380D01*
X131722857Y-77684380D01*
X131818095Y-77732000D01*
X131865714Y-77779619D01*
X131913333Y-77874857D01*
X131913333Y-78017714D01*
X131865714Y-78112952D01*
X131818095Y-78160571D01*
X131722857Y-78208190D01*
X131341904Y-78208190D01*
X132770476Y-78017714D02*
X132770476Y-78684380D01*
X132532380Y-77636761D02*
X132294285Y-78351047D01*
X132913333Y-78351047D01*
D13*
%TO.C,T2*%
X120190380Y-71948523D02*
X120916095Y-71948523D01*
X120553238Y-73218523D02*
X120553238Y-71948523D01*
X121278952Y-72069476D02*
X121339428Y-72009000D01*
X121460380Y-71948523D01*
X121762761Y-71948523D01*
X121883714Y-72009000D01*
X121944190Y-72069476D01*
X122004666Y-72190428D01*
X122004666Y-72311380D01*
X121944190Y-72492809D01*
X121218476Y-73218523D01*
X122004666Y-73218523D01*
D12*
%TO.C,C12*%
X139311142Y-74525142D02*
X139263523Y-74572761D01*
X139120666Y-74620380D01*
X139025428Y-74620380D01*
X138882571Y-74572761D01*
X138787333Y-74477523D01*
X138739714Y-74382285D01*
X138692095Y-74191809D01*
X138692095Y-74048952D01*
X138739714Y-73858476D01*
X138787333Y-73763238D01*
X138882571Y-73668000D01*
X139025428Y-73620380D01*
X139120666Y-73620380D01*
X139263523Y-73668000D01*
X139311142Y-73715619D01*
X140263523Y-74620380D02*
X139692095Y-74620380D01*
X139977809Y-74620380D02*
X139977809Y-73620380D01*
X139882571Y-73763238D01*
X139787333Y-73858476D01*
X139692095Y-73906095D01*
X140644476Y-73715619D02*
X140692095Y-73668000D01*
X140787333Y-73620380D01*
X141025428Y-73620380D01*
X141120666Y-73668000D01*
X141168285Y-73715619D01*
X141215904Y-73810857D01*
X141215904Y-73906095D01*
X141168285Y-74048952D01*
X140596857Y-74620380D01*
X141215904Y-74620380D01*
D13*
%TO.C,S1*%
X47038380Y-110750047D02*
X47219809Y-110810523D01*
X47522190Y-110810523D01*
X47643142Y-110750047D01*
X47703619Y-110689571D01*
X47764095Y-110568619D01*
X47764095Y-110447666D01*
X47703619Y-110326714D01*
X47643142Y-110266238D01*
X47522190Y-110205761D01*
X47280285Y-110145285D01*
X47159333Y-110084809D01*
X47098857Y-110024333D01*
X47038380Y-109903380D01*
X47038380Y-109782428D01*
X47098857Y-109661476D01*
X47159333Y-109601000D01*
X47280285Y-109540523D01*
X47582666Y-109540523D01*
X47764095Y-109601000D01*
X48973619Y-110810523D02*
X48247904Y-110810523D01*
X48610761Y-110810523D02*
X48610761Y-109540523D01*
X48489809Y-109721952D01*
X48368857Y-109842904D01*
X48247904Y-109903380D01*
D12*
%TO.C,C23*%
X117197142Y-94368857D02*
X117244761Y-94416476D01*
X117292380Y-94559333D01*
X117292380Y-94654571D01*
X117244761Y-94797428D01*
X117149523Y-94892666D01*
X117054285Y-94940285D01*
X116863809Y-94987904D01*
X116720952Y-94987904D01*
X116530476Y-94940285D01*
X116435238Y-94892666D01*
X116340000Y-94797428D01*
X116292380Y-94654571D01*
X116292380Y-94559333D01*
X116340000Y-94416476D01*
X116387619Y-94368857D01*
X116387619Y-93987904D02*
X116340000Y-93940285D01*
X116292380Y-93845047D01*
X116292380Y-93606952D01*
X116340000Y-93511714D01*
X116387619Y-93464095D01*
X116482857Y-93416476D01*
X116578095Y-93416476D01*
X116720952Y-93464095D01*
X117292380Y-94035523D01*
X117292380Y-93416476D01*
X116292380Y-93083142D02*
X116292380Y-92464095D01*
X116673333Y-92797428D01*
X116673333Y-92654571D01*
X116720952Y-92559333D01*
X116768571Y-92511714D01*
X116863809Y-92464095D01*
X117101904Y-92464095D01*
X117197142Y-92511714D01*
X117244761Y-92559333D01*
X117292380Y-92654571D01*
X117292380Y-92940285D01*
X117244761Y-93035523D01*
X117197142Y-93083142D01*
%TO.C,C13*%
X181221142Y-62841142D02*
X181173523Y-62888761D01*
X181030666Y-62936380D01*
X180935428Y-62936380D01*
X180792571Y-62888761D01*
X180697333Y-62793523D01*
X180649714Y-62698285D01*
X180602095Y-62507809D01*
X180602095Y-62364952D01*
X180649714Y-62174476D01*
X180697333Y-62079238D01*
X180792571Y-61984000D01*
X180935428Y-61936380D01*
X181030666Y-61936380D01*
X181173523Y-61984000D01*
X181221142Y-62031619D01*
X182173523Y-62936380D02*
X181602095Y-62936380D01*
X181887809Y-62936380D02*
X181887809Y-61936380D01*
X181792571Y-62079238D01*
X181697333Y-62174476D01*
X181602095Y-62222095D01*
X182506857Y-61936380D02*
X183125904Y-61936380D01*
X182792571Y-62317333D01*
X182935428Y-62317333D01*
X183030666Y-62364952D01*
X183078285Y-62412571D01*
X183125904Y-62507809D01*
X183125904Y-62745904D01*
X183078285Y-62841142D01*
X183030666Y-62888761D01*
X182935428Y-62936380D01*
X182649714Y-62936380D01*
X182554476Y-62888761D01*
X182506857Y-62841142D01*
%TO.C,C4*%
X154672833Y-94591142D02*
X154625214Y-94638761D01*
X154482357Y-94686380D01*
X154387119Y-94686380D01*
X154244261Y-94638761D01*
X154149023Y-94543523D01*
X154101404Y-94448285D01*
X154053785Y-94257809D01*
X154053785Y-94114952D01*
X154101404Y-93924476D01*
X154149023Y-93829238D01*
X154244261Y-93734000D01*
X154387119Y-93686380D01*
X154482357Y-93686380D01*
X154625214Y-93734000D01*
X154672833Y-93781619D01*
X155529976Y-94019714D02*
X155529976Y-94686380D01*
X155291880Y-93638761D02*
X155053785Y-94353047D01*
X155672833Y-94353047D01*
%TO.C,R15*%
X143200380Y-79382857D02*
X142724190Y-79716190D01*
X143200380Y-79954285D02*
X142200380Y-79954285D01*
X142200380Y-79573333D01*
X142248000Y-79478095D01*
X142295619Y-79430476D01*
X142390857Y-79382857D01*
X142533714Y-79382857D01*
X142628952Y-79430476D01*
X142676571Y-79478095D01*
X142724190Y-79573333D01*
X142724190Y-79954285D01*
X143200380Y-78430476D02*
X143200380Y-79001904D01*
X143200380Y-78716190D02*
X142200380Y-78716190D01*
X142343238Y-78811428D01*
X142438476Y-78906666D01*
X142486095Y-79001904D01*
X142200380Y-77525714D02*
X142200380Y-78001904D01*
X142676571Y-78049523D01*
X142628952Y-78001904D01*
X142581333Y-77906666D01*
X142581333Y-77668571D01*
X142628952Y-77573333D01*
X142676571Y-77525714D01*
X142771809Y-77478095D01*
X143009904Y-77478095D01*
X143105142Y-77525714D01*
X143152761Y-77573333D01*
X143200380Y-77668571D01*
X143200380Y-77906666D01*
X143152761Y-78001904D01*
X143105142Y-78049523D01*
%TO.C,C10*%
X123563142Y-73001142D02*
X123515523Y-73048761D01*
X123372666Y-73096380D01*
X123277428Y-73096380D01*
X123134571Y-73048761D01*
X123039333Y-72953523D01*
X122991714Y-72858285D01*
X122944095Y-72667809D01*
X122944095Y-72524952D01*
X122991714Y-72334476D01*
X123039333Y-72239238D01*
X123134571Y-72144000D01*
X123277428Y-72096380D01*
X123372666Y-72096380D01*
X123515523Y-72144000D01*
X123563142Y-72191619D01*
X124515523Y-73096380D02*
X123944095Y-73096380D01*
X124229809Y-73096380D02*
X124229809Y-72096380D01*
X124134571Y-72239238D01*
X124039333Y-72334476D01*
X123944095Y-72382095D01*
X125134571Y-72096380D02*
X125229809Y-72096380D01*
X125325047Y-72144000D01*
X125372666Y-72191619D01*
X125420285Y-72286857D01*
X125467904Y-72477333D01*
X125467904Y-72715428D01*
X125420285Y-72905904D01*
X125372666Y-73001142D01*
X125325047Y-73048761D01*
X125229809Y-73096380D01*
X125134571Y-73096380D01*
X125039333Y-73048761D01*
X124991714Y-73001142D01*
X124944095Y-72905904D01*
X124896476Y-72715428D01*
X124896476Y-72477333D01*
X124944095Y-72286857D01*
X124991714Y-72191619D01*
X125039333Y-72144000D01*
X125134571Y-72096380D01*
%TO.C,U8*%
X122682095Y-88254380D02*
X122682095Y-89063904D01*
X122729714Y-89159142D01*
X122777333Y-89206761D01*
X122872571Y-89254380D01*
X123063047Y-89254380D01*
X123158285Y-89206761D01*
X123205904Y-89159142D01*
X123253523Y-89063904D01*
X123253523Y-88254380D01*
X123872571Y-88682952D02*
X123777333Y-88635333D01*
X123729714Y-88587714D01*
X123682095Y-88492476D01*
X123682095Y-88444857D01*
X123729714Y-88349619D01*
X123777333Y-88302000D01*
X123872571Y-88254380D01*
X124063047Y-88254380D01*
X124158285Y-88302000D01*
X124205904Y-88349619D01*
X124253523Y-88444857D01*
X124253523Y-88492476D01*
X124205904Y-88587714D01*
X124158285Y-88635333D01*
X124063047Y-88682952D01*
X123872571Y-88682952D01*
X123777333Y-88730571D01*
X123729714Y-88778190D01*
X123682095Y-88873428D01*
X123682095Y-89063904D01*
X123729714Y-89159142D01*
X123777333Y-89206761D01*
X123872571Y-89254380D01*
X124063047Y-89254380D01*
X124158285Y-89206761D01*
X124205904Y-89159142D01*
X124253523Y-89063904D01*
X124253523Y-88873428D01*
X124205904Y-88778190D01*
X124158285Y-88730571D01*
X124063047Y-88682952D01*
%TO.C,C17*%
X169537142Y-70969142D02*
X169489523Y-71016761D01*
X169346666Y-71064380D01*
X169251428Y-71064380D01*
X169108571Y-71016761D01*
X169013333Y-70921523D01*
X168965714Y-70826285D01*
X168918095Y-70635809D01*
X168918095Y-70492952D01*
X168965714Y-70302476D01*
X169013333Y-70207238D01*
X169108571Y-70112000D01*
X169251428Y-70064380D01*
X169346666Y-70064380D01*
X169489523Y-70112000D01*
X169537142Y-70159619D01*
X170489523Y-71064380D02*
X169918095Y-71064380D01*
X170203809Y-71064380D02*
X170203809Y-70064380D01*
X170108571Y-70207238D01*
X170013333Y-70302476D01*
X169918095Y-70350095D01*
X170822857Y-70064380D02*
X171489523Y-70064380D01*
X171060952Y-71064380D01*
D13*
%TO.C,S4*%
X78079380Y-110750047D02*
X78260809Y-110810523D01*
X78563190Y-110810523D01*
X78684142Y-110750047D01*
X78744619Y-110689571D01*
X78805095Y-110568619D01*
X78805095Y-110447666D01*
X78744619Y-110326714D01*
X78684142Y-110266238D01*
X78563190Y-110205761D01*
X78321285Y-110145285D01*
X78200333Y-110084809D01*
X78139857Y-110024333D01*
X78079380Y-109903380D01*
X78079380Y-109782428D01*
X78139857Y-109661476D01*
X78200333Y-109601000D01*
X78321285Y-109540523D01*
X78623666Y-109540523D01*
X78805095Y-109601000D01*
X79893666Y-109963857D02*
X79893666Y-110810523D01*
X79591285Y-109480047D02*
X79288904Y-110387190D01*
X80075095Y-110387190D01*
%TO.C,U1*%
X147368380Y-86680523D02*
X147368380Y-87708619D01*
X147428857Y-87829571D01*
X147489333Y-87890047D01*
X147610285Y-87950523D01*
X147852190Y-87950523D01*
X147973142Y-87890047D01*
X148033619Y-87829571D01*
X148094095Y-87708619D01*
X148094095Y-86680523D01*
X149364095Y-87950523D02*
X148638380Y-87950523D01*
X149001238Y-87950523D02*
X149001238Y-86680523D01*
X148880285Y-86861952D01*
X148759333Y-86982904D01*
X148638380Y-87043380D01*
D12*
%TO.C,C19*%
X177665142Y-75955142D02*
X177617523Y-76002761D01*
X177474666Y-76050380D01*
X177379428Y-76050380D01*
X177236571Y-76002761D01*
X177141333Y-75907523D01*
X177093714Y-75812285D01*
X177046095Y-75621809D01*
X177046095Y-75478952D01*
X177093714Y-75288476D01*
X177141333Y-75193238D01*
X177236571Y-75098000D01*
X177379428Y-75050380D01*
X177474666Y-75050380D01*
X177617523Y-75098000D01*
X177665142Y-75145619D01*
X178617523Y-76050380D02*
X178046095Y-76050380D01*
X178331809Y-76050380D02*
X178331809Y-75050380D01*
X178236571Y-75193238D01*
X178141333Y-75288476D01*
X178046095Y-75336095D01*
X179093714Y-76050380D02*
X179284190Y-76050380D01*
X179379428Y-76002761D01*
X179427047Y-75955142D01*
X179522285Y-75812285D01*
X179569904Y-75621809D01*
X179569904Y-75240857D01*
X179522285Y-75145619D01*
X179474666Y-75098000D01*
X179379428Y-75050380D01*
X179188952Y-75050380D01*
X179093714Y-75098000D01*
X179046095Y-75145619D01*
X178998476Y-75240857D01*
X178998476Y-75478952D01*
X179046095Y-75574190D01*
X179093714Y-75621809D01*
X179188952Y-75669428D01*
X179379428Y-75669428D01*
X179474666Y-75621809D01*
X179522285Y-75574190D01*
X179569904Y-75478952D01*
%TO.C,C5*%
X153249333Y-92305142D02*
X153201714Y-92352761D01*
X153058857Y-92400380D01*
X152963619Y-92400380D01*
X152820761Y-92352761D01*
X152725523Y-92257523D01*
X152677904Y-92162285D01*
X152630285Y-91971809D01*
X152630285Y-91828952D01*
X152677904Y-91638476D01*
X152725523Y-91543238D01*
X152820761Y-91448000D01*
X152963619Y-91400380D01*
X153058857Y-91400380D01*
X153201714Y-91448000D01*
X153249333Y-91495619D01*
X154154095Y-91400380D02*
X153677904Y-91400380D01*
X153630285Y-91876571D01*
X153677904Y-91828952D01*
X153773142Y-91781333D01*
X154011238Y-91781333D01*
X154106476Y-91828952D01*
X154154095Y-91876571D01*
X154201714Y-91971809D01*
X154201714Y-92209904D01*
X154154095Y-92305142D01*
X154106476Y-92352761D01*
X154011238Y-92400380D01*
X153773142Y-92400380D01*
X153677904Y-92352761D01*
X153630285Y-92305142D01*
D13*
%TO.C,S3*%
X67919380Y-110750047D02*
X68100809Y-110810523D01*
X68403190Y-110810523D01*
X68524142Y-110750047D01*
X68584619Y-110689571D01*
X68645095Y-110568619D01*
X68645095Y-110447666D01*
X68584619Y-110326714D01*
X68524142Y-110266238D01*
X68403190Y-110205761D01*
X68161285Y-110145285D01*
X68040333Y-110084809D01*
X67979857Y-110024333D01*
X67919380Y-109903380D01*
X67919380Y-109782428D01*
X67979857Y-109661476D01*
X68040333Y-109601000D01*
X68161285Y-109540523D01*
X68463666Y-109540523D01*
X68645095Y-109601000D01*
X69068428Y-109540523D02*
X69854619Y-109540523D01*
X69431285Y-110024333D01*
X69612714Y-110024333D01*
X69733666Y-110084809D01*
X69794142Y-110145285D01*
X69854619Y-110266238D01*
X69854619Y-110568619D01*
X69794142Y-110689571D01*
X69733666Y-110750047D01*
X69612714Y-110810523D01*
X69249857Y-110810523D01*
X69128904Y-110750047D01*
X69068428Y-110689571D01*
D12*
%TO.C,R7*%
X178395333Y-58110380D02*
X178062000Y-57634190D01*
X177823904Y-58110380D02*
X177823904Y-57110380D01*
X178204857Y-57110380D01*
X178300095Y-57158000D01*
X178347714Y-57205619D01*
X178395333Y-57300857D01*
X178395333Y-57443714D01*
X178347714Y-57538952D01*
X178300095Y-57586571D01*
X178204857Y-57634190D01*
X177823904Y-57634190D01*
X178728666Y-57110380D02*
X179395333Y-57110380D01*
X178966761Y-58110380D01*
%TO.C,CR1*%
X93313333Y-53189142D02*
X93265714Y-53236761D01*
X93122857Y-53284380D01*
X93027619Y-53284380D01*
X92884761Y-53236761D01*
X92789523Y-53141523D01*
X92741904Y-53046285D01*
X92694285Y-52855809D01*
X92694285Y-52712952D01*
X92741904Y-52522476D01*
X92789523Y-52427238D01*
X92884761Y-52332000D01*
X93027619Y-52284380D01*
X93122857Y-52284380D01*
X93265714Y-52332000D01*
X93313333Y-52379619D01*
X94313333Y-53284380D02*
X93980000Y-52808190D01*
X93741904Y-53284380D02*
X93741904Y-52284380D01*
X94122857Y-52284380D01*
X94218095Y-52332000D01*
X94265714Y-52379619D01*
X94313333Y-52474857D01*
X94313333Y-52617714D01*
X94265714Y-52712952D01*
X94218095Y-52760571D01*
X94122857Y-52808190D01*
X93741904Y-52808190D01*
X95265714Y-53284380D02*
X94694285Y-53284380D01*
X94980000Y-53284380D02*
X94980000Y-52284380D01*
X94884761Y-52427238D01*
X94789523Y-52522476D01*
X94694285Y-52570095D01*
X107950000Y-53300380D02*
X107950000Y-53538476D01*
X107711904Y-53443238D02*
X107950000Y-53538476D01*
X108188095Y-53443238D01*
X107807142Y-53728952D02*
X107950000Y-53538476D01*
X108092857Y-53728952D01*
%TO.C,R8*%
X97115333Y-71826380D02*
X96782000Y-71350190D01*
X96543904Y-71826380D02*
X96543904Y-70826380D01*
X96924857Y-70826380D01*
X97020095Y-70874000D01*
X97067714Y-70921619D01*
X97115333Y-71016857D01*
X97115333Y-71159714D01*
X97067714Y-71254952D01*
X97020095Y-71302571D01*
X96924857Y-71350190D01*
X96543904Y-71350190D01*
X97686761Y-71254952D02*
X97591523Y-71207333D01*
X97543904Y-71159714D01*
X97496285Y-71064476D01*
X97496285Y-71016857D01*
X97543904Y-70921619D01*
X97591523Y-70874000D01*
X97686761Y-70826380D01*
X97877238Y-70826380D01*
X97972476Y-70874000D01*
X98020095Y-70921619D01*
X98067714Y-71016857D01*
X98067714Y-71064476D01*
X98020095Y-71159714D01*
X97972476Y-71207333D01*
X97877238Y-71254952D01*
X97686761Y-71254952D01*
X97591523Y-71302571D01*
X97543904Y-71350190D01*
X97496285Y-71445428D01*
X97496285Y-71635904D01*
X97543904Y-71731142D01*
X97591523Y-71778761D01*
X97686761Y-71826380D01*
X97877238Y-71826380D01*
X97972476Y-71778761D01*
X98020095Y-71731142D01*
X98067714Y-71635904D01*
X98067714Y-71445428D01*
X98020095Y-71350190D01*
X97972476Y-71302571D01*
X97877238Y-71254952D01*
D13*
%TO.C,T1*%
X156766380Y-72456523D02*
X157492095Y-72456523D01*
X157129238Y-73726523D02*
X157129238Y-72456523D01*
X158580666Y-73726523D02*
X157854952Y-73726523D01*
X158217809Y-73726523D02*
X158217809Y-72456523D01*
X158096857Y-72637952D01*
X157975904Y-72758904D01*
X157854952Y-72819380D01*
D12*
%TO.C,R13*%
X146756380Y-79636857D02*
X146280190Y-79970190D01*
X146756380Y-80208285D02*
X145756380Y-80208285D01*
X145756380Y-79827333D01*
X145804000Y-79732095D01*
X145851619Y-79684476D01*
X145946857Y-79636857D01*
X146089714Y-79636857D01*
X146184952Y-79684476D01*
X146232571Y-79732095D01*
X146280190Y-79827333D01*
X146280190Y-80208285D01*
X146756380Y-78684476D02*
X146756380Y-79255904D01*
X146756380Y-78970190D02*
X145756380Y-78970190D01*
X145899238Y-79065428D01*
X145994476Y-79160666D01*
X146042095Y-79255904D01*
X145756380Y-78351142D02*
X145756380Y-77732095D01*
X146137333Y-78065428D01*
X146137333Y-77922571D01*
X146184952Y-77827333D01*
X146232571Y-77779714D01*
X146327809Y-77732095D01*
X146565904Y-77732095D01*
X146661142Y-77779714D01*
X146708761Y-77827333D01*
X146756380Y-77922571D01*
X146756380Y-78208285D01*
X146708761Y-78303523D01*
X146661142Y-78351142D01*
%TO.C,R16*%
X49141142Y-67668380D02*
X48807809Y-67192190D01*
X48569714Y-67668380D02*
X48569714Y-66668380D01*
X48950666Y-66668380D01*
X49045904Y-66716000D01*
X49093523Y-66763619D01*
X49141142Y-66858857D01*
X49141142Y-67001714D01*
X49093523Y-67096952D01*
X49045904Y-67144571D01*
X48950666Y-67192190D01*
X48569714Y-67192190D01*
X50093523Y-67668380D02*
X49522095Y-67668380D01*
X49807809Y-67668380D02*
X49807809Y-66668380D01*
X49712571Y-66811238D01*
X49617333Y-66906476D01*
X49522095Y-66954095D01*
X50950666Y-66668380D02*
X50760190Y-66668380D01*
X50664952Y-66716000D01*
X50617333Y-66763619D01*
X50522095Y-66906476D01*
X50474476Y-67096952D01*
X50474476Y-67477904D01*
X50522095Y-67573142D01*
X50569714Y-67620761D01*
X50664952Y-67668380D01*
X50855428Y-67668380D01*
X50950666Y-67620761D01*
X50998285Y-67573142D01*
X51045904Y-67477904D01*
X51045904Y-67239809D01*
X50998285Y-67144571D01*
X50950666Y-67096952D01*
X50855428Y-67049333D01*
X50664952Y-67049333D01*
X50569714Y-67096952D01*
X50522095Y-67144571D01*
X50474476Y-67239809D01*
%TO.C,C14*%
X178173142Y-56237142D02*
X178125523Y-56284761D01*
X177982666Y-56332380D01*
X177887428Y-56332380D01*
X177744571Y-56284761D01*
X177649333Y-56189523D01*
X177601714Y-56094285D01*
X177554095Y-55903809D01*
X177554095Y-55760952D01*
X177601714Y-55570476D01*
X177649333Y-55475238D01*
X177744571Y-55380000D01*
X177887428Y-55332380D01*
X177982666Y-55332380D01*
X178125523Y-55380000D01*
X178173142Y-55427619D01*
X179125523Y-56332380D02*
X178554095Y-56332380D01*
X178839809Y-56332380D02*
X178839809Y-55332380D01*
X178744571Y-55475238D01*
X178649333Y-55570476D01*
X178554095Y-55618095D01*
X179982666Y-55665714D02*
X179982666Y-56332380D01*
X179744571Y-55284761D02*
X179506476Y-55999047D01*
X180125523Y-55999047D01*
%TO.C,S8*%
X182499095Y-99972761D02*
X182641952Y-100020380D01*
X182880047Y-100020380D01*
X182975285Y-99972761D01*
X183022904Y-99925142D01*
X183070523Y-99829904D01*
X183070523Y-99734666D01*
X183022904Y-99639428D01*
X182975285Y-99591809D01*
X182880047Y-99544190D01*
X182689571Y-99496571D01*
X182594333Y-99448952D01*
X182546714Y-99401333D01*
X182499095Y-99306095D01*
X182499095Y-99210857D01*
X182546714Y-99115619D01*
X182594333Y-99068000D01*
X182689571Y-99020380D01*
X182927666Y-99020380D01*
X183070523Y-99068000D01*
X183641952Y-99448952D02*
X183546714Y-99401333D01*
X183499095Y-99353714D01*
X183451476Y-99258476D01*
X183451476Y-99210857D01*
X183499095Y-99115619D01*
X183546714Y-99068000D01*
X183641952Y-99020380D01*
X183832428Y-99020380D01*
X183927666Y-99068000D01*
X183975285Y-99115619D01*
X184022904Y-99210857D01*
X184022904Y-99258476D01*
X183975285Y-99353714D01*
X183927666Y-99401333D01*
X183832428Y-99448952D01*
X183641952Y-99448952D01*
X183546714Y-99496571D01*
X183499095Y-99544190D01*
X183451476Y-99639428D01*
X183451476Y-99829904D01*
X183499095Y-99925142D01*
X183546714Y-99972761D01*
X183641952Y-100020380D01*
X183832428Y-100020380D01*
X183927666Y-99972761D01*
X183975285Y-99925142D01*
X184022904Y-99829904D01*
X184022904Y-99639428D01*
X183975285Y-99544190D01*
X183927666Y-99496571D01*
X183832428Y-99448952D01*
%TO.C,C16*%
X160979142Y-51950857D02*
X161026761Y-51998476D01*
X161074380Y-52141333D01*
X161074380Y-52236571D01*
X161026761Y-52379428D01*
X160931523Y-52474666D01*
X160836285Y-52522285D01*
X160645809Y-52569904D01*
X160502952Y-52569904D01*
X160312476Y-52522285D01*
X160217238Y-52474666D01*
X160122000Y-52379428D01*
X160074380Y-52236571D01*
X160074380Y-52141333D01*
X160122000Y-51998476D01*
X160169619Y-51950857D01*
X161074380Y-50998476D02*
X161074380Y-51569904D01*
X161074380Y-51284190D02*
X160074380Y-51284190D01*
X160217238Y-51379428D01*
X160312476Y-51474666D01*
X160360095Y-51569904D01*
X160074380Y-50141333D02*
X160074380Y-50331809D01*
X160122000Y-50427047D01*
X160169619Y-50474666D01*
X160312476Y-50569904D01*
X160502952Y-50617523D01*
X160883904Y-50617523D01*
X160979142Y-50569904D01*
X161026761Y-50522285D01*
X161074380Y-50427047D01*
X161074380Y-50236571D01*
X161026761Y-50141333D01*
X160979142Y-50093714D01*
X160883904Y-50046095D01*
X160645809Y-50046095D01*
X160550571Y-50093714D01*
X160502952Y-50141333D01*
X160455333Y-50236571D01*
X160455333Y-50427047D01*
X160502952Y-50522285D01*
X160550571Y-50569904D01*
X160645809Y-50617523D01*
%TO.C,R12*%
X49395142Y-57442380D02*
X49061809Y-56966190D01*
X48823714Y-57442380D02*
X48823714Y-56442380D01*
X49204666Y-56442380D01*
X49299904Y-56490000D01*
X49347523Y-56537619D01*
X49395142Y-56632857D01*
X49395142Y-56775714D01*
X49347523Y-56870952D01*
X49299904Y-56918571D01*
X49204666Y-56966190D01*
X48823714Y-56966190D01*
X50347523Y-57442380D02*
X49776095Y-57442380D01*
X50061809Y-57442380D02*
X50061809Y-56442380D01*
X49966571Y-56585238D01*
X49871333Y-56680476D01*
X49776095Y-56728095D01*
X50728476Y-56537619D02*
X50776095Y-56490000D01*
X50871333Y-56442380D01*
X51109428Y-56442380D01*
X51204666Y-56490000D01*
X51252285Y-56537619D01*
X51299904Y-56632857D01*
X51299904Y-56728095D01*
X51252285Y-56870952D01*
X50680857Y-57442380D01*
X51299904Y-57442380D01*
%TO.C,R11*%
X87645642Y-56492380D02*
X87312309Y-56016190D01*
X87074214Y-56492380D02*
X87074214Y-55492380D01*
X87455166Y-55492380D01*
X87550404Y-55540000D01*
X87598023Y-55587619D01*
X87645642Y-55682857D01*
X87645642Y-55825714D01*
X87598023Y-55920952D01*
X87550404Y-55968571D01*
X87455166Y-56016190D01*
X87074214Y-56016190D01*
X88598023Y-56492380D02*
X88026595Y-56492380D01*
X88312309Y-56492380D02*
X88312309Y-55492380D01*
X88217071Y-55635238D01*
X88121833Y-55730476D01*
X88026595Y-55778095D01*
X89550404Y-56492380D02*
X88978976Y-56492380D01*
X89264690Y-56492380D02*
X89264690Y-55492380D01*
X89169452Y-55635238D01*
X89074214Y-55730476D01*
X88978976Y-55778095D01*
%TO.C,U3*%
X165336380Y-65277904D02*
X166145904Y-65277904D01*
X166241142Y-65230285D01*
X166288761Y-65182666D01*
X166336380Y-65087428D01*
X166336380Y-64896952D01*
X166288761Y-64801714D01*
X166241142Y-64754095D01*
X166145904Y-64706476D01*
X165336380Y-64706476D01*
X165336380Y-64325523D02*
X165336380Y-63706476D01*
X165717333Y-64039809D01*
X165717333Y-63896952D01*
X165764952Y-63801714D01*
X165812571Y-63754095D01*
X165907809Y-63706476D01*
X166145904Y-63706476D01*
X166241142Y-63754095D01*
X166288761Y-63801714D01*
X166336380Y-63896952D01*
X166336380Y-64182666D01*
X166288761Y-64277904D01*
X166241142Y-64325523D01*
%TO.C,U6*%
X180848095Y-69810380D02*
X180848095Y-70619904D01*
X180895714Y-70715142D01*
X180943333Y-70762761D01*
X181038571Y-70810380D01*
X181229047Y-70810380D01*
X181324285Y-70762761D01*
X181371904Y-70715142D01*
X181419523Y-70619904D01*
X181419523Y-69810380D01*
X182324285Y-69810380D02*
X182133809Y-69810380D01*
X182038571Y-69858000D01*
X181990952Y-69905619D01*
X181895714Y-70048476D01*
X181848095Y-70238952D01*
X181848095Y-70619904D01*
X181895714Y-70715142D01*
X181943333Y-70762761D01*
X182038571Y-70810380D01*
X182229047Y-70810380D01*
X182324285Y-70762761D01*
X182371904Y-70715142D01*
X182419523Y-70619904D01*
X182419523Y-70381809D01*
X182371904Y-70286571D01*
X182324285Y-70238952D01*
X182229047Y-70191333D01*
X182038571Y-70191333D01*
X181943333Y-70238952D01*
X181895714Y-70286571D01*
X181848095Y-70381809D01*
%TO.C,R2*%
X143851333Y-77160380D02*
X143518000Y-76684190D01*
X143279904Y-77160380D02*
X143279904Y-76160380D01*
X143660857Y-76160380D01*
X143756095Y-76208000D01*
X143803714Y-76255619D01*
X143851333Y-76350857D01*
X143851333Y-76493714D01*
X143803714Y-76588952D01*
X143756095Y-76636571D01*
X143660857Y-76684190D01*
X143279904Y-76684190D01*
X144232285Y-76255619D02*
X144279904Y-76208000D01*
X144375142Y-76160380D01*
X144613238Y-76160380D01*
X144708476Y-76208000D01*
X144756095Y-76255619D01*
X144803714Y-76350857D01*
X144803714Y-76446095D01*
X144756095Y-76588952D01*
X144184666Y-77160380D01*
X144803714Y-77160380D01*
%TO.C,R5*%
X124293333Y-78684380D02*
X123960000Y-78208190D01*
X123721904Y-78684380D02*
X123721904Y-77684380D01*
X124102857Y-77684380D01*
X124198095Y-77732000D01*
X124245714Y-77779619D01*
X124293333Y-77874857D01*
X124293333Y-78017714D01*
X124245714Y-78112952D01*
X124198095Y-78160571D01*
X124102857Y-78208190D01*
X123721904Y-78208190D01*
X125198095Y-77684380D02*
X124721904Y-77684380D01*
X124674285Y-78160571D01*
X124721904Y-78112952D01*
X124817142Y-78065333D01*
X125055238Y-78065333D01*
X125150476Y-78112952D01*
X125198095Y-78160571D01*
X125245714Y-78255809D01*
X125245714Y-78493904D01*
X125198095Y-78589142D01*
X125150476Y-78636761D01*
X125055238Y-78684380D01*
X124817142Y-78684380D01*
X124721904Y-78636761D01*
X124674285Y-78589142D01*
%TO.C,S7*%
X155753095Y-107019761D02*
X155895952Y-107067380D01*
X156134047Y-107067380D01*
X156229285Y-107019761D01*
X156276904Y-106972142D01*
X156324523Y-106876904D01*
X156324523Y-106781666D01*
X156276904Y-106686428D01*
X156229285Y-106638809D01*
X156134047Y-106591190D01*
X155943571Y-106543571D01*
X155848333Y-106495952D01*
X155800714Y-106448333D01*
X155753095Y-106353095D01*
X155753095Y-106257857D01*
X155800714Y-106162619D01*
X155848333Y-106115000D01*
X155943571Y-106067380D01*
X156181666Y-106067380D01*
X156324523Y-106115000D01*
X156657857Y-106067380D02*
X157324523Y-106067380D01*
X156895952Y-107067380D01*
%TO.C,R1*%
X115657333Y-79954380D02*
X115324000Y-79478190D01*
X115085904Y-79954380D02*
X115085904Y-78954380D01*
X115466857Y-78954380D01*
X115562095Y-79002000D01*
X115609714Y-79049619D01*
X115657333Y-79144857D01*
X115657333Y-79287714D01*
X115609714Y-79382952D01*
X115562095Y-79430571D01*
X115466857Y-79478190D01*
X115085904Y-79478190D01*
X116609714Y-79954380D02*
X116038285Y-79954380D01*
X116324000Y-79954380D02*
X116324000Y-78954380D01*
X116228761Y-79097238D01*
X116133523Y-79192476D01*
X116038285Y-79240095D01*
%TO.C,C6*%
X130389333Y-89511142D02*
X130341714Y-89558761D01*
X130198857Y-89606380D01*
X130103619Y-89606380D01*
X129960761Y-89558761D01*
X129865523Y-89463523D01*
X129817904Y-89368285D01*
X129770285Y-89177809D01*
X129770285Y-89034952D01*
X129817904Y-88844476D01*
X129865523Y-88749238D01*
X129960761Y-88654000D01*
X130103619Y-88606380D01*
X130198857Y-88606380D01*
X130341714Y-88654000D01*
X130389333Y-88701619D01*
X131246476Y-88606380D02*
X131056000Y-88606380D01*
X130960761Y-88654000D01*
X130913142Y-88701619D01*
X130817904Y-88844476D01*
X130770285Y-89034952D01*
X130770285Y-89415904D01*
X130817904Y-89511142D01*
X130865523Y-89558761D01*
X130960761Y-89606380D01*
X131151238Y-89606380D01*
X131246476Y-89558761D01*
X131294095Y-89511142D01*
X131341714Y-89415904D01*
X131341714Y-89177809D01*
X131294095Y-89082571D01*
X131246476Y-89034952D01*
X131151238Y-88987333D01*
X130960761Y-88987333D01*
X130865523Y-89034952D01*
X130817904Y-89082571D01*
X130770285Y-89177809D01*
%TO.C,R3*%
X143851333Y-75382380D02*
X143518000Y-74906190D01*
X143279904Y-75382380D02*
X143279904Y-74382380D01*
X143660857Y-74382380D01*
X143756095Y-74430000D01*
X143803714Y-74477619D01*
X143851333Y-74572857D01*
X143851333Y-74715714D01*
X143803714Y-74810952D01*
X143756095Y-74858571D01*
X143660857Y-74906190D01*
X143279904Y-74906190D01*
X144184666Y-74382380D02*
X144803714Y-74382380D01*
X144470380Y-74763333D01*
X144613238Y-74763333D01*
X144708476Y-74810952D01*
X144756095Y-74858571D01*
X144803714Y-74953809D01*
X144803714Y-75191904D01*
X144756095Y-75287142D01*
X144708476Y-75334761D01*
X144613238Y-75382380D01*
X144327523Y-75382380D01*
X144232285Y-75334761D01*
X144184666Y-75287142D01*
%TO.C,R25*%
X92814380Y-104020857D02*
X92338190Y-104354190D01*
X92814380Y-104592285D02*
X91814380Y-104592285D01*
X91814380Y-104211333D01*
X91862000Y-104116095D01*
X91909619Y-104068476D01*
X92004857Y-104020857D01*
X92147714Y-104020857D01*
X92242952Y-104068476D01*
X92290571Y-104116095D01*
X92338190Y-104211333D01*
X92338190Y-104592285D01*
X91909619Y-103639904D02*
X91862000Y-103592285D01*
X91814380Y-103497047D01*
X91814380Y-103258952D01*
X91862000Y-103163714D01*
X91909619Y-103116095D01*
X92004857Y-103068476D01*
X92100095Y-103068476D01*
X92242952Y-103116095D01*
X92814380Y-103687523D01*
X92814380Y-103068476D01*
X91814380Y-102163714D02*
X91814380Y-102639904D01*
X92290571Y-102687523D01*
X92242952Y-102639904D01*
X92195333Y-102544666D01*
X92195333Y-102306571D01*
X92242952Y-102211333D01*
X92290571Y-102163714D01*
X92385809Y-102116095D01*
X92623904Y-102116095D01*
X92719142Y-102163714D01*
X92766761Y-102211333D01*
X92814380Y-102306571D01*
X92814380Y-102544666D01*
X92766761Y-102639904D01*
X92719142Y-102687523D01*
%TO.C,C21*%
X64619142Y-79382857D02*
X64666761Y-79430476D01*
X64714380Y-79573333D01*
X64714380Y-79668571D01*
X64666761Y-79811428D01*
X64571523Y-79906666D01*
X64476285Y-79954285D01*
X64285809Y-80001904D01*
X64142952Y-80001904D01*
X63952476Y-79954285D01*
X63857238Y-79906666D01*
X63762000Y-79811428D01*
X63714380Y-79668571D01*
X63714380Y-79573333D01*
X63762000Y-79430476D01*
X63809619Y-79382857D01*
X63809619Y-79001904D02*
X63762000Y-78954285D01*
X63714380Y-78859047D01*
X63714380Y-78620952D01*
X63762000Y-78525714D01*
X63809619Y-78478095D01*
X63904857Y-78430476D01*
X64000095Y-78430476D01*
X64142952Y-78478095D01*
X64714380Y-79049523D01*
X64714380Y-78430476D01*
X64714380Y-77478095D02*
X64714380Y-78049523D01*
X64714380Y-77763809D02*
X63714380Y-77763809D01*
X63857238Y-77859047D01*
X63952476Y-77954285D01*
X64000095Y-78049523D01*
%TO.C,C20*%
X62841142Y-79636857D02*
X62888761Y-79684476D01*
X62936380Y-79827333D01*
X62936380Y-79922571D01*
X62888761Y-80065428D01*
X62793523Y-80160666D01*
X62698285Y-80208285D01*
X62507809Y-80255904D01*
X62364952Y-80255904D01*
X62174476Y-80208285D01*
X62079238Y-80160666D01*
X61984000Y-80065428D01*
X61936380Y-79922571D01*
X61936380Y-79827333D01*
X61984000Y-79684476D01*
X62031619Y-79636857D01*
X62031619Y-79255904D02*
X61984000Y-79208285D01*
X61936380Y-79113047D01*
X61936380Y-78874952D01*
X61984000Y-78779714D01*
X62031619Y-78732095D01*
X62126857Y-78684476D01*
X62222095Y-78684476D01*
X62364952Y-78732095D01*
X62936380Y-79303523D01*
X62936380Y-78684476D01*
X61936380Y-78065428D02*
X61936380Y-77970190D01*
X61984000Y-77874952D01*
X62031619Y-77827333D01*
X62126857Y-77779714D01*
X62317333Y-77732095D01*
X62555428Y-77732095D01*
X62745904Y-77779714D01*
X62841142Y-77827333D01*
X62888761Y-77874952D01*
X62936380Y-77970190D01*
X62936380Y-78065428D01*
X62888761Y-78160666D01*
X62841142Y-78208285D01*
X62745904Y-78255904D01*
X62555428Y-78303523D01*
X62317333Y-78303523D01*
X62126857Y-78255904D01*
X62031619Y-78208285D01*
X61984000Y-78160666D01*
X61936380Y-78065428D01*
%TO.C,U4*%
X91429380Y-62747904D02*
X92238904Y-62747904D01*
X92334142Y-62700285D01*
X92381761Y-62652666D01*
X92429380Y-62557428D01*
X92429380Y-62366952D01*
X92381761Y-62271714D01*
X92334142Y-62224095D01*
X92238904Y-62176476D01*
X91429380Y-62176476D01*
X91762714Y-61271714D02*
X92429380Y-61271714D01*
X91381761Y-61509809D02*
X92096047Y-61747904D01*
X92096047Y-61128857D01*
%TO.C,J2*%
X114220666Y-81748380D02*
X114220666Y-82462666D01*
X114173047Y-82605523D01*
X114077809Y-82700761D01*
X113934952Y-82748380D01*
X113839714Y-82748380D01*
X114649238Y-81843619D02*
X114696857Y-81796000D01*
X114792095Y-81748380D01*
X115030190Y-81748380D01*
X115125428Y-81796000D01*
X115173047Y-81843619D01*
X115220666Y-81938857D01*
X115220666Y-82034095D01*
X115173047Y-82176952D01*
X114601619Y-82748380D01*
X115220666Y-82748380D01*
%TO.C,C9*%
X124293333Y-74779142D02*
X124245714Y-74826761D01*
X124102857Y-74874380D01*
X124007619Y-74874380D01*
X123864761Y-74826761D01*
X123769523Y-74731523D01*
X123721904Y-74636285D01*
X123674285Y-74445809D01*
X123674285Y-74302952D01*
X123721904Y-74112476D01*
X123769523Y-74017238D01*
X123864761Y-73922000D01*
X124007619Y-73874380D01*
X124102857Y-73874380D01*
X124245714Y-73922000D01*
X124293333Y-73969619D01*
X124769523Y-74874380D02*
X124960000Y-74874380D01*
X125055238Y-74826761D01*
X125102857Y-74779142D01*
X125198095Y-74636285D01*
X125245714Y-74445809D01*
X125245714Y-74064857D01*
X125198095Y-73969619D01*
X125150476Y-73922000D01*
X125055238Y-73874380D01*
X124864761Y-73874380D01*
X124769523Y-73922000D01*
X124721904Y-73969619D01*
X124674285Y-74064857D01*
X124674285Y-74302952D01*
X124721904Y-74398190D01*
X124769523Y-74445809D01*
X124864761Y-74493428D01*
X125055238Y-74493428D01*
X125150476Y-74445809D01*
X125198095Y-74398190D01*
X125245714Y-74302952D01*
D13*
%TO.C,S2*%
X57706380Y-110750047D02*
X57887809Y-110810523D01*
X58190190Y-110810523D01*
X58311142Y-110750047D01*
X58371619Y-110689571D01*
X58432095Y-110568619D01*
X58432095Y-110447666D01*
X58371619Y-110326714D01*
X58311142Y-110266238D01*
X58190190Y-110205761D01*
X57948285Y-110145285D01*
X57827333Y-110084809D01*
X57766857Y-110024333D01*
X57706380Y-109903380D01*
X57706380Y-109782428D01*
X57766857Y-109661476D01*
X57827333Y-109601000D01*
X57948285Y-109540523D01*
X58250666Y-109540523D01*
X58432095Y-109601000D01*
X58915904Y-109661476D02*
X58976380Y-109601000D01*
X59097333Y-109540523D01*
X59399714Y-109540523D01*
X59520666Y-109601000D01*
X59581142Y-109661476D01*
X59641619Y-109782428D01*
X59641619Y-109903380D01*
X59581142Y-110084809D01*
X58855428Y-110810523D01*
X59641619Y-110810523D01*
D12*
%TO.C,R22*%
X62334380Y-104020857D02*
X61858190Y-104354190D01*
X62334380Y-104592285D02*
X61334380Y-104592285D01*
X61334380Y-104211333D01*
X61382000Y-104116095D01*
X61429619Y-104068476D01*
X61524857Y-104020857D01*
X61667714Y-104020857D01*
X61762952Y-104068476D01*
X61810571Y-104116095D01*
X61858190Y-104211333D01*
X61858190Y-104592285D01*
X61429619Y-103639904D02*
X61382000Y-103592285D01*
X61334380Y-103497047D01*
X61334380Y-103258952D01*
X61382000Y-103163714D01*
X61429619Y-103116095D01*
X61524857Y-103068476D01*
X61620095Y-103068476D01*
X61762952Y-103116095D01*
X62334380Y-103687523D01*
X62334380Y-103068476D01*
X61429619Y-102687523D02*
X61382000Y-102639904D01*
X61334380Y-102544666D01*
X61334380Y-102306571D01*
X61382000Y-102211333D01*
X61429619Y-102163714D01*
X61524857Y-102116095D01*
X61620095Y-102116095D01*
X61762952Y-102163714D01*
X62334380Y-102735142D01*
X62334380Y-102116095D01*
%TO.C,C15*%
X167759142Y-55729142D02*
X167711523Y-55776761D01*
X167568666Y-55824380D01*
X167473428Y-55824380D01*
X167330571Y-55776761D01*
X167235333Y-55681523D01*
X167187714Y-55586285D01*
X167140095Y-55395809D01*
X167140095Y-55252952D01*
X167187714Y-55062476D01*
X167235333Y-54967238D01*
X167330571Y-54872000D01*
X167473428Y-54824380D01*
X167568666Y-54824380D01*
X167711523Y-54872000D01*
X167759142Y-54919619D01*
X168711523Y-55824380D02*
X168140095Y-55824380D01*
X168425809Y-55824380D02*
X168425809Y-54824380D01*
X168330571Y-54967238D01*
X168235333Y-55062476D01*
X168140095Y-55110095D01*
X169616285Y-54824380D02*
X169140095Y-54824380D01*
X169092476Y-55300571D01*
X169140095Y-55252952D01*
X169235333Y-55205333D01*
X169473428Y-55205333D01*
X169568666Y-55252952D01*
X169616285Y-55300571D01*
X169663904Y-55395809D01*
X169663904Y-55633904D01*
X169616285Y-55729142D01*
X169568666Y-55776761D01*
X169473428Y-55824380D01*
X169235333Y-55824380D01*
X169140095Y-55776761D01*
X169092476Y-55729142D01*
%TO.C,C18*%
X169537142Y-72747142D02*
X169489523Y-72794761D01*
X169346666Y-72842380D01*
X169251428Y-72842380D01*
X169108571Y-72794761D01*
X169013333Y-72699523D01*
X168965714Y-72604285D01*
X168918095Y-72413809D01*
X168918095Y-72270952D01*
X168965714Y-72080476D01*
X169013333Y-71985238D01*
X169108571Y-71890000D01*
X169251428Y-71842380D01*
X169346666Y-71842380D01*
X169489523Y-71890000D01*
X169537142Y-71937619D01*
X170489523Y-72842380D02*
X169918095Y-72842380D01*
X170203809Y-72842380D02*
X170203809Y-71842380D01*
X170108571Y-71985238D01*
X170013333Y-72080476D01*
X169918095Y-72128095D01*
X171060952Y-72270952D02*
X170965714Y-72223333D01*
X170918095Y-72175714D01*
X170870476Y-72080476D01*
X170870476Y-72032857D01*
X170918095Y-71937619D01*
X170965714Y-71890000D01*
X171060952Y-71842380D01*
X171251428Y-71842380D01*
X171346666Y-71890000D01*
X171394285Y-71937619D01*
X171441904Y-72032857D01*
X171441904Y-72080476D01*
X171394285Y-72175714D01*
X171346666Y-72223333D01*
X171251428Y-72270952D01*
X171060952Y-72270952D01*
X170965714Y-72318571D01*
X170918095Y-72366190D01*
X170870476Y-72461428D01*
X170870476Y-72651904D01*
X170918095Y-72747142D01*
X170965714Y-72794761D01*
X171060952Y-72842380D01*
X171251428Y-72842380D01*
X171346666Y-72794761D01*
X171394285Y-72747142D01*
X171441904Y-72651904D01*
X171441904Y-72461428D01*
X171394285Y-72366190D01*
X171346666Y-72318571D01*
X171251428Y-72270952D01*
%TO.C,C8*%
X143750833Y-73509142D02*
X143703214Y-73556761D01*
X143560357Y-73604380D01*
X143465119Y-73604380D01*
X143322261Y-73556761D01*
X143227023Y-73461523D01*
X143179404Y-73366285D01*
X143131785Y-73175809D01*
X143131785Y-73032952D01*
X143179404Y-72842476D01*
X143227023Y-72747238D01*
X143322261Y-72652000D01*
X143465119Y-72604380D01*
X143560357Y-72604380D01*
X143703214Y-72652000D01*
X143750833Y-72699619D01*
X144322261Y-73032952D02*
X144227023Y-72985333D01*
X144179404Y-72937714D01*
X144131785Y-72842476D01*
X144131785Y-72794857D01*
X144179404Y-72699619D01*
X144227023Y-72652000D01*
X144322261Y-72604380D01*
X144512738Y-72604380D01*
X144607976Y-72652000D01*
X144655595Y-72699619D01*
X144703214Y-72794857D01*
X144703214Y-72842476D01*
X144655595Y-72937714D01*
X144607976Y-72985333D01*
X144512738Y-73032952D01*
X144322261Y-73032952D01*
X144227023Y-73080571D01*
X144179404Y-73128190D01*
X144131785Y-73223428D01*
X144131785Y-73413904D01*
X144179404Y-73509142D01*
X144227023Y-73556761D01*
X144322261Y-73604380D01*
X144512738Y-73604380D01*
X144607976Y-73556761D01*
X144655595Y-73509142D01*
X144703214Y-73413904D01*
X144703214Y-73223428D01*
X144655595Y-73128190D01*
X144607976Y-73080571D01*
X144512738Y-73032952D01*
%TO.C,R26*%
X102974380Y-104020857D02*
X102498190Y-104354190D01*
X102974380Y-104592285D02*
X101974380Y-104592285D01*
X101974380Y-104211333D01*
X102022000Y-104116095D01*
X102069619Y-104068476D01*
X102164857Y-104020857D01*
X102307714Y-104020857D01*
X102402952Y-104068476D01*
X102450571Y-104116095D01*
X102498190Y-104211333D01*
X102498190Y-104592285D01*
X102069619Y-103639904D02*
X102022000Y-103592285D01*
X101974380Y-103497047D01*
X101974380Y-103258952D01*
X102022000Y-103163714D01*
X102069619Y-103116095D01*
X102164857Y-103068476D01*
X102260095Y-103068476D01*
X102402952Y-103116095D01*
X102974380Y-103687523D01*
X102974380Y-103068476D01*
X101974380Y-102211333D02*
X101974380Y-102401809D01*
X102022000Y-102497047D01*
X102069619Y-102544666D01*
X102212476Y-102639904D01*
X102402952Y-102687523D01*
X102783904Y-102687523D01*
X102879142Y-102639904D01*
X102926761Y-102592285D01*
X102974380Y-102497047D01*
X102974380Y-102306571D01*
X102926761Y-102211333D01*
X102879142Y-102163714D01*
X102783904Y-102116095D01*
X102545809Y-102116095D01*
X102450571Y-102163714D01*
X102402952Y-102211333D01*
X102355333Y-102306571D01*
X102355333Y-102497047D01*
X102402952Y-102592285D01*
X102450571Y-102639904D01*
X102545809Y-102687523D01*
%TO.C,C3*%
X141741142Y-103952166D02*
X141788761Y-103999785D01*
X141836380Y-104142642D01*
X141836380Y-104237880D01*
X141788761Y-104380738D01*
X141693523Y-104475976D01*
X141598285Y-104523595D01*
X141407809Y-104571214D01*
X141264952Y-104571214D01*
X141074476Y-104523595D01*
X140979238Y-104475976D01*
X140884000Y-104380738D01*
X140836380Y-104237880D01*
X140836380Y-104142642D01*
X140884000Y-103999785D01*
X140931619Y-103952166D01*
X140836380Y-103618833D02*
X140836380Y-102999785D01*
X141217333Y-103333119D01*
X141217333Y-103190261D01*
X141264952Y-103095023D01*
X141312571Y-103047404D01*
X141407809Y-102999785D01*
X141645904Y-102999785D01*
X141741142Y-103047404D01*
X141788761Y-103095023D01*
X141836380Y-103190261D01*
X141836380Y-103475976D01*
X141788761Y-103571214D01*
X141741142Y-103618833D01*
D10*
%TO.C,R23*%
X71134500Y-103123276D02*
X71134500Y-103632724D01*
X70089500Y-103123276D02*
X70089500Y-103632724D01*
%TO.C,J1*%
X135601000Y-108183000D02*
X135601000Y-114183000D01*
X125101000Y-114183000D02*
X125101000Y-108183000D01*
X136021000Y-114183000D02*
X135261000Y-114183000D01*
X133481000Y-105125929D02*
X133481000Y-105523000D01*
X120781000Y-114183000D02*
X120021000Y-114183000D01*
X126751000Y-105523000D02*
X126751000Y-108183000D01*
X136971000Y-105523000D02*
X119071000Y-105523000D01*
X121671000Y-105523000D02*
X121671000Y-108183000D01*
X122561000Y-105125929D02*
X122561000Y-105523000D01*
X136021000Y-108183000D02*
X136021000Y-114183000D01*
X135361000Y-108183000D02*
X135361000Y-114183000D01*
X135721000Y-108183000D02*
X135721000Y-114183000D01*
X127641000Y-105125929D02*
X127641000Y-105523000D01*
X119071000Y-105523000D02*
X119071000Y-108183000D01*
X130181000Y-114183000D02*
X130181000Y-108183000D01*
X130181000Y-105125929D02*
X130181000Y-105523000D01*
X125861000Y-105125929D02*
X125861000Y-105523000D01*
X120781000Y-105125929D02*
X120781000Y-105523000D01*
X125861000Y-114183000D02*
X125101000Y-114183000D01*
X122561000Y-114183000D02*
X122561000Y-108183000D01*
X128401000Y-105125929D02*
X128401000Y-105523000D01*
X136021000Y-105193000D02*
X136021000Y-105523000D01*
X120021000Y-114183000D02*
X120021000Y-108183000D01*
X128401000Y-114183000D02*
X127641000Y-114183000D01*
X133481000Y-108183000D02*
X133481000Y-114183000D01*
X135961000Y-108183000D02*
X135961000Y-114183000D01*
X125101000Y-105125929D02*
X125101000Y-105523000D01*
X125861000Y-108183000D02*
X125861000Y-114183000D01*
X134371000Y-105523000D02*
X134371000Y-108183000D01*
X133481000Y-114183000D02*
X132721000Y-114183000D01*
X129291000Y-105523000D02*
X129291000Y-108183000D01*
X123321000Y-114183000D02*
X122561000Y-114183000D01*
X120781000Y-108183000D02*
X120781000Y-114183000D01*
X136971000Y-108183000D02*
X136971000Y-105523000D01*
X130941000Y-108183000D02*
X130941000Y-114183000D01*
X135641000Y-102813000D02*
X136911000Y-102813000D01*
X131831000Y-105523000D02*
X131831000Y-108183000D01*
X132721000Y-105125929D02*
X132721000Y-105523000D01*
X136911000Y-102813000D02*
X136911000Y-104083000D01*
X130941000Y-105125929D02*
X130941000Y-105523000D01*
X135481000Y-108183000D02*
X135481000Y-114183000D01*
X123321000Y-105125929D02*
X123321000Y-105523000D01*
X130941000Y-114183000D02*
X130181000Y-114183000D01*
X135841000Y-108183000D02*
X135841000Y-114183000D01*
X123321000Y-108183000D02*
X123321000Y-114183000D01*
X120021000Y-105125929D02*
X120021000Y-105523000D01*
X119071000Y-108183000D02*
X136971000Y-108183000D01*
X135261000Y-105193000D02*
X135261000Y-105523000D01*
X128401000Y-108183000D02*
X128401000Y-114183000D01*
X124211000Y-105523000D02*
X124211000Y-108183000D01*
X135261000Y-114183000D02*
X135261000Y-108183000D01*
X127641000Y-114183000D02*
X127641000Y-108183000D01*
X132721000Y-114183000D02*
X132721000Y-108183000D01*
%TO.C,C7*%
X133965733Y-101856000D02*
X134258267Y-101856000D01*
X133965733Y-100836000D02*
X134258267Y-100836000D01*
D14*
%TO.C,FB1*%
X166133000Y-55968000D02*
X165083000Y-55968000D01*
D15*
%TO.C,J3*%
X177530000Y-45460000D02*
X177530000Y-37200000D01*
X177530000Y-53700000D02*
X165330000Y-53700000D01*
X177530000Y-37200000D02*
X165330000Y-37200000D01*
X165330000Y-53700000D02*
X165330000Y-49330000D01*
X177530000Y-49330000D02*
X177530000Y-53700000D01*
X165330000Y-37200000D02*
X165330000Y-45460000D01*
X165008937Y-52070000D02*
G75*
G03*
X165008937Y-52070000I-328937J0D01*
G01*
D10*
%TO.C,R10*%
X177545276Y-60183500D02*
X178054724Y-60183500D01*
X177545276Y-61228500D02*
X178054724Y-61228500D01*
D16*
%TO.C,S6*%
X103392000Y-114808000D02*
X103392000Y-114808000D01*
D14*
X100167000Y-117808000D02*
X98567000Y-117808000D01*
X101167000Y-119808000D02*
X97567000Y-119808000D01*
X96492000Y-117808000D02*
X96492000Y-117108000D01*
X102242000Y-117808000D02*
X101767000Y-117808000D01*
X102767000Y-117108000D02*
X102767000Y-112108000D01*
X95967000Y-112108000D02*
X95967000Y-117108000D01*
X102767000Y-112108000D02*
X95967000Y-112108000D01*
X97567000Y-119808000D02*
X97167000Y-119308000D01*
X95967000Y-117108000D02*
X96567000Y-117108000D01*
X102167000Y-117108000D02*
X102767000Y-117108000D01*
D16*
X103292000Y-114808000D02*
X103292000Y-114808000D01*
D14*
X101167000Y-118108000D02*
X101167000Y-119808000D01*
X96967000Y-117808000D02*
X96492000Y-117808000D01*
X102242000Y-117108000D02*
X102242000Y-117808000D01*
X101167000Y-119808000D02*
X101567000Y-119307000D01*
X101567000Y-119307000D02*
X101167000Y-119307000D01*
X97167000Y-119308000D02*
X97567000Y-119308000D01*
X97567000Y-119808000D02*
X97567000Y-118108000D01*
D16*
X103392000Y-114808000D02*
G75*
G03*
X103292000Y-114808000I-50000J0D01*
G01*
X103292000Y-114808000D02*
G75*
G03*
X103392000Y-114808000I50000J0D01*
G01*
%TO.C,U5*%
X176608000Y-65036000D02*
X176608000Y-65036000D01*
X176508000Y-65036000D02*
X176508000Y-65036000D01*
X176608000Y-65036000D02*
G75*
G03*
X176508000Y-65036000I-50000J0D01*
G01*
X176508000Y-65036000D02*
G75*
G03*
X176608000Y-65036000I50000J0D01*
G01*
D10*
%TO.C,R14*%
X144003500Y-82296724D02*
X144003500Y-81787276D01*
X145048500Y-82296724D02*
X145048500Y-81787276D01*
D14*
%TO.C,S5*%
X85807000Y-117108000D02*
X86407000Y-117108000D01*
X92607000Y-112108000D02*
X85807000Y-112108000D01*
X91407000Y-119307000D02*
X91007000Y-119307000D01*
X92607000Y-117108000D02*
X92607000Y-112108000D01*
X92082000Y-117808000D02*
X91607000Y-117808000D01*
X87407000Y-119808000D02*
X87007000Y-119308000D01*
X90007000Y-117808000D02*
X88407000Y-117808000D01*
X85807000Y-112108000D02*
X85807000Y-117108000D01*
X86332000Y-117808000D02*
X86332000Y-117108000D01*
X91007000Y-119808000D02*
X87407000Y-119808000D01*
X92007000Y-117108000D02*
X92607000Y-117108000D01*
D16*
X93232000Y-114808000D02*
X93232000Y-114808000D01*
D14*
X87007000Y-119308000D02*
X87407000Y-119308000D01*
X87407000Y-119808000D02*
X87407000Y-118108000D01*
X91007000Y-119808000D02*
X91407000Y-119307000D01*
X86807000Y-117808000D02*
X86332000Y-117808000D01*
D16*
X93132000Y-114808000D02*
X93132000Y-114808000D01*
D14*
X91007000Y-118108000D02*
X91007000Y-119808000D01*
X92082000Y-117108000D02*
X92082000Y-117808000D01*
D16*
X93132000Y-114808000D02*
G75*
G03*
X93232000Y-114808000I50000J0D01*
G01*
X93232000Y-114808000D02*
G75*
G03*
X93132000Y-114808000I-50000J0D01*
G01*
D10*
%TO.C,R17*%
X60466500Y-75438724D02*
X60466500Y-74929276D01*
X59421500Y-75438724D02*
X59421500Y-74929276D01*
D16*
%TO.C,J5*%
X89783000Y-38196000D02*
X151783000Y-38196000D01*
X89783000Y-50196000D02*
X89783000Y-38196000D01*
X151783000Y-50196000D02*
X89783000Y-50196000D01*
X151783000Y-38196000D02*
X151783000Y-50196000D01*
D14*
X152683000Y-48196000D02*
G75*
G03*
X152683000Y-48196000I-50000J0D01*
G01*
D10*
%TO.C,K1*%
X94951000Y-59316000D02*
X94951000Y-60966000D01*
X94951000Y-64616000D02*
X102691000Y-64616000D01*
X102691000Y-64616000D02*
X102691000Y-59316000D01*
X94951000Y-62966000D02*
X94951000Y-64616000D01*
X102691000Y-59316000D02*
X94951000Y-59316000D01*
X94951000Y-62966000D02*
G75*
G03*
X94951000Y-60966000I0J1000000D01*
G01*
%TO.C,C1*%
X140460000Y-82188267D02*
X140460000Y-81895733D01*
X141480000Y-82188267D02*
X141480000Y-81895733D01*
%TO.C,R24*%
X81294500Y-103123276D02*
X81294500Y-103632724D01*
X80249500Y-103123276D02*
X80249500Y-103632724D01*
%TO.C,K2*%
X106366000Y-59580000D02*
X106366000Y-61230000D01*
X114106000Y-64880000D02*
X114106000Y-59580000D01*
X114106000Y-59580000D02*
X106366000Y-59580000D01*
X106366000Y-63230000D02*
X106366000Y-64880000D01*
X106366000Y-64880000D02*
X114106000Y-64880000D01*
X106366000Y-63230000D02*
G75*
G03*
X106366000Y-61230000I0J1000000D01*
G01*
%TO.C,R9*%
X108712724Y-70626500D02*
X108203276Y-70626500D01*
X108712724Y-69581500D02*
X108203276Y-69581500D01*
%TO.C,C11*%
X127400267Y-75690000D02*
X127107733Y-75690000D01*
X127400267Y-76710000D02*
X127107733Y-76710000D01*
%TO.C,R6*%
X171958724Y-57135500D02*
X171449276Y-57135500D01*
X171958724Y-58180500D02*
X171449276Y-58180500D01*
D16*
%TO.C,U7*%
X54103000Y-49625000D02*
X54103000Y-57515000D01*
X68833000Y-49625000D02*
X54103000Y-49625000D01*
X68833000Y-71345000D02*
X67817000Y-71345000D01*
X68833000Y-71345000D02*
X68833000Y-69327000D01*
X68833000Y-49625000D02*
X68833000Y-55727000D01*
X54103000Y-71345000D02*
X54103000Y-68691000D01*
D10*
%TO.C,C2*%
X130155733Y-94236000D02*
X130448267Y-94236000D01*
X130155733Y-93216000D02*
X130448267Y-93216000D01*
D14*
%TO.C,U2*%
X132380000Y-76634000D02*
X131780000Y-76634000D01*
X130230000Y-73584000D02*
X131430000Y-73584000D01*
X131780000Y-76634000D02*
X131780000Y-73734000D01*
X131780000Y-73734000D02*
X132380000Y-73734000D01*
X132380000Y-73734000D02*
X132380000Y-76634000D01*
D10*
%TO.C,C22*%
X56644000Y-75037733D02*
X56644000Y-75330267D01*
X55624000Y-75037733D02*
X55624000Y-75330267D01*
%TO.C,R27*%
X50814500Y-103123276D02*
X50814500Y-103632724D01*
X49769500Y-103123276D02*
X49769500Y-103632724D01*
%TO.C,R4*%
X135128724Y-77455500D02*
X134619276Y-77455500D01*
X135128724Y-78500500D02*
X134619276Y-78500500D01*
D14*
%TO.C,T2*%
X140867500Y-71374000D02*
X140867500Y-53594000D01*
X120243500Y-53594000D02*
X120243500Y-71374000D01*
X120243500Y-71374000D02*
X125805500Y-71374000D01*
D10*
%TO.C,C12*%
X136505733Y-73658000D02*
X136798267Y-73658000D01*
X136505733Y-74678000D02*
X136798267Y-74678000D01*
D14*
%TO.C,S1*%
X50767000Y-119307000D02*
X50367000Y-119307000D01*
D16*
X52492000Y-114808000D02*
X52492000Y-114808000D01*
D14*
X46767000Y-119808000D02*
X46767000Y-118108000D01*
X45167000Y-112108000D02*
X45167000Y-117108000D01*
X51442000Y-117108000D02*
X51442000Y-117808000D01*
X50367000Y-119808000D02*
X46767000Y-119808000D01*
X46767000Y-119808000D02*
X46367000Y-119308000D01*
X46367000Y-119308000D02*
X46767000Y-119308000D01*
X46167000Y-117808000D02*
X45692000Y-117808000D01*
X50367000Y-119808000D02*
X50767000Y-119307000D01*
D16*
X52592000Y-114808000D02*
X52592000Y-114808000D01*
D14*
X51442000Y-117808000D02*
X50967000Y-117808000D01*
X45167000Y-117108000D02*
X45767000Y-117108000D01*
X51967000Y-117108000D02*
X51967000Y-112108000D01*
X51967000Y-112108000D02*
X45167000Y-112108000D01*
X51367000Y-117108000D02*
X51967000Y-117108000D01*
X49367000Y-117808000D02*
X47767000Y-117808000D01*
X45692000Y-117808000D02*
X45692000Y-117108000D01*
X50367000Y-118108000D02*
X50367000Y-119808000D01*
D16*
X52592000Y-114808000D02*
G75*
G03*
X52492000Y-114808000I-50000J0D01*
G01*
X52492000Y-114808000D02*
G75*
G03*
X52592000Y-114808000I50000J0D01*
G01*
D10*
%TO.C,C23*%
X117854000Y-93579733D02*
X117854000Y-93872267D01*
X118874000Y-93579733D02*
X118874000Y-93872267D01*
%TO.C,C13*%
X177946267Y-62994000D02*
X177653733Y-62994000D01*
X177946267Y-61974000D02*
X177653733Y-61974000D01*
%TO.C,C4*%
X150883233Y-94744000D02*
X151175767Y-94744000D01*
X150883233Y-93724000D02*
X151175767Y-93724000D01*
%TO.C,R15*%
X143270500Y-82296724D02*
X143270500Y-81787276D01*
X142225500Y-82296724D02*
X142225500Y-81787276D01*
%TO.C,C10*%
X127107733Y-72134000D02*
X127400267Y-72134000D01*
X127107733Y-73154000D02*
X127400267Y-73154000D01*
%TO.C,U8*%
X123444000Y-89642000D02*
X125394000Y-89642000D01*
X123444000Y-89642000D02*
X119994000Y-89642000D01*
X123444000Y-94762000D02*
X125394000Y-94762000D01*
X123444000Y-94762000D02*
X121494000Y-94762000D01*
%TO.C,C17*%
X173628267Y-70102000D02*
X173335733Y-70102000D01*
X173628267Y-71122000D02*
X173335733Y-71122000D01*
D14*
%TO.C,S4*%
X81922000Y-117808000D02*
X81447000Y-117808000D01*
X81847000Y-117108000D02*
X82447000Y-117108000D01*
X80847000Y-118108000D02*
X80847000Y-119808000D01*
X77247000Y-119808000D02*
X77247000Y-118108000D01*
D16*
X82972000Y-114808000D02*
X82972000Y-114808000D01*
D14*
X80847000Y-119808000D02*
X81247000Y-119307000D01*
X81922000Y-117108000D02*
X81922000Y-117808000D01*
X80847000Y-119808000D02*
X77247000Y-119808000D01*
X77247000Y-119808000D02*
X76847000Y-119308000D01*
D16*
X83072000Y-114808000D02*
X83072000Y-114808000D01*
D14*
X79847000Y-117808000D02*
X78247000Y-117808000D01*
X82447000Y-117108000D02*
X82447000Y-112108000D01*
X81247000Y-119307000D02*
X80847000Y-119307000D01*
X82447000Y-112108000D02*
X75647000Y-112108000D01*
X76647000Y-117808000D02*
X76172000Y-117808000D01*
X75647000Y-112108000D02*
X75647000Y-117108000D01*
X75647000Y-117108000D02*
X76247000Y-117108000D01*
X76847000Y-119308000D02*
X77247000Y-119308000D01*
X76172000Y-117808000D02*
X76172000Y-117108000D01*
D16*
X83072000Y-114808000D02*
G75*
G03*
X82972000Y-114808000I-50000J0D01*
G01*
X82972000Y-114808000D02*
G75*
G03*
X83072000Y-114808000I50000J0D01*
G01*
D14*
%TO.C,U1*%
X135558000Y-97868000D02*
X135558000Y-88568000D01*
X135558000Y-88568000D02*
X144858000Y-88568000D01*
X144858000Y-88568000D02*
X144858000Y-97868000D01*
X144858000Y-97868000D02*
X135558000Y-97868000D01*
D17*
X144833000Y-86993000D02*
G75*
G03*
X144833000Y-86993000I-125000J0D01*
G01*
D10*
%TO.C,C19*%
X178454267Y-73658000D02*
X178161733Y-73658000D01*
X178454267Y-74678000D02*
X178161733Y-74678000D01*
%TO.C,C5*%
X149459733Y-92458000D02*
X149752267Y-92458000D01*
X149459733Y-91438000D02*
X149752267Y-91438000D01*
D14*
%TO.C,S3*%
X65487000Y-117108000D02*
X66087000Y-117108000D01*
X71762000Y-117108000D02*
X71762000Y-117808000D01*
X71687000Y-117108000D02*
X72287000Y-117108000D01*
X71762000Y-117808000D02*
X71287000Y-117808000D01*
X66687000Y-119308000D02*
X67087000Y-119308000D01*
X67087000Y-119808000D02*
X66687000Y-119308000D01*
D16*
X72912000Y-114808000D02*
X72912000Y-114808000D01*
D14*
X71087000Y-119307000D02*
X70687000Y-119307000D01*
X66012000Y-117808000D02*
X66012000Y-117108000D01*
X65487000Y-112108000D02*
X65487000Y-117108000D01*
X70687000Y-118108000D02*
X70687000Y-119808000D01*
X66487000Y-117808000D02*
X66012000Y-117808000D01*
D16*
X72812000Y-114808000D02*
X72812000Y-114808000D01*
D14*
X70687000Y-119808000D02*
X71087000Y-119307000D01*
X72287000Y-112108000D02*
X65487000Y-112108000D01*
X69687000Y-117808000D02*
X68087000Y-117808000D01*
X72287000Y-117108000D02*
X72287000Y-112108000D01*
X67087000Y-119808000D02*
X67087000Y-118108000D01*
X70687000Y-119808000D02*
X67087000Y-119808000D01*
D16*
X72912000Y-114808000D02*
G75*
G03*
X72812000Y-114808000I-50000J0D01*
G01*
X72812000Y-114808000D02*
G75*
G03*
X72912000Y-114808000I50000J0D01*
G01*
D10*
%TO.C,R7*%
X175259276Y-57135500D02*
X175768724Y-57135500D01*
X175259276Y-58180500D02*
X175768724Y-58180500D01*
%TO.C,CR1*%
X102781100Y-56502300D02*
X102781100Y-52717700D01*
X109347000Y-54610000D02*
X108585000Y-54991000D01*
X109347000Y-54610000D02*
X108585000Y-54356000D01*
X108331000Y-54610000D02*
X109601000Y-54610000D01*
X109347000Y-54610000D02*
X108585000Y-54229000D01*
X95770700Y-52717700D02*
X95770700Y-56502300D01*
X102781100Y-52717700D02*
X95770700Y-52717700D01*
X109347000Y-54610000D02*
X108585000Y-54864000D01*
X109347000Y-54610000D02*
X108585000Y-54737000D01*
X109347000Y-54610000D02*
X108585000Y-54483000D01*
X109347000Y-54610000D02*
X108585000Y-55245000D01*
X108585000Y-55245000D02*
X108585000Y-53975000D01*
X109347000Y-54610000D02*
X108585000Y-53975000D01*
X109347000Y-54610000D02*
X108585000Y-54102000D01*
X109347000Y-55245000D02*
X109347000Y-53975000D01*
X95770700Y-56502300D02*
X102781100Y-56502300D01*
X109347000Y-54610000D02*
X108585000Y-55118000D01*
%TO.C,R8*%
X97536724Y-70372500D02*
X97027276Y-70372500D01*
X97536724Y-69327500D02*
X97027276Y-69327500D01*
D14*
%TO.C,T1*%
X162966500Y-53594000D02*
X157404500Y-53594000D01*
X142342500Y-53594000D02*
X142342500Y-71374000D01*
X162966500Y-71374000D02*
X162966500Y-53594000D01*
D10*
%TO.C,R13*%
X146826500Y-82296724D02*
X146826500Y-81787276D01*
X145781500Y-82296724D02*
X145781500Y-81787276D01*
%TO.C,R16*%
X50038724Y-66308500D02*
X49529276Y-66308500D01*
X50038724Y-65263500D02*
X49529276Y-65263500D01*
%TO.C,C14*%
X175367733Y-56390000D02*
X175660267Y-56390000D01*
X175367733Y-55370000D02*
X175660267Y-55370000D01*
D18*
%TO.C,S8*%
X189103000Y-128600200D02*
X189103000Y-95250000D01*
X177419000Y-128600200D02*
X189103000Y-128600200D01*
X184247940Y-95250000D02*
X182274060Y-95250000D01*
X177419000Y-95250000D02*
X177419000Y-128600200D01*
X189103000Y-95250000D02*
X187100060Y-95250000D01*
X179421940Y-95250000D02*
X177419000Y-95250000D01*
D19*
X177165000Y-95758000D02*
G75*
G03*
X177165000Y-95758000I-381000J0D01*
G01*
D10*
%TO.C,C16*%
X161542000Y-51454267D02*
X161542000Y-51161733D01*
X162562000Y-51454267D02*
X162562000Y-51161733D01*
%TO.C,R12*%
X49783276Y-57897500D02*
X50292724Y-57897500D01*
X49783276Y-58942500D02*
X50292724Y-58942500D01*
%TO.C,R11*%
X88543224Y-55132500D02*
X88033776Y-55132500D01*
X88543224Y-54087500D02*
X88033776Y-54087500D01*
%TO.C,U3*%
X174144000Y-64516000D02*
X174144000Y-67276000D01*
X166724000Y-64516000D02*
X166724000Y-61756000D01*
X174144000Y-64516000D02*
X174144000Y-61756000D01*
X166724000Y-61756000D02*
X166999000Y-61756000D01*
X166724000Y-67276000D02*
X166999000Y-67276000D01*
X166999000Y-67276000D02*
X166999000Y-68966000D01*
X174144000Y-61756000D02*
X173869000Y-61756000D01*
X174144000Y-67276000D02*
X173869000Y-67276000D01*
X166724000Y-64516000D02*
X166724000Y-67276000D01*
%TO.C,U6*%
X178308000Y-69814000D02*
X179108000Y-69814000D01*
X178308000Y-72934000D02*
X177508000Y-72934000D01*
X178308000Y-72934000D02*
X179108000Y-72934000D01*
X178308000Y-69814000D02*
X176508000Y-69814000D01*
%TO.C,R2*%
X146557276Y-76185500D02*
X147066724Y-76185500D01*
X146557276Y-77230500D02*
X147066724Y-77230500D01*
%TO.C,R5*%
X126999276Y-78500500D02*
X127508724Y-78500500D01*
X126999276Y-77455500D02*
X127508724Y-77455500D01*
D15*
%TO.C,S7*%
X158798000Y-124816000D02*
X160298000Y-124816000D01*
X158298000Y-117816000D02*
X158298000Y-122816000D01*
X165298000Y-122816000D02*
X165298000Y-117816000D01*
X168048000Y-117816000D02*
X165298000Y-117816000D01*
X160298000Y-124816000D02*
X160298000Y-131816000D01*
X164798000Y-131816000D02*
X164798000Y-122816000D01*
X155548000Y-117816000D02*
X155548000Y-115352000D01*
X158298000Y-117816000D02*
X155548000Y-117816000D01*
X165298000Y-117816000D02*
X158298000Y-117816000D01*
X158298000Y-122816000D02*
X158798000Y-122816000D01*
X165298000Y-117816000D02*
X158298000Y-117816000D01*
X158298000Y-122816000D02*
X158798000Y-122816000D01*
X158298000Y-117816000D02*
X155548000Y-117816000D01*
X160298000Y-131816000D02*
X164798000Y-131816000D01*
X168048000Y-117816000D02*
X165298000Y-117816000D01*
X157226000Y-109416000D02*
X166370000Y-109416000D01*
X158798000Y-122816000D02*
X158798000Y-124816000D01*
X165298000Y-122816000D02*
X165298000Y-117816000D01*
X157276000Y-109416000D02*
X166320000Y-109416000D01*
X158798000Y-122816000D02*
X158798000Y-124816000D01*
X168048000Y-117816000D02*
X168048000Y-115352000D01*
X160298000Y-124816000D02*
X160298000Y-131816000D01*
X164798000Y-122816000D02*
X165298000Y-122816000D01*
X168048000Y-117816000D02*
X168048000Y-115452000D01*
X164798000Y-131816000D02*
X164798000Y-122816000D01*
X160298000Y-131816000D02*
X164798000Y-131816000D01*
X158798000Y-124816000D02*
X160298000Y-124816000D01*
X157326000Y-109416000D02*
X166270000Y-109416000D01*
X158298000Y-117816000D02*
X158298000Y-122816000D01*
X164798000Y-122816000D02*
X165298000Y-122816000D01*
X155548000Y-117816000D02*
X155548000Y-115452000D01*
D14*
X152940000Y-112816000D02*
G75*
G03*
X152940000Y-112816000I-100000J0D01*
G01*
D10*
%TO.C,R1*%
X118618724Y-80024500D02*
X118109276Y-80024500D01*
X118618724Y-78979500D02*
X118109276Y-78979500D01*
%TO.C,C6*%
X130409733Y-90168000D02*
X130702267Y-90168000D01*
X130409733Y-91188000D02*
X130702267Y-91188000D01*
%TO.C,R3*%
X147066724Y-75452500D02*
X146557276Y-75452500D01*
X147066724Y-74407500D02*
X146557276Y-74407500D01*
%TO.C,R25*%
X90409500Y-103123276D02*
X90409500Y-103632724D01*
X91454500Y-103123276D02*
X91454500Y-103632724D01*
%TO.C,C21*%
X63752000Y-75037733D02*
X63752000Y-75330267D01*
X64772000Y-75037733D02*
X64772000Y-75330267D01*
%TO.C,C20*%
X62994000Y-75037733D02*
X62994000Y-75330267D01*
X61974000Y-75037733D02*
X61974000Y-75330267D01*
%TO.C,U4*%
X83237000Y-59336000D02*
X83237000Y-64636000D01*
X83237000Y-64636000D02*
X90977000Y-64636000D01*
X90977000Y-59336000D02*
X83237000Y-59336000D01*
X90977000Y-60986000D02*
X90977000Y-59336000D01*
X90977000Y-64636000D02*
X90977000Y-62986000D01*
X90977000Y-60986000D02*
G75*
G03*
X90977000Y-62986000I0J-1000000D01*
G01*
%TO.C,J2*%
X118618000Y-80966000D02*
X136458000Y-80966000D01*
X117348000Y-83626000D02*
X116018000Y-83626000D01*
X136458000Y-83626000D02*
X136458000Y-80966000D01*
X118618000Y-83626000D02*
X118618000Y-80966000D01*
X116018000Y-83626000D02*
X116018000Y-82296000D01*
X118618000Y-83626000D02*
X136458000Y-83626000D01*
%TO.C,C9*%
X127400267Y-74932000D02*
X127107733Y-74932000D01*
X127400267Y-73912000D02*
X127107733Y-73912000D01*
D16*
%TO.C,S2*%
X62652000Y-114808000D02*
X62652000Y-114808000D01*
D14*
X60927000Y-119307000D02*
X60527000Y-119307000D01*
X61602000Y-117108000D02*
X61602000Y-117808000D01*
X61527000Y-117108000D02*
X62127000Y-117108000D01*
X59527000Y-117808000D02*
X57927000Y-117808000D01*
X55327000Y-112108000D02*
X55327000Y-117108000D01*
X60527000Y-118108000D02*
X60527000Y-119808000D01*
X55327000Y-117108000D02*
X55927000Y-117108000D01*
X62127000Y-117108000D02*
X62127000Y-112108000D01*
X56927000Y-119808000D02*
X56927000Y-118108000D01*
X55852000Y-117808000D02*
X55852000Y-117108000D01*
X56927000Y-119808000D02*
X56527000Y-119308000D01*
X60527000Y-119808000D02*
X60927000Y-119307000D01*
X60527000Y-119808000D02*
X56927000Y-119808000D01*
D16*
X62752000Y-114808000D02*
X62752000Y-114808000D01*
D14*
X56527000Y-119308000D02*
X56927000Y-119308000D01*
X56327000Y-117808000D02*
X55852000Y-117808000D01*
X62127000Y-112108000D02*
X55327000Y-112108000D01*
X61602000Y-117808000D02*
X61127000Y-117808000D01*
D16*
X62752000Y-114808000D02*
G75*
G03*
X62652000Y-114808000I-50000J0D01*
G01*
X62652000Y-114808000D02*
G75*
G03*
X62752000Y-114808000I50000J0D01*
G01*
D10*
%TO.C,R22*%
X59929500Y-103123276D02*
X59929500Y-103632724D01*
X60974500Y-103123276D02*
X60974500Y-103632724D01*
%TO.C,C15*%
X171850267Y-56390000D02*
X171557733Y-56390000D01*
X171850267Y-55370000D02*
X171557733Y-55370000D01*
%TO.C,C18*%
X173628267Y-71880000D02*
X173335733Y-71880000D01*
X173628267Y-72900000D02*
X173335733Y-72900000D01*
%TO.C,C8*%
X146958267Y-72642000D02*
X146665733Y-72642000D01*
X146958267Y-73662000D02*
X146665733Y-73662000D01*
%TO.C,R26*%
X100569500Y-103123276D02*
X100569500Y-103632724D01*
X101614500Y-103123276D02*
X101614500Y-103632724D01*
%TO.C,C3*%
X140464000Y-103639233D02*
X140464000Y-103931767D01*
X139444000Y-103639233D02*
X139444000Y-103931767D01*
%TD*%
M02*
