M48
; DRILL file {KiCad (6.0.9)} date Mon May 29 16:16:37 2023
; FORMAT={-:-/ absolute / inch / decimal}
; #@! TF.CreationDate,2023-05-29T16:16:37-07:00
; #@! TF.GenerationSoftware,Kicad,Pcbnew,(6.0.9)
; #@! TF.FileFunction,Plated,1,4,PTH
FMAT,2
INCH
; #@! TA.AperFunction,Plated,PTH,ViaDrill
T1C0.0157
; #@! TA.AperFunction,Plated,PTH,ComponentDrill
T2C0.0276
; #@! TA.AperFunction,Plated,PTH,ComponentDrill
T3C0.0315
; #@! TA.AperFunction,Plated,PTH,ComponentDrill
T4C0.0362
; #@! TA.AperFunction,Plated,PTH,ComponentDrill
T5C0.0394
; #@! TA.AperFunction,Plated,PTH,ComponentDrill
T6C0.0433
; #@! TA.AperFunction,Plated,PTH,ComponentDrill
T7C0.0450
; #@! TA.AperFunction,Plated,PTH,ComponentDrill
T8C0.0551
; #@! TA.AperFunction,Plated,PTH,ComponentDrill
T9C0.0730
; #@! TA.AperFunction,Plated,PTH,ComponentDrill
T10C0.0866
; #@! TA.AperFunction,Plated,PTH,ComponentDrill
T11C0.0906
%
G90
G05
T1
X1.78Y-3.02
X1.81Y-2.97
X1.85Y-3.0
X1.88Y-2.3
X2.01Y-2.94
X2.05Y-2.54
X2.06Y-2.38
X2.21Y-2.88
X2.31Y-2.88
X2.35Y-2.51
X2.35Y-2.56
X2.35Y-2.61
X2.4Y-2.51
X2.4Y-2.56
X2.4Y-2.61
X2.41Y-2.88
X2.45Y-2.51
X2.45Y-2.56
X2.45Y-2.61
X2.46Y-3.04
X2.61Y-2.8829
X2.8Y-2.22
X2.83Y-3.0285
X3.87Y-2.9
X3.98Y-3.9825
X4.66Y-3.6
X4.66Y-3.78
X4.8467Y-3.7985
X4.87Y-3.68
X4.922Y-2.9938
X5.05Y-3.54
X5.05Y-3.59
X5.0562Y-3.69
X5.2105Y-3.6856
X5.2179Y-3.5721
X5.3507Y-2.9761
X5.4Y-3.31
X5.4Y-3.95
X5.4207Y-2.9761
X5.4415Y-4.11
X5.51Y-4.0
X5.51Y-4.18
X5.55Y-3.14
X5.55Y-3.33
X5.56Y-4.0815
X5.61Y-4.0815
X5.62Y-3.14
X5.62Y-3.31
X5.66Y-4.08
X5.67Y-2.87
X5.67Y-2.97
X5.69Y-3.14
X5.7204Y-4.0817
X5.7598Y-3.1402
X5.8115Y-3.6256
X5.82Y-4.14
X5.82Y-4.3225
X5.8202Y-3.1098
X5.8684Y-3.7084
X5.87Y-3.11
X5.87Y-3.19
X5.9Y-3.38
X5.9776Y-3.6144
X5.9944Y-3.65
X6.03Y-3.71
X6.4845Y-4.0038
X6.51Y-4.0608
X6.52Y-2.31
X6.5538Y-4.0296
X6.56Y-4.1102
X6.59Y-4.08
X6.62Y-2.33
X6.66Y-2.2
X6.68Y-2.33
X6.73Y-2.33
X6.79Y-2.9
X6.89Y-2.69
X6.92Y-2.59
X6.92Y-2.81
X6.99Y-2.2
X7.03Y-2.34
X7.09Y-2.46
X7.12Y-2.28
X7.14Y-2.77
T2
X1.8442Y-4.52
X1.8894Y-4.52
X1.9347Y-4.52
X1.98Y-4.52
X2.2442Y-4.52
X2.2894Y-4.52
X2.3347Y-4.52
X2.38Y-4.52
X2.6442Y-4.52
X2.6894Y-4.52
X2.7347Y-4.52
X2.78Y-4.52
X3.0442Y-4.52
X3.0894Y-4.52
X3.1347Y-4.52
X3.18Y-4.52
X3.4442Y-4.52
X3.4894Y-4.52
X3.5347Y-4.52
X3.58Y-4.52
X3.8442Y-4.52
X3.8894Y-4.52
X3.9347Y-4.52
X3.98Y-4.52
T3
X3.3294Y-2.2904
X3.3294Y-2.5904
X3.4294Y-2.2904
X3.4294Y-2.5904
X3.5294Y-2.2904
X3.5294Y-2.5904
X3.7906Y-2.2896
X3.7906Y-2.5896
X3.8906Y-2.2896
X3.8906Y-2.5896
X3.9906Y-2.2896
X3.9906Y-2.5896
X4.24Y-2.3
X4.24Y-2.6
X4.34Y-2.3
X4.34Y-2.6
X4.44Y-2.3
X4.44Y-2.6
T4
X6.7Y-1.9713
X6.7Y-2.05
X6.7984Y-1.9713
X6.7984Y-2.05
T5
X1.8491Y-4.6066
X1.9751Y-4.6066
X2.2491Y-4.6066
X2.3751Y-4.6066
X2.6491Y-4.6066
X2.7751Y-4.6066
X3.0491Y-4.6066
X3.1751Y-4.6066
X3.4491Y-4.6066
X3.5751Y-4.6066
X3.8491Y-4.6066
X3.9751Y-4.6066
X4.62Y-3.24
X4.72Y-3.24
X4.7402Y-4.0978
X4.82Y-3.24
X4.8402Y-4.0978
X4.92Y-3.24
X4.9402Y-4.0978
X5.02Y-3.24
X5.0402Y-4.0978
X5.12Y-3.24
X5.1402Y-4.0978
X5.22Y-3.24
X5.2402Y-4.0978
X5.32Y-3.24
X5.3402Y-4.0978
T6
X6.2716Y-4.4416
X6.2716Y-4.54
X6.37Y-4.54
X6.4684Y-4.4416
X6.4684Y-4.54
T7
X3.637Y-2.15
X4.18Y-2.15
T8
X3.6726Y-1.8975
X3.8694Y-1.8975
X4.0663Y-1.8975
X4.2631Y-1.8975
X4.46Y-1.8975
X4.6568Y-1.8975
X4.8537Y-1.8975
X4.953Y-2.25
X4.953Y-2.67
X5.0505Y-1.8975
X5.14Y-2.25
X5.14Y-2.67
X5.2474Y-1.8975
X5.327Y-2.25
X5.327Y-2.67
X5.4442Y-1.8975
X5.6411Y-1.8975
X5.823Y-2.25
X5.823Y-2.67
X5.8379Y-1.8975
X6.01Y-2.25
X6.01Y-2.67
X6.197Y-2.25
X6.197Y-2.67
T9
X7.115Y-4.57
X7.12Y-3.77
X7.12Y-3.92
X7.12Y-4.07
X7.31Y-3.77
X7.31Y-3.92
X7.31Y-4.07
X7.315Y-4.57
T11
X6.5122Y-1.8646
X6.9862Y-1.8646
T10
G00X6.1102Y-4.4022
M15
G01X6.1141Y-4.4022
M16
G05
G00X6.6259Y-4.4022
M15
G01X6.6298Y-4.4022
M16
G05
T0
M30
