%TF.GenerationSoftware,KiCad,Pcbnew,(6.0.9)*%
%TF.CreationDate,2023-05-29T16:16:24-07:00*%
%TF.ProjectId,DSP_TU,4453505f-5455-42e6-9b69-6361645f7063,rev?*%
%TF.SameCoordinates,Original*%
%TF.FileFunction,Copper,L4,Bot*%
%TF.FilePolarity,Positive*%
%FSLAX46Y46*%
G04 Gerber Fmt 4.6, Leading zero omitted, Abs format (unit mm)*
G04 Created by KiCad (PCBNEW (6.0.9)) date 2023-05-29 16:16:24*
%MOMM*%
%LPD*%
G01*
G04 APERTURE LIST*
%TA.AperFunction,ComponentPad*%
%ADD10R,1.700000X1.700000*%
%TD*%
%TA.AperFunction,ComponentPad*%
%ADD11O,1.700000X1.700000*%
%TD*%
%TA.AperFunction,ComponentPad*%
%ADD12R,1.428000X1.428000*%
%TD*%
%TA.AperFunction,ComponentPad*%
%ADD13C,1.428000*%
%TD*%
%TA.AperFunction,ComponentPad*%
%ADD14C,3.316000*%
%TD*%
%TA.AperFunction,ComponentPad*%
%ADD15R,0.950000X0.950000*%
%TD*%
%TA.AperFunction,ComponentPad*%
%ADD16C,0.950000*%
%TD*%
%TA.AperFunction,ComponentPad*%
%ADD17C,1.500000*%
%TD*%
%TA.AperFunction,ComponentPad*%
%ADD18R,2.100000X2.100000*%
%TD*%
%TA.AperFunction,ComponentPad*%
%ADD19C,2.100000*%
%TD*%
%TA.AperFunction,ComponentPad*%
%ADD20R,1.600000X1.600000*%
%TD*%
%TA.AperFunction,ComponentPad*%
%ADD21O,1.600000X1.600000*%
%TD*%
%TA.AperFunction,ComponentPad*%
%ADD22R,1.651000X1.651000*%
%TD*%
%TA.AperFunction,ComponentPad*%
%ADD23C,1.651000*%
%TD*%
%TA.AperFunction,ComponentPad*%
%ADD24C,2.362200*%
%TD*%
%TA.AperFunction,ComponentPad*%
%ADD25R,1.650000X1.650000*%
%TD*%
%TA.AperFunction,ComponentPad*%
%ADD26C,1.650000*%
%TD*%
%TA.AperFunction,ComponentPad*%
%ADD27O,3.316000X6.632000*%
%TD*%
%TA.AperFunction,ViaPad*%
%ADD28C,0.800000*%
%TD*%
%TA.AperFunction,Conductor*%
%ADD29C,0.250000*%
%TD*%
%TA.AperFunction,Conductor*%
%ADD30C,0.500000*%
%TD*%
G04 APERTURE END LIST*
D10*
%TO.P,J1,1,Pin_1*%
%TO.N,+3V3*%
X135641000Y-104083000D03*
D11*
%TO.P,J1,2,Pin_2*%
%TO.N,GND*%
X133101000Y-104083000D03*
%TO.P,J1,3,Pin_3*%
%TO.N,Net-(J1-Pad3)*%
X130561000Y-104083000D03*
%TO.P,J1,4,Pin_4*%
%TO.N,Net-(J1-Pad4)*%
X128021000Y-104083000D03*
%TO.P,J1,5,Pin_5*%
%TO.N,Net-(J1-Pad5)*%
X125481000Y-104083000D03*
%TO.P,J1,6,Pin_6*%
%TO.N,Net-(J1-Pad6)*%
X122941000Y-104083000D03*
%TO.P,J1,7,Pin_7*%
%TO.N,Net-(J1-Pad7)*%
X120401000Y-104083000D03*
%TD*%
D12*
%TO.P,J3,1,VBUS*%
%TO.N,Net-(C16-Pad1)*%
X170180000Y-52070000D03*
D13*
%TO.P,J3,2,D-*%
%TO.N,Net-(C15-Pad1)*%
X172680000Y-52070000D03*
%TO.P,J3,3,D+*%
%TO.N,Net-(C14-Pad1)*%
X172680000Y-50070000D03*
%TO.P,J3,4,GND*%
%TO.N,GND*%
X170180000Y-50070000D03*
D14*
%TO.P,J3,5,Shield*%
X177450000Y-47360000D03*
%TO.P,J3,6,SH*%
X165410000Y-47360000D03*
%TD*%
D15*
%TO.P,S6,L1,A__AMBER*%
%TO.N,Net-(R26-Pad2)*%
X101092000Y-114808000D03*
D16*
%TO.P,S6,L2,K_AMBER*%
%TO.N,GND*%
X97642000Y-114808000D03*
D17*
%TO.P,S6,MH1,MH1*%
X100967000Y-117008000D03*
%TO.P,S6,MH2,MH2*%
X97767000Y-117008000D03*
D16*
%TO.P,S6,S1,COM*%
%TO.N,TX_TOGGLEn*%
X99942000Y-114808000D03*
%TO.P,S6,S2,NO*%
%TO.N,GND*%
X98792000Y-114808000D03*
%TD*%
D15*
%TO.P,S5,L1,A__AMBER*%
%TO.N,Net-(R25-Pad2)*%
X90932000Y-114808000D03*
D16*
%TO.P,S5,L2,K_AMBER*%
%TO.N,GND*%
X87482000Y-114808000D03*
D17*
%TO.P,S5,MH1,MH1*%
X90807000Y-117008000D03*
%TO.P,S5,MH2,MH2*%
X87607000Y-117008000D03*
D16*
%TO.P,S5,S1,COM*%
%TO.N,KOS_TOGGLEn*%
X89782000Y-114808000D03*
%TO.P,S5,S2,NO*%
%TO.N,GND*%
X88632000Y-114808000D03*
%TD*%
D18*
%TO.P,J5,1,1*%
%TO.N,AFSK_INa*%
X148283000Y-48196000D03*
D19*
%TO.P,J5,2,2*%
%TO.N,AFSK_INb*%
X143283000Y-48196000D03*
%TO.P,J5,3,3*%
%TO.N,GND*%
X138283000Y-48196000D03*
%TO.P,J5,4,4*%
%TO.N,AFSK_OUTa*%
X133283000Y-48196000D03*
%TO.P,J5,5,5*%
%TO.N,AFSK_OUTb*%
X128283000Y-48196000D03*
%TO.P,J5,6,6*%
%TO.N,PTTa*%
X123283000Y-48196000D03*
%TO.P,J5,7,7*%
%TO.N,PTTb*%
X118283000Y-48196000D03*
%TO.P,J5,8,8*%
%TO.N,AUTOSTART*%
X113283000Y-48196000D03*
%TO.P,J5,9,9*%
%TO.N,GND*%
X108283000Y-48196000D03*
%TO.P,J5,10,10*%
X103283000Y-48196000D03*
%TO.P,J5,11,11*%
%TO.N,LOOPa*%
X98283000Y-48196000D03*
%TO.P,J5,12,12*%
%TO.N,LOOPb*%
X93283000Y-48196000D03*
%TD*%
D20*
%TO.P,K1,1,1*%
%TO.N,Net-(K1-Pad1)*%
X96281000Y-65776000D03*
D21*
%TO.P,K1,2,2*%
%TO.N,GND*%
X98821000Y-65776000D03*
%TO.P,K1,3,3*%
%TO.N,unconnected-(K1-Pad3)*%
X101361000Y-65776000D03*
%TO.P,K1,4,4*%
%TO.N,LOOPa*%
X101361000Y-58156000D03*
%TO.P,K1,5,5*%
%TO.N,unconnected-(K1-Pad5)*%
X98821000Y-58156000D03*
%TO.P,K1,6,6*%
%TO.N,Net-(CR1-Pad2)*%
X96281000Y-58156000D03*
%TD*%
D20*
%TO.P,K2,1,1*%
%TO.N,Net-(K2-Pad1)*%
X107696000Y-66040000D03*
D21*
%TO.P,K2,2,2*%
%TO.N,GND*%
X110236000Y-66040000D03*
%TO.P,K2,3,3*%
%TO.N,unconnected-(K2-Pad3)*%
X112776000Y-66040000D03*
%TO.P,K2,4,4*%
%TO.N,PTTa*%
X112776000Y-58420000D03*
%TO.P,K2,5,5*%
%TO.N,unconnected-(K2-Pad5)*%
X110236000Y-58420000D03*
%TO.P,K2,6,6*%
%TO.N,PTTb*%
X107696000Y-58420000D03*
%TD*%
D18*
%TO.P,T2,1,1*%
%TO.N,Net-(C10-Pad1)*%
X125805500Y-67818000D03*
D19*
%TO.P,T2,2,2*%
%TO.N,unconnected-(T2-Pad2)*%
X130555500Y-67818000D03*
%TO.P,T2,3,3*%
%TO.N,GND*%
X135305500Y-67818000D03*
%TO.P,T2,4,4*%
%TO.N,AFSK_OUTa*%
X135305500Y-57150000D03*
%TO.P,T2,5,5*%
%TO.N,unconnected-(T2-Pad5)*%
X130555500Y-57150000D03*
%TO.P,T2,6,6*%
%TO.N,AFSK_OUTb*%
X125805500Y-57150000D03*
%TD*%
D15*
%TO.P,S1,L1,A__AMBER*%
%TO.N,Net-(R27-Pad2)*%
X50292000Y-114808000D03*
D16*
%TO.P,S1,L2,K_AMBER*%
%TO.N,GND*%
X46842000Y-114808000D03*
D17*
%TO.P,S1,MH1,MH1*%
X50167000Y-117008000D03*
%TO.P,S1,MH2,MH2*%
X46967000Y-117008000D03*
D16*
%TO.P,S1,S1,COM*%
%TO.N,MARK_HI_TOGGLEn*%
X49142000Y-114808000D03*
%TO.P,S1,S2,NO*%
%TO.N,GND*%
X47992000Y-114808000D03*
%TD*%
D15*
%TO.P,S4,L1,A__AMBER*%
%TO.N,Net-(R24-Pad2)*%
X80772000Y-114808000D03*
D16*
%TO.P,S4,L2,K_AMBER*%
%TO.N,GND*%
X77322000Y-114808000D03*
D17*
%TO.P,S4,MH1,MH1*%
X80647000Y-117008000D03*
%TO.P,S4,MH2,MH2*%
X77447000Y-117008000D03*
D16*
%TO.P,S4,S1,COM*%
%TO.N,MOTOR_TOGGLEn*%
X79622000Y-114808000D03*
%TO.P,S4,S2,NO*%
%TO.N,GND*%
X78472000Y-114808000D03*
%TD*%
D15*
%TO.P,S3,L1,A__AMBER*%
%TO.N,Net-(R23-Pad2)*%
X70612000Y-114808000D03*
D16*
%TO.P,S3,L2,K_AMBER*%
%TO.N,GND*%
X67162000Y-114808000D03*
D17*
%TO.P,S3,MH1,MH1*%
X70487000Y-117008000D03*
%TO.P,S3,MH2,MH2*%
X67287000Y-117008000D03*
D16*
%TO.P,S3,S1,COM*%
%TO.N,AUTOSTART_TOGGLEn*%
X69462000Y-114808000D03*
%TO.P,S3,S2,NO*%
%TO.N,GND*%
X68312000Y-114808000D03*
%TD*%
D22*
%TO.P,CR1,1,CATHODE/ANODE*%
%TO.N,LOOPa*%
X106172000Y-54610000D03*
D23*
%TO.P,CR1,2,CATHODE/ANODE*%
%TO.N,Net-(CR1-Pad2)*%
X92379800Y-54610000D03*
%TD*%
D18*
%TO.P,T1,1,PRI_1*%
%TO.N,AFSK_INa*%
X157404500Y-57150000D03*
D19*
%TO.P,T1,2,PRI_2*%
%TO.N,unconnected-(T1-Pad2)*%
X152654500Y-57150000D03*
%TO.P,T1,3,PRI_3*%
%TO.N,AFSK_INb*%
X147904500Y-57150000D03*
%TO.P,T1,4,SEC_1*%
%TO.N,Net-(C8-Pad1)*%
X147904500Y-67818000D03*
%TO.P,T1,5,SEC_2*%
%TO.N,unconnected-(T1-Pad5)*%
X152654500Y-67818000D03*
%TO.P,T1,6,SEC_3*%
%TO.N,Net-(T1-Pad6)*%
X157404500Y-67818000D03*
%TD*%
D24*
%TO.P,S8,1,1*%
%TO.N,unconnected-(S8-Pad1)*%
X180848000Y-95758000D03*
%TO.P,S8,2,2*%
%TO.N,+5V*%
X180848000Y-99568000D03*
%TO.P,S8,3,3*%
%TO.N,+5V_SW*%
X180848000Y-103378000D03*
%TO.P,S8,4,4*%
%TO.N,unconnected-(S8-Pad4)*%
X185674000Y-95758000D03*
%TO.P,S8,5,5*%
%TO.N,+5V*%
X185674000Y-99568000D03*
%TO.P,S8,6,6*%
%TO.N,+5V_SW*%
X185674000Y-103378000D03*
%TO.P,S8,7*%
%TO.N,N/C*%
X180721000Y-116078000D03*
%TO.P,S8,8*%
X185801000Y-116078000D03*
%TD*%
D25*
%TO.P,S7,1,1*%
%TO.N,ENCODER_SWn*%
X159298000Y-112816000D03*
D26*
%TO.P,S7,2,2*%
%TO.N,GND*%
X164298000Y-112816000D03*
%TO.P,S7,A,CHANNEL_A*%
%TO.N,QAn*%
X159298000Y-115316000D03*
%TO.P,S7,B,CHANNEL_B*%
%TO.N,QBn*%
X164298000Y-115316000D03*
%TO.P,S7,C,COMMON*%
%TO.N,GND*%
X161798000Y-115316000D03*
D27*
%TO.P,S7,S1,SHIELD*%
X155248000Y-111816000D03*
%TO.P,S7,S2,SHIELD*%
X168348000Y-111816000D03*
%TD*%
D20*
%TO.P,U4,1*%
%TO.N,Net-(CR1-Pad2)*%
X89647000Y-58176000D03*
D21*
%TO.P,U4,2*%
%TO.N,LOOPb*%
X87107000Y-58176000D03*
%TO.P,U4,3,NC*%
%TO.N,unconnected-(U4-Pad3)*%
X84567000Y-58176000D03*
%TO.P,U4,4*%
%TO.N,GND*%
X84567000Y-65796000D03*
%TO.P,U4,5*%
%TO.N,LOOP_SENSE*%
X87107000Y-65796000D03*
%TO.P,U4,6*%
%TO.N,unconnected-(U4-Pad6)*%
X89647000Y-65796000D03*
%TD*%
D10*
%TO.P,J2,1,Pin_1*%
%TO.N,MCLRn*%
X117348000Y-82296000D03*
D11*
%TO.P,J2,2,Pin_2*%
%TO.N,+3V3*%
X119888000Y-82296000D03*
%TO.P,J2,3,Pin_3*%
%TO.N,GND*%
X122428000Y-82296000D03*
%TO.P,J2,4,Pin_4*%
%TO.N,PGED*%
X124968000Y-82296000D03*
%TO.P,J2,5,Pin_5*%
%TO.N,PGEC*%
X127508000Y-82296000D03*
%TO.P,J2,6,Pin_6*%
%TO.N,unconnected-(J2-Pad6)*%
X130048000Y-82296000D03*
%TO.P,J2,7,Pin_7*%
%TO.N,unconnected-(J2-Pad7)*%
X132588000Y-82296000D03*
%TO.P,J2,8,Pin_8*%
%TO.N,IDLEn*%
X135128000Y-82296000D03*
%TD*%
D15*
%TO.P,S2,L1,A__AMBER*%
%TO.N,Net-(R22-Pad2)*%
X60452000Y-114808000D03*
D16*
%TO.P,S2,L2,K_AMBER*%
%TO.N,GND*%
X57002000Y-114808000D03*
D17*
%TO.P,S2,MH1,MH1*%
X60327000Y-117008000D03*
%TO.P,S2,MH2,MH2*%
X57127000Y-117008000D03*
D16*
%TO.P,S2,S1,COM*%
%TO.N,SHIFT_TOGGLEn*%
X59302000Y-114808000D03*
%TO.P,S2,S2,NO*%
%TO.N,GND*%
X58152000Y-114808000D03*
%TD*%
D28*
%TO.N,GND*%
X60960000Y-66294000D03*
X60960000Y-65024000D03*
X140970000Y-84582000D03*
X60960000Y-63754000D03*
X59690000Y-66294000D03*
X62230000Y-65024000D03*
X177546000Y-55880000D03*
X147611398Y-92091502D03*
X132347255Y-93613095D03*
X175768000Y-65786000D03*
X144018000Y-72898000D03*
X169672000Y-59182000D03*
X52324000Y-60452000D03*
X125018043Y-76041999D03*
X175768000Y-71374000D03*
X59690000Y-63754000D03*
X62484000Y-77216000D03*
X139954000Y-101600000D03*
X180086000Y-62484000D03*
X137684697Y-75592498D03*
X132535106Y-90730894D03*
X71120000Y-56388000D03*
X149056500Y-94192500D03*
X66294000Y-73226500D03*
X169164000Y-55880000D03*
X137160000Y-100330000D03*
X172466000Y-73660000D03*
X62230000Y-63754000D03*
X59690000Y-65024000D03*
X62230000Y-66294000D03*
X118364000Y-96012000D03*
%TO.N,+3V3*%
X47752000Y-58420000D03*
X56134000Y-73152000D03*
X61214000Y-73152000D03*
X181356000Y-70358000D03*
X135906697Y-75592498D03*
X151829859Y-91806440D03*
X153162000Y-94234000D03*
X144018000Y-75438000D03*
X140970000Y-79756000D03*
X128428500Y-93726000D03*
X139954000Y-106172000D03*
X118364000Y-91440000D03*
X128270000Y-89916000D03*
%TO.N,+5V_SW*%
X170942000Y-59182000D03*
X175006000Y-68326000D03*
%TO.N,PWRENn*%
X168148000Y-59182000D03*
X178562000Y-59436000D03*
%TO.N,LOOP_SENSE*%
X147832299Y-78989701D03*
%TO.N,WIFI_CSn*%
X146299701Y-79760299D03*
X52070000Y-64516000D03*
%TO.N,WIFI_SPI_CLK*%
X51054000Y-74676000D03*
X144526000Y-79756000D03*
%TO.N,WIFI_MOSI*%
X142748000Y-79756000D03*
X45974000Y-75438000D03*
%TO.N,WIFI_MISO*%
X142748000Y-84074000D03*
X46990000Y-76200000D03*
%TO.N,Net-(U1-Pad29)*%
X123698000Y-93472000D03*
X123105113Y-96482500D03*
%TO.N,U1CTSn*%
X143764000Y-103632000D03*
X165354000Y-103144500D03*
%TO.N,U1TX*%
X166465500Y-102352988D03*
X142494000Y-103669500D03*
%TO.N,U1RTSn*%
X138213500Y-104394000D03*
X166624000Y-104399000D03*
%TO.N,U1RX*%
X141224000Y-103669500D03*
X164705987Y-101695500D03*
%TO.N,Net-(T1-Pad6)*%
X137160000Y-84074000D03*
%TO.N,AUTOSTART*%
X180848000Y-57912000D03*
%TO.N,LOOP_KEY*%
X98298000Y-73660000D03*
X149098000Y-78994000D03*
%TO.N,WIFI_EN*%
X149098000Y-81026000D03*
X58674000Y-73152000D03*
%TO.N,AUTOSTARTn*%
X167386000Y-103632000D03*
X145298497Y-103674500D03*
%TO.N,WIFI_IRQn*%
X152258213Y-92709500D03*
X45212000Y-76708000D03*
%TO.N,WIFI_RESETn*%
X149860000Y-85852000D03*
X71882000Y-76924500D03*
%TO.N,TX_LED*%
X128270000Y-91186000D03*
X101092000Y-101156500D03*
%TO.N,TX_TOGGLEn*%
X147828000Y-109792500D03*
X147828000Y-105156000D03*
%TO.N,+5V*%
X165608000Y-58674000D03*
%TD*%
D29*
%TO.N,+5V_SW*%
X175006000Y-63246000D02*
X175006000Y-68326000D01*
X170942000Y-59182000D02*
X175006000Y-63246000D01*
%TO.N,PWRENn*%
X168910000Y-58420000D02*
X171196000Y-58420000D01*
X177546000Y-58420000D02*
X178562000Y-59436000D01*
X171196000Y-58420000D02*
X177546000Y-58420000D01*
X168148000Y-59182000D02*
X168910000Y-58420000D01*
%TO.N,LOOP_SENSE*%
X145220189Y-76766499D02*
X145669690Y-77216000D01*
X145669690Y-77216000D02*
X146058598Y-77216000D01*
X146058598Y-77216000D02*
X147832299Y-78989701D01*
X98077499Y-76766499D02*
X145220189Y-76766499D01*
X87107000Y-65796000D02*
X98077499Y-76766499D01*
%TO.N,WIFI_CSn*%
X54160000Y-74480000D02*
X93148310Y-74480000D01*
X144458903Y-77919501D02*
X146299701Y-79760299D01*
X143323811Y-77665501D02*
X143577811Y-77919501D01*
X143577811Y-77919501D02*
X144458903Y-77919501D01*
X52070000Y-72390000D02*
X54160000Y-74480000D01*
X96333811Y-77665501D02*
X143323811Y-77665501D01*
X93148310Y-74480000D02*
X96333811Y-77665501D01*
X52070000Y-64516000D02*
X52070000Y-72390000D01*
%TO.N,WIFI_SPI_CLK*%
X51308000Y-74930000D02*
X51054000Y-74676000D01*
X96264620Y-78232000D02*
X92962620Y-74930000D01*
X92962620Y-74930000D02*
X51308000Y-74930000D01*
X144526000Y-79756000D02*
X143002000Y-78232000D01*
X143002000Y-78232000D02*
X96264620Y-78232000D01*
%TO.N,WIFI_MOSI*%
X96136930Y-78740000D02*
X92834930Y-75438000D01*
X141732000Y-78740000D02*
X96136930Y-78740000D01*
X142748000Y-79756000D02*
X141732000Y-78740000D01*
X92834930Y-75438000D02*
X45974000Y-75438000D01*
%TO.N,WIFI_MISO*%
X92710000Y-76200000D02*
X101854000Y-85344000D01*
X101854000Y-85344000D02*
X138938000Y-85344000D01*
X142494000Y-83820000D02*
X142748000Y-84074000D01*
X46990000Y-76200000D02*
X92710000Y-76200000D01*
X140462000Y-83820000D02*
X142494000Y-83820000D01*
X138938000Y-85344000D02*
X140462000Y-83820000D01*
%TO.N,Net-(U1-Pad29)*%
X123698000Y-95758000D02*
X123105113Y-96350887D01*
X123105113Y-96350887D02*
X123105113Y-96482500D01*
X123698000Y-93472000D02*
X123698000Y-95758000D01*
%TO.N,U1CTSn*%
X165100000Y-102870000D02*
X165354000Y-103124000D01*
X165354000Y-103124000D02*
X165354000Y-103144500D01*
X144446500Y-102949500D02*
X144526000Y-102870000D01*
X143764000Y-103632000D02*
X144446500Y-102949500D01*
X144526000Y-102870000D02*
X165100000Y-102870000D01*
%TO.N,U1TX*%
X142494000Y-103669500D02*
X143743500Y-102420000D01*
X166398488Y-102420000D02*
X166465500Y-102352988D01*
X143743500Y-102420000D02*
X166398488Y-102420000D01*
%TO.N,U1RTSn*%
X166623500Y-104399500D02*
X166624000Y-104399000D01*
X138213500Y-104394000D02*
X138219000Y-104399500D01*
X138219000Y-104399500D02*
X166623500Y-104399500D01*
%TO.N,U1RX*%
X164592000Y-101809487D02*
X164705987Y-101695500D01*
X164592000Y-101970000D02*
X164592000Y-101809487D01*
X142923500Y-101970000D02*
X143929896Y-101970000D01*
X143929896Y-101970000D02*
X164592000Y-101970000D01*
X141224000Y-103669500D02*
X142923500Y-101970000D01*
%TO.N,Net-(T1-Pad6)*%
X139192000Y-82042000D02*
X156972000Y-82042000D01*
X156972000Y-82042000D02*
X157404500Y-81609500D01*
X157404500Y-81609500D02*
X157404500Y-67818000D01*
X137160000Y-84074000D02*
X139192000Y-82042000D01*
%TO.N,AUTOSTART*%
X157226000Y-53086000D02*
X116332000Y-53086000D01*
X116332000Y-53086000D02*
X113283000Y-50037000D01*
X162052000Y-57912000D02*
X157226000Y-53086000D01*
X180848000Y-57912000D02*
X162052000Y-57912000D01*
X113283000Y-50037000D02*
X113283000Y-48196000D01*
%TO.N,LOOP_KEY*%
X146870000Y-76766000D02*
X145855380Y-76766000D01*
X145855380Y-76766000D02*
X145406378Y-76316998D01*
X126804998Y-76316998D02*
X125730000Y-75242000D01*
X125730000Y-75242000D02*
X125730000Y-75184000D01*
X124206000Y-73660000D02*
X98298000Y-73660000D01*
X149098000Y-78994000D02*
X146870000Y-76766000D01*
X125730000Y-75184000D02*
X124206000Y-73660000D01*
X145406378Y-76316998D02*
X126804998Y-76316998D01*
%TO.N,WIFI_EN*%
X93334000Y-74030000D02*
X96520000Y-77216000D01*
X93218000Y-74030000D02*
X93334000Y-74030000D01*
X144780000Y-77216000D02*
X148336000Y-80772000D01*
X148590000Y-81026000D02*
X149098000Y-81026000D01*
X148336000Y-80772000D02*
X148590000Y-81026000D01*
X59552000Y-74030000D02*
X59944000Y-74030000D01*
X59944000Y-74030000D02*
X93218000Y-74030000D01*
X143764000Y-77216000D02*
X144780000Y-77216000D01*
X96520000Y-77216000D02*
X143764000Y-77216000D01*
X58674000Y-73152000D02*
X59552000Y-74030000D01*
%TO.N,AUTOSTARTn*%
X166113847Y-103883848D02*
X145507845Y-103883848D01*
X145507845Y-103883848D02*
X145298497Y-103674500D01*
X167386000Y-103632000D02*
X166365695Y-103632000D01*
X166365695Y-103632000D02*
X166113847Y-103883848D01*
%TO.N,WIFI_IRQn*%
X101539208Y-86302000D02*
X149040000Y-86302000D01*
X46445000Y-77941000D02*
X93178208Y-77941000D01*
X93178208Y-77941000D02*
X101539208Y-86302000D01*
X45212000Y-76708000D02*
X46445000Y-77941000D01*
X152654000Y-92313713D02*
X152258213Y-92709500D01*
X152654000Y-89916000D02*
X152654000Y-92313713D01*
X149040000Y-86302000D02*
X152654000Y-89916000D01*
%TO.N,WIFI_RESETn*%
X101027802Y-85154198D02*
X101725604Y-85852000D01*
X101725604Y-85852000D02*
X149860000Y-85852000D01*
X71882000Y-76924500D02*
X72156500Y-76650000D01*
X92523604Y-76650000D02*
X101027802Y-85154198D01*
X73660000Y-76650000D02*
X92523604Y-76650000D01*
X72156500Y-76650000D02*
X73660000Y-76650000D01*
%TO.N,TX_LED*%
X127799000Y-90715000D02*
X111533500Y-90715000D01*
X111533500Y-90715000D02*
X101092000Y-101156500D01*
X128270000Y-91186000D02*
X127799000Y-90715000D01*
%TO.N,TX_TOGGLEn*%
X147828000Y-105156000D02*
X147828000Y-109792500D01*
D30*
%TO.N,+5V*%
X165608000Y-58674000D02*
X165608000Y-71882000D01*
X165608000Y-71882000D02*
X175768000Y-82042000D01*
X175768000Y-82042000D02*
X175768000Y-97282000D01*
X175768000Y-97282000D02*
X178054000Y-99568000D01*
X178054000Y-99568000D02*
X185674000Y-99568000D01*
%TD*%
M02*
