%TF.GenerationSoftware,KiCad,Pcbnew,8.0.2*%
%TF.CreationDate,2024-12-21T13:17:58-07:00*%
%TF.ProjectId,DSP_TU,4453505f-5455-42e6-9b69-6361645f7063,C*%
%TF.SameCoordinates,Original*%
%TF.FileFunction,Soldermask,Top*%
%TF.FilePolarity,Negative*%
%FSLAX46Y46*%
G04 Gerber Fmt 4.6, Leading zero omitted, Abs format (unit mm)*
G04 Created by KiCad (PCBNEW 8.0.2) date 2024-12-21 13:17:58*
%MOMM*%
%LPD*%
G01*
G04 APERTURE LIST*
G04 Aperture macros list*
%AMRoundRect*
0 Rectangle with rounded corners*
0 $1 Rounding radius*
0 $2 $3 $4 $5 $6 $7 $8 $9 X,Y pos of 4 corners*
0 Add a 4 corners polygon primitive as box body*
4,1,4,$2,$3,$4,$5,$6,$7,$8,$9,$2,$3,0*
0 Add four circle primitives for the rounded corners*
1,1,$1+$1,$2,$3*
1,1,$1+$1,$4,$5*
1,1,$1+$1,$6,$7*
1,1,$1+$1,$8,$9*
0 Add four rect primitives between the rounded corners*
20,1,$1+$1,$2,$3,$4,$5,0*
20,1,$1+$1,$4,$5,$6,$7,0*
20,1,$1+$1,$6,$7,$8,$9,0*
20,1,$1+$1,$8,$9,$2,$3,0*%
G04 Aperture macros list end*
%ADD10RoundRect,0.237500X-0.237500X0.250000X-0.237500X-0.250000X0.237500X-0.250000X0.237500X0.250000X0*%
%ADD11R,1.700000X1.700000*%
%ADD12O,1.700000X1.700000*%
%ADD13RoundRect,0.237500X0.300000X0.237500X-0.300000X0.237500X-0.300000X-0.237500X0.300000X-0.237500X0*%
%ADD14R,1.450000X1.200000*%
%ADD15C,4.500000*%
%ADD16R,1.428000X1.428000*%
%ADD17C,1.428000*%
%ADD18C,3.316000*%
%ADD19RoundRect,0.237500X-0.250000X-0.237500X0.250000X-0.237500X0.250000X0.237500X-0.250000X0.237500X0*%
%ADD20R,0.950000X0.950000*%
%ADD21C,0.950000*%
%ADD22C,1.500000*%
%ADD23R,0.600000X0.600000*%
%ADD24R,0.600000X0.400000*%
%ADD25RoundRect,0.237500X0.237500X-0.250000X0.237500X0.250000X-0.237500X0.250000X-0.237500X-0.250000X0*%
%ADD26R,2.100000X2.100000*%
%ADD27C,2.100000*%
%ADD28R,1.600000X1.600000*%
%ADD29O,1.600000X1.600000*%
%ADD30RoundRect,0.237500X0.237500X-0.300000X0.237500X0.300000X-0.237500X0.300000X-0.237500X-0.300000X0*%
%ADD31RoundRect,0.237500X0.250000X0.237500X-0.250000X0.237500X-0.250000X-0.237500X0.250000X-0.237500X0*%
%ADD32R,1.900000X0.800000*%
%ADD33R,0.800000X1.900000*%
%ADD34RoundRect,0.237500X-0.300000X-0.237500X0.300000X-0.237500X0.300000X0.237500X-0.300000X0.237500X0*%
%ADD35R,1.200000X0.600000*%
%ADD36RoundRect,0.237500X-0.237500X0.300000X-0.237500X-0.300000X0.237500X-0.300000X0.237500X0.300000X0*%
%ADD37RoundRect,0.150000X-0.825000X-0.150000X0.825000X-0.150000X0.825000X0.150000X-0.825000X0.150000X0*%
%ADD38R,1.651000X1.651000*%
%ADD39C,1.651000*%
%ADD40C,2.362200*%
%ADD41RoundRect,0.125000X0.125000X-0.825000X0.125000X0.825000X-0.125000X0.825000X-0.125000X-0.825000X0*%
%ADD42RoundRect,0.150000X-0.512500X-0.150000X0.512500X-0.150000X0.512500X0.150000X-0.512500X0.150000X0*%
%ADD43R,1.650000X1.650000*%
%ADD44C,1.650000*%
%ADD45O,3.316000X6.632000*%
%ADD46R,0.300000X1.475000*%
%ADD47R,1.475000X0.300000*%
G04 APERTURE END LIST*
D10*
%TO.C,R23*%
X70458000Y-128119500D03*
X70458000Y-129944500D03*
%TD*%
D11*
%TO.C,J1*%
X135487000Y-131737000D03*
D12*
X132947000Y-131737000D03*
X130407000Y-131737000D03*
X127867000Y-131737000D03*
X125327000Y-131737000D03*
X122787000Y-131737000D03*
X120247000Y-131737000D03*
%TD*%
D13*
%TO.C,C7*%
X122121000Y-128600200D03*
X120396000Y-128600200D03*
%TD*%
D14*
%TO.C,FB1*%
X165100000Y-34710000D03*
X165100000Y-36410000D03*
%TD*%
D11*
%TO.C,J7*%
X170026000Y-106680000D03*
D12*
X170026000Y-109220000D03*
X170026000Y-111760000D03*
X170026000Y-114300000D03*
X170026000Y-116840000D03*
X170026000Y-119380000D03*
X170026000Y-121920000D03*
X170026000Y-124460000D03*
%TD*%
D15*
%TO.C,MH1*%
X56600000Y-98260000D03*
%TD*%
D11*
%TO.C,J6*%
X100176000Y-101092000D03*
D12*
X102716000Y-101092000D03*
X105256000Y-101092000D03*
X107796000Y-101092000D03*
X110336000Y-101092000D03*
X112876000Y-101092000D03*
X115416000Y-101092000D03*
X117956000Y-101092000D03*
%TD*%
D16*
%TO.C,J3*%
X170026000Y-28745000D03*
D17*
X172526000Y-28745000D03*
X172526000Y-26745000D03*
X170026000Y-26745000D03*
D18*
X177296000Y-24035000D03*
X165256000Y-24035000D03*
%TD*%
D19*
%TO.C,R10*%
X176733500Y-39591000D03*
X178558500Y-39591000D03*
%TD*%
D20*
%TO.C,S6*%
X100938000Y-142462000D03*
D21*
X97488000Y-142462000D03*
D22*
X100813000Y-144662000D03*
X97613000Y-144662000D03*
D21*
X99788000Y-142462000D03*
X98638000Y-142462000D03*
%TD*%
D23*
%TO.C,U5*%
X177254000Y-43921000D03*
D24*
X177254000Y-44671000D03*
D23*
X177254000Y-45421000D03*
X179054000Y-45421000D03*
D24*
X179054000Y-44671000D03*
D23*
X179054000Y-43921000D03*
%TD*%
D25*
%TO.C,R14*%
X144372000Y-108608500D03*
X144372000Y-106783500D03*
%TD*%
D20*
%TO.C,S5*%
X90778000Y-142462000D03*
D21*
X87328000Y-142462000D03*
D22*
X90653000Y-144662000D03*
X87453000Y-144662000D03*
D21*
X89628000Y-142462000D03*
X88478000Y-142462000D03*
%TD*%
D25*
%TO.C,R17*%
X64008000Y-68984500D03*
X64008000Y-67159500D03*
%TD*%
D26*
%TO.C,J5*%
X148129000Y-23400000D03*
D27*
X143129000Y-23400000D03*
X138129000Y-23400000D03*
X133129000Y-23400000D03*
X128129000Y-23400000D03*
X123129000Y-23400000D03*
X118129000Y-23400000D03*
X113129000Y-23400000D03*
X108129000Y-23400000D03*
X103129000Y-23400000D03*
X98129000Y-23400000D03*
X93129000Y-23400000D03*
%TD*%
D25*
%TO.C,R19*%
X165962000Y-103782500D03*
X165962000Y-101957500D03*
%TD*%
D28*
%TO.C,K1*%
X99060000Y-45085000D03*
D29*
X101600000Y-45085000D03*
X104140000Y-45085000D03*
X104140000Y-37465000D03*
X101600000Y-37465000D03*
X99060000Y-37465000D03*
%TD*%
D30*
%TO.C,C1*%
X140816000Y-108558500D03*
X140816000Y-106833500D03*
%TD*%
D10*
%TO.C,R24*%
X80618000Y-128119500D03*
X80618000Y-129944500D03*
%TD*%
D28*
%TO.C,K2*%
X110475000Y-45349000D03*
D29*
X113015000Y-45349000D03*
X115555000Y-45349000D03*
X115555000Y-37729000D03*
X113015000Y-37729000D03*
X110475000Y-37729000D03*
%TD*%
D31*
%TO.C,R9*%
X109216500Y-95758000D03*
X107391500Y-95758000D03*
%TD*%
D13*
%TO.C,C11*%
X127962500Y-101854000D03*
X126237500Y-101854000D03*
%TD*%
D31*
%TO.C,R6*%
X172462500Y-36543000D03*
X170637500Y-36543000D03*
%TD*%
D32*
%TO.C,U7*%
X72897000Y-61563000D03*
X72897000Y-60543000D03*
X72897000Y-59527000D03*
X72897000Y-58511000D03*
X72897000Y-54447000D03*
X72897000Y-52415000D03*
X72897000Y-51399000D03*
X72897000Y-50383000D03*
X72897000Y-49367000D03*
X58167000Y-51399000D03*
X58167000Y-52415000D03*
X58167000Y-53431000D03*
X58167000Y-54447000D03*
X58167000Y-55463000D03*
X58167000Y-56479000D03*
X58167000Y-57495000D03*
X58167000Y-58511000D03*
X58167000Y-59527000D03*
X58167000Y-60543000D03*
D33*
X60067000Y-64233000D03*
X63115000Y-64233000D03*
X64131000Y-64233000D03*
X65147000Y-64233000D03*
X66163000Y-64233000D03*
X67179000Y-64233000D03*
X68195000Y-64233000D03*
X69211000Y-64233000D03*
X70227000Y-64233000D03*
%TD*%
D31*
%TO.C,R20*%
X108454500Y-106172000D03*
X106629500Y-106172000D03*
%TD*%
D34*
%TO.C,C2*%
X129285500Y-119380000D03*
X131010500Y-119380000D03*
%TD*%
D15*
%TO.C,MH2*%
X116586000Y-60460000D03*
%TD*%
D35*
%TO.C,U2*%
X130676000Y-99888000D03*
X130676000Y-100838000D03*
X130676000Y-101788000D03*
X133176000Y-101788000D03*
X133176000Y-100838000D03*
X133176000Y-99888000D03*
%TD*%
D36*
%TO.C,C22*%
X60198000Y-67209500D03*
X60198000Y-68934500D03*
%TD*%
D11*
%TO.C,J4*%
X50038000Y-76200000D03*
D12*
X52578000Y-76200000D03*
X55118000Y-76200000D03*
X57658000Y-76200000D03*
X60198000Y-76200000D03*
X62738000Y-76200000D03*
X65278000Y-76200000D03*
X67818000Y-76200000D03*
%TD*%
D10*
%TO.C,R27*%
X50138000Y-128119500D03*
X50138000Y-129944500D03*
%TD*%
D31*
%TO.C,R4*%
X135632500Y-103632000D03*
X133807500Y-103632000D03*
%TD*%
D26*
%TO.C,T2*%
X124154500Y-47244000D03*
D27*
X128904500Y-47244000D03*
X133654500Y-47244000D03*
X133654500Y-36576000D03*
X128904500Y-36576000D03*
X124154500Y-36576000D03*
%TD*%
D34*
%TO.C,C12*%
X135635500Y-99822000D03*
X137360500Y-99822000D03*
%TD*%
D20*
%TO.C,S1*%
X50138000Y-142462000D03*
D21*
X46688000Y-142462000D03*
D22*
X50013000Y-144662000D03*
X46813000Y-144662000D03*
D21*
X48988000Y-142462000D03*
X47838000Y-142462000D03*
%TD*%
D36*
%TO.C,C23*%
X118210000Y-118517500D03*
X118210000Y-120242500D03*
%TD*%
D13*
%TO.C,C13*%
X178508500Y-41369000D03*
X176783500Y-41369000D03*
%TD*%
D34*
%TO.C,C4*%
X150013000Y-119888000D03*
X151738000Y-119888000D03*
%TD*%
D25*
%TO.C,R15*%
X142594000Y-108608500D03*
X142594000Y-106783500D03*
%TD*%
D34*
%TO.C,C10*%
X126237500Y-98298000D03*
X127962500Y-98298000D03*
%TD*%
D37*
%TO.C,U8*%
X120815000Y-115951000D03*
X120815000Y-117221000D03*
X120815000Y-118491000D03*
X120815000Y-119761000D03*
X125765000Y-119761000D03*
X125765000Y-118491000D03*
X125765000Y-117221000D03*
X125765000Y-115951000D03*
%TD*%
D10*
%TO.C,R18*%
X168248000Y-101957500D03*
X168248000Y-103782500D03*
%TD*%
D13*
%TO.C,C17*%
X174190500Y-49497000D03*
X172465500Y-49497000D03*
%TD*%
D20*
%TO.C,S4*%
X80618000Y-142462000D03*
D21*
X77168000Y-142462000D03*
D22*
X80493000Y-144662000D03*
X77293000Y-144662000D03*
D21*
X79468000Y-142462000D03*
X78318000Y-142462000D03*
%TD*%
D13*
%TO.C,C19*%
X179016500Y-53053000D03*
X177291500Y-53053000D03*
%TD*%
D34*
%TO.C,C5*%
X148589500Y-117602000D03*
X150314500Y-117602000D03*
%TD*%
D20*
%TO.C,S3*%
X70458000Y-142462000D03*
D21*
X67008000Y-142462000D03*
D22*
X70333000Y-144662000D03*
X67133000Y-144662000D03*
D21*
X69308000Y-142462000D03*
X68158000Y-142462000D03*
%TD*%
D19*
%TO.C,R7*%
X174447500Y-36543000D03*
X176272500Y-36543000D03*
%TD*%
D38*
%TO.C,CR1*%
X108951000Y-33919000D03*
D39*
X95158800Y-33919000D03*
%TD*%
D31*
%TO.C,R8*%
X98040500Y-95504000D03*
X96215500Y-95504000D03*
%TD*%
D26*
%TO.C,T1*%
X155753500Y-36576000D03*
D27*
X151003500Y-36576000D03*
X146253500Y-36576000D03*
X146253500Y-47244000D03*
X151003500Y-47244000D03*
X155753500Y-47244000D03*
%TD*%
D25*
%TO.C,R13*%
X146150000Y-108608500D03*
X146150000Y-106783500D03*
%TD*%
D31*
%TO.C,R16*%
X54760500Y-58674000D03*
X52935500Y-58674000D03*
%TD*%
D34*
%TO.C,C14*%
X174497500Y-34765000D03*
X176222500Y-34765000D03*
%TD*%
D40*
%TO.C,S8*%
X180694000Y-123412000D03*
X180694000Y-127222000D03*
X180694000Y-131032000D03*
X185520000Y-123412000D03*
X185520000Y-127222000D03*
X185520000Y-131032000D03*
X180567000Y-143732000D03*
X185647000Y-143732000D03*
%TD*%
D30*
%TO.C,C16*%
X161925000Y-31342500D03*
X161925000Y-29617500D03*
%TD*%
D19*
%TO.C,R12*%
X53189500Y-51308000D03*
X55014500Y-51308000D03*
%TD*%
D31*
%TO.C,R11*%
X91980000Y-33919000D03*
X90155000Y-33919000D03*
%TD*%
D41*
%TO.C,U3*%
X167355000Y-46901000D03*
X168005000Y-46901000D03*
X168655000Y-46901000D03*
X169305000Y-46901000D03*
X169955000Y-46901000D03*
X170605000Y-46901000D03*
X171255000Y-46901000D03*
X171905000Y-46901000D03*
X172555000Y-46901000D03*
X173205000Y-46901000D03*
X173205000Y-39901000D03*
X172555000Y-39901000D03*
X171905000Y-39901000D03*
X171255000Y-39901000D03*
X170605000Y-39901000D03*
X169955000Y-39901000D03*
X169305000Y-39901000D03*
X168655000Y-39901000D03*
X168005000Y-39901000D03*
X167355000Y-39901000D03*
%TD*%
D42*
%TO.C,U6*%
X177016500Y-49309000D03*
X177016500Y-50259000D03*
X177016500Y-51209000D03*
X179291500Y-51209000D03*
X179291500Y-49309000D03*
%TD*%
D19*
%TO.C,R2*%
X145745500Y-102362000D03*
X147570500Y-102362000D03*
%TD*%
%TO.C,R5*%
X126187500Y-103632000D03*
X128012500Y-103632000D03*
%TD*%
D43*
%TO.C,S7*%
X159144000Y-140470000D03*
D44*
X164144000Y-140470000D03*
X159144000Y-142970000D03*
X164144000Y-142970000D03*
X161644000Y-142970000D03*
D45*
X155094000Y-139470000D03*
X168194000Y-139470000D03*
%TD*%
D31*
%TO.C,R1*%
X119122500Y-105156000D03*
X117297500Y-105156000D03*
%TD*%
D34*
%TO.C,C6*%
X129539500Y-116332000D03*
X131264500Y-116332000D03*
%TD*%
D31*
%TO.C,R3*%
X147570500Y-100584000D03*
X145745500Y-100584000D03*
%TD*%
D10*
%TO.C,R25*%
X90778000Y-128119500D03*
X90778000Y-129944500D03*
%TD*%
D36*
%TO.C,C21*%
X68326000Y-67209500D03*
X68326000Y-68934500D03*
%TD*%
%TO.C,C20*%
X66548000Y-67209500D03*
X66548000Y-68934500D03*
%TD*%
D28*
%TO.C,U4*%
X92426000Y-37485000D03*
D29*
X89886000Y-37485000D03*
X87346000Y-37485000D03*
X87346000Y-45105000D03*
X89886000Y-45105000D03*
X92426000Y-45105000D03*
%TD*%
D11*
%TO.C,J2*%
X117194000Y-107950000D03*
D12*
X119734000Y-107950000D03*
X122274000Y-107950000D03*
X124814000Y-107950000D03*
X127354000Y-107950000D03*
X129894000Y-107950000D03*
X132434000Y-107950000D03*
X134974000Y-107950000D03*
%TD*%
D15*
%TO.C,MH3*%
X176586000Y-98260000D03*
%TD*%
D13*
%TO.C,C9*%
X127962500Y-100076000D03*
X126237500Y-100076000D03*
%TD*%
D20*
%TO.C,S2*%
X60298000Y-142462000D03*
D21*
X56848000Y-142462000D03*
D22*
X60173000Y-144662000D03*
X56973000Y-144662000D03*
D21*
X59148000Y-142462000D03*
X57998000Y-142462000D03*
%TD*%
D10*
%TO.C,R22*%
X60298000Y-128119500D03*
X60298000Y-129944500D03*
%TD*%
D13*
%TO.C,C15*%
X172412500Y-34765000D03*
X170687500Y-34765000D03*
%TD*%
%TO.C,C18*%
X174190500Y-51275000D03*
X172465500Y-51275000D03*
%TD*%
%TO.C,C8*%
X147520500Y-98806000D03*
X145795500Y-98806000D03*
%TD*%
D10*
%TO.C,R26*%
X100938000Y-128119500D03*
X100938000Y-129944500D03*
%TD*%
D36*
%TO.C,C3*%
X139800000Y-128577000D03*
X139800000Y-130302000D03*
%TD*%
D31*
%TO.C,R21*%
X112264500Y-106172000D03*
X110439500Y-106172000D03*
%TD*%
D46*
%TO.C,U1*%
X143804000Y-113134000D03*
X143304000Y-113134000D03*
X142804000Y-113134000D03*
X142304000Y-113134000D03*
X141804000Y-113134000D03*
X141304000Y-113134000D03*
X140804000Y-113134000D03*
X140304000Y-113134000D03*
X139804000Y-113134000D03*
X139304000Y-113134000D03*
X138804000Y-113134000D03*
X138304000Y-113134000D03*
X137804000Y-113134000D03*
X137304000Y-113134000D03*
X136804000Y-113134000D03*
X136304000Y-113134000D03*
D47*
X134316000Y-115122000D03*
X134316000Y-115622000D03*
X134316000Y-116122000D03*
X134316000Y-116622000D03*
X134316000Y-117122000D03*
X134316000Y-117622000D03*
X134316000Y-118122000D03*
X134316000Y-118622000D03*
X134316000Y-119122000D03*
X134316000Y-119622000D03*
X134316000Y-120122000D03*
X134316000Y-120622000D03*
X134316000Y-121122000D03*
X134316000Y-121622000D03*
X134316000Y-122122000D03*
X134316000Y-122622000D03*
D46*
X136304000Y-124610000D03*
X136804000Y-124610000D03*
X137304000Y-124610000D03*
X137804000Y-124610000D03*
X138304000Y-124610000D03*
X138804000Y-124610000D03*
X139304000Y-124610000D03*
X139804000Y-124610000D03*
X140304000Y-124610000D03*
X140804000Y-124610000D03*
X141304000Y-124610000D03*
X141804000Y-124610000D03*
X142304000Y-124610000D03*
X142804000Y-124610000D03*
X143304000Y-124610000D03*
X143804000Y-124610000D03*
D47*
X145792000Y-122622000D03*
X145792000Y-122122000D03*
X145792000Y-121622000D03*
X145792000Y-121122000D03*
X145792000Y-120622000D03*
X145792000Y-120122000D03*
X145792000Y-119622000D03*
X145792000Y-119122000D03*
X145792000Y-118622000D03*
X145792000Y-118122000D03*
X145792000Y-117622000D03*
X145792000Y-117122000D03*
X145792000Y-116622000D03*
X145792000Y-116122000D03*
X145792000Y-115622000D03*
X145792000Y-115122000D03*
%TD*%
G36*
X66744121Y-56154002D02*
G01*
X66790614Y-56207658D01*
X66802000Y-56260000D01*
X66802000Y-59818000D01*
X66781998Y-59886121D01*
X66728342Y-59932614D01*
X66676000Y-59944000D01*
X63372000Y-59944000D01*
X63303879Y-59923998D01*
X63257386Y-59870342D01*
X63246000Y-59818000D01*
X63246000Y-56260000D01*
X63266002Y-56191879D01*
X63319658Y-56145386D01*
X63372000Y-56134000D01*
X66676000Y-56134000D01*
X66744121Y-56154002D01*
G37*
M02*
