%TF.GenerationSoftware,KiCad,Pcbnew,(6.0.9)*%
%TF.CreationDate,2023-05-29T16:16:29-07:00*%
%TF.ProjectId,DSP_TU,4453505f-5455-42e6-9b69-6361645f7063,rev?*%
%TF.SameCoordinates,Original*%
%TF.FileFunction,Drillmap*%
%TF.FilePolarity,Positive*%
%FSLAX45Y45*%
G04 Gerber Fmt 4.5, Leading zero omitted, Abs format (unit mm)*
G04 Created by KiCad (PCBNEW (6.0.9)) date 2023-05-29 16:16:29*
%MOMM*%
%LPD*%
G01*
G04 APERTURE LIST*
%ADD10C,0.050000*%
%ADD11C,0.200000*%
%ADD12C,0.040000*%
%ADD13C,0.070000*%
%ADD14C,0.080000*%
%ADD15C,0.092000*%
%ADD16C,0.100000*%
%ADD17C,0.110000*%
%ADD18C,0.114300*%
%ADD19C,0.140000*%
%ADD20C,0.185420*%
%ADD21C,0.220000*%
%ADD22C,0.230000*%
G04 APERTURE END LIST*
D10*
X3800000Y-11786200D02*
X19600000Y-11786200D01*
X19600000Y-11786200D02*
X19600000Y-3886200D01*
X19600000Y-3886200D02*
X3800000Y-3886200D01*
X3800000Y-3886200D02*
X3800000Y-11786200D01*
D11*
D12*
X4501200Y-7650800D02*
X4541200Y-7690800D01*
X4541200Y-7650800D02*
X4501200Y-7690800D01*
X4577400Y-7523800D02*
X4617400Y-7563800D01*
X4617400Y-7523800D02*
X4577400Y-7563800D01*
X4679000Y-7600000D02*
X4719000Y-7640000D01*
X4719000Y-7600000D02*
X4679000Y-7640000D01*
X4755200Y-5822000D02*
X4795200Y-5862000D01*
X4795200Y-5822000D02*
X4755200Y-5862000D01*
X5085400Y-7447600D02*
X5125400Y-7487600D01*
X5125400Y-7447600D02*
X5085400Y-7487600D01*
X5187000Y-6431600D02*
X5227000Y-6471600D01*
X5227000Y-6431600D02*
X5187000Y-6471600D01*
X5212400Y-6025200D02*
X5252400Y-6065200D01*
X5252400Y-6025200D02*
X5212400Y-6065200D01*
X5593400Y-7295200D02*
X5633400Y-7335200D01*
X5633400Y-7295200D02*
X5593400Y-7335200D01*
X5847400Y-7295200D02*
X5887400Y-7335200D01*
X5887400Y-7295200D02*
X5847400Y-7335200D01*
X5949000Y-6355400D02*
X5989000Y-6395400D01*
X5989000Y-6355400D02*
X5949000Y-6395400D01*
X5949000Y-6482400D02*
X5989000Y-6522400D01*
X5989000Y-6482400D02*
X5949000Y-6522400D01*
X5949000Y-6609400D02*
X5989000Y-6649400D01*
X5989000Y-6609400D02*
X5949000Y-6649400D01*
X6076000Y-6355400D02*
X6116000Y-6395400D01*
X6116000Y-6355400D02*
X6076000Y-6395400D01*
X6076000Y-6482400D02*
X6116000Y-6522400D01*
X6116000Y-6482400D02*
X6076000Y-6522400D01*
X6076000Y-6609400D02*
X6116000Y-6649400D01*
X6116000Y-6609400D02*
X6076000Y-6649400D01*
X6101400Y-7295200D02*
X6141400Y-7335200D01*
X6141400Y-7295200D02*
X6101400Y-7335200D01*
X6203000Y-6355400D02*
X6243000Y-6395400D01*
X6243000Y-6355400D02*
X6203000Y-6395400D01*
X6203000Y-6482400D02*
X6243000Y-6522400D01*
X6243000Y-6482400D02*
X6203000Y-6522400D01*
X6203000Y-6609400D02*
X6243000Y-6649400D01*
X6243000Y-6609400D02*
X6203000Y-6649400D01*
X6228400Y-7701600D02*
X6268400Y-7741600D01*
X6268400Y-7701600D02*
X6228400Y-7741600D01*
X6609400Y-7302650D02*
X6649400Y-7342650D01*
X6649400Y-7302650D02*
X6609400Y-7342650D01*
X7092000Y-5618800D02*
X7132000Y-5658800D01*
X7132000Y-5618800D02*
X7092000Y-5658800D01*
X7168200Y-7672450D02*
X7208200Y-7712450D01*
X7208200Y-7672450D02*
X7168200Y-7712450D01*
X9809800Y-7346000D02*
X9849800Y-7386000D01*
X9849800Y-7346000D02*
X9809800Y-7386000D01*
X10089200Y-10095650D02*
X10129200Y-10135650D01*
X10129200Y-10095650D02*
X10089200Y-10135650D01*
X11816400Y-9124000D02*
X11856400Y-9164000D01*
X11856400Y-9124000D02*
X11816400Y-9164000D01*
X11816400Y-9581200D02*
X11856400Y-9621200D01*
X11856400Y-9581200D02*
X11816400Y-9621200D01*
X12290511Y-9628250D02*
X12330511Y-9668250D01*
X12330511Y-9628250D02*
X12290511Y-9668250D01*
X12349800Y-9327200D02*
X12389800Y-9367200D01*
X12389800Y-9327200D02*
X12349800Y-9367200D01*
X12481804Y-7584200D02*
X12521804Y-7624200D01*
X12521804Y-7584200D02*
X12481804Y-7624200D01*
X12807000Y-8971600D02*
X12847000Y-9011600D01*
X12847000Y-8971600D02*
X12807000Y-9011600D01*
X12807000Y-9098600D02*
X12847000Y-9138600D01*
X12847000Y-9098600D02*
X12807000Y-9138600D01*
X12822850Y-9352600D02*
X12862850Y-9392600D01*
X12862850Y-9352600D02*
X12822850Y-9392600D01*
X13214725Y-9341310D02*
X13254725Y-9381310D01*
X13254725Y-9341310D02*
X13214725Y-9381310D01*
X13233511Y-9053089D02*
X13273511Y-9093089D01*
X13273511Y-9053089D02*
X13233511Y-9093089D01*
X13570670Y-7539250D02*
X13610670Y-7579250D01*
X13610670Y-7539250D02*
X13570670Y-7579250D01*
X13696000Y-8387400D02*
X13736000Y-8427400D01*
X13736000Y-8387400D02*
X13696000Y-8427400D01*
X13696000Y-10013000D02*
X13736000Y-10053000D01*
X13736000Y-10013000D02*
X13696000Y-10053000D01*
X13748470Y-7539250D02*
X13788470Y-7579250D01*
X13788470Y-7539250D02*
X13748470Y-7579250D01*
X13801350Y-10419400D02*
X13841350Y-10459400D01*
X13841350Y-10419400D02*
X13801350Y-10459400D01*
X13975400Y-10140000D02*
X14015400Y-10180000D01*
X14015400Y-10140000D02*
X13975400Y-10180000D01*
X13975400Y-10597200D02*
X14015400Y-10637200D01*
X14015400Y-10597200D02*
X13975400Y-10637200D01*
X14077000Y-7955600D02*
X14117000Y-7995600D01*
X14117000Y-7955600D02*
X14077000Y-7995600D01*
X14077000Y-8438200D02*
X14117000Y-8478200D01*
X14117000Y-8438200D02*
X14077000Y-8478200D01*
X14102400Y-10346950D02*
X14142400Y-10386950D01*
X14142400Y-10346950D02*
X14102400Y-10386950D01*
X14229400Y-10346950D02*
X14269400Y-10386950D01*
X14269400Y-10346950D02*
X14229400Y-10386950D01*
X14254800Y-7955600D02*
X14294800Y-7995600D01*
X14294800Y-7955600D02*
X14254800Y-7995600D01*
X14254800Y-8387400D02*
X14294800Y-8427400D01*
X14294800Y-8387400D02*
X14254800Y-8427400D01*
X14356400Y-10343200D02*
X14396400Y-10383200D01*
X14396400Y-10343200D02*
X14356400Y-10383200D01*
X14381800Y-7269800D02*
X14421800Y-7309800D01*
X14421800Y-7269800D02*
X14381800Y-7309800D01*
X14381800Y-7523800D02*
X14421800Y-7563800D01*
X14421800Y-7523800D02*
X14381800Y-7563800D01*
X14432600Y-7955600D02*
X14472600Y-7995600D01*
X14472600Y-7955600D02*
X14432600Y-7995600D01*
X14509850Y-10347450D02*
X14549850Y-10387450D01*
X14549850Y-10347450D02*
X14509850Y-10387450D01*
X14609970Y-7956030D02*
X14649970Y-7996030D01*
X14649970Y-7956030D02*
X14609970Y-7996030D01*
X14741140Y-9189150D02*
X14781140Y-9229150D01*
X14781140Y-9189150D02*
X14741140Y-9229150D01*
X14762800Y-10495600D02*
X14802800Y-10535600D01*
X14802800Y-10495600D02*
X14762800Y-10535600D01*
X14762800Y-10959250D02*
X14802800Y-10999250D01*
X14802800Y-10959250D02*
X14762800Y-10999250D01*
X14763230Y-7878970D02*
X14803230Y-7918970D01*
X14803230Y-7878970D02*
X14763230Y-7918970D01*
X14885650Y-9399250D02*
X14925650Y-9439250D01*
X14925650Y-9399250D02*
X14885650Y-9439250D01*
X14889800Y-7879400D02*
X14929800Y-7919400D01*
X14929800Y-7879400D02*
X14889800Y-7919400D01*
X14889800Y-8082600D02*
X14929800Y-8122600D01*
X14929800Y-8082600D02*
X14889800Y-8122600D01*
X14966000Y-8565200D02*
X15006000Y-8605200D01*
X15006000Y-8565200D02*
X14966000Y-8605200D01*
X15162986Y-9160644D02*
X15202986Y-9200644D01*
X15202986Y-9160644D02*
X15162986Y-9200644D01*
X15205821Y-9250950D02*
X15245821Y-9290950D01*
X15245821Y-9250950D02*
X15205821Y-9290950D01*
X15296200Y-9403400D02*
X15336200Y-9443400D01*
X15336200Y-9403400D02*
X15296200Y-9443400D01*
X16450599Y-10149550D02*
X16490599Y-10189550D01*
X16490599Y-10149550D02*
X16450599Y-10189550D01*
X16515400Y-10294450D02*
X16555400Y-10334450D01*
X16555400Y-10294450D02*
X16515400Y-10334450D01*
X16540800Y-5847400D02*
X16580800Y-5887400D01*
X16580800Y-5847400D02*
X16540800Y-5887400D01*
X16626550Y-10215299D02*
X16666550Y-10255299D01*
X16666550Y-10215299D02*
X16626550Y-10255299D01*
X16642400Y-10419900D02*
X16682400Y-10459900D01*
X16682400Y-10419900D02*
X16642400Y-10459900D01*
X16718600Y-10343200D02*
X16758600Y-10383200D01*
X16758600Y-10343200D02*
X16718600Y-10383200D01*
X16794800Y-5898200D02*
X16834800Y-5938200D01*
X16834800Y-5898200D02*
X16794800Y-5938200D01*
X16896400Y-5568000D02*
X16936400Y-5608000D01*
X16936400Y-5568000D02*
X16896400Y-5608000D01*
X16947200Y-5898200D02*
X16987200Y-5938200D01*
X16987200Y-5898200D02*
X16947200Y-5938200D01*
X17074200Y-5898200D02*
X17114200Y-5938200D01*
X17114200Y-5898200D02*
X17074200Y-5938200D01*
X17226600Y-7346000D02*
X17266600Y-7386000D01*
X17266600Y-7346000D02*
X17226600Y-7386000D01*
X17480600Y-6812600D02*
X17520600Y-6852600D01*
X17520600Y-6812600D02*
X17480600Y-6852600D01*
X17556800Y-6558600D02*
X17596800Y-6598600D01*
X17596800Y-6558600D02*
X17556800Y-6598600D01*
X17556800Y-7117400D02*
X17596800Y-7157400D01*
X17596800Y-7117400D02*
X17556800Y-7157400D01*
X17734600Y-5568000D02*
X17774600Y-5608000D01*
X17774600Y-5568000D02*
X17734600Y-5608000D01*
X17836200Y-5923600D02*
X17876200Y-5963600D01*
X17876200Y-5923600D02*
X17836200Y-5963600D01*
X17988600Y-6228400D02*
X18028600Y-6268400D01*
X18028600Y-6228400D02*
X17988600Y-6268400D01*
X18064800Y-5771200D02*
X18104800Y-5811200D01*
X18104800Y-5771200D02*
X18064800Y-5811200D01*
X18115600Y-7015800D02*
X18155600Y-7055800D01*
X18155600Y-7015800D02*
X18115600Y-7055800D01*
D13*
X4719200Y-11480800D02*
G75*
G03*
X4719200Y-11480800I-35000J0D01*
G01*
X4834200Y-11480800D02*
G75*
G03*
X4834200Y-11480800I-35000J0D01*
G01*
X4949200Y-11480800D02*
G75*
G03*
X4949200Y-11480800I-35000J0D01*
G01*
X5064200Y-11480800D02*
G75*
G03*
X5064200Y-11480800I-35000J0D01*
G01*
X5735200Y-11480800D02*
G75*
G03*
X5735200Y-11480800I-35000J0D01*
G01*
X5850200Y-11480800D02*
G75*
G03*
X5850200Y-11480800I-35000J0D01*
G01*
X5965200Y-11480800D02*
G75*
G03*
X5965200Y-11480800I-35000J0D01*
G01*
X6080200Y-11480800D02*
G75*
G03*
X6080200Y-11480800I-35000J0D01*
G01*
X6751200Y-11480800D02*
G75*
G03*
X6751200Y-11480800I-35000J0D01*
G01*
X6866200Y-11480800D02*
G75*
G03*
X6866200Y-11480800I-35000J0D01*
G01*
X6981200Y-11480800D02*
G75*
G03*
X6981200Y-11480800I-35000J0D01*
G01*
X7096200Y-11480800D02*
G75*
G03*
X7096200Y-11480800I-35000J0D01*
G01*
X7767200Y-11480800D02*
G75*
G03*
X7767200Y-11480800I-35000J0D01*
G01*
X7882200Y-11480800D02*
G75*
G03*
X7882200Y-11480800I-35000J0D01*
G01*
X7997200Y-11480800D02*
G75*
G03*
X7997200Y-11480800I-35000J0D01*
G01*
X8112200Y-11480800D02*
G75*
G03*
X8112200Y-11480800I-35000J0D01*
G01*
X8783200Y-11480800D02*
G75*
G03*
X8783200Y-11480800I-35000J0D01*
G01*
X8898200Y-11480800D02*
G75*
G03*
X8898200Y-11480800I-35000J0D01*
G01*
X9013200Y-11480800D02*
G75*
G03*
X9013200Y-11480800I-35000J0D01*
G01*
X9128200Y-11480800D02*
G75*
G03*
X9128200Y-11480800I-35000J0D01*
G01*
X9799200Y-11480800D02*
G75*
G03*
X9799200Y-11480800I-35000J0D01*
G01*
X9914200Y-11480800D02*
G75*
G03*
X9914200Y-11480800I-35000J0D01*
G01*
X10029200Y-11480800D02*
G75*
G03*
X10029200Y-11480800I-35000J0D01*
G01*
X10144200Y-11480800D02*
G75*
G03*
X10144200Y-11480800I-35000J0D01*
G01*
D14*
X8456700Y-5777600D02*
X8456700Y-5857600D01*
X8416700Y-5817600D02*
X8496700Y-5817600D01*
X8456700Y-6539600D02*
X8456700Y-6619600D01*
X8416700Y-6579600D02*
X8496700Y-6579600D01*
X8710700Y-5777600D02*
X8710700Y-5857600D01*
X8670700Y-5817600D02*
X8750700Y-5817600D01*
X8710700Y-6539600D02*
X8710700Y-6619600D01*
X8670700Y-6579600D02*
X8750700Y-6579600D01*
X8964700Y-5777600D02*
X8964700Y-5857600D01*
X8924700Y-5817600D02*
X9004700Y-5817600D01*
X8964700Y-6539600D02*
X8964700Y-6619600D01*
X8924700Y-6579600D02*
X9004700Y-6579600D01*
X9628100Y-5775600D02*
X9628100Y-5855600D01*
X9588100Y-5815600D02*
X9668100Y-5815600D01*
X9628100Y-6537600D02*
X9628100Y-6617600D01*
X9588100Y-6577600D02*
X9668100Y-6577600D01*
X9882100Y-5775600D02*
X9882100Y-5855600D01*
X9842100Y-5815600D02*
X9922100Y-5815600D01*
X9882100Y-6537600D02*
X9882100Y-6617600D01*
X9842100Y-6577600D02*
X9922100Y-6577600D01*
X10136100Y-5775600D02*
X10136100Y-5855600D01*
X10096100Y-5815600D02*
X10176100Y-5815600D01*
X10136100Y-6537600D02*
X10136100Y-6617600D01*
X10096100Y-6577600D02*
X10176100Y-6577600D01*
X10769600Y-5802000D02*
X10769600Y-5882000D01*
X10729600Y-5842000D02*
X10809600Y-5842000D01*
X10769600Y-6564000D02*
X10769600Y-6644000D01*
X10729600Y-6604000D02*
X10809600Y-6604000D01*
X11023600Y-5802000D02*
X11023600Y-5882000D01*
X10983600Y-5842000D02*
X11063600Y-5842000D01*
X11023600Y-6564000D02*
X11023600Y-6644000D01*
X10983600Y-6604000D02*
X11063600Y-6604000D01*
X11277600Y-5802000D02*
X11277600Y-5882000D01*
X11237600Y-5842000D02*
X11317600Y-5842000D01*
X11277600Y-6564000D02*
X11277600Y-6644000D01*
X11237600Y-6604000D02*
X11317600Y-6604000D01*
D15*
X17050527Y-5039527D02*
X17050527Y-4974473D01*
X16985473Y-4974473D01*
X16985473Y-5039527D01*
X17050527Y-5039527D01*
X17050527Y-5239527D02*
X17050527Y-5174473D01*
X16985473Y-5174473D01*
X16985473Y-5239527D01*
X17050527Y-5239527D01*
X17300527Y-5039527D02*
X17300527Y-4974473D01*
X17235473Y-4974473D01*
X17235473Y-5039527D01*
X17300527Y-5039527D01*
X17300527Y-5239527D02*
X17300527Y-5174473D01*
X17235473Y-5174473D01*
X17235473Y-5239527D01*
X17300527Y-5239527D01*
D16*
X4696700Y-11750800D02*
X4746700Y-11700800D01*
X4696700Y-11650800D01*
X4646700Y-11700800D01*
X4696700Y-11750800D01*
X5016700Y-11750800D02*
X5066700Y-11700800D01*
X5016700Y-11650800D01*
X4966700Y-11700800D01*
X5016700Y-11750800D01*
X5712700Y-11750800D02*
X5762700Y-11700800D01*
X5712700Y-11650800D01*
X5662700Y-11700800D01*
X5712700Y-11750800D01*
X6032700Y-11750800D02*
X6082700Y-11700800D01*
X6032700Y-11650800D01*
X5982700Y-11700800D01*
X6032700Y-11750800D01*
X6728700Y-11750800D02*
X6778700Y-11700800D01*
X6728700Y-11650800D01*
X6678700Y-11700800D01*
X6728700Y-11750800D01*
X7048700Y-11750800D02*
X7098700Y-11700800D01*
X7048700Y-11650800D01*
X6998700Y-11700800D01*
X7048700Y-11750800D01*
X7744700Y-11750800D02*
X7794700Y-11700800D01*
X7744700Y-11650800D01*
X7694700Y-11700800D01*
X7744700Y-11750800D01*
X8064700Y-11750800D02*
X8114700Y-11700800D01*
X8064700Y-11650800D01*
X8014700Y-11700800D01*
X8064700Y-11750800D01*
X8760700Y-11750800D02*
X8810700Y-11700800D01*
X8760700Y-11650800D01*
X8710700Y-11700800D01*
X8760700Y-11750800D01*
X9080700Y-11750800D02*
X9130700Y-11700800D01*
X9080700Y-11650800D01*
X9030700Y-11700800D01*
X9080700Y-11750800D01*
X9776700Y-11750800D02*
X9826700Y-11700800D01*
X9776700Y-11650800D01*
X9726700Y-11700800D01*
X9776700Y-11750800D01*
X10096700Y-11750800D02*
X10146700Y-11700800D01*
X10096700Y-11650800D01*
X10046700Y-11700800D01*
X10096700Y-11750800D01*
X11734800Y-8279600D02*
X11784800Y-8229600D01*
X11734800Y-8179600D01*
X11684800Y-8229600D01*
X11734800Y-8279600D01*
X11988800Y-8279600D02*
X12038800Y-8229600D01*
X11988800Y-8179600D01*
X11938800Y-8229600D01*
X11988800Y-8279600D01*
X12040100Y-10458300D02*
X12090100Y-10408300D01*
X12040100Y-10358300D01*
X11990100Y-10408300D01*
X12040100Y-10458300D01*
X12242800Y-8279600D02*
X12292800Y-8229600D01*
X12242800Y-8179600D01*
X12192800Y-8229600D01*
X12242800Y-8279600D01*
X12294100Y-10458300D02*
X12344100Y-10408300D01*
X12294100Y-10358300D01*
X12244100Y-10408300D01*
X12294100Y-10458300D01*
X12496800Y-8279600D02*
X12546800Y-8229600D01*
X12496800Y-8179600D01*
X12446800Y-8229600D01*
X12496800Y-8279600D01*
X12548100Y-10458300D02*
X12598100Y-10408300D01*
X12548100Y-10358300D01*
X12498100Y-10408300D01*
X12548100Y-10458300D01*
X12750800Y-8279600D02*
X12800800Y-8229600D01*
X12750800Y-8179600D01*
X12700800Y-8229600D01*
X12750800Y-8279600D01*
X12802100Y-10458300D02*
X12852100Y-10408300D01*
X12802100Y-10358300D01*
X12752100Y-10408300D01*
X12802100Y-10458300D01*
X13004800Y-8279600D02*
X13054800Y-8229600D01*
X13004800Y-8179600D01*
X12954800Y-8229600D01*
X13004800Y-8279600D01*
X13056100Y-10458300D02*
X13106100Y-10408300D01*
X13056100Y-10358300D01*
X13006100Y-10408300D01*
X13056100Y-10458300D01*
X13258800Y-8279600D02*
X13308800Y-8229600D01*
X13258800Y-8179600D01*
X13208800Y-8229600D01*
X13258800Y-8279600D01*
X13310100Y-10458300D02*
X13360100Y-10408300D01*
X13310100Y-10358300D01*
X13260100Y-10408300D01*
X13310100Y-10458300D01*
X13512800Y-8279600D02*
X13562800Y-8229600D01*
X13512800Y-8179600D01*
X13462800Y-8229600D01*
X13512800Y-8279600D01*
X13564100Y-10458300D02*
X13614100Y-10408300D01*
X13564100Y-10358300D01*
X13514100Y-10408300D01*
X13564100Y-10458300D01*
D17*
X15874800Y-11226600D02*
X15984800Y-11336600D01*
X15984800Y-11226600D02*
X15874800Y-11336600D01*
X15984800Y-11281600D02*
G75*
G03*
X15984800Y-11281600I-55000J0D01*
G01*
X15874800Y-11476600D02*
X15984800Y-11586600D01*
X15984800Y-11476600D02*
X15874800Y-11586600D01*
X15984800Y-11531600D02*
G75*
G03*
X15984800Y-11531600I-55000J0D01*
G01*
X16124800Y-11476600D02*
X16234800Y-11586600D01*
X16234800Y-11476600D02*
X16124800Y-11586600D01*
X16234800Y-11531600D02*
G75*
G03*
X16234800Y-11531600I-55000J0D01*
G01*
X16374800Y-11226600D02*
X16484800Y-11336600D01*
X16484800Y-11226600D02*
X16374800Y-11336600D01*
X16484800Y-11281600D02*
G75*
G03*
X16484800Y-11281600I-55000J0D01*
G01*
X16374800Y-11476600D02*
X16484800Y-11586600D01*
X16484800Y-11476600D02*
X16374800Y-11586600D01*
X16484800Y-11531600D02*
G75*
G03*
X16484800Y-11531600I-55000J0D01*
G01*
D18*
X9180830Y-5403850D02*
X9295130Y-5518150D01*
X9295130Y-5403850D02*
X9180830Y-5518150D01*
X9237980Y-5403850D02*
X9237980Y-5518150D01*
X9180830Y-5461000D02*
X9295130Y-5461000D01*
X10560050Y-5403850D02*
X10674350Y-5518150D01*
X10674350Y-5403850D02*
X10560050Y-5518150D01*
X10617200Y-5403850D02*
X10617200Y-5518150D01*
X10560050Y-5461000D02*
X10674350Y-5461000D01*
D19*
X9258300Y-4749600D02*
X9398300Y-4889600D01*
X9398300Y-4749600D02*
X9258300Y-4889600D01*
X9377798Y-4869098D02*
X9377798Y-4770102D01*
X9278802Y-4770102D01*
X9278802Y-4869098D01*
X9377798Y-4869098D01*
X9758300Y-4749600D02*
X9898300Y-4889600D01*
X9898300Y-4749600D02*
X9758300Y-4889600D01*
X9877798Y-4869098D02*
X9877798Y-4770102D01*
X9778802Y-4770102D01*
X9778802Y-4869098D01*
X9877798Y-4869098D01*
X10258300Y-4749600D02*
X10398300Y-4889600D01*
X10398300Y-4749600D02*
X10258300Y-4889600D01*
X10377798Y-4869098D02*
X10377798Y-4770102D01*
X10278802Y-4770102D01*
X10278802Y-4869098D01*
X10377798Y-4869098D01*
X10758300Y-4749600D02*
X10898300Y-4889600D01*
X10898300Y-4749600D02*
X10758300Y-4889600D01*
X10877798Y-4869098D02*
X10877798Y-4770102D01*
X10778802Y-4770102D01*
X10778802Y-4869098D01*
X10877798Y-4869098D01*
X11258300Y-4749600D02*
X11398300Y-4889600D01*
X11398300Y-4749600D02*
X11258300Y-4889600D01*
X11377798Y-4869098D02*
X11377798Y-4770102D01*
X11278802Y-4770102D01*
X11278802Y-4869098D01*
X11377798Y-4869098D01*
X11758300Y-4749600D02*
X11898300Y-4889600D01*
X11898300Y-4749600D02*
X11758300Y-4889600D01*
X11877798Y-4869098D02*
X11877798Y-4770102D01*
X11778802Y-4770102D01*
X11778802Y-4869098D01*
X11877798Y-4869098D01*
X12258300Y-4749600D02*
X12398300Y-4889600D01*
X12398300Y-4749600D02*
X12258300Y-4889600D01*
X12377798Y-4869098D02*
X12377798Y-4770102D01*
X12278802Y-4770102D01*
X12278802Y-4869098D01*
X12377798Y-4869098D01*
X12510550Y-5645000D02*
X12650550Y-5785000D01*
X12650550Y-5645000D02*
X12510550Y-5785000D01*
X12630048Y-5764498D02*
X12630048Y-5665502D01*
X12531052Y-5665502D01*
X12531052Y-5764498D01*
X12630048Y-5764498D01*
X12510550Y-6711800D02*
X12650550Y-6851800D01*
X12650550Y-6711800D02*
X12510550Y-6851800D01*
X12630048Y-6831298D02*
X12630048Y-6732302D01*
X12531052Y-6732302D01*
X12531052Y-6831298D01*
X12630048Y-6831298D01*
X12758300Y-4749600D02*
X12898300Y-4889600D01*
X12898300Y-4749600D02*
X12758300Y-4889600D01*
X12877798Y-4869098D02*
X12877798Y-4770102D01*
X12778802Y-4770102D01*
X12778802Y-4869098D01*
X12877798Y-4869098D01*
X12985550Y-5645000D02*
X13125550Y-5785000D01*
X13125550Y-5645000D02*
X12985550Y-5785000D01*
X13105048Y-5764498D02*
X13105048Y-5665502D01*
X13006052Y-5665502D01*
X13006052Y-5764498D01*
X13105048Y-5764498D01*
X12985550Y-6711800D02*
X13125550Y-6851800D01*
X13125550Y-6711800D02*
X12985550Y-6851800D01*
X13105048Y-6831298D02*
X13105048Y-6732302D01*
X13006052Y-6732302D01*
X13006052Y-6831298D01*
X13105048Y-6831298D01*
X13258300Y-4749600D02*
X13398300Y-4889600D01*
X13398300Y-4749600D02*
X13258300Y-4889600D01*
X13377798Y-4869098D02*
X13377798Y-4770102D01*
X13278802Y-4770102D01*
X13278802Y-4869098D01*
X13377798Y-4869098D01*
X13460550Y-5645000D02*
X13600550Y-5785000D01*
X13600550Y-5645000D02*
X13460550Y-5785000D01*
X13580048Y-5764498D02*
X13580048Y-5665502D01*
X13481052Y-5665502D01*
X13481052Y-5764498D01*
X13580048Y-5764498D01*
X13460550Y-6711800D02*
X13600550Y-6851800D01*
X13600550Y-6711800D02*
X13460550Y-6851800D01*
X13580048Y-6831298D02*
X13580048Y-6732302D01*
X13481052Y-6732302D01*
X13481052Y-6831298D01*
X13580048Y-6831298D01*
X13758300Y-4749600D02*
X13898300Y-4889600D01*
X13898300Y-4749600D02*
X13758300Y-4889600D01*
X13877798Y-4869098D02*
X13877798Y-4770102D01*
X13778802Y-4770102D01*
X13778802Y-4869098D01*
X13877798Y-4869098D01*
X14258300Y-4749600D02*
X14398300Y-4889600D01*
X14398300Y-4749600D02*
X14258300Y-4889600D01*
X14377798Y-4869098D02*
X14377798Y-4770102D01*
X14278802Y-4770102D01*
X14278802Y-4869098D01*
X14377798Y-4869098D01*
X14720450Y-5645000D02*
X14860450Y-5785000D01*
X14860450Y-5645000D02*
X14720450Y-5785000D01*
X14839948Y-5764498D02*
X14839948Y-5665502D01*
X14740952Y-5665502D01*
X14740952Y-5764498D01*
X14839948Y-5764498D01*
X14720450Y-6711800D02*
X14860450Y-6851800D01*
X14860450Y-6711800D02*
X14720450Y-6851800D01*
X14839948Y-6831298D02*
X14839948Y-6732302D01*
X14740952Y-6732302D01*
X14740952Y-6831298D01*
X14839948Y-6831298D01*
X14758300Y-4749600D02*
X14898300Y-4889600D01*
X14898300Y-4749600D02*
X14758300Y-4889600D01*
X14877798Y-4869098D02*
X14877798Y-4770102D01*
X14778802Y-4770102D01*
X14778802Y-4869098D01*
X14877798Y-4869098D01*
X15195450Y-5645000D02*
X15335450Y-5785000D01*
X15335450Y-5645000D02*
X15195450Y-5785000D01*
X15314948Y-5764498D02*
X15314948Y-5665502D01*
X15215952Y-5665502D01*
X15215952Y-5764498D01*
X15314948Y-5764498D01*
X15195450Y-6711800D02*
X15335450Y-6851800D01*
X15335450Y-6711800D02*
X15195450Y-6851800D01*
X15314948Y-6831298D02*
X15314948Y-6732302D01*
X15215952Y-6732302D01*
X15215952Y-6831298D01*
X15314948Y-6831298D01*
X15670450Y-5645000D02*
X15810450Y-5785000D01*
X15810450Y-5645000D02*
X15670450Y-5785000D01*
X15789948Y-5764498D02*
X15789948Y-5665502D01*
X15690952Y-5665502D01*
X15690952Y-5764498D01*
X15789948Y-5764498D01*
X15670450Y-6711800D02*
X15810450Y-6851800D01*
X15810450Y-6711800D02*
X15670450Y-6851800D01*
X15789948Y-6831298D02*
X15789948Y-6732302D01*
X15690952Y-6732302D01*
X15690952Y-6831298D01*
X15789948Y-6831298D01*
D20*
X17979390Y-11515090D02*
X18164810Y-11700510D01*
X18164810Y-11515090D02*
X17979390Y-11700510D01*
X18072100Y-11700510D02*
X18164810Y-11607800D01*
X18072100Y-11515090D01*
X17979390Y-11607800D01*
X18072100Y-11700510D01*
X17992090Y-9483090D02*
X18177510Y-9668510D01*
X18177510Y-9483090D02*
X17992090Y-9668510D01*
X18084800Y-9668510D02*
X18177510Y-9575800D01*
X18084800Y-9483090D01*
X17992090Y-9575800D01*
X18084800Y-9668510D01*
X17992090Y-9864090D02*
X18177510Y-10049510D01*
X18177510Y-9864090D02*
X17992090Y-10049510D01*
X18084800Y-10049510D02*
X18177510Y-9956800D01*
X18084800Y-9864090D01*
X17992090Y-9956800D01*
X18084800Y-10049510D01*
X17992090Y-10245090D02*
X18177510Y-10430510D01*
X18177510Y-10245090D02*
X17992090Y-10430510D01*
X18084800Y-10430510D02*
X18177510Y-10337800D01*
X18084800Y-10245090D01*
X17992090Y-10337800D01*
X18084800Y-10430510D01*
X18474690Y-9483090D02*
X18660110Y-9668510D01*
X18660110Y-9483090D02*
X18474690Y-9668510D01*
X18567400Y-9668510D02*
X18660110Y-9575800D01*
X18567400Y-9483090D01*
X18474690Y-9575800D01*
X18567400Y-9668510D01*
X18474690Y-9864090D02*
X18660110Y-10049510D01*
X18660110Y-9864090D02*
X18474690Y-10049510D01*
X18567400Y-10049510D02*
X18660110Y-9956800D01*
X18567400Y-9864090D01*
X18474690Y-9956800D01*
X18567400Y-10049510D01*
X18474690Y-10245090D02*
X18660110Y-10430510D01*
X18660110Y-10245090D02*
X18474690Y-10430510D01*
X18567400Y-10430510D02*
X18660110Y-10337800D01*
X18567400Y-10245090D01*
X18474690Y-10337800D01*
X18567400Y-10430510D01*
X18487390Y-11515090D02*
X18672810Y-11700510D01*
X18672810Y-11515090D02*
X18487390Y-11700510D01*
X18580100Y-11700510D02*
X18672810Y-11607800D01*
X18580100Y-11515090D01*
X18487390Y-11607800D01*
X18580100Y-11700510D01*
D21*
X15524800Y-11071600D02*
X15524800Y-11291600D01*
X15414800Y-11181600D02*
X15634800Y-11181600D01*
X15634800Y-11181600D02*
G75*
G03*
X15634800Y-11181600I-110000J0D01*
G01*
D11*
X15519800Y-11291600D02*
X15529800Y-11291600D01*
X15519800Y-11071600D02*
X15529800Y-11071600D01*
X15529800Y-11291600D02*
G75*
G03*
X15529800Y-11071600I0J110000D01*
G01*
X15519800Y-11071600D02*
G75*
G03*
X15519800Y-11291600I0J-110000D01*
G01*
D21*
X16834800Y-11071600D02*
X16834800Y-11291600D01*
X16724800Y-11181600D02*
X16944800Y-11181600D01*
X16944800Y-11181600D02*
G75*
G03*
X16944800Y-11181600I-110000J0D01*
G01*
D11*
X16829800Y-11291600D02*
X16839800Y-11291600D01*
X16829800Y-11071600D02*
X16839800Y-11071600D01*
X16839800Y-11291600D02*
G75*
G03*
X16839800Y-11071600I0J110000D01*
G01*
X16829800Y-11071600D02*
G75*
G03*
X16829800Y-11291600I0J-110000D01*
G01*
D22*
X16622318Y-4817318D02*
X16622318Y-4654682D01*
X16459682Y-4654682D01*
X16459682Y-4817318D01*
X16622318Y-4817318D01*
X16656000Y-4736000D02*
G75*
G03*
X16656000Y-4736000I-115000J0D01*
G01*
X17826318Y-4817318D02*
X17826318Y-4654682D01*
X17663682Y-4654682D01*
X17663682Y-4817318D01*
X17826318Y-4817318D01*
X17860000Y-4736000D02*
G75*
G03*
X17860000Y-4736000I-115000J0D01*
G01*
D11*
X4055119Y-12099176D02*
X4055119Y-11899176D01*
X4102738Y-11899176D01*
X4131309Y-11908700D01*
X4150357Y-11927748D01*
X4159881Y-11946795D01*
X4169405Y-11984890D01*
X4169405Y-12013462D01*
X4159881Y-12051557D01*
X4150357Y-12070605D01*
X4131309Y-12089652D01*
X4102738Y-12099176D01*
X4055119Y-12099176D01*
X4255119Y-12099176D02*
X4255119Y-11965843D01*
X4255119Y-12003938D02*
X4264643Y-11984890D01*
X4274167Y-11975367D01*
X4293214Y-11965843D01*
X4312262Y-11965843D01*
X4378929Y-12099176D02*
X4378929Y-11965843D01*
X4378929Y-11899176D02*
X4369405Y-11908700D01*
X4378929Y-11918224D01*
X4388452Y-11908700D01*
X4378929Y-11899176D01*
X4378929Y-11918224D01*
X4502738Y-12099176D02*
X4483690Y-12089652D01*
X4474167Y-12070605D01*
X4474167Y-11899176D01*
X4607500Y-12099176D02*
X4588452Y-12089652D01*
X4578929Y-12070605D01*
X4578929Y-11899176D01*
X4836071Y-12099176D02*
X4836071Y-11899176D01*
X4902738Y-12042033D01*
X4969405Y-11899176D01*
X4969405Y-12099176D01*
X5150357Y-12099176D02*
X5150357Y-11994414D01*
X5140833Y-11975367D01*
X5121786Y-11965843D01*
X5083690Y-11965843D01*
X5064643Y-11975367D01*
X5150357Y-12089652D02*
X5131310Y-12099176D01*
X5083690Y-12099176D01*
X5064643Y-12089652D01*
X5055119Y-12070605D01*
X5055119Y-12051557D01*
X5064643Y-12032509D01*
X5083690Y-12022986D01*
X5131310Y-12022986D01*
X5150357Y-12013462D01*
X5245595Y-11965843D02*
X5245595Y-12165843D01*
X5245595Y-11975367D02*
X5264643Y-11965843D01*
X5302738Y-11965843D01*
X5321786Y-11975367D01*
X5331310Y-11984890D01*
X5340833Y-12003938D01*
X5340833Y-12061081D01*
X5331310Y-12080128D01*
X5321786Y-12089652D01*
X5302738Y-12099176D01*
X5264643Y-12099176D01*
X5245595Y-12089652D01*
X5426548Y-12080128D02*
X5436071Y-12089652D01*
X5426548Y-12099176D01*
X5417024Y-12089652D01*
X5426548Y-12080128D01*
X5426548Y-12099176D01*
X5426548Y-11975367D02*
X5436071Y-11984890D01*
X5426548Y-11994414D01*
X5417024Y-11984890D01*
X5426548Y-11975367D01*
X5426548Y-11994414D01*
D12*
X3757500Y-12408700D02*
X3797500Y-12448700D01*
X3797500Y-12408700D02*
X3757500Y-12448700D01*
D11*
X4093214Y-12319176D02*
X4112262Y-12319176D01*
X4131309Y-12328700D01*
X4140833Y-12338224D01*
X4150357Y-12357271D01*
X4159881Y-12395367D01*
X4159881Y-12442986D01*
X4150357Y-12481081D01*
X4140833Y-12500128D01*
X4131309Y-12509652D01*
X4112262Y-12519176D01*
X4093214Y-12519176D01*
X4074167Y-12509652D01*
X4064643Y-12500128D01*
X4055119Y-12481081D01*
X4045595Y-12442986D01*
X4045595Y-12395367D01*
X4055119Y-12357271D01*
X4064643Y-12338224D01*
X4074167Y-12328700D01*
X4093214Y-12319176D01*
X4245595Y-12500128D02*
X4255119Y-12509652D01*
X4245595Y-12519176D01*
X4236071Y-12509652D01*
X4245595Y-12500128D01*
X4245595Y-12519176D01*
X4426548Y-12385843D02*
X4426548Y-12519176D01*
X4378929Y-12309652D02*
X4331310Y-12452509D01*
X4455119Y-12452509D01*
X4569405Y-12319176D02*
X4588452Y-12319176D01*
X4607500Y-12328700D01*
X4617024Y-12338224D01*
X4626548Y-12357271D01*
X4636071Y-12395367D01*
X4636071Y-12442986D01*
X4626548Y-12481081D01*
X4617024Y-12500128D01*
X4607500Y-12509652D01*
X4588452Y-12519176D01*
X4569405Y-12519176D01*
X4550357Y-12509652D01*
X4540833Y-12500128D01*
X4531310Y-12481081D01*
X4521786Y-12442986D01*
X4521786Y-12395367D01*
X4531310Y-12357271D01*
X4540833Y-12338224D01*
X4550357Y-12328700D01*
X4569405Y-12319176D01*
X4759881Y-12319176D02*
X4778929Y-12319176D01*
X4797976Y-12328700D01*
X4807500Y-12338224D01*
X4817024Y-12357271D01*
X4826548Y-12395367D01*
X4826548Y-12442986D01*
X4817024Y-12481081D01*
X4807500Y-12500128D01*
X4797976Y-12509652D01*
X4778929Y-12519176D01*
X4759881Y-12519176D01*
X4740833Y-12509652D01*
X4731310Y-12500128D01*
X4721786Y-12481081D01*
X4712262Y-12442986D01*
X4712262Y-12395367D01*
X4721786Y-12357271D01*
X4731310Y-12338224D01*
X4740833Y-12328700D01*
X4759881Y-12319176D01*
X4912262Y-12519176D02*
X4912262Y-12385843D01*
X4912262Y-12404890D02*
X4921786Y-12395367D01*
X4940833Y-12385843D01*
X4969405Y-12385843D01*
X4988452Y-12395367D01*
X4997976Y-12414414D01*
X4997976Y-12519176D01*
X4997976Y-12414414D02*
X5007500Y-12395367D01*
X5026548Y-12385843D01*
X5055119Y-12385843D01*
X5074167Y-12395367D01*
X5083690Y-12414414D01*
X5083690Y-12519176D01*
X5178929Y-12519176D02*
X5178929Y-12385843D01*
X5178929Y-12404890D02*
X5188452Y-12395367D01*
X5207500Y-12385843D01*
X5236071Y-12385843D01*
X5255119Y-12395367D01*
X5264643Y-12414414D01*
X5264643Y-12519176D01*
X5264643Y-12414414D02*
X5274167Y-12395367D01*
X5293214Y-12385843D01*
X5321786Y-12385843D01*
X5340833Y-12395367D01*
X5350357Y-12414414D01*
X5350357Y-12519176D01*
X5740833Y-12309652D02*
X5569405Y-12566795D01*
X5997976Y-12319176D02*
X6017024Y-12319176D01*
X6036071Y-12328700D01*
X6045595Y-12338224D01*
X6055119Y-12357271D01*
X6064643Y-12395367D01*
X6064643Y-12442986D01*
X6055119Y-12481081D01*
X6045595Y-12500128D01*
X6036071Y-12509652D01*
X6017024Y-12519176D01*
X5997976Y-12519176D01*
X5978928Y-12509652D01*
X5969405Y-12500128D01*
X5959881Y-12481081D01*
X5950357Y-12442986D01*
X5950357Y-12395367D01*
X5959881Y-12357271D01*
X5969405Y-12338224D01*
X5978928Y-12328700D01*
X5997976Y-12319176D01*
X6150357Y-12500128D02*
X6159881Y-12509652D01*
X6150357Y-12519176D01*
X6140833Y-12509652D01*
X6150357Y-12500128D01*
X6150357Y-12519176D01*
X6283690Y-12319176D02*
X6302738Y-12319176D01*
X6321786Y-12328700D01*
X6331309Y-12338224D01*
X6340833Y-12357271D01*
X6350357Y-12395367D01*
X6350357Y-12442986D01*
X6340833Y-12481081D01*
X6331309Y-12500128D01*
X6321786Y-12509652D01*
X6302738Y-12519176D01*
X6283690Y-12519176D01*
X6264643Y-12509652D01*
X6255119Y-12500128D01*
X6245595Y-12481081D01*
X6236071Y-12442986D01*
X6236071Y-12395367D01*
X6245595Y-12357271D01*
X6255119Y-12338224D01*
X6264643Y-12328700D01*
X6283690Y-12319176D01*
X6540833Y-12519176D02*
X6426548Y-12519176D01*
X6483690Y-12519176D02*
X6483690Y-12319176D01*
X6464643Y-12347748D01*
X6445595Y-12366795D01*
X6426548Y-12376319D01*
X6721786Y-12319176D02*
X6626548Y-12319176D01*
X6617024Y-12414414D01*
X6626548Y-12404890D01*
X6645595Y-12395367D01*
X6693214Y-12395367D01*
X6712262Y-12404890D01*
X6721786Y-12414414D01*
X6731309Y-12433462D01*
X6731309Y-12481081D01*
X6721786Y-12500128D01*
X6712262Y-12509652D01*
X6693214Y-12519176D01*
X6645595Y-12519176D01*
X6626548Y-12509652D01*
X6617024Y-12500128D01*
X6797976Y-12319176D02*
X6931309Y-12319176D01*
X6845595Y-12519176D01*
X6997976Y-12319176D02*
X6997976Y-12357271D01*
X7074167Y-12319176D02*
X7074167Y-12357271D01*
X7369405Y-12595367D02*
X7359881Y-12585843D01*
X7340833Y-12557271D01*
X7331309Y-12538224D01*
X7321786Y-12509652D01*
X7312262Y-12462033D01*
X7312262Y-12423938D01*
X7321786Y-12376319D01*
X7331309Y-12347748D01*
X7340833Y-12328700D01*
X7359881Y-12300128D01*
X7369405Y-12290605D01*
X7474167Y-12404890D02*
X7455119Y-12395367D01*
X7445595Y-12385843D01*
X7436071Y-12366795D01*
X7436071Y-12357271D01*
X7445595Y-12338224D01*
X7455119Y-12328700D01*
X7474167Y-12319176D01*
X7512262Y-12319176D01*
X7531309Y-12328700D01*
X7540833Y-12338224D01*
X7550357Y-12357271D01*
X7550357Y-12366795D01*
X7540833Y-12385843D01*
X7531309Y-12395367D01*
X7512262Y-12404890D01*
X7474167Y-12404890D01*
X7455119Y-12414414D01*
X7445595Y-12423938D01*
X7436071Y-12442986D01*
X7436071Y-12481081D01*
X7445595Y-12500128D01*
X7455119Y-12509652D01*
X7474167Y-12519176D01*
X7512262Y-12519176D01*
X7531309Y-12509652D01*
X7540833Y-12500128D01*
X7550357Y-12481081D01*
X7550357Y-12442986D01*
X7540833Y-12423938D01*
X7531309Y-12414414D01*
X7512262Y-12404890D01*
X7721786Y-12385843D02*
X7721786Y-12519176D01*
X7674167Y-12309652D02*
X7626548Y-12452509D01*
X7750357Y-12452509D01*
X7978928Y-12519176D02*
X7978928Y-12319176D01*
X8064643Y-12519176D02*
X8064643Y-12414414D01*
X8055119Y-12395367D01*
X8036071Y-12385843D01*
X8007500Y-12385843D01*
X7988452Y-12395367D01*
X7978928Y-12404890D01*
X8188452Y-12519176D02*
X8169405Y-12509652D01*
X8159881Y-12500128D01*
X8150357Y-12481081D01*
X8150357Y-12423938D01*
X8159881Y-12404890D01*
X8169405Y-12395367D01*
X8188452Y-12385843D01*
X8217024Y-12385843D01*
X8236071Y-12395367D01*
X8245595Y-12404890D01*
X8255119Y-12423938D01*
X8255119Y-12481081D01*
X8245595Y-12500128D01*
X8236071Y-12509652D01*
X8217024Y-12519176D01*
X8188452Y-12519176D01*
X8369405Y-12519176D02*
X8350357Y-12509652D01*
X8340833Y-12490605D01*
X8340833Y-12319176D01*
X8521786Y-12509652D02*
X8502738Y-12519176D01*
X8464643Y-12519176D01*
X8445595Y-12509652D01*
X8436071Y-12490605D01*
X8436071Y-12414414D01*
X8445595Y-12395367D01*
X8464643Y-12385843D01*
X8502738Y-12385843D01*
X8521786Y-12395367D01*
X8531310Y-12414414D01*
X8531310Y-12433462D01*
X8436071Y-12452509D01*
X8607500Y-12509652D02*
X8626548Y-12519176D01*
X8664643Y-12519176D01*
X8683690Y-12509652D01*
X8693214Y-12490605D01*
X8693214Y-12481081D01*
X8683690Y-12462033D01*
X8664643Y-12452509D01*
X8636071Y-12452509D01*
X8617024Y-12442986D01*
X8607500Y-12423938D01*
X8607500Y-12414414D01*
X8617024Y-12395367D01*
X8636071Y-12385843D01*
X8664643Y-12385843D01*
X8683690Y-12395367D01*
X8759881Y-12595367D02*
X8769405Y-12585843D01*
X8788452Y-12557271D01*
X8797976Y-12538224D01*
X8807500Y-12509652D01*
X8817024Y-12462033D01*
X8817024Y-12423938D01*
X8807500Y-12376319D01*
X8797976Y-12347748D01*
X8788452Y-12328700D01*
X8769405Y-12300128D01*
X8759881Y-12290605D01*
D13*
X3797500Y-12692700D02*
G75*
G03*
X3797500Y-12692700I-35000J0D01*
G01*
D11*
X4093214Y-12583176D02*
X4112262Y-12583176D01*
X4131309Y-12592700D01*
X4140833Y-12602224D01*
X4150357Y-12621271D01*
X4159881Y-12659367D01*
X4159881Y-12706986D01*
X4150357Y-12745081D01*
X4140833Y-12764128D01*
X4131309Y-12773652D01*
X4112262Y-12783176D01*
X4093214Y-12783176D01*
X4074167Y-12773652D01*
X4064643Y-12764128D01*
X4055119Y-12745081D01*
X4045595Y-12706986D01*
X4045595Y-12659367D01*
X4055119Y-12621271D01*
X4064643Y-12602224D01*
X4074167Y-12592700D01*
X4093214Y-12583176D01*
X4245595Y-12764128D02*
X4255119Y-12773652D01*
X4245595Y-12783176D01*
X4236071Y-12773652D01*
X4245595Y-12764128D01*
X4245595Y-12783176D01*
X4321786Y-12583176D02*
X4455119Y-12583176D01*
X4369405Y-12783176D01*
X4569405Y-12583176D02*
X4588452Y-12583176D01*
X4607500Y-12592700D01*
X4617024Y-12602224D01*
X4626548Y-12621271D01*
X4636071Y-12659367D01*
X4636071Y-12706986D01*
X4626548Y-12745081D01*
X4617024Y-12764128D01*
X4607500Y-12773652D01*
X4588452Y-12783176D01*
X4569405Y-12783176D01*
X4550357Y-12773652D01*
X4540833Y-12764128D01*
X4531310Y-12745081D01*
X4521786Y-12706986D01*
X4521786Y-12659367D01*
X4531310Y-12621271D01*
X4540833Y-12602224D01*
X4550357Y-12592700D01*
X4569405Y-12583176D01*
X4759881Y-12583176D02*
X4778929Y-12583176D01*
X4797976Y-12592700D01*
X4807500Y-12602224D01*
X4817024Y-12621271D01*
X4826548Y-12659367D01*
X4826548Y-12706986D01*
X4817024Y-12745081D01*
X4807500Y-12764128D01*
X4797976Y-12773652D01*
X4778929Y-12783176D01*
X4759881Y-12783176D01*
X4740833Y-12773652D01*
X4731310Y-12764128D01*
X4721786Y-12745081D01*
X4712262Y-12706986D01*
X4712262Y-12659367D01*
X4721786Y-12621271D01*
X4731310Y-12602224D01*
X4740833Y-12592700D01*
X4759881Y-12583176D01*
X4912262Y-12783176D02*
X4912262Y-12649843D01*
X4912262Y-12668890D02*
X4921786Y-12659367D01*
X4940833Y-12649843D01*
X4969405Y-12649843D01*
X4988452Y-12659367D01*
X4997976Y-12678414D01*
X4997976Y-12783176D01*
X4997976Y-12678414D02*
X5007500Y-12659367D01*
X5026548Y-12649843D01*
X5055119Y-12649843D01*
X5074167Y-12659367D01*
X5083690Y-12678414D01*
X5083690Y-12783176D01*
X5178929Y-12783176D02*
X5178929Y-12649843D01*
X5178929Y-12668890D02*
X5188452Y-12659367D01*
X5207500Y-12649843D01*
X5236071Y-12649843D01*
X5255119Y-12659367D01*
X5264643Y-12678414D01*
X5264643Y-12783176D01*
X5264643Y-12678414D02*
X5274167Y-12659367D01*
X5293214Y-12649843D01*
X5321786Y-12649843D01*
X5340833Y-12659367D01*
X5350357Y-12678414D01*
X5350357Y-12783176D01*
X5740833Y-12573652D02*
X5569405Y-12830795D01*
X5997976Y-12583176D02*
X6017024Y-12583176D01*
X6036071Y-12592700D01*
X6045595Y-12602224D01*
X6055119Y-12621271D01*
X6064643Y-12659367D01*
X6064643Y-12706986D01*
X6055119Y-12745081D01*
X6045595Y-12764128D01*
X6036071Y-12773652D01*
X6017024Y-12783176D01*
X5997976Y-12783176D01*
X5978928Y-12773652D01*
X5969405Y-12764128D01*
X5959881Y-12745081D01*
X5950357Y-12706986D01*
X5950357Y-12659367D01*
X5959881Y-12621271D01*
X5969405Y-12602224D01*
X5978928Y-12592700D01*
X5997976Y-12583176D01*
X6150357Y-12764128D02*
X6159881Y-12773652D01*
X6150357Y-12783176D01*
X6140833Y-12773652D01*
X6150357Y-12764128D01*
X6150357Y-12783176D01*
X6283690Y-12583176D02*
X6302738Y-12583176D01*
X6321786Y-12592700D01*
X6331309Y-12602224D01*
X6340833Y-12621271D01*
X6350357Y-12659367D01*
X6350357Y-12706986D01*
X6340833Y-12745081D01*
X6331309Y-12764128D01*
X6321786Y-12773652D01*
X6302738Y-12783176D01*
X6283690Y-12783176D01*
X6264643Y-12773652D01*
X6255119Y-12764128D01*
X6245595Y-12745081D01*
X6236071Y-12706986D01*
X6236071Y-12659367D01*
X6245595Y-12621271D01*
X6255119Y-12602224D01*
X6264643Y-12592700D01*
X6283690Y-12583176D01*
X6426548Y-12602224D02*
X6436071Y-12592700D01*
X6455119Y-12583176D01*
X6502738Y-12583176D01*
X6521786Y-12592700D01*
X6531309Y-12602224D01*
X6540833Y-12621271D01*
X6540833Y-12640319D01*
X6531309Y-12668890D01*
X6417024Y-12783176D01*
X6540833Y-12783176D01*
X6607500Y-12583176D02*
X6740833Y-12583176D01*
X6655119Y-12783176D01*
X6902738Y-12583176D02*
X6864643Y-12583176D01*
X6845595Y-12592700D01*
X6836071Y-12602224D01*
X6817024Y-12630795D01*
X6807500Y-12668890D01*
X6807500Y-12745081D01*
X6817024Y-12764128D01*
X6826548Y-12773652D01*
X6845595Y-12783176D01*
X6883690Y-12783176D01*
X6902738Y-12773652D01*
X6912262Y-12764128D01*
X6921786Y-12745081D01*
X6921786Y-12697462D01*
X6912262Y-12678414D01*
X6902738Y-12668890D01*
X6883690Y-12659367D01*
X6845595Y-12659367D01*
X6826548Y-12668890D01*
X6817024Y-12678414D01*
X6807500Y-12697462D01*
X6997976Y-12583176D02*
X6997976Y-12621271D01*
X7074167Y-12583176D02*
X7074167Y-12621271D01*
X7369405Y-12859367D02*
X7359881Y-12849843D01*
X7340833Y-12821271D01*
X7331309Y-12802224D01*
X7321786Y-12773652D01*
X7312262Y-12726033D01*
X7312262Y-12687938D01*
X7321786Y-12640319D01*
X7331309Y-12611748D01*
X7340833Y-12592700D01*
X7359881Y-12564128D01*
X7369405Y-12554605D01*
X7436071Y-12602224D02*
X7445595Y-12592700D01*
X7464643Y-12583176D01*
X7512262Y-12583176D01*
X7531309Y-12592700D01*
X7540833Y-12602224D01*
X7550357Y-12621271D01*
X7550357Y-12640319D01*
X7540833Y-12668890D01*
X7426548Y-12783176D01*
X7550357Y-12783176D01*
X7721786Y-12649843D02*
X7721786Y-12783176D01*
X7674167Y-12573652D02*
X7626548Y-12716509D01*
X7750357Y-12716509D01*
X7978928Y-12783176D02*
X7978928Y-12583176D01*
X8064643Y-12783176D02*
X8064643Y-12678414D01*
X8055119Y-12659367D01*
X8036071Y-12649843D01*
X8007500Y-12649843D01*
X7988452Y-12659367D01*
X7978928Y-12668890D01*
X8188452Y-12783176D02*
X8169405Y-12773652D01*
X8159881Y-12764128D01*
X8150357Y-12745081D01*
X8150357Y-12687938D01*
X8159881Y-12668890D01*
X8169405Y-12659367D01*
X8188452Y-12649843D01*
X8217024Y-12649843D01*
X8236071Y-12659367D01*
X8245595Y-12668890D01*
X8255119Y-12687938D01*
X8255119Y-12745081D01*
X8245595Y-12764128D01*
X8236071Y-12773652D01*
X8217024Y-12783176D01*
X8188452Y-12783176D01*
X8369405Y-12783176D02*
X8350357Y-12773652D01*
X8340833Y-12754605D01*
X8340833Y-12583176D01*
X8521786Y-12773652D02*
X8502738Y-12783176D01*
X8464643Y-12783176D01*
X8445595Y-12773652D01*
X8436071Y-12754605D01*
X8436071Y-12678414D01*
X8445595Y-12659367D01*
X8464643Y-12649843D01*
X8502738Y-12649843D01*
X8521786Y-12659367D01*
X8531310Y-12678414D01*
X8531310Y-12697462D01*
X8436071Y-12716509D01*
X8607500Y-12773652D02*
X8626548Y-12783176D01*
X8664643Y-12783176D01*
X8683690Y-12773652D01*
X8693214Y-12754605D01*
X8693214Y-12745081D01*
X8683690Y-12726033D01*
X8664643Y-12716509D01*
X8636071Y-12716509D01*
X8617024Y-12706986D01*
X8607500Y-12687938D01*
X8607500Y-12678414D01*
X8617024Y-12659367D01*
X8636071Y-12649843D01*
X8664643Y-12649843D01*
X8683690Y-12659367D01*
X8759881Y-12859367D02*
X8769405Y-12849843D01*
X8788452Y-12821271D01*
X8797976Y-12802224D01*
X8807500Y-12773652D01*
X8817024Y-12726033D01*
X8817024Y-12687938D01*
X8807500Y-12640319D01*
X8797976Y-12611748D01*
X8788452Y-12592700D01*
X8769405Y-12564128D01*
X8759881Y-12554605D01*
D14*
X3757500Y-12916700D02*
X3757500Y-12996700D01*
X3717500Y-12956700D02*
X3797500Y-12956700D01*
D11*
X4093214Y-12847176D02*
X4112262Y-12847176D01*
X4131309Y-12856700D01*
X4140833Y-12866224D01*
X4150357Y-12885271D01*
X4159881Y-12923367D01*
X4159881Y-12970986D01*
X4150357Y-13009081D01*
X4140833Y-13028128D01*
X4131309Y-13037652D01*
X4112262Y-13047176D01*
X4093214Y-13047176D01*
X4074167Y-13037652D01*
X4064643Y-13028128D01*
X4055119Y-13009081D01*
X4045595Y-12970986D01*
X4045595Y-12923367D01*
X4055119Y-12885271D01*
X4064643Y-12866224D01*
X4074167Y-12856700D01*
X4093214Y-12847176D01*
X4245595Y-13028128D02*
X4255119Y-13037652D01*
X4245595Y-13047176D01*
X4236071Y-13037652D01*
X4245595Y-13028128D01*
X4245595Y-13047176D01*
X4369405Y-12932890D02*
X4350357Y-12923367D01*
X4340833Y-12913843D01*
X4331310Y-12894795D01*
X4331310Y-12885271D01*
X4340833Y-12866224D01*
X4350357Y-12856700D01*
X4369405Y-12847176D01*
X4407500Y-12847176D01*
X4426548Y-12856700D01*
X4436071Y-12866224D01*
X4445595Y-12885271D01*
X4445595Y-12894795D01*
X4436071Y-12913843D01*
X4426548Y-12923367D01*
X4407500Y-12932890D01*
X4369405Y-12932890D01*
X4350357Y-12942414D01*
X4340833Y-12951938D01*
X4331310Y-12970986D01*
X4331310Y-13009081D01*
X4340833Y-13028128D01*
X4350357Y-13037652D01*
X4369405Y-13047176D01*
X4407500Y-13047176D01*
X4426548Y-13037652D01*
X4436071Y-13028128D01*
X4445595Y-13009081D01*
X4445595Y-12970986D01*
X4436071Y-12951938D01*
X4426548Y-12942414D01*
X4407500Y-12932890D01*
X4569405Y-12847176D02*
X4588452Y-12847176D01*
X4607500Y-12856700D01*
X4617024Y-12866224D01*
X4626548Y-12885271D01*
X4636071Y-12923367D01*
X4636071Y-12970986D01*
X4626548Y-13009081D01*
X4617024Y-13028128D01*
X4607500Y-13037652D01*
X4588452Y-13047176D01*
X4569405Y-13047176D01*
X4550357Y-13037652D01*
X4540833Y-13028128D01*
X4531310Y-13009081D01*
X4521786Y-12970986D01*
X4521786Y-12923367D01*
X4531310Y-12885271D01*
X4540833Y-12866224D01*
X4550357Y-12856700D01*
X4569405Y-12847176D01*
X4759881Y-12847176D02*
X4778929Y-12847176D01*
X4797976Y-12856700D01*
X4807500Y-12866224D01*
X4817024Y-12885271D01*
X4826548Y-12923367D01*
X4826548Y-12970986D01*
X4817024Y-13009081D01*
X4807500Y-13028128D01*
X4797976Y-13037652D01*
X4778929Y-13047176D01*
X4759881Y-13047176D01*
X4740833Y-13037652D01*
X4731310Y-13028128D01*
X4721786Y-13009081D01*
X4712262Y-12970986D01*
X4712262Y-12923367D01*
X4721786Y-12885271D01*
X4731310Y-12866224D01*
X4740833Y-12856700D01*
X4759881Y-12847176D01*
X4912262Y-13047176D02*
X4912262Y-12913843D01*
X4912262Y-12932890D02*
X4921786Y-12923367D01*
X4940833Y-12913843D01*
X4969405Y-12913843D01*
X4988452Y-12923367D01*
X4997976Y-12942414D01*
X4997976Y-13047176D01*
X4997976Y-12942414D02*
X5007500Y-12923367D01*
X5026548Y-12913843D01*
X5055119Y-12913843D01*
X5074167Y-12923367D01*
X5083690Y-12942414D01*
X5083690Y-13047176D01*
X5178929Y-13047176D02*
X5178929Y-12913843D01*
X5178929Y-12932890D02*
X5188452Y-12923367D01*
X5207500Y-12913843D01*
X5236071Y-12913843D01*
X5255119Y-12923367D01*
X5264643Y-12942414D01*
X5264643Y-13047176D01*
X5264643Y-12942414D02*
X5274167Y-12923367D01*
X5293214Y-12913843D01*
X5321786Y-12913843D01*
X5340833Y-12923367D01*
X5350357Y-12942414D01*
X5350357Y-13047176D01*
X5740833Y-12837652D02*
X5569405Y-13094795D01*
X5997976Y-12847176D02*
X6017024Y-12847176D01*
X6036071Y-12856700D01*
X6045595Y-12866224D01*
X6055119Y-12885271D01*
X6064643Y-12923367D01*
X6064643Y-12970986D01*
X6055119Y-13009081D01*
X6045595Y-13028128D01*
X6036071Y-13037652D01*
X6017024Y-13047176D01*
X5997976Y-13047176D01*
X5978928Y-13037652D01*
X5969405Y-13028128D01*
X5959881Y-13009081D01*
X5950357Y-12970986D01*
X5950357Y-12923367D01*
X5959881Y-12885271D01*
X5969405Y-12866224D01*
X5978928Y-12856700D01*
X5997976Y-12847176D01*
X6150357Y-13028128D02*
X6159881Y-13037652D01*
X6150357Y-13047176D01*
X6140833Y-13037652D01*
X6150357Y-13028128D01*
X6150357Y-13047176D01*
X6283690Y-12847176D02*
X6302738Y-12847176D01*
X6321786Y-12856700D01*
X6331309Y-12866224D01*
X6340833Y-12885271D01*
X6350357Y-12923367D01*
X6350357Y-12970986D01*
X6340833Y-13009081D01*
X6331309Y-13028128D01*
X6321786Y-13037652D01*
X6302738Y-13047176D01*
X6283690Y-13047176D01*
X6264643Y-13037652D01*
X6255119Y-13028128D01*
X6245595Y-13009081D01*
X6236071Y-12970986D01*
X6236071Y-12923367D01*
X6245595Y-12885271D01*
X6255119Y-12866224D01*
X6264643Y-12856700D01*
X6283690Y-12847176D01*
X6417024Y-12847176D02*
X6540833Y-12847176D01*
X6474167Y-12923367D01*
X6502738Y-12923367D01*
X6521786Y-12932890D01*
X6531309Y-12942414D01*
X6540833Y-12961462D01*
X6540833Y-13009081D01*
X6531309Y-13028128D01*
X6521786Y-13037652D01*
X6502738Y-13047176D01*
X6445595Y-13047176D01*
X6426548Y-13037652D01*
X6417024Y-13028128D01*
X6731309Y-13047176D02*
X6617024Y-13047176D01*
X6674167Y-13047176D02*
X6674167Y-12847176D01*
X6655119Y-12875748D01*
X6636071Y-12894795D01*
X6617024Y-12904319D01*
X6912262Y-12847176D02*
X6817024Y-12847176D01*
X6807500Y-12942414D01*
X6817024Y-12932890D01*
X6836071Y-12923367D01*
X6883690Y-12923367D01*
X6902738Y-12932890D01*
X6912262Y-12942414D01*
X6921786Y-12961462D01*
X6921786Y-13009081D01*
X6912262Y-13028128D01*
X6902738Y-13037652D01*
X6883690Y-13047176D01*
X6836071Y-13047176D01*
X6817024Y-13037652D01*
X6807500Y-13028128D01*
X6997976Y-12847176D02*
X6997976Y-12885271D01*
X7074167Y-12847176D02*
X7074167Y-12885271D01*
X7369405Y-13123367D02*
X7359881Y-13113843D01*
X7340833Y-13085271D01*
X7331309Y-13066224D01*
X7321786Y-13037652D01*
X7312262Y-12990033D01*
X7312262Y-12951938D01*
X7321786Y-12904319D01*
X7331309Y-12875748D01*
X7340833Y-12856700D01*
X7359881Y-12828128D01*
X7369405Y-12818605D01*
X7550357Y-13047176D02*
X7436071Y-13047176D01*
X7493214Y-13047176D02*
X7493214Y-12847176D01*
X7474167Y-12875748D01*
X7455119Y-12894795D01*
X7436071Y-12904319D01*
X7664643Y-12932890D02*
X7645595Y-12923367D01*
X7636071Y-12913843D01*
X7626548Y-12894795D01*
X7626548Y-12885271D01*
X7636071Y-12866224D01*
X7645595Y-12856700D01*
X7664643Y-12847176D01*
X7702738Y-12847176D01*
X7721786Y-12856700D01*
X7731309Y-12866224D01*
X7740833Y-12885271D01*
X7740833Y-12894795D01*
X7731309Y-12913843D01*
X7721786Y-12923367D01*
X7702738Y-12932890D01*
X7664643Y-12932890D01*
X7645595Y-12942414D01*
X7636071Y-12951938D01*
X7626548Y-12970986D01*
X7626548Y-13009081D01*
X7636071Y-13028128D01*
X7645595Y-13037652D01*
X7664643Y-13047176D01*
X7702738Y-13047176D01*
X7721786Y-13037652D01*
X7731309Y-13028128D01*
X7740833Y-13009081D01*
X7740833Y-12970986D01*
X7731309Y-12951938D01*
X7721786Y-12942414D01*
X7702738Y-12932890D01*
X7978928Y-13047176D02*
X7978928Y-12847176D01*
X8064643Y-13047176D02*
X8064643Y-12942414D01*
X8055119Y-12923367D01*
X8036071Y-12913843D01*
X8007500Y-12913843D01*
X7988452Y-12923367D01*
X7978928Y-12932890D01*
X8188452Y-13047176D02*
X8169405Y-13037652D01*
X8159881Y-13028128D01*
X8150357Y-13009081D01*
X8150357Y-12951938D01*
X8159881Y-12932890D01*
X8169405Y-12923367D01*
X8188452Y-12913843D01*
X8217024Y-12913843D01*
X8236071Y-12923367D01*
X8245595Y-12932890D01*
X8255119Y-12951938D01*
X8255119Y-13009081D01*
X8245595Y-13028128D01*
X8236071Y-13037652D01*
X8217024Y-13047176D01*
X8188452Y-13047176D01*
X8369405Y-13047176D02*
X8350357Y-13037652D01*
X8340833Y-13018605D01*
X8340833Y-12847176D01*
X8521786Y-13037652D02*
X8502738Y-13047176D01*
X8464643Y-13047176D01*
X8445595Y-13037652D01*
X8436071Y-13018605D01*
X8436071Y-12942414D01*
X8445595Y-12923367D01*
X8464643Y-12913843D01*
X8502738Y-12913843D01*
X8521786Y-12923367D01*
X8531310Y-12942414D01*
X8531310Y-12961462D01*
X8436071Y-12980509D01*
X8607500Y-13037652D02*
X8626548Y-13047176D01*
X8664643Y-13047176D01*
X8683690Y-13037652D01*
X8693214Y-13018605D01*
X8693214Y-13009081D01*
X8683690Y-12990033D01*
X8664643Y-12980509D01*
X8636071Y-12980509D01*
X8617024Y-12970986D01*
X8607500Y-12951938D01*
X8607500Y-12942414D01*
X8617024Y-12923367D01*
X8636071Y-12913843D01*
X8664643Y-12913843D01*
X8683690Y-12923367D01*
X8759881Y-13123367D02*
X8769405Y-13113843D01*
X8788452Y-13085271D01*
X8797976Y-13066224D01*
X8807500Y-13037652D01*
X8817024Y-12990033D01*
X8817024Y-12951938D01*
X8807500Y-12904319D01*
X8797976Y-12875748D01*
X8788452Y-12856700D01*
X8769405Y-12828128D01*
X8759881Y-12818605D01*
D15*
X3784027Y-13253227D02*
X3784027Y-13188173D01*
X3718973Y-13188173D01*
X3718973Y-13253227D01*
X3784027Y-13253227D01*
D11*
X4093214Y-13111176D02*
X4112262Y-13111176D01*
X4131309Y-13120700D01*
X4140833Y-13130224D01*
X4150357Y-13149271D01*
X4159881Y-13187367D01*
X4159881Y-13234986D01*
X4150357Y-13273081D01*
X4140833Y-13292128D01*
X4131309Y-13301652D01*
X4112262Y-13311176D01*
X4093214Y-13311176D01*
X4074167Y-13301652D01*
X4064643Y-13292128D01*
X4055119Y-13273081D01*
X4045595Y-13234986D01*
X4045595Y-13187367D01*
X4055119Y-13149271D01*
X4064643Y-13130224D01*
X4074167Y-13120700D01*
X4093214Y-13111176D01*
X4245595Y-13292128D02*
X4255119Y-13301652D01*
X4245595Y-13311176D01*
X4236071Y-13301652D01*
X4245595Y-13292128D01*
X4245595Y-13311176D01*
X4350357Y-13311176D02*
X4388452Y-13311176D01*
X4407500Y-13301652D01*
X4417024Y-13292128D01*
X4436071Y-13263557D01*
X4445595Y-13225462D01*
X4445595Y-13149271D01*
X4436071Y-13130224D01*
X4426548Y-13120700D01*
X4407500Y-13111176D01*
X4369405Y-13111176D01*
X4350357Y-13120700D01*
X4340833Y-13130224D01*
X4331310Y-13149271D01*
X4331310Y-13196890D01*
X4340833Y-13215938D01*
X4350357Y-13225462D01*
X4369405Y-13234986D01*
X4407500Y-13234986D01*
X4426548Y-13225462D01*
X4436071Y-13215938D01*
X4445595Y-13196890D01*
X4521786Y-13130224D02*
X4531310Y-13120700D01*
X4550357Y-13111176D01*
X4597976Y-13111176D01*
X4617024Y-13120700D01*
X4626548Y-13130224D01*
X4636071Y-13149271D01*
X4636071Y-13168319D01*
X4626548Y-13196890D01*
X4512262Y-13311176D01*
X4636071Y-13311176D01*
X4759881Y-13111176D02*
X4778929Y-13111176D01*
X4797976Y-13120700D01*
X4807500Y-13130224D01*
X4817024Y-13149271D01*
X4826548Y-13187367D01*
X4826548Y-13234986D01*
X4817024Y-13273081D01*
X4807500Y-13292128D01*
X4797976Y-13301652D01*
X4778929Y-13311176D01*
X4759881Y-13311176D01*
X4740833Y-13301652D01*
X4731310Y-13292128D01*
X4721786Y-13273081D01*
X4712262Y-13234986D01*
X4712262Y-13187367D01*
X4721786Y-13149271D01*
X4731310Y-13130224D01*
X4740833Y-13120700D01*
X4759881Y-13111176D01*
X4912262Y-13311176D02*
X4912262Y-13177843D01*
X4912262Y-13196890D02*
X4921786Y-13187367D01*
X4940833Y-13177843D01*
X4969405Y-13177843D01*
X4988452Y-13187367D01*
X4997976Y-13206414D01*
X4997976Y-13311176D01*
X4997976Y-13206414D02*
X5007500Y-13187367D01*
X5026548Y-13177843D01*
X5055119Y-13177843D01*
X5074167Y-13187367D01*
X5083690Y-13206414D01*
X5083690Y-13311176D01*
X5178929Y-13311176D02*
X5178929Y-13177843D01*
X5178929Y-13196890D02*
X5188452Y-13187367D01*
X5207500Y-13177843D01*
X5236071Y-13177843D01*
X5255119Y-13187367D01*
X5264643Y-13206414D01*
X5264643Y-13311176D01*
X5264643Y-13206414D02*
X5274167Y-13187367D01*
X5293214Y-13177843D01*
X5321786Y-13177843D01*
X5340833Y-13187367D01*
X5350357Y-13206414D01*
X5350357Y-13311176D01*
X5740833Y-13101652D02*
X5569405Y-13358795D01*
X5997976Y-13111176D02*
X6017024Y-13111176D01*
X6036071Y-13120700D01*
X6045595Y-13130224D01*
X6055119Y-13149271D01*
X6064643Y-13187367D01*
X6064643Y-13234986D01*
X6055119Y-13273081D01*
X6045595Y-13292128D01*
X6036071Y-13301652D01*
X6017024Y-13311176D01*
X5997976Y-13311176D01*
X5978928Y-13301652D01*
X5969405Y-13292128D01*
X5959881Y-13273081D01*
X5950357Y-13234986D01*
X5950357Y-13187367D01*
X5959881Y-13149271D01*
X5969405Y-13130224D01*
X5978928Y-13120700D01*
X5997976Y-13111176D01*
X6150357Y-13292128D02*
X6159881Y-13301652D01*
X6150357Y-13311176D01*
X6140833Y-13301652D01*
X6150357Y-13292128D01*
X6150357Y-13311176D01*
X6283690Y-13111176D02*
X6302738Y-13111176D01*
X6321786Y-13120700D01*
X6331309Y-13130224D01*
X6340833Y-13149271D01*
X6350357Y-13187367D01*
X6350357Y-13234986D01*
X6340833Y-13273081D01*
X6331309Y-13292128D01*
X6321786Y-13301652D01*
X6302738Y-13311176D01*
X6283690Y-13311176D01*
X6264643Y-13301652D01*
X6255119Y-13292128D01*
X6245595Y-13273081D01*
X6236071Y-13234986D01*
X6236071Y-13187367D01*
X6245595Y-13149271D01*
X6255119Y-13130224D01*
X6264643Y-13120700D01*
X6283690Y-13111176D01*
X6417024Y-13111176D02*
X6540833Y-13111176D01*
X6474167Y-13187367D01*
X6502738Y-13187367D01*
X6521786Y-13196890D01*
X6531309Y-13206414D01*
X6540833Y-13225462D01*
X6540833Y-13273081D01*
X6531309Y-13292128D01*
X6521786Y-13301652D01*
X6502738Y-13311176D01*
X6445595Y-13311176D01*
X6426548Y-13301652D01*
X6417024Y-13292128D01*
X6712262Y-13111176D02*
X6674167Y-13111176D01*
X6655119Y-13120700D01*
X6645595Y-13130224D01*
X6626548Y-13158795D01*
X6617024Y-13196890D01*
X6617024Y-13273081D01*
X6626548Y-13292128D01*
X6636071Y-13301652D01*
X6655119Y-13311176D01*
X6693214Y-13311176D01*
X6712262Y-13301652D01*
X6721786Y-13292128D01*
X6731309Y-13273081D01*
X6731309Y-13225462D01*
X6721786Y-13206414D01*
X6712262Y-13196890D01*
X6693214Y-13187367D01*
X6655119Y-13187367D01*
X6636071Y-13196890D01*
X6626548Y-13206414D01*
X6617024Y-13225462D01*
X6807500Y-13130224D02*
X6817024Y-13120700D01*
X6836071Y-13111176D01*
X6883690Y-13111176D01*
X6902738Y-13120700D01*
X6912262Y-13130224D01*
X6921786Y-13149271D01*
X6921786Y-13168319D01*
X6912262Y-13196890D01*
X6797976Y-13311176D01*
X6921786Y-13311176D01*
X6997976Y-13111176D02*
X6997976Y-13149271D01*
X7074167Y-13111176D02*
X7074167Y-13149271D01*
X7369405Y-13387367D02*
X7359881Y-13377843D01*
X7340833Y-13349271D01*
X7331309Y-13330224D01*
X7321786Y-13301652D01*
X7312262Y-13254033D01*
X7312262Y-13215938D01*
X7321786Y-13168319D01*
X7331309Y-13139748D01*
X7340833Y-13120700D01*
X7359881Y-13092128D01*
X7369405Y-13082605D01*
X7531309Y-13177843D02*
X7531309Y-13311176D01*
X7483690Y-13101652D02*
X7436071Y-13244509D01*
X7559881Y-13244509D01*
X7788452Y-13311176D02*
X7788452Y-13111176D01*
X7874167Y-13311176D02*
X7874167Y-13206414D01*
X7864643Y-13187367D01*
X7845595Y-13177843D01*
X7817024Y-13177843D01*
X7797976Y-13187367D01*
X7788452Y-13196890D01*
X7997976Y-13311176D02*
X7978928Y-13301652D01*
X7969405Y-13292128D01*
X7959881Y-13273081D01*
X7959881Y-13215938D01*
X7969405Y-13196890D01*
X7978928Y-13187367D01*
X7997976Y-13177843D01*
X8026548Y-13177843D01*
X8045595Y-13187367D01*
X8055119Y-13196890D01*
X8064643Y-13215938D01*
X8064643Y-13273081D01*
X8055119Y-13292128D01*
X8045595Y-13301652D01*
X8026548Y-13311176D01*
X7997976Y-13311176D01*
X8178928Y-13311176D02*
X8159881Y-13301652D01*
X8150357Y-13282605D01*
X8150357Y-13111176D01*
X8331309Y-13301652D02*
X8312262Y-13311176D01*
X8274167Y-13311176D01*
X8255119Y-13301652D01*
X8245595Y-13282605D01*
X8245595Y-13206414D01*
X8255119Y-13187367D01*
X8274167Y-13177843D01*
X8312262Y-13177843D01*
X8331309Y-13187367D01*
X8340833Y-13206414D01*
X8340833Y-13225462D01*
X8245595Y-13244509D01*
X8417024Y-13301652D02*
X8436071Y-13311176D01*
X8474167Y-13311176D01*
X8493214Y-13301652D01*
X8502738Y-13282605D01*
X8502738Y-13273081D01*
X8493214Y-13254033D01*
X8474167Y-13244509D01*
X8445595Y-13244509D01*
X8426548Y-13234986D01*
X8417024Y-13215938D01*
X8417024Y-13206414D01*
X8426548Y-13187367D01*
X8445595Y-13177843D01*
X8474167Y-13177843D01*
X8493214Y-13187367D01*
X8569405Y-13387367D02*
X8578929Y-13377843D01*
X8597976Y-13349271D01*
X8607500Y-13330224D01*
X8617024Y-13301652D01*
X8626548Y-13254033D01*
X8626548Y-13215938D01*
X8617024Y-13168319D01*
X8607500Y-13139748D01*
X8597976Y-13120700D01*
X8578929Y-13092128D01*
X8569405Y-13082605D01*
D16*
X3747500Y-13534700D02*
X3797500Y-13484700D01*
X3747500Y-13434700D01*
X3697500Y-13484700D01*
X3747500Y-13534700D01*
D11*
X4159881Y-13575176D02*
X4045595Y-13575176D01*
X4102738Y-13575176D02*
X4102738Y-13375176D01*
X4083690Y-13403748D01*
X4064643Y-13422795D01*
X4045595Y-13432319D01*
X4245595Y-13556128D02*
X4255119Y-13565652D01*
X4245595Y-13575176D01*
X4236071Y-13565652D01*
X4245595Y-13556128D01*
X4245595Y-13575176D01*
X4378929Y-13375176D02*
X4397976Y-13375176D01*
X4417024Y-13384700D01*
X4426548Y-13394224D01*
X4436071Y-13413271D01*
X4445595Y-13451367D01*
X4445595Y-13498986D01*
X4436071Y-13537081D01*
X4426548Y-13556128D01*
X4417024Y-13565652D01*
X4397976Y-13575176D01*
X4378929Y-13575176D01*
X4359881Y-13565652D01*
X4350357Y-13556128D01*
X4340833Y-13537081D01*
X4331310Y-13498986D01*
X4331310Y-13451367D01*
X4340833Y-13413271D01*
X4350357Y-13394224D01*
X4359881Y-13384700D01*
X4378929Y-13375176D01*
X4569405Y-13375176D02*
X4588452Y-13375176D01*
X4607500Y-13384700D01*
X4617024Y-13394224D01*
X4626548Y-13413271D01*
X4636071Y-13451367D01*
X4636071Y-13498986D01*
X4626548Y-13537081D01*
X4617024Y-13556128D01*
X4607500Y-13565652D01*
X4588452Y-13575176D01*
X4569405Y-13575176D01*
X4550357Y-13565652D01*
X4540833Y-13556128D01*
X4531310Y-13537081D01*
X4521786Y-13498986D01*
X4521786Y-13451367D01*
X4531310Y-13413271D01*
X4540833Y-13394224D01*
X4550357Y-13384700D01*
X4569405Y-13375176D01*
X4759881Y-13375176D02*
X4778929Y-13375176D01*
X4797976Y-13384700D01*
X4807500Y-13394224D01*
X4817024Y-13413271D01*
X4826548Y-13451367D01*
X4826548Y-13498986D01*
X4817024Y-13537081D01*
X4807500Y-13556128D01*
X4797976Y-13565652D01*
X4778929Y-13575176D01*
X4759881Y-13575176D01*
X4740833Y-13565652D01*
X4731310Y-13556128D01*
X4721786Y-13537081D01*
X4712262Y-13498986D01*
X4712262Y-13451367D01*
X4721786Y-13413271D01*
X4731310Y-13394224D01*
X4740833Y-13384700D01*
X4759881Y-13375176D01*
X4912262Y-13575176D02*
X4912262Y-13441843D01*
X4912262Y-13460890D02*
X4921786Y-13451367D01*
X4940833Y-13441843D01*
X4969405Y-13441843D01*
X4988452Y-13451367D01*
X4997976Y-13470414D01*
X4997976Y-13575176D01*
X4997976Y-13470414D02*
X5007500Y-13451367D01*
X5026548Y-13441843D01*
X5055119Y-13441843D01*
X5074167Y-13451367D01*
X5083690Y-13470414D01*
X5083690Y-13575176D01*
X5178929Y-13575176D02*
X5178929Y-13441843D01*
X5178929Y-13460890D02*
X5188452Y-13451367D01*
X5207500Y-13441843D01*
X5236071Y-13441843D01*
X5255119Y-13451367D01*
X5264643Y-13470414D01*
X5264643Y-13575176D01*
X5264643Y-13470414D02*
X5274167Y-13451367D01*
X5293214Y-13441843D01*
X5321786Y-13441843D01*
X5340833Y-13451367D01*
X5350357Y-13470414D01*
X5350357Y-13575176D01*
X5740833Y-13365652D02*
X5569405Y-13622795D01*
X5997976Y-13375176D02*
X6017024Y-13375176D01*
X6036071Y-13384700D01*
X6045595Y-13394224D01*
X6055119Y-13413271D01*
X6064643Y-13451367D01*
X6064643Y-13498986D01*
X6055119Y-13537081D01*
X6045595Y-13556128D01*
X6036071Y-13565652D01*
X6017024Y-13575176D01*
X5997976Y-13575176D01*
X5978928Y-13565652D01*
X5969405Y-13556128D01*
X5959881Y-13537081D01*
X5950357Y-13498986D01*
X5950357Y-13451367D01*
X5959881Y-13413271D01*
X5969405Y-13394224D01*
X5978928Y-13384700D01*
X5997976Y-13375176D01*
X6150357Y-13556128D02*
X6159881Y-13565652D01*
X6150357Y-13575176D01*
X6140833Y-13565652D01*
X6150357Y-13556128D01*
X6150357Y-13575176D01*
X6283690Y-13375176D02*
X6302738Y-13375176D01*
X6321786Y-13384700D01*
X6331309Y-13394224D01*
X6340833Y-13413271D01*
X6350357Y-13451367D01*
X6350357Y-13498986D01*
X6340833Y-13537081D01*
X6331309Y-13556128D01*
X6321786Y-13565652D01*
X6302738Y-13575176D01*
X6283690Y-13575176D01*
X6264643Y-13565652D01*
X6255119Y-13556128D01*
X6245595Y-13537081D01*
X6236071Y-13498986D01*
X6236071Y-13451367D01*
X6245595Y-13413271D01*
X6255119Y-13394224D01*
X6264643Y-13384700D01*
X6283690Y-13375176D01*
X6417024Y-13375176D02*
X6540833Y-13375176D01*
X6474167Y-13451367D01*
X6502738Y-13451367D01*
X6521786Y-13460890D01*
X6531309Y-13470414D01*
X6540833Y-13489462D01*
X6540833Y-13537081D01*
X6531309Y-13556128D01*
X6521786Y-13565652D01*
X6502738Y-13575176D01*
X6445595Y-13575176D01*
X6426548Y-13565652D01*
X6417024Y-13556128D01*
X6636071Y-13575176D02*
X6674167Y-13575176D01*
X6693214Y-13565652D01*
X6702738Y-13556128D01*
X6721786Y-13527557D01*
X6731309Y-13489462D01*
X6731309Y-13413271D01*
X6721786Y-13394224D01*
X6712262Y-13384700D01*
X6693214Y-13375176D01*
X6655119Y-13375176D01*
X6636071Y-13384700D01*
X6626548Y-13394224D01*
X6617024Y-13413271D01*
X6617024Y-13460890D01*
X6626548Y-13479938D01*
X6636071Y-13489462D01*
X6655119Y-13498986D01*
X6693214Y-13498986D01*
X6712262Y-13489462D01*
X6721786Y-13479938D01*
X6731309Y-13460890D01*
X6902738Y-13441843D02*
X6902738Y-13575176D01*
X6855119Y-13365652D02*
X6807500Y-13508509D01*
X6931309Y-13508509D01*
X6997976Y-13375176D02*
X6997976Y-13413271D01*
X7074167Y-13375176D02*
X7074167Y-13413271D01*
X7369405Y-13651367D02*
X7359881Y-13641843D01*
X7340833Y-13613271D01*
X7331309Y-13594224D01*
X7321786Y-13565652D01*
X7312262Y-13518033D01*
X7312262Y-13479938D01*
X7321786Y-13432319D01*
X7331309Y-13403748D01*
X7340833Y-13384700D01*
X7359881Y-13356128D01*
X7369405Y-13346605D01*
X7436071Y-13394224D02*
X7445595Y-13384700D01*
X7464643Y-13375176D01*
X7512262Y-13375176D01*
X7531309Y-13384700D01*
X7540833Y-13394224D01*
X7550357Y-13413271D01*
X7550357Y-13432319D01*
X7540833Y-13460890D01*
X7426548Y-13575176D01*
X7550357Y-13575176D01*
X7617024Y-13375176D02*
X7750357Y-13375176D01*
X7664643Y-13575176D01*
X7978928Y-13575176D02*
X7978928Y-13375176D01*
X8064643Y-13575176D02*
X8064643Y-13470414D01*
X8055119Y-13451367D01*
X8036071Y-13441843D01*
X8007500Y-13441843D01*
X7988452Y-13451367D01*
X7978928Y-13460890D01*
X8188452Y-13575176D02*
X8169405Y-13565652D01*
X8159881Y-13556128D01*
X8150357Y-13537081D01*
X8150357Y-13479938D01*
X8159881Y-13460890D01*
X8169405Y-13451367D01*
X8188452Y-13441843D01*
X8217024Y-13441843D01*
X8236071Y-13451367D01*
X8245595Y-13460890D01*
X8255119Y-13479938D01*
X8255119Y-13537081D01*
X8245595Y-13556128D01*
X8236071Y-13565652D01*
X8217024Y-13575176D01*
X8188452Y-13575176D01*
X8369405Y-13575176D02*
X8350357Y-13565652D01*
X8340833Y-13546605D01*
X8340833Y-13375176D01*
X8521786Y-13565652D02*
X8502738Y-13575176D01*
X8464643Y-13575176D01*
X8445595Y-13565652D01*
X8436071Y-13546605D01*
X8436071Y-13470414D01*
X8445595Y-13451367D01*
X8464643Y-13441843D01*
X8502738Y-13441843D01*
X8521786Y-13451367D01*
X8531310Y-13470414D01*
X8531310Y-13489462D01*
X8436071Y-13508509D01*
X8607500Y-13565652D02*
X8626548Y-13575176D01*
X8664643Y-13575176D01*
X8683690Y-13565652D01*
X8693214Y-13546605D01*
X8693214Y-13537081D01*
X8683690Y-13518033D01*
X8664643Y-13508509D01*
X8636071Y-13508509D01*
X8617024Y-13498986D01*
X8607500Y-13479938D01*
X8607500Y-13470414D01*
X8617024Y-13451367D01*
X8636071Y-13441843D01*
X8664643Y-13441843D01*
X8683690Y-13451367D01*
X8759881Y-13651367D02*
X8769405Y-13641843D01*
X8788452Y-13613271D01*
X8797976Y-13594224D01*
X8807500Y-13565652D01*
X8817024Y-13518033D01*
X8817024Y-13479938D01*
X8807500Y-13432319D01*
X8797976Y-13403748D01*
X8788452Y-13384700D01*
X8769405Y-13356128D01*
X8759881Y-13346605D01*
D17*
X3687500Y-13693700D02*
X3797500Y-13803700D01*
X3797500Y-13693700D02*
X3687500Y-13803700D01*
X3797500Y-13748700D02*
G75*
G03*
X3797500Y-13748700I-55000J0D01*
G01*
D11*
X4159881Y-13839176D02*
X4045595Y-13839176D01*
X4102738Y-13839176D02*
X4102738Y-13639176D01*
X4083690Y-13667748D01*
X4064643Y-13686795D01*
X4045595Y-13696319D01*
X4245595Y-13820128D02*
X4255119Y-13829652D01*
X4245595Y-13839176D01*
X4236071Y-13829652D01*
X4245595Y-13820128D01*
X4245595Y-13839176D01*
X4445595Y-13839176D02*
X4331310Y-13839176D01*
X4388452Y-13839176D02*
X4388452Y-13639176D01*
X4369405Y-13667748D01*
X4350357Y-13686795D01*
X4331310Y-13696319D01*
X4569405Y-13639176D02*
X4588452Y-13639176D01*
X4607500Y-13648700D01*
X4617024Y-13658224D01*
X4626548Y-13677271D01*
X4636071Y-13715367D01*
X4636071Y-13762986D01*
X4626548Y-13801081D01*
X4617024Y-13820128D01*
X4607500Y-13829652D01*
X4588452Y-13839176D01*
X4569405Y-13839176D01*
X4550357Y-13829652D01*
X4540833Y-13820128D01*
X4531310Y-13801081D01*
X4521786Y-13762986D01*
X4521786Y-13715367D01*
X4531310Y-13677271D01*
X4540833Y-13658224D01*
X4550357Y-13648700D01*
X4569405Y-13639176D01*
X4759881Y-13639176D02*
X4778929Y-13639176D01*
X4797976Y-13648700D01*
X4807500Y-13658224D01*
X4817024Y-13677271D01*
X4826548Y-13715367D01*
X4826548Y-13762986D01*
X4817024Y-13801081D01*
X4807500Y-13820128D01*
X4797976Y-13829652D01*
X4778929Y-13839176D01*
X4759881Y-13839176D01*
X4740833Y-13829652D01*
X4731310Y-13820128D01*
X4721786Y-13801081D01*
X4712262Y-13762986D01*
X4712262Y-13715367D01*
X4721786Y-13677271D01*
X4731310Y-13658224D01*
X4740833Y-13648700D01*
X4759881Y-13639176D01*
X4912262Y-13839176D02*
X4912262Y-13705843D01*
X4912262Y-13724890D02*
X4921786Y-13715367D01*
X4940833Y-13705843D01*
X4969405Y-13705843D01*
X4988452Y-13715367D01*
X4997976Y-13734414D01*
X4997976Y-13839176D01*
X4997976Y-13734414D02*
X5007500Y-13715367D01*
X5026548Y-13705843D01*
X5055119Y-13705843D01*
X5074167Y-13715367D01*
X5083690Y-13734414D01*
X5083690Y-13839176D01*
X5178929Y-13839176D02*
X5178929Y-13705843D01*
X5178929Y-13724890D02*
X5188452Y-13715367D01*
X5207500Y-13705843D01*
X5236071Y-13705843D01*
X5255119Y-13715367D01*
X5264643Y-13734414D01*
X5264643Y-13839176D01*
X5264643Y-13734414D02*
X5274167Y-13715367D01*
X5293214Y-13705843D01*
X5321786Y-13705843D01*
X5340833Y-13715367D01*
X5350357Y-13734414D01*
X5350357Y-13839176D01*
X5740833Y-13629652D02*
X5569405Y-13886795D01*
X5997976Y-13639176D02*
X6017024Y-13639176D01*
X6036071Y-13648700D01*
X6045595Y-13658224D01*
X6055119Y-13677271D01*
X6064643Y-13715367D01*
X6064643Y-13762986D01*
X6055119Y-13801081D01*
X6045595Y-13820128D01*
X6036071Y-13829652D01*
X6017024Y-13839176D01*
X5997976Y-13839176D01*
X5978928Y-13829652D01*
X5969405Y-13820128D01*
X5959881Y-13801081D01*
X5950357Y-13762986D01*
X5950357Y-13715367D01*
X5959881Y-13677271D01*
X5969405Y-13658224D01*
X5978928Y-13648700D01*
X5997976Y-13639176D01*
X6150357Y-13820128D02*
X6159881Y-13829652D01*
X6150357Y-13839176D01*
X6140833Y-13829652D01*
X6150357Y-13820128D01*
X6150357Y-13839176D01*
X6283690Y-13639176D02*
X6302738Y-13639176D01*
X6321786Y-13648700D01*
X6331309Y-13658224D01*
X6340833Y-13677271D01*
X6350357Y-13715367D01*
X6350357Y-13762986D01*
X6340833Y-13801081D01*
X6331309Y-13820128D01*
X6321786Y-13829652D01*
X6302738Y-13839176D01*
X6283690Y-13839176D01*
X6264643Y-13829652D01*
X6255119Y-13820128D01*
X6245595Y-13801081D01*
X6236071Y-13762986D01*
X6236071Y-13715367D01*
X6245595Y-13677271D01*
X6255119Y-13658224D01*
X6264643Y-13648700D01*
X6283690Y-13639176D01*
X6521786Y-13705843D02*
X6521786Y-13839176D01*
X6474167Y-13629652D02*
X6426548Y-13772509D01*
X6550357Y-13772509D01*
X6607500Y-13639176D02*
X6731309Y-13639176D01*
X6664643Y-13715367D01*
X6693214Y-13715367D01*
X6712262Y-13724890D01*
X6721786Y-13734414D01*
X6731309Y-13753462D01*
X6731309Y-13801081D01*
X6721786Y-13820128D01*
X6712262Y-13829652D01*
X6693214Y-13839176D01*
X6636071Y-13839176D01*
X6617024Y-13829652D01*
X6607500Y-13820128D01*
X6797976Y-13639176D02*
X6921786Y-13639176D01*
X6855119Y-13715367D01*
X6883690Y-13715367D01*
X6902738Y-13724890D01*
X6912262Y-13734414D01*
X6921786Y-13753462D01*
X6921786Y-13801081D01*
X6912262Y-13820128D01*
X6902738Y-13829652D01*
X6883690Y-13839176D01*
X6826548Y-13839176D01*
X6807500Y-13829652D01*
X6797976Y-13820128D01*
X6997976Y-13639176D02*
X6997976Y-13677271D01*
X7074167Y-13639176D02*
X7074167Y-13677271D01*
X7369405Y-13915367D02*
X7359881Y-13905843D01*
X7340833Y-13877271D01*
X7331309Y-13858224D01*
X7321786Y-13829652D01*
X7312262Y-13782033D01*
X7312262Y-13743938D01*
X7321786Y-13696319D01*
X7331309Y-13667748D01*
X7340833Y-13648700D01*
X7359881Y-13620128D01*
X7369405Y-13610605D01*
X7540833Y-13639176D02*
X7445595Y-13639176D01*
X7436071Y-13734414D01*
X7445595Y-13724890D01*
X7464643Y-13715367D01*
X7512262Y-13715367D01*
X7531309Y-13724890D01*
X7540833Y-13734414D01*
X7550357Y-13753462D01*
X7550357Y-13801081D01*
X7540833Y-13820128D01*
X7531309Y-13829652D01*
X7512262Y-13839176D01*
X7464643Y-13839176D01*
X7445595Y-13829652D01*
X7436071Y-13820128D01*
X7788452Y-13839176D02*
X7788452Y-13639176D01*
X7874167Y-13839176D02*
X7874167Y-13734414D01*
X7864643Y-13715367D01*
X7845595Y-13705843D01*
X7817024Y-13705843D01*
X7797976Y-13715367D01*
X7788452Y-13724890D01*
X7997976Y-13839176D02*
X7978928Y-13829652D01*
X7969405Y-13820128D01*
X7959881Y-13801081D01*
X7959881Y-13743938D01*
X7969405Y-13724890D01*
X7978928Y-13715367D01*
X7997976Y-13705843D01*
X8026548Y-13705843D01*
X8045595Y-13715367D01*
X8055119Y-13724890D01*
X8064643Y-13743938D01*
X8064643Y-13801081D01*
X8055119Y-13820128D01*
X8045595Y-13829652D01*
X8026548Y-13839176D01*
X7997976Y-13839176D01*
X8178928Y-13839176D02*
X8159881Y-13829652D01*
X8150357Y-13810605D01*
X8150357Y-13639176D01*
X8331309Y-13829652D02*
X8312262Y-13839176D01*
X8274167Y-13839176D01*
X8255119Y-13829652D01*
X8245595Y-13810605D01*
X8245595Y-13734414D01*
X8255119Y-13715367D01*
X8274167Y-13705843D01*
X8312262Y-13705843D01*
X8331309Y-13715367D01*
X8340833Y-13734414D01*
X8340833Y-13753462D01*
X8245595Y-13772509D01*
X8417024Y-13829652D02*
X8436071Y-13839176D01*
X8474167Y-13839176D01*
X8493214Y-13829652D01*
X8502738Y-13810605D01*
X8502738Y-13801081D01*
X8493214Y-13782033D01*
X8474167Y-13772509D01*
X8445595Y-13772509D01*
X8426548Y-13762986D01*
X8417024Y-13743938D01*
X8417024Y-13734414D01*
X8426548Y-13715367D01*
X8445595Y-13705843D01*
X8474167Y-13705843D01*
X8493214Y-13715367D01*
X8569405Y-13915367D02*
X8578929Y-13905843D01*
X8597976Y-13877271D01*
X8607500Y-13858224D01*
X8617024Y-13829652D01*
X8626548Y-13782033D01*
X8626548Y-13743938D01*
X8617024Y-13696319D01*
X8607500Y-13667748D01*
X8597976Y-13648700D01*
X8578929Y-13620128D01*
X8569405Y-13610605D01*
D18*
X3683200Y-13955550D02*
X3797500Y-14069850D01*
X3797500Y-13955550D02*
X3683200Y-14069850D01*
X3740350Y-13955550D02*
X3740350Y-14069850D01*
X3683200Y-14012700D02*
X3797500Y-14012700D01*
D11*
X4159881Y-14103176D02*
X4045595Y-14103176D01*
X4102738Y-14103176D02*
X4102738Y-13903176D01*
X4083690Y-13931748D01*
X4064643Y-13950795D01*
X4045595Y-13960319D01*
X4245595Y-14084128D02*
X4255119Y-14093652D01*
X4245595Y-14103176D01*
X4236071Y-14093652D01*
X4245595Y-14084128D01*
X4245595Y-14103176D01*
X4445595Y-14103176D02*
X4331310Y-14103176D01*
X4388452Y-14103176D02*
X4388452Y-13903176D01*
X4369405Y-13931748D01*
X4350357Y-13950795D01*
X4331310Y-13960319D01*
X4617024Y-13969843D02*
X4617024Y-14103176D01*
X4569405Y-13893652D02*
X4521786Y-14036509D01*
X4645595Y-14036509D01*
X4702738Y-13903176D02*
X4826548Y-13903176D01*
X4759881Y-13979367D01*
X4788452Y-13979367D01*
X4807500Y-13988890D01*
X4817024Y-13998414D01*
X4826548Y-14017462D01*
X4826548Y-14065081D01*
X4817024Y-14084128D01*
X4807500Y-14093652D01*
X4788452Y-14103176D01*
X4731310Y-14103176D01*
X4712262Y-14093652D01*
X4702738Y-14084128D01*
X4912262Y-14103176D02*
X4912262Y-13969843D01*
X4912262Y-13988890D02*
X4921786Y-13979367D01*
X4940833Y-13969843D01*
X4969405Y-13969843D01*
X4988452Y-13979367D01*
X4997976Y-13998414D01*
X4997976Y-14103176D01*
X4997976Y-13998414D02*
X5007500Y-13979367D01*
X5026548Y-13969843D01*
X5055119Y-13969843D01*
X5074167Y-13979367D01*
X5083690Y-13998414D01*
X5083690Y-14103176D01*
X5178929Y-14103176D02*
X5178929Y-13969843D01*
X5178929Y-13988890D02*
X5188452Y-13979367D01*
X5207500Y-13969843D01*
X5236071Y-13969843D01*
X5255119Y-13979367D01*
X5264643Y-13998414D01*
X5264643Y-14103176D01*
X5264643Y-13998414D02*
X5274167Y-13979367D01*
X5293214Y-13969843D01*
X5321786Y-13969843D01*
X5340833Y-13979367D01*
X5350357Y-13998414D01*
X5350357Y-14103176D01*
X5740833Y-13893652D02*
X5569405Y-14150795D01*
X5997976Y-13903176D02*
X6017024Y-13903176D01*
X6036071Y-13912700D01*
X6045595Y-13922224D01*
X6055119Y-13941271D01*
X6064643Y-13979367D01*
X6064643Y-14026986D01*
X6055119Y-14065081D01*
X6045595Y-14084128D01*
X6036071Y-14093652D01*
X6017024Y-14103176D01*
X5997976Y-14103176D01*
X5978928Y-14093652D01*
X5969405Y-14084128D01*
X5959881Y-14065081D01*
X5950357Y-14026986D01*
X5950357Y-13979367D01*
X5959881Y-13941271D01*
X5969405Y-13922224D01*
X5978928Y-13912700D01*
X5997976Y-13903176D01*
X6150357Y-14084128D02*
X6159881Y-14093652D01*
X6150357Y-14103176D01*
X6140833Y-14093652D01*
X6150357Y-14084128D01*
X6150357Y-14103176D01*
X6283690Y-13903176D02*
X6302738Y-13903176D01*
X6321786Y-13912700D01*
X6331309Y-13922224D01*
X6340833Y-13941271D01*
X6350357Y-13979367D01*
X6350357Y-14026986D01*
X6340833Y-14065081D01*
X6331309Y-14084128D01*
X6321786Y-14093652D01*
X6302738Y-14103176D01*
X6283690Y-14103176D01*
X6264643Y-14093652D01*
X6255119Y-14084128D01*
X6245595Y-14065081D01*
X6236071Y-14026986D01*
X6236071Y-13979367D01*
X6245595Y-13941271D01*
X6255119Y-13922224D01*
X6264643Y-13912700D01*
X6283690Y-13903176D01*
X6521786Y-13969843D02*
X6521786Y-14103176D01*
X6474167Y-13893652D02*
X6426548Y-14036509D01*
X6550357Y-14036509D01*
X6721786Y-13903176D02*
X6626548Y-13903176D01*
X6617024Y-13998414D01*
X6626548Y-13988890D01*
X6645595Y-13979367D01*
X6693214Y-13979367D01*
X6712262Y-13988890D01*
X6721786Y-13998414D01*
X6731309Y-14017462D01*
X6731309Y-14065081D01*
X6721786Y-14084128D01*
X6712262Y-14093652D01*
X6693214Y-14103176D01*
X6645595Y-14103176D01*
X6626548Y-14093652D01*
X6617024Y-14084128D01*
X6855119Y-13903176D02*
X6874167Y-13903176D01*
X6893214Y-13912700D01*
X6902738Y-13922224D01*
X6912262Y-13941271D01*
X6921786Y-13979367D01*
X6921786Y-14026986D01*
X6912262Y-14065081D01*
X6902738Y-14084128D01*
X6893214Y-14093652D01*
X6874167Y-14103176D01*
X6855119Y-14103176D01*
X6836071Y-14093652D01*
X6826548Y-14084128D01*
X6817024Y-14065081D01*
X6807500Y-14026986D01*
X6807500Y-13979367D01*
X6817024Y-13941271D01*
X6826548Y-13922224D01*
X6836071Y-13912700D01*
X6855119Y-13903176D01*
X6997976Y-13903176D02*
X6997976Y-13941271D01*
X7074167Y-13903176D02*
X7074167Y-13941271D01*
X7369405Y-14179367D02*
X7359881Y-14169843D01*
X7340833Y-14141271D01*
X7331309Y-14122224D01*
X7321786Y-14093652D01*
X7312262Y-14046033D01*
X7312262Y-14007938D01*
X7321786Y-13960319D01*
X7331309Y-13931748D01*
X7340833Y-13912700D01*
X7359881Y-13884128D01*
X7369405Y-13874605D01*
X7436071Y-13922224D02*
X7445595Y-13912700D01*
X7464643Y-13903176D01*
X7512262Y-13903176D01*
X7531309Y-13912700D01*
X7540833Y-13922224D01*
X7550357Y-13941271D01*
X7550357Y-13960319D01*
X7540833Y-13988890D01*
X7426548Y-14103176D01*
X7550357Y-14103176D01*
X7788452Y-14103176D02*
X7788452Y-13903176D01*
X7874167Y-14103176D02*
X7874167Y-13998414D01*
X7864643Y-13979367D01*
X7845595Y-13969843D01*
X7817024Y-13969843D01*
X7797976Y-13979367D01*
X7788452Y-13988890D01*
X7997976Y-14103176D02*
X7978928Y-14093652D01*
X7969405Y-14084128D01*
X7959881Y-14065081D01*
X7959881Y-14007938D01*
X7969405Y-13988890D01*
X7978928Y-13979367D01*
X7997976Y-13969843D01*
X8026548Y-13969843D01*
X8045595Y-13979367D01*
X8055119Y-13988890D01*
X8064643Y-14007938D01*
X8064643Y-14065081D01*
X8055119Y-14084128D01*
X8045595Y-14093652D01*
X8026548Y-14103176D01*
X7997976Y-14103176D01*
X8178928Y-14103176D02*
X8159881Y-14093652D01*
X8150357Y-14074605D01*
X8150357Y-13903176D01*
X8331309Y-14093652D02*
X8312262Y-14103176D01*
X8274167Y-14103176D01*
X8255119Y-14093652D01*
X8245595Y-14074605D01*
X8245595Y-13998414D01*
X8255119Y-13979367D01*
X8274167Y-13969843D01*
X8312262Y-13969843D01*
X8331309Y-13979367D01*
X8340833Y-13998414D01*
X8340833Y-14017462D01*
X8245595Y-14036509D01*
X8417024Y-14093652D02*
X8436071Y-14103176D01*
X8474167Y-14103176D01*
X8493214Y-14093652D01*
X8502738Y-14074605D01*
X8502738Y-14065081D01*
X8493214Y-14046033D01*
X8474167Y-14036509D01*
X8445595Y-14036509D01*
X8426548Y-14026986D01*
X8417024Y-14007938D01*
X8417024Y-13998414D01*
X8426548Y-13979367D01*
X8445595Y-13969843D01*
X8474167Y-13969843D01*
X8493214Y-13979367D01*
X8569405Y-14179367D02*
X8578929Y-14169843D01*
X8597976Y-14141271D01*
X8607500Y-14122224D01*
X8617024Y-14093652D01*
X8626548Y-14046033D01*
X8626548Y-14007938D01*
X8617024Y-13960319D01*
X8607500Y-13931748D01*
X8597976Y-13912700D01*
X8578929Y-13884128D01*
X8569405Y-13874605D01*
D19*
X3657500Y-14206700D02*
X3797500Y-14346700D01*
X3797500Y-14206700D02*
X3657500Y-14346700D01*
X3776998Y-14326198D02*
X3776998Y-14227202D01*
X3678002Y-14227202D01*
X3678002Y-14326198D01*
X3776998Y-14326198D01*
D11*
X4159881Y-14367176D02*
X4045595Y-14367176D01*
X4102738Y-14367176D02*
X4102738Y-14167176D01*
X4083690Y-14195748D01*
X4064643Y-14214795D01*
X4045595Y-14224319D01*
X4245595Y-14348128D02*
X4255119Y-14357652D01*
X4245595Y-14367176D01*
X4236071Y-14357652D01*
X4245595Y-14348128D01*
X4245595Y-14367176D01*
X4426548Y-14233843D02*
X4426548Y-14367176D01*
X4378929Y-14157652D02*
X4331310Y-14300509D01*
X4455119Y-14300509D01*
X4569405Y-14167176D02*
X4588452Y-14167176D01*
X4607500Y-14176700D01*
X4617024Y-14186224D01*
X4626548Y-14205271D01*
X4636071Y-14243367D01*
X4636071Y-14290986D01*
X4626548Y-14329081D01*
X4617024Y-14348128D01*
X4607500Y-14357652D01*
X4588452Y-14367176D01*
X4569405Y-14367176D01*
X4550357Y-14357652D01*
X4540833Y-14348128D01*
X4531310Y-14329081D01*
X4521786Y-14290986D01*
X4521786Y-14243367D01*
X4531310Y-14205271D01*
X4540833Y-14186224D01*
X4550357Y-14176700D01*
X4569405Y-14167176D01*
X4759881Y-14167176D02*
X4778929Y-14167176D01*
X4797976Y-14176700D01*
X4807500Y-14186224D01*
X4817024Y-14205271D01*
X4826548Y-14243367D01*
X4826548Y-14290986D01*
X4817024Y-14329081D01*
X4807500Y-14348128D01*
X4797976Y-14357652D01*
X4778929Y-14367176D01*
X4759881Y-14367176D01*
X4740833Y-14357652D01*
X4731310Y-14348128D01*
X4721786Y-14329081D01*
X4712262Y-14290986D01*
X4712262Y-14243367D01*
X4721786Y-14205271D01*
X4731310Y-14186224D01*
X4740833Y-14176700D01*
X4759881Y-14167176D01*
X4912262Y-14367176D02*
X4912262Y-14233843D01*
X4912262Y-14252890D02*
X4921786Y-14243367D01*
X4940833Y-14233843D01*
X4969405Y-14233843D01*
X4988452Y-14243367D01*
X4997976Y-14262414D01*
X4997976Y-14367176D01*
X4997976Y-14262414D02*
X5007500Y-14243367D01*
X5026548Y-14233843D01*
X5055119Y-14233843D01*
X5074167Y-14243367D01*
X5083690Y-14262414D01*
X5083690Y-14367176D01*
X5178929Y-14367176D02*
X5178929Y-14233843D01*
X5178929Y-14252890D02*
X5188452Y-14243367D01*
X5207500Y-14233843D01*
X5236071Y-14233843D01*
X5255119Y-14243367D01*
X5264643Y-14262414D01*
X5264643Y-14367176D01*
X5264643Y-14262414D02*
X5274167Y-14243367D01*
X5293214Y-14233843D01*
X5321786Y-14233843D01*
X5340833Y-14243367D01*
X5350357Y-14262414D01*
X5350357Y-14367176D01*
X5740833Y-14157652D02*
X5569405Y-14414795D01*
X5997976Y-14167176D02*
X6017024Y-14167176D01*
X6036071Y-14176700D01*
X6045595Y-14186224D01*
X6055119Y-14205271D01*
X6064643Y-14243367D01*
X6064643Y-14290986D01*
X6055119Y-14329081D01*
X6045595Y-14348128D01*
X6036071Y-14357652D01*
X6017024Y-14367176D01*
X5997976Y-14367176D01*
X5978928Y-14357652D01*
X5969405Y-14348128D01*
X5959881Y-14329081D01*
X5950357Y-14290986D01*
X5950357Y-14243367D01*
X5959881Y-14205271D01*
X5969405Y-14186224D01*
X5978928Y-14176700D01*
X5997976Y-14167176D01*
X6150357Y-14348128D02*
X6159881Y-14357652D01*
X6150357Y-14367176D01*
X6140833Y-14357652D01*
X6150357Y-14348128D01*
X6150357Y-14367176D01*
X6283690Y-14167176D02*
X6302738Y-14167176D01*
X6321786Y-14176700D01*
X6331309Y-14186224D01*
X6340833Y-14205271D01*
X6350357Y-14243367D01*
X6350357Y-14290986D01*
X6340833Y-14329081D01*
X6331309Y-14348128D01*
X6321786Y-14357652D01*
X6302738Y-14367176D01*
X6283690Y-14367176D01*
X6264643Y-14357652D01*
X6255119Y-14348128D01*
X6245595Y-14329081D01*
X6236071Y-14290986D01*
X6236071Y-14243367D01*
X6245595Y-14205271D01*
X6255119Y-14186224D01*
X6264643Y-14176700D01*
X6283690Y-14167176D01*
X6531309Y-14167176D02*
X6436071Y-14167176D01*
X6426548Y-14262414D01*
X6436071Y-14252890D01*
X6455119Y-14243367D01*
X6502738Y-14243367D01*
X6521786Y-14252890D01*
X6531309Y-14262414D01*
X6540833Y-14281462D01*
X6540833Y-14329081D01*
X6531309Y-14348128D01*
X6521786Y-14357652D01*
X6502738Y-14367176D01*
X6455119Y-14367176D01*
X6436071Y-14357652D01*
X6426548Y-14348128D01*
X6721786Y-14167176D02*
X6626548Y-14167176D01*
X6617024Y-14262414D01*
X6626548Y-14252890D01*
X6645595Y-14243367D01*
X6693214Y-14243367D01*
X6712262Y-14252890D01*
X6721786Y-14262414D01*
X6731309Y-14281462D01*
X6731309Y-14329081D01*
X6721786Y-14348128D01*
X6712262Y-14357652D01*
X6693214Y-14367176D01*
X6645595Y-14367176D01*
X6626548Y-14357652D01*
X6617024Y-14348128D01*
X6921786Y-14367176D02*
X6807500Y-14367176D01*
X6864643Y-14367176D02*
X6864643Y-14167176D01*
X6845595Y-14195748D01*
X6826548Y-14214795D01*
X6807500Y-14224319D01*
X6997976Y-14167176D02*
X6997976Y-14205271D01*
X7074167Y-14167176D02*
X7074167Y-14205271D01*
X7369405Y-14443367D02*
X7359881Y-14433843D01*
X7340833Y-14405271D01*
X7331309Y-14386224D01*
X7321786Y-14357652D01*
X7312262Y-14310033D01*
X7312262Y-14271938D01*
X7321786Y-14224319D01*
X7331309Y-14195748D01*
X7340833Y-14176700D01*
X7359881Y-14148128D01*
X7369405Y-14138605D01*
X7436071Y-14186224D02*
X7445595Y-14176700D01*
X7464643Y-14167176D01*
X7512262Y-14167176D01*
X7531309Y-14176700D01*
X7540833Y-14186224D01*
X7550357Y-14205271D01*
X7550357Y-14224319D01*
X7540833Y-14252890D01*
X7426548Y-14367176D01*
X7550357Y-14367176D01*
X7721786Y-14233843D02*
X7721786Y-14367176D01*
X7674167Y-14157652D02*
X7626548Y-14300509D01*
X7750357Y-14300509D01*
X7978928Y-14367176D02*
X7978928Y-14167176D01*
X8064643Y-14367176D02*
X8064643Y-14262414D01*
X8055119Y-14243367D01*
X8036071Y-14233843D01*
X8007500Y-14233843D01*
X7988452Y-14243367D01*
X7978928Y-14252890D01*
X8188452Y-14367176D02*
X8169405Y-14357652D01*
X8159881Y-14348128D01*
X8150357Y-14329081D01*
X8150357Y-14271938D01*
X8159881Y-14252890D01*
X8169405Y-14243367D01*
X8188452Y-14233843D01*
X8217024Y-14233843D01*
X8236071Y-14243367D01*
X8245595Y-14252890D01*
X8255119Y-14271938D01*
X8255119Y-14329081D01*
X8245595Y-14348128D01*
X8236071Y-14357652D01*
X8217024Y-14367176D01*
X8188452Y-14367176D01*
X8369405Y-14367176D02*
X8350357Y-14357652D01*
X8340833Y-14338605D01*
X8340833Y-14167176D01*
X8521786Y-14357652D02*
X8502738Y-14367176D01*
X8464643Y-14367176D01*
X8445595Y-14357652D01*
X8436071Y-14338605D01*
X8436071Y-14262414D01*
X8445595Y-14243367D01*
X8464643Y-14233843D01*
X8502738Y-14233843D01*
X8521786Y-14243367D01*
X8531310Y-14262414D01*
X8531310Y-14281462D01*
X8436071Y-14300509D01*
X8607500Y-14357652D02*
X8626548Y-14367176D01*
X8664643Y-14367176D01*
X8683690Y-14357652D01*
X8693214Y-14338605D01*
X8693214Y-14329081D01*
X8683690Y-14310033D01*
X8664643Y-14300509D01*
X8636071Y-14300509D01*
X8617024Y-14290986D01*
X8607500Y-14271938D01*
X8607500Y-14262414D01*
X8617024Y-14243367D01*
X8636071Y-14233843D01*
X8664643Y-14233843D01*
X8683690Y-14243367D01*
X8759881Y-14443367D02*
X8769405Y-14433843D01*
X8788452Y-14405271D01*
X8797976Y-14386224D01*
X8807500Y-14357652D01*
X8817024Y-14310033D01*
X8817024Y-14271938D01*
X8807500Y-14224319D01*
X8797976Y-14195748D01*
X8788452Y-14176700D01*
X8769405Y-14148128D01*
X8759881Y-14138605D01*
D20*
X3612080Y-14447990D02*
X3797500Y-14633410D01*
X3797500Y-14447990D02*
X3612080Y-14633410D01*
X3704790Y-14633410D02*
X3797500Y-14540700D01*
X3704790Y-14447990D01*
X3612080Y-14540700D01*
X3704790Y-14633410D01*
D11*
X4159881Y-14631176D02*
X4045595Y-14631176D01*
X4102738Y-14631176D02*
X4102738Y-14431176D01*
X4083690Y-14459748D01*
X4064643Y-14478795D01*
X4045595Y-14488319D01*
X4245595Y-14612128D02*
X4255119Y-14621652D01*
X4245595Y-14631176D01*
X4236071Y-14621652D01*
X4245595Y-14612128D01*
X4245595Y-14631176D01*
X4369405Y-14516890D02*
X4350357Y-14507367D01*
X4340833Y-14497843D01*
X4331310Y-14478795D01*
X4331310Y-14469271D01*
X4340833Y-14450224D01*
X4350357Y-14440700D01*
X4369405Y-14431176D01*
X4407500Y-14431176D01*
X4426548Y-14440700D01*
X4436071Y-14450224D01*
X4445595Y-14469271D01*
X4445595Y-14478795D01*
X4436071Y-14497843D01*
X4426548Y-14507367D01*
X4407500Y-14516890D01*
X4369405Y-14516890D01*
X4350357Y-14526414D01*
X4340833Y-14535938D01*
X4331310Y-14554986D01*
X4331310Y-14593081D01*
X4340833Y-14612128D01*
X4350357Y-14621652D01*
X4369405Y-14631176D01*
X4407500Y-14631176D01*
X4426548Y-14621652D01*
X4436071Y-14612128D01*
X4445595Y-14593081D01*
X4445595Y-14554986D01*
X4436071Y-14535938D01*
X4426548Y-14526414D01*
X4407500Y-14516890D01*
X4626548Y-14431176D02*
X4531310Y-14431176D01*
X4521786Y-14526414D01*
X4531310Y-14516890D01*
X4550357Y-14507367D01*
X4597976Y-14507367D01*
X4617024Y-14516890D01*
X4626548Y-14526414D01*
X4636071Y-14545462D01*
X4636071Y-14593081D01*
X4626548Y-14612128D01*
X4617024Y-14621652D01*
X4597976Y-14631176D01*
X4550357Y-14631176D01*
X4531310Y-14621652D01*
X4521786Y-14612128D01*
X4807500Y-14497843D02*
X4807500Y-14631176D01*
X4759881Y-14421652D02*
X4712262Y-14564509D01*
X4836071Y-14564509D01*
X4912262Y-14631176D02*
X4912262Y-14497843D01*
X4912262Y-14516890D02*
X4921786Y-14507367D01*
X4940833Y-14497843D01*
X4969405Y-14497843D01*
X4988452Y-14507367D01*
X4997976Y-14526414D01*
X4997976Y-14631176D01*
X4997976Y-14526414D02*
X5007500Y-14507367D01*
X5026548Y-14497843D01*
X5055119Y-14497843D01*
X5074167Y-14507367D01*
X5083690Y-14526414D01*
X5083690Y-14631176D01*
X5178929Y-14631176D02*
X5178929Y-14497843D01*
X5178929Y-14516890D02*
X5188452Y-14507367D01*
X5207500Y-14497843D01*
X5236071Y-14497843D01*
X5255119Y-14507367D01*
X5264643Y-14526414D01*
X5264643Y-14631176D01*
X5264643Y-14526414D02*
X5274167Y-14507367D01*
X5293214Y-14497843D01*
X5321786Y-14497843D01*
X5340833Y-14507367D01*
X5350357Y-14526414D01*
X5350357Y-14631176D01*
X5740833Y-14421652D02*
X5569405Y-14678795D01*
X5997976Y-14431176D02*
X6017024Y-14431176D01*
X6036071Y-14440700D01*
X6045595Y-14450224D01*
X6055119Y-14469271D01*
X6064643Y-14507367D01*
X6064643Y-14554986D01*
X6055119Y-14593081D01*
X6045595Y-14612128D01*
X6036071Y-14621652D01*
X6017024Y-14631176D01*
X5997976Y-14631176D01*
X5978928Y-14621652D01*
X5969405Y-14612128D01*
X5959881Y-14593081D01*
X5950357Y-14554986D01*
X5950357Y-14507367D01*
X5959881Y-14469271D01*
X5969405Y-14450224D01*
X5978928Y-14440700D01*
X5997976Y-14431176D01*
X6150357Y-14612128D02*
X6159881Y-14621652D01*
X6150357Y-14631176D01*
X6140833Y-14621652D01*
X6150357Y-14612128D01*
X6150357Y-14631176D01*
X6283690Y-14431176D02*
X6302738Y-14431176D01*
X6321786Y-14440700D01*
X6331309Y-14450224D01*
X6340833Y-14469271D01*
X6350357Y-14507367D01*
X6350357Y-14554986D01*
X6340833Y-14593081D01*
X6331309Y-14612128D01*
X6321786Y-14621652D01*
X6302738Y-14631176D01*
X6283690Y-14631176D01*
X6264643Y-14621652D01*
X6255119Y-14612128D01*
X6245595Y-14593081D01*
X6236071Y-14554986D01*
X6236071Y-14507367D01*
X6245595Y-14469271D01*
X6255119Y-14450224D01*
X6264643Y-14440700D01*
X6283690Y-14431176D01*
X6417024Y-14431176D02*
X6550357Y-14431176D01*
X6464643Y-14631176D01*
X6607500Y-14431176D02*
X6731309Y-14431176D01*
X6664643Y-14507367D01*
X6693214Y-14507367D01*
X6712262Y-14516890D01*
X6721786Y-14526414D01*
X6731309Y-14545462D01*
X6731309Y-14593081D01*
X6721786Y-14612128D01*
X6712262Y-14621652D01*
X6693214Y-14631176D01*
X6636071Y-14631176D01*
X6617024Y-14621652D01*
X6607500Y-14612128D01*
X6855119Y-14431176D02*
X6874167Y-14431176D01*
X6893214Y-14440700D01*
X6902738Y-14450224D01*
X6912262Y-14469271D01*
X6921786Y-14507367D01*
X6921786Y-14554986D01*
X6912262Y-14593081D01*
X6902738Y-14612128D01*
X6893214Y-14621652D01*
X6874167Y-14631176D01*
X6855119Y-14631176D01*
X6836071Y-14621652D01*
X6826548Y-14612128D01*
X6817024Y-14593081D01*
X6807500Y-14554986D01*
X6807500Y-14507367D01*
X6817024Y-14469271D01*
X6826548Y-14450224D01*
X6836071Y-14440700D01*
X6855119Y-14431176D01*
X6997976Y-14431176D02*
X6997976Y-14469271D01*
X7074167Y-14431176D02*
X7074167Y-14469271D01*
X7369405Y-14707367D02*
X7359881Y-14697843D01*
X7340833Y-14669271D01*
X7331309Y-14650224D01*
X7321786Y-14621652D01*
X7312262Y-14574033D01*
X7312262Y-14535938D01*
X7321786Y-14488319D01*
X7331309Y-14459748D01*
X7340833Y-14440700D01*
X7359881Y-14412128D01*
X7369405Y-14402605D01*
X7474167Y-14516890D02*
X7455119Y-14507367D01*
X7445595Y-14497843D01*
X7436071Y-14478795D01*
X7436071Y-14469271D01*
X7445595Y-14450224D01*
X7455119Y-14440700D01*
X7474167Y-14431176D01*
X7512262Y-14431176D01*
X7531309Y-14440700D01*
X7540833Y-14450224D01*
X7550357Y-14469271D01*
X7550357Y-14478795D01*
X7540833Y-14497843D01*
X7531309Y-14507367D01*
X7512262Y-14516890D01*
X7474167Y-14516890D01*
X7455119Y-14526414D01*
X7445595Y-14535938D01*
X7436071Y-14554986D01*
X7436071Y-14593081D01*
X7445595Y-14612128D01*
X7455119Y-14621652D01*
X7474167Y-14631176D01*
X7512262Y-14631176D01*
X7531309Y-14621652D01*
X7540833Y-14612128D01*
X7550357Y-14593081D01*
X7550357Y-14554986D01*
X7540833Y-14535938D01*
X7531309Y-14526414D01*
X7512262Y-14516890D01*
X7788452Y-14631176D02*
X7788452Y-14431176D01*
X7874167Y-14631176D02*
X7874167Y-14526414D01*
X7864643Y-14507367D01*
X7845595Y-14497843D01*
X7817024Y-14497843D01*
X7797976Y-14507367D01*
X7788452Y-14516890D01*
X7997976Y-14631176D02*
X7978928Y-14621652D01*
X7969405Y-14612128D01*
X7959881Y-14593081D01*
X7959881Y-14535938D01*
X7969405Y-14516890D01*
X7978928Y-14507367D01*
X7997976Y-14497843D01*
X8026548Y-14497843D01*
X8045595Y-14507367D01*
X8055119Y-14516890D01*
X8064643Y-14535938D01*
X8064643Y-14593081D01*
X8055119Y-14612128D01*
X8045595Y-14621652D01*
X8026548Y-14631176D01*
X7997976Y-14631176D01*
X8178928Y-14631176D02*
X8159881Y-14621652D01*
X8150357Y-14602605D01*
X8150357Y-14431176D01*
X8331309Y-14621652D02*
X8312262Y-14631176D01*
X8274167Y-14631176D01*
X8255119Y-14621652D01*
X8245595Y-14602605D01*
X8245595Y-14526414D01*
X8255119Y-14507367D01*
X8274167Y-14497843D01*
X8312262Y-14497843D01*
X8331309Y-14507367D01*
X8340833Y-14526414D01*
X8340833Y-14545462D01*
X8245595Y-14564509D01*
X8417024Y-14621652D02*
X8436071Y-14631176D01*
X8474167Y-14631176D01*
X8493214Y-14621652D01*
X8502738Y-14602605D01*
X8502738Y-14593081D01*
X8493214Y-14574033D01*
X8474167Y-14564509D01*
X8445595Y-14564509D01*
X8426548Y-14554986D01*
X8417024Y-14535938D01*
X8417024Y-14526414D01*
X8426548Y-14507367D01*
X8445595Y-14497843D01*
X8474167Y-14497843D01*
X8493214Y-14507367D01*
X8569405Y-14707367D02*
X8578929Y-14697843D01*
X8597976Y-14669271D01*
X8607500Y-14650224D01*
X8617024Y-14621652D01*
X8626548Y-14574033D01*
X8626548Y-14535938D01*
X8617024Y-14488319D01*
X8607500Y-14459748D01*
X8597976Y-14440700D01*
X8578929Y-14412128D01*
X8569405Y-14402605D01*
X3697500Y-14746120D02*
X3697500Y-14946120D01*
X3597500Y-14846120D02*
X3797500Y-14846120D01*
X3797500Y-14846120D02*
G75*
G03*
X3797500Y-14846120I-100000J0D01*
G01*
X4045595Y-14755644D02*
X4055119Y-14746120D01*
X4074167Y-14736596D01*
X4121786Y-14736596D01*
X4140833Y-14746120D01*
X4150357Y-14755644D01*
X4159881Y-14774691D01*
X4159881Y-14793739D01*
X4150357Y-14822310D01*
X4036071Y-14936596D01*
X4159881Y-14936596D01*
X4245595Y-14917548D02*
X4255119Y-14927072D01*
X4245595Y-14936596D01*
X4236071Y-14927072D01*
X4245595Y-14917548D01*
X4245595Y-14936596D01*
X4331310Y-14755644D02*
X4340833Y-14746120D01*
X4359881Y-14736596D01*
X4407500Y-14736596D01*
X4426548Y-14746120D01*
X4436071Y-14755644D01*
X4445595Y-14774691D01*
X4445595Y-14793739D01*
X4436071Y-14822310D01*
X4321786Y-14936596D01*
X4445595Y-14936596D01*
X4569405Y-14736596D02*
X4588452Y-14736596D01*
X4607500Y-14746120D01*
X4617024Y-14755644D01*
X4626548Y-14774691D01*
X4636071Y-14812787D01*
X4636071Y-14860406D01*
X4626548Y-14898501D01*
X4617024Y-14917548D01*
X4607500Y-14927072D01*
X4588452Y-14936596D01*
X4569405Y-14936596D01*
X4550357Y-14927072D01*
X4540833Y-14917548D01*
X4531310Y-14898501D01*
X4521786Y-14860406D01*
X4521786Y-14812787D01*
X4531310Y-14774691D01*
X4540833Y-14755644D01*
X4550357Y-14746120D01*
X4569405Y-14736596D01*
X4759881Y-14736596D02*
X4778929Y-14736596D01*
X4797976Y-14746120D01*
X4807500Y-14755644D01*
X4817024Y-14774691D01*
X4826548Y-14812787D01*
X4826548Y-14860406D01*
X4817024Y-14898501D01*
X4807500Y-14917548D01*
X4797976Y-14927072D01*
X4778929Y-14936596D01*
X4759881Y-14936596D01*
X4740833Y-14927072D01*
X4731310Y-14917548D01*
X4721786Y-14898501D01*
X4712262Y-14860406D01*
X4712262Y-14812787D01*
X4721786Y-14774691D01*
X4731310Y-14755644D01*
X4740833Y-14746120D01*
X4759881Y-14736596D01*
X4912262Y-14936596D02*
X4912262Y-14803263D01*
X4912262Y-14822310D02*
X4921786Y-14812787D01*
X4940833Y-14803263D01*
X4969405Y-14803263D01*
X4988452Y-14812787D01*
X4997976Y-14831834D01*
X4997976Y-14936596D01*
X4997976Y-14831834D02*
X5007500Y-14812787D01*
X5026548Y-14803263D01*
X5055119Y-14803263D01*
X5074167Y-14812787D01*
X5083690Y-14831834D01*
X5083690Y-14936596D01*
X5178929Y-14936596D02*
X5178929Y-14803263D01*
X5178929Y-14822310D02*
X5188452Y-14812787D01*
X5207500Y-14803263D01*
X5236071Y-14803263D01*
X5255119Y-14812787D01*
X5264643Y-14831834D01*
X5264643Y-14936596D01*
X5264643Y-14831834D02*
X5274167Y-14812787D01*
X5293214Y-14803263D01*
X5321786Y-14803263D01*
X5340833Y-14812787D01*
X5350357Y-14831834D01*
X5350357Y-14936596D01*
X5740833Y-14727072D02*
X5569405Y-14984215D01*
X5997976Y-14736596D02*
X6017024Y-14736596D01*
X6036071Y-14746120D01*
X6045595Y-14755644D01*
X6055119Y-14774691D01*
X6064643Y-14812787D01*
X6064643Y-14860406D01*
X6055119Y-14898501D01*
X6045595Y-14917548D01*
X6036071Y-14927072D01*
X6017024Y-14936596D01*
X5997976Y-14936596D01*
X5978928Y-14927072D01*
X5969405Y-14917548D01*
X5959881Y-14898501D01*
X5950357Y-14860406D01*
X5950357Y-14812787D01*
X5959881Y-14774691D01*
X5969405Y-14755644D01*
X5978928Y-14746120D01*
X5997976Y-14736596D01*
X6150357Y-14917548D02*
X6159881Y-14927072D01*
X6150357Y-14936596D01*
X6140833Y-14927072D01*
X6150357Y-14917548D01*
X6150357Y-14936596D01*
X6283690Y-14736596D02*
X6302738Y-14736596D01*
X6321786Y-14746120D01*
X6331309Y-14755644D01*
X6340833Y-14774691D01*
X6350357Y-14812787D01*
X6350357Y-14860406D01*
X6340833Y-14898501D01*
X6331309Y-14917548D01*
X6321786Y-14927072D01*
X6302738Y-14936596D01*
X6283690Y-14936596D01*
X6264643Y-14927072D01*
X6255119Y-14917548D01*
X6245595Y-14898501D01*
X6236071Y-14860406D01*
X6236071Y-14812787D01*
X6245595Y-14774691D01*
X6255119Y-14755644D01*
X6264643Y-14746120D01*
X6283690Y-14736596D01*
X6464643Y-14822310D02*
X6445595Y-14812787D01*
X6436071Y-14803263D01*
X6426548Y-14784215D01*
X6426548Y-14774691D01*
X6436071Y-14755644D01*
X6445595Y-14746120D01*
X6464643Y-14736596D01*
X6502738Y-14736596D01*
X6521786Y-14746120D01*
X6531309Y-14755644D01*
X6540833Y-14774691D01*
X6540833Y-14784215D01*
X6531309Y-14803263D01*
X6521786Y-14812787D01*
X6502738Y-14822310D01*
X6464643Y-14822310D01*
X6445595Y-14831834D01*
X6436071Y-14841358D01*
X6426548Y-14860406D01*
X6426548Y-14898501D01*
X6436071Y-14917548D01*
X6445595Y-14927072D01*
X6464643Y-14936596D01*
X6502738Y-14936596D01*
X6521786Y-14927072D01*
X6531309Y-14917548D01*
X6540833Y-14898501D01*
X6540833Y-14860406D01*
X6531309Y-14841358D01*
X6521786Y-14831834D01*
X6502738Y-14822310D01*
X6712262Y-14736596D02*
X6674167Y-14736596D01*
X6655119Y-14746120D01*
X6645595Y-14755644D01*
X6626548Y-14784215D01*
X6617024Y-14822310D01*
X6617024Y-14898501D01*
X6626548Y-14917548D01*
X6636071Y-14927072D01*
X6655119Y-14936596D01*
X6693214Y-14936596D01*
X6712262Y-14927072D01*
X6721786Y-14917548D01*
X6731309Y-14898501D01*
X6731309Y-14850882D01*
X6721786Y-14831834D01*
X6712262Y-14822310D01*
X6693214Y-14812787D01*
X6655119Y-14812787D01*
X6636071Y-14822310D01*
X6626548Y-14831834D01*
X6617024Y-14850882D01*
X6902738Y-14736596D02*
X6864643Y-14736596D01*
X6845595Y-14746120D01*
X6836071Y-14755644D01*
X6817024Y-14784215D01*
X6807500Y-14822310D01*
X6807500Y-14898501D01*
X6817024Y-14917548D01*
X6826548Y-14927072D01*
X6845595Y-14936596D01*
X6883690Y-14936596D01*
X6902738Y-14927072D01*
X6912262Y-14917548D01*
X6921786Y-14898501D01*
X6921786Y-14850882D01*
X6912262Y-14831834D01*
X6902738Y-14822310D01*
X6883690Y-14812787D01*
X6845595Y-14812787D01*
X6826548Y-14822310D01*
X6817024Y-14831834D01*
X6807500Y-14850882D01*
X6997976Y-14736596D02*
X6997976Y-14774691D01*
X7074167Y-14736596D02*
X7074167Y-14774691D01*
X7369405Y-15012787D02*
X7359881Y-15003263D01*
X7340833Y-14974691D01*
X7331309Y-14955644D01*
X7321786Y-14927072D01*
X7312262Y-14879453D01*
X7312262Y-14841358D01*
X7321786Y-14793739D01*
X7331309Y-14765168D01*
X7340833Y-14746120D01*
X7359881Y-14717548D01*
X7369405Y-14708025D01*
X7483690Y-14736596D02*
X7502738Y-14736596D01*
X7521786Y-14746120D01*
X7531309Y-14755644D01*
X7540833Y-14774691D01*
X7550357Y-14812787D01*
X7550357Y-14860406D01*
X7540833Y-14898501D01*
X7531309Y-14917548D01*
X7521786Y-14927072D01*
X7502738Y-14936596D01*
X7483690Y-14936596D01*
X7464643Y-14927072D01*
X7455119Y-14917548D01*
X7445595Y-14898501D01*
X7436071Y-14860406D01*
X7436071Y-14812787D01*
X7445595Y-14774691D01*
X7455119Y-14755644D01*
X7464643Y-14746120D01*
X7483690Y-14736596D01*
X7788452Y-14936596D02*
X7788452Y-14736596D01*
X7874167Y-14936596D02*
X7874167Y-14831834D01*
X7864643Y-14812787D01*
X7845595Y-14803263D01*
X7817024Y-14803263D01*
X7797976Y-14812787D01*
X7788452Y-14822310D01*
X7997976Y-14936596D02*
X7978928Y-14927072D01*
X7969405Y-14917548D01*
X7959881Y-14898501D01*
X7959881Y-14841358D01*
X7969405Y-14822310D01*
X7978928Y-14812787D01*
X7997976Y-14803263D01*
X8026548Y-14803263D01*
X8045595Y-14812787D01*
X8055119Y-14822310D01*
X8064643Y-14841358D01*
X8064643Y-14898501D01*
X8055119Y-14917548D01*
X8045595Y-14927072D01*
X8026548Y-14936596D01*
X7997976Y-14936596D01*
X8178928Y-14936596D02*
X8159881Y-14927072D01*
X8150357Y-14908025D01*
X8150357Y-14736596D01*
X8331309Y-14927072D02*
X8312262Y-14936596D01*
X8274167Y-14936596D01*
X8255119Y-14927072D01*
X8245595Y-14908025D01*
X8245595Y-14831834D01*
X8255119Y-14812787D01*
X8274167Y-14803263D01*
X8312262Y-14803263D01*
X8331309Y-14812787D01*
X8340833Y-14831834D01*
X8340833Y-14850882D01*
X8245595Y-14869929D01*
X8417024Y-14927072D02*
X8436071Y-14936596D01*
X8474167Y-14936596D01*
X8493214Y-14927072D01*
X8502738Y-14908025D01*
X8502738Y-14898501D01*
X8493214Y-14879453D01*
X8474167Y-14869929D01*
X8445595Y-14869929D01*
X8426548Y-14860406D01*
X8417024Y-14841358D01*
X8417024Y-14831834D01*
X8426548Y-14812787D01*
X8445595Y-14803263D01*
X8474167Y-14803263D01*
X8493214Y-14812787D01*
X8740833Y-14860406D02*
X8893214Y-14860406D01*
X8817024Y-14936596D02*
X8817024Y-14784215D01*
X9131310Y-14755644D02*
X9140833Y-14746120D01*
X9159881Y-14736596D01*
X9207500Y-14736596D01*
X9226548Y-14746120D01*
X9236071Y-14755644D01*
X9245595Y-14774691D01*
X9245595Y-14793739D01*
X9236071Y-14822310D01*
X9121786Y-14936596D01*
X9245595Y-14936596D01*
X9474167Y-14927072D02*
X9493214Y-14936596D01*
X9531310Y-14936596D01*
X9550357Y-14927072D01*
X9559881Y-14908025D01*
X9559881Y-14898501D01*
X9550357Y-14879453D01*
X9531310Y-14869929D01*
X9502738Y-14869929D01*
X9483690Y-14860406D01*
X9474167Y-14841358D01*
X9474167Y-14831834D01*
X9483690Y-14812787D01*
X9502738Y-14803263D01*
X9531310Y-14803263D01*
X9550357Y-14812787D01*
X9674167Y-14936596D02*
X9655119Y-14927072D01*
X9645595Y-14908025D01*
X9645595Y-14736596D01*
X9778929Y-14936596D02*
X9759881Y-14927072D01*
X9750357Y-14917548D01*
X9740833Y-14898501D01*
X9740833Y-14841358D01*
X9750357Y-14822310D01*
X9759881Y-14812787D01*
X9778929Y-14803263D01*
X9807500Y-14803263D01*
X9826548Y-14812787D01*
X9836071Y-14822310D01*
X9845595Y-14841358D01*
X9845595Y-14898501D01*
X9836071Y-14917548D01*
X9826548Y-14927072D01*
X9807500Y-14936596D01*
X9778929Y-14936596D01*
X9902738Y-14803263D02*
X9978929Y-14803263D01*
X9931310Y-14736596D02*
X9931310Y-14908025D01*
X9940833Y-14927072D01*
X9959881Y-14936596D01*
X9978929Y-14936596D01*
X10036071Y-14927072D02*
X10055119Y-14936596D01*
X10093214Y-14936596D01*
X10112262Y-14927072D01*
X10121786Y-14908025D01*
X10121786Y-14898501D01*
X10112262Y-14879453D01*
X10093214Y-14869929D01*
X10064643Y-14869929D01*
X10045595Y-14860406D01*
X10036071Y-14841358D01*
X10036071Y-14831834D01*
X10045595Y-14812787D01*
X10064643Y-14803263D01*
X10093214Y-14803263D01*
X10112262Y-14812787D01*
X10188452Y-15012787D02*
X10197976Y-15003263D01*
X10217024Y-14974691D01*
X10226548Y-14955644D01*
X10236071Y-14927072D01*
X10245595Y-14879453D01*
X10245595Y-14841358D01*
X10236071Y-14793739D01*
X10226548Y-14765168D01*
X10217024Y-14746120D01*
X10197976Y-14717548D01*
X10188452Y-14708025D01*
X3768211Y-15236831D02*
X3768211Y-15095409D01*
X3626789Y-15095409D01*
X3626789Y-15236831D01*
X3768211Y-15236831D01*
X3797500Y-15166120D02*
G75*
G03*
X3797500Y-15166120I-100000J0D01*
G01*
X4045595Y-15075644D02*
X4055119Y-15066120D01*
X4074167Y-15056596D01*
X4121786Y-15056596D01*
X4140833Y-15066120D01*
X4150357Y-15075644D01*
X4159881Y-15094691D01*
X4159881Y-15113739D01*
X4150357Y-15142310D01*
X4036071Y-15256596D01*
X4159881Y-15256596D01*
X4245595Y-15237548D02*
X4255119Y-15247072D01*
X4245595Y-15256596D01*
X4236071Y-15247072D01*
X4245595Y-15237548D01*
X4245595Y-15256596D01*
X4321786Y-15056596D02*
X4445595Y-15056596D01*
X4378929Y-15132787D01*
X4407500Y-15132787D01*
X4426548Y-15142310D01*
X4436071Y-15151834D01*
X4445595Y-15170882D01*
X4445595Y-15218501D01*
X4436071Y-15237548D01*
X4426548Y-15247072D01*
X4407500Y-15256596D01*
X4350357Y-15256596D01*
X4331310Y-15247072D01*
X4321786Y-15237548D01*
X4569405Y-15056596D02*
X4588452Y-15056596D01*
X4607500Y-15066120D01*
X4617024Y-15075644D01*
X4626548Y-15094691D01*
X4636071Y-15132787D01*
X4636071Y-15180406D01*
X4626548Y-15218501D01*
X4617024Y-15237548D01*
X4607500Y-15247072D01*
X4588452Y-15256596D01*
X4569405Y-15256596D01*
X4550357Y-15247072D01*
X4540833Y-15237548D01*
X4531310Y-15218501D01*
X4521786Y-15180406D01*
X4521786Y-15132787D01*
X4531310Y-15094691D01*
X4540833Y-15075644D01*
X4550357Y-15066120D01*
X4569405Y-15056596D01*
X4759881Y-15056596D02*
X4778929Y-15056596D01*
X4797976Y-15066120D01*
X4807500Y-15075644D01*
X4817024Y-15094691D01*
X4826548Y-15132787D01*
X4826548Y-15180406D01*
X4817024Y-15218501D01*
X4807500Y-15237548D01*
X4797976Y-15247072D01*
X4778929Y-15256596D01*
X4759881Y-15256596D01*
X4740833Y-15247072D01*
X4731310Y-15237548D01*
X4721786Y-15218501D01*
X4712262Y-15180406D01*
X4712262Y-15132787D01*
X4721786Y-15094691D01*
X4731310Y-15075644D01*
X4740833Y-15066120D01*
X4759881Y-15056596D01*
X4912262Y-15256596D02*
X4912262Y-15123263D01*
X4912262Y-15142310D02*
X4921786Y-15132787D01*
X4940833Y-15123263D01*
X4969405Y-15123263D01*
X4988452Y-15132787D01*
X4997976Y-15151834D01*
X4997976Y-15256596D01*
X4997976Y-15151834D02*
X5007500Y-15132787D01*
X5026548Y-15123263D01*
X5055119Y-15123263D01*
X5074167Y-15132787D01*
X5083690Y-15151834D01*
X5083690Y-15256596D01*
X5178929Y-15256596D02*
X5178929Y-15123263D01*
X5178929Y-15142310D02*
X5188452Y-15132787D01*
X5207500Y-15123263D01*
X5236071Y-15123263D01*
X5255119Y-15132787D01*
X5264643Y-15151834D01*
X5264643Y-15256596D01*
X5264643Y-15151834D02*
X5274167Y-15132787D01*
X5293214Y-15123263D01*
X5321786Y-15123263D01*
X5340833Y-15132787D01*
X5350357Y-15151834D01*
X5350357Y-15256596D01*
X5740833Y-15047072D02*
X5569405Y-15304215D01*
X5997976Y-15056596D02*
X6017024Y-15056596D01*
X6036071Y-15066120D01*
X6045595Y-15075644D01*
X6055119Y-15094691D01*
X6064643Y-15132787D01*
X6064643Y-15180406D01*
X6055119Y-15218501D01*
X6045595Y-15237548D01*
X6036071Y-15247072D01*
X6017024Y-15256596D01*
X5997976Y-15256596D01*
X5978928Y-15247072D01*
X5969405Y-15237548D01*
X5959881Y-15218501D01*
X5950357Y-15180406D01*
X5950357Y-15132787D01*
X5959881Y-15094691D01*
X5969405Y-15075644D01*
X5978928Y-15066120D01*
X5997976Y-15056596D01*
X6150357Y-15237548D02*
X6159881Y-15247072D01*
X6150357Y-15256596D01*
X6140833Y-15247072D01*
X6150357Y-15237548D01*
X6150357Y-15256596D01*
X6283690Y-15056596D02*
X6302738Y-15056596D01*
X6321786Y-15066120D01*
X6331309Y-15075644D01*
X6340833Y-15094691D01*
X6350357Y-15132787D01*
X6350357Y-15180406D01*
X6340833Y-15218501D01*
X6331309Y-15237548D01*
X6321786Y-15247072D01*
X6302738Y-15256596D01*
X6283690Y-15256596D01*
X6264643Y-15247072D01*
X6255119Y-15237548D01*
X6245595Y-15218501D01*
X6236071Y-15180406D01*
X6236071Y-15132787D01*
X6245595Y-15094691D01*
X6255119Y-15075644D01*
X6264643Y-15066120D01*
X6283690Y-15056596D01*
X6445595Y-15256596D02*
X6483690Y-15256596D01*
X6502738Y-15247072D01*
X6512262Y-15237548D01*
X6531309Y-15208977D01*
X6540833Y-15170882D01*
X6540833Y-15094691D01*
X6531309Y-15075644D01*
X6521786Y-15066120D01*
X6502738Y-15056596D01*
X6464643Y-15056596D01*
X6445595Y-15066120D01*
X6436071Y-15075644D01*
X6426548Y-15094691D01*
X6426548Y-15142310D01*
X6436071Y-15161358D01*
X6445595Y-15170882D01*
X6464643Y-15180406D01*
X6502738Y-15180406D01*
X6521786Y-15170882D01*
X6531309Y-15161358D01*
X6540833Y-15142310D01*
X6664643Y-15056596D02*
X6683690Y-15056596D01*
X6702738Y-15066120D01*
X6712262Y-15075644D01*
X6721786Y-15094691D01*
X6731309Y-15132787D01*
X6731309Y-15180406D01*
X6721786Y-15218501D01*
X6712262Y-15237548D01*
X6702738Y-15247072D01*
X6683690Y-15256596D01*
X6664643Y-15256596D01*
X6645595Y-15247072D01*
X6636071Y-15237548D01*
X6626548Y-15218501D01*
X6617024Y-15180406D01*
X6617024Y-15132787D01*
X6626548Y-15094691D01*
X6636071Y-15075644D01*
X6645595Y-15066120D01*
X6664643Y-15056596D01*
X6902738Y-15056596D02*
X6864643Y-15056596D01*
X6845595Y-15066120D01*
X6836071Y-15075644D01*
X6817024Y-15104215D01*
X6807500Y-15142310D01*
X6807500Y-15218501D01*
X6817024Y-15237548D01*
X6826548Y-15247072D01*
X6845595Y-15256596D01*
X6883690Y-15256596D01*
X6902738Y-15247072D01*
X6912262Y-15237548D01*
X6921786Y-15218501D01*
X6921786Y-15170882D01*
X6912262Y-15151834D01*
X6902738Y-15142310D01*
X6883690Y-15132787D01*
X6845595Y-15132787D01*
X6826548Y-15142310D01*
X6817024Y-15151834D01*
X6807500Y-15170882D01*
X6997976Y-15056596D02*
X6997976Y-15094691D01*
X7074167Y-15056596D02*
X7074167Y-15094691D01*
X7369405Y-15332787D02*
X7359881Y-15323263D01*
X7340833Y-15294691D01*
X7331309Y-15275644D01*
X7321786Y-15247072D01*
X7312262Y-15199453D01*
X7312262Y-15161358D01*
X7321786Y-15113739D01*
X7331309Y-15085168D01*
X7340833Y-15066120D01*
X7359881Y-15037548D01*
X7369405Y-15028025D01*
X7436071Y-15075644D02*
X7445595Y-15066120D01*
X7464643Y-15056596D01*
X7512262Y-15056596D01*
X7531309Y-15066120D01*
X7540833Y-15075644D01*
X7550357Y-15094691D01*
X7550357Y-15113739D01*
X7540833Y-15142310D01*
X7426548Y-15256596D01*
X7550357Y-15256596D01*
X7788452Y-15256596D02*
X7788452Y-15056596D01*
X7874167Y-15256596D02*
X7874167Y-15151834D01*
X7864643Y-15132787D01*
X7845595Y-15123263D01*
X7817024Y-15123263D01*
X7797976Y-15132787D01*
X7788452Y-15142310D01*
X7997976Y-15256596D02*
X7978928Y-15247072D01*
X7969405Y-15237548D01*
X7959881Y-15218501D01*
X7959881Y-15161358D01*
X7969405Y-15142310D01*
X7978928Y-15132787D01*
X7997976Y-15123263D01*
X8026548Y-15123263D01*
X8045595Y-15132787D01*
X8055119Y-15142310D01*
X8064643Y-15161358D01*
X8064643Y-15218501D01*
X8055119Y-15237548D01*
X8045595Y-15247072D01*
X8026548Y-15256596D01*
X7997976Y-15256596D01*
X8178928Y-15256596D02*
X8159881Y-15247072D01*
X8150357Y-15228025D01*
X8150357Y-15056596D01*
X8331309Y-15247072D02*
X8312262Y-15256596D01*
X8274167Y-15256596D01*
X8255119Y-15247072D01*
X8245595Y-15228025D01*
X8245595Y-15151834D01*
X8255119Y-15132787D01*
X8274167Y-15123263D01*
X8312262Y-15123263D01*
X8331309Y-15132787D01*
X8340833Y-15151834D01*
X8340833Y-15170882D01*
X8245595Y-15189929D01*
X8417024Y-15247072D02*
X8436071Y-15256596D01*
X8474167Y-15256596D01*
X8493214Y-15247072D01*
X8502738Y-15228025D01*
X8502738Y-15218501D01*
X8493214Y-15199453D01*
X8474167Y-15189929D01*
X8445595Y-15189929D01*
X8426548Y-15180406D01*
X8417024Y-15161358D01*
X8417024Y-15151834D01*
X8426548Y-15132787D01*
X8445595Y-15123263D01*
X8474167Y-15123263D01*
X8493214Y-15132787D01*
X8569405Y-15332787D02*
X8578929Y-15323263D01*
X8597976Y-15294691D01*
X8607500Y-15275644D01*
X8617024Y-15247072D01*
X8626548Y-15199453D01*
X8626548Y-15161358D01*
X8617024Y-15113739D01*
X8607500Y-15085168D01*
X8597976Y-15066120D01*
X8578929Y-15037548D01*
X8569405Y-15028025D01*
M02*
