%TF.GenerationSoftware,KiCad,Pcbnew,8.0.2*%
%TF.CreationDate,2024-12-21T13:17:58-07:00*%
%TF.ProjectId,DSP_TU,4453505f-5455-42e6-9b69-6361645f7063,C*%
%TF.SameCoordinates,Original*%
%TF.FileFunction,Soldermask,Bot*%
%TF.FilePolarity,Negative*%
%FSLAX46Y46*%
G04 Gerber Fmt 4.6, Leading zero omitted, Abs format (unit mm)*
G04 Created by KiCad (PCBNEW 8.0.2) date 2024-12-21 13:17:58*
%MOMM*%
%LPD*%
G01*
G04 APERTURE LIST*
%ADD10R,1.700000X1.700000*%
%ADD11O,1.700000X1.700000*%
%ADD12C,4.500000*%
%ADD13R,1.428000X1.428000*%
%ADD14C,1.428000*%
%ADD15C,3.316000*%
%ADD16R,0.950000X0.950000*%
%ADD17C,0.950000*%
%ADD18C,1.500000*%
%ADD19R,2.100000X2.100000*%
%ADD20C,2.100000*%
%ADD21R,1.600000X1.600000*%
%ADD22O,1.600000X1.600000*%
%ADD23R,1.651000X1.651000*%
%ADD24C,1.651000*%
%ADD25C,2.362200*%
%ADD26R,1.650000X1.650000*%
%ADD27C,1.650000*%
%ADD28O,3.316000X6.632000*%
G04 APERTURE END LIST*
D10*
%TO.C,J1*%
X135487000Y-131737000D03*
D11*
X132947000Y-131737000D03*
X130407000Y-131737000D03*
X127867000Y-131737000D03*
X125327000Y-131737000D03*
X122787000Y-131737000D03*
X120247000Y-131737000D03*
%TD*%
D10*
%TO.C,J7*%
X170026000Y-106680000D03*
D11*
X170026000Y-109220000D03*
X170026000Y-111760000D03*
X170026000Y-114300000D03*
X170026000Y-116840000D03*
X170026000Y-119380000D03*
X170026000Y-121920000D03*
X170026000Y-124460000D03*
%TD*%
D12*
%TO.C,MH1*%
X56600000Y-98260000D03*
%TD*%
D10*
%TO.C,J6*%
X100176000Y-101092000D03*
D11*
X102716000Y-101092000D03*
X105256000Y-101092000D03*
X107796000Y-101092000D03*
X110336000Y-101092000D03*
X112876000Y-101092000D03*
X115416000Y-101092000D03*
X117956000Y-101092000D03*
%TD*%
D13*
%TO.C,J3*%
X170026000Y-28745000D03*
D14*
X172526000Y-28745000D03*
X172526000Y-26745000D03*
X170026000Y-26745000D03*
D15*
X177296000Y-24035000D03*
X165256000Y-24035000D03*
%TD*%
D16*
%TO.C,S6*%
X100938000Y-142462000D03*
D17*
X97488000Y-142462000D03*
D18*
X100813000Y-144662000D03*
X97613000Y-144662000D03*
D17*
X99788000Y-142462000D03*
X98638000Y-142462000D03*
%TD*%
D16*
%TO.C,S5*%
X90778000Y-142462000D03*
D17*
X87328000Y-142462000D03*
D18*
X90653000Y-144662000D03*
X87453000Y-144662000D03*
D17*
X89628000Y-142462000D03*
X88478000Y-142462000D03*
%TD*%
D19*
%TO.C,J5*%
X148129000Y-23400000D03*
D20*
X143129000Y-23400000D03*
X138129000Y-23400000D03*
X133129000Y-23400000D03*
X128129000Y-23400000D03*
X123129000Y-23400000D03*
X118129000Y-23400000D03*
X113129000Y-23400000D03*
X108129000Y-23400000D03*
X103129000Y-23400000D03*
X98129000Y-23400000D03*
X93129000Y-23400000D03*
%TD*%
D21*
%TO.C,K1*%
X99060000Y-45085000D03*
D22*
X101600000Y-45085000D03*
X104140000Y-45085000D03*
X104140000Y-37465000D03*
X101600000Y-37465000D03*
X99060000Y-37465000D03*
%TD*%
D21*
%TO.C,K2*%
X110475000Y-45349000D03*
D22*
X113015000Y-45349000D03*
X115555000Y-45349000D03*
X115555000Y-37729000D03*
X113015000Y-37729000D03*
X110475000Y-37729000D03*
%TD*%
D12*
%TO.C,MH2*%
X116586000Y-60460000D03*
%TD*%
D10*
%TO.C,J4*%
X50038000Y-76200000D03*
D11*
X52578000Y-76200000D03*
X55118000Y-76200000D03*
X57658000Y-76200000D03*
X60198000Y-76200000D03*
X62738000Y-76200000D03*
X65278000Y-76200000D03*
X67818000Y-76200000D03*
%TD*%
D19*
%TO.C,T2*%
X124154500Y-47244000D03*
D20*
X128904500Y-47244000D03*
X133654500Y-47244000D03*
X133654500Y-36576000D03*
X128904500Y-36576000D03*
X124154500Y-36576000D03*
%TD*%
D16*
%TO.C,S1*%
X50138000Y-142462000D03*
D17*
X46688000Y-142462000D03*
D18*
X50013000Y-144662000D03*
X46813000Y-144662000D03*
D17*
X48988000Y-142462000D03*
X47838000Y-142462000D03*
%TD*%
D16*
%TO.C,S4*%
X80618000Y-142462000D03*
D17*
X77168000Y-142462000D03*
D18*
X80493000Y-144662000D03*
X77293000Y-144662000D03*
D17*
X79468000Y-142462000D03*
X78318000Y-142462000D03*
%TD*%
D16*
%TO.C,S3*%
X70458000Y-142462000D03*
D17*
X67008000Y-142462000D03*
D18*
X70333000Y-144662000D03*
X67133000Y-144662000D03*
D17*
X69308000Y-142462000D03*
X68158000Y-142462000D03*
%TD*%
D23*
%TO.C,CR1*%
X108951000Y-33919000D03*
D24*
X95158800Y-33919000D03*
%TD*%
D19*
%TO.C,T1*%
X155753500Y-36576000D03*
D20*
X151003500Y-36576000D03*
X146253500Y-36576000D03*
X146253500Y-47244000D03*
X151003500Y-47244000D03*
X155753500Y-47244000D03*
%TD*%
D25*
%TO.C,S8*%
X180694000Y-123412000D03*
X180694000Y-127222000D03*
X180694000Y-131032000D03*
X185520000Y-123412000D03*
X185520000Y-127222000D03*
X185520000Y-131032000D03*
X180567000Y-143732000D03*
X185647000Y-143732000D03*
%TD*%
D26*
%TO.C,S7*%
X159144000Y-140470000D03*
D27*
X164144000Y-140470000D03*
X159144000Y-142970000D03*
X164144000Y-142970000D03*
X161644000Y-142970000D03*
D28*
X155094000Y-139470000D03*
X168194000Y-139470000D03*
%TD*%
D21*
%TO.C,U4*%
X92426000Y-37485000D03*
D22*
X89886000Y-37485000D03*
X87346000Y-37485000D03*
X87346000Y-45105000D03*
X89886000Y-45105000D03*
X92426000Y-45105000D03*
%TD*%
D10*
%TO.C,J2*%
X117194000Y-107950000D03*
D11*
X119734000Y-107950000D03*
X122274000Y-107950000D03*
X124814000Y-107950000D03*
X127354000Y-107950000D03*
X129894000Y-107950000D03*
X132434000Y-107950000D03*
X134974000Y-107950000D03*
%TD*%
D12*
%TO.C,MH3*%
X176586000Y-98260000D03*
%TD*%
D16*
%TO.C,S2*%
X60298000Y-142462000D03*
D17*
X56848000Y-142462000D03*
D18*
X60173000Y-144662000D03*
X56973000Y-144662000D03*
D17*
X59148000Y-142462000D03*
X57998000Y-142462000D03*
%TD*%
M02*
